<?xml version="1.0" encoding="UTF-8" standalone="no"?>
<svg xmlns:ffdec="https://www.free-decompiler.com/flash" xmlns:xlink="http://www.w3.org/1999/xlink" ffdec:objectType="frame" height="201.0px" width="137.0px" xmlns="http://www.w3.org/2000/svg">
  <g transform="matrix(1.0, 0.0, 0.0, 1.0, 0.0, 0.0)">
    <rect fill="#ffffff" height="201.0px" width="137.0px"/>
    <use ffdec:characterId="1" height="199.9" transform="matrix(1.0, 0.0, 0.0, 1.0, 0.0, 0.0)" width="136.2" xlink:href="#shape0"/>
  </g>
  <defs>
    <g id="shape0" transform="matrix(1.0, 0.0, 0.0, 1.0, 0.0, 0.0)">
      <path d="M97.65 135.55 Q99.75 138.1 100.2 140.65 100.65 143.2 100.2 145.8 99.75 148.45 99.2 151.2 98.7 154.0 98.85 157.05 99.05 160.05 100.75 163.45 97.8 165.65 94.1 169.25 90.35 172.85 86.0 177.1 81.65 181.4 76.9 185.6 72.15 189.85 67.25 193.25 62.4 196.65 57.55 198.5 52.75 200.35 48.2 199.9 43.7 199.45 39.7 195.95 35.7 192.5 32.45 185.2 37.55 186.25 40.35 186.3 43.1 186.3 44.65 185.65 46.2 185.0 47.55 184.05 48.9 183.05 51.1 182.1 47.9 180.35 45.1 180.25 42.25 180.15 39.4 180.55 36.55 181.0 33.35 180.85 30.15 180.75 26.25 179.0 28.6 178.2 32.65 177.2 36.7 176.25 41.8 174.85 46.95 173.45 52.45 171.5 58.0 169.5 63.25 166.8 68.5 164.05 72.8 160.35 L72.8 166.55 Q88.65 163.8 85.2 141.75 89.6 141.45 92.85 140.05 96.05 138.65 97.65 135.55 M88.3 101.4 Q89.15 109.15 91.0 112.65 92.8 116.2 94.75 116.55 96.7 116.9 98.0 115.15 99.3 113.45 99.1 110.75 98.9 108.0 96.4 105.4 93.9 102.8 88.3 101.4 M44.9 85.9 Q42.95 93.25 44.35 99.3 45.75 105.35 49.5 109.75 53.2 114.15 58.15 116.6 63.1 119.1 68.2 119.25 73.3 119.45 77.45 117.0 81.65 114.55 83.85 109.2 86.05 103.85 85.2 95.2 82.95 91.5 78.4 88.5 73.85 85.5 68.05 83.85 62.2 82.2 56.2 82.55 50.15 82.9 44.9 85.9 M44.9 135.55 Q45.6 130.0 43.7 124.95 41.8 119.95 38.35 116.5 34.9 113.0 30.85 112.1 26.8 111.2 23.15 113.8 26.9 116.0 27.9 118.8 28.9 121.65 28.2 125.05 27.55 128.5 26.25 132.45 28.65 134.1 30.4 134.5 32.15 134.9 33.65 134.7 35.1 134.45 36.65 134.15 38.2 133.85 40.15 134.05 42.15 134.25 44.9 135.55 M1.45 57.95 Q3.35 45.1 8.65 35.2 13.95 25.3 21.75 18.25 29.55 11.15 39.05 6.9 48.5 2.6 58.85 1.0 69.15 -0.6 79.45 0.4 89.7 1.4 99.15 4.9 108.6 8.4 116.3 14.35 124.05 20.3 129.2 28.6 134.4 36.9 136.2 47.45 138.0 58.0 135.55 70.75 133.1 83.45 125.55 98.3 126.15 105.65 125.0 111.2 123.8 116.7 121.45 121.1 119.1 125.5 116.25 129.35 113.4 126.3 110.6 125.9 107.85 125.45 105.05 126.75 102.3 128.05 99.35 130.25 96.4 132.4 93.2 134.6 90.0 136.75 86.4 138.1 82.8 139.4 78.65 139.0 74.5 138.55 69.7 135.55 68.2 135.2 67.8 136.25 67.4 137.3 67.75 139.1 68.15 140.9 69.0 142.85 69.9 144.75 70.9 146.2 71.95 147.65 72.8 147.95 70.45 150.9 66.05 154.25 61.7 157.65 56.0 160.5 50.25 163.4 44.0 164.85 37.7 166.3 31.5 165.4 25.35 164.5 20.05 160.35 19.9 155.65 20.75 150.15 21.6 144.7 22.65 138.95 23.65 133.2 24.0 127.55 24.35 121.95 23.15 116.9 19.75 117.05 18.65 118.3 17.5 119.55 17.7 121.35 17.9 123.15 18.4 124.95 18.9 126.7 18.8 127.95 18.65 129.2 16.95 129.35 12.65 129.45 9.75 127.1 6.9 124.75 5.3 120.9 3.7 117.05 3.2 112.7 2.65 108.3 3.05 104.5 3.45 100.65 4.55 98.3 7.25 101.95 10.35 104.25 13.45 106.55 17.35 106.8 21.25 107.0 26.25 104.5 27.75 102.35 28.2 98.7 28.7 95.05 27.9 90.95 27.1 86.85 24.7 83.3 22.35 79.8 18.15 77.85 13.95 75.9 7.65 76.6 4.6 77.4 3.45 78.35 2.35 79.3 2.5 80.45 2.65 81.65 3.3 83.25 4.0 84.85 4.45 87.0 4.95 89.2 4.55 92.1 2.7 91.3 1.7 88.75 0.7 86.2 0.3 82.45 -0.1 78.75 0.0 74.45 0.1 70.15 0.5 65.85 0.9 61.6 1.45 57.95" fill="#000000" fill-rule="evenodd" stroke="none"/>
    </g>
  </defs>
</svg>
