<?xml version="1.0" encoding="UTF-8" standalone="no"?>
<svg xmlns:ffdec="https://www.free-decompiler.com/flash" xmlns:xlink="http://www.w3.org/1999/xlink" ffdec:objectType="frame" height="200.0px" width="169.0px" xmlns="http://www.w3.org/2000/svg">
  <g transform="matrix(1.0, 0.0, 0.0, 1.0, 0.0, 0.0)">
    <rect fill="#ffffff" height="200.0px" width="169.0px"/>
    <use ffdec:characterId="1" height="200.0" transform="matrix(1.0, 0.0, 0.0, 1.0, 0.0, 0.0)" width="168.6" xlink:href="#shape0"/>
  </g>
  <defs>
    <g id="shape0" transform="matrix(1.0, 0.0, 0.0, 1.0, 0.0, 0.0)">
      <path d="M84.45 34.1 Q84.05 37.2 83.25 43.6 82.45 50.0 81.55 58.85 80.65 67.65 79.85 78.0 79.05 88.35 78.6 99.3 78.2 110.25 78.3 120.85 78.45 131.5 79.4 140.95 80.4 150.35 82.4 157.7 L84.45 34.1 M86.05 25.95 L91.15 154.75 Q94.9 151.45 98.85 146.6 102.8 141.7 106.2 135.2 109.6 128.7 111.7 120.55 113.85 112.35 113.95 102.4 114.05 92.45 111.4 80.65 108.7 68.9 102.55 55.2 96.4 41.55 86.05 25.95 M91.15 155.2 L92.0 177.1 Q108.4 177.0 122.0 176.25 135.6 175.45 145.7 174.45 144.1 172.8 140.9 170.15 137.65 167.5 132.9 164.55 128.1 161.65 121.8 159.25 115.55 156.8 107.85 155.6 100.15 154.4 91.15 155.2 M0.0 183.35 Q11.45 184.55 20.2 184.75 28.9 184.95 35.55 184.6 42.2 184.25 47.35 183.85 52.55 183.4 56.95 183.35 61.3 183.35 63.25 182.9 65.2 182.45 65.85 181.55 66.5 180.7 66.85 179.45 67.25 178.25 68.4 176.7 75.4 177.0 82.05 177.05 L82.4 158.5 60.3 162.3 Q60.35 162.2 61.05 157.8 61.8 153.4 63.05 145.75 64.35 138.1 66.05 128.25 67.75 118.4 69.7 107.45 71.6 96.45 73.65 85.35 75.7 74.3 77.65 64.2 79.6 54.05 81.35 45.95 83.1 37.85 84.5 32.85 L85.05 0.0 86.0 25.05 Q87.95 26.25 92.55 29.65 97.2 33.1 103.55 38.65 109.9 44.2 116.9 51.8 123.9 59.4 130.6 68.95 137.25 78.5 142.55 89.95 147.85 101.4 150.75 114.6 153.65 127.85 153.1 142.8 152.6 157.7 147.65 174.25 157.65 173.15 163.1 172.35 168.5 171.6 168.6 171.55 163.85 180.15 157.9 185.55 152.0 191.0 146.0 194.0 139.95 197.0 134.85 198.3 129.8 199.55 126.65 199.8 123.55 200.05 123.45 200.0 123.4 200.0 119.8 200.0 116.2 200.0 109.9 200.0 103.6 200.0 95.5 200.0 87.4 200.0 78.3 200.0 69.25 200.0 60.1 200.0 50.95 200.0 42.55 200.0 34.15 200.0 27.35 200.0 20.6 200.0 16.3 200.0 12.05 200.0 11.1 200.0 8.8 198.6 5.8 194.3 2.85 190.05 0.0 183.35" fill="#000000" fill-rule="evenodd" stroke="none"/>
    </g>
  </defs>
</svg>
