<?xml version="1.0" encoding="UTF-8" standalone="no"?>
<svg xmlns:ffdec="https://www.free-decompiler.com/flash" xmlns:xlink="http://www.w3.org/1999/xlink" ffdec:objectType="frame" height="134.0px" width="200.0px" xmlns="http://www.w3.org/2000/svg">
  <g transform="matrix(1.0, 0.0, 0.0, 1.0, 0.0, 0.0)">
    <rect fill="#ffffff" height="134.0px" width="200.0px"/>
    <use ffdec:characterId="1" height="133.7" transform="matrix(1.0, 0.0, 0.0, 1.0, 0.0, 0.0)" width="199.9" xlink:href="#shape0"/>
  </g>
  <defs>
    <g id="shape0" transform="matrix(1.0, 0.0, 0.0, 1.0, 0.0, 0.0)">
      <path d="M127.35 16.8 Q127.45 16.75 131.2 17.65 135.0 18.5 141.5 20.75 148.0 23.05 156.25 27.2 164.55 31.35 173.6 37.95 182.7 44.5 191.6 53.95 195.15 57.95 196.6 63.25 198.05 68.55 198.25 74.15 198.5 79.7 198.35 84.5 198.2 89.3 198.55 92.3 198.6 92.4 199.05 93.95 199.45 95.55 199.8 97.7 200.15 99.85 199.9 101.55 199.6 103.3 198.25 103.65 196.9 103.95 193.9 101.95 190.8 99.8 185.45 96.25 180.1 92.7 173.45 88.55 166.8 84.45 159.8 80.55 152.85 76.7 146.5 73.9 140.2 71.1 135.45 70.2 131.55 73.7 128.55 76.3 125.5 78.95 122.8 80.8 120.05 82.7 117.05 83.85 114.05 85.0 110.15 85.55 106.3 86.1 101.0 86.1 98.45 86.05 97.7 85.35 96.9 84.6 97.3 83.6 97.65 82.55 98.55 81.5 99.45 80.5 100.25 79.9 101.0 79.3 102.35 78.45 103.75 77.55 105.2 76.25 106.65 75.0 107.8 73.3 108.9 71.6 109.15 69.45 109.25 67.6 108.3 67.15 107.35 66.7 106.35 66.85 105.35 67.05 105.25 67.15 105.2 67.1 102.55 67.35 99.9 67.55 95.4 68.25 90.85 69.0 85.15 70.5 79.45 72.05 73.3 74.65 67.1 77.25 61.15 81.2 55.2 85.2 50.2 90.8 45.2 96.4 41.8 103.9 40.55 106.8 40.9 109.5 41.25 112.15 42.5 114.5 43.8 116.85 45.4 118.8 47.05 120.75 48.4 122.15 49.8 123.6 50.3 124.4 50.85 125.45 50.9 127.0 50.95 128.55 50.7 130.05 50.45 131.6 50.2 132.6 49.95 133.65 49.95 133.7 49.9 133.6 47.95 132.05 46.0 130.5 42.5 128.45 39.0 126.4 34.25 124.85 29.55 123.3 23.95 123.2 18.4 123.1 12.3 125.5 6.2 127.9 0.0 133.7 2.25 125.3 5.0 119.55 7.75 113.8 10.7 110.0 13.65 106.2 16.4 103.65 19.2 101.1 21.45 99.15 23.75 97.15 25.15 95.0 26.3 93.1 28.05 89.0 29.8 84.85 32.35 79.15 34.9 73.45 38.5 66.8 42.1 60.15 47.0 53.15 51.9 46.2 58.25 39.55 64.65 32.95 72.75 27.25 76.2 24.95 77.4 22.95 78.65 20.95 78.05 18.8 77.45 16.6 75.45 13.7 73.5 10.85 71.95 9.55 70.35 8.2 69.45 7.85 68.55 7.5 68.5 7.55 68.45 7.5 67.85 6.85 67.25 6.2 66.7 5.25 66.15 4.25 66.25 3.2 66.3 2.15 67.6 1.3 68.9 0.5 72.0 0.15 78.25 -0.4 85.6 0.9 92.95 2.25 100.45 5.3 107.9 8.35 114.55 12.95 116.05 13.95 118.2 14.7 120.3 15.45 122.4 15.9 124.5 16.35 125.9 16.6 127.3 16.8 127.35 16.8" fill="#000000" fill-rule="evenodd" stroke="none"/>
    </g>
  </defs>
</svg>
