<?xml version="1.0" encoding="UTF-8" standalone="no"?>
<svg xmlns:ffdec="https://www.free-decompiler.com/flash" xmlns:xlink="http://www.w3.org/1999/xlink" ffdec:objectType="frame" height="199.0px" width="176.0px" xmlns="http://www.w3.org/2000/svg">
  <g transform="matrix(1.0, 0.0, 0.0, 1.0, 0.0, 0.0)">
    <rect fill="#ffffff" height="199.0px" width="176.0px"/>
    <use ffdec:characterId="1" height="198.55" transform="matrix(1.0, 0.0, 0.0, 1.0, 0.0, 0.0)" width="175.1" xlink:href="#shape0"/>
  </g>
  <defs>
    <g id="shape0" transform="matrix(1.0, 0.0, 0.0, 1.0, 0.0, 0.0)">
      <path d="M87.55 11.05 Q85.35 11.1 83.85 12.6 82.4 14.05 82.35 16.3 82.4 18.5 83.85 19.95 85.35 21.45 87.55 21.5 89.8 21.45 91.25 20.0 92.75 18.5 92.8 16.3 92.75 14.05 91.25 12.6 89.8 11.1 87.55 11.05 M150.85 82.1 Q157.8 86.4 162.3 91.95 166.85 97.45 169.45 103.15 172.05 108.8 173.25 113.65 174.5 118.5 174.8 121.5 175.15 124.45 175.1 124.55 175.1 124.5 173.55 124.0 172.05 123.5 169.4 122.95 166.75 122.35 163.35 122.15 161.05 137.8 156.3 148.85 151.6 159.95 145.3 167.3 139.0 174.7 131.95 179.3 124.85 183.85 117.85 186.6 110.85 189.3 104.75 191.05 98.6 192.75 94.2 194.4 89.8 196.1 87.95 198.55 L87.2 198.55 Q85.3 196.05 80.9 194.4 76.5 192.75 70.4 191.05 64.25 189.3 57.25 186.6 50.25 183.85 43.2 179.25 36.1 174.65 29.8 167.3 23.5 159.9 18.8 148.85 14.1 137.8 11.8 122.15 8.4 122.35 5.75 122.95 3.1 123.5 1.55 124.0 0.05 124.5 0.0 124.55 -0.05 124.45 0.3 121.45 0.6 118.5 1.85 113.65 3.05 108.8 5.7 103.15 8.3 97.45 12.8 91.95 17.3 86.4 24.25 82.1 27.8 85.75 30.45 90.6 33.1 95.4 35.0 100.65 36.9 105.9 38.15 110.95 39.4 115.95 40.15 120.0 40.85 124.05 41.15 126.45 41.45 128.85 41.45 128.9 L27.3 123.5 Q32.05 134.5 37.55 142.0 43.1 149.55 48.75 154.25 54.4 158.95 59.55 161.45 64.7 164.0 68.8 165.0 72.85 166.05 75.25 166.2 77.6 166.35 77.65 166.3 77.65 166.25 77.65 162.65 77.65 159.05 77.65 152.8 77.65 146.55 77.65 138.5 77.65 130.45 77.65 121.4 77.65 112.4 77.65 103.3 77.65 94.15 77.65 85.8 77.65 77.45 77.65 70.65 77.65 63.9 77.65 59.6 77.65 55.3 77.65 54.3 77.6 52.2 76.75 51.0 75.85 49.8 74.7 49.25 73.55 48.7 72.7 48.55 71.8 48.4 71.75 48.4 71.7 48.4 69.1 48.1 66.5 47.8 62.4 47.35 58.25 46.9 53.55 46.35 48.9 45.8 44.6 45.3 40.3 44.75 37.4 44.35 34.55 43.85 32.2 41.85 29.85 39.85 28.6 37.25 27.35 34.6 27.7 32.3 28.05 30.0 30.5 28.9 32.95 27.8 38.05 28.85 42.45 29.75 47.8 30.2 53.2 30.6 58.8 30.65 64.45 30.75 69.7 30.55 74.95 30.4 79.1 30.15 75.55 27.95 73.45 24.35 71.35 20.75 71.3 16.3 71.35 11.75 73.5 8.05 75.7 4.4 79.35 2.2 83.0 0.05 87.55 0.0 92.1 0.05 95.75 2.2 99.45 4.4 101.6 8.05 103.8 11.75 103.85 16.3 103.8 20.75 101.7 24.35 99.6 27.95 96.05 30.15 100.2 30.4 105.4 30.55 110.65 30.75 116.3 30.65 121.95 30.6 127.3 30.2 132.65 29.75 137.05 28.85 142.15 27.8 144.6 28.9 147.1 30.0 147.4 32.3 147.75 34.6 146.5 37.25 145.25 39.85 142.9 41.85 140.6 43.85 137.7 44.35 134.8 44.75 130.5 45.3 126.25 45.8 121.55 46.35 116.85 46.9 112.75 47.35 108.6 47.8 106.0 48.1 103.45 48.4 103.35 48.4 103.3 48.35 102.45 48.55 101.55 48.7 100.4 49.25 99.25 49.8 98.4 51.0 97.5 52.25 97.45 54.3 97.45 55.3 97.45 59.6 97.45 63.9 97.45 70.65 97.45 77.45 97.45 85.8 97.45 94.15 97.45 103.3 97.45 112.4 97.45 121.4 97.45 130.45 97.45 138.5 97.45 146.55 97.45 152.8 97.45 159.05 97.45 162.65 97.45 166.25 97.45 166.3 97.5 166.35 99.9 166.2 102.25 166.05 106.35 165.0 110.4 164.0 115.55 161.45 120.75 158.95 126.4 154.2 132.05 149.5 137.55 142.0 143.1 134.5 147.85 123.5 L133.7 128.9 Q133.65 128.85 133.95 126.45 134.25 124.05 135.0 120.0 135.7 115.95 136.95 110.95 138.2 105.9 140.1 100.65 142.0 95.4 144.65 90.6 147.3 85.75 150.85 82.1" fill="#000000" fill-rule="evenodd" stroke="none"/>
    </g>
  </defs>
</svg>
