<?xml version="1.0" encoding="UTF-8" standalone="no"?>
<svg xmlns:ffdec="https://www.free-decompiler.com/flash" xmlns:xlink="http://www.w3.org/1999/xlink" ffdec:objectType="frame" height="201.0px" width="197.0px" xmlns="http://www.w3.org/2000/svg">
  <g transform="matrix(1.0, 0.0, 0.0, 1.0, 0.0, 0.0)">
    <rect fill="#ffffff" height="201.0px" width="197.0px"/>
    <use ffdec:characterId="1" height="200.0" transform="matrix(1.0, 0.0, 0.0, 1.0, 0.0, 0.0)" width="196.7" xlink:href="#shape0"/>
  </g>
  <defs>
    <g id="shape0" transform="matrix(1.0, 0.0, 0.0, 1.0, 0.0, 0.0)">
      <path d="M176.45 24.0 Q186.7 34.85 191.7 48.75 196.7 62.7 196.7 77.65 196.7 107.3 179.9 127.9 163.15 148.45 138.15 148.45 125.25 148.5 116.9 144.05 108.55 139.65 106.2 132.8 L105.6 132.8 Q102.9 135.75 99.9 138.75 96.9 141.75 93.5 143.75 89.75 145.9 86.45 146.9 83.15 147.9 77.6 147.9 63.15 147.9 55.1 138.75 47.05 129.65 47.05 114.7 47.05 103.4 51.8 91.45 56.6 79.55 64.85 69.65 72.8 60.1 84.1 53.95 95.4 47.75 107.55 47.75 115.65 47.75 119.85 50.65 124.0 53.55 126.0 59.4 L126.25 59.4 129.95 49.2 160.25 49.2 136.6 114.45 Q135.65 116.85 134.9 121.05 134.1 125.3 134.1 127.55 134.1 132.35 136.25 135.1 138.35 137.9 142.95 137.9 161.4 137.9 172.6 120.85 183.75 103.85 183.75 76.3 183.75 62.5 179.2 50.85 174.6 39.2 165.55 30.5 156.45 21.75 142.8 16.75 129.2 11.75 111.65 11.75 94.8 11.75 79.1 18.05 63.4 24.35 50.6 36.6 38.0 48.5 30.3 65.75 22.6 83.0 22.6 104.3 22.6 125.15 28.7 140.95 34.85 156.8 45.55 167.4 56.35 178.1 70.95 183.55 85.55 188.95 103.2 188.95 123.3 188.95 138.8 183.7 154.35 178.45 166.6 168.95 L171.2 176.25 Q157.75 186.95 141.0 193.45 124.25 200.0 102.35 200.0 83.9 200.0 65.2 194.05 46.45 188.1 32.25 176.45 17.75 164.85 8.9 147.05 0.0 129.3 0.0 105.9 0.0 85.3 8.0 66.3 16.0 47.3 30.7 32.45 45.2 17.9 66.4 8.95 87.65 0.0 112.7 0.0 134.85 0.0 150.55 6.55 166.25 13.05 176.45 24.0 M121.2 72.7 Q121.05 66.2 117.95 62.1 114.85 58.0 108.7 58.0 102.85 58.0 97.35 63.3 91.9 68.55 87.55 77.15 83.3 85.6 80.75 96.45 78.25 107.35 78.25 117.8 78.25 125.8 80.55 130.0 82.85 134.25 87.95 134.25 92.4 134.25 95.95 131.95 99.55 129.65 103.3 124.5 L121.2 72.7" fill="#000000" fill-rule="evenodd" stroke="none"/>
    </g>
  </defs>
</svg>
