<?xml version="1.0" encoding="UTF-8" standalone="no"?>
<svg xmlns:ffdec="https://www.free-decompiler.com/flash" xmlns:xlink="http://www.w3.org/1999/xlink" ffdec:objectType="frame" height="201.0px" width="137.0px" xmlns="http://www.w3.org/2000/svg">
  <g transform="matrix(1.0, 0.0, 0.0, 1.0, 0.0, 0.0)">
    <rect fill="#ffffff" height="201.0px" width="137.0px"/>
    <use ffdec:characterId="1" height="200.0" transform="matrix(1.0, 0.0, 0.0, 1.0, 0.0, 0.0)" width="136.4" xlink:href="#shape0"/>
  </g>
  <defs>
    <g id="shape0" transform="matrix(1.0, 0.0, 0.0, 1.0, 0.0, 0.0)">
      <path d="M136.4 127.95 Q136.4 151.0 118.8 165.2 101.25 179.35 75.35 181.1 L75.35 200.0 63.05 200.0 63.05 181.1 Q36.95 180.6 18.45 169.15 0.0 157.7 0.0 142.55 0.0 133.8 5.35 127.7 10.7 121.65 20.15 121.65 29.95 121.65 35.75 126.75 41.5 131.9 41.5 140.7 41.5 147.05 39.4 153.4 37.3 159.8 35.9 163.4 39.25 165.1 46.95 167.85 54.65 170.55 63.05 170.55 L63.05 114.95 Q61.35 114.7 59.7 114.5 58.1 114.35 56.0 114.05 32.2 111.85 18.45 99.7 4.7 87.55 4.7 68.0 4.7 59.3 7.95 51.0 11.15 42.7 17.85 35.5 24.65 28.1 35.85 23.05 47.1 18.05 63.05 17.05 L63.05 0.0 75.35 0.0 75.35 17.05 Q100.75 18.05 116.45 27.65 132.2 37.25 132.2 51.4 132.2 59.8 127.05 65.7 121.9 71.55 112.9 71.6 103.45 71.55 98.0 66.6 92.55 61.65 92.55 53.25 92.55 47.4 94.5 41.85 96.4 36.25 97.9 31.8 94.55 30.05 88.55 28.95 82.5 27.85 75.35 27.6 L75.35 78.25 Q77.2 78.4 80.05 78.9 82.9 79.4 85.0 79.65 110.4 83.35 123.4 95.75 136.4 108.15 136.4 127.95 M63.05 77.15 L63.05 27.6 Q48.9 29.1 41.35 35.9 33.85 42.7 33.85 52.25 33.8 63.3 40.0 69.0 46.15 74.65 57.85 76.4 59.7 76.65 60.65 76.85 61.55 77.05 63.05 77.15 M107.3 142.55 Q107.3 132.3 101.25 125.9 95.2 119.55 82.1 117.05 80.75 116.8 78.9 116.55 77.05 116.3 75.35 116.05 L75.35 170.55 Q92.25 168.95 99.75 161.2 107.3 153.5 107.3 142.55" fill="#000000" fill-rule="evenodd" stroke="none"/>
    </g>
  </defs>
</svg>
