<?xml version="1.0" encoding="UTF-8" standalone="no"?>
<svg xmlns:ffdec="https://www.free-decompiler.com/flash" xmlns:xlink="http://www.w3.org/1999/xlink" ffdec:objectType="frame" height="101.0px" width="101.0px" xmlns="http://www.w3.org/2000/svg">
  <g transform="matrix(1.0, 0.0, 0.0, 1.0, 0.0, 0.0)">
    <rect fill="#ffffff" height="101.0px" width="101.0px"/>
    <use ffdec:characterId="1" height="100.5" transform="matrix(1.0, 0.0, 0.0, 1.0, 0.0, 0.0)" width="100.5" xlink:href="#shape0"/>
  </g>
  <defs>
    <g id="shape0" transform="matrix(1.0, 0.0, 0.0, 1.0, 0.0, 0.0)">
      <path d="M50.3 50.25 L50.15 50.25 50.15 50.3 50.3 50.3 50.3 50.25 M95.35 45.6 Q97.9 47.0 100.5 47.0 L100.5 53.55 Q97.0 53.5 94.15 52.25 91.3 51.05 88.95 49.4 86.65 47.75 84.55 46.2 82.5 44.65 80.65 43.6 78.2 42.2 75.95 42.2 74.1 42.2 72.4 43.0 70.65 43.75 68.75 45.2 66.8 46.6 64.55 48.3 62.3 50.0 59.4 51.45 56.95 52.7 53.85 53.25 54.05 54.25 54.4 55.15 55.2 57.3 56.6 59.35 57.95 61.35 59.6 63.45 61.25 65.55 62.7 68.05 64.75 71.4 64.9 75.95 64.85 79.3 63.6 82.0 62.35 84.7 60.7 86.95 59.1 89.25 57.55 91.3 56.0 93.35 54.95 95.3 53.55 97.85 53.55 100.5 L47.0 100.5 Q47.05 97.0 48.25 94.15 49.5 91.3 51.15 88.95 52.8 86.6 54.35 84.55 55.9 82.5 56.95 80.65 58.35 78.2 58.35 75.95 58.35 74.1 57.55 72.4 56.8 70.65 55.35 68.75 53.95 66.8 52.25 64.55 50.55 62.3 49.1 59.4 47.85 56.95 47.3 53.85 46.25 54.1 45.35 54.45 43.15 55.25 41.15 56.6 39.15 58.0 37.05 59.65 34.95 61.3 32.45 62.75 29.1 64.75 24.55 64.95 L24.5 64.95 Q21.2 64.85 18.45 63.6 15.75 62.4 13.5 60.75 11.25 59.1 9.2 57.55 7.1 56.05 5.15 55.0 2.6 53.6 0.0 53.6 L0.0 47.0 Q3.45 47.1 6.35 48.3 9.2 49.5 11.5 51.2 13.85 52.85 15.9 54.4 18.0 55.95 19.85 57.0 22.3 58.35 24.5 58.4 26.4 58.35 28.1 57.6 29.85 56.8 31.75 55.4 33.7 53.95 35.95 52.25 38.2 50.55 41.05 49.1 43.55 47.9 46.65 47.3 46.45 46.3 46.1 45.4 45.3 43.25 43.9 41.2 42.55 39.2 40.9 37.1 39.25 35.0 37.8 32.5 35.75 29.15 35.6 24.6 35.6 24.55 35.6 24.55 35.6 24.55 35.6 24.5 35.7 21.2 36.9 18.45 38.15 15.8 39.8 13.5 41.45 11.25 42.95 9.2 44.5 7.1 45.55 5.15 46.95 2.6 46.95 0.0 L53.55 0.0 Q53.5 0.05 53.55 0.05 53.45 3.55 52.25 6.4 51.0 9.25 49.35 11.6 47.7 13.9 46.15 16.0 44.6 18.05 43.55 19.9 42.2 22.35 42.15 24.55 42.2 26.4 42.95 28.1 43.7 29.85 45.15 31.75 46.55 33.7 48.3 35.95 50.0 38.2 51.45 41.05 52.65 43.6 53.25 46.7 54.25 46.5 55.15 46.15 57.3 45.35 59.35 43.95 61.35 42.55 63.45 40.95 65.55 39.3 68.05 37.85 71.4 35.8 75.95 35.65 79.3 35.7 82.0 36.95 84.7 38.2 87.0 39.85 89.25 41.45 91.3 43.0 93.35 44.55 95.35 45.6" fill="#000000" fill-rule="evenodd" stroke="none"/>
    </g>
  </defs>
</svg>
