<?xml version="1.0" encoding="UTF-8" standalone="no"?>
<svg xmlns:ffdec="https://www.free-decompiler.com/flash" xmlns:xlink="http://www.w3.org/1999/xlink" ffdec:objectType="frame" height="100.0px" width="100.0px" xmlns="http://www.w3.org/2000/svg">
  <g transform="matrix(1.0, 0.0, 0.0, 1.0, 0.0, 0.0)">
    <rect fill="#ffffff" height="100.0px" width="100.0px"/>
    <use ffdec:characterId="1" height="99.5" transform="matrix(1.0, 0.0, 0.0, 1.0, 0.0, 0.0)" width="99.5" xlink:href="#shape0"/>
  </g>
  <defs>
    <g id="shape0" transform="matrix(1.0, 0.0, 0.0, 1.0, 0.0, 0.0)">
      <path d="M49.75 20.55 Q57.9 20.6 64.5 24.5 71.1 28.4 74.95 35.0 78.85 41.6 78.95 49.75 78.9 57.9 75.0 64.5 71.1 71.1 64.5 74.95 57.9 78.85 49.75 78.95 41.6 78.9 35.0 75.0 28.4 71.1 24.55 64.5 20.65 57.9 20.55 49.75 20.6 41.6 24.5 35.0 28.4 28.4 35.0 24.55 41.6 20.65 49.75 20.55 M49.75 92.4 Q61.65 92.25 71.25 86.55 80.9 80.9 86.55 71.25 92.25 61.65 92.4 49.75 92.25 37.85 86.55 28.25 80.9 18.6 71.25 12.95 61.65 7.25 49.75 7.1 37.85 7.25 28.25 12.95 18.6 18.6 12.95 28.25 7.25 37.85 7.1 49.75 7.25 61.65 12.95 71.25 18.6 80.9 28.25 86.55 37.85 92.25 49.75 92.4 M49.75 0.0 Q63.65 0.15 74.85 6.8 86.05 13.45 92.7 24.65 99.35 35.85 99.5 49.75 99.35 63.65 92.7 74.85 86.05 86.05 74.85 92.7 63.65 99.35 49.75 99.5 35.85 99.35 24.65 92.7 13.45 86.05 6.8 74.85 0.15 63.65 0.0 49.75 0.15 35.85 6.8 24.65 13.45 13.45 24.65 6.8 35.85 0.15 49.75 0.0" fill="#000000" fill-rule="evenodd" stroke="none"/>
    </g>
  </defs>
</svg>
