<?xml version="1.0" encoding="UTF-8" standalone="no"?>
<svg xmlns:ffdec="https://www.free-decompiler.com/flash" xmlns:xlink="http://www.w3.org/1999/xlink" ffdec:objectType="frame" height="100.0px" width="100.0px" xmlns="http://www.w3.org/2000/svg">
  <g transform="matrix(1.0, 0.0, 0.0, 1.0, 0.0, 0.0)">
    <rect fill="#ffffff" height="100.0px" width="100.0px"/>
    <use ffdec:characterId="1" height="99.25" transform="matrix(1.0, 0.0, 0.0, 1.0, 0.0, 0.0)" width="99.25" xlink:href="#shape0"/>
  </g>
  <defs>
    <g id="shape0" transform="matrix(1.0, 0.0, 0.0, 1.0, 0.0, 0.0)">
      <path d="M49.65 31.5 Q44.6 31.55 40.5 34.0 36.4 36.4 34.0 40.5 31.6 44.6 31.5 49.65 31.55 54.75 34.0 58.8 36.4 62.9 40.5 65.35 44.6 67.75 49.65 67.8 54.75 67.75 58.8 65.35 62.9 62.9 65.35 58.85 67.75 54.75 67.8 49.65 67.75 44.6 65.35 40.5 62.9 36.4 58.85 34.0 54.75 31.6 49.65 31.5 M49.3 59.45 Q45.15 59.35 42.35 56.6 39.6 53.85 39.5 49.65 39.6 45.5 42.35 42.75 45.15 39.95 49.3 39.85 53.45 39.95 56.25 42.75 59.0 45.5 59.1 49.65 59.0 53.85 56.25 56.6 53.45 59.35 49.3 59.45 M92.6 36.65 L90.3 36.1 Q86.35 35.2 83.6 32.55 80.85 29.95 79.65 26.35 78.5 22.7 79.3 18.75 L79.85 16.45 Q81.05 10.55 78.3 8.4 75.6 6.25 70.2 8.9 66.6 10.7 62.55 10.65 58.45 10.6 54.75 8.9 51.1 7.2 48.6 4.05 44.85 -0.65 41.45 0.1 38.1 0.85 36.65 6.75 L36.1 9.05 Q35.2 13.0 32.55 15.75 29.95 18.5 26.35 19.7 22.7 20.85 18.75 20.0 L16.45 19.5 Q10.55 18.3 8.4 21.0 6.25 23.75 8.9 29.15 10.7 32.75 10.65 36.8 10.6 40.85 8.9 44.55 7.2 48.25 4.05 50.75 -0.65 54.5 0.1 57.85 0.85 61.25 6.75 62.7 L9.05 63.2 Q13.0 64.15 15.75 66.75 18.5 69.35 19.7 73.0 20.85 76.6 20.0 80.55 L19.5 82.85 Q18.3 88.8 21.0 90.95 23.75 93.05 29.15 90.45 32.75 88.65 36.8 88.7 40.85 88.75 44.55 90.45 48.25 92.15 50.75 95.3 54.5 100.0 57.85 99.25 61.25 98.45 62.7 92.6 L63.2 90.3 Q64.15 86.35 66.75 83.6 69.35 80.85 73.0 79.65 76.6 78.5 80.55 79.3 L82.85 79.85 Q88.8 81.05 90.95 78.3 93.05 75.6 90.45 70.2 88.65 66.6 88.7 62.55 88.75 58.45 90.45 54.75 92.15 51.1 95.3 48.6 100.0 44.85 99.25 41.45 98.45 38.1 92.6 36.65 M49.65 69.65 Q44.1 69.6 39.6 66.9 35.1 64.25 32.45 59.75 29.75 55.25 29.7 49.65 29.75 44.1 32.45 39.6 35.1 35.1 39.6 32.45 44.1 29.75 49.65 29.7 55.25 29.75 59.75 32.45 64.25 35.1 66.9 39.6 69.55 44.1 69.65 49.65 69.6 55.25 66.9 59.75 64.25 64.25 59.75 66.9 55.25 69.55 49.65 69.65" fill="#000000" fill-rule="evenodd" stroke="none"/>
    </g>
  </defs>
</svg>
