<?xml version="1.0" encoding="UTF-8" standalone="no"?>
<svg xmlns:ffdec="https://www.free-decompiler.com/flash" xmlns:xlink="http://www.w3.org/1999/xlink" ffdec:objectType="frame" height="200.0px" width="200.0px" xmlns="http://www.w3.org/2000/svg">
  <g transform="matrix(1.0, 0.0, 0.0, 1.0, 0.0, 0.0)">
    <rect fill="#ffffff" height="200.0px" width="200.0px"/>
    <use ffdec:characterId="1" height="198.95" transform="matrix(1.0, 0.0, 0.0, 1.0, 0.0, 0.0)" width="198.95" xlink:href="#shape0"/>
  </g>
  <defs>
    <g id="shape0" transform="matrix(1.0, 0.0, 0.0, 1.0, 0.0, 0.0)">
      <path d="M189.25 100.0 Q196.65 102.7 198.9 105.6 201.15 108.5 198.75 111.05 196.3 113.6 189.65 115.15 183.05 116.75 172.75 116.8 164.5 116.7 154.25 114.65 144.05 112.55 132.65 109.55 121.3 106.55 109.6 103.7 117.3 108.2 125.05 112.8 132.75 117.4 139.95 122.0 147.1 126.55 153.1 130.95 159.1 135.4 163.35 139.6 173.05 149.3 176.7 155.7 180.35 162.05 177.15 164.15 173.95 166.2 163.1 163.1 166.45 170.25 166.0 173.9 165.5 177.55 162.0 177.6 158.5 177.7 152.7 174.1 146.9 170.55 139.6 163.3 135.25 158.95 130.9 152.85 126.6 146.8 122.2 139.65 117.85 132.5 113.35 124.75 108.85 117.05 104.2 109.35 106.4 118.05 108.65 126.75 110.85 135.45 112.7 143.75 114.55 152.05 115.65 159.4 116.75 166.8 116.8 172.75 116.8 183.05 115.7 189.65 114.6 196.3 112.5 198.75 110.35 201.15 107.25 198.95 104.1 196.7 100.0 189.25 97.3 196.65 94.4 198.9 91.5 201.15 88.95 198.75 86.4 196.3 84.85 189.65 83.25 183.05 83.2 172.75 83.3 164.5 85.35 154.25 87.45 144.05 90.45 132.65 93.45 121.3 96.3 109.6 91.8 117.3 87.2 125.05 82.6 132.75 78.0 139.95 73.45 147.1 69.05 153.1 64.6 159.05 60.4 163.3 50.7 173.05 44.3 176.7 37.95 180.35 35.85 177.15 33.8 173.95 36.9 163.1 29.75 166.45 26.1 166.0 22.45 165.5 22.4 162.0 22.3 158.5 25.9 152.7 29.45 146.9 36.7 139.6 41.05 135.25 47.15 130.9 53.2 126.6 60.35 122.2 67.5 117.85 75.25 113.35 82.95 108.85 90.65 104.2 81.95 106.4 73.25 108.65 64.55 110.85 56.25 112.7 47.95 114.55 40.6 115.65 33.2 116.75 27.25 116.8 16.95 116.8 10.35 115.7 3.7 114.6 1.25 112.5 -1.15 110.35 1.05 107.25 3.3 104.1 10.75 100.0 3.35 97.3 1.1 94.4 -1.15 91.5 1.25 88.95 3.7 86.4 10.35 84.85 16.95 83.25 27.25 83.2 35.5 83.3 45.75 85.35 55.95 87.45 67.35 90.45 78.7 93.45 90.4 96.3 82.7 91.8 74.95 87.2 67.25 82.6 60.05 78.0 52.9 73.45 46.9 69.05 40.95 64.6 36.7 60.4 26.95 50.7 23.3 44.3 19.65 37.95 22.85 35.85 26.05 33.8 36.9 36.9 33.55 29.75 34.0 26.1 34.45 22.45 38.0 22.4 41.5 22.3 47.3 25.9 53.1 29.45 60.4 36.7 64.75 41.05 69.1 47.15 73.4 53.2 77.8 60.35 82.15 67.5 86.65 75.25 91.15 82.95 95.8 90.65 93.6 81.95 91.35 73.25 89.15 64.55 87.3 56.25 85.45 47.95 84.35 40.6 83.25 33.2 83.2 27.25 83.2 16.95 84.3 10.35 85.4 3.7 87.5 1.25 89.65 -1.15 92.75 1.05 95.9 3.3 100.0 10.75 102.7 3.35 105.6 1.1 108.5 -1.15 111.05 1.25 113.6 3.7 115.15 10.35 116.75 16.95 116.8 27.25 116.7 35.5 114.65 45.75 112.55 55.95 109.55 67.35 106.55 78.7 103.7 90.4 108.2 82.7 112.8 74.95 117.4 67.25 122.0 60.05 126.55 52.9 130.95 46.9 135.4 40.95 139.6 36.7 149.3 26.95 155.7 23.3 162.05 19.65 164.15 22.85 166.2 26.05 163.1 36.9 170.25 33.55 173.9 34.0 177.55 34.45 177.6 38.0 177.7 41.5 174.15 47.3 170.6 53.1 163.35 60.4 158.95 64.75 152.9 69.1 146.8 73.4 139.65 77.8 132.5 82.15 124.75 86.65 117.05 91.15 109.35 95.8 118.05 93.6 126.75 91.35 135.45 89.15 143.75 87.3 152.05 85.45 159.4 84.35 166.8 83.25 172.75 83.2 183.05 83.2 189.65 84.3 196.3 85.4 198.75 87.5 201.15 89.65 198.95 92.75 196.7 95.9 189.25 100.0" fill="#000000" fill-rule="evenodd" stroke="none"/>
    </g>
  </defs>
</svg>
