<?xml version="1.0" encoding="UTF-8" standalone="no"?>
<svg xmlns:ffdec="https://www.free-decompiler.com/flash" xmlns:xlink="http://www.w3.org/1999/xlink" ffdec:objectType="frame" height="195.0px" width="200.0px" xmlns="http://www.w3.org/2000/svg">
  <g transform="matrix(1.0, 0.0, 0.0, 1.0, 0.0, 0.0)">
    <rect fill="#ffffff" height="195.0px" width="200.0px"/>
    <use ffdec:characterId="1" height="194.15" transform="matrix(1.0, 0.0, 0.0, 1.0, 0.0, 0.0)" width="199.85" xlink:href="#shape0"/>
  </g>
  <defs>
    <g id="shape0" transform="matrix(1.0, 0.0, 0.0, 1.0, 0.0, 0.0)">
      <path d="M173.75 117.9 Q166.25 120.3 160.95 120.15 155.6 120.0 151.4 118.25 147.15 116.45 143.0 113.85 138.85 111.25 133.7 108.75 128.6 106.2 121.45 104.55 114.3 102.9 104.15 103.05 104.2 103.1 104.2 103.2 104.15 104.55 103.35 105.55 110.2 110.7 116.25 113.5 122.3 116.3 127.65 117.5 133.0 118.7 137.8 119.05 142.6 119.45 146.9 119.8 151.25 120.15 155.25 121.25 159.25 122.4 163.0 125.05 166.8 127.7 170.45 132.7 175.1 139.15 176.75 146.45 178.4 153.7 177.25 161.0 176.1 168.3 172.25 174.7 168.45 181.1 162.05 185.8 155.6 190.4 148.35 192.1 141.05 193.75 133.8 192.6 126.5 191.45 120.1 187.6 113.7 183.8 109.0 177.4 105.05 171.95 103.4 167.45 101.75 162.95 101.7 158.95 101.65 154.95 102.45 151.0 103.3 147.05 104.25 142.75 105.25 138.4 105.65 133.2 106.1 128.0 105.25 121.55 104.45 115.05 101.65 106.8 101.05 107.05 100.3 107.1 99.6 107.1 99.0 106.8 96.2 114.9 95.4 121.5 94.65 128.15 95.15 133.6 95.7 139.05 96.8 143.7 97.9 148.35 98.9 152.6 99.9 156.8 100.1 160.95 100.25 165.1 98.9 169.5 97.5 173.9 93.9 178.95 89.2 185.35 82.8 189.2 76.4 193.0 69.1 194.15 61.85 195.35 54.55 193.65 47.3 192.0 40.85 187.4 34.45 182.7 30.6 176.25 26.8 169.85 25.65 162.6 24.5 155.3 26.15 148.0 27.85 140.75 32.45 134.3 36.4 128.85 40.15 125.9 43.95 122.95 47.7 121.7 51.5 120.4 55.5 119.95 59.5 119.5 63.95 119.1 68.35 118.7 73.45 117.5 78.5 116.3 84.4 113.55 90.3 110.75 97.3 105.55 96.5 104.55 96.4 103.2 96.45 103.15 96.45 103.05 86.5 102.9 79.25 104.65 72.0 106.4 66.55 109.15 61.15 111.95 56.7 114.8 52.25 117.7 47.85 119.8 43.5 121.9 38.3 122.3 33.1 122.7 26.25 120.5 18.75 118.05 13.1 113.1 7.5 108.2 4.15 101.65 0.8 95.05 0.15 87.65 -0.55 80.2 1.85 72.65 4.35 65.1 9.3 59.5 14.2 53.85 20.75 50.5 27.3 47.2 34.75 46.5 42.2 45.85 49.75 48.25 56.15 50.35 60.1 53.0 64.1 55.7 66.5 58.9 68.9 62.1 70.55 65.75 72.2 69.4 73.95 73.5 75.7 77.6 78.4 82.05 81.1 86.5 85.6 91.25 90.05 96.0 97.15 101.05 97.95 99.9 99.4 99.5 96.9 91.3 93.65 85.45 90.4 79.65 86.75 75.5 83.1 71.4 79.45 68.25 75.8 65.15 72.5 62.3 69.2 59.45 66.65 56.2 64.05 52.95 62.55 48.6 61.1 44.2 61.05 38.0 61.1 30.1 64.0 23.2 66.95 16.35 72.15 11.15 77.4 5.9 84.25 3.0 91.1 0.05 99.05 0.0 106.95 0.05 113.85 3.0 120.7 5.9 125.9 11.15 131.1 16.35 134.05 23.2 137.0 30.1 137.05 38.0 137.0 44.75 135.7 49.35 134.35 53.95 132.05 57.2 129.75 60.5 126.8 63.2 123.8 65.9 120.45 68.85 117.1 71.8 113.7 75.75 110.3 79.7 107.15 85.45 104.0 91.2 101.4 99.55 102.8 99.95 103.5 101.15 110.6 96.25 115.15 91.35 119.7 86.45 122.5 81.7 125.3 76.95 127.15 72.5 129.0 68.05 130.65 64.05 132.35 60.05 134.65 56.55 136.95 53.1 140.65 50.3 144.35 47.55 150.25 45.6 157.8 43.2 165.25 43.9 172.7 44.55 179.25 47.9 185.8 51.25 190.75 56.85 195.65 62.5 198.15 70.0 200.55 77.55 199.85 85.0 199.2 92.45 195.85 99.0 192.5 105.6 186.9 110.5 181.25 115.4 173.75 117.9" fill="#000000" fill-rule="evenodd" stroke="none"/>
    </g>
  </defs>
</svg>
