<?xml version="1.0" encoding="UTF-8" standalone="no"?>
<svg xmlns:ffdec="https://www.free-decompiler.com/flash" xmlns:xlink="http://www.w3.org/1999/xlink" ffdec:objectType="frame" height="191.0px" width="200.0px" xmlns="http://www.w3.org/2000/svg">
  <g transform="matrix(1.0, 0.0, 0.0, 1.0, 0.0, 0.0)">
    <rect fill="#ffffff" height="191.0px" width="200.0px"/>
    <use ffdec:characterId="1" height="190.25" transform="matrix(1.0, 0.0, 0.0, 1.0, 0.0, 0.0)" width="200.0" xlink:href="#shape0"/>
  </g>
  <defs>
    <g id="shape0" transform="matrix(1.0, 0.0, 0.0, 1.0, 0.0, 0.0)">
      <path d="M130.45 103.95 Q133.95 104.9 138.0 105.35 142.1 105.85 146.4 105.55 150.75 105.3 155.1 103.9 160.45 102.15 164.75 99.1 169.05 96.05 172.35 92.55 175.65 89.05 177.85 85.9 180.1 82.75 181.2 80.75 182.35 78.7 182.35 78.65 182.3 78.6 180.2 77.65 178.15 76.7 174.5 75.45 170.85 74.2 166.1 73.3 161.4 72.4 156.1 72.5 150.85 72.55 145.5 74.25 141.15 75.7 137.45 78.0 133.8 80.35 130.8 83.1 127.8 85.9 125.5 88.7 128.5 85.1 132.65 81.9 136.8 78.7 142.15 76.9 146.85 75.4 151.5 75.4 156.2 75.35 160.35 76.2 164.5 77.05 167.75 78.2 171.0 79.35 172.85 80.2 174.7 81.1 174.75 81.15 174.75 81.2 173.75 83.0 172.75 84.8 170.85 87.65 168.9 90.45 166.0 93.6 163.1 96.75 159.35 99.45 155.55 102.15 150.85 103.75 145.5 105.4 140.25 105.25 134.95 105.1 130.45 103.95 M143.8 139.4 Q141.1 135.7 137.75 132.95 134.4 130.15 130.85 128.15 127.25 126.2 123.9 124.85 128.2 126.6 132.55 129.55 136.9 132.55 140.25 137.05 143.1 141.05 144.6 145.5 146.05 149.9 146.55 154.15 147.05 158.35 146.95 161.8 146.85 165.25 146.6 167.25 146.35 169.3 146.3 169.35 146.25 169.4 144.2 169.0 142.2 168.6 138.9 167.65 135.6 166.7 131.75 164.9 127.85 163.15 124.1 160.4 120.35 157.6 117.4 153.65 114.15 149.05 112.7 144.0 111.2 138.95 110.9 134.3 111.1 137.9 111.9 141.95 112.7 145.95 114.3 150.0 115.9 154.05 118.55 157.75 121.9 162.25 126.15 165.4 130.35 168.6 134.7 170.6 139.05 172.65 142.75 173.8 146.4 174.95 148.7 175.4 150.95 175.85 151.0 175.85 151.05 175.8 151.3 173.5 151.55 171.2 151.6 167.35 151.65 163.5 151.05 158.75 150.45 153.95 148.75 148.95 147.05 143.95 143.8 139.4 M107.95 76.0 Q109.9 72.95 111.6 69.25 113.35 65.55 114.4 61.35 115.5 57.1 115.55 52.55 115.45 46.95 113.9 41.9 112.35 36.85 110.05 32.65 107.7 28.45 105.4 25.35 103.1 22.25 101.55 20.55 99.95 18.85 99.9 18.85 99.85 18.85 98.3 20.55 96.75 22.25 94.45 25.35 92.1 28.45 89.8 32.65 87.5 36.85 85.95 41.9 84.35 46.95 84.3 52.55 84.35 57.1 85.45 61.35 86.5 65.55 88.25 69.25 89.95 72.95 91.9 76.0 89.4 72.05 87.65 67.1 85.9 62.15 85.8 56.55 85.85 51.6 87.25 47.15 88.7 42.7 90.75 39.0 92.85 35.3 94.95 32.6 97.05 29.85 98.45 28.35 99.85 26.85 99.9 26.85 100.0 26.85 101.4 28.35 102.8 29.85 104.9 32.6 107.0 35.3 109.1 39.0 111.15 42.7 112.6 47.15 114.0 51.6 114.05 56.55 113.95 62.15 112.2 67.1 110.4 72.05 107.95 76.0 M100.1 105.1 Q100.1 105.0 100.2 104.85 100.0 105.05 99.95 105.05 100.0 105.05 100.1 105.1 M99.9 105.1 Q99.9 105.05 99.9 105.1 99.9 105.1 99.9 105.05 99.9 105.05 99.9 105.1 M81.35 158.0 Q84.05 154.3 85.65 150.25 87.25 146.2 88.05 142.2 88.85 138.2 89.05 134.6 88.7 139.2 87.25 144.25 85.75 149.3 82.55 153.9 79.6 157.85 75.8 160.65 72.05 163.4 68.2 165.2 64.3 166.95 61.05 167.9 57.75 168.9 55.7 169.3 53.7 169.65 53.65 169.65 53.6 169.6 53.35 167.55 53.1 165.5 53.0 162.1 52.9 158.65 53.4 154.4 53.85 150.2 55.35 145.75 56.8 141.35 59.65 137.3 63.05 132.8 67.4 129.85 71.75 126.9 76.05 125.15 72.65 126.45 69.1 128.45 65.55 130.45 62.2 133.2 58.85 136.0 56.1 139.65 52.85 144.25 51.15 149.25 49.45 154.25 48.85 159.0 48.25 163.75 48.3 167.6 48.35 171.5 48.65 173.75 48.9 176.05 48.95 176.1 49.0 176.15 51.25 175.7 53.5 175.2 57.2 174.1 60.9 172.95 65.2 170.9 69.55 168.85 73.8 165.65 78.0 162.5 81.35 158.0 M44.6 103.4 Q49.0 104.75 53.3 105.05 57.65 105.35 61.7 104.85 65.75 104.35 69.25 103.45 64.75 104.55 59.5 104.7 54.25 104.85 48.9 103.2 44.2 101.65 40.4 98.9 36.6 96.2 33.75 93.05 30.85 89.95 28.9 87.1 26.95 84.25 26.0 82.45 25.0 80.65 25.0 80.6 25.05 80.55 26.9 79.7 28.75 78.8 32.0 77.65 35.2 76.5 39.4 75.65 43.55 74.8 48.2 74.85 52.9 74.9 57.6 76.35 62.9 78.15 67.1 81.4 71.25 84.6 74.25 88.15 71.95 85.35 68.95 82.6 65.95 79.8 62.25 77.5 58.6 75.15 54.25 73.7 48.9 72.05 43.65 71.95 38.35 71.9 33.65 72.8 28.9 73.7 25.25 74.9 21.6 76.15 19.55 77.15 17.45 78.1 17.4 78.15 17.4 78.2 18.5 80.2 19.65 82.2 21.85 85.35 24.1 88.5 27.4 92.0 30.65 95.5 35.0 98.55 39.3 101.6 44.6 103.4 M158.55 115.15 Q153.3 116.85 148.05 117.3 142.75 117.8 137.6 117.35 142.0 120.05 145.95 123.5 149.9 127.0 153.1 131.35 157.3 137.3 159.65 143.85 162.0 150.45 162.9 157.05 163.8 163.6 163.8 169.55 163.75 175.45 163.25 180.1 162.75 184.7 162.25 187.35 161.75 190.05 161.7 190.1 161.6 190.1 158.9 189.75 156.25 189.45 151.7 188.5 147.15 187.55 141.5 185.75 135.85 183.95 129.85 181.05 123.9 178.15 118.35 173.9 112.8 169.65 108.5 163.8 105.35 159.45 103.3 154.7 101.25 149.95 100.05 145.05 98.85 150.0 96.8 154.8 94.7 159.55 91.55 163.95 87.25 169.8 81.7 174.05 76.15 178.3 70.2 181.2 64.2 184.1 58.55 185.9 52.9 187.7 48.35 188.65 43.8 189.6 41.1 189.95 38.4 190.25 38.35 190.25 38.35 190.2 37.8 187.5 37.3 184.85 36.8 180.25 36.3 175.6 36.25 169.7 36.25 163.75 37.15 157.15 38.05 150.6 40.4 144.0 42.7 137.45 46.95 131.5 50.2 127.05 54.25 123.55 58.25 120.05 62.7 117.35 57.5 117.85 52.1 117.35 46.75 116.9 41.45 115.2 34.55 112.9 28.8 108.95 23.05 105.0 18.45 100.2 13.85 95.4 10.4 90.6 6.9 85.8 4.6 81.75 2.3 77.7 1.15 75.25 0.0 72.8 0.0 72.75 0.05 72.65 2.4 71.35 4.8 70.05 9.05 68.15 13.25 66.25 18.9 64.35 24.55 62.5 31.05 61.35 37.6 60.2 44.6 60.35 51.55 60.55 58.5 62.75 63.75 64.45 68.3 67.2 72.9 69.95 76.8 73.3 74.75 68.55 73.55 63.3 72.4 58.1 72.35 52.55 72.4 45.25 74.4 38.6 76.35 31.9 79.5 26.05 82.6 20.15 86.15 15.4 89.65 10.6 92.75 7.15 95.9 3.75 97.85 1.9 99.85 0.0 99.9 0.0 100.0 0.0 101.95 1.9 103.95 3.75 107.05 7.15 110.2 10.6 113.7 15.4 117.2 20.15 120.35 26.05 123.5 31.9 125.45 38.6 127.45 45.25 127.5 52.55 127.45 58.15 126.25 63.4 125.05 68.65 123.0 73.5 126.95 70.05 131.55 67.25 136.2 64.45 141.5 62.7 148.45 60.55 155.4 60.35 162.4 60.15 168.95 61.3 175.5 62.5 181.1 64.35 186.75 66.2 190.95 68.1 195.2 70.05 197.6 71.35 199.95 72.65 200.0 72.7 200.0 72.75 198.85 75.2 197.7 77.7 195.4 81.7 193.1 85.75 189.6 90.55 186.15 95.4 181.55 100.15 176.95 104.95 171.2 108.9 165.45 112.85 158.55 115.15" fill="#000000" fill-rule="evenodd" stroke="none"/>
    </g>
  </defs>
</svg>
