<?xml version="1.0" encoding="UTF-8" standalone="no"?>
<svg xmlns:ffdec="https://www.free-decompiler.com/flash" xmlns:xlink="http://www.w3.org/1999/xlink" ffdec:objectType="frame" height="200.0px" width="201.0px" xmlns="http://www.w3.org/2000/svg">
  <g transform="matrix(1.0, 0.0, 0.0, 1.0, 0.0, 0.0)">
    <rect fill="#ffffff" height="200.0px" width="201.0px"/>
    <use ffdec:characterId="1" height="200.0" transform="matrix(1.0, 0.0, 0.0, 1.0, 0.0, 0.0)" width="200.15" xlink:href="#shape0"/>
  </g>
  <defs>
    <g id="shape0" transform="matrix(1.0, 0.0, 0.0, 1.0, 0.0, 0.0)">
      <path d="M147.45 100.2 Q144.3 98.85 140.85 98.0 139.5 97.45 138.25 97.6 137.05 97.8 136.35 98.55 135.6 99.35 135.8 100.7 136.0 102.05 137.0 102.5 137.95 102.95 139.3 102.8 140.65 102.65 141.95 102.2 144.85 101.4 147.45 100.2 M133.3 66.8 Q130.1 68.1 127.05 69.95 124.95 70.85 124.4 72.5 123.8 74.15 125.35 75.45 126.5 76.25 127.5 75.85 128.5 75.5 129.35 74.45 130.2 73.4 130.8 72.15 132.25 69.55 133.3 66.8 M66.5 66.4 Q67.75 69.6 69.6 72.65 70.55 74.7 72.2 75.3 73.85 75.85 75.1 74.3 75.9 73.2 75.55 72.15 75.2 71.15 74.1 70.3 73.05 69.45 71.8 68.85 69.2 67.4 66.5 66.4 M52.7 99.95 Q55.85 101.35 59.3 102.15 60.7 102.7 61.9 102.55 63.15 102.4 63.85 101.6 64.55 100.8 64.35 99.45 64.15 98.1 63.15 97.65 62.2 97.2 60.85 97.35 59.5 97.5 58.2 97.95 55.35 98.8 52.7 99.95 M66.55 133.5 Q69.75 132.25 72.8 130.4 74.85 129.45 75.45 127.8 76.0 126.15 74.45 124.9 73.35 124.1 72.35 124.45 71.3 124.8 70.5 125.9 69.65 126.95 69.05 128.2 67.6 130.8 66.55 133.5 M133.5 133.6 Q132.25 130.4 130.4 127.35 129.45 125.3 127.8 124.7 126.15 124.15 124.9 125.7 124.1 126.8 124.45 127.85 124.8 128.85 125.9 129.7 126.95 130.55 128.2 131.15 130.8 132.6 133.5 133.6 M173.95 137.35 Q180.8 136.45 185.35 135.4 182.85 131.25 178.5 125.55 175.45 121.5 171.25 117.1 167.0 112.7 161.4 108.35 158.8 106.4 155.95 104.6 153.05 102.8 149.8 101.25 146.95 102.45 143.85 103.4 141.45 104.15 138.7 104.45 137.05 104.5 135.75 103.45 134.45 102.4 134.25 100.7 134.1 98.95 135.1 97.65 136.15 96.35 137.8 96.1 139.35 96.0 140.6 96.25 141.85 96.55 143.1 96.85 146.65 97.8 149.85 99.1 156.7 95.6 162.05 91.25 167.5 86.9 171.65 82.55 175.75 78.15 178.75 74.25 182.8 68.9 185.25 65.0 180.45 63.8 173.15 62.75 168.15 62.1 162.05 61.95 155.9 61.85 148.9 62.75 142.45 63.6 135.65 65.9 134.5 68.75 132.95 71.65 132.35 72.75 131.65 73.85 131.0 74.95 130.1 76.05 128.95 77.25 127.3 77.4 125.6 77.6 124.25 76.5 122.95 75.4 122.75 73.75 122.55 72.1 123.55 70.75 124.55 69.6 125.65 68.9 126.7 68.2 127.8 67.55 131.0 65.7 134.15 64.35 136.55 57.05 137.25 50.2 138.05 43.25 137.9 37.25 137.7 31.25 137.05 26.35 136.1 19.45 135.0 14.85 130.9 17.35 125.2 21.65 121.2 24.7 116.8 28.95 112.35 33.15 108.05 38.8 106.1 41.35 104.3 44.25 102.45 47.1 100.9 50.35 102.15 53.2 103.05 56.35 103.8 58.7 104.15 61.5 104.2 63.1 103.15 64.4 102.1 65.7 100.35 65.9 98.65 66.1 97.35 65.05 96.0 64.0 95.8 62.35 95.65 60.8 95.95 59.55 96.2 58.3 96.5 57.05 97.5 53.5 98.75 50.3 95.25 43.45 90.95 38.15 86.6 32.65 82.2 28.55 77.85 24.4 73.9 21.4 68.5 17.3 64.6 14.85 63.45 19.5 62.45 26.55 61.8 31.55 61.65 37.65 61.5 43.75 62.45 50.8 63.25 57.2 65.6 64.0 68.45 65.15 71.35 66.7 72.45 67.35 73.55 68.0 74.65 68.7 75.75 69.6 76.9 70.7 77.1 72.4 77.3 74.05 76.2 75.4 75.1 76.75 73.45 76.9 71.75 77.1 70.45 76.1 69.25 75.1 68.55 74.05 67.85 72.95 67.2 71.85 65.4 68.65 64.0 65.5 56.7 63.15 49.9 62.4 42.95 61.6 36.9 61.8 30.9 62.0 26.0 62.65 19.25 63.55 14.75 64.6 17.25 68.8 21.65 74.65 24.7 78.65 28.95 83.05 33.15 87.5 38.8 91.8 43.9 95.75 50.35 98.95 53.2 97.7 56.35 96.75 58.7 96.05 61.5 95.7 63.1 95.65 64.4 96.7 65.7 97.75 65.9 99.45 66.1 101.2 65.05 102.5 64.0 103.8 62.35 104.05 60.8 104.2 59.55 103.9 58.3 103.6 57.05 103.3 53.5 102.35 50.3 101.1 43.45 104.6 38.15 108.9 32.65 113.25 28.55 117.6 24.4 122.0 21.4 125.9 17.25 131.4 14.8 135.35 19.5 136.55 26.7 137.55 31.7 138.2 37.8 138.35 43.9 138.5 50.95 137.55 57.35 136.75 64.2 134.4 65.35 131.55 66.85 128.65 67.5 127.55 68.2 126.45 68.85 125.35 69.75 124.25 70.9 123.1 72.55 122.9 74.2 122.7 75.55 123.8 76.9 124.9 77.1 126.55 77.3 128.25 76.3 129.55 75.3 130.75 74.2 131.45 73.1 132.15 72.0 132.8 68.85 134.65 65.65 135.95 63.3 143.3 62.6 150.1 61.75 157.05 61.95 163.05 62.15 169.05 62.8 173.95 63.7 180.7 64.75 185.2 68.9 182.7 74.65 178.35 78.65 175.3 83.05 171.05 87.45 166.85 91.8 161.2 95.75 156.1 98.95 149.65 97.7 146.8 96.75 143.65 96.05 141.3 95.7 138.5 95.65 136.9 96.7 135.6 97.75 134.3 99.45 134.1 101.2 133.9 102.5 134.95 103.8 136.0 104.05 137.65 104.15 139.2 103.9 140.45 103.6 141.7 103.3 142.95 102.35 146.5 101.1 149.7 104.55 156.55 108.9 161.85 113.25 167.35 117.6 171.45 122.0 175.6 125.9 178.6 131.45 182.75 135.4 185.25 136.55 180.55 137.55 173.45 138.2 168.45 138.35 162.35 138.5 156.25 137.55 149.2 136.75 142.8 134.4 136.0 131.55 134.85 128.65 133.3 127.55 132.65 126.45 132.0 125.35 131.3 124.25 130.4 123.1 129.3 122.9 127.6 122.7 125.95 123.8 124.6 124.9 123.25 126.55 123.1 128.25 122.9 129.55 123.9 130.75 124.9 131.45 125.95 132.15 127.05 132.8 128.15 134.65 131.35 135.95 134.5 143.3 136.85 150.1 137.6 157.05 138.4 163.05 138.2 169.05 138.0 173.95 137.35 M99.95 147.3 Q101.3 144.15 102.15 140.7 102.7 139.3 102.55 138.1 102.4 136.85 101.6 136.15 100.8 135.45 99.45 135.65 98.1 135.85 97.65 136.85 97.2 137.8 97.35 139.15 97.5 140.5 97.95 141.8 98.8 144.65 99.95 147.3 M99.85 52.7 Q98.5 55.85 97.65 59.3 97.1 60.7 97.3 61.9 97.45 63.15 98.25 63.85 99.05 64.55 100.35 64.35 101.7 64.15 102.2 63.15 102.65 62.2 102.5 60.85 102.35 59.5 101.9 58.2 101.05 55.35 99.85 52.7 M200.15 135.6 L194.8 139.6 195.6 145.9 Q195.65 145.8 191.4 145.45 187.2 145.15 177.9 144.55 173.25 144.15 167.2 143.5 161.15 142.85 153.7 141.5 149.95 140.8 145.9 139.75 141.85 138.75 137.5 137.2 137.25 137.1 137.0 137.0 138.65 141.3 139.75 145.35 140.85 149.4 141.6 153.1 143.05 160.65 143.7 166.8 144.35 172.9 144.65 177.7 145.2 187.15 145.4 191.55 145.6 195.95 145.7 195.9 L139.05 194.9 135.2 199.9 Q135.3 199.9 132.5 196.65 129.75 193.45 123.65 186.45 120.6 182.85 116.8 178.1 112.95 173.4 108.65 167.15 106.5 164.05 104.35 160.45 102.25 156.85 100.25 152.65 100.15 152.45 100.0 152.15 98.15 156.35 96.05 160.0 94.0 163.65 91.9 166.85 87.6 173.15 83.7 177.95 79.85 182.75 76.7 186.35 70.35 193.45 67.4 196.7 64.45 199.95 64.55 200.0 L60.7 194.8 54.25 195.6 Q54.35 195.65 54.7 191.4 55.0 187.2 55.65 177.9 56.05 173.25 56.65 167.2 57.3 161.15 58.7 153.7 59.35 149.95 60.4 145.9 61.4 141.85 62.95 137.5 63.05 137.25 63.15 137.0 58.85 138.65 54.8 139.75 50.8 140.85 47.05 141.6 39.5 143.05 33.4 143.7 27.25 144.35 22.5 144.65 13.0 145.2 8.6 145.4 4.2 145.6 4.25 145.7 L5.25 139.15 0.1 135.2 Q0.1 135.3 3.35 132.5 6.55 129.75 13.55 123.65 17.15 120.6 21.9 116.8 26.6 112.95 32.85 108.65 35.95 106.5 39.55 104.35 43.15 102.25 47.35 100.25 47.6 100.15 47.8 100.0 43.6 98.15 40.0 96.05 36.35 94.0 33.15 91.9 26.85 87.6 22.05 83.7 17.25 79.85 13.65 76.7 6.55 70.35 3.3 67.4 0.05 64.45 0.0 64.55 L5.25 60.65 4.4 54.1 Q4.35 54.2 8.6 54.5 12.8 54.85 22.1 55.45 26.75 55.85 32.8 56.5 38.85 57.15 46.3 58.5 50.05 59.2 54.1 60.25 58.15 61.25 62.5 62.8 62.75 62.9 63.0 63.0 61.35 58.7 60.25 54.65 59.15 50.6 58.4 46.9 56.95 39.35 56.3 33.2 55.65 27.1 55.35 22.3 54.8 12.85 54.6 8.45 54.4 4.05 54.3 4.1 L60.8 5.05 64.65 0.1 Q64.55 0.1 67.3 3.35 70.1 6.55 76.2 13.55 79.2 17.15 83.05 21.9 86.85 26.6 91.15 32.85 93.3 35.95 95.45 39.55 97.6 43.15 99.6 47.35 99.7 47.55 99.8 47.85 101.7 43.65 103.75 40.0 105.85 36.35 107.95 33.15 112.25 26.85 116.1 22.05 120.0 17.25 123.15 13.65 129.5 6.55 132.45 3.3 135.4 0.05 135.3 0.0 L139.35 5.5 145.55 4.7 Q145.45 4.65 145.15 8.9 144.8 13.15 144.2 22.4 143.8 27.1 143.15 33.15 142.55 39.2 141.15 46.65 140.45 50.35 139.45 54.4 138.4 58.5 136.85 62.85 136.8 63.1 136.65 63.35 140.95 61.7 145.0 60.6 149.05 59.5 152.8 58.75 160.3 57.3 166.45 56.65 172.6 56.0 177.35 55.65 186.85 55.15 191.25 54.95 195.65 54.7 195.6 54.6 L194.65 60.8 200.05 65.0 Q200.05 64.85 196.8 67.65 193.6 70.4 186.6 76.55 183.0 79.55 178.3 83.35 173.55 87.2 167.3 91.5 164.2 93.65 160.6 95.8 157.0 97.95 152.85 99.9 152.6 100.05 152.35 100.15 156.55 102.0 160.2 104.1 163.8 106.2 167.0 108.3 173.35 112.55 178.15 116.45 182.95 120.35 186.55 123.45 193.6 129.8 196.85 132.75 200.1 135.7 200.15 135.6" fill="#000000" fill-rule="evenodd" stroke="none"/>
    </g>
  </defs>
</svg>
