<?xml version="1.0" encoding="UTF-8" standalone="no"?>
<svg xmlns:ffdec="https://www.free-decompiler.com/flash" xmlns:xlink="http://www.w3.org/1999/xlink" ffdec:objectType="frame" height="200.0px" width="196.0px" xmlns="http://www.w3.org/2000/svg">
  <g transform="matrix(1.0, 0.0, 0.0, 1.0, 0.0, 0.0)">
    <rect fill="#ffffff" height="200.0px" width="196.0px"/>
    <use ffdec:characterId="1" height="199.8" transform="matrix(1.0, 0.0, 0.0, 1.0, 0.0, 0.0)" width="195.85" xlink:href="#shape0"/>
  </g>
  <defs>
    <g id="shape0" transform="matrix(1.0, 0.0, 0.0, 1.0, 0.0, 0.0)">
      <path d="M180.3 129.8 Q183.7 129.6 185.9 130.5 188.05 131.4 189.5 133.25 191.0 135.05 190.9 137.65 190.75 140.25 188.05 143.6 186.2 145.8 182.7 148.2 179.2 150.65 173.7 152.55 168.15 154.45 160.25 155.05 156.25 155.3 151.7 154.6 147.15 153.9 142.4 152.3 137.7 150.65 133.25 148.05 126.55 144.15 121.25 138.95 115.95 133.7 112.1 128.15 108.35 122.7 105.75 117.75 103.15 112.75 101.55 108.85 99.9 104.95 99.15 102.65 98.35 100.35 98.25 100.2 98.4 100.25 100.0 102.1 101.6 103.9 104.5 106.85 107.4 109.8 111.35 113.3 115.3 116.85 120.1 120.35 125.0 123.9 130.35 126.6 135.7 129.35 140.95 130.85 146.25 132.3 150.85 132.6 155.5 132.9 159.25 132.65 164.2 132.35 168.1 131.7 172.0 131.05 175.0 130.45 178.0 129.9 180.3 129.8 M98.25 100.15 Q98.25 100.15 98.25 100.15 98.25 100.15 98.25 100.1 98.25 100.15 98.2 100.15 98.25 100.15 98.25 100.15 98.25 100.15 98.25 100.15 98.25 100.15 98.25 100.15 98.25 100.15 98.25 100.15 98.25 100.15 98.25 100.2 98.2 100.2 98.25 100.2 98.2 100.2 98.25 100.2 98.2 100.25 98.2 100.3 98.3 101.05 98.65 103.65 99.0 106.25 99.7 110.2 100.45 114.15 101.65 119.0 102.85 123.8 104.7 129.05 106.7 134.7 109.55 140.0 112.45 145.3 115.95 149.5 119.45 153.65 123.1 156.55 126.7 159.45 129.95 161.35 134.2 163.9 137.8 165.6 141.35 167.25 144.15 168.5 146.95 169.75 148.9 170.95 151.8 172.7 153.1 174.7 154.4 176.7 154.55 179.0 154.75 181.35 153.2 183.4 151.6 185.5 147.45 186.7 144.7 187.45 140.45 187.45 136.2 187.5 130.55 185.95 124.9 184.35 118.05 180.35 114.65 178.3 111.3 175.15 107.9 172.0 104.95 168.0 102.0 163.95 99.8 159.3 96.5 152.3 95.1 145.0 93.65 137.65 93.65 130.9 93.7 123.05 94.6 116.75 95.5 110.45 96.5 106.25 97.55 102.1 98.0 100.65 97.2 101.95 95.15 105.65 93.15 109.35 90.6 114.9 88.05 120.45 85.85 127.15 84.0 132.85 83.05 138.8 82.1 144.75 82.3 150.2 82.55 155.65 83.7 160.15 84.85 164.65 86.2 168.15 89.05 175.05 91.6 179.6 94.2 184.15 95.45 187.3 96.7 190.45 96.5 192.85 96.3 195.2 95.0 197.1 93.8 199.1 91.25 199.8 88.75 200.5 84.7 198.95 82.05 197.85 78.7 195.3 75.3 192.7 71.75 188.05 68.25 183.35 65.25 176.0 63.8 172.3 63.05 167.75 62.25 163.2 62.35 158.2 62.45 153.25 63.55 148.2 65.2 140.65 68.5 133.95 71.85 127.3 75.95 121.95 81.0 115.35 85.8 110.75 90.55 106.15 93.9 103.5 97.25 100.9 98.1 100.3 98.1 100.2 98.1 100.15 98.05 100.15 98.05 100.15 97.65 100.35 95.35 101.4 93.1 102.5 89.5 104.4 85.9 106.35 81.5 109.1 77.15 111.8 72.55 115.3 67.75 118.95 63.6 123.3 59.45 127.65 56.55 132.3 53.65 136.95 52.05 141.3 50.45 145.65 49.6 149.3 48.5 154.15 48.0 158.05 47.5 162.0 47.2 165.05 46.9 168.1 46.35 170.3 45.55 173.6 44.05 175.45 42.6 177.3 40.4 178.15 38.25 179.1 35.8 178.2 33.35 177.35 30.9 173.8 29.35 171.4 28.0 167.35 26.65 163.3 26.4 157.45 26.15 151.6 27.85 143.85 28.75 140.0 30.7 135.8 32.65 131.65 35.55 127.6 38.45 123.5 42.2 120.0 47.85 114.7 54.4 111.1 60.95 107.5 67.35 105.4 75.4 102.8 82.05 101.7 88.65 100.65 92.9 100.4 97.1 100.15 97.95 100.1 96.9 99.9 92.75 99.05 88.6 98.25 82.35 97.5 76.1 96.75 68.65 96.7 62.65 96.7 56.7 97.65 50.75 98.55 45.65 100.45 40.55 102.4 36.6 104.85 32.65 107.3 29.75 109.7 25.95 112.9 23.2 115.7 20.4 118.55 18.3 120.75 16.25 123.0 14.45 124.4 11.8 126.55 9.5 127.1 7.2 127.7 4.95 127.05 2.65 126.5 1.25 124.3 -0.2 122.1 0.05 117.8 0.25 114.95 1.65 110.95 3.05 106.9 6.4 102.1 9.75 97.35 15.8 92.2 18.9 89.65 23.0 87.55 27.1 85.4 31.85 83.95 36.65 82.5 41.75 82.0 49.45 81.2 56.8 82.3 64.2 83.4 70.55 85.65 76.6 87.8 81.5 90.2 86.4 92.6 90.0 94.75 93.55 96.95 95.65 98.4 97.7 99.85 98.1 100.1 98.1 100.1 98.1 100.1 97.85 99.9 96.15 98.1 94.45 96.25 91.5 93.4 88.55 90.55 84.6 87.2 80.6 83.85 75.8 80.5 70.8 77.1 65.4 74.5 59.95 71.95 54.65 70.6 49.35 69.25 44.75 69.05 40.1 68.85 36.35 69.2 31.4 69.65 27.5 70.4 23.65 71.15 20.65 71.8 17.65 72.45 15.4 72.6 12.0 72.9 9.8 72.05 7.55 71.2 6.1 69.4 4.55 67.65 4.6 65.05 4.65 62.45 7.3 59.0 9.1 56.8 12.5 54.25 15.95 51.75 21.4 49.7 26.9 47.65 34.8 46.85 38.75 46.55 43.35 47.1 47.9 47.65 52.7 49.15 57.45 50.65 61.95 53.15 68.7 56.9 74.15 61.95 79.65 67.05 83.6 72.5 87.4 77.8 90.1 82.6 92.8 87.45 94.55 91.3 96.25 95.1 97.1 97.45 97.95 99.8 98.1 100.1 98.15 100.1 98.1 100.05 98.15 100.05 98.1 100.05 98.15 100.05 98.1 100.05 98.1 100.05 98.15 100.05 98.15 100.0 98.15 99.95 98.1 99.15 97.8 96.55 97.5 93.9 96.9 89.95 96.25 86.0 95.2 81.15 94.1 76.3 92.4 71.05 90.5 65.35 87.8 59.95 85.1 54.6 81.7 50.3 78.25 46.05 74.7 43.1 71.15 40.1 68.0 38.1 63.75 35.45 60.25 33.65 56.7 31.9 53.95 30.6 51.15 29.3 49.25 28.05 46.4 26.2 45.15 24.2 43.9 22.15 43.85 19.85 43.65 17.5 45.3 15.45 46.95 13.4 51.1 12.3 53.9 11.65 58.15 11.75 62.4 11.8 68.0 13.5 73.6 15.2 80.35 19.4 83.7 21.55 86.95 24.8 90.25 28.0 93.15 32.1 96.0 36.2 98.05 40.9 101.15 48.0 102.4 55.35 103.6 62.7 103.45 69.45 103.25 77.2 102.2 83.4 101.2 89.65 100.05 93.8 98.9 97.9 98.4 99.45 99.2 98.1 101.15 94.35 103.1 90.55 105.45 85.0 107.8 79.45 109.85 72.75 111.55 66.95 112.35 61.0 113.15 55.05 112.8 49.6 112.4 44.15 111.15 39.65 109.9 35.2 108.45 31.75 105.45 24.95 102.75 20.45 100.05 16.0 98.75 12.85 97.4 9.7 97.55 7.35 97.65 4.95 98.9 3.0 100.1 1.0 102.6 0.25 105.1 -0.5 109.15 0.95 111.8 1.95 115.3 4.45 118.75 6.95 122.4 11.5 126.0 16.1 129.2 23.35 130.75 27.0 131.6 31.55 132.5 36.1 132.55 41.05 132.6 46.05 131.6 51.1 130.15 58.7 127.0 65.5 123.85 72.25 119.9 77.7 116.2 82.75 112.6 86.65 109.0 90.6 106.0 93.4 102.95 96.2 100.9 97.8 98.85 99.45 98.3 99.9 98.25 100.0 98.25 100.1 98.25 100.1 98.35 100.1 98.8 99.85 101.15 98.85 103.45 97.8 107.1 95.95 110.7 94.15 115.1 91.55 119.55 88.95 124.15 85.6 129.05 82.05 133.3 77.8 137.55 73.55 140.6 69.0 143.6 64.45 145.3 60.15 147.05 55.85 148.0 52.2 149.2 47.35 149.8 43.45 150.35 39.55 150.75 36.5 151.15 33.5 151.75 31.3 152.6 28.0 154.15 26.2 155.7 24.4 157.9 23.6 160.05 22.7 162.5 23.65 164.95 24.55 167.3 28.2 168.8 30.6 170.0 34.7 171.25 38.75 171.35 44.6 171.45 50.45 169.55 58.15 168.55 62.0 166.5 66.15 164.45 70.25 161.45 74.25 158.45 78.25 154.6 81.65 148.8 86.8 142.2 90.25 135.55 93.7 129.1 95.65 121.15 97.95 114.6 98.9 108.0 99.8 103.75 99.95 99.5 100.1 98.5 100.1 99.65 100.35 103.85 101.05 108.0 101.8 114.2 102.35 120.45 102.95 127.75 102.8 133.8 102.65 139.7 101.55 145.6 100.45 150.7 98.45 155.75 96.4 159.65 93.8 163.5 91.25 166.35 88.8 170.05 85.5 172.75 82.6 175.45 79.75 177.5 77.45 179.55 75.15 181.3 73.7 183.85 71.5 186.15 70.85 188.45 70.25 190.7 70.85 193.0 71.35 194.45 73.5 195.95 75.6 195.85 79.95 195.7 82.8 194.4 86.85 193.1 90.9 189.85 95.8 186.65 100.65 180.7 105.95 176.15 109.9 169.45 112.85 162.75 115.8 155.05 116.8 147.4 117.75 139.95 116.85 132.55 115.95 126.15 113.85 118.1 111.2 112.05 108.15 106.05 105.15 102.5 102.85 98.95 100.6 98.3 100.15 98.25 100.15 98.25 100.15 M98.15 100.2 Q98.2 100.2 98.2 100.2 98.2 100.15 98.2 100.1 98.15 100.1 98.15 100.1 98.15 100.05 98.2 100.1 98.2 100.05 98.2 100.0 98.15 100.05 98.15 100.05 98.15 100.1 98.15 100.1 98.15 100.15 98.15 100.1 98.15 100.15 98.15 100.1 98.15 100.15 98.15 100.1 98.15 100.15 98.2 100.15 98.2 100.15 98.15 100.15 98.15 100.2 98.15 100.2" fill="#000000" fill-rule="evenodd" stroke="none"/>
    </g>
  </defs>
</svg>
