<?xml version="1.0" encoding="UTF-8" standalone="no"?>
<svg xmlns:ffdec="https://www.free-decompiler.com/flash" xmlns:xlink="http://www.w3.org/1999/xlink" ffdec:objectType="frame" height="197.0px" width="200.0px" xmlns="http://www.w3.org/2000/svg">
  <g transform="matrix(1.0, 0.0, 0.0, 1.0, 0.0, 0.0)">
    <rect fill="#ffffff" height="197.0px" width="200.0px"/>
    <use ffdec:characterId="1" height="196.15" transform="matrix(1.0, 0.0, 0.0, 1.0, 0.0, 0.0)" width="200.0" xlink:href="#shape0"/>
  </g>
  <defs>
    <g id="shape0" transform="matrix(1.0, 0.0, 0.0, 1.0, 0.0, 0.0)">
      <path d="M100.1 86.0 Q103.35 86.05 105.95 87.6 108.55 89.1 110.1 91.7 111.6 94.3 111.65 97.55 111.6 100.75 110.1 103.35 108.55 105.95 105.95 107.5 103.35 109.05 100.1 109.1 96.9 109.05 94.3 107.5 91.7 105.95 90.15 103.35 88.6 100.75 88.55 97.55 88.6 94.3 90.15 91.7 91.7 89.1 94.3 87.6 96.9 86.05 100.1 86.0 M95.05 80.9 Q93.35 81.45 91.9 82.3 84.25 70.9 80.0 60.45 75.7 49.95 73.95 40.75 72.25 31.6 72.2 24.1 72.1 16.65 72.95 11.25 73.75 5.85 74.6 2.95 75.5 0.05 75.55 0.0 75.6 0.0 78.05 1.1 80.5 2.2 84.35 4.6 88.2 7.0 92.45 10.85 96.75 14.7 100.5 20.15 104.2 25.65 106.45 32.9 110.35 26.35 115.3 21.85 120.2 17.3 125.3 14.4 130.35 11.55 134.65 9.95 139.0 8.4 141.65 7.8 144.3 7.2 144.35 7.25 144.45 7.3 144.6 10.3 144.75 13.25 144.3 18.65 143.85 24.05 142.05 31.25 140.25 38.45 136.45 46.9 132.6 55.35 126.05 64.5 119.45 73.65 109.4 82.95 106.3 80.9 102.6 80.3 98.85 79.7 95.05 80.9 M112.4 85.15 Q120.85 74.4 129.5 67.1 138.15 59.8 146.35 55.3 154.55 50.8 161.65 48.4 168.75 46.05 174.1 45.15 179.5 44.25 182.5 44.2 185.55 44.1 185.6 44.15 185.65 44.25 185.35 46.9 185.05 49.6 183.95 53.95 182.85 58.35 180.55 63.65 178.2 68.9 174.15 74.15 170.1 79.4 163.9 83.75 171.3 85.4 177.15 88.7 182.95 92.0 187.25 95.95 191.6 99.85 194.4 103.5 197.25 107.1 198.6 109.45 200.0 111.75 200.0 111.85 199.95 111.95 197.15 113.0 194.35 114.1 189.1 115.3 183.85 116.55 176.45 117.05 169.05 117.6 159.85 116.6 150.6 115.55 139.85 112.1 129.15 108.7 117.2 102.0 118.2 98.4 117.6 94.7 117.0 91.0 114.7 87.75 113.65 86.3 112.4 85.15 M116.0 104.55 Q128.9 109.3 138.5 115.3 148.1 121.25 154.9 127.65 161.75 134.05 166.15 140.05 170.6 146.1 173.15 150.95 175.65 155.75 176.65 158.65 177.7 161.5 177.65 161.55 177.55 161.6 174.95 162.15 172.3 162.7 167.8 163.0 163.25 163.35 157.55 162.7 151.8 162.1 145.55 159.9 139.35 157.65 133.25 153.1 133.95 160.7 132.65 167.25 131.3 173.8 128.9 179.15 126.5 184.45 123.9 188.25 121.35 192.05 119.55 194.1 117.75 196.15 117.7 196.15 117.6 196.15 115.7 193.8 113.85 191.5 111.05 186.85 108.25 182.25 105.45 175.35 102.65 168.5 100.8 159.4 98.9 150.3 98.85 139.05 98.8 127.75 101.5 114.35 105.2 114.2 108.55 112.5 111.9 110.8 114.3 107.55 115.35 106.15 116.0 104.55 M84.2 103.4 Q85.5 106.9 88.15 109.55 90.8 112.2 94.6 113.5 96.3 114.05 98.0 114.2 97.45 127.9 94.75 138.9 92.05 149.9 88.1 158.35 84.1 166.8 79.75 172.9 75.4 178.95 71.55 182.85 67.75 186.7 65.35 188.55 62.95 190.4 62.85 190.4 62.8 190.35 61.45 188.05 60.15 185.7 58.4 181.5 56.7 177.3 55.5 171.65 54.35 166.05 54.5 159.4 54.7 152.8 57.15 145.6 50.2 148.6 43.55 149.4 36.9 150.15 31.1 149.5 25.3 148.85 20.85 147.6 16.45 146.3 13.95 145.25 11.45 144.15 11.4 144.1 11.4 144.05 13.05 141.5 14.65 139.0 18.2 134.9 21.75 130.8 27.4 126.05 33.1 121.25 41.15 116.65 49.2 112.1 59.9 108.55 70.6 105.0 84.2 103.4 M83.35 100.0 Q70.15 103.75 58.85 104.55 47.55 105.35 38.3 104.2 29.0 103.0 21.9 100.75 14.75 98.5 9.9 96.05 5.0 93.6 2.5 91.9 0.0 90.2 0.0 90.1 0.0 90.05 1.8 88.05 3.65 86.05 7.1 83.15 10.55 80.25 15.55 77.35 20.55 74.5 26.9 72.6 33.25 70.75 40.85 70.85 35.85 65.15 33.05 59.05 30.25 53.0 29.1 47.25 27.9 41.55 27.75 36.95 27.6 32.35 27.85 29.65 28.1 26.95 28.15 26.9 28.2 26.85 31.1 27.6 34.0 28.4 39.0 30.5 43.95 32.6 50.25 36.5 56.55 40.45 63.4 46.7 70.3 52.95 76.95 62.05 83.65 71.1 89.35 83.55 86.4 85.85 84.7 89.2 83.0 92.55 82.95 96.55 82.95 98.35 83.35 100.0" fill="#000000" fill-rule="evenodd" stroke="none"/>
    </g>
  </defs>
</svg>
