<?xml version="1.0" encoding="UTF-8" standalone="no"?>
<svg xmlns:ffdec="https://www.free-decompiler.com/flash" xmlns:xlink="http://www.w3.org/1999/xlink" ffdec:objectType="frame" height="200.0px" width="201.0px" xmlns="http://www.w3.org/2000/svg">
  <g transform="matrix(1.0, 0.0, 0.0, 1.0, 0.0, 0.0)">
    <rect fill="#ffffff" height="200.0px" width="201.0px"/>
    <use ffdec:characterId="1" height="31.5" transform="matrix(1.0, 0.0, 0.0, 1.0, 57.4, 19.8)" width="15.75" xlink:href="#shape0"/>
    <use ffdec:characterId="2" height="38.0" transform="matrix(1.0, 0.0, 0.0, 1.0, 38.65, 10.85)" width="17.35" xlink:href="#shape1"/>
    <use ffdec:characterId="3" height="98.95" transform="matrix(1.0, 0.0, 0.0, 1.0, 0.0, 0.0)" width="99.15" xlink:href="#shape2"/>
    <use ffdec:characterId="4" height="15.75" transform="matrix(1.0, 0.0, 0.0, 1.0, 19.8, 57.15)" width="31.5" xlink:href="#shape3"/>
    <use ffdec:characterId="5" height="17.35" transform="matrix(1.0, 0.0, 0.0, 1.0, 10.85, 38.4)" width="38.0" xlink:href="#shape4"/>
    <use ffdec:characterId="6" height="41.9" transform="matrix(1.0, 0.0, 0.0, 1.0, 10.3, 10.2)" width="41.9" xlink:href="#shape5"/>
    <use ffdec:characterId="7" height="22.0" transform="matrix(1.0, 0.0, 0.0, 1.0, 62.2, 62.5)" width="22.5" xlink:href="#shape6"/>
    <use ffdec:characterId="8" height="0.2" transform="matrix(1.0, 0.0, 0.0, 1.0, 62.0, 62.3)" width="0.25" xlink:href="#shape7"/>
    <use ffdec:characterId="9" height="31.5" transform="matrix(1.0, 0.0, 0.0, 1.0, 127.45, 19.8)" width="15.75" xlink:href="#shape8"/>
    <use ffdec:characterId="10" height="38.0" transform="matrix(1.0, 0.0, 0.0, 1.0, 144.6, 10.85)" width="17.25" xlink:href="#shape9"/>
    <use ffdec:characterId="11" height="98.95" transform="matrix(1.0, 0.0, 0.0, 1.0, 101.45, 0.0)" width="99.15" xlink:href="#shape10"/>
    <use ffdec:characterId="12" height="15.75" transform="matrix(1.0, 0.0, 0.0, 1.0, 149.3, 57.15)" width="31.5" xlink:href="#shape11"/>
    <use ffdec:characterId="13" height="17.35" transform="matrix(1.0, 0.0, 0.0, 1.0, 151.7, 38.4)" width="37.9" xlink:href="#shape12"/>
    <use ffdec:characterId="14" height="41.9" transform="matrix(1.0, 0.0, 0.0, 1.0, 148.25, 10.2)" width="42.0" xlink:href="#shape13"/>
    <use ffdec:characterId="15" height="0.2" transform="matrix(1.0, 0.0, 0.0, 1.0, 138.35, 62.3)" width="0.2" xlink:href="#shape14"/>
    <use ffdec:characterId="16" height="22.0" transform="matrix(1.0, 0.0, 0.0, 1.0, 115.85, 62.5)" width="22.5" xlink:href="#shape15"/>
    <use ffdec:characterId="17" height="31.5" transform="matrix(1.0, 0.0, 0.0, 1.0, 57.4, 148.65)" width="15.75" xlink:href="#shape16"/>
    <use ffdec:characterId="18" height="37.9" transform="matrix(1.0, 0.0, 0.0, 1.0, 38.65, 151.1)" width="17.35" xlink:href="#shape17"/>
    <use ffdec:characterId="19" height="98.95" transform="matrix(1.0, 0.0, 0.0, 1.0, 0.0, 101.0)" width="99.15" xlink:href="#shape18"/>
    <use ffdec:characterId="20" height="15.75" transform="matrix(1.0, 0.0, 0.0, 1.0, 19.8, 127.05)" width="31.5" xlink:href="#shape19"/>
    <use ffdec:characterId="21" height="17.3" transform="matrix(1.0, 0.0, 0.0, 1.0, 10.9, 144.2)" width="38.0" xlink:href="#shape20"/>
    <use ffdec:characterId="22" height="42.0" transform="matrix(1.0, 0.0, 0.0, 1.0, 10.35, 147.75)" width="41.9" xlink:href="#shape21"/>
    <use ffdec:characterId="23" height="0.2" transform="matrix(1.0, 0.0, 0.0, 1.0, 62.0, 137.45)" width="0.2" xlink:href="#shape22"/>
    <use ffdec:characterId="24" height="22.0" transform="matrix(1.0, 0.0, 0.0, 1.0, 62.25, 115.45)" width="22.5" xlink:href="#shape23"/>
    <use ffdec:characterId="25" height="31.5" transform="matrix(1.0, 0.0, 0.0, 1.0, 127.45, 148.65)" width="15.75" xlink:href="#shape24"/>
    <use ffdec:characterId="26" height="37.9" transform="matrix(1.0, 0.0, 0.0, 1.0, 144.6, 151.1)" width="17.3" xlink:href="#shape25"/>
    <use ffdec:characterId="27" height="98.95" transform="matrix(1.0, 0.0, 0.0, 1.0, 101.45, 101.0)" width="99.15" xlink:href="#shape26"/>
    <use ffdec:characterId="28" height="15.75" transform="matrix(1.0, 0.0, 0.0, 1.0, 149.3, 127.05)" width="31.5" xlink:href="#shape27"/>
    <use ffdec:characterId="29" height="17.25" transform="matrix(1.0, 0.0, 0.0, 1.0, 151.7, 144.2)" width="37.9" xlink:href="#shape28"/>
    <use ffdec:characterId="30" height="42.0" transform="matrix(1.0, 0.0, 0.0, 1.0, 148.25, 147.75)" width="42.0" xlink:href="#shape29"/>
    <use ffdec:characterId="31" height="0.2" transform="matrix(1.0, 0.0, 0.0, 1.0, 138.35, 137.45)" width="0.2" xlink:href="#shape30"/>
    <use ffdec:characterId="32" height="22.0" transform="matrix(1.0, 0.0, 0.0, 1.0, 115.9, 115.45)" width="22.5" xlink:href="#shape31"/>
    <use ffdec:characterId="33" height="39.9" transform="matrix(1.0, 0.0, 0.0, 1.0, 80.5, 80.0)" width="39.6" xlink:href="#shape32"/>
  </g>
  <defs>
    <g id="shape0" transform="matrix(1.0, 0.0, 0.0, 1.0, 0.0, 0.0)">
      <path d="M15.75 3.6 Q12.15 5.2 10.05 8.45 7.95 11.7 6.9 15.6 5.85 19.5 5.5 23.15 5.2 26.75 5.25 29.1 5.25 31.4 5.3 31.5 4.0 30.45 2.8 27.6 1.6 24.8 0.85 21.0 0.05 17.25 0.0 13.4 -0.05 9.5 0.9 6.4 1.85 3.3 4.15 1.75 7.05 0.0 9.25 0.0 11.4 0.0 12.85 0.85 14.3 1.75 15.0 2.65 15.75 3.55 15.75 3.6" fill="#000000" fill-rule="evenodd" stroke="none"/>
    </g>
    <g id="shape1" transform="matrix(1.0, 0.0, 0.0, 1.0, 0.0, 0.0)">
      <path d="M12.75 7.1 Q12.65 10.45 13.05 14.5 13.45 18.55 14.15 22.7 14.85 26.8 15.6 30.25 16.3 33.7 16.8 35.85 17.35 37.95 17.35 38.0 14.0 34.75 10.55 28.55 7.1 22.4 2.6 13.85 0.3 9.35 0.05 6.65 -0.15 3.95 0.7 2.6 1.6 1.25 2.55 0.8 3.5 0.35 3.6 0.4 3.7 0.35 5.1 0.1 6.5 -0.15 8.35 0.15 10.2 0.45 11.5 2.0 12.85 3.6 12.75 7.1" fill="#000000" fill-rule="evenodd" stroke="none"/>
    </g>
    <g id="shape2" transform="matrix(1.0, 0.0, 0.0, 1.0, 0.0, 0.0)">
      <path d="M36.9 98.95 Q31.95 98.95 26.8 97.15 21.65 95.3 16.85 91.75 12.1 88.15 8.3 82.9 4.5 77.6 2.25 70.7 0.05 63.75 0.0 55.2 0.0 46.75 0.45 40.2 0.85 33.7 1.4 28.6 1.9 23.45 2.3 19.1 2.7 14.75 2.65 10.55 2.6 6.35 1.85 1.75 6.45 2.5 10.65 2.55 14.85 2.6 19.25 2.25 23.6 1.85 28.75 1.35 33.9 0.85 40.45 0.45 46.95 0.0 55.45 0.0 63.95 0.05 70.9 2.25 77.85 4.5 83.1 8.3 88.4 12.1 91.95 16.85 95.55 21.65 97.35 26.8 99.15 31.95 99.15 36.9 99.15 45.1 96.95 51.25 94.8 57.45 90.85 60.95 86.9 64.4 81.6 64.45 77.7 64.4 74.95 63.15 72.25 61.9 70.6 60.0 68.95 58.1 68.2 56.1 67.45 54.05 67.45 52.45 67.45 50.35 68.55 48.3 69.6 46.25 71.15 44.75 72.7 43.3 74.3 42.9 75.9 42.5 77.55 42.75 79.2 43.0 80.3 44.3 81.4 45.55 81.45 48.15 81.4 50.55 80.5 52.0 79.55 53.45 78.35 54.15 77.15 54.85 76.25 55.1 75.35 55.35 75.3 55.3 75.25 55.35 75.75 56.15 76.2 56.9 77.65 57.65 79.1 58.4 82.0 58.45 84.8 58.4 87.05 56.55 89.3 54.65 90.85 51.55 92.45 48.4 93.3 44.6 94.15 40.8 94.15 36.9 94.15 32.65 92.6 28.15 91.05 23.6 87.95 19.3 84.85 15.05 80.2 11.6 75.55 8.15 69.4 6.1 63.25 4.05 55.55 4.0 46.05 4.05 38.8 4.55 31.5 5.05 25.75 5.55 20.0 6.0 14.95 5.95 9.95 5.9 4.85 4.75 6.0 9.8 6.05 14.85 6.1 19.85 5.6 25.6 5.1 31.35 4.55 38.6 4.05 45.8 4.0 55.35 4.05 63.05 6.1 69.2 8.15 75.35 11.6 80.0 15.05 84.65 19.3 87.75 23.6 90.85 28.15 92.4 32.7 93.95 36.9 93.95 40.8 93.95 44.6 93.1 48.4 92.25 51.55 90.65 54.65 89.05 56.55 86.85 58.4 84.6 58.45 81.8 58.4 78.9 57.65 77.45 56.9 76.0 56.15 75.5 55.35 75.05 55.3 75.1 55.35 75.15 55.1 76.05 54.9 76.95 54.15 78.15 53.45 79.35 52.0 80.3 50.55 81.2 48.15 81.25 45.55 81.2 44.3 80.05 43.05 78.95 42.75 77.35 42.5 75.7 42.9 74.1 43.25 72.5 44.75 70.95 46.25 69.35 48.3 68.3 50.35 67.25 52.45 67.2 54.05 67.2 56.1 67.95 58.1 68.7 60.0 70.4 61.9 72.05 63.15 74.75 64.4 77.45 64.45 81.35 64.4 86.7 60.95 90.65 57.45 94.55 51.3 96.75 45.1 98.9 36.9 98.95" fill="#000000" fill-rule="evenodd" stroke="none"/>
    </g>
    <g id="shape3" transform="matrix(1.0, 0.0, 0.0, 1.0, 0.0, 0.0)">
      <path d="M3.6 15.75 Q3.55 15.75 2.65 15.0 1.75 14.3 0.85 12.85 0.0 11.4 0.0 9.25 0.0 7.05 1.75 4.15 3.3 1.9 6.4 0.9 9.5 -0.05 13.4 0.0 17.25 0.05 21.0 0.85 24.8 1.6 27.6 2.8 30.45 4.0 31.5 5.3 31.4 5.3 29.1 5.25 26.75 5.2 23.1 5.55 19.5 5.85 15.6 6.9 11.65 7.95 8.45 10.05 5.2 12.2 3.6 15.75" fill="#000000" fill-rule="evenodd" stroke="none"/>
    </g>
    <g id="shape4" transform="matrix(1.0, 0.0, 0.0, 1.0, 0.0, 0.0)">
      <path d="M13.85 2.6 Q22.4 7.1 28.55 10.55 34.75 14.0 38.0 17.35 37.95 17.35 35.85 16.8 33.7 16.3 30.25 15.6 26.8 14.85 22.7 14.15 18.55 13.45 14.5 13.05 10.4 12.65 7.1 12.75 3.6 12.85 2.05 11.5 0.45 10.2 0.15 8.35 -0.15 6.5 0.1 5.1 0.35 3.7 0.4 3.6 0.35 3.55 0.8 2.55 1.25 1.6 2.6 0.7 4.0 -0.15 6.7 0.05 9.4 0.3 13.85 2.6" fill="#000000" fill-rule="evenodd" stroke="none"/>
    </g>
    <g id="shape5" transform="matrix(1.0, 0.0, 0.0, 1.0, 0.0, 0.0)">
      <path d="M41.8 40.8 Q42.2 41.75 41.9 41.9 41.6 42.05 41.15 41.9 40.75 41.75 40.7 41.7 40.65 41.65 38.75 40.05 36.85 38.4 33.6 35.8 30.4 33.2 26.4 30.2 22.45 27.15 18.25 24.3 14.1 21.4 10.25 19.25 7.65 17.75 5.85 15.4 4.0 13.0 2.85 10.35 1.7 7.75 1.1 5.35 0.45 3.0 0.25 1.55 0.0 0.05 0.0 0.0 0.05 0.0 1.55 0.25 3.05 0.5 5.4 1.15 7.8 1.75 10.45 2.95 13.1 4.1 15.45 5.9 17.85 7.75 19.35 10.35 21.5 14.2 24.4 18.35 27.25 22.55 30.3 26.5 33.3 30.5 35.95 33.7 38.55 36.95 40.15 38.85 41.75 40.75 41.8 40.8" fill="#000000" fill-rule="evenodd" stroke="none"/>
    </g>
    <g id="shape6" transform="matrix(1.0, 0.0, 0.0, 1.0, 0.0, 0.0)">
      <path d="M0.0 0.0 Q0.55 0.5 2.3 1.75 4.1 3.0 7.0 4.4 9.95 5.85 13.85 6.85 17.75 7.9 22.5 7.95 22.45 7.95 21.6 9.0 20.8 10.05 19.9 11.7 18.95 13.35 18.6 15.2 18.2 17.0 19.0 18.6 17.4 17.8 15.55 18.15 13.7 18.55 12.05 19.45 10.4 20.35 9.3 21.15 8.25 21.95 8.2 22.0 8.05 16.65 7.0 12.7 5.9 8.75 4.5 6.05 3.05 3.4 1.8 1.9 0.5 0.4 0.0 0.0" fill="#000000" fill-rule="evenodd" stroke="none"/>
    </g>
    <g id="shape7" transform="matrix(1.0, 0.0, 0.0, 1.0, 0.0, 0.0)">
      <path d="M0.25 0.2 Q0.0 0.0 0.0 0.0 0.0 0.0 0.25 0.2" fill="#000000" fill-rule="evenodd" stroke="none"/>
    </g>
    <g id="shape8" transform="matrix(1.0, 0.0, 0.0, 1.0, 0.0, 0.0)">
      <path d="M11.6 1.75 Q13.85 3.3 14.85 6.4 15.8 9.5 15.75 13.4 15.7 17.25 14.9 21.0 14.15 24.8 12.95 27.6 11.75 30.45 10.45 31.5 10.45 31.4 10.5 29.1 10.55 26.75 10.2 23.15 9.9 19.5 8.85 15.6 7.8 11.65 5.7 8.45 3.55 5.2 0.0 3.6 0.0 3.55 0.7 2.65 1.45 1.75 2.9 0.85 4.35 0.0 6.5 0.0 8.7 0.0 11.6 1.75" fill="#000000" fill-rule="evenodd" stroke="none"/>
    </g>
    <g id="shape9" transform="matrix(1.0, 0.0, 0.0, 1.0, 0.0, 0.0)">
      <path d="M14.7 13.85 Q10.25 22.4 6.8 28.55 3.35 34.75 0.0 38.0 0.0 37.95 0.5 35.85 1.0 33.7 1.75 30.25 2.45 26.8 3.15 22.7 3.85 18.55 4.25 14.5 4.7 10.4 4.55 7.1 4.5 3.6 5.8 2.05 7.15 0.45 9.0 0.15 10.8 -0.15 12.2 0.1 13.65 0.35 13.7 0.4 13.8 0.35 14.8 0.8 15.75 1.25 16.65 2.6 17.5 4.0 17.25 6.7 17.05 9.4 14.7 13.85" fill="#000000" fill-rule="evenodd" stroke="none"/>
    </g>
    <g id="shape10" transform="matrix(1.0, 0.0, 0.0, 1.0, 0.0, 0.0)">
      <path d="M17.6 64.45 Q12.25 64.4 8.3 60.95 4.4 57.45 2.2 51.3 0.05 45.1 0.0 36.9 0.0 31.95 1.8 26.8 3.65 21.65 7.2 16.85 10.8 12.1 16.05 8.3 21.35 4.5 28.25 2.25 35.2 0.05 43.75 0.0 52.25 0.0 58.75 0.45 65.25 0.85 70.4 1.35 75.55 1.85 79.95 2.25 84.3 2.6 88.5 2.55 92.7 2.5 97.35 1.75 96.6 6.35 96.55 10.55 96.5 14.75 96.85 19.1 97.25 23.45 97.75 28.6 98.3 33.7 98.7 40.2 99.15 46.7 99.15 55.2 99.1 63.75 96.9 70.7 94.65 77.6 90.9 82.9 87.1 88.15 82.3 91.75 77.55 95.3 72.4 97.15 67.25 98.95 62.3 98.95 54.1 98.9 47.9 96.75 41.7 94.55 38.25 90.6 34.75 86.7 34.7 81.35 34.75 77.45 36.0 74.75 37.25 72.05 39.15 70.4 41.05 68.7 43.1 67.95 45.1 67.2 46.7 67.2 48.8 67.25 50.9 68.3 52.95 69.35 54.4 70.95 55.9 72.5 56.3 74.1 56.65 75.7 56.4 77.35 56.15 78.95 54.9 80.1 53.6 81.2 51.0 81.25 48.6 81.2 47.15 80.25 45.75 79.35 45.0 78.15 44.3 76.95 44.05 76.05 43.85 75.15 43.85 75.1 43.8 75.05 43.05 75.5 42.3 76.0 41.5 77.45 40.75 78.9 40.7 81.8 40.75 84.6 42.65 86.85 44.5 89.05 47.65 90.65 50.75 92.25 54.6 93.1 58.4 93.95 62.3 93.95 66.5 93.95 71.05 92.4 75.55 90.85 79.85 87.75 84.15 84.65 87.6 80.0 91.05 75.35 93.05 69.2 95.1 63.05 95.15 55.35 95.1 45.8 94.6 38.6 94.05 31.35 93.55 25.6 93.05 19.85 93.1 14.85 93.15 9.8 94.3 4.75 89.25 5.85 84.2 5.95 79.15 6.0 73.4 5.55 67.65 5.05 60.4 4.55 53.15 4.05 43.6 4.0 35.9 4.05 29.75 6.1 23.6 8.15 18.95 11.6 14.3 15.05 11.2 19.3 8.1 23.6 6.55 28.15 5.0 32.7 5.0 36.9 5.0 40.8 5.85 44.6 6.7 48.4 8.3 51.55 9.9 54.65 12.1 56.55 14.35 58.4 17.15 58.45 20.05 58.4 21.5 57.65 22.95 56.9 23.45 56.15 23.95 55.35 23.9 55.3 23.85 55.35 22.9 55.1 22.0 54.85 20.8 54.15 19.6 53.45 18.7 52.0 17.8 50.55 17.75 48.15 17.75 45.55 18.9 44.3 20.0 43.05 21.6 42.75 23.25 42.5 24.85 42.9 26.45 43.25 28.0 44.75 29.6 46.25 30.65 48.3 31.7 50.35 31.75 52.45 31.75 54.05 31.0 56.1 30.25 58.1 28.55 60.0 26.9 61.9 24.2 63.15 21.5 64.4 17.6 64.45" fill="#000000" fill-rule="evenodd" stroke="none"/>
    </g>
    <g id="shape11" transform="matrix(1.0, 0.0, 0.0, 1.0, 0.0, 0.0)">
      <path d="M0.0 5.3 Q1.05 4.0 3.9 2.8 6.7 1.6 10.5 0.85 14.25 0.05 18.1 0.0 22.0 -0.05 25.1 0.9 28.2 1.85 29.75 4.15 31.5 7.05 31.5 9.25 31.5 11.4 30.6 12.85 29.75 14.3 28.85 15.0 27.95 15.75 27.85 15.75 26.3 12.15 23.05 10.05 19.8 7.95 15.9 6.9 12.0 5.85 8.35 5.5 4.75 5.2 2.4 5.25 0.1 5.25 0.0 5.3" fill="#000000" fill-rule="evenodd" stroke="none"/>
    </g>
    <g id="shape12" transform="matrix(1.0, 0.0, 0.0, 1.0, 0.0, 0.0)">
      <path d="M30.85 12.75 Q27.55 12.65 23.5 13.05 19.45 13.45 15.3 14.15 11.2 14.85 7.75 15.6 4.3 16.3 2.15 16.85 0.05 17.35 0.0 17.35 3.25 14.0 9.45 10.55 15.6 7.1 24.15 2.6 28.6 0.3 31.3 0.05 34.0 -0.15 35.4 0.7 36.75 1.6 37.2 2.55 37.65 3.55 37.6 3.6 37.65 3.7 37.9 5.1 38.1 6.55 37.8 8.35 37.5 10.2 35.95 11.5 34.4 12.85 30.85 12.75" fill="#000000" fill-rule="evenodd" stroke="none"/>
    </g>
    <g id="shape13" transform="matrix(1.0, 0.0, 0.0, 1.0, 0.0, 0.0)">
      <path d="M22.65 10.35 Q24.15 7.75 26.55 5.9 28.9 4.1 31.55 2.95 34.25 1.75 36.6 1.15 38.95 0.5 40.45 0.25 41.95 0.0 42.0 0.0 42.0 0.05 41.8 1.55 41.55 3.0 40.9 5.35 40.3 7.75 39.15 10.35 38.0 13.0 36.15 15.4 34.35 17.75 31.75 19.25 27.95 21.4 23.75 24.3 19.55 27.15 15.6 30.2 11.6 33.2 8.4 35.8 5.2 38.4 3.25 40.05 1.35 41.65 1.3 41.7 1.3 41.7 0.85 41.9 0.4 42.05 0.1 41.9 -0.2 41.75 0.2 40.8 0.25 40.75 1.85 38.85 3.5 36.95 6.1 33.7 8.7 30.5 11.7 26.5 14.75 22.55 17.6 18.35 20.5 14.2 22.65 10.35" fill="#000000" fill-rule="evenodd" stroke="none"/>
    </g>
    <g id="shape14" transform="matrix(1.0, 0.0, 0.0, 1.0, 0.0, 0.0)">
      <path d="M0.0 0.2 Q0.2 0.0 0.2 0.0 0.2 0.0 0.0 0.2" fill="#000000" fill-rule="evenodd" stroke="none"/>
    </g>
    <g id="shape15" transform="matrix(1.0, 0.0, 0.0, 1.0, 0.0, 0.0)">
      <path d="M14.25 22.0 Q14.2 21.95 13.15 21.15 12.1 20.35 10.45 19.45 8.75 18.55 6.9 18.15 5.1 17.8 3.5 18.6 4.3 17.0 3.9 15.2 3.5 13.35 2.6 11.7 1.7 10.05 0.85 9.05 0.05 8.0 0.0 7.95 4.75 7.9 8.65 6.85 12.55 5.85 15.45 4.4 18.4 3.0 20.15 1.75 21.95 0.5 22.5 0.0 21.95 0.4 20.7 1.9 19.45 3.4 18.0 6.05 16.55 8.75 15.5 12.7 14.4 16.65 14.25 22.0" fill="#000000" fill-rule="evenodd" stroke="none"/>
    </g>
    <g id="shape16" transform="matrix(1.0, 0.0, 0.0, 1.0, 0.0, 0.0)">
      <path d="M4.15 29.75 Q1.9 28.2 0.9 25.1 -0.05 22.0 0.0 18.1 0.05 14.25 0.85 10.5 1.6 6.7 2.8 3.9 4.0 1.05 5.3 0.0 5.3 0.1 5.25 2.4 5.2 4.75 5.55 8.35 5.85 12.0 6.9 15.9 7.95 19.8 10.05 23.05 12.2 26.25 15.75 27.85 15.75 27.95 15.05 28.85 14.3 29.75 12.85 30.65 11.4 31.5 9.25 31.5 7.05 31.5 4.15 29.75" fill="#000000" fill-rule="evenodd" stroke="none"/>
    </g>
    <g id="shape17" transform="matrix(1.0, 0.0, 0.0, 1.0, 0.0, 0.0)">
      <path d="M2.6 24.15 Q7.1 15.6 10.55 9.45 14.0 3.25 17.35 0.0 17.3 0.05 16.8 2.15 16.3 4.3 15.6 7.75 14.85 11.2 14.15 15.3 13.45 19.4 13.05 23.5 12.65 27.55 12.75 30.85 12.85 34.4 11.5 35.95 10.2 37.5 8.35 37.85 6.5 38.15 5.1 37.9 3.7 37.65 3.6 37.6 3.55 37.65 2.55 37.2 1.6 36.75 0.7 35.4 -0.15 34.0 0.05 31.3 0.3 28.6 2.6 24.15" fill="#000000" fill-rule="evenodd" stroke="none"/>
    </g>
    <g id="shape18" transform="matrix(1.0, 0.0, 0.0, 1.0, 0.0, 0.0)">
      <path d="M81.6 34.5 Q86.9 34.55 90.85 38.0 94.8 41.5 96.95 47.65 99.15 53.85 99.15 62.05 99.15 67.0 97.35 72.15 95.55 77.3 91.95 82.1 88.4 86.85 83.1 90.65 77.85 94.45 70.9 96.7 64.0 98.9 55.45 98.95 46.95 98.95 40.45 98.55 33.9 98.1 28.75 97.6 23.6 97.1 19.25 96.7 14.85 96.35 10.65 96.4 6.45 96.45 1.85 97.2 2.6 92.6 2.65 88.4 2.7 84.2 2.3 79.85 1.95 75.5 1.4 70.35 0.85 65.25 0.45 58.75 0.0 52.25 0.0 43.75 0.05 35.2 2.25 28.25 4.5 21.35 8.3 16.05 12.1 10.8 16.85 7.2 21.65 3.65 26.8 1.8 31.95 0.0 36.9 0.0 45.1 0.05 51.25 2.2 57.45 4.4 60.95 8.35 64.4 12.25 64.45 17.6 64.4 21.5 63.2 24.2 61.95 26.9 60.0 28.55 58.1 30.25 56.1 31.0 54.05 31.75 52.45 31.75 50.35 31.7 48.3 30.65 46.25 29.6 44.75 28.0 43.3 26.45 42.9 24.85 42.5 23.25 42.75 21.6 43.05 20.0 44.3 18.85 45.55 17.75 48.15 17.7 50.55 17.75 52.0 18.7 53.45 19.6 54.15 20.8 54.85 22.0 55.1 22.9 55.35 23.8 55.3 23.85 55.4 23.9 56.15 23.45 56.9 22.95 57.65 21.5 58.4 20.05 58.45 17.15 58.4 14.35 56.55 12.1 54.65 9.9 51.55 8.3 48.4 6.7 44.6 5.85 40.8 5.0 36.9 5.0 32.65 5.0 28.15 6.55 23.6 8.1 19.3 11.2 15.05 14.3 11.6 18.95 8.15 23.6 6.1 29.75 4.05 35.9 4.0 43.6 4.05 53.15 4.6 60.35 5.1 67.6 5.6 73.35 6.1 79.1 6.05 84.1 6.0 89.15 4.85 94.2 9.95 93.1 14.95 93.0 20.0 92.95 25.75 93.4 31.5 93.9 38.75 94.4 46.05 94.9 55.55 94.95 63.25 94.9 69.4 92.85 75.55 90.8 80.2 87.35 84.85 83.9 87.95 79.65 91.05 75.35 92.6 70.8 94.15 66.25 94.15 62.05 94.15 58.15 93.3 54.35 92.45 50.55 90.9 47.4 89.3 44.3 87.05 42.4 84.8 40.55 82.0 40.5 79.15 40.55 77.65 41.3 76.2 42.05 75.75 42.8 75.25 43.6 75.3 43.65 75.35 43.6 76.25 43.85 77.15 44.1 78.35 44.8 79.55 45.5 80.5 46.95 81.4 48.4 81.45 50.8 81.4 53.4 80.3 54.65 79.2 55.95 77.55 56.2 75.9 56.45 74.3 56.05 72.7 55.7 71.15 54.2 69.6 52.7 68.55 50.65 67.5 48.6 67.45 46.5 67.4 44.9 68.2 42.85 68.95 40.85 70.6 38.95 72.25 37.05 75.0 35.8 77.7 34.55 81.6 34.5" fill="#000000" fill-rule="evenodd" stroke="none"/>
    </g>
    <g id="shape19" transform="matrix(1.0, 0.0, 0.0, 1.0, 0.0, 0.0)">
      <path d="M31.5 10.45 Q30.45 11.75 27.6 12.95 24.8 14.15 21.0 14.9 17.25 15.7 13.4 15.75 9.5 15.8 6.4 14.85 3.3 13.9 1.75 11.6 0.0 8.7 0.0 6.5 0.0 4.35 0.9 2.9 1.75 1.45 2.65 0.7 3.55 0.0 3.65 0.0 5.2 3.55 8.45 5.7 11.7 7.8 15.6 8.85 19.5 9.9 23.15 10.2 26.75 10.55 29.1 10.5 31.4 10.5 31.5 10.45" fill="#000000" fill-rule="evenodd" stroke="none"/>
    </g>
    <g id="shape20" transform="matrix(1.0, 0.0, 0.0, 1.0, 0.0, 0.0)">
      <path d="M7.1 4.6 Q10.45 4.7 14.5 4.3 18.55 3.85 22.7 3.15 26.8 2.5 30.25 1.75 33.7 1.0 35.85 0.5 37.95 0.0 38.0 0.0 34.75 3.35 28.55 6.8 22.4 10.25 13.85 14.7 9.35 17.05 6.65 17.3 3.95 17.5 2.6 16.65 1.25 15.75 0.8 14.75 0.35 13.8 0.4 13.7 0.35 13.65 0.1 12.25 -0.15 10.8 0.15 9.0 0.45 7.15 2.0 5.85 3.6 4.5 7.1 4.6" fill="#000000" fill-rule="evenodd" stroke="none"/>
    </g>
    <g id="shape21" transform="matrix(1.0, 0.0, 0.0, 1.0, 0.0, 0.0)">
      <path d="M19.35 31.65 Q17.85 34.25 15.45 36.05 13.1 37.9 10.45 39.05 7.8 40.2 5.4 40.85 3.05 41.5 1.55 41.75 0.05 42.0 0.0 42.0 0.0 41.95 0.25 40.45 0.45 38.95 1.1 36.6 1.7 34.25 2.85 31.6 4.0 29.0 5.85 26.6 7.65 24.25 10.25 22.75 14.1 20.6 18.25 17.7 22.45 14.85 26.4 11.8 30.4 8.8 33.6 6.2 36.85 3.55 38.75 1.95 40.65 0.35 40.7 0.3 40.75 0.25 41.15 0.1 41.6 -0.1 41.9 0.1 42.2 0.25 41.8 1.2 41.75 1.25 40.15 3.15 38.55 5.05 35.9 8.3 33.3 11.5 30.3 15.45 27.25 19.45 24.4 23.65 21.5 27.8 19.35 31.65" fill="#000000" fill-rule="evenodd" stroke="none"/>
    </g>
    <g id="shape22" transform="matrix(1.0, 0.0, 0.0, 1.0, 0.0, 0.0)">
      <path d="M0.2 0.0 Q0.0 0.2 0.0 0.2 0.0 0.2 0.2 0.0" fill="#000000" fill-rule="evenodd" stroke="none"/>
    </g>
    <g id="shape23" transform="matrix(1.0, 0.0, 0.0, 1.0, 0.0, 0.0)">
      <path d="M8.25 0.0 Q8.25 0.05 9.35 0.85 10.4 1.65 12.05 2.55 13.75 3.45 15.55 3.8 17.4 4.2 19.0 3.4 18.2 4.95 18.6 6.8 18.95 8.6 19.9 10.25 20.8 11.9 21.65 12.95 22.45 14.0 22.5 14.05 17.75 14.1 13.85 15.1 9.95 16.15 7.0 17.55 4.1 19.0 2.3 20.25 0.55 21.5 0.0 22.0 0.5 21.55 1.8 20.1 3.05 18.6 4.5 15.9 5.95 13.25 7.0 9.3 8.1 5.35 8.25 0.0" fill="#000000" fill-rule="evenodd" stroke="none"/>
    </g>
    <g id="shape24" transform="matrix(1.0, 0.0, 0.0, 1.0, 0.0, 0.0)">
      <path d="M0.0 27.85 Q3.55 26.3 5.7 23.05 7.8 19.8 8.85 15.9 9.9 12.0 10.2 8.35 10.55 4.75 10.5 2.4 10.5 0.1 10.45 0.0 11.75 1.05 12.95 3.9 14.15 6.7 14.9 10.5 15.7 14.25 15.75 18.1 15.8 22.0 14.85 25.1 13.9 28.2 11.6 29.75 8.7 31.5 6.5 31.5 4.35 31.5 2.9 30.6 1.45 29.75 0.7 28.85 0.0 27.95 0.0 27.85" fill="#000000" fill-rule="evenodd" stroke="none"/>
    </g>
    <g id="shape25" transform="matrix(1.0, 0.0, 0.0, 1.0, 0.0, 0.0)">
      <path d="M4.55 30.85 Q4.7 27.55 4.3 23.5 3.85 19.45 3.15 15.3 2.5 11.2 1.75 7.75 1.0 4.3 0.5 2.15 0.0 0.05 0.0 0.0 3.35 3.25 6.8 9.45 10.25 15.6 14.7 24.15 17.05 28.6 17.3 31.3 17.5 34.0 16.65 35.4 15.75 36.75 14.75 37.2 13.8 37.65 13.7 37.6 13.65 37.65 12.25 37.9 10.8 38.15 9.0 37.8 7.15 37.5 5.8 35.95 4.5 34.4 4.55 30.85" fill="#000000" fill-rule="evenodd" stroke="none"/>
    </g>
    <g id="shape26" transform="matrix(1.0, 0.0, 0.0, 1.0, 0.0, 0.0)">
      <path d="M99.15 43.75 Q99.15 52.2 98.75 58.75 98.3 65.25 97.8 70.35 97.25 75.5 96.85 79.85 96.5 84.2 96.55 88.4 96.6 92.6 97.35 97.2 92.7 96.45 88.5 96.4 84.3 96.35 79.95 96.7 75.55 97.1 70.4 97.6 65.25 98.1 58.75 98.5 52.25 98.95 43.75 98.95 35.2 98.9 28.25 96.7 21.35 94.45 16.05 90.65 10.8 86.85 7.2 82.1 3.65 77.3 1.8 72.15 0.0 67.0 0.0 62.05 0.05 53.85 2.2 47.7 4.4 41.5 8.35 38.0 12.25 34.55 17.6 34.5 21.5 34.55 24.2 35.8 26.9 37.05 28.55 38.95 30.25 40.85 31.0 42.85 31.75 44.9 31.75 46.5 31.7 48.6 30.65 50.65 29.6 52.7 28.0 54.2 26.45 55.65 24.85 56.05 23.25 56.45 21.6 56.2 20.0 55.95 18.85 54.65 17.75 53.4 17.7 50.8 17.75 48.4 18.7 46.95 19.6 45.5 20.8 44.8 22.0 44.1 22.9 43.85 23.8 43.6 23.85 43.65 23.9 43.6 23.45 42.8 22.95 42.05 21.5 41.3 20.05 40.55 17.15 40.5 14.35 40.55 12.1 42.4 9.9 44.3 8.3 47.4 6.7 50.55 5.85 54.35 5.0 58.15 5.0 62.05 5.0 66.3 6.55 70.8 8.1 75.35 11.2 79.65 14.3 83.9 18.95 87.35 23.6 90.8 29.75 92.85 35.9 94.9 43.6 94.95 53.15 94.9 60.4 94.4 67.65 93.9 73.4 93.4 79.15 92.9 84.2 93.0 89.25 93.05 94.3 94.2 93.2 89.15 93.15 84.1 93.05 79.1 93.55 73.35 94.05 67.6 94.6 60.35 95.1 53.15 95.15 43.6 95.1 35.9 93.1 29.75 91.05 23.6 87.6 18.95 84.15 14.3 79.85 11.2 75.55 8.1 71.05 6.55 66.5 5.0 62.3 5.0 58.4 5.0 54.55 5.85 50.75 6.7 47.65 8.3 44.5 9.9 42.65 12.1 40.75 14.35 40.7 17.15 40.75 20.05 41.5 21.5 42.25 22.95 43.05 23.45 43.8 23.9 43.85 23.85 43.85 23.8 44.05 22.9 44.3 22.0 45.0 20.8 45.75 19.6 47.15 18.65 48.6 17.75 51.0 17.7 53.6 17.75 54.9 18.9 56.15 20.0 56.4 21.6 56.7 23.25 56.3 24.85 55.9 26.45 54.4 28.0 52.95 29.6 50.9 30.65 48.8 31.7 46.7 31.75 45.1 31.75 43.1 31.0 41.05 30.25 39.15 28.55 37.25 26.9 36.0 24.2 34.75 21.5 34.7 17.6 34.75 12.25 38.25 8.3 41.7 4.4 47.9 2.2 54.1 0.05 62.3 0.0 67.25 0.0 72.4 1.8 77.55 3.65 82.3 7.2 87.1 10.8 90.85 16.05 94.65 21.35 96.9 28.25 99.1 35.2 99.15 43.75" fill="#000000" fill-rule="evenodd" stroke="none"/>
    </g>
    <g id="shape27" transform="matrix(1.0, 0.0, 0.0, 1.0, 0.0, 0.0)">
      <path d="M27.9 0.0 Q27.95 0.0 28.85 0.7 29.75 1.45 30.65 2.9 31.5 4.35 31.5 6.5 31.5 8.7 29.75 11.6 28.2 13.85 25.1 14.85 22.0 15.8 18.1 15.75 14.25 15.7 10.5 14.9 6.7 14.15 3.9 12.95 1.05 11.75 0.0 10.45 0.1 10.45 2.4 10.5 4.75 10.55 8.35 10.2 12.0 9.9 15.9 8.85 19.8 7.8 23.05 5.7 26.3 3.55 27.9 0.0" fill="#000000" fill-rule="evenodd" stroke="none"/>
    </g>
    <g id="shape28" transform="matrix(1.0, 0.0, 0.0, 1.0, 0.0, 0.0)">
      <path d="M24.15 14.7 Q15.6 10.25 9.45 6.8 3.25 3.35 0.0 0.0 0.05 0.0 2.15 0.5 4.3 1.0 7.75 1.75 11.2 2.5 15.3 3.2 19.45 3.9 23.5 4.3 27.6 4.7 30.9 4.6 34.4 4.5 35.95 5.8 37.55 7.15 37.85 9.0 38.15 10.8 37.9 12.2 37.65 13.65 37.6 13.7 37.65 13.8 37.2 14.8 36.75 15.75 35.4 16.65 34.0 17.5 31.3 17.25 28.6 17.05 24.15 14.7" fill="#000000" fill-rule="evenodd" stroke="none"/>
    </g>
    <g id="shape29" transform="matrix(1.0, 0.0, 0.0, 1.0, 0.0, 0.0)">
      <path d="M0.2 1.2 Q-0.15 0.25 0.1 0.1 0.4 -0.1 0.85 0.1 1.3 0.25 1.35 0.3 1.35 0.35 3.3 1.95 5.2 3.55 8.4 6.2 11.6 8.8 15.6 11.8 19.55 14.85 23.75 17.7 27.9 20.6 31.75 22.75 34.4 24.25 36.2 26.6 38.0 29.0 39.15 31.6 40.3 34.25 40.9 36.6 41.55 38.95 41.8 40.45 42.0 41.95 42.0 42.0 41.95 42.0 40.45 41.75 38.95 41.5 36.6 40.85 34.25 40.2 31.55 39.05 28.9 37.9 26.55 36.05 24.15 34.25 22.65 31.65 20.5 27.8 17.6 23.65 14.75 19.45 11.7 15.45 8.7 11.5 6.1 8.3 3.5 5.05 1.85 3.15 0.25 1.25 0.2 1.2" fill="#000000" fill-rule="evenodd" stroke="none"/>
    </g>
    <g id="shape30" transform="matrix(1.0, 0.0, 0.0, 1.0, 0.0, 0.0)">
      <path d="M0.2 0.2 Q0.2 0.2 0.0 0.0 0.2 0.2 0.2 0.2" fill="#000000" fill-rule="evenodd" stroke="none"/>
    </g>
    <g id="shape31" transform="matrix(1.0, 0.0, 0.0, 1.0, 0.0, 0.0)">
      <path d="M14.25 0.0 Q14.4 5.35 15.5 9.3 16.55 13.25 18.0 15.9 19.45 18.6 20.7 20.1 22.0 21.6 22.5 22.0 21.95 21.5 20.15 20.25 18.4 19.0 15.45 17.55 12.55 16.15 8.65 15.1 4.75 14.1 0.0 14.05 0.05 14.0 0.85 12.95 1.7 11.9 2.6 10.25 3.55 8.6 3.9 6.8 4.3 5.0 3.5 3.4 5.1 4.2 6.9 3.8 8.75 3.45 10.45 2.55 12.1 1.65 13.15 0.85 14.2 0.05 14.25 0.0" fill="#000000" fill-rule="evenodd" stroke="none"/>
    </g>
    <g id="shape32" transform="matrix(1.0, 0.0, 0.0, 1.0, 0.0, 0.0)">
      <path d="M14.55 19.95 Q15.0 22.1 16.2 23.25 17.4 24.45 18.5 24.9 19.6 25.4 19.8 25.4 20.05 25.35 21.15 24.9 22.25 24.45 23.45 23.25 24.6 22.1 25.1 19.95 24.6 17.85 23.4 16.65 22.25 15.45 21.15 15.0 20.05 14.55 19.8 14.5 19.55 14.55 18.45 15.0 17.4 15.45 16.2 16.65 15.0 17.8 14.5 19.95 L14.55 19.95 M24.2 35.55 Q23.4 37.7 22.45 38.6 21.5 39.55 20.75 39.75 20.0 39.95 19.8 39.9 19.65 39.95 18.9 39.75 18.1 39.55 17.15 38.6 16.2 37.7 15.45 35.55 15.45 35.6 14.15 35.95 12.85 36.3 10.75 35.95 8.65 35.6 6.15 33.65 4.25 31.15 3.95 29.05 3.6 26.95 3.95 25.65 4.3 24.35 4.4 24.3 2.25 23.5 1.3 22.6 0.4 21.65 0.15 20.9 -0.05 20.15 0.0 19.95 -0.05 19.95 0.1 19.2 0.25 18.45 1.15 17.45 2.1 16.45 4.35 15.6 4.3 15.6 3.95 14.3 3.6 13.0 3.9 10.85 4.25 8.75 6.15 6.25 8.65 4.3 10.75 3.95 12.85 3.65 14.15 3.95 15.4 4.3 15.45 4.35 16.2 2.2 17.15 1.3 18.1 0.35 18.85 0.15 19.6 -0.05 19.8 0.0 20.0 -0.05 20.75 0.15 21.5 0.35 22.45 1.3 23.4 2.2 24.15 4.35 24.2 4.3 25.5 3.95 26.75 3.65 28.85 4.0 30.95 4.3 33.45 6.25 35.4 8.75 35.7 10.85 36.0 13.0 35.65 14.3 35.3 15.55 35.25 15.6 37.4 16.4 38.3 17.3 39.25 18.25 39.45 19.0 39.65 19.75 39.6 19.95 39.65 20.0 39.5 20.7 39.35 21.45 38.45 22.45 37.55 23.45 35.25 24.3 35.35 24.3 35.7 25.6 36.05 26.9 35.7 29.05 35.4 31.15 33.45 33.65 30.95 35.6 28.85 35.95 26.75 36.3 25.5 35.95 24.25 35.65 24.2 35.55" fill="#000000" fill-rule="evenodd" stroke="none"/>
    </g>
  </defs>
</svg>
