<?xml version="1.0" encoding="UTF-8" standalone="no"?>
<svg xmlns:ffdec="https://www.free-decompiler.com/flash" xmlns:xlink="http://www.w3.org/1999/xlink" ffdec:objectType="frame" height="180.0px" width="200.0px" xmlns="http://www.w3.org/2000/svg">
  <g transform="matrix(1.0, 0.0, 0.0, 1.0, 0.0, 0.0)">
    <rect fill="#ffffff" height="180.0px" width="200.0px"/>
    <use ffdec:characterId="1" height="179.55" transform="matrix(1.0, 0.0, 0.0, 1.0, 0.0, 0.0)" width="199.9" xlink:href="#shape0"/>
  </g>
  <defs>
    <g id="shape0" transform="matrix(1.0, 0.0, 0.0, 1.0, 0.0, 0.0)">
      <path d="M123.35 103.7 L111.6 108.1 Q117.25 104.9 120.45 100.9 123.65 96.9 124.8 92.7 125.95 88.5 125.5 84.65 125.1 80.85 123.5 78.0 L121.0 87.4 Q121.15 80.9 119.35 76.1 117.55 71.3 114.55 68.15 111.55 65.0 108.05 63.4 104.55 61.8 101.3 61.7 L111.1 72.0 Q105.45 68.75 100.4 68.05 95.35 67.35 91.1 68.5 86.9 69.65 83.85 71.95 80.75 74.3 79.1 77.1 L88.5 74.5 Q82.8 77.65 79.6 81.65 76.4 85.6 75.2 89.8 74.0 94.0 74.4 97.85 74.85 101.65 76.4 104.5 L77.75 90.25 Q77.8 96.75 79.75 101.45 81.7 106.2 84.8 109.25 87.95 112.3 91.5 113.8 95.05 115.25 98.3 115.25 L91.3 108.5 Q96.9 111.75 102.0 112.55 107.05 113.3 111.25 112.2 115.5 111.1 118.6 108.8 121.65 106.5 123.35 103.7 M196.6 79.95 Q199.55 85.35 199.9 90.3 200.3 95.3 198.65 99.55 197.05 103.8 194.05 107.05 191.05 110.35 187.3 112.45 182.35 115.25 177.3 116.55 172.25 117.85 166.8 116.8 161.35 115.75 155.25 111.6 150.6 108.55 146.9 107.6 143.15 106.7 140.5 107.0 137.85 107.3 136.45 107.95 135.0 108.6 135.0 108.7 136.2 103.85 138.5 101.65 140.8 99.45 143.85 99.2 146.85 99.0 150.25 100.1 153.65 101.2 157.0 103.0 160.4 104.8 163.35 106.6 166.3 108.45 168.5 109.65 171.7 111.35 174.25 111.5 176.75 111.7 178.5 111.1 180.25 110.5 181.15 109.8 182.05 109.1 182.05 109.05 180.0 109.7 176.8 109.25 173.55 108.85 169.9 107.55 166.2 106.25 162.7 104.35 159.25 102.45 156.65 100.1 154.05 97.7 153.05 95.15 152.15 92.55 152.95 90.7 153.8 88.85 155.55 87.55 157.3 86.3 159.25 85.55 161.15 84.8 162.55 84.45 163.95 84.15 164.0 84.15 163.95 84.15 163.75 85.1 163.55 86.1 164.0 87.9 164.4 89.75 166.15 92.3 167.9 94.85 171.7 98.0 175.55 101.1 178.55 101.85 181.6 102.6 183.7 102.0 185.85 101.45 186.95 100.6 188.05 99.8 188.05 99.7 184.65 100.3 181.35 99.8 178.1 99.35 175.15 97.3 172.2 95.25 169.8 91.0 168.45 88.45 168.8 86.5 169.2 84.55 170.6 83.2 172.0 81.8 173.7 81.0 175.35 80.15 176.6 79.75 177.85 79.35 177.9 79.35 177.3 80.85 177.6 83.35 177.95 85.8 179.25 88.1 180.5 90.4 182.7 91.5 184.85 92.55 187.9 91.3 190.85 89.9 192.1 88.35 193.35 86.8 193.5 85.35 193.65 83.95 193.35 83.1 193.05 82.2 193.0 82.15 189.95 76.7 185.9 73.45 181.85 70.2 177.45 68.65 173.05 67.1 168.9 66.9 164.7 66.65 161.4 67.3 158.05 67.95 156.15 69.0 153.75 70.3 150.45 72.7 147.2 75.1 143.85 78.3 140.5 81.5 137.9 85.2 135.35 88.9 134.4 92.8 133.45 96.75 131.55 100.45 129.65 104.15 127.6 107.2 125.5 110.2 124.05 111.95 122.55 113.75 122.5 113.8 122.6 113.7 126.0 114.3 129.35 114.85 135.1 116.8 140.85 118.8 148.0 122.95 150.0 124.15 151.7 125.55 151.75 125.6 152.8 126.2 153.85 126.8 155.55 127.35 157.3 127.85 159.4 127.8 161.5 127.7 163.6 126.4 165.75 125.1 167.55 122.0 167.6 122.05 167.7 123.25 167.85 124.4 167.65 126.05 167.5 127.75 166.7 129.4 165.85 131.0 164.0 132.0 162.1 133.0 158.8 132.8 162.2 138.25 163.1 144.4 164.0 150.5 162.7 156.6 161.4 162.7 158.25 168.0 155.0 173.25 150.9 176.05 146.8 178.85 142.3 179.55 137.8 180.3 133.45 179.35 129.1 178.4 125.4 176.15 120.5 173.3 116.85 169.55 113.25 165.85 111.4 160.6 109.55 155.35 110.1 148.0 110.45 142.45 109.4 138.75 108.35 135.1 106.75 132.95 105.15 130.8 103.85 129.9 102.6 129.0 102.5 129.05 107.3 127.65 110.35 128.5 113.45 129.4 115.15 131.9 116.85 134.45 117.6 137.9 118.35 141.4 118.45 145.2 118.6 149.05 118.5 152.5 118.4 156.0 118.45 158.5 118.6 162.15 119.7 164.4 120.8 166.7 122.2 167.9 123.6 169.1 124.6 169.55 125.65 169.95 125.7 169.95 124.15 168.5 122.95 165.5 121.7 162.5 120.95 158.65 120.2 154.8 120.15 150.85 120.05 146.85 120.8 143.45 121.55 140.0 123.3 137.85 125.05 135.8 127.1 135.55 129.1 135.35 131.1 136.2 133.05 137.1 134.7 138.4 136.3 139.7 137.3 140.7 138.25 141.75 138.3 141.8 138.25 141.8 137.3 142.1 136.35 142.45 135.0 143.7 133.65 145.0 132.3 147.8 130.95 150.6 130.1 155.45 129.35 160.3 130.25 163.3 131.1 166.3 132.65 167.85 134.2 169.4 135.5 169.95 136.75 170.5 136.85 170.45 134.65 167.8 133.4 164.7 132.15 161.65 132.45 158.05 132.8 154.5 135.25 150.3 136.8 147.85 138.65 147.2 140.5 146.55 142.4 147.1 144.3 147.6 145.85 148.65 147.45 149.65 148.4 150.55 149.35 151.4 149.4 151.45 147.75 151.7 145.8 153.2 143.85 154.75 142.5 157.0 141.1 159.25 141.3 161.7 141.45 164.1 144.05 166.1 146.75 168.0 148.7 168.25 150.65 168.55 151.95 168.0 153.25 167.4 153.9 166.75 154.5 166.05 154.5 166.0 157.7 160.6 158.5 155.45 159.3 150.3 158.4 145.75 157.55 141.15 155.65 137.45 153.75 133.7 151.55 131.15 149.35 128.55 147.45 127.45 145.15 126.05 141.4 124.4 137.7 122.75 133.25 121.45 128.8 120.15 124.3 119.75 119.8 119.4 115.95 120.55 112.1 121.7 107.7 121.85 103.35 121.95 99.45 121.6 95.55 121.2 93.1 120.75 90.65 120.3 90.55 120.25 90.6 120.25 91.55 123.35 92.5 126.4 93.45 132.25 94.4 138.05 94.5 146.3 94.5 148.65 94.2 150.8 94.15 150.85 94.2 152.05 94.2 153.25 94.65 155.05 95.05 156.8 96.2 158.55 97.35 160.3 99.55 161.45 101.75 162.6 105.35 162.55 105.35 162.6 104.4 163.3 103.5 164.0 101.95 164.75 100.45 165.5 98.6 165.6 96.8 165.75 94.95 164.65 93.1 163.55 91.6 160.6 88.7 166.35 83.9 170.3 79.1 174.2 73.2 176.2 67.3 178.25 61.15 178.25 55.0 178.2 50.5 176.1 45.95 174.0 43.05 170.55 40.1 167.1 38.7 162.85 37.25 158.65 37.25 154.35 37.2 148.65 38.5 143.6 39.85 138.55 43.4 134.3 46.95 130.05 53.55 126.7 58.45 124.15 61.1 121.35 63.7 118.55 64.7 116.05 65.7 113.6 65.8 112.05 65.9 110.5 65.85 110.45 69.55 113.8 70.35 116.9 71.15 119.95 69.9 122.75 68.65 125.5 66.0 127.95 63.4 130.35 60.2 132.45 57.0 134.5 53.95 136.2 50.95 137.9 48.8 139.25 45.8 141.25 44.4 143.4 43.0 145.5 42.7 147.3 42.4 149.1 42.55 150.25 42.7 151.35 42.75 151.4 43.35 148.75 46.15 145.4 49.0 142.05 53.0 139.0 57.05 135.95 61.3 134.15 65.55 132.35 69.0 132.8 71.7 133.25 72.9 134.85 74.15 136.45 74.4 138.6 74.7 140.75 74.4 142.8 74.1 144.9 73.75 146.25 73.35 147.6 73.3 147.65 73.35 147.6 72.6 147.0 71.8 146.35 70.0 145.85 68.2 145.3 65.15 145.6 62.05 145.9 57.45 147.65 52.9 149.55 50.75 151.85 48.65 154.15 48.1 156.25 47.6 158.4 47.8 159.75 47.95 161.15 48.05 161.2 49.2 157.9 51.15 155.25 53.15 152.6 56.4 151.05 59.65 149.5 64.5 149.45 67.4 149.5 68.9 150.75 70.4 152.05 70.95 153.9 71.45 155.8 71.4 157.7 71.3 159.55 71.05 160.85 70.8 162.1 70.75 162.15 69.75 160.9 67.4 160.0 65.1 159.1 62.45 159.1 59.85 159.1 57.85 160.45 55.85 161.85 55.5 165.1 55.25 168.4 56.0 170.2 56.8 172.05 57.95 172.9 59.1 173.7 60.0 173.9 60.9 174.1 60.95 174.05 67.2 173.95 72.05 172.0 76.85 170.05 80.35 166.95 83.8 163.85 86.05 160.3 88.25 156.8 89.3 153.55 90.35 150.35 90.35 148.15 90.4 145.45 89.9 141.4 89.35 137.35 88.2 132.9 87.05 128.4 85.05 124.35 83.05 120.3 80.1 117.6 77.1 114.85 74.8 111.55 72.55 108.2 70.95 105.05 69.4 101.95 68.6 99.95 67.8 97.9 67.8 97.85 67.85 97.9 66.65 99.6 65.45 101.25 63.0 104.0 60.5 106.7 56.6 109.85 52.7 113.0 47.3 116.0 45.25 117.15 43.2 117.9 43.15 117.9 42.1 118.5 41.05 119.1 39.7 120.35 38.35 121.55 37.35 123.4 36.35 125.25 36.4 127.75 36.45 130.2 38.2 133.35 38.15 133.35 37.1 132.9 36.05 132.4 34.65 131.4 33.3 130.45 32.3 128.9 31.3 127.35 31.4 125.2 31.5 123.1 33.35 120.35 26.9 120.55 21.2 118.2 15.45 115.9 10.85 111.65 6.25 107.45 3.3 102.05 0.4 96.6 0.05 91.65 -0.25 86.7 1.4 82.45 3.0 78.2 6.05 74.95 9.05 71.65 12.85 69.6 17.8 66.85 22.9 65.6 27.95 64.35 33.35 65.4 38.8 66.5 44.9 70.7 49.5 73.8 53.2 74.75 56.95 75.7 59.6 75.4 62.25 75.1 63.65 74.45 65.1 73.8 65.1 73.75 63.85 78.55 61.55 80.75 59.25 82.95 56.2 83.15 53.2 83.35 49.8 82.25 46.4 81.1 43.05 79.3 39.7 77.5 36.75 75.65 33.8 73.8 31.65 72.55 28.4 70.85 25.9 70.65 23.35 70.45 21.6 71.05 19.9 71.65 18.95 72.3 18.05 73.0 18.05 73.05 20.1 72.45 23.35 72.9 26.55 73.35 30.2 74.65 33.9 75.95 37.35 77.9 40.85 79.85 43.4 82.25 45.95 84.6 46.95 87.2 47.85 89.75 47.0 91.6 46.2 93.45 44.45 94.75 42.7 96.0 40.75 96.7 38.8 97.45 37.4 97.8 36.0 98.1 35.95 98.1 36.0 98.1 36.2 97.1 36.4 96.15 36.0 94.3 35.6 92.5 33.85 89.9 32.1 87.35 28.35 84.15 24.5 81.05 21.5 80.3 18.45 79.55 16.35 80.1 14.25 80.6 13.1 81.45 12.0 82.25 12.0 82.35 15.4 81.8 18.7 82.3 21.95 82.75 24.9 84.85 27.85 86.95 30.2 91.2 31.55 93.75 31.15 95.7 30.75 97.65 29.35 99.0 27.95 100.35 26.25 101.2 24.55 102.05 23.3 102.4 22.05 102.8 22.0 102.8 22.65 101.25 22.3 98.8 22.0 96.35 20.75 94.05 19.5 91.7 17.3 90.65 15.15 89.55 12.1 90.8 9.1 92.15 7.85 93.7 6.6 95.25 6.45 96.65 6.3 98.05 6.55 98.95 6.85 99.85 6.9 99.85 9.95 105.35 13.95 108.65 18.0 111.9 22.4 113.5 26.75 115.05 30.95 115.3 35.1 115.55 38.45 114.95 41.8 114.35 43.7 113.3 46.1 112.0 49.4 109.65 52.7 107.25 56.05 104.1 59.45 100.9 62.05 97.25 64.65 93.55 65.6 89.65 66.6 85.7 68.65 81.85 70.75 78.05 73.05 74.85 75.4 71.7 77.05 69.8 78.65 67.9 78.75 67.85 78.7 67.9 75.55 67.2 72.4 66.45 66.95 64.3 61.45 62.2 54.3 58.05 52.25 56.9 50.55 55.5 50.5 55.5 49.45 54.9 48.4 54.3 46.65 53.8 44.9 53.25 42.85 53.35 40.75 53.45 38.65 54.75 36.55 56.1 34.75 59.2 34.7 59.15 34.55 58.0 34.45 56.85 34.55 55.15 34.7 53.5 35.55 51.85 36.35 50.2 38.2 49.2 40.1 48.15 43.4 48.35 39.9 42.95 38.95 36.8 38.0 30.7 39.25 24.55 40.5 18.45 43.6 13.15 46.75 7.85 50.85 5.05 54.95 2.2 59.4 1.4 63.9 0.65 68.25 1.55 72.6 2.45 76.3 4.65 81.25 7.45 84.95 11.15 88.6 14.85 90.5 20.05 92.35 25.3 91.9 32.65 91.6 38.2 92.7 41.9 93.8 45.55 95.45 47.7 97.05 49.8 98.35 50.7 99.6 51.6 99.7 51.55 94.9 53.0 91.85 52.15 88.75 51.3 87.05 48.8 85.3 46.3 84.55 42.8 83.75 39.35 83.6 35.55 83.45 31.7 83.5 28.25 83.55 24.75 83.5 22.25 83.3 18.6 82.15 16.35 81.05 14.1 79.65 12.9 78.25 11.7 77.2 11.25 76.15 10.85 76.1 10.85 77.65 12.35 78.9 15.3 80.2 18.3 80.95 22.15 81.75 25.95 81.85 29.95 81.95 33.9 81.25 37.35 80.55 40.75 78.85 42.95 77.1 45.0 75.05 45.25 73.05 45.5 71.05 44.65 69.1 43.8 67.45 42.5 65.8 41.2 64.8 40.2 63.85 39.15 63.8 39.1 63.85 39.15 64.8 38.8 65.7 38.5 67.05 37.2 68.4 35.9 69.75 33.1 71.05 30.3 71.85 25.45 72.55 20.55 71.6 17.55 70.7 14.55 69.15 13.05 67.6 11.5 66.3 10.95 65.05 10.4 64.95 10.45 67.2 13.1 68.45 16.15 69.75 19.25 69.45 22.8 69.2 26.4 66.75 30.6 65.25 33.1 63.35 33.75 61.5 34.4 59.6 33.9 57.75 33.4 56.15 32.4 54.55 31.35 53.6 30.5 52.6 29.65 52.6 29.6 54.25 29.35 56.15 27.8 58.1 26.25 59.45 24.0 60.8 21.7 60.6 19.3 60.4 16.9 57.8 14.9 55.1 13.05 53.1 12.75 51.15 12.5 49.85 13.1 48.6 13.7 47.95 14.4 47.35 15.1 47.35 15.15 44.2 20.55 43.45 25.7 42.7 30.85 43.6 35.4 44.55 39.95 46.45 43.7 48.4 47.4 50.65 49.9 52.85 52.45 54.75 53.55 57.1 54.95 60.85 56.6 64.55 58.2 69.05 59.45 73.5 60.7 78.0 61.05 82.5 61.35 86.35 60.2 90.2 59.0 94.35 58.55 98.55 58.15 102.2 58.2 105.85 58.25 108.1 58.45 110.4 58.65 110.45 58.65 110.45 58.65 109.7 56.6 109.0 54.6 108.1 50.9 107.2 47.2 106.6 42.1 106.0 37.0 106.2 30.8 106.25 28.45 106.65 26.3 106.65 26.25 106.7 25.05 106.7 23.85 106.35 22.05 105.95 20.25 104.9 18.5 103.8 16.7 101.65 15.45 99.5 14.25 95.9 14.15 95.9 14.1 96.85 13.45 97.8 12.75 99.35 12.1 100.9 11.4 102.75 11.35 104.55 11.3 106.35 12.45 108.15 13.6 109.55 16.6 112.65 10.95 117.6 7.2 122.5 3.45 128.5 1.6 134.45 -0.2 140.6 0.0 146.75 0.3 151.2 2.55 155.65 4.75 158.45 8.35 161.25 11.9 162.55 16.15 163.8 20.45 163.65 24.75 163.55 30.45 162.05 35.45 160.55 40.45 156.85 44.55 153.15 48.7 146.45 51.8 141.4 54.15 138.7 56.9 136.0 59.6 134.9 62.05 133.8 64.5 133.65 66.05 133.5 67.6 133.55 67.65 130.0 64.1 129.3 61.0 128.55 57.9 129.95 55.2 131.3 52.45 134.0 50.15 136.7 47.8 139.95 45.85 143.2 43.9 146.3 42.3 149.4 40.7 151.55 39.45 154.7 37.5 156.15 35.45 157.6 33.4 157.95 31.6 158.35 29.8 158.25 28.65 158.1 27.55 158.05 27.5 157.4 30.1 154.45 33.35 151.5 36.6 147.4 39.55 143.25 42.45 138.9 44.1 134.6 45.75 131.15 45.2 128.5 44.65 127.35 43.0 126.15 41.3 125.95 39.15 125.8 37.0 126.15 34.95 126.5 32.9 126.95 31.55 127.35 30.2 127.4 30.15 127.35 30.2 128.1 30.85 128.85 31.5 130.65 32.1 132.4 32.7 135.5 32.5 138.6 32.3 143.25 30.7 147.85 29.0 150.05 26.75 152.25 24.55 152.85 22.45 153.5 20.35 153.35 18.95 153.2 17.55 153.1 17.5 151.85 20.75 149.8 23.35 147.7 25.9 144.4 27.35 141.1 28.85 136.25 28.7 133.35 28.55 131.9 27.2 130.45 25.9 130.0 24.0 129.55 22.1 129.65 20.2 129.8 18.35 130.1 17.05 130.4 15.8 130.45 15.75 131.45 17.05 133.7 18.05 136.0 19.0 138.6 19.1 141.25 19.2 143.3 17.9 145.3 16.6 145.8 13.35 146.15 10.1 145.45 8.2 144.75 6.35 143.65 5.5 142.5 4.65 141.6 4.45 140.7 4.2 140.65 4.25 134.4 4.1 129.5 5.85 124.6 7.65 121.05 10.65 117.45 13.6 115.1 17.05 112.75 20.5 111.6 23.7 110.4 26.9 110.35 29.05 110.25 31.8 110.6 35.85 111.0 39.9 112.0 44.4 113.0 48.95 114.85 53.05 116.75 57.15 119.6 60.0 122.45 62.8 124.7 66.55 126.95 70.3 128.5 73.9 130.05 77.5 130.85 79.9 131.65 82.25 131.65 82.35 131.6 82.3 133.85 79.95 136.1 77.65 140.7 74.0 145.35 70.35 152.55 66.3 154.55 65.15 156.6 64.35 156.65 64.35 157.7 63.75 158.75 63.15 160.1 61.9 161.45 60.7 162.4 58.85 163.4 57.0 163.35 54.5 163.25 52.0 161.5 48.9 161.55 48.9 162.6 49.35 163.65 49.8 165.05 50.8 166.45 51.8 167.45 53.3 168.45 54.85 168.35 56.95 168.3 59.1 166.45 61.85 172.85 61.6 178.6 63.9 184.4 66.2 189.0 70.4 193.6 74.55 196.6 79.95" fill="#000000" fill-rule="evenodd" stroke="none"/>
    </g>
  </defs>
</svg>
