<?xml version="1.0" encoding="UTF-8" standalone="no"?>
<svg xmlns:ffdec="https://www.free-decompiler.com/flash" xmlns:xlink="http://www.w3.org/1999/xlink" ffdec:objectType="frame" height="201.0px" width="191.0px" xmlns="http://www.w3.org/2000/svg">
  <g transform="matrix(1.0, 0.0, 0.0, 1.0, 0.0, 0.0)">
    <rect fill="#ffffff" height="201.0px" width="191.0px"/>
    <use ffdec:characterId="1" height="194.9" transform="matrix(1.0, 0.0, 0.0, 1.0, 2.5, 2.7)" width="188.25" xlink:href="#shape0"/>
    <use ffdec:characterId="2" height="66.35" transform="matrix(1.0, 0.0, 0.0, 1.0, 79.5, 133.65)" width="71.5" xlink:href="#shape1"/>
    <use ffdec:characterId="3" height="143.75" transform="matrix(1.0, 0.0, 0.0, 1.0, 0.0, 0.0)" width="112.65" xlink:href="#shape2"/>
  </g>
  <defs>
    <g id="shape0" transform="matrix(1.0, 0.0, 0.0, 1.0, 0.0, 0.0)">
      <path d="M188.25 108.4 Q188.25 108.45 187.1 109.6 185.9 110.75 183.35 111.85 180.85 113.0 176.8 113.1 176.85 113.1 177.85 114.3 178.85 115.5 180.0 117.85 181.15 120.2 181.65 123.75 182.15 127.3 181.2 131.95 181.1 131.95 178.6 132.0 176.1 132.05 172.1 131.75 168.15 131.45 163.65 130.55 159.15 129.65 155.15 127.8 151.1 125.95 148.5 122.85 145.3 118.9 141.1 115.65 136.85 112.45 132.65 110.55 128.45 108.7 125.2 108.75 121.95 108.8 120.6 111.4 119.35 114.1 120.25 117.25 121.1 120.35 123.6 123.35 126.1 126.4 129.75 128.75 133.4 131.1 137.75 132.3 141.25 133.15 146.1 134.15 150.95 135.1 156.25 136.45 161.5 137.8 166.35 139.85 171.2 141.9 174.7 145.0 178.2 148.1 179.5 152.5 179.45 152.5 178.3 153.1 177.15 153.65 175.2 154.2 173.3 154.8 170.95 154.9 168.65 155.0 166.35 154.15 166.45 154.2 167.25 155.8 168.05 157.4 168.9 160.0 169.7 162.6 169.8 165.7 169.85 168.75 168.4 171.7 168.35 171.7 166.9 171.7 165.45 171.7 163.2 171.35 161.0 171.0 158.6 169.95 156.2 168.95 154.25 166.95 154.3 167.05 154.65 168.8 155.0 170.55 155.3 173.05 155.6 175.55 155.55 177.9 155.45 180.25 154.6 181.45 154.6 181.35 153.1 178.65 151.65 175.9 148.8 171.3 145.95 166.65 141.85 160.9 137.8 155.1 132.55 148.95 127.3 142.8 121.0 137.0 114.7 131.25 107.45 126.6 100.2 121.95 92.1 119.25 84.0 116.5 75.15 116.45 65.55 116.55 58.6 118.7 51.65 120.9 46.9 124.3 42.15 127.75 39.2 131.6 36.25 135.45 34.7 138.9 33.15 142.35 32.55 144.5 32.0 146.7 32.05 146.75 32.05 146.7 33.35 145.3 34.6 143.95 37.05 141.9 39.5 139.85 43.0 137.8 46.5 135.75 50.95 134.4 55.4 133.0 60.65 132.95 65.9 133.0 69.75 134.6 73.6 136.2 76.25 138.55 78.95 140.85 80.55 143.2 82.15 145.55 82.85 147.15 83.55 148.75 83.55 148.8 83.55 148.85 82.55 149.85 81.6 150.9 79.5 152.15 77.4 153.4 74.15 154.2 70.9 154.95 66.35 154.5 66.4 154.55 67.0 155.6 67.55 156.7 68.1 158.6 68.65 160.45 68.55 162.8 68.5 165.15 67.25 167.7 66.0 170.25 63.0 172.7 63.0 172.6 61.7 171.35 60.4 170.1 57.6 168.45 54.85 166.85 50.5 165.55 46.15 164.3 40.1 164.25 35.25 164.3 31.5 166.25 27.7 168.2 24.95 171.45 22.2 174.75 20.4 178.75 18.6 182.75 17.75 186.95 16.9 191.1 16.9 194.9 L0.05 194.9 Q0.0 194.85 0.0 191.05 0.0 187.25 0.55 180.45 1.1 173.7 2.7 164.75 4.35 155.8 7.5 145.4 10.65 135.0 15.85 124.0 21.1 112.95 28.85 102.05 36.65 91.1 47.5 81.1 60.2 69.55 70.35 61.55 80.55 53.5 88.65 48.0 96.75 42.55 103.3 38.65 109.8 34.75 115.15 31.5 120.45 28.2 125.1 24.6 129.7 21.05 134.05 16.15 140.65 8.75 147.8 5.05 154.95 1.35 161.9 0.45 168.85 -0.5 174.85 0.55 180.85 1.55 185.2 3.65 185.3 3.75 185.05 5.1 184.8 6.45 183.45 8.25 182.1 10.05 178.95 11.5 175.8 12.9 170.05 13.1 170.15 13.1 171.9 13.8 173.7 14.45 176.25 16.0 178.8 17.55 181.3 20.05 183.75 22.6 185.2 26.25 185.25 26.3 184.25 27.25 183.2 28.2 181.05 29.3 178.9 30.4 175.4 30.9 171.95 31.4 167.05 30.6 162.15 29.8 159.6 30.6 157.05 31.4 156.1 33.0 155.15 34.6 155.1 36.25 155.05 37.85 155.25 38.7 155.5 39.75 157.35 41.15 159.2 42.55 161.8 43.25 164.45 44.0 167.05 43.05 169.5 42.0 171.75 40.85 173.95 39.65 176.6 39.1 179.2 38.55 182.85 39.35 182.95 39.4 183.15 41.15 183.4 42.85 183.0 45.5 182.6 48.15 180.75 51.0 178.9 53.85 174.8 56.2 174.85 56.15 176.6 56.9 178.3 57.7 180.7 59.75 183.05 61.85 185.0 65.7 187.0 69.55 187.6 75.7 187.6 75.8 186.4 76.25 185.25 76.75 182.6 76.8 180.0 76.9 175.65 75.7 171.3 74.55 165.0 71.35 161.35 69.45 155.25 68.15 149.2 66.8 141.7 66.2 134.25 65.6 126.4 65.9 118.55 66.15 111.25 67.5 104.0 68.8 98.3 71.35 92.65 73.9 89.55 77.8 86.45 81.7 86.9 87.15 87.4 91.05 90.6 92.25 93.75 93.45 98.7 92.8 103.6 92.15 109.25 90.45 114.9 88.75 120.35 86.8 125.8 84.85 130.0 83.45 134.15 82.1 138.85 80.7 143.6 79.35 148.95 78.7 154.35 78.05 160.4 78.85 166.45 79.65 173.25 82.65 180.0 85.65 187.6 91.55 187.6 91.6 185.95 92.3 184.35 93.0 181.1 93.35 177.9 93.7 173.0 92.75 168.15 91.75 161.65 88.5 158.25 86.9 155.5 87.8 152.7 88.7 151.15 91.05 149.55 93.4 149.8 96.1 150.0 98.8 152.55 100.8 155.15 102.8 160.65 103.0 167.5 103.1 171.85 103.05 176.25 103.0 179.0 103.3 181.75 103.6 183.85 104.75 185.95 105.9 188.25 108.4" fill="#000000" fill-rule="evenodd" stroke="none"/>
    </g>
    <g id="shape1" transform="matrix(1.0, 0.0, 0.0, 1.0, 0.0, 0.0)">
      <path d="M11.95 0.0 Q19.15 0.8 25.85 4.75 32.5 8.65 38.45 14.6 44.45 20.6 49.5 27.5 54.6 34.45 58.65 41.3 62.7 48.1 65.6 53.8 68.45 59.45 69.95 62.85 71.5 66.25 71.5 66.35 65.75 65.65 62.1 64.35 58.45 63.05 56.45 61.65 54.45 60.25 53.7 59.25 52.95 58.3 53.0 58.25 51.3 62.0 48.85 63.7 46.4 65.45 43.95 65.9 41.55 66.35 39.9 66.2 38.25 66.05 38.2 66.0 40.05 63.6 41.7 60.0 43.35 56.45 44.25 52.4 45.2 48.35 44.9 44.65 44.55 40.9 42.5 38.25 40.45 35.55 36.15 34.7 32.6 34.1 30.4 35.85 28.2 37.65 27.1 40.9 26.0 44.15 25.7 48.0 25.35 51.8 25.45 55.3 25.6 58.75 25.8 61.0 26.05 63.2 26.05 63.3 22.3 63.7 19.7 62.55 17.1 61.4 15.55 59.6 14.0 57.8 13.3 56.4 12.6 54.95 12.6 54.9 10.9 56.75 8.8 57.4 6.7 58.05 4.75 57.95 2.75 57.9 1.5 57.6 0.2 57.3 0.15 57.25 0.05 55.45 1.0 53.7 1.95 52.0 3.2 50.6 4.5 49.15 5.5 48.35 6.5 47.5 6.55 47.45 3.2 46.65 1.75 44.6 0.35 42.6 0.1 40.3 -0.1 38.05 0.15 36.4 0.45 34.75 0.5 34.7 1.85 36.0 4.35 36.55 6.8 37.05 9.7 36.7 12.65 36.3 15.25 34.85 17.9 33.4 19.6 30.8 21.3 28.2 21.35 24.25 21.3 19.3 19.9 14.9 18.5 10.55 16.65 7.2 14.8 3.85 13.4 1.95 12.0 0.05 11.95 0.0" fill="#000000" fill-rule="evenodd" stroke="none"/>
    </g>
    <g id="shape2" transform="matrix(1.0, 0.0, 0.0, 1.0, 0.0, 0.0)">
      <path d="M52.05 65.35 Q41.55 74.3 33.7 83.55 25.85 92.75 20.25 101.55 14.65 110.3 11.0 117.95 7.35 125.55 5.3 131.35 3.2 137.15 2.35 140.45 1.5 143.7 1.55 143.75 0.05 142.2 0.0 138.25 -0.05 134.35 0.9 128.95 1.85 123.6 3.45 117.7 5.0 111.75 6.8 106.15 8.55 100.55 10.1 96.2 11.7 91.8 12.65 89.55 13.75 86.9 14.1 83.25 14.5 79.65 14.1 75.65 13.75 71.65 12.7 67.9 11.65 64.15 9.95 61.25 8.25 58.35 5.9 56.9 3.05 55.1 1.7 52.85 0.35 50.65 0.1 48.55 -0.1 46.45 0.45 45.05 1.0 43.6 1.9 43.45 2.6 43.3 3.9 42.75 5.2 42.25 6.95 42.05 8.7 41.8 10.8 42.55 12.85 43.3 15.15 45.6 17.4 47.95 19.75 52.55 22.05 57.15 24.15 59.65 26.2 62.2 27.95 63.25 29.65 64.3 30.9 64.4 32.15 64.55 32.85 64.3 33.55 64.05 33.55 64.0 36.8 60.95 37.0 56.4 37.15 51.85 35.15 46.75 33.15 41.7 29.85 37.1 26.5 32.5 22.75 29.5 19.0 26.45 15.7 25.95 11.7 25.4 9.45 24.3 7.25 23.25 6.25 22.05 5.3 20.9 5.05 20.05 4.85 19.25 4.9 19.2 6.35 16.95 8.25 15.85 10.2 14.75 12.0 14.4 13.85 14.05 15.1 14.1 16.3 14.1 16.35 14.15 16.05 12.1 16.8 10.0 17.5 7.85 18.7 6.05 19.85 4.3 20.75 3.15 21.7 2.05 21.75 2.05 25.9 1.85 29.0 2.75 32.1 3.65 34.15 5.0 36.2 6.3 37.25 7.35 38.25 8.4 38.25 8.45 39.45 6.3 41.15 4.95 42.9 3.65 44.6 2.9 46.3 2.2 47.5 1.95 48.65 1.7 48.7 1.7 48.7 1.65 49.05 2.2 49.35 2.75 49.45 4.15 49.55 5.5 48.95 7.95 48.4 10.4 46.65 14.15 45.2 17.25 44.1 21.55 42.95 25.8 42.5 30.35 42.0 34.9 42.6 38.85 43.2 42.8 45.2 45.3 47.25 47.75 51.05 47.8 54.85 47.75 57.6 45.65 60.3 43.55 61.95 40.2 63.6 36.85 64.2 33.05 64.75 29.25 64.35 25.75 63.9 22.3 62.5 19.9 60.2 15.95 59.8 12.4 59.35 8.9 59.7 6.7 60.05 4.45 60.15 4.4 63.65 4.95 66.15 5.95 68.65 7.0 69.95 7.85 71.25 8.7 71.25 8.75 71.2 8.7 71.65 7.35 72.05 6.0 73.2 4.25 74.35 2.5 76.5 1.25 78.6 -0.05 82.0 0.0 85.45 0.2 88.25 1.35 91.1 2.55 93.15 4.0 95.25 5.5 96.35 6.6 97.5 7.7 97.5 7.75 100.2 4.65 102.85 3.6 105.5 2.6 107.75 2.75 109.95 2.9 111.3 3.45 112.6 4.0 112.65 4.05 111.35 9.8 108.7 14.5 106.05 19.15 101.55 23.8 97.05 28.4 90.3 33.95 83.55 39.55 74.1 47.15 64.65 54.7 52.05 65.35" fill="#000000" fill-rule="evenodd" stroke="none"/>
    </g>
  </defs>
</svg>
