<?xml version="1.0" encoding="UTF-8" standalone="no"?>
<svg xmlns:ffdec="https://www.free-decompiler.com/flash" xmlns:xlink="http://www.w3.org/1999/xlink" ffdec:objectType="frame" height="201.0px" width="135.0px" xmlns="http://www.w3.org/2000/svg">
  <g transform="matrix(1.0, 0.0, 0.0, 1.0, 0.0, 0.0)">
    <rect fill="#ffffff" height="201.0px" width="135.0px"/>
    <use ffdec:characterId="1" height="199.75" transform="matrix(1.0, 0.0, 0.0, 1.0, 0.0, 0.0)" width="134.25" xlink:href="#shape0"/>
  </g>
  <defs>
    <g id="shape0" transform="matrix(1.0, 0.0, 0.0, 1.0, 0.0, 0.0)">
      <path d="M118.25 108.6 Q118.2 108.65 117.2 109.65 116.25 110.65 115.25 111.95 114.2 113.3 113.9 114.4 113.65 115.5 114.95 115.8 116.25 116.1 119.95 115.0 122.55 114.3 123.65 114.9 124.75 115.55 124.5 116.85 124.2 118.15 122.75 119.5 121.25 120.8 118.7 121.4 116.4 122.2 114.4 122.7 112.45 123.15 111.2 123.85 110.0 124.55 109.95 126.1 110.0 127.35 109.7 128.9 109.45 130.4 108.4 131.85 107.35 133.3 105.0 134.2 102.6 135.1 98.4 135.05 97.3 134.95 95.1 135.2 92.9 135.45 90.15 136.75 87.45 138.05 84.8 141.2 82.15 144.3 80.05 150.0 78.0 155.7 77.1 164.7 76.6 170.6 77.05 175.05 77.55 179.5 78.55 182.55 79.5 185.65 80.45 187.45 81.4 189.25 81.8 189.85 82.25 191.1 83.4 191.95 84.6 192.8 86.75 192.75 88.9 192.7 92.35 191.25 94.65 190.85 95.85 191.35 97.05 191.85 97.45 192.85 97.85 193.9 97.75 195.0 97.6 196.55 96.55 197.85 95.5 199.1 93.6 199.7 91.65 200.3 88.95 199.75 85.0 198.95 81.95 196.0 78.9 193.05 77.05 186.9 75.2 180.7 74.9 170.35 74.8 170.6 74.7 170.8 73.25 169.1 71.8 168.15 70.4 167.25 69.05 166.9 69.35 172.55 69.85 177.65 70.3 182.8 70.95 186.85 71.0 186.9 70.65 187.4 70.3 187.85 69.5 188.35 68.65 188.85 67.15 188.9 67.15 188.9 67.15 188.9 67.15 188.9 67.1 188.9 65.6 188.85 64.8 188.35 63.95 187.85 63.6 187.4 63.3 186.9 63.3 186.85 63.95 182.8 64.4 177.7 64.9 172.55 65.2 166.95 63.5 167.45 62.2 168.35 60.95 169.25 60.2 170.0 59.5 170.75 59.5 170.8 59.45 170.65 59.4 170.55 59.05 180.85 57.2 186.95 55.35 193.1 52.3 196.05 49.25 199.0 45.35 199.75 42.6 200.3 40.7 199.7 38.75 199.1 37.7 197.8 36.65 196.55 36.55 195.0 36.45 193.9 36.85 192.9 37.2 191.85 38.4 191.35 39.6 190.85 41.95 191.25 45.4 192.7 47.55 192.75 49.7 192.8 50.85 191.95 52.0 191.1 52.5 189.85 52.9 189.25 53.85 187.45 54.75 185.65 55.75 182.55 56.7 179.5 57.2 175.05 57.65 170.6 57.15 164.7 56.25 155.7 54.2 150.0 52.15 144.3 49.45 141.15 46.8 138.05 44.1 136.75 41.4 135.45 39.2 135.2 37.0 134.95 35.85 135.05 31.65 135.1 29.3 134.2 26.9 133.3 25.85 131.85 24.8 130.4 24.55 128.9 24.3 127.35 24.35 126.1 24.3 124.55 23.05 123.85 21.85 123.15 19.85 122.65 17.85 122.2 15.6 121.4 13.0 120.8 11.55 119.5 10.05 118.15 9.8 116.85 9.55 115.55 10.6 114.9 11.7 114.25 14.3 115.0 18.0 116.1 19.3 115.8 20.65 115.55 20.35 114.4 20.05 113.3 19.05 111.95 18.0 110.65 17.05 109.65 16.05 108.65 16.0 108.6 10.5 103.6 6.55 98.55 2.65 93.55 1.2 89.55 -0.2 85.35 0.0 83.4 0.25 81.45 1.45 81.05 2.65 80.65 4.15 81.1 5.65 81.55 6.75 82.15 7.9 82.8 7.95 82.85 6.45 77.0 6.55 73.75 6.7 70.45 7.65 68.95 8.6 67.5 9.5 67.15 10.4 66.8 10.5 66.85 11.7 64.45 13.4 64.4 15.1 64.3 16.4 65.55 17.65 66.8 17.55 68.4 16.75 77.2 18.0 84.3 19.25 91.4 21.75 96.85 24.25 102.3 27.2 106.2 30.1 110.05 32.55 112.45 34.35 114.25 37.25 117.65 40.15 121.05 43.55 125.7 46.9 130.4 50.1 136.0 53.25 141.6 55.65 147.85 58.0 154.1 58.95 160.65 59.0 160.6 59.0 160.55 62.5 162.6 65.45 162.9 65.75 156.55 65.95 150.55 66.15 144.55 66.2 139.75 66.3 134.95 66.3 132.1 66.35 129.25 66.35 129.2 66.35 127.85 66.2 127.25 66.05 126.6 65.8 126.35 65.5 126.1 65.15 125.8 63.1 123.75 62.5 121.75 61.9 119.75 61.9 118.05 61.95 116.4 61.9 115.4 61.8 114.4 60.85 114.4 58.35 114.35 57.5 113.35 56.65 112.35 57.45 111.35 58.3 110.4 60.85 110.3 62.1 110.3 62.95 110.3 63.85 110.3 64.9 110.3 65.65 110.25 65.95 109.7 66.25 109.15 66.3 108.55 66.35 108.0 66.35 107.95 L66.35 81.05 Q65.75 84.25 64.6 87.2 63.45 90.15 61.6 92.3 59.8 94.45 57.15 95.3 55.7 95.65 54.6 94.1 53.55 92.55 53.0 89.8 52.35 90.8 51.65 91.75 49.35 94.8 46.8 97.05 44.25 99.25 42.0 100.7 39.75 102.15 38.3 102.9 36.9 103.6 36.85 103.6 36.85 103.55 37.1 101.95 37.35 100.4 38.1 97.85 38.85 95.25 40.2 92.15 41.6 89.1 43.85 86.0 44.5 85.1 45.2 84.2 42.5 84.45 40.95 83.85 39.35 83.2 38.95 81.85 38.35 79.3 39.65 77.0 41.0 74.7 43.5 72.75 46.05 70.75 49.1 69.15 52.2 67.55 55.05 66.4 51.85 67.3 48.25 67.75 44.65 68.2 41.3 67.95 37.95 67.7 35.6 66.4 33.25 65.15 32.55 62.55 32.25 61.15 33.45 59.65 34.6 58.15 37.2 56.7 36.15 56.4 35.1 56.05 31.55 54.85 28.75 53.15 26.0 51.4 24.1 49.7 22.15 48.0 21.2 46.85 20.2 45.7 20.2 45.65 20.2 45.6 21.85 45.35 23.5 45.05 26.3 44.85 29.1 44.7 32.5 45.0 35.9 45.3 39.5 46.4 40.65 46.8 41.75 47.2 40.85 44.55 41.1 42.6 41.35 40.65 42.9 40.05 45.9 39.1 48.65 40.2 51.35 41.35 53.8 43.6 56.2 45.9 58.35 48.4 57.25 46.55 56.3 43.55 55.35 40.55 54.7 37.05 54.05 33.5 53.8 30.0 53.55 26.55 53.9 23.7 54.2 20.9 55.25 19.3 56.2 18.05 58.0 18.55 59.85 19.1 62.0 20.9 61.9 19.75 61.85 18.5 61.65 13.4 62.65 9.25 63.6 5.05 64.65 2.55 65.7 0.05 65.8 0.0 65.85 0.0 66.65 1.4 67.45 2.75 68.5 5.25 69.6 7.7 70.5 10.95 71.35 14.25 71.6 18.05 71.65 19.15 71.65 20.25 73.6 18.35 75.25 17.85 76.9 17.3 78.05 18.15 79.8 19.45 80.35 22.5 80.95 25.6 80.65 29.6 80.35 33.6 79.45 37.8 78.55 41.95 77.35 45.5 76.15 49.1 74.9 51.25 76.7 49.05 78.95 46.8 81.25 44.55 83.8 42.85 86.35 41.1 89.05 40.4 91.7 39.7 94.3 40.5 95.75 41.1 95.75 43.0 95.8 44.9 94.65 47.55 95.75 47.1 96.9 46.75 101.75 45.15 106.05 44.95 110.35 44.7 113.05 45.05 115.75 45.4 115.85 45.45 115.8 45.5 114.7 46.65 113.65 47.85 111.55 49.55 109.5 51.3 106.65 53.1 103.75 54.85 100.15 56.15 99.1 56.5 98.05 56.85 100.4 58.2 101.4 59.65 102.35 61.1 101.9 62.5 100.95 65.0 98.5 66.15 96.0 67.35 92.65 67.45 89.35 67.6 85.8 67.1 82.3 66.6 79.25 65.85 81.95 66.85 84.9 68.35 87.85 69.9 90.45 71.9 93.0 73.9 94.6 76.35 96.15 78.8 96.1 81.65 96.0 83.2 94.15 83.75 92.3 84.35 89.45 84.05 90.15 85.0 90.85 85.95 93.1 89.1 94.4 92.2 95.75 95.3 96.4 97.9 97.1 100.55 97.3 102.1 97.55 103.7 97.5 103.75 97.5 103.75 96.05 103.05 94.6 102.3 92.35 100.85 90.05 99.4 87.55 97.15 85.0 94.9 82.7 91.85 82.05 90.95 81.45 90.05 80.85 92.7 79.7 94.05 78.55 95.45 77.1 95.4 74.3 95.25 72.4 93.05 70.55 90.9 69.5 87.55 68.4 84.2 67.9 80.55 L67.9 107.95 Q67.9 108.0 67.95 108.55 68.0 109.15 68.3 109.7 68.6 110.25 69.35 110.3 70.45 110.3 71.3 110.3 72.2 110.3 73.4 110.3 75.75 110.35 76.45 111.35 77.2 112.35 76.4 113.35 75.6 114.35 73.4 114.4 72.45 114.45 72.4 115.45 72.3 116.45 72.35 118.1 72.4 119.75 71.75 121.75 71.15 123.75 69.1 125.8 68.75 126.1 68.5 126.35 68.2 126.6 68.1 127.2 67.95 127.85 67.95 129.2 67.95 129.3 67.95 132.1 67.95 134.95 68.05 139.75 68.15 144.55 68.3 150.55 68.5 156.55 68.8 162.9 70.75 162.65 72.1 162.1 73.45 161.55 74.2 161.05 74.95 160.6 74.95 160.55 L75.25 160.9 Q76.15 154.35 78.55 148.05 80.9 141.8 84.1 136.15 87.3 130.5 90.7 125.8 94.05 121.1 96.95 117.65 99.9 114.25 101.7 112.45 104.2 110.1 107.1 106.2 110.0 102.3 112.5 96.85 115.0 91.4 116.25 84.3 117.5 77.2 116.7 68.4 116.6 66.8 117.9 65.55 119.15 64.3 120.85 64.4 122.55 64.45 123.8 66.85 123.85 66.8 124.75 67.15 125.7 67.5 126.6 68.95 127.55 70.45 127.7 73.75 127.8 77.05 126.3 82.85 126.4 82.8 127.5 82.15 128.6 81.55 130.1 81.1 131.6 80.65 132.8 81.05 134.0 81.45 134.25 83.4 134.45 85.35 133.05 89.55 131.65 93.55 127.7 98.55 123.75 103.55 118.25 108.6" fill="#000000" fill-rule="evenodd" stroke="none"/>
    </g>
  </defs>
</svg>
