<?xml version="1.0" encoding="UTF-8" standalone="no"?>
<svg xmlns:ffdec="https://www.free-decompiler.com/flash" xmlns:xlink="http://www.w3.org/1999/xlink" ffdec:objectType="frame" height="200.0px" width="198.0px" xmlns="http://www.w3.org/2000/svg">
  <g transform="matrix(1.0, 0.0, 0.0, 1.0, 0.0, 0.0)">
    <rect fill="#ffffff" height="200.0px" width="198.0px"/>
    <use ffdec:characterId="1" height="200.0" transform="matrix(1.0, 0.0, 0.0, 1.0, 0.0, 0.0)" width="197.2" xlink:href="#shape0"/>
    <use ffdec:characterId="2" height="26.45" transform="matrix(1.0, 0.0, 0.0, 1.0, 90.4, 123.15)" width="16.4" xlink:href="#shape1"/>
    <use ffdec:characterId="3" height="16.4" transform="matrix(1.0, 0.0, 0.0, 1.0, 48.9, 91.8)" width="26.45" xlink:href="#shape2"/>
    <use ffdec:characterId="4" height="26.45" transform="matrix(1.0, 0.0, 0.0, 1.0, 90.4, 50.4)" width="16.4" xlink:href="#shape3"/>
    <use ffdec:characterId="5" height="16.4" transform="matrix(1.0, 0.0, 0.0, 1.0, 121.85, 91.8)" width="26.45" xlink:href="#shape4"/>
    <use ffdec:characterId="6" height="144.3" transform="matrix(1.0, 0.0, 0.0, 1.0, 26.3, 27.8)" width="144.5" xlink:href="#shape5"/>
    <use ffdec:characterId="7" height="46.05" transform="matrix(1.0, 0.0, 0.0, 1.0, 75.95, 76.95)" width="45.25" xlink:href="#shape6"/>
  </g>
  <defs>
    <g id="shape0" transform="matrix(1.0, 0.0, 0.0, 1.0, 0.0, 0.0)">
      <path d="M175.9 118.5 Q176.9 112.8 178.75 109.15 180.55 105.55 182.6 103.55 184.6 101.6 186.1 100.8 187.65 100.05 187.95 100.0 187.65 99.95 186.1 99.2 184.6 98.4 182.6 96.45 180.55 94.45 178.75 90.85 176.9 87.2 175.9 81.5 174.95 75.45 173.0 69.7 171.1 63.95 167.95 59.3 164.8 54.65 160.25 51.95 155.7 49.2 149.45 49.2 149.45 42.95 146.7 38.4 144.0 33.85 139.35 30.75 134.7 27.6 128.95 25.7 123.15 23.75 117.1 22.8 111.35 21.8 107.7 19.95 104.1 18.1 102.1 16.05 100.15 14.05 99.4 12.55 98.65 11.05 98.6 10.75 98.6 11.05 97.8 12.55 97.05 14.05 95.1 16.05 93.15 18.1 89.5 19.95 85.85 21.8 80.1 22.8 74.05 23.75 68.3 25.7 62.55 27.6 57.9 30.75 53.25 33.85 50.5 38.4 47.75 43.0 47.75 49.2 41.55 49.2 36.95 51.95 32.4 54.65 29.25 59.3 26.1 63.95 24.2 69.7 22.25 75.45 21.3 81.5 20.35 87.2 18.5 90.85 16.65 94.45 14.6 96.45 12.6 98.4 11.1 99.2 9.55 99.95 9.25 100.0 9.6 100.05 11.1 100.8 12.6 101.6 14.6 103.55 16.65 105.55 18.5 109.15 20.3 112.8 21.3 118.5 22.25 124.55 24.2 130.3 26.1 136.05 29.25 140.7 32.4 145.35 36.95 148.05 41.55 150.8 47.75 150.8 47.75 157.05 50.5 161.6 53.25 166.15 57.9 169.25 62.5 172.4 68.3 174.3 74.05 176.25 80.1 177.2 85.85 178.2 89.5 180.05 93.15 181.9 95.1 183.95 97.05 185.95 97.8 187.45 98.6 188.95 98.6 189.25 98.65 188.95 99.4 187.45 100.15 185.95 102.1 183.95 104.1 181.9 107.7 180.05 111.35 178.2 117.1 177.2 123.15 176.25 128.95 174.3 134.7 172.4 139.35 169.25 144.0 166.15 146.7 161.6 149.45 157.0 149.45 150.8 155.7 150.8 160.25 148.05 164.8 145.35 167.95 140.7 171.1 136.05 173.0 130.3 174.95 124.55 175.9 118.5 M197.15 100.0 Q197.2 100.0 197.2 100.0 L197.05 100.0 Q196.5 100.1 194.75 100.9 193.0 101.75 190.7 103.7 188.45 105.65 186.3 109.15 184.15 112.7 182.85 118.25 181.8 123.1 180.35 128.3 178.9 133.5 176.8 138.45 174.75 143.4 171.8 147.45 168.85 151.45 164.85 154.0 160.85 156.5 155.55 156.85 155.15 162.2 152.65 166.2 150.1 170.2 146.05 173.1 142.0 176.05 137.1 178.1 132.15 180.2 126.9 181.65 121.7 183.1 116.85 184.15 111.3 185.5 107.75 187.85 104.2 190.15 102.25 192.75 100.3 195.3 99.5 197.3 98.7 199.25 98.6 199.85 L98.6 200.0 Q98.6 200.0 98.6 199.9 98.6 200.0 98.6 200.0 L98.6 199.85 Q98.5 199.25 97.7 197.3 96.9 195.3 94.95 192.75 93.0 190.2 89.45 187.85 85.9 185.5 80.35 184.15 75.5 183.1 70.3 181.65 65.1 180.2 60.15 178.1 55.2 176.05 51.15 173.1 47.1 170.2 44.6 166.2 42.05 162.2 41.7 156.85 36.35 156.5 32.35 154.0 28.35 151.5 25.4 147.45 22.5 143.4 20.4 138.45 18.35 133.5 16.85 128.3 15.4 123.1 14.35 118.25 13.05 112.7 10.9 109.15 8.75 105.65 6.5 103.7 4.2 101.75 2.45 100.9 0.7 100.1 0.15 100.0 L0.0 100.0 Q0.0 100.0 0.1 100.0 0.0 100.0 0.0 100.0 L0.15 100.0 Q0.7 99.9 2.45 99.1 4.2 98.25 6.5 96.3 8.75 94.35 10.9 90.85 13.05 87.3 14.35 81.75 15.4 76.9 16.85 71.7 18.35 66.5 20.4 61.55 22.5 56.6 25.4 52.55 28.35 48.55 32.35 46.0 36.4 43.5 41.7 43.15 42.05 37.8 44.55 33.8 47.1 29.8 51.15 26.9 55.2 23.95 60.15 21.9 65.1 19.8 70.3 18.35 75.5 16.9 80.35 15.85 85.95 14.5 89.45 12.15 93.0 9.85 94.95 7.25 96.9 4.7 97.7 2.7 98.5 0.75 98.6 0.15 L98.6 0.0 Q98.6 0.0 98.6 0.1 98.6 0.0 98.6 0.0 L98.6 0.15 Q98.7 0.75 99.5 2.7 100.3 4.7 102.25 7.25 104.2 9.85 107.75 12.15 111.3 14.5 116.85 15.85 121.7 16.9 126.9 18.35 132.15 19.8 137.1 21.9 142.05 23.95 146.1 26.9 150.15 29.8 152.65 33.8 155.2 37.8 155.55 43.15 160.85 43.5 164.85 46.0 168.85 48.5 171.8 52.55 174.7 56.6 176.8 61.55 178.9 66.5 180.35 71.7 181.8 76.9 182.85 81.75 184.2 87.3 186.3 90.85 188.45 94.35 190.75 96.3 193.0 98.25 194.75 99.1 196.5 99.9 197.05 100.0 L197.2 100.0 Q197.2 100.0 197.15 100.0" fill="#000000" fill-rule="evenodd" stroke="none"/>
    </g>
    <g id="shape1" transform="matrix(1.0, 0.0, 0.0, 1.0, 0.0, 0.0)">
      <path d="M12.25 7.75 Q12.1 9.2 11.45 10.1 10.8 10.95 10.2 11.35 9.6 11.75 9.55 11.75 L11.2 13.65 10.85 15.45 Q10.9 15.45 11.85 15.5 12.75 15.55 13.7 16.2 14.65 16.8 14.7 18.45 14.6 20.45 13.65 21.2 12.65 21.95 11.65 22.05 10.65 22.1 10.55 22.05 10.9 24.2 10.35 25.15 9.75 26.05 9.05 26.3 8.35 26.5 8.2 26.45 8.05 26.5 7.35 26.25 6.6 26.05 6.05 25.15 5.5 24.2 5.8 22.05 5.75 22.1 4.75 22.05 3.75 21.95 2.75 21.2 1.75 20.45 1.7 18.45 1.75 16.8 2.7 16.2 3.6 15.55 4.55 15.5 5.5 15.4 5.55 15.45 L5.15 13.65 6.85 11.75 Q6.8 11.75 6.2 11.35 5.6 10.95 4.95 10.1 4.3 9.2 4.15 7.75 4.15 7.7 3.9 6.9 3.6 6.1 2.75 5.2 1.85 4.3 0.0 3.85 0.0 3.8 0.65 3.4 1.25 2.95 2.45 2.8 3.6 2.65 5.3 3.35 L8.15 0.05 8.15 0.0 8.2 0.0 8.2 0.05 11.1 3.35 Q12.75 2.65 13.95 2.8 15.15 2.95 15.75 3.4 16.4 3.8 16.4 3.85 14.55 4.3 13.65 5.2 12.75 6.15 12.5 6.9 12.2 7.7 12.25 7.75" fill="#000000" fill-rule="evenodd" stroke="none"/>
    </g>
    <g id="shape2" transform="matrix(1.0, 0.0, 0.0, 1.0, 0.0, 0.0)">
      <path d="M26.4 8.15 L26.45 8.15 26.4 8.2 26.45 8.2 26.4 8.2 23.1 11.1 Q23.8 12.8 23.65 13.95 23.45 15.15 23.05 15.75 22.6 16.4 22.55 16.4 22.15 14.55 21.2 13.65 20.3 12.75 19.55 12.5 18.75 12.25 18.7 12.25 17.2 12.1 16.35 11.45 15.45 10.8 15.1 10.2 14.7 9.6 14.7 9.55 L12.75 11.25 10.95 10.85 Q11.0 10.9 10.95 11.85 10.9 12.8 10.25 13.7 9.65 14.65 8.0 14.7 6.0 14.65 5.25 13.65 4.45 12.65 4.4 11.65 4.35 10.65 4.4 10.6 2.25 10.9 1.3 10.35 0.4 9.8 0.15 9.05 -0.05 8.35 0.0 8.2 -0.05 8.05 0.15 7.3 0.4 6.6 1.3 6.05 2.25 5.5 4.4 5.8 4.35 5.75 4.4 4.75 4.45 3.75 5.25 2.75 6.0 1.75 8.0 1.7 9.65 1.75 10.25 2.7 10.85 3.6 10.95 4.55 11.0 5.5 10.95 5.55 L12.75 5.15 14.7 6.85 Q14.7 6.8 15.1 6.2 15.45 5.6 16.35 4.95 17.2 4.3 18.7 4.15 18.75 4.15 19.55 3.9 20.3 3.6 21.2 2.75 22.1 1.85 22.55 0.0 22.6 0.0 23.05 0.65 23.45 1.25 23.65 2.45 23.8 3.6 23.1 5.3 L26.4 8.15" fill="#000000" fill-rule="evenodd" stroke="none"/>
    </g>
    <g id="shape3" transform="matrix(1.0, 0.0, 0.0, 1.0, 0.0, 0.0)">
      <path d="M4.15 18.7 Q4.3 17.2 4.95 16.35 5.6 15.45 6.2 15.1 6.8 14.7 6.85 14.7 L5.15 12.75 5.55 10.95 Q5.45 11.0 4.55 10.95 3.6 10.9 2.7 10.25 1.75 9.65 1.7 8.0 1.75 6.0 2.75 5.25 3.75 4.45 4.75 4.4 5.7 4.35 5.8 4.4 5.5 2.25 6.05 1.3 6.6 0.35 7.35 0.15 8.05 -0.05 8.2 0.0 8.35 -0.05 9.05 0.15 9.75 0.35 10.3 1.3 10.9 2.25 10.55 4.4 10.65 4.35 11.65 4.4 12.65 4.45 13.65 5.25 14.6 6.0 14.7 8.0 14.65 9.65 13.7 10.25 12.75 10.85 11.85 10.95 10.9 11.0 10.85 10.95 L11.2 12.75 9.55 14.7 Q9.6 14.7 10.2 15.1 10.8 15.45 11.45 16.35 12.1 17.25 12.25 18.7 12.2 18.75 12.5 19.55 12.75 20.3 13.65 21.2 14.55 22.1 16.4 22.55 16.35 22.6 15.75 23.05 15.15 23.45 13.95 23.65 12.8 23.8 11.1 23.1 L8.2 26.4 8.2 26.45 8.2 26.4 8.15 26.45 8.15 26.4 5.3 23.1 Q3.6 23.8 2.45 23.65 1.25 23.45 0.65 23.05 0.0 22.6 0.0 22.55 1.85 22.15 2.75 21.2 3.6 20.3 3.9 19.55 4.15 18.75 4.15 18.7" fill="#000000" fill-rule="evenodd" stroke="none"/>
    </g>
    <g id="shape4" transform="matrix(1.0, 0.0, 0.0, 1.0, 0.0, 0.0)">
      <path d="M22.05 5.8 Q24.2 5.5 25.1 6.05 26.05 6.6 26.25 7.3 26.5 8.05 26.45 8.2 26.45 8.35 26.25 9.05 26.05 9.8 25.1 10.35 24.2 10.9 22.05 10.6 22.1 10.65 22.05 11.65 21.95 12.65 21.2 13.65 20.45 14.65 18.45 14.7 16.8 14.65 16.2 13.7 15.55 12.8 15.5 11.85 15.4 10.9 15.45 10.85 L13.65 11.25 11.75 9.55 Q11.75 9.6 11.35 10.2 10.95 10.8 10.1 11.45 9.2 12.1 7.75 12.25 7.7 12.25 6.9 12.5 6.1 12.75 5.2 13.65 4.3 14.55 3.85 16.4 3.8 16.4 3.4 15.75 2.95 15.15 2.8 13.95 2.65 12.8 3.35 11.1 L0.05 8.2 0.0 8.2 0.0 8.15 0.05 8.15 3.35 5.3 Q2.65 3.6 2.8 2.45 2.95 1.25 3.4 0.65 3.8 0.0 3.85 0.0 4.3 1.85 5.2 2.75 6.15 3.6 6.9 3.9 7.7 4.15 7.75 4.15 9.2 4.3 10.1 4.95 10.95 5.6 11.35 6.2 11.75 6.8 11.75 6.85 L13.65 5.15 15.45 5.55 Q15.45 5.45 15.5 4.55 15.55 3.6 16.2 2.7 16.8 1.75 18.45 1.7 20.45 1.75 21.2 2.75 21.95 3.75 22.05 4.75 22.1 5.7 22.05 5.8" fill="#000000" fill-rule="evenodd" stroke="none"/>
    </g>
    <g id="shape5" transform="matrix(1.0, 0.0, 0.0, 1.0, 0.0, 0.0)">
      <path d="M130.45 85.65 Q131.35 80.35 132.5 77.4 133.65 74.5 134.55 73.35 135.4 72.2 135.6 72.15 135.4 72.1 134.55 70.95 133.65 69.8 132.5 66.9 131.35 63.95 130.45 58.65 130.05 56.05 129.15 52.9 128.3 49.75 126.75 46.7 125.25 43.65 122.95 41.45 120.7 39.25 117.5 38.5 114.3 37.8 110.1 39.25 107.7 40.2 106.5 41.35 105.25 42.5 104.85 43.4 104.45 44.25 104.5 44.3 104.55 44.3 105.55 44.45 106.55 44.6 107.95 45.15 109.4 45.75 110.7 46.9 112.0 48.1 112.6 50.1 112.55 50.1 111.45 49.9 110.35 49.75 108.55 49.65 106.8 49.55 104.85 49.7 102.85 49.9 102.1 50.55 101.3 51.15 101.2 52.0 101.15 52.85 101.4 53.75 101.55 54.5 102.35 55.4 103.15 56.3 104.55 56.85 105.95 57.35 107.9 56.85 109.8 56.35 112.2 54.15 114.15 52.3 114.75 50.9 115.35 49.5 115.6 48.45 115.8 47.4 116.55 46.65 117.3 45.9 119.5 45.4 L119.75 48.35 Q119.8 48.35 120.6 48.0 121.4 47.65 122.65 47.25 123.85 46.9 125.2 46.8 125.2 46.85 125.15 47.85 125.15 48.8 124.6 49.95 124.05 51.1 122.65 51.65 122.7 51.65 123.5 51.75 124.3 51.9 125.25 52.25 126.15 52.55 126.6 53.15 126.6 53.2 126.0 54.3 125.35 55.35 123.9 56.35 122.4 57.35 119.95 57.25 120.05 57.2 121.6 57.45 123.15 57.7 125.25 58.65 127.4 59.55 129.15 61.55 130.9 63.6 131.35 67.1 131.35 67.15 130.65 67.2 130.0 67.3 129.15 66.9 128.3 66.5 127.7 65.2 127.7 65.25 127.7 66.15 127.7 67.05 127.4 68.3 127.05 69.55 126.15 70.65 125.25 71.75 123.5 72.15 125.25 72.6 126.15 73.65 127.05 74.75 127.4 76.0 127.7 77.25 127.7 78.15 127.7 79.05 127.7 79.1 128.3 77.8 129.15 77.4 130.0 77.05 130.65 77.1 131.3 77.15 131.35 77.2 130.9 80.7 129.15 82.75 127.4 84.75 125.25 85.65 123.15 86.6 121.6 86.85 120.05 87.1 119.95 87.05 122.4 86.95 123.9 87.95 125.35 88.95 126.0 90.05 126.6 91.1 126.6 91.2 126.15 91.75 125.25 92.1 124.3 92.4 123.5 92.55 122.7 92.65 122.65 92.65 124.1 93.2 124.6 94.35 125.15 95.5 125.2 96.45 125.2 97.45 125.2 97.5 123.85 97.4 122.65 97.05 121.4 96.65 120.6 96.3 119.8 95.95 119.75 95.95 L119.5 98.9 Q117.3 98.4 116.55 97.65 115.8 96.9 115.6 95.85 115.35 94.8 114.75 93.4 114.15 92.0 112.2 90.15 109.8 87.95 107.9 87.45 105.95 86.95 104.55 87.45 103.15 88.0 102.35 88.9 101.55 89.85 101.4 90.55 101.15 91.4 101.2 92.25 101.25 93.15 102.05 93.75 102.85 94.4 104.85 94.6 106.8 94.75 108.6 94.65 110.35 94.55 111.45 94.4 112.55 94.2 112.6 94.2 112.0 96.2 110.7 97.4 109.4 98.6 107.95 99.15 106.55 99.7 105.55 99.85 104.55 100.0 104.5 100.0 104.45 100.05 104.85 100.95 105.25 101.8 106.5 102.95 107.7 104.15 110.1 105.05 114.3 106.5 117.5 105.8 120.7 105.05 122.95 102.85 125.25 100.65 126.75 97.6 128.3 94.6 129.15 91.4 130.05 88.25 130.45 85.65 M85.75 130.25 Q88.35 129.85 91.5 128.95 94.65 128.05 97.7 126.55 100.75 125.05 102.95 122.75 105.2 120.45 105.9 117.3 106.6 114.1 105.15 109.9 104.25 107.5 103.05 106.25 101.9 105.05 101.05 104.65 100.15 104.25 100.1 104.25 100.15 104.3 99.95 105.3 99.8 106.35 99.25 107.75 98.7 109.15 97.5 110.45 96.3 111.75 94.3 112.4 94.35 112.35 94.5 111.25 94.65 110.1 94.75 108.35 94.85 106.6 94.7 104.65 94.5 102.65 93.85 101.85 93.25 101.05 92.4 101.0 91.55 100.95 90.65 101.15 89.95 101.3 89.0 102.15 88.1 102.95 87.55 104.35 87.05 105.75 87.55 107.65 88.1 109.6 90.25 112.0 92.1 113.95 93.5 114.55 94.9 115.15 95.95 115.4 97.0 115.6 97.75 116.35 98.5 117.1 99.0 119.3 L96.05 119.55 Q96.1 119.6 96.4 120.4 96.75 121.2 97.15 122.4 97.5 123.65 97.6 124.95 97.55 125.0 96.55 124.95 95.6 124.9 94.45 124.4 93.3 123.85 92.75 122.45 92.75 122.5 92.65 123.3 92.5 124.1 92.2 125.0 91.85 125.95 91.3 126.4 91.2 126.4 90.1 125.75 89.05 125.15 88.05 123.65 87.05 122.2 87.15 119.75 87.2 119.8 86.95 121.4 86.7 122.95 85.8 125.05 84.85 127.2 82.85 128.95 80.8 130.7 77.3 131.15 77.25 131.1 77.2 130.45 77.15 129.8 77.5 128.95 77.9 128.1 79.2 127.5 79.2 127.5 78.3 127.5 77.35 127.5 76.1 127.15 74.85 126.85 73.75 125.95 72.65 125.05 72.25 123.3 71.85 125.05 70.75 125.95 69.65 126.85 68.4 127.15 67.15 127.5 66.25 127.5 65.35 127.5 65.3 127.5 66.6 128.1 67.0 128.95 67.4 129.8 67.35 130.45 67.3 131.1 67.25 131.15 63.7 130.7 61.7 128.95 59.65 127.2 58.75 125.05 57.8 122.95 57.55 121.4 57.3 119.8 57.35 119.75 57.45 122.2 56.45 123.65 55.45 125.15 54.4 125.75 53.35 126.4 53.25 126.4 52.65 125.95 52.35 125.0 52.0 124.1 51.9 123.3 51.75 122.5 51.75 122.45 51.2 123.85 50.05 124.4 48.95 124.9 47.95 124.95 46.95 125.0 46.9 124.95 47.0 123.65 47.4 122.4 47.75 121.2 48.1 120.4 48.45 119.6 48.45 119.55 L45.5 119.3 Q46.05 117.1 46.75 116.35 47.5 115.6 48.55 115.35 49.6 115.15 51.0 114.55 52.4 113.95 54.25 112.0 56.45 109.6 56.95 107.65 57.45 105.75 56.95 104.35 56.45 102.95 55.5 102.1 54.6 101.3 53.9 101.15 53.0 100.95 52.15 101.0 51.3 101.05 50.65 101.85 50.0 102.65 49.8 104.65 49.65 106.6 49.75 108.35 49.85 110.1 50.05 111.25 50.2 112.35 50.2 112.4 48.2 111.75 47.0 110.45 45.85 109.15 45.3 107.75 44.7 106.3 44.55 105.3 44.4 104.3 44.4 104.25 44.35 104.25 43.5 104.65 42.6 105.05 41.45 106.3 40.3 107.5 39.4 109.9 37.9 114.1 38.65 117.3 39.35 120.45 41.55 122.75 43.8 125.05 46.8 126.55 49.85 128.05 53.0 128.95 56.2 129.85 58.8 130.25 64.15 131.15 67.05 132.3 69.95 133.45 71.1 134.35 72.25 135.25 72.25 135.4 72.3 135.25 73.45 134.35 74.55 133.45 77.5 132.3 80.4 131.15 85.75 130.25 M34.45 105.05 Q36.8 104.15 38.05 102.95 39.25 101.8 39.65 100.95 40.1 100.05 40.05 100.0 40.0 100.05 39.0 99.85 38.0 99.7 36.55 99.15 35.15 98.6 33.85 97.4 32.55 96.2 31.9 94.2 31.95 94.25 33.05 94.4 34.2 94.55 35.95 94.65 37.7 94.75 39.65 94.6 41.65 94.4 42.45 93.75 43.25 93.15 43.3 92.3 43.35 91.45 43.15 90.55 43.0 89.85 42.2 88.9 41.35 88.0 39.95 87.45 38.55 86.95 36.65 87.45 34.7 88.0 32.3 90.15 30.4 92.0 29.75 93.4 29.15 94.8 28.95 95.85 28.7 96.9 27.95 97.65 27.2 98.4 25.0 98.9 L24.75 95.95 Q24.75 95.95 23.95 96.3 23.15 96.65 21.9 97.05 20.65 97.4 19.35 97.5 19.3 97.45 19.35 96.45 19.4 95.5 19.9 94.35 20.45 93.2 21.85 92.65 21.8 92.65 21.0 92.55 20.2 92.4 19.3 92.1 18.35 91.75 17.9 91.2 17.9 91.1 18.55 90.0 19.15 88.95 20.65 87.95 22.1 86.95 24.55 87.05 24.5 87.1 22.95 86.85 21.35 86.6 19.25 85.7 17.1 84.75 15.35 82.75 13.6 80.7 13.15 77.2 13.2 77.15 13.85 77.1 14.5 77.0 15.35 77.4 16.2 77.8 16.85 79.1 16.8 79.1 16.8 78.2 16.8 77.25 17.15 76.0 17.45 74.75 18.35 73.65 19.25 72.55 21.0 72.15 19.25 71.75 18.35 70.65 17.45 69.55 17.15 68.3 16.85 67.05 16.8 66.15 16.8 65.25 16.85 65.2 16.2 66.5 15.35 66.9 14.5 67.3 13.85 67.2 13.2 67.15 13.15 67.1 13.6 63.6 15.35 61.6 17.1 59.55 19.25 58.65 21.35 57.7 22.9 57.45 24.5 57.2 24.55 57.25 22.1 57.35 20.65 56.35 19.15 55.35 18.55 54.3 17.9 53.25 17.9 53.15 18.35 52.55 19.3 52.25 20.2 51.9 21.0 51.75 21.8 51.65 21.85 51.65 20.45 51.1 19.9 49.95 19.4 48.8 19.35 47.85 19.3 46.85 19.35 46.8 20.65 46.9 21.9 47.25 23.1 47.65 23.9 48.0 24.75 48.35 24.75 48.35 L25.0 45.4 Q27.2 45.9 27.95 46.65 28.7 47.4 28.95 48.45 29.15 49.5 29.75 50.9 30.4 52.3 32.3 54.15 34.7 56.35 36.65 56.85 38.55 57.35 39.95 56.85 41.35 56.3 42.2 55.4 43.0 54.45 43.15 53.75 43.35 52.9 43.3 52.05 43.25 51.2 42.45 50.55 41.65 49.9 39.65 49.7 37.7 49.55 35.95 49.65 34.2 49.75 33.05 49.9 31.95 50.1 31.9 50.1 32.55 48.1 33.85 46.9 35.15 45.75 36.55 45.15 38.0 44.6 39.0 44.45 40.0 44.3 40.05 44.3 40.05 44.25 39.65 43.4 39.25 42.5 38.05 41.35 36.85 40.15 34.45 39.25 30.2 37.8 27.05 38.5 23.85 39.25 21.55 41.45 19.3 43.65 17.75 46.7 16.25 49.75 15.35 52.9 14.45 56.05 14.05 58.65 13.15 64.0 12.0 66.9 10.9 69.8 10.0 70.95 9.1 72.1 8.9 72.15 9.1 72.2 10.0 73.35 10.9 74.5 12.0 77.45 13.15 80.35 14.05 85.65 14.45 88.25 15.35 91.4 16.25 94.55 17.75 97.6 19.3 100.65 21.55 102.85 23.85 105.05 27.05 105.8 30.2 106.5 34.45 105.05 M123.45 72.15 Q123.45 72.15 123.45 72.15 123.45 72.15 123.45 72.15 123.5 72.0 123.75 71.1 123.95 70.2 124.05 68.9 124.15 67.6 123.8 66.25 123.4 64.55 121.95 63.05 120.55 61.55 118.3 60.95 116.1 60.4 113.2 61.5 104.05 65.1 99.15 60.6 96.85 58.5 96.05 55.8 95.3 53.1 95.3 49.2 91.35 49.15 88.65 48.4 85.9 47.7 83.8 45.4 79.3 40.5 82.9 31.35 84.0 28.45 83.45 26.2 82.85 24.0 81.35 22.55 79.85 21.15 78.15 20.7 76.8 20.35 75.5 20.45 74.15 20.55 73.25 20.8 72.35 21.0 72.25 21.05 72.25 21.05 72.3 21.1 L72.25 21.1 Q72.25 21.1 72.25 21.1 72.25 21.1 72.25 21.05 72.15 21.0 71.25 20.8 70.35 20.55 69.05 20.45 67.7 20.35 66.35 20.7 64.65 21.15 63.15 22.55 61.65 24.0 61.1 26.2 60.5 28.45 61.6 31.35 65.25 40.5 60.7 45.4 58.6 47.65 55.9 48.45 53.15 49.2 49.25 49.2 49.2 53.1 48.45 55.8 47.7 58.5 45.4 60.6 40.5 65.1 31.35 61.5 28.45 60.4 26.2 60.95 24.0 61.55 22.55 63.05 21.15 64.55 20.7 66.25 20.35 67.6 20.45 68.9 20.55 70.2 20.8 71.1 21.0 72.0 21.05 72.15 21.05 72.15 21.1 72.15 21.05 72.15 21.1 72.15 21.1 72.15 21.1 72.15 21.1 72.2 21.05 72.15 21.0 72.3 20.8 73.2 20.55 74.1 20.45 75.4 20.35 76.7 20.7 78.05 21.15 79.75 22.55 81.25 24.0 82.75 26.2 83.35 28.45 83.9 31.35 82.8 40.5 79.2 45.4 83.7 47.7 85.8 48.45 88.5 49.25 91.2 49.25 95.15 53.15 95.15 55.9 95.9 58.6 96.65 60.7 98.9 65.25 103.8 61.6 112.95 60.5 115.85 61.1 118.1 61.65 120.35 63.15 121.75 64.65 123.15 66.35 123.6 67.75 123.95 69.05 123.85 70.35 123.75 71.25 123.5 72.15 123.3 72.25 123.25 72.25 123.25 72.25 123.2 72.25 123.2 72.25 123.25 72.25 123.25 72.3 123.2 72.3 123.25 72.25 123.25 72.4 123.3 73.3 123.5 74.15 123.75 75.5 123.85 76.8 123.95 78.15 123.6 79.85 123.15 81.35 121.75 82.85 120.35 83.45 118.1 84.0 115.85 82.9 112.95 79.3 103.8 83.8 98.9 85.9 96.65 88.65 95.9 91.35 95.15 95.3 95.15 95.3 91.2 96.05 88.5 96.85 85.8 99.15 83.7 104.05 79.2 113.2 82.8 116.1 83.9 118.3 83.35 120.55 82.75 121.95 81.25 123.35 79.75 123.8 78.05 124.15 76.7 124.05 75.4 123.95 74.1 123.75 73.2 123.5 72.3 123.45 72.15 123.45 72.2 123.45 72.15 123.45 72.15 123.45 72.15 M58.8 14.05 Q56.15 14.45 53.0 15.35 49.85 16.25 46.8 17.75 43.8 19.3 41.55 21.55 39.35 23.85 38.65 27.05 37.95 30.2 39.4 34.45 40.3 36.8 41.45 38.05 42.6 39.25 43.5 39.65 44.35 40.1 44.4 40.05 44.4 40.0 44.55 39.0 44.7 38.0 45.3 36.55 45.85 35.15 47.0 33.85 48.2 32.55 50.2 31.9 50.2 31.95 50.05 33.05 49.85 34.2 49.75 35.95 49.65 37.7 49.8 39.65 50.05 41.65 50.65 42.45 51.3 43.25 52.15 43.3 53.0 43.35 53.9 43.15 54.6 43.0 55.5 42.2 56.45 41.35 56.95 39.95 57.45 38.55 56.95 36.65 56.45 34.7 54.25 32.3 52.4 30.4 51.0 29.75 49.6 29.15 48.55 28.95 47.5 28.7 46.75 27.95 46.05 27.2 45.5 25.0 L48.45 24.75 Q48.45 24.75 48.1 23.95 47.75 23.15 47.35 21.9 47.0 20.65 46.9 19.35 47.0 19.3 47.95 19.35 48.95 19.4 50.05 19.9 51.2 20.45 51.75 21.85 51.75 21.8 51.9 21.0 52.0 20.2 52.35 19.3 52.65 18.35 53.25 17.9 53.35 17.9 54.4 18.55 55.45 19.15 56.45 20.65 57.45 22.1 57.35 24.55 57.35 24.5 57.6 22.95 57.8 21.35 58.75 19.25 59.7 17.1 61.7 15.35 63.7 13.6 67.25 13.15 67.25 13.2 67.35 13.85 67.4 14.5 67.0 15.35 66.6 16.2 65.3 16.85 65.35 16.8 66.25 16.8 67.15 16.8 68.4 17.15 69.65 17.45 70.75 18.35 71.85 19.25 72.25 21.0 72.7 19.25 73.75 18.35 74.85 17.45 76.1 17.15 77.35 16.85 78.25 16.8 79.15 16.8 79.2 16.85 77.9 16.2 77.5 15.35 77.15 14.5 77.2 13.85 77.25 13.2 77.3 13.15 80.8 13.6 82.85 15.35 84.85 17.1 85.8 19.25 86.7 21.35 86.95 22.9 87.2 24.5 87.15 24.55 87.05 22.1 88.05 20.65 89.05 19.15 90.15 18.55 91.2 17.9 91.3 17.9 91.85 18.35 92.2 19.3 92.5 20.2 92.65 21.0 92.75 21.8 92.75 21.85 93.3 20.45 94.45 19.9 95.6 19.4 96.55 19.35 97.55 19.3 97.6 19.35 97.5 20.65 97.15 21.9 96.75 23.1 96.4 23.9 96.1 24.75 96.05 24.75 L99.0 25.0 Q98.5 27.2 97.75 27.95 97.0 28.7 95.95 28.95 94.9 29.15 93.5 29.75 92.1 30.4 90.25 32.3 88.1 34.7 87.55 36.65 87.05 38.55 87.55 39.95 88.1 41.35 89.0 42.2 89.95 43.0 90.65 43.15 91.5 43.35 92.4 43.3 93.25 43.25 93.85 42.45 94.5 41.65 94.7 39.65 94.85 37.7 94.75 35.95 94.65 34.2 94.5 33.05 94.3 31.95 94.3 31.9 96.3 32.55 97.5 33.85 98.7 35.15 99.25 36.55 99.8 38.0 99.95 39.0 100.1 40.0 100.1 40.05 100.15 40.05 101.05 39.65 101.9 39.25 103.05 38.05 104.25 36.85 105.15 34.45 106.6 30.2 105.9 27.05 105.15 23.85 102.95 21.55 100.75 19.3 97.7 17.75 94.7 16.25 91.5 15.35 88.35 14.45 85.75 14.05 80.4 13.15 77.5 12.0 74.55 10.85 73.4 9.95 72.3 9.05 72.25 8.9 72.25 9.05 71.1 9.95 69.95 10.85 67.05 12.0 64.15 13.15 58.8 14.05 M144.45 72.15 L144.5 72.15 Q144.5 72.15 144.5 72.15 144.5 72.15 144.5 72.15 L144.45 72.15 Q144.1 72.3 142.85 73.65 141.6 75.0 140.1 78.0 138.6 81.0 137.55 86.1 136.8 90.25 135.65 94.6 134.5 98.95 132.2 102.9 129.85 106.85 125.65 109.85 121.4 112.85 114.5 114.35 113.0 121.25 110.0 125.45 106.95 129.7 103.0 132.0 99.05 134.3 94.7 135.45 90.4 136.6 86.2 137.35 81.05 138.4 78.05 139.9 75.05 141.4 73.75 142.7 72.4 143.95 72.3 144.25 L72.3 144.3 Q72.25 144.3 72.25 144.3 72.25 144.3 72.25 144.3 L72.25 144.25 Q72.1 143.95 70.8 142.7 69.45 141.4 66.5 139.9 63.5 138.4 58.35 137.35 54.15 136.6 49.8 135.45 45.45 134.3 41.5 132.0 37.55 129.7 34.55 125.45 31.55 121.25 30.05 114.35 23.15 112.85 18.9 109.85 14.65 106.85 12.35 102.9 10.0 98.95 8.85 94.6 7.7 90.3 6.95 86.1 5.9 80.95 4.4 78.0 2.9 75.0 1.65 73.65 0.4 72.3 0.05 72.15 L0.0 72.15 Q0.0 72.15 0.05 72.15 0.0 72.15 0.0 72.15 L0.05 72.15 Q0.4 72.0 1.65 70.65 2.9 69.3 4.4 66.3 5.9 63.3 6.95 58.2 7.7 54.05 8.85 49.7 10.0 45.35 12.35 41.4 14.65 37.5 18.9 34.5 23.15 31.5 30.05 30.0 31.55 23.1 34.55 18.85 37.55 14.6 41.5 12.3 45.45 10.0 49.8 8.85 54.15 7.7 58.35 6.95 63.5 5.9 66.5 4.4 69.45 2.9 70.8 1.6 72.1 0.35 72.25 0.05 L72.25 0.0 Q72.25 0.0 72.25 0.0 72.25 0.0 72.3 0.0 L72.3 0.05 Q72.4 0.35 73.75 1.6 75.05 2.9 78.05 4.4 81.05 5.9 86.2 6.95 90.35 7.7 94.7 8.85 99.05 10.0 103.0 12.3 107.0 14.6 110.0 18.85 113.0 23.1 114.5 30.0 121.4 31.5 125.6 34.45 129.85 37.45 132.2 41.4 134.5 45.35 135.65 49.7 136.8 54.05 137.55 58.2 138.6 63.35 140.1 66.3 141.6 69.3 142.85 70.65 144.1 72.0 144.45 72.15" fill="#000000" fill-rule="evenodd" stroke="none"/>
    </g>
    <g id="shape6" transform="matrix(1.0, 0.0, 0.0, 1.0, 0.0, 0.0)">
      <path d="M28.65 29.0 Q28.0 26.9 28.55 25.6 29.1 24.3 29.95 23.7 30.85 23.1 31.15 23.0 30.85 22.95 29.95 22.35 29.1 21.75 28.55 20.45 28.0 19.15 28.65 17.05 26.5 17.7 25.25 17.15 23.95 16.6 23.3 15.7 22.7 14.85 22.65 14.55 22.55 14.85 21.95 15.7 21.35 16.6 20.05 17.15 18.75 17.7 16.6 17.05 17.25 19.15 16.7 20.45 16.15 21.75 15.3 22.35 14.45 22.95 14.15 23.0 14.45 23.1 15.3 23.7 16.15 24.3 16.7 25.6 17.25 26.9 16.6 29.0 18.75 28.35 20.05 28.9 21.35 29.45 21.95 30.35 22.55 31.2 22.65 31.5 22.7 31.2 23.3 30.35 23.95 29.45 25.2 28.9 26.5 28.35 28.65 29.0 M28.7 39.65 Q28.95 39.5 29.2 39.35 28.6 39.0 28.65 38.95 L28.7 39.65 M16.55 39.65 L16.65 38.95 Q16.65 39.0 16.05 39.35 16.35 39.5 16.55 39.65 M16.55 6.4 Q16.35 6.55 16.05 6.7 16.65 7.05 16.65 7.1 L16.55 6.4 M28.7 6.4 L28.65 7.1 Q28.6 7.05 29.2 6.7 28.95 6.55 28.7 6.4 M41.8 19.35 Q41.6 19.35 41.45 19.3 L40.9 20.3 Q40.95 20.3 41.7 20.3 42.4 20.3 43.4 20.85 44.35 21.4 45.15 23.0 L45.2 23.0 Q45.2 23.0 45.15 23.0 45.15 23.05 45.2 23.05 L45.15 23.05 Q44.35 24.65 43.4 25.2 42.4 25.75 41.7 25.75 40.95 25.8 40.9 25.75 L41.45 26.75 Q41.6 26.7 41.8 26.7 43.45 26.75 44.35 27.85 45.25 28.95 45.25 30.2 45.25 31.45 44.35 32.5 43.45 33.6 41.8 33.65 40.7 33.65 39.95 33.15 40.2 35.5 39.4 39.7 35.5 40.5 33.2 40.35 34.05 41.4 34.05 42.55 34.05 43.8 33.15 44.9 32.25 46.0 30.55 46.05 28.9 46.0 28.0 44.9 27.1 43.8 27.1 42.55 27.1 42.35 27.1 42.15 L25.4 41.3 Q25.45 41.3 25.4 42.05 25.4 42.75 24.8 43.75 24.25 44.7 22.65 45.5 L22.65 45.55 Q22.65 45.55 22.65 45.5 22.65 45.5 22.6 45.55 L22.6 45.5 Q21.0 44.7 20.45 43.75 19.85 42.75 19.85 42.05 19.8 41.3 19.85 41.3 L18.15 42.15 Q18.15 42.35 18.2 42.55 18.15 43.8 17.3 44.9 16.4 46.0 14.7 46.05 13.0 46.0 12.1 44.9 11.2 43.8 11.2 42.55 11.25 41.4 12.05 40.35 9.75 40.5 5.9 39.7 5.05 35.5 5.3 33.15 4.55 33.65 3.5 33.65 1.8 33.6 0.9 32.5 0.0 31.45 0.0 30.2 0.0 28.95 0.9 27.85 1.85 26.75 3.5 26.7 3.65 26.7 3.85 26.75 L4.35 25.75 Q4.3 25.75 3.6 25.75 2.85 25.75 1.85 25.2 0.9 24.65 0.1 23.05 0.1 23.05 0.1 23.0 0.1 23.0 0.1 23.0 0.9 21.4 1.85 20.85 2.85 20.3 3.6 20.3 4.3 20.25 4.35 20.3 L3.85 19.3 Q3.65 19.35 3.5 19.35 1.8 19.25 0.9 18.2 0.0 17.1 0.0 15.85 0.0 14.6 0.9 13.55 1.8 12.45 3.5 12.4 4.55 12.4 5.3 12.9 5.05 10.55 5.9 6.35 9.75 5.55 12.05 5.7 11.25 4.65 11.2 3.5 11.25 2.25 12.15 1.15 13.0 0.05 14.7 0.0 16.4 0.05 17.3 1.15 18.2 2.25 18.2 3.5 18.15 3.7 18.15 3.9 L19.85 4.75 Q19.8 4.75 19.85 4.0 19.85 3.3 20.45 2.3 21.0 1.35 22.6 0.55 L22.6 0.5 Q22.6 0.5 22.65 0.5 22.65 0.5 22.65 0.5 L22.65 0.55 Q24.25 1.35 24.8 2.3 25.4 3.3 25.4 4.0 25.45 4.7 25.4 4.75 L27.1 3.9 Q27.1 3.7 27.1 3.5 27.1 2.25 28.0 1.15 28.9 0.05 30.55 0.0 32.25 0.05 33.15 1.15 34.05 2.25 34.05 3.5 34.05 4.65 33.2 5.7 35.5 5.55 39.4 6.35 40.25 10.55 39.95 12.9 40.7 12.4 41.8 12.4 43.45 12.45 44.35 13.55 45.25 14.6 45.25 15.85 45.25 17.1 44.35 18.2 43.45 19.25 41.8 19.35" fill="#000000" fill-rule="evenodd" stroke="none"/>
    </g>
  </defs>
</svg>
