<?xml version="1.0" encoding="UTF-8" standalone="no"?>
<svg xmlns:ffdec="https://www.free-decompiler.com/flash" xmlns:xlink="http://www.w3.org/1999/xlink" ffdec:objectType="frame" height="201.0px" width="197.0px" xmlns="http://www.w3.org/2000/svg">
  <g transform="matrix(1.0, 0.0, 0.0, 1.0, 0.0, 0.0)">
    <rect fill="#ffffff" height="201.0px" width="197.0px"/>
    <use ffdec:characterId="1" height="200.2" transform="matrix(1.0, 0.0, 0.0, 1.0, 0.0, 0.0)" width="196.55" xlink:href="#shape0"/>
  </g>
  <defs>
    <g id="shape0" transform="matrix(1.0, 0.0, 0.0, 1.0, 0.0, 0.0)">
      <path d="M191.7 122.65 Q191.9 119.85 193.05 118.15 194.2 116.5 195.25 115.8 196.35 115.05 196.45 115.1 194.0 113.35 192.05 113.25 190.05 113.15 188.65 113.95 187.25 114.7 186.5 115.55 185.75 116.35 185.75 116.45 183.95 112.2 180.9 109.4 177.8 106.65 173.85 105.45 169.9 104.2 165.5 104.55 161.9 104.9 159.6 106.3 157.35 107.7 156.1 109.6 154.9 111.5 154.45 113.25 154.0 115.0 154.0 116.0 153.95 117.05 154.2 119.05 154.4 121.05 155.3 123.2 156.2 125.35 158.15 126.9 160.15 128.4 163.6 128.45 167.05 128.35 168.9 126.8 170.75 125.25 171.5 123.2 172.2 121.15 172.3 119.55 172.4 118.0 172.4 117.9 172.45 117.9 173.1 118.35 173.8 118.75 174.65 119.8 175.55 120.85 176.05 122.65 176.6 124.5 176.3 127.25 175.85 130.65 173.95 132.85 172.1 135.05 169.45 136.25 166.8 137.45 164.05 137.9 161.3 138.35 159.15 138.3 154.3 138.25 150.4 136.45 146.55 134.65 143.65 131.85 140.75 129.05 138.85 126.0 136.9 122.9 135.95 120.3 135.0 117.7 135.0 116.3 138.8 116.65 140.9 115.6 142.95 114.6 143.85 113.05 144.7 111.5 144.85 110.3 145.0 109.05 144.95 109.0 149.0 109.15 151.15 107.9 153.35 106.65 154.2 104.9 155.1 103.15 155.25 101.8 155.35 100.4 155.3 100.2 155.35 100.0 155.25 98.6 155.1 97.2 154.2 95.45 153.35 93.7 151.15 92.5 149.0 91.25 144.95 91.35 145.0 91.3 144.85 90.05 144.7 88.85 143.85 87.3 142.95 85.8 140.9 84.75 138.8 83.75 135.0 84.1 135.0 82.7 135.95 80.1 136.9 77.5 138.85 74.4 140.75 71.3 143.65 68.5 146.55 65.7 150.4 63.9 154.25 62.1 159.15 62.05 161.35 62.05 164.05 62.5 166.8 62.95 169.45 64.15 172.1 65.35 173.95 67.5 175.85 69.7 176.3 73.15 176.6 75.9 176.05 77.7 175.5 79.5 174.65 80.55 173.8 81.6 173.1 82.05 172.4 82.45 172.4 82.45 172.45 82.35 172.35 80.8 172.2 79.25 171.5 77.2 170.75 75.1 168.9 73.55 167.05 72.0 163.6 71.9 160.15 71.95 158.15 73.5 156.2 75.0 155.3 77.15 154.4 79.3 154.2 81.3 153.95 83.3 154.0 84.35 154.0 85.35 154.45 87.1 154.9 88.9 156.1 90.75 157.35 92.65 159.6 94.1 161.9 95.5 165.5 95.85 169.9 96.2 173.85 94.95 177.8 93.7 180.9 90.95 183.95 88.2 185.75 83.95 185.75 84.0 186.5 84.85 187.25 85.65 188.65 86.45 190.05 87.2 192.05 87.15 194.0 87.05 196.45 85.3 196.35 85.3 195.3 84.6 194.2 83.85 193.05 82.2 191.9 80.55 191.7 77.7 191.65 74.8 190.65 71.05 189.65 67.25 186.9 63.55 184.2 59.8 179.0 57.05 179.05 57.1 180.3 56.95 181.55 56.85 183.2 56.1 184.9 55.3 186.3 53.4 186.35 53.35 185.85 52.25 185.4 51.1 183.95 49.55 182.5 48.0 179.65 46.6 176.8 45.25 172.1 44.7 167.35 44.15 160.35 45.0 L176.15 30.0 Q176.2 30.05 177.65 30.75 179.1 31.45 181.35 31.9 183.6 32.4 186.05 31.85 188.45 31.3 190.5 28.95 192.4 26.5 192.6 24.45 192.8 22.4 192.05 20.9 191.35 19.4 190.55 18.55 189.75 17.75 189.7 17.7 189.75 17.7 190.75 17.3 191.75 16.85 193.1 15.8 194.4 14.75 195.4 12.95 196.4 11.15 196.4 8.5 196.4 5.8 194.75 2.1 191.05 0.45 188.35 0.45 185.7 0.4 183.9 1.35 182.15 2.35 181.1 3.65 180.1 4.95 179.65 5.95 179.25 6.95 179.25 7.0 179.25 6.95 178.4 6.15 177.55 5.35 176.05 4.6 174.55 3.9 172.5 4.1 170.45 4.3 168.0 6.2 165.65 8.25 165.1 10.65 164.55 13.1 165.05 15.35 165.5 17.6 166.2 19.0 166.85 20.45 166.95 20.5 L151.95 36.35 Q152.85 29.35 152.25 24.6 151.7 19.9 150.35 17.05 148.95 14.2 147.4 12.75 145.85 11.3 144.75 10.85 143.6 10.35 143.55 10.4 141.65 11.8 140.85 13.5 140.1 15.15 140.0 16.4 139.85 17.6 139.9 17.7 137.15 12.5 133.4 9.75 129.7 7.05 125.9 6.05 122.15 5.05 119.25 5.0 116.4 4.75 114.75 3.65 113.1 2.5 112.35 1.4 111.65 0.35 111.65 0.25 109.9 2.7 109.8 4.65 109.75 6.6 110.5 8.0 111.3 9.4 112.1 10.15 112.95 10.9 113.0 10.95 108.75 12.75 106.0 15.8 103.25 18.85 102.0 22.8 100.8 26.75 101.1 31.2 101.45 34.8 102.85 37.1 104.3 39.35 106.2 40.6 108.1 41.8 109.85 42.25 111.6 42.7 112.6 42.7 113.65 42.75 115.65 42.5 117.65 42.3 119.8 41.4 121.95 40.5 123.45 38.5 125.0 36.55 125.05 33.1 124.95 29.65 123.4 27.8 121.85 25.95 119.75 25.2 117.7 24.45 116.15 24.35 114.6 24.25 114.5 24.3 114.5 24.25 114.9 23.55 115.35 22.9 116.4 22.0 117.45 21.15 119.25 20.65 121.05 20.1 123.85 20.4 127.25 20.85 129.45 22.75 131.65 24.6 132.8 27.25 134.0 29.9 134.45 32.65 134.95 35.35 134.9 37.55 134.85 42.4 133.05 46.3 131.25 50.15 128.45 53.05 125.65 55.95 122.55 57.85 119.5 59.75 116.9 60.7 114.3 61.7 112.9 61.65 113.25 57.85 112.2 55.8 111.2 53.7 109.65 52.85 108.1 52.0 106.9 51.85 105.65 51.7 105.6 51.75 105.75 47.8 104.75 45.65 103.8 43.5 102.4 42.6 101.0 41.7 99.8 41.55 98.65 41.4 98.35 41.45 98.05 41.4 96.9 41.55 95.7 41.7 94.3 42.6 92.9 43.5 91.95 45.65 90.95 47.8 91.1 51.75 91.05 51.7 89.8 51.85 88.6 52.0 87.05 52.85 85.5 53.7 84.5 55.8 83.45 57.85 83.8 61.65 82.4 61.65 79.8 60.7 77.2 59.75 74.1 57.85 71.05 55.95 68.25 53.05 65.45 50.15 63.65 46.3 61.85 42.4 61.8 37.55 61.75 35.35 62.25 32.65 62.7 29.9 63.85 27.25 65.05 24.6 67.25 22.75 69.45 20.85 72.85 20.4 75.6 20.1 77.45 20.65 79.25 21.15 80.3 22.0 81.35 22.9 81.75 23.55 82.2 24.25 82.2 24.3 82.1 24.25 80.55 24.35 79.0 24.45 76.9 25.2 74.85 25.95 73.3 27.8 71.75 29.65 71.65 33.1 71.7 36.55 73.25 38.55 74.75 40.5 76.9 41.4 79.05 42.3 81.05 42.5 83.05 42.7 84.1 42.7 85.1 42.7 86.85 42.25 88.6 41.8 90.5 40.6 92.4 39.35 93.8 37.1 95.25 34.8 95.55 31.2 95.9 26.75 94.65 22.8 93.45 18.85 90.7 15.8 87.95 12.7 83.65 10.95 83.75 10.95 84.55 10.2 85.4 9.45 86.15 8.0 86.95 6.6 86.85 4.65 86.8 2.7 85.0 0.25 85.05 0.35 84.3 1.4 83.6 2.5 81.95 3.65 80.25 4.75 77.45 5.0 74.55 5.05 70.75 6.05 67.0 7.05 63.3 9.75 59.55 12.5 56.8 17.7 56.85 17.65 56.7 16.4 56.6 15.15 55.8 13.5 55.05 11.8 53.15 10.4 53.1 10.35 51.95 10.85 50.85 11.3 49.3 12.75 47.75 14.2 46.35 17.05 45.0 19.9 44.45 24.6 43.85 29.3 44.75 36.35 L29.75 20.5 Q29.8 20.45 30.5 19.0 31.15 17.55 31.65 15.35 32.1 13.1 31.55 10.65 31.05 8.2 28.65 6.2 26.2 4.3 24.15 4.1 22.15 3.9 20.6 4.6 19.1 5.35 18.3 6.15 17.45 6.95 17.45 7.0 17.45 6.95 17.05 5.95 16.6 4.95 15.6 3.65 14.55 2.35 12.8 1.35 11.0 0.4 8.35 0.4 5.65 0.45 1.95 2.1 0.3 5.8 0.3 8.5 0.3 11.15 1.3 12.95 2.25 14.75 3.6 15.8 4.9 16.85 5.95 17.3 6.95 17.75 7.0 17.7 6.95 17.7 6.15 18.55 5.35 19.4 4.6 20.9 3.9 22.4 4.1 24.45 4.3 26.5 6.2 28.95 8.2 31.3 10.65 31.85 13.1 32.4 15.35 31.9 17.6 31.45 19.05 30.75 20.45 30.1 20.5 30.0 L36.35 45.0 Q29.35 44.1 24.6 44.7 19.9 45.25 17.05 46.6 14.2 48.0 12.75 49.55 11.3 51.1 10.85 52.25 10.35 53.35 10.4 53.4 11.8 55.3 13.5 56.1 15.15 56.85 16.4 56.95 17.6 57.1 17.7 57.05 12.5 59.85 9.75 63.55 7.05 67.25 6.05 71.05 5.05 74.8 5.0 77.7 4.75 80.55 3.65 82.2 2.5 83.85 1.4 84.6 0.35 85.3 0.25 85.3 2.7 87.05 4.65 87.15 6.6 87.2 8.0 86.45 9.4 85.65 10.15 84.85 10.9 84.0 10.95 83.95 12.75 88.2 15.8 90.95 18.85 93.7 22.8 94.95 26.75 96.15 31.2 95.85 34.8 95.5 37.1 94.1 39.35 92.65 40.6 90.8 41.8 88.9 42.25 87.1 42.7 85.35 42.7 84.35 42.75 83.3 42.5 81.3 42.3 79.35 41.4 77.15 40.5 75.0 38.5 73.5 36.55 72.0 33.1 71.9 29.65 72.0 27.8 73.55 25.95 75.1 25.2 77.2 24.45 79.25 24.35 80.8 24.25 82.35 24.3 82.45 24.25 82.45 23.55 82.05 22.9 81.6 22.0 80.55 21.15 79.5 20.65 77.7 20.1 75.9 20.4 73.15 20.85 69.7 22.75 67.55 24.6 65.35 27.25 64.15 29.9 62.95 32.65 62.5 35.35 62.05 37.55 62.05 42.4 62.1 46.3 63.9 50.15 65.7 53.05 68.5 55.95 71.3 57.85 74.4 59.75 77.45 60.7 80.05 61.7 82.7 61.65 84.1 57.85 83.75 55.8 84.75 53.7 85.8 52.85 87.3 52.0 88.85 51.85 90.1 51.7 91.3 51.75 91.35 47.7 91.25 45.55 92.45 43.35 93.7 42.45 95.45 41.6 97.2 41.45 98.6 41.3 100.0 41.35 100.2 41.3 100.4 41.45 101.8 41.6 103.2 42.45 104.9 43.35 106.65 45.55 107.9 47.7 109.1 51.75 109.0 51.7 109.05 51.85 110.3 52.0 111.5 52.85 113.05 53.7 114.6 55.8 115.6 57.85 116.65 61.65 116.3 61.65 117.7 60.7 120.3 59.75 122.9 57.85 126.0 55.95 129.05 53.05 131.85 50.15 134.65 46.3 136.45 42.4 138.25 37.55 138.3 35.35 138.35 32.65 137.9 29.9 137.4 27.25 136.25 24.6 135.05 22.75 132.85 20.85 130.65 20.4 127.25 20.1 124.5 20.65 122.65 21.15 120.85 22.0 119.8 22.9 118.75 23.55 118.35 24.25 117.9 24.3 117.9 24.25 118.0 24.35 119.55 24.45 121.15 25.2 123.2 25.95 125.25 27.8 126.8 29.65 128.4 33.1 128.45 36.55 128.4 38.55 126.85 40.5 125.35 41.4 123.2 42.3 121.05 42.5 119.05 42.7 117.05 42.7 116.0 42.7 115.0 42.25 113.25 41.8 111.5 40.6 109.6 39.35 107.7 37.1 106.3 34.8 104.85 31.2 104.55 26.75 104.2 22.8 105.45 18.85 106.65 15.8 109.4 12.7 112.15 10.95 116.45 10.95 116.4 10.2 115.55 9.45 114.7 8.0 113.95 6.6 113.15 4.65 113.25 2.7 113.3 0.25 115.1 0.35 115.05 1.4 115.8 2.5 116.5 3.65 118.15 4.75 119.85 5.0 122.65 5.05 125.55 6.05 129.35 7.05 133.1 9.75 136.8 12.5 140.55 17.7 143.35 17.65 143.3 16.4 143.4 15.15 143.5 13.5 144.3 11.8 145.05 10.4 146.95 10.35 147.0 10.85 148.15 11.3 149.25 12.75 150.8 14.2 152.35 17.05 153.75 19.9 155.1 24.6 155.7 29.3 156.25 36.35 155.35 L20.5 170.35 Q20.45 170.3 19.0 169.6 17.55 168.95 15.35 168.45 13.1 168.0 10.65 168.55 8.2 169.05 6.2 171.45 4.3 173.9 4.1 175.95 3.9 178.0 4.6 179.5 5.35 181.0 6.15 181.8 6.95 182.65 7.0 182.65 6.95 182.65 5.95 183.1 4.9 183.55 3.6 184.55 2.25 185.6 1.3 187.4 0.3 189.2 0.3 191.9 0.3 194.55 1.95 198.3 5.65 199.95 8.35 199.95 11.0 200.0 12.8 199.0 14.55 198.05 15.55 196.75 16.6 195.4 17.05 194.4 17.45 193.4 17.45 193.35 17.45 193.4 18.3 194.25 19.1 195.05 20.6 195.75 22.15 196.45 24.2 196.25 26.2 196.1 28.65 194.2 31.0 192.15 31.55 189.7 32.1 187.3 31.65 185.05 31.15 182.8 30.5 181.35 29.8 179.9 29.75 179.85 L44.75 164.05 Q43.85 171.05 44.45 175.75 45.0 180.5 46.35 183.35 47.7 186.2 49.3 187.65 50.85 189.05 51.95 189.55 53.05 190.0 53.15 190.0 55.05 188.6 55.8 186.9 56.6 185.2 56.7 184.0 56.8 182.75 56.8 182.7 59.55 187.9 63.3 190.6 67.0 193.3 70.75 194.3 74.55 195.3 77.45 195.4 80.25 195.6 81.95 196.75 83.6 197.85 84.3 198.95 85.05 200.05 85.0 200.1 86.75 197.65 86.85 195.7 86.95 193.75 86.15 192.35 85.4 190.95 84.55 190.2 83.75 189.45 83.65 189.45 87.9 187.65 90.7 184.6 93.45 181.5 94.65 177.55 95.9 173.6 95.55 169.15 95.25 165.55 93.8 163.3 92.4 161.0 90.5 159.8 88.6 158.55 86.85 158.1 85.1 157.65 84.1 157.7 83.05 157.65 81.05 157.9 79.05 158.1 76.9 159.0 74.75 159.9 73.25 161.85 71.7 163.8 71.65 167.3 71.75 170.75 73.3 172.6 74.85 174.45 76.9 175.15 78.95 175.9 80.55 176.0 82.1 176.1 82.2 176.05 82.2 176.1 81.75 176.8 81.35 177.5 80.3 178.35 79.25 179.2 77.45 179.75 75.6 180.25 72.85 180.0 69.45 179.55 67.25 177.65 65.05 175.75 63.85 173.15 62.7 170.5 62.2 167.75 61.75 165.0 61.8 162.8 61.85 157.95 63.65 154.05 65.45 150.2 68.25 147.3 71.05 144.45 74.15 142.5 77.2 140.6 79.8 139.65 82.4 138.7 83.8 138.7 83.45 142.5 84.5 144.6 85.5 146.65 87.05 147.5 88.6 148.35 89.8 148.5 91.05 148.65 91.1 148.65 90.95 152.6 91.95 154.75 92.9 156.9 94.3 157.75 95.7 158.65 96.9 158.8 98.05 158.95 98.35 158.9 98.65 158.95 99.8 158.8 101.0 158.65 102.4 157.75 103.8 156.85 104.75 154.7 105.7 152.55 105.6 148.65 105.65 148.7 106.9 148.55 108.1 148.4 109.65 147.5 111.2 146.65 112.2 144.6 113.2 142.5 112.9 138.7 114.3 138.7 116.9 139.65 119.5 140.6 122.55 142.5 125.65 144.45 128.45 147.3 131.25 150.2 133.05 154.1 134.85 157.95 134.9 162.8 134.95 165.0 134.45 167.75 134.0 170.5 132.8 173.1 131.6 175.75 129.45 177.65 127.25 179.5 123.85 180.0 121.1 180.3 119.25 179.75 117.45 179.2 116.4 178.35 115.35 177.5 114.9 176.8 114.5 176.1 114.5 176.05 114.6 176.1 116.15 176.0 117.7 175.9 119.75 175.15 121.85 174.45 123.4 172.6 124.95 170.75 125.05 167.3 125.0 163.85 123.45 161.85 121.95 159.9 119.8 159.0 117.65 158.1 115.65 157.85 113.65 157.65 112.6 157.7 111.6 157.65 109.85 158.1 108.1 158.55 106.2 159.8 104.3 161.0 102.85 163.3 101.45 165.55 101.1 169.15 100.8 173.6 102.0 177.55 103.25 181.5 106.0 184.6 108.75 187.65 113.0 189.45 112.95 189.45 112.1 190.2 111.3 190.95 110.5 192.35 109.75 193.75 109.8 195.7 109.9 197.7 111.65 200.1 111.65 200.05 112.35 198.95 113.1 197.85 114.75 196.75 116.4 195.6 119.25 195.4 122.15 195.35 125.9 194.3 129.7 193.3 133.4 190.6 137.15 187.9 139.9 182.7 139.85 182.75 140.0 184.0 140.1 185.2 140.85 186.9 141.65 188.6 143.55 190.0 143.6 190.05 144.7 189.55 145.85 189.05 147.4 187.65 148.95 186.2 150.35 183.35 151.7 180.5 152.25 175.75 152.8 171.05 151.95 164.05 L166.95 179.85 Q166.9 179.9 166.2 181.35 165.5 182.8 165.05 185.05 164.6 187.3 165.1 189.7 165.65 192.15 168.0 194.2 170.45 196.1 172.5 196.3 174.55 196.45 176.05 195.75 177.55 195.05 178.4 194.25 179.25 193.45 179.25 193.35 179.25 193.4 179.65 194.4 180.1 195.4 181.1 196.75 182.15 198.05 183.9 199.0 185.7 199.95 188.35 199.95 191.0 199.95 194.75 198.3 196.4 194.6 196.4 191.9 196.4 189.2 195.4 187.4 194.4 185.6 193.1 184.6 191.75 183.55 190.75 183.1 189.75 182.65 189.7 182.65 189.75 182.65 190.55 181.8 191.35 181.0 192.05 179.5 192.8 177.95 192.6 175.95 192.4 173.9 190.5 171.45 188.45 169.1 186.05 168.55 183.6 168.0 181.35 168.45 179.1 168.95 177.65 169.6 176.2 170.3 176.15 170.35 L160.35 155.35 Q167.35 156.25 172.1 155.65 176.8 155.1 179.65 153.75 182.5 152.4 183.95 150.8 185.4 149.25 185.85 148.15 186.35 147.05 186.3 146.95 184.9 145.05 183.2 144.3 181.55 143.5 180.3 143.4 179.05 143.3 179.0 143.35 184.2 140.55 186.9 136.85 189.65 133.1 190.65 129.35 191.65 125.55 191.7 122.65 M127.75 100.2 Q127.8 100.45 127.55 101.7 127.3 102.9 126.25 104.45 125.25 105.95 122.9 107.05 120.55 108.2 116.45 108.25 116.5 108.3 117.2 109.6 117.9 110.9 118.55 112.9 119.2 114.95 119.15 117.25 119.1 119.5 117.6 121.55 115.35 123.4 113.1 123.55 110.8 123.75 108.85 123.05 106.9 122.4 105.7 121.6 104.55 120.85 104.5 120.8 104.45 124.9 103.6 127.2 102.75 129.55 101.6 130.6 100.5 131.65 99.55 131.9 98.6 132.2 98.35 132.15 98.1 132.2 97.15 131.9 96.2 131.65 95.05 130.6 93.9 129.55 93.05 127.2 92.25 124.85 92.2 120.8 92.15 120.85 90.95 121.6 89.8 122.4 87.85 123.05 85.9 123.75 83.6 123.55 81.3 123.35 79.1 121.55 77.65 119.5 77.55 117.25 77.5 114.95 78.15 112.9 78.8 110.9 79.5 109.6 80.2 108.3 80.25 108.25 76.1 108.2 73.8 107.05 71.45 105.95 70.4 104.45 69.4 102.9 69.15 101.7 68.9 100.45 68.95 100.2 68.95 100.2 68.95 100.2 68.95 100.15 68.95 100.15 68.9 99.9 69.15 98.7 69.4 97.45 70.4 95.95 71.45 94.45 73.8 93.3 76.1 92.15 80.25 92.1 80.2 92.05 79.5 90.8 78.8 89.5 78.15 87.45 77.5 85.4 77.55 83.15 77.6 80.85 79.1 78.85 81.35 77.0 83.6 76.8 85.9 76.65 87.85 77.3 89.8 78.0 90.95 78.75 92.15 79.5 92.2 79.6 92.25 75.5 93.1 73.15 93.9 70.85 95.05 69.8 96.2 68.75 97.15 68.45 98.1 68.2 98.35 68.25 98.6 68.2 99.55 68.45 100.5 68.75 101.65 69.8 102.75 70.85 103.6 73.15 104.45 75.5 104.5 79.6 104.55 79.55 105.7 78.75 106.9 78.0 108.85 77.3 110.8 76.65 113.1 76.8 115.35 77.0 117.6 78.85 119.05 80.85 119.15 83.15 119.2 85.4 118.55 87.45 117.9 89.5 117.2 90.8 116.5 92.05 116.45 92.1 120.6 92.15 122.9 93.3 125.25 94.4 126.25 95.95 127.3 97.45 127.55 98.7 127.8 99.9 127.75 100.15 127.75 100.2 127.75 100.2 127.75 100.2 127.75 100.2" fill="#000000" fill-rule="evenodd" stroke="none"/>
      <path d="M191.7 122.65 Q191.9 119.85 193.05 118.15 194.2 116.5 195.25 115.8 196.35 115.05 196.45 115.1 194.0 113.35 192.05 113.25 190.05 113.15 188.65 113.95 187.25 114.7 186.5 115.55 185.75 116.35 185.75 116.45 183.95 112.2 180.9 109.4 177.8 106.65 173.85 105.45 169.9 104.2 165.5 104.55 161.9 104.9 159.6 106.3 157.35 107.7 156.1 109.6 154.9 111.5 154.45 113.25 154.0 115.0 154.0 116.0 153.95 117.05 154.2 119.05 154.4 121.05 155.3 123.2 156.2 125.35 158.15 126.9 160.15 128.4 163.6 128.45 167.05 128.35 168.9 126.8 170.75 125.25 171.5 123.2 172.2 121.15 172.3 119.55 172.4 118.0 172.4 117.9 172.45 117.9 173.1 118.35 173.8 118.75 174.65 119.8 175.55 120.85 176.05 122.65 176.6 124.5 176.3 127.25 175.85 130.65 173.95 132.85 172.1 135.05 169.45 136.25 166.8 137.45 164.05 137.9 161.3 138.35 159.15 138.3 154.3 138.25 150.4 136.45 146.55 134.65 143.65 131.85 140.75 129.05 138.85 126.0 136.9 122.9 135.95 120.3 135.0 117.7 135.0 116.3 138.8 116.65 140.9 115.6 142.95 114.6 143.85 113.05 144.7 111.5 144.85 110.3 145.0 109.05 144.95 109.0 149.0 109.15 151.15 107.9 153.35 106.65 154.2 104.9 155.1 103.15 155.25 101.8 155.35 100.4 155.3 100.2 155.35 100.0 155.25 98.6 155.1 97.2 154.2 95.45 153.35 93.7 151.15 92.5 149.0 91.25 144.95 91.35 145.0 91.3 144.85 90.05 144.7 88.85 143.85 87.3 142.95 85.8 140.9 84.75 138.8 83.75 135.0 84.1 135.0 82.7 135.95 80.1 136.9 77.5 138.85 74.4 140.75 71.3 143.65 68.5 146.55 65.7 150.4 63.9 154.25 62.1 159.15 62.05 161.35 62.05 164.05 62.5 166.8 62.95 169.45 64.15 172.1 65.35 173.95 67.5 175.85 69.7 176.3 73.15 176.6 75.9 176.05 77.7 175.5 79.5 174.65 80.55 173.8 81.6 173.1 82.05 172.4 82.45 172.4 82.45 172.45 82.35 172.35 80.8 172.2 79.25 171.5 77.2 170.75 75.1 168.9 73.55 167.05 72.0 163.6 71.9 160.15 71.95 158.15 73.5 156.2 75.0 155.3 77.15 154.4 79.3 154.2 81.3 153.95 83.3 154.0 84.35 154.0 85.35 154.45 87.1 154.9 88.9 156.1 90.75 157.35 92.65 159.6 94.1 161.9 95.5 165.5 95.85 169.9 96.2 173.85 94.95 177.8 93.7 180.9 90.95 183.95 88.2 185.75 83.95 185.75 84.0 186.5 84.85 187.25 85.65 188.65 86.45 190.05 87.2 192.05 87.15 194.0 87.05 196.45 85.3 196.35 85.3 195.3 84.6 194.2 83.85 193.05 82.2 191.9 80.55 191.7 77.7 191.65 74.8 190.65 71.05 189.65 67.25 186.9 63.55 184.2 59.8 179.0 57.05 179.05 57.1 180.3 56.95 181.55 56.85 183.2 56.1 184.9 55.3 186.3 53.4 186.35 53.35 185.85 52.25 185.4 51.1 183.95 49.55 182.5 48.0 179.65 46.6 176.8 45.25 172.1 44.7 167.35 44.15 160.35 45.0 L176.15 30.0 Q176.2 30.05 177.65 30.75 179.1 31.45 181.35 31.9 183.6 32.4 186.05 31.85 188.45 31.3 190.5 28.95 192.4 26.5 192.6 24.45 192.8 22.4 192.05 20.9 191.35 19.4 190.55 18.55 189.75 17.75 189.7 17.7 189.75 17.7 190.75 17.3 191.75 16.85 193.1 15.8 194.4 14.75 195.4 12.95 196.4 11.15 196.4 8.5 196.4 5.8 194.75 2.1 191.05 0.45 188.35 0.45 185.7 0.4 183.9 1.35 182.15 2.35 181.1 3.65 180.1 4.95 179.65 5.95 179.25 6.95 179.25 7.0 179.25 6.95 178.4 6.15 177.55 5.35 176.05 4.6 174.55 3.9 172.5 4.1 170.45 4.3 168.0 6.2 165.65 8.25 165.1 10.65 164.55 13.1 165.05 15.35 165.5 17.6 166.2 19.0 166.85 20.45 166.95 20.5 L151.95 36.35 Q152.85 29.35 152.25 24.6 151.7 19.9 150.35 17.05 148.95 14.2 147.4 12.75 145.85 11.3 144.75 10.85 143.6 10.35 143.55 10.4 141.65 11.8 140.85 13.5 140.1 15.15 140.0 16.4 139.85 17.6 139.9 17.7 137.15 12.5 133.4 9.75 129.7 7.05 125.9 6.05 122.15 5.05 119.25 5.0 116.4 4.75 114.75 3.65 113.1 2.5 112.35 1.4 111.65 0.35 111.65 0.25 109.9 2.7 109.8 4.65 109.75 6.6 110.5 8.0 111.3 9.4 112.1 10.15 112.95 10.9 113.0 10.95 108.75 12.75 106.0 15.8 103.25 18.85 102.0 22.8 100.8 26.75 101.1 31.2 101.45 34.8 102.85 37.1 104.3 39.35 106.2 40.6 108.1 41.8 109.85 42.25 111.6 42.7 112.6 42.7 113.65 42.75 115.65 42.5 117.65 42.3 119.8 41.4 121.95 40.5 123.45 38.5 125.0 36.55 125.05 33.1 124.95 29.65 123.4 27.8 121.85 25.95 119.75 25.2 117.7 24.45 116.15 24.35 114.6 24.25 114.5 24.3 114.5 24.25 114.9 23.55 115.35 22.9 116.4 22.0 117.45 21.15 119.25 20.65 121.05 20.1 123.85 20.4 127.25 20.85 129.45 22.75 131.65 24.6 132.8 27.25 134.0 29.9 134.45 32.65 134.95 35.35 134.9 37.55 134.85 42.4 133.05 46.3 131.25 50.15 128.45 53.05 125.65 55.95 122.55 57.85 119.5 59.75 116.9 60.7 114.3 61.7 112.9 61.65 113.25 57.85 112.2 55.8 111.2 53.7 109.65 52.85 108.1 52.0 106.9 51.85 105.65 51.7 105.6 51.75 105.75 47.8 104.75 45.65 103.8 43.5 102.4 42.6 101.0 41.7 99.8 41.55 98.65 41.4 98.35 41.45 98.05 41.4 96.9 41.55 95.7 41.7 94.3 42.6 92.9 43.5 91.95 45.65 90.95 47.8 91.1 51.75 91.05 51.7 89.8 51.85 88.6 52.0 87.05 52.85 85.5 53.7 84.5 55.8 83.45 57.85 83.8 61.65 82.4 61.65 79.8 60.7 77.2 59.75 74.1 57.85 71.05 55.95 68.25 53.05 65.45 50.15 63.65 46.3 61.85 42.4 61.8 37.55 61.75 35.35 62.25 32.65 62.7 29.9 63.85 27.25 65.05 24.6 67.25 22.75 69.45 20.85 72.85 20.4 75.6 20.1 77.45 20.65 79.25 21.15 80.3 22.0 81.35 22.9 81.75 23.55 82.2 24.25 82.2 24.3 82.1 24.25 80.55 24.35 79.0 24.45 76.9 25.2 74.85 25.95 73.3 27.8 71.75 29.65 71.65 33.1 71.7 36.55 73.25 38.55 74.75 40.5 76.9 41.4 79.05 42.3 81.05 42.5 83.05 42.7 84.1 42.7 85.1 42.7 86.85 42.25 88.6 41.8 90.5 40.6 92.4 39.35 93.8 37.1 95.25 34.8 95.55 31.2 95.9 26.75 94.65 22.8 93.45 18.85 90.7 15.8 87.95 12.7 83.65 10.95 83.75 10.95 84.55 10.2 85.4 9.45 86.15 8.0 86.95 6.6 86.85 4.65 86.8 2.7 85.0 0.25 85.05 0.35 84.3 1.4 83.6 2.5 81.95 3.65 80.25 4.75 77.45 5.0 74.55 5.05 70.75 6.05 67.0 7.05 63.3 9.75 59.55 12.5 56.8 17.7 56.85 17.65 56.7 16.4 56.6 15.15 55.8 13.5 55.05 11.8 53.15 10.4 53.1 10.35 51.95 10.85 50.85 11.3 49.3 12.75 47.75 14.2 46.35 17.05 45.0 19.9 44.45 24.6 43.85 29.3 44.75 36.35 L29.75 20.5 Q29.8 20.45 30.5 19.0 31.15 17.55 31.65 15.35 32.1 13.1 31.55 10.65 31.05 8.2 28.65 6.2 26.2 4.3 24.15 4.1 22.15 3.9 20.6 4.6 19.1 5.35 18.3 6.15 17.45 6.95 17.45 7.0 17.45 6.95 17.05 5.95 16.6 4.95 15.6 3.65 14.55 2.35 12.8 1.35 11.0 0.4 8.35 0.4 5.65 0.45 1.95 2.1 0.3 5.8 0.3 8.5 0.3 11.15 1.3 12.95 2.25 14.75 3.6 15.8 4.9 16.85 5.95 17.3 6.95 17.75 7.0 17.7 6.95 17.7 6.15 18.55 5.35 19.4 4.6 20.9 3.9 22.4 4.1 24.45 4.3 26.5 6.2 28.95 8.2 31.3 10.65 31.85 13.1 32.4 15.35 31.9 17.6 31.45 19.05 30.75 20.45 30.1 20.5 30.0 L36.35 45.0 Q29.35 44.1 24.6 44.7 19.9 45.25 17.05 46.6 14.2 48.0 12.75 49.55 11.3 51.1 10.85 52.25 10.35 53.35 10.4 53.4 11.8 55.3 13.5 56.1 15.15 56.85 16.4 56.95 17.6 57.1 17.7 57.05 12.5 59.85 9.75 63.55 7.05 67.25 6.05 71.05 5.05 74.8 5.0 77.7 4.75 80.55 3.65 82.2 2.5 83.85 1.4 84.6 0.35 85.3 0.25 85.3 2.7 87.05 4.65 87.15 6.6 87.2 8.0 86.45 9.4 85.65 10.15 84.85 10.9 84.0 10.95 83.95 12.75 88.2 15.8 90.95 18.85 93.7 22.8 94.95 26.75 96.15 31.2 95.85 34.8 95.5 37.1 94.1 39.35 92.65 40.6 90.8 41.8 88.9 42.25 87.1 42.7 85.35 42.7 84.35 42.75 83.3 42.5 81.3 42.3 79.35 41.4 77.15 40.5 75.0 38.5 73.5 36.55 72.0 33.1 71.9 29.65 72.0 27.8 73.55 25.95 75.1 25.2 77.2 24.45 79.25 24.35 80.8 24.25 82.35 24.3 82.45 24.25 82.45 23.55 82.05 22.9 81.6 22.0 80.55 21.15 79.5 20.65 77.7 20.1 75.9 20.4 73.15 20.85 69.7 22.75 67.55 24.6 65.35 27.25 64.15 29.9 62.95 32.65 62.5 35.35 62.05 37.55 62.05 42.4 62.1 46.3 63.9 50.15 65.7 53.05 68.5 55.95 71.3 57.85 74.4 59.75 77.45 60.7 80.05 61.7 82.7 61.65 84.1 57.85 83.75 55.8 84.75 53.7 85.8 52.85 87.3 52.0 88.85 51.85 90.1 51.7 91.3 51.75 91.35 47.7 91.25 45.55 92.45 43.35 93.7 42.45 95.45 41.6 97.2 41.45 98.6 41.3 100.0 41.35 100.2 41.3 100.4 41.45 101.8 41.6 103.2 42.45 104.9 43.35 106.65 45.55 107.9 47.7 109.1 51.75 109.0 51.7 109.05 51.85 110.3 52.0 111.5 52.85 113.05 53.7 114.6 55.8 115.6 57.85 116.65 61.65 116.3 61.65 117.7 60.7 120.3 59.75 122.9 57.85 126.0 55.95 129.05 53.05 131.85 50.15 134.65 46.3 136.45 42.4 138.25 37.55 138.3 35.35 138.35 32.65 137.9 29.9 137.4 27.25 136.25 24.6 135.05 22.75 132.85 20.85 130.65 20.4 127.25 20.1 124.5 20.65 122.65 21.15 120.85 22.0 119.8 22.9 118.75 23.55 118.35 24.25 117.9 24.3 117.9 24.25 118.0 24.35 119.55 24.45 121.15 25.2 123.2 25.95 125.25 27.8 126.8 29.65 128.4 33.1 128.45 36.55 128.4 38.55 126.85 40.5 125.35 41.4 123.2 42.3 121.05 42.5 119.05 42.7 117.05 42.7 116.0 42.7 115.0 42.25 113.25 41.8 111.5 40.6 109.6 39.35 107.7 37.1 106.3 34.8 104.85 31.2 104.55 26.75 104.2 22.8 105.45 18.85 106.65 15.8 109.4 12.7 112.15 10.95 116.45 10.95 116.4 10.2 115.55 9.45 114.7 8.0 113.95 6.6 113.15 4.65 113.25 2.7 113.3 0.25 115.1 0.35 115.05 1.4 115.8 2.5 116.5 3.65 118.15 4.75 119.85 5.0 122.65 5.05 125.55 6.05 129.35 7.05 133.1 9.75 136.8 12.5 140.55 17.7 143.35 17.65 143.3 16.4 143.4 15.15 143.5 13.5 144.3 11.8 145.05 10.4 146.95 10.35 147.0 10.85 148.15 11.3 149.25 12.75 150.8 14.2 152.35 17.05 153.75 19.9 155.1 24.6 155.7 29.3 156.25 36.35 155.35 L20.5 170.35 Q20.45 170.3 19.0 169.6 17.55 168.95 15.35 168.45 13.1 168.0 10.65 168.55 8.2 169.05 6.2 171.45 4.3 173.9 4.1 175.95 3.9 178.0 4.6 179.5 5.35 181.0 6.15 181.8 6.95 182.65 7.0 182.65 6.95 182.65 5.95 183.1 4.9 183.55 3.6 184.55 2.25 185.6 1.3 187.4 0.3 189.2 0.3 191.9 0.3 194.55 1.95 198.3 5.65 199.95 8.35 199.95 11.0 200.0 12.8 199.0 14.55 198.05 15.55 196.75 16.6 195.4 17.05 194.4 17.45 193.4 17.45 193.35 17.45 193.4 18.3 194.25 19.1 195.05 20.6 195.75 22.15 196.45 24.2 196.25 26.2 196.1 28.65 194.2 31.0 192.15 31.55 189.7 32.1 187.3 31.65 185.05 31.15 182.8 30.5 181.35 29.8 179.9 29.75 179.85 L44.75 164.05 Q43.85 171.05 44.45 175.75 45.0 180.5 46.35 183.35 47.7 186.2 49.3 187.65 50.85 189.05 51.95 189.55 53.05 190.0 53.15 190.0 55.05 188.6 55.8 186.9 56.6 185.2 56.7 184.0 56.8 182.75 56.8 182.7 59.55 187.9 63.3 190.6 67.0 193.3 70.75 194.3 74.55 195.3 77.45 195.4 80.25 195.6 81.95 196.75 83.6 197.85 84.3 198.95 85.05 200.05 85.0 200.1 86.75 197.65 86.85 195.7 86.95 193.75 86.15 192.35 85.4 190.95 84.55 190.2 83.75 189.45 83.65 189.45 87.9 187.65 90.7 184.6 93.45 181.5 94.65 177.55 95.9 173.6 95.55 169.15 95.25 165.55 93.8 163.3 92.4 161.0 90.5 159.8 88.6 158.55 86.85 158.1 85.1 157.65 84.1 157.7 83.05 157.65 81.05 157.9 79.05 158.1 76.9 159.0 74.75 159.9 73.25 161.85 71.7 163.8 71.65 167.3 71.75 170.75 73.3 172.6 74.85 174.45 76.9 175.15 78.95 175.9 80.55 176.0 82.1 176.1 82.2 176.05 82.2 176.1 81.75 176.8 81.35 177.5 80.3 178.35 79.25 179.2 77.45 179.75 75.6 180.25 72.85 180.0 69.45 179.55 67.25 177.65 65.05 175.75 63.85 173.15 62.7 170.5 62.2 167.75 61.75 165.0 61.8 162.8 61.85 157.95 63.65 154.05 65.45 150.2 68.25 147.3 71.05 144.45 74.15 142.5 77.2 140.6 79.8 139.65 82.4 138.7 83.8 138.7 83.45 142.5 84.5 144.6 85.5 146.65 87.05 147.5 88.6 148.35 89.8 148.5 91.05 148.65 91.1 148.65 90.95 152.6 91.95 154.75 92.9 156.9 94.3 157.75 95.7 158.65 96.9 158.8 98.05 158.95 98.35 158.9 98.65 158.95 99.8 158.8 101.0 158.65 102.4 157.75 103.8 156.85 104.75 154.7 105.7 152.55 105.6 148.65 105.65 148.7 106.9 148.55 108.1 148.4 109.65 147.5 111.2 146.65 112.2 144.6 113.2 142.5 112.9 138.7 114.3 138.7 116.9 139.65 119.5 140.6 122.55 142.5 125.65 144.45 128.45 147.3 131.25 150.2 133.05 154.1 134.85 157.95 134.9 162.8 134.95 165.0 134.45 167.75 134.0 170.5 132.8 173.1 131.6 175.75 129.45 177.65 127.25 179.5 123.85 180.0 121.1 180.3 119.25 179.75 117.45 179.2 116.4 178.35 115.35 177.5 114.9 176.8 114.5 176.1 114.5 176.05 114.6 176.1 116.15 176.0 117.7 175.9 119.75 175.15 121.85 174.45 123.4 172.6 124.95 170.75 125.05 167.3 125.0 163.85 123.45 161.85 121.95 159.9 119.8 159.0 117.65 158.1 115.65 157.85 113.65 157.65 112.6 157.7 111.6 157.65 109.85 158.1 108.1 158.55 106.2 159.8 104.3 161.0 102.85 163.3 101.45 165.55 101.1 169.15 100.8 173.6 102.0 177.55 103.25 181.5 106.0 184.6 108.75 187.65 113.0 189.45 112.95 189.45 112.1 190.2 111.3 190.95 110.5 192.35 109.75 193.75 109.8 195.7 109.9 197.7 111.65 200.1 111.65 200.05 112.35 198.95 113.1 197.85 114.75 196.75 116.4 195.6 119.25 195.4 122.15 195.35 125.9 194.3 129.7 193.3 133.4 190.6 137.15 187.9 139.9 182.7 139.85 182.75 140.0 184.0 140.1 185.2 140.85 186.9 141.65 188.6 143.55 190.0 143.6 190.05 144.7 189.55 145.85 189.05 147.4 187.65 148.95 186.2 150.35 183.35 151.7 180.5 152.25 175.75 152.8 171.05 151.95 164.05 L166.95 179.85 Q166.9 179.9 166.2 181.35 165.5 182.8 165.05 185.05 164.6 187.3 165.1 189.7 165.65 192.15 168.0 194.2 170.45 196.1 172.5 196.3 174.55 196.45 176.05 195.75 177.55 195.05 178.4 194.25 179.25 193.45 179.25 193.35 179.25 193.4 179.65 194.4 180.1 195.4 181.1 196.75 182.15 198.05 183.9 199.0 185.7 199.95 188.35 199.95 191.0 199.95 194.75 198.3 196.4 194.6 196.4 191.9 196.4 189.2 195.4 187.4 194.4 185.6 193.1 184.6 191.75 183.55 190.75 183.1 189.75 182.65 189.7 182.65 189.75 182.65 190.55 181.8 191.35 181.0 192.05 179.5 192.8 177.95 192.6 175.95 192.4 173.9 190.5 171.45 188.45 169.1 186.05 168.55 183.6 168.0 181.35 168.45 179.1 168.95 177.65 169.6 176.2 170.3 176.15 170.35 L160.35 155.35 Q167.35 156.25 172.1 155.65 176.8 155.1 179.65 153.75 182.5 152.4 183.95 150.8 185.4 149.25 185.85 148.15 186.35 147.05 186.3 146.95 184.9 145.05 183.2 144.3 181.55 143.5 180.3 143.4 179.05 143.3 179.0 143.35 184.2 140.55 186.9 136.85 189.65 133.1 190.65 129.35 191.65 125.55 191.7 122.65 M127.75 100.2 Q127.8 100.45 127.55 101.7 127.3 102.9 126.25 104.45 125.25 105.95 122.9 107.05 120.55 108.2 116.45 108.25 116.5 108.3 117.2 109.6 117.9 110.9 118.55 112.9 119.2 114.95 119.15 117.25 119.1 119.5 117.6 121.55 115.35 123.4 113.1 123.55 110.8 123.75 108.85 123.05 106.9 122.4 105.7 121.6 104.55 120.85 104.5 120.8 104.45 124.9 103.6 127.2 102.75 129.55 101.6 130.6 100.5 131.65 99.55 131.9 98.6 132.2 98.35 132.15 98.1 132.2 97.15 131.9 96.2 131.65 95.05 130.6 93.9 129.55 93.05 127.2 92.25 124.85 92.2 120.8 92.15 120.85 90.95 121.6 89.8 122.4 87.85 123.05 85.9 123.75 83.6 123.55 81.3 123.35 79.1 121.55 77.65 119.5 77.55 117.25 77.5 114.95 78.15 112.9 78.8 110.9 79.5 109.6 80.2 108.3 80.25 108.25 76.1 108.2 73.8 107.05 71.45 105.95 70.4 104.45 69.4 102.9 69.15 101.7 68.9 100.45 68.95 100.2 68.95 100.2 68.95 100.2 68.95 100.15 68.95 100.15 68.9 99.9 69.15 98.7 69.4 97.45 70.4 95.95 71.45 94.45 73.8 93.3 76.1 92.15 80.25 92.1 80.2 92.05 79.5 90.8 78.8 89.5 78.15 87.45 77.5 85.4 77.55 83.15 77.6 80.85 79.1 78.85 81.35 77.0 83.6 76.8 85.9 76.65 87.85 77.3 89.8 78.0 90.95 78.75 92.15 79.5 92.2 79.6 92.25 75.5 93.1 73.15 93.9 70.85 95.05 69.8 96.2 68.75 97.15 68.45 98.1 68.2 98.35 68.25 98.6 68.2 99.55 68.45 100.5 68.75 101.65 69.8 102.75 70.85 103.6 73.15 104.45 75.5 104.5 79.6 104.55 79.55 105.7 78.75 106.9 78.0 108.85 77.3 110.8 76.65 113.1 76.8 115.35 77.0 117.6 78.85 119.05 80.85 119.15 83.15 119.2 85.4 118.55 87.45 117.9 89.5 117.2 90.8 116.5 92.05 116.45 92.1 120.6 92.15 122.9 93.3 125.25 94.4 126.25 95.95 127.3 97.45 127.55 98.7 127.8 99.9 127.75 100.15 127.75 100.2 127.75 100.2 127.75 100.2 127.75 100.2 Z" ffdec:has-small-stroke="true" ffdec:original-stroke-width="0.25" fill="none" stroke="#000000" stroke-linecap="round" stroke-linejoin="round" stroke-width="1.0"/>
    </g>
  </defs>
</svg>
