<?xml version="1.0" encoding="UTF-8" standalone="no"?>
<svg xmlns:ffdec="https://www.free-decompiler.com/flash" xmlns:xlink="http://www.w3.org/1999/xlink" ffdec:objectType="frame" height="200.0px" width="203.0px" xmlns="http://www.w3.org/2000/svg">
  <g transform="matrix(1.0, 0.0, 0.0, 1.0, 0.0, 0.0)">
    <rect fill="#ffffff" height="200.0px" width="203.0px"/>
    <use ffdec:characterId="1" height="200.0" transform="matrix(1.0, 0.0, 0.0, 1.0, 0.0, 0.0)" width="202.5" xlink:href="#shape0"/>
  </g>
  <defs>
    <g id="shape0" transform="matrix(1.0, 0.0, 0.0, 1.0, 0.0, 0.0)">
      <path d="M179.95 113.5 Q180.45 107.9 178.45 102.25 176.45 96.55 171.5 91.5 167.05 87.15 162.4 85.2 158.9 86.6 156.25 86.6 153.65 86.6 152.2 86.15 150.7 85.65 150.7 85.55 150.75 85.55 151.75 86.35 152.7 87.15 153.65 88.85 154.65 90.55 154.8 93.25 158.15 93.9 160.95 95.3 163.8 96.65 165.95 98.3 168.1 99.9 169.5 101.3 172.15 104.0 173.75 106.05 175.4 108.1 176.65 109.8 177.95 111.45 179.5 113.05 179.7 113.25 179.95 113.5 M177.25 123.5 Q177.9 122.15 178.4 120.8 176.0 118.65 174.5 116.95 173.05 115.2 172.75 114.8 174.65 117.3 175.75 119.45 176.85 121.65 177.25 123.5 M151.65 127.25 Q152.4 131.9 155.15 134.4 157.9 136.85 161.85 136.55 165.85 136.25 170.3 132.6 168.75 131.3 167.4 130.1 166.1 128.85 165.4 127.55 164.7 126.25 165.05 124.7 165.55 122.6 165.4 120.45 165.25 118.25 164.95 116.8 164.65 115.3 164.6 115.25 163.0 119.75 160.9 121.75 158.8 123.7 156.65 123.95 154.45 124.15 152.6 123.35 150.8 122.55 149.75 121.5 148.1 119.85 147.75 117.9 147.4 115.95 148.75 114.5 150.05 113.25 151.2 113.05 152.3 112.9 153.0 113.15 153.65 113.45 153.7 113.5 153.6 113.5 153.0 114.0 152.35 114.5 152.1 115.35 151.8 116.2 152.8 117.25 153.85 118.25 154.8 118.25 155.8 118.25 156.6 117.75 157.4 117.25 157.9 116.7 159.65 114.85 159.9 113.0 160.2 111.2 159.6 109.6 159.0 108.0 158.25 106.95 157.5 105.85 157.2 105.6 156.9 105.3 155.35 104.5 153.8 103.7 151.35 103.3 148.85 102.95 145.8 103.9 142.75 104.85 139.45 108.0 136.25 111.3 135.15 114.55 134.1 117.85 134.55 120.9 135.05 124.0 136.55 126.6 138.05 129.25 140.05 131.2 142.55 133.6 144.6 134.65 146.7 135.65 148.0 135.85 149.3 136.05 149.5 136.0 148.65 134.0 148.85 132.35 149.05 130.75 149.7 129.6 150.4 128.5 151.0 127.85 151.6 127.25 151.65 127.25 M111.05 151.45 Q113.1 149.8 114.25 149.0 115.4 148.25 115.4 148.25 113.2 146.55 111.4 144.6 L111.45 144.7 Q109.3 147.0 107.05 148.95 L107.4 148.65 Q109.25 150.1 111.05 151.45 M113.85 174.4 Q114.25 172.75 114.25 171.1 114.2 168.65 113.35 166.55 112.5 164.45 111.0 162.6 111.0 162.6 111.0 162.6 111.0 162.6 111.05 162.65 108.85 165.0 106.5 167.9 109.4 171.3 113.85 174.4 M110.1 181.55 Q110.1 181.55 110.35 181.75 108.3 180.2 106.0 178.2 103.7 176.2 101.4 173.75 L101.5 173.6 Q99.05 176.3 96.85 178.25 94.65 180.2 92.65 181.55 94.6 184.0 96.6 185.85 98.6 187.7 99.95 188.7 101.3 189.75 101.35 189.75 101.45 189.75 102.8 188.7 104.15 187.7 106.15 185.85 108.15 184.0 110.1 181.55 M88.95 174.5 Q93.4 171.3 96.35 167.85 93.9 164.9 91.6 162.55 91.55 162.55 91.55 162.55 L91.65 162.65 Q90.2 164.5 89.35 166.6 88.55 168.65 88.5 171.1 88.5 172.8 88.95 174.5 M86.05 157.55 Q85.95 157.5 85.9 157.45 L86.05 157.6 Q86.05 157.55 86.05 157.55 M89.35 104.3 Q87.3 108.45 87.55 114.6 88.1 122.7 90.4 128.5 92.45 122.65 92.25 116.4 92.1 110.15 89.35 104.3 M95.35 148.7 Q93.25 146.85 91.25 144.7 89.45 146.55 87.35 148.25 87.35 148.25 88.6 149.1 89.85 149.95 92.0 151.75 L91.7 151.45 Q93.45 150.05 95.35 148.7 M90.55 68.65 Q91.95 68.65 92.55 67.95 93.15 67.25 93.5 65.9 93.85 64.5 94.55 62.5 95.2 60.5 96.8 57.9 96.8 57.95 96.8 57.95 94.4 55.4 91.5 53.15 88.4 57.85 87.6 61.3 86.75 64.8 87.65 66.7 88.5 68.65 90.55 68.65 M75.6 37.05 Q75.65 37.0 77.45 37.4 79.25 37.85 82.45 39.15 85.6 40.4 89.75 42.95 92.65 39.7 95.4 37.3 95.4 37.3 95.35 37.25 L95.25 37.35 Q92.15 35.25 88.8 34.1 85.45 33.0 82.1 33.55 78.75 34.1 75.6 37.05 M95.9 19.7 Q95.35 22.4 95.9 24.5 96.45 26.6 97.85 28.35 99.25 30.15 101.35 32.0 L101.3 32.0 Q101.35 32.0 101.4 32.05 104.5 29.35 106.05 26.5 107.6 23.7 106.85 19.7 106.55 18.6 105.25 16.8 103.95 15.05 102.7 13.6 101.45 12.2 101.35 12.1 101.3 12.2 100.05 13.6 98.8 15.05 97.5 16.85 96.2 18.6 95.9 19.7 M127.1 37.05 Q124.0 34.1 120.65 33.55 117.3 33.05 113.9 34.15 110.55 35.3 107.45 37.4 110.1 39.8 112.9 42.95 112.95 42.95 112.95 42.9 112.95 42.9 112.9 42.9 117.1 40.35 120.25 39.1 123.45 37.8 125.25 37.4 127.1 37.0 127.1 37.05 M112.2 68.65 Q114.2 68.65 115.1 66.7 115.95 64.75 115.1 61.3 114.3 57.8 111.2 53.15 108.3 55.4 105.9 58.05 105.9 58.05 105.95 58.1 106.0 58.05 106.0 58.05 107.5 60.6 108.2 62.55 108.85 64.55 109.2 65.9 109.55 67.25 110.2 67.95 110.8 68.65 112.2 68.65 M107.1 158.45 Q107.1 158.5 107.1 158.5 107.15 158.55 107.15 158.6 107.2 158.55 107.2 158.55 107.15 158.5 107.1 158.45 M101.3 91.95 Q98.9 93.8 96.55 95.8 100.4 103.6 101.35 112.25 101.8 108.0 103.0 103.85 104.25 99.75 106.15 95.9 103.75 93.9 101.4 92.05 101.4 92.0 101.45 92.0 101.4 91.95 101.3 91.95 M101.4 64.25 Q98.95 68.55 98.9 73.05 98.9 75.5 99.55 77.55 100.2 79.6 101.3 81.3 102.5 79.6 103.15 77.55 103.85 75.55 103.85 73.05 103.85 70.85 103.2 68.6 102.55 66.35 101.4 64.25 M101.5 64.1 Q101.5 64.1 101.45 64.1 101.45 64.15 101.4 64.2 101.45 64.15 101.5 64.1 M101.4 52.3 Q101.5 52.15 101.6 52.05 104.2 49.45 106.65 47.45 105.7 46.4 104.65 45.35 103.2 43.9 101.4 42.2 99.55 43.9 98.1 45.35 97.0 46.4 96.05 47.45 96.0 47.4 95.95 47.4 96.0 47.4 95.95 47.4 98.6 49.5 101.4 52.3 M96.0 138.2 Q98.55 141.35 101.35 143.85 L101.25 143.9 Q101.25 143.95 101.25 143.9 104.1 141.45 106.65 138.4 L106.7 138.45 Q104.45 134.7 103.1 130.6 101.8 126.5 101.3 122.2 100.85 126.45 99.5 130.5 98.2 134.5 96.0 138.2 M96.15 148.05 L96.1 148.1 Q96.15 148.1 96.15 148.05 M97.45 156.85 Q99.35 158.85 101.45 161.3 L101.35 161.4 Q103.25 159.15 105.05 157.3 105.15 157.05 105.35 156.9 103.45 155.3 101.4 153.65 99.35 155.3 97.45 156.85 M113.3 104.4 Q112.8 103.5 112.35 104.95 111.85 106.35 111.5 109.3 111.15 112.2 111.1 115.75 111.0 119.3 111.25 122.7 111.55 126.1 112.35 128.5 114.65 122.7 115.15 114.6 115.35 111.5 114.85 109.0 114.3 106.45 113.3 104.4 M63.25 108.0 Q60.0 104.85 56.95 103.9 53.9 102.95 51.4 103.3 48.95 103.7 47.4 104.5 45.85 105.3 45.55 105.6 45.25 105.9 44.5 106.95 43.75 108.0 43.15 109.6 42.55 111.2 42.85 113.05 43.1 114.85 44.85 116.7 45.35 117.25 46.15 117.75 46.95 118.25 47.95 118.25 48.9 118.25 49.95 117.25 50.9 116.2 50.65 115.35 50.4 114.5 49.75 114.0 49.15 113.5 49.05 113.5 49.1 113.45 49.75 113.15 50.45 112.9 51.55 113.05 52.7 113.25 54.0 114.5 55.35 115.95 55.0 117.9 54.6 119.85 53.0 121.5 51.95 122.55 50.1 123.35 48.3 124.15 46.1 123.95 43.95 123.7 41.85 121.75 39.75 119.75 38.15 115.25 38.1 115.3 37.8 116.8 37.5 118.25 37.35 120.45 37.2 122.6 37.7 124.7 38.05 126.25 37.35 127.55 36.65 128.85 35.3 130.1 34.0 131.3 32.45 132.6 36.9 136.25 40.85 136.55 44.85 136.85 47.6 134.35 50.35 131.9 51.1 127.25 51.1 127.25 51.75 127.85 52.35 128.5 53.0 129.6 53.7 130.75 53.9 132.35 54.05 134.0 53.25 136.0 53.45 136.05 54.75 135.85 56.05 135.65 58.15 134.65 60.2 133.6 62.7 131.2 64.65 129.25 66.2 126.6 67.7 124.0 68.15 120.9 68.65 117.85 67.55 114.55 66.45 111.3 63.25 108.0 M25.45 123.5 Q25.9 121.65 27.0 119.45 28.1 117.3 30.0 114.8 29.7 115.2 28.2 116.95 26.75 118.65 24.35 120.8 24.85 122.15 25.45 123.5 M22.8 113.5 Q23.05 113.25 23.25 113.05 24.8 111.45 26.05 109.8 27.35 108.1 28.95 106.05 30.6 104.0 33.25 101.3 34.6 99.9 36.8 98.3 38.95 96.65 41.75 95.3 44.6 93.9 47.95 93.25 48.1 90.55 49.05 88.85 50.05 87.15 51.0 86.35 52.0 85.55 52.05 85.55 52.0 85.65 50.55 86.15 49.1 86.6 46.45 86.6 43.85 86.6 40.35 85.2 35.7 87.15 31.25 91.5 26.25 96.55 24.3 102.25 22.3 107.9 22.8 113.5 M200.2 108.05 Q201.55 109.35 202.3 111.6 203.05 113.85 202.5 116.6 201.9 119.4 199.1 122.3 195.95 125.35 192.7 126.0 189.5 126.6 186.45 125.6 184.55 130.4 182.05 134.2 179.5 137.95 176.95 140.4 172.3 144.9 166.6 149.25 160.95 153.65 153.45 157.75 147.6 160.9 144.25 163.75 140.95 166.6 139.5 168.95 138.05 171.3 137.8 173.05 137.5 174.75 137.75 175.7 138.0 176.65 138.05 176.65 135.35 172.9 134.95 169.55 134.6 166.15 135.8 163.25 137.05 160.35 139.1 158.05 141.2 155.7 143.35 154.05 145.5 152.35 147.0 151.5 148.5 150.6 148.55 150.6 146.5 150.9 144.85 149.9 143.25 148.9 142.15 147.35 141.05 145.8 140.5 144.6 139.9 143.35 139.9 143.3 140.95 142.3 141.9 141.55 139.75 141.25 137.25 139.45 134.7 137.7 132.35 135.3 130.0 133.05 127.95 129.4 125.9 125.75 125.15 121.2 124.35 116.65 125.9 111.65 127.45 106.6 132.35 101.6 136.05 97.95 139.65 95.95 143.2 93.95 146.6 93.3 145.45 92.15 143.6 90.9 141.7 89.65 139.2 88.85 136.65 88.0 133.6 88.2 130.5 88.4 126.9 90.2 123.35 92.0 119.35 95.9 118.55 96.65 117.8 97.45 117.35 96.85 117.85 97.55 120.4 100.85 121.9 105.5 123.35 110.1 123.1 116.65 122.75 123.2 121.05 128.3 119.35 133.4 116.85 137.4 119.25 140.95 122.4 143.85 125.55 146.75 129.25 148.7 L129.25 150.2 Q129.25 150.15 127.7 150.7 126.2 151.2 123.45 152.65 120.75 154.1 117.2 156.85 119.85 159.55 121.4 163.05 122.95 166.55 123.0 171.3 122.95 174.95 121.3 178.55 121.35 178.6 120.4 180.35 119.45 182.1 117.1 185.35 117.05 185.35 117.0 185.35 117.05 185.35 117.1 185.4 114.65 188.5 111.9 191.2 109.2 193.85 106.8 195.8 104.45 197.8 102.9 198.9 101.4 200.0 101.35 200.0 101.3 199.95 99.1 198.4 96.95 196.8 93.75 194.0 90.55 191.2 87.35 187.55 84.15 183.9 82.0 179.75 79.85 175.6 79.75 171.3 79.8 166.6 81.3 163.15 82.8 159.7 85.4 157.0 L85.45 157.05 Q85.45 157.0 85.4 156.95 81.85 154.2 79.2 152.75 76.5 151.25 75.0 150.7 73.5 150.15 73.5 150.2 L73.5 148.7 Q77.15 146.75 80.25 143.95 83.35 141.15 85.75 137.7 L85.8 137.7 Q85.8 137.6 85.8 137.5 83.3 133.45 81.65 128.3 80.0 123.15 79.65 116.65 79.4 110.15 80.85 105.5 82.35 100.85 84.9 97.55 84.2 96.7 83.4 95.9 79.4 92.0 75.85 90.2 72.25 88.4 69.15 88.2 66.05 88.0 63.55 88.85 61.05 89.65 59.15 90.9 57.3 92.15 56.15 93.3 59.5 93.95 63.1 95.95 66.7 97.95 70.4 101.6 75.3 106.6 76.85 111.65 78.4 116.65 77.6 121.2 76.8 125.75 74.75 129.4 72.7 133.05 70.4 135.3 68.05 137.7 65.5 139.45 63.0 141.2 60.85 141.55 61.8 142.3 62.85 143.3 62.85 143.35 62.25 144.6 61.7 145.8 60.6 147.35 59.5 148.9 57.9 149.9 56.25 150.9 54.2 150.6 54.25 150.6 55.75 151.5 57.25 152.35 59.4 154.05 61.55 155.7 63.65 158.05 65.7 160.35 66.95 163.25 68.15 166.2 67.8 169.55 67.45 172.9 64.7 176.65 64.75 176.6 65.0 175.7 65.2 174.75 64.95 173.05 64.7 171.3 63.25 168.95 61.8 166.6 58.5 163.75 55.15 160.95 49.3 157.75 41.8 153.65 36.1 149.25 30.45 144.9 25.8 140.4 23.25 137.95 20.7 134.2 18.15 130.4 16.3 125.6 13.25 126.6 10.05 126.0 6.8 125.35 3.65 122.3 0.85 119.4 0.25 116.6 -0.35 113.85 0.45 111.6 1.2 109.35 2.5 108.05 4.3 106.35 6.05 106.4 7.75 106.4 9.0 107.5 10.2 108.6 10.45 110.0 10.45 110.0 9.85 109.8 9.25 109.65 8.4 109.75 7.6 109.85 6.75 110.6 5.55 111.85 5.95 113.75 6.4 115.7 8.3 117.65 9.65 118.95 11.2 119.2 12.75 119.45 14.4 118.95 13.35 113.9 13.9 108.45 14.45 102.95 17.15 97.35 19.85 91.7 25.25 86.25 29.15 82.4 32.95 80.0 31.05 77.7 30.6 75.6 30.15 73.45 30.5 71.75 30.8 70.05 31.3 69.05 31.8 68.0 31.85 68.0 31.85 68.1 32.1 69.05 32.4 70.0 33.25 70.9 34.1 71.85 35.8 71.8 37.2 71.65 38.65 70.55 40.1 69.45 41.75 68.2 43.4 66.9 45.35 66.2 47.3 65.45 49.7 66.05 52.1 66.6 55.1 69.25 55.05 69.2 54.65 67.95 54.25 66.7 54.1 64.65 54.0 62.55 54.85 60.05 55.65 57.55 58.1 55.05 61.05 52.15 63.7 51.25 66.4 50.35 68.65 50.75 70.9 51.1 72.6 52.05 74.25 53.05 75.15 53.9 76.1 54.75 76.1 54.8 76.05 54.75 74.85 54.7 73.65 54.65 71.7 55.35 69.75 56.05 67.45 58.25 64.9 60.85 64.95 63.2 65.0 65.6 66.95 67.85 68.9 70.15 72.05 72.45 75.2 74.75 78.85 77.15 82.45 79.6 85.85 82.3 89.25 85.0 91.7 88.05 92.3 88.85 92.85 89.6 92.85 89.6 92.9 89.6 94.5 88.3 95.95 87.0 93.8 84.65 92.45 81.7 91.1 78.7 91.1 74.8 91.1 74.85 90.15 75.65 89.25 76.4 87.6 76.75 85.95 77.1 83.85 75.95 82.25 75.05 80.85 73.0 79.5 71.0 79.05 67.85 78.6 64.65 79.7 60.35 80.75 56.05 84.1 50.6 84.7 49.7 85.25 48.95 85.3 48.95 85.35 48.95 81.1 46.5 76.95 45.1 72.85 43.65 69.45 43.55 66.05 43.45 63.95 44.9 63.9 44.85 64.15 42.9 64.4 40.95 65.75 38.0 67.1 35.05 70.25 31.9 73.7 28.7 76.95 27.35 80.25 25.95 82.9 25.7 85.55 25.45 87.15 25.65 88.7 25.9 88.75 25.95 88.7 25.9 88.4 24.7 88.05 23.55 88.0 21.55 87.9 19.55 88.6 17.2 89.25 14.8 91.2 12.4 94.55 8.55 97.2 5.7 99.9 2.85 101.35 0.0 102.85 2.85 105.5 5.7 108.2 8.55 111.5 12.4 113.45 14.8 114.15 17.2 114.8 19.55 114.75 21.55 114.65 23.55 114.35 24.7 114.05 25.9 114.0 25.95 114.05 25.9 115.6 25.65 117.2 25.45 119.85 25.7 122.5 25.95 125.8 27.3 129.05 28.7 132.5 31.9 135.65 35.05 137.0 38.0 138.3 40.95 138.6 42.9 138.85 44.85 138.8 44.9 136.7 43.45 133.3 43.55 129.9 43.6 125.8 45.0 121.65 46.4 117.45 48.8 118.05 49.65 118.6 50.6 121.95 56.05 123.05 60.35 124.15 64.65 123.7 67.85 123.2 71.0 121.85 73.0 120.5 75.05 118.9 75.95 116.8 77.1 115.15 76.75 113.5 76.4 112.6 75.65 111.65 74.9 111.65 74.8 111.65 78.75 110.35 81.7 109.0 84.65 106.8 87.0 106.85 87.05 106.9 87.15 108.35 88.35 109.8 89.6 110.4 90.05 110.2 89.9 109.95 89.7 109.85 89.6 110.45 88.8 111.05 88.05 113.5 85.0 116.9 82.3 120.25 79.6 123.9 77.15 127.5 74.75 130.65 72.45 133.8 70.15 135.75 67.85 137.75 65.6 137.8 63.2 137.85 60.85 135.3 58.25 133.0 56.05 131.05 55.35 129.1 54.65 127.9 54.7 126.7 54.75 126.65 54.8 126.65 54.75 127.6 53.9 128.5 53.05 130.15 52.1 131.85 51.1 134.1 50.75 136.35 50.35 139.0 51.25 141.7 52.15 144.65 55.05 147.1 57.55 147.9 60.05 148.75 62.55 148.65 64.6 148.5 66.7 148.1 67.95 147.7 69.2 147.65 69.25 150.6 66.6 153.05 66.05 155.45 65.45 157.4 66.2 159.35 66.9 161.0 68.2 162.65 69.45 164.1 70.55 165.55 71.65 166.95 71.8 168.65 71.8 169.5 70.9 170.35 70.0 170.65 69.05 170.9 68.1 170.9 68.0 170.95 68.05 171.45 69.05 171.95 70.05 172.25 71.75 172.6 73.45 172.1 75.6 171.65 77.75 169.8 80.0 173.6 82.4 177.5 86.25 182.9 91.7 185.6 97.35 188.3 102.95 188.85 108.4 189.4 113.9 188.35 118.95 190.0 119.45 191.55 119.2 193.1 118.95 194.4 117.65 196.35 115.65 196.75 113.75 197.2 111.85 196.0 110.6 195.15 109.85 194.3 109.75 193.45 109.65 192.85 109.8 192.3 110.0 192.25 110.0 192.55 108.6 193.75 107.5 194.95 106.45 196.7 106.4 198.4 106.35 200.2 108.05" fill="#000000" fill-rule="evenodd" stroke="none"/>
    </g>
  </defs>
</svg>
