<?xml version="1.0" encoding="UTF-8" standalone="no"?>
<svg xmlns:ffdec="https://www.free-decompiler.com/flash" xmlns:xlink="http://www.w3.org/1999/xlink" ffdec:objectType="frame" height="200.0px" width="200.0px" xmlns="http://www.w3.org/2000/svg">
  <g transform="matrix(1.0, 0.0, 0.0, 1.0, 0.0, 0.0)">
    <rect fill="#ffffff" height="200.0px" width="200.0px"/>
    <use ffdec:characterId="1" height="200.0" transform="matrix(1.0, 0.0, 0.0, 1.0, 0.0, 0.0)" width="200.0" xlink:href="#shape0"/>
  </g>
  <defs>
    <g id="shape0" transform="matrix(1.0, 0.0, 0.0, 1.0, 0.0, 0.0)">
      <path d="M106.3 125.05 Q105.45 128.95 105.7 133.65 105.95 138.3 107.05 142.95 108.2 147.65 110.1 151.6 111.95 155.55 114.4 158.05 116.65 160.25 119.8 161.2 122.9 162.2 126.1 161.7 129.3 161.2 131.75 158.85 133.5 157.0 134.15 154.8 134.8 152.6 134.8 150.6 134.75 148.55 134.55 147.25 134.3 145.95 134.25 145.9 133.75 147.15 132.65 148.25 131.05 149.8 129.05 150.25 127.05 150.7 125.15 150.15 123.25 149.65 121.85 148.25 120.45 146.8 119.9 144.95 119.3 143.05 119.75 141.05 120.2 139.1 121.85 137.4 123.35 136.0 125.15 135.5 123.6 135.3 122.25 134.65 120.85 134.0 119.8 132.95 118.05 131.2 117.35 128.9 116.6 126.6 117.15 124.2 117.65 121.75 119.7 119.7 121.75 117.65 124.2 117.15 126.6 116.6 128.9 117.35 131.2 118.05 132.95 119.8 135.1 122.0 135.5 125.15 136.0 123.35 137.4 121.85 139.1 120.2 141.05 119.75 143.05 119.3 144.95 119.9 146.85 120.45 148.25 121.85 149.6 123.25 150.15 125.15 150.7 127.05 150.25 129.05 149.8 131.05 148.25 132.65 147.15 133.75 145.9 134.25 145.95 134.3 147.25 134.55 148.55 134.8 150.6 134.8 152.6 134.8 154.8 134.15 157.05 133.5 158.85 131.75 161.15 129.3 161.7 126.1 162.2 122.9 161.25 119.8 160.25 116.65 158.05 114.4 155.55 111.95 151.6 110.1 147.65 108.2 142.95 107.05 138.3 105.95 133.65 105.7 129.0 105.45 125.05 106.3 123.85 109.95 121.15 112.7 119.85 114.0 118.65 114.55 117.45 115.1 115.65 115.65 115.1 117.45 114.55 118.65 114.0 119.85 112.7 121.2 109.95 123.85 106.3 125.05 M67.65 158.85 Q70.05 161.2 73.35 161.9 76.65 162.6 80.25 161.45 83.85 160.3 87.15 157.05 89.6 154.55 91.45 150.75 93.35 146.9 94.5 142.4 95.6 137.85 95.85 133.3 96.1 128.75 95.25 124.85 92.2 123.7 89.65 121.15 88.15 119.7 87.1 118.0 86.0 116.3 85.45 114.55 83.7 114.0 82.0 112.9 80.3 111.85 78.8 110.35 76.3 107.8 75.15 104.75 71.2 103.9 66.65 104.15 62.1 104.35 57.6 105.5 53.1 106.65 49.25 108.55 45.45 110.4 42.95 112.85 39.7 116.15 38.55 119.75 37.35 123.35 38.1 126.65 38.8 129.95 41.15 132.35 43.0 134.1 45.2 134.75 47.4 135.4 49.4 135.4 51.45 135.4 52.75 135.15 54.05 134.95 54.1 134.9 52.85 134.35 51.75 133.25 50.2 131.65 49.75 129.65 49.3 127.7 49.85 125.75 50.35 123.85 51.75 122.45 53.15 121.05 55.05 120.5 56.95 119.9 58.9 120.35 60.9 120.8 62.6 122.45 64.0 123.95 64.45 125.75 64.7 124.2 65.35 122.85 65.95 121.5 67.05 120.4 68.8 118.65 71.0 117.85 73.25 117.05 75.6 117.55 77.95 118.0 80.0 120.0 82.0 122.05 82.45 124.4 82.95 126.75 82.15 129.0 81.35 131.2 79.6 132.95 77.4 135.1 74.25 135.55 76.05 136.0 77.55 137.4 79.2 139.1 79.65 141.1 80.05 143.05 79.5 144.95 78.95 146.85 77.55 148.25 76.15 149.65 74.25 150.15 72.3 150.7 70.35 150.25 68.35 149.8 66.75 148.25 65.65 147.15 65.1 145.9 65.1 145.95 64.85 147.25 64.6 148.55 64.6 150.6 64.6 152.65 65.25 154.85 65.9 157.05 67.65 158.85 M41.95 85.6 Q44.45 88.05 48.4 89.9 52.35 91.8 57.05 92.95 61.7 94.05 66.35 94.3 71.0 94.55 74.95 93.7 76.15 90.05 78.8 87.3 80.15 86.0 81.35 85.45 82.55 84.9 84.35 84.35 84.9 82.55 85.45 81.35 86.0 80.15 87.3 78.8 90.05 76.15 93.7 74.95 94.55 71.0 94.3 66.35 94.05 61.7 92.95 57.05 91.8 52.35 89.9 48.4 88.05 44.45 85.6 41.95 83.35 39.75 80.2 38.8 77.1 37.8 73.9 38.3 70.7 38.8 68.25 41.15 66.5 43.0 65.85 45.2 65.2 47.4 65.2 49.4 65.2 51.45 65.45 52.75 65.65 54.05 65.7 54.1 66.25 52.85 67.35 51.75 68.95 50.2 70.95 49.75 72.95 49.3 74.85 49.85 76.75 50.35 78.15 51.75 79.55 53.15 80.1 55.05 80.7 56.95 80.25 58.95 79.8 60.9 78.15 62.6 76.65 64.05 74.85 64.45 76.4 64.7 77.75 65.35 79.15 66.0 80.2 67.05 81.95 68.8 82.65 71.1 83.4 73.4 82.85 75.8 82.35 78.25 80.3 80.3 78.25 82.35 75.8 82.85 73.4 83.4 71.1 82.65 68.8 81.95 67.05 80.2 64.9 78.0 64.45 74.85 64.0 76.65 62.6 78.15 60.9 79.8 58.95 80.25 56.95 80.7 55.05 80.1 53.15 79.55 51.75 78.15 50.4 76.75 49.85 74.85 49.3 72.95 49.75 70.95 50.2 68.95 51.75 67.35 52.85 66.25 54.1 65.7 54.05 65.7 52.75 65.45 51.45 65.2 49.4 65.2 47.4 65.2 45.2 65.85 42.95 66.5 41.15 68.25 38.85 70.7 38.3 73.9 37.8 77.1 38.75 80.2 39.75 83.35 41.95 85.6 M106.75 115.65 Q108.35 114.05 108.55 112.15 108.8 110.3 108.05 108.05 110.3 108.8 112.2 108.55 114.05 108.35 115.65 106.75 117.15 105.2 117.75 103.15 118.35 101.05 117.85 98.9 117.35 96.7 115.65 94.95 113.75 93.1 111.45 92.65 109.2 92.2 107.05 92.95 107.8 90.8 107.35 88.55 106.9 86.25 105.05 84.35 103.3 82.65 101.1 82.15 98.95 81.65 96.85 82.25 94.8 82.85 93.25 84.35 91.65 85.95 91.45 87.8 91.2 89.7 91.95 91.95 89.7 91.2 87.8 91.45 85.95 91.65 84.35 93.25 82.85 94.8 82.25 96.85 81.65 98.95 82.15 101.1 82.65 103.3 84.35 105.05 86.25 106.9 88.55 107.35 90.8 107.75 92.95 107.05 92.2 109.2 92.65 111.45 93.1 113.75 94.95 115.65 96.7 117.35 98.9 117.85 101.05 118.35 103.15 117.75 105.2 117.15 106.75 115.65 M132.35 41.15 Q129.95 38.8 126.65 38.1 123.35 37.4 119.75 38.55 116.15 39.7 112.85 42.95 110.4 45.4 108.55 49.25 106.65 53.1 105.5 57.6 104.4 62.15 104.15 66.7 103.9 71.25 104.75 75.15 107.8 76.3 110.35 78.8 111.85 80.3 112.9 82.0 114.0 83.7 114.55 85.45 116.3 86.0 118.0 87.1 119.7 88.15 121.15 89.65 123.7 92.2 124.85 95.25 128.8 96.1 133.35 95.85 137.85 95.6 142.4 94.5 146.9 93.35 150.75 91.45 154.55 89.6 157.05 87.15 160.3 83.85 161.45 80.25 162.65 76.65 161.9 73.35 161.2 70.05 158.85 67.65 157.0 65.9 154.8 65.25 152.6 64.6 150.6 64.6 148.55 64.6 147.25 64.85 145.95 65.05 145.9 65.1 147.15 65.65 148.25 66.75 149.8 68.35 150.25 70.35 150.7 72.3 150.15 74.25 149.65 76.15 148.25 77.55 146.85 78.95 144.95 79.5 143.05 80.05 141.05 79.65 139.1 79.2 137.4 77.55 136.0 76.05 135.55 74.25 135.3 75.8 134.65 77.15 134.05 78.5 132.95 79.6 131.2 81.35 129.0 82.15 126.75 82.95 124.4 82.45 122.05 82.0 120.0 80.0 118.0 77.95 117.5 75.6 117.05 73.25 117.85 71.0 118.65 68.8 120.4 67.05 122.6 64.9 125.75 64.45 123.95 64.0 122.45 62.6 120.8 60.9 120.35 58.9 119.9 56.95 120.5 55.05 121.05 53.15 122.45 51.75 123.85 50.35 125.75 49.85 127.7 49.3 129.65 49.75 131.65 50.15 133.25 51.75 134.35 52.85 134.9 54.1 134.9 54.05 135.15 52.75 135.4 51.45 135.4 49.4 135.4 47.35 134.75 45.15 134.1 42.95 132.35 41.15 M137.6 165.5 Q134.25 168.75 130.75 169.95 127.2 171.15 123.8 170.9 120.35 170.65 117.4 169.5 114.4 168.4 112.2 167.0 110.0 165.55 108.9 164.45 107.15 162.65 106.05 161.0 104.95 159.35 104.4 158.25 103.9 157.2 103.9 157.15 103.6 160.15 103.5 163.9 103.4 167.7 103.45 171.2 103.45 174.75 103.55 177.05 103.6 179.35 103.6 179.45 105.8 178.05 108.1 178.4 110.45 178.7 112.05 180.3 113.2 181.5 113.7 183.15 114.2 184.8 113.85 186.55 113.45 188.3 112.05 189.75 110.65 191.1 109.0 191.5 107.35 191.9 105.7 191.45 106.2 193.1 105.9 194.85 105.55 196.6 104.15 198.05 103.2 199.0 102.05 199.5 100.9 199.95 99.7 200.0 98.5 199.95 97.35 199.5 96.2 199.0 95.25 198.05 93.85 196.6 93.5 194.85 93.15 193.1 93.65 191.45 92.05 191.9 90.4 191.5 88.75 191.1 87.35 189.75 85.95 188.3 85.55 186.55 85.2 184.8 85.7 183.15 86.15 181.5 87.35 180.3 88.95 178.7 91.3 178.4 93.6 178.05 95.75 179.45 95.8 179.35 95.85 177.05 95.9 174.75 95.95 171.25 96.0 167.7 95.9 163.95 95.8 160.15 95.5 157.15 95.5 157.2 95.05 158.35 94.6 159.55 93.6 161.3 92.55 163.05 90.8 164.85 89.7 166.0 87.5 167.35 85.25 168.75 82.2 169.8 79.15 170.85 75.7 171.05 72.2 171.25 68.65 170.05 65.05 168.8 61.75 165.55 58.55 162.25 57.3 158.8 56.05 155.3 56.15 152.1 56.2 148.9 56.95 146.35 57.7 143.8 58.4 142.35 59.15 140.85 59.2 140.8 59.15 140.85 57.65 141.6 56.15 142.35 53.6 143.05 51.1 143.8 47.9 143.85 44.7 143.95 41.2 142.7 37.75 141.45 34.45 138.25 31.2 134.9 29.95 131.35 28.7 127.75 28.9 124.3 29.1 120.8 30.2 117.8 31.25 114.75 32.65 112.55 34.0 110.3 35.1 109.2 36.95 107.45 38.7 106.4 40.45 105.4 41.65 104.95 42.8 104.5 42.85 104.5 39.85 104.2 36.05 104.1 32.3 104.0 28.75 104.05 25.25 104.1 22.95 104.15 20.65 104.25 20.55 104.25 21.95 106.4 21.6 108.7 21.3 111.05 19.7 112.65 18.5 113.8 16.85 114.3 15.2 114.8 13.45 114.45 11.7 114.05 10.25 112.65 8.9 111.25 8.5 109.6 8.1 107.95 8.55 106.35 6.9 106.8 5.15 106.5 3.4 106.15 1.95 104.75 1.0 103.8 0.5 102.65 0.05 101.5 0.0 100.3 0.05 99.1 0.5 97.95 1.0 96.8 1.95 95.85 3.4 94.45 5.15 94.1 6.9 93.8 8.55 94.3 8.1 92.65 8.5 91.0 8.9 89.35 10.25 87.95 11.7 86.55 13.45 86.15 15.2 85.8 16.85 86.3 18.5 86.8 19.7 87.95 21.3 89.6 21.6 91.9 21.95 94.2 20.55 96.4 20.65 96.4 22.95 96.45 25.25 96.55 28.8 96.55 32.3 96.6 36.1 96.5 39.85 96.4 42.85 96.1 42.8 96.1 41.75 95.55 40.65 95.05 39.0 93.95 37.35 92.85 35.55 91.1 34.4 90.0 33.0 87.8 31.6 85.6 30.5 82.65 29.4 79.65 29.15 76.25 28.9 72.85 30.1 69.3 31.3 65.75 34.55 62.45 37.85 59.25 41.35 57.95 44.8 56.65 48.05 56.7 51.3 56.7 53.85 57.4 56.45 58.05 57.95 58.75 59.45 59.45 59.5 59.5 59.45 59.45 58.75 57.95 58.05 56.45 57.4 53.85 56.7 51.3 56.7 48.05 56.65 44.8 57.95 41.35 59.2 37.85 62.45 34.55 65.8 31.3 69.3 30.1 72.85 28.9 76.25 29.15 79.65 29.4 82.65 30.5 85.6 31.6 87.8 33.0 90.0 34.45 91.1 35.55 92.85 37.35 93.95 39.0 95.05 40.65 95.6 41.75 96.1 42.8 96.1 42.85 96.4 39.85 96.5 36.1 96.6 32.3 96.55 28.8 96.55 25.25 96.45 22.95 96.4 20.65 96.4 20.55 94.2 21.95 91.9 21.6 89.55 21.3 87.95 19.7 86.8 18.5 86.3 16.85 85.8 15.2 86.15 13.45 86.55 11.7 87.95 10.25 89.35 8.9 91.0 8.5 92.65 8.1 94.3 8.55 93.8 6.9 94.1 5.15 94.45 3.4 95.85 1.95 96.8 1.0 97.95 0.5 99.1 0.05 100.3 0.0 101.5 0.05 102.65 0.5 103.8 1.0 104.75 1.95 106.15 3.4 106.5 5.15 106.85 6.85 106.35 8.5 107.95 8.1 109.6 8.5 111.25 8.9 112.65 10.25 114.05 11.7 114.45 13.45 114.8 15.2 114.3 16.85 113.8 18.5 112.65 19.7 111.05 21.3 108.7 21.6 106.4 21.95 104.25 20.55 104.2 20.65 104.15 22.95 104.1 25.25 104.05 28.75 104.0 32.3 104.1 36.05 104.2 39.85 104.5 42.85 104.5 42.8 104.95 41.65 105.4 40.45 106.4 38.7 107.45 36.95 109.2 35.1 110.3 34.0 112.5 32.65 114.75 31.3 117.75 30.2 120.8 29.15 124.25 28.95 127.75 28.75 131.3 30.0 134.9 31.25 138.2 34.5 141.4 37.8 142.65 41.25 143.9 44.7 143.85 47.9 143.75 51.1 143.05 53.65 142.3 56.2 141.6 57.65 140.85 59.15 140.8 59.2 140.85 59.1 142.35 58.4 143.8 57.7 146.35 56.95 148.9 56.25 152.1 56.15 155.3 56.1 158.75 57.35 162.2 58.55 165.5 61.8 169.55 66.0 170.55 70.45 171.55 74.95 170.65 79.1 169.7 83.2 168.0 86.3 166.3 89.4 164.85 90.8 163.05 92.55 161.3 93.6 159.55 94.6 158.35 95.05 157.2 95.5 157.15 95.5 160.15 95.8 163.9 95.9 167.7 96.0 171.25 95.95 174.75 95.9 177.05 95.85 179.35 95.75 179.45 95.75 178.05 93.6 178.4 91.3 178.7 88.95 180.3 87.35 181.5 86.15 183.15 85.7 184.8 85.2 186.55 85.55 188.3 85.95 189.75 87.35 191.1 88.75 191.5 90.4 191.9 92.05 191.45 93.65 193.1 93.2 194.85 93.5 196.6 93.85 198.05 95.25 199.0 96.2 199.5 97.35 199.95 98.5 200.0 99.7 199.95 100.9 199.5 102.05 199.0 103.2 198.05 104.15 196.6 105.55 194.85 105.9 193.1 106.2 191.45 105.7 191.9 107.35 191.5 109.0 191.1 110.65 189.75 112.05 188.3 113.45 186.55 113.85 184.8 114.2 183.15 113.7 181.5 113.2 180.3 112.05 178.7 110.4 178.4 108.1 178.05 105.8 179.45 103.6 179.35 103.6 177.05 103.55 174.75 103.45 171.2 103.45 167.7 103.4 163.9 103.5 160.15 103.6 157.15 103.9 157.2 103.9 158.25 104.45 159.35 104.95 161.0 106.05 162.65 107.15 164.45 108.9 165.6 110.0 167.0 112.2 168.4 114.4 169.5 117.4 170.65 120.35 170.9 123.8 171.15 127.2 169.95 130.75 168.75 134.3 165.5 137.6 162.2 140.8 158.7 142.1 155.2 143.35 152.0 143.35 148.75 143.3 146.15 142.65 143.55 141.95 142.05 141.25 140.55 140.55 140.5 140.5 140.55 140.55 141.25 142.05 141.95 143.55 142.65 146.15 143.3 148.75 143.35 152.0 143.35 155.2 142.1 158.7 140.8 162.2 137.6 165.5" fill="#000000" fill-rule="evenodd" stroke="none"/>
    </g>
  </defs>
</svg>
