<?xml version="1.0" encoding="UTF-8" standalone="no"?>
<svg xmlns:ffdec="https://www.free-decompiler.com/flash" xmlns:xlink="http://www.w3.org/1999/xlink" ffdec:objectType="frame" height="200.0px" width="199.0px" xmlns="http://www.w3.org/2000/svg">
  <g transform="matrix(1.0, 0.0, 0.0, 1.0, 0.0, 0.0)">
    <rect fill="#ffffff" height="200.0px" width="199.0px"/>
    <use ffdec:characterId="1" height="19.9" transform="matrix(1.0, 0.0, 0.0, 1.0, 0.0, 135.6)" width="62.75" xlink:href="#shape0"/>
    <use ffdec:characterId="2" height="14.5" transform="matrix(1.0, 0.0, 0.0, 1.0, 5.8, 123.8)" width="69.35" xlink:href="#shape1"/>
    <use ffdec:characterId="3" height="15.8" transform="matrix(1.0, 0.0, 0.0, 1.0, 17.5, 112.4)" width="70.85" xlink:href="#shape2"/>
    <use ffdec:characterId="4" height="16.25" transform="matrix(1.0, 0.0, 0.0, 1.0, 24.45, 99.95)" width="74.95" xlink:href="#shape3"/>
    <use ffdec:characterId="5" height="7.75" transform="matrix(1.0, 0.0, 0.0, 1.0, 60.7, 99.95)" width="32.45" xlink:href="#shape4"/>
    <use ffdec:characterId="6" height="32.45" transform="matrix(1.0, 0.0, 0.0, 1.0, 91.65, 109.65)" width="7.8" xlink:href="#shape5"/>
    <use ffdec:characterId="7" height="59.4" transform="matrix(1.0, 0.0, 0.0, 1.0, 45.6, 140.6)" width="14.3" xlink:href="#shape6"/>
    <use ffdec:characterId="8" height="57.75" transform="matrix(1.0, 0.0, 0.0, 1.0, 57.1, 132.15)" width="14.85" xlink:href="#shape7"/>
    <use ffdec:characterId="9" height="59.45" transform="matrix(1.0, 0.0, 0.0, 1.0, 67.25, 123.6)" width="20.5" xlink:href="#shape8"/>
    <use ffdec:characterId="10" height="72.75" transform="matrix(1.0, 0.0, 0.0, 1.0, 77.8, 103.05)" width="21.8" xlink:href="#shape9"/>
    <use ffdec:characterId="11" height="19.9" transform="matrix(1.0, 0.0, 0.0, 1.0, 0.0, 44.5)" width="62.75" xlink:href="#shape10"/>
    <use ffdec:characterId="12" height="14.45" transform="matrix(1.0, 0.0, 0.0, 1.0, 5.75, 61.65)" width="69.35" xlink:href="#shape11"/>
    <use ffdec:characterId="13" height="15.75" transform="matrix(1.0, 0.0, 0.0, 1.0, 17.5, 71.75)" width="70.85" xlink:href="#shape12"/>
    <use ffdec:characterId="14" height="16.3" transform="matrix(1.0, 0.0, 0.0, 1.0, 24.4, 83.65)" width="74.95" xlink:href="#shape13"/>
    <use ffdec:characterId="15" height="7.8" transform="matrix(1.0, 0.0, 0.0, 1.0, 60.65, 92.2)" width="32.45" xlink:href="#shape14"/>
    <use ffdec:characterId="16" height="32.45" transform="matrix(1.0, 0.0, 0.0, 1.0, 91.6, 57.8)" width="7.8" xlink:href="#shape15"/>
    <use ffdec:characterId="17" height="59.4" transform="matrix(1.0, 0.0, 0.0, 1.0, 45.6, 0.0)" width="14.3" xlink:href="#shape16"/>
    <use ffdec:characterId="18" height="57.75" transform="matrix(1.0, 0.0, 0.0, 1.0, 57.1, 10.05)" width="14.85" xlink:href="#shape17"/>
    <use ffdec:characterId="19" height="59.45" transform="matrix(1.0, 0.0, 0.0, 1.0, 67.25, 16.9)" width="20.5" xlink:href="#shape18"/>
    <use ffdec:characterId="20" height="73.0" transform="matrix(1.0, 0.0, 0.0, 1.0, 77.65, 24.0)" width="21.95" xlink:href="#shape19"/>
    <use ffdec:characterId="21" height="19.9" transform="matrix(1.0, 0.0, 0.0, 1.0, 136.05, 135.6)" width="62.8" xlink:href="#shape20"/>
    <use ffdec:characterId="22" height="14.5" transform="matrix(1.0, 0.0, 0.0, 1.0, 123.65, 123.8)" width="69.4" xlink:href="#shape21"/>
    <use ffdec:characterId="23" height="15.8" transform="matrix(1.0, 0.0, 0.0, 1.0, 110.45, 112.4)" width="70.85" xlink:href="#shape22"/>
    <use ffdec:characterId="24" height="16.25" transform="matrix(1.0, 0.0, 0.0, 1.0, 99.45, 99.95)" width="74.9" xlink:href="#shape23"/>
    <use ffdec:characterId="25" height="7.75" transform="matrix(1.0, 0.0, 0.0, 1.0, 105.7, 99.95)" width="32.45" xlink:href="#shape24"/>
    <use ffdec:characterId="26" height="32.45" transform="matrix(1.0, 0.0, 0.0, 1.0, 99.4, 109.65)" width="7.75" xlink:href="#shape25"/>
    <use ffdec:characterId="27" height="59.4" transform="matrix(1.0, 0.0, 0.0, 1.0, 138.85, 140.6)" width="14.25" xlink:href="#shape26"/>
    <use ffdec:characterId="28" height="57.75" transform="matrix(1.0, 0.0, 0.0, 1.0, 126.65, 132.15)" width="15.05" xlink:href="#shape27"/>
    <use ffdec:characterId="29" height="59.45" transform="matrix(1.0, 0.0, 0.0, 1.0, 111.05, 123.6)" width="20.25" xlink:href="#shape28"/>
    <use ffdec:characterId="30" height="73.0" transform="matrix(1.0, 0.0, 0.0, 1.0, 99.3, 102.95)" width="21.75" xlink:href="#shape29"/>
    <use ffdec:characterId="31" height="19.9" transform="matrix(1.0, 0.0, 0.0, 1.0, 136.1, 44.5)" width="62.8" xlink:href="#shape30"/>
    <use ffdec:characterId="32" height="14.45" transform="matrix(1.0, 0.0, 0.0, 1.0, 123.7, 61.65)" width="69.4" xlink:href="#shape31"/>
    <use ffdec:characterId="33" height="15.75" transform="matrix(1.0, 0.0, 0.0, 1.0, 110.5, 71.75)" width="70.85" xlink:href="#shape32"/>
    <use ffdec:characterId="34" height="16.3" transform="matrix(1.0, 0.0, 0.0, 1.0, 99.5, 83.65)" width="74.95" xlink:href="#shape33"/>
    <use ffdec:characterId="35" height="7.8" transform="matrix(1.0, 0.0, 0.0, 1.0, 105.7, 92.2)" width="32.45" xlink:href="#shape34"/>
    <use ffdec:characterId="36" height="32.45" transform="matrix(1.0, 0.0, 0.0, 1.0, 99.35, 57.8)" width="7.75" xlink:href="#shape35"/>
    <use ffdec:characterId="37" height="59.4" transform="matrix(1.0, 0.0, 0.0, 1.0, 138.85, 0.0)" width="14.25" xlink:href="#shape36"/>
    <use ffdec:characterId="38" height="57.75" transform="matrix(1.0, 0.0, 0.0, 1.0, 126.7, 10.05)" width="15.0" xlink:href="#shape37"/>
    <use ffdec:characterId="39" height="59.45" transform="matrix(1.0, 0.0, 0.0, 1.0, 111.1, 16.9)" width="20.25" xlink:href="#shape38"/>
    <use ffdec:characterId="40" height="73.0" transform="matrix(1.0, 0.0, 0.0, 1.0, 99.35, 24.0)" width="21.75" xlink:href="#shape39"/>
  </g>
  <defs>
    <g id="shape0" transform="matrix(1.0, 0.0, 0.0, 1.0, 0.0, 0.0)">
      <path d="M0.0 19.9 Q-0.2 10.25 6.4 6.8 13.0 3.3 27.4 5.7 34.7 6.8 40.45 6.35 46.25 5.95 50.5 4.75 54.75 3.5 57.3 2.3 59.9 1.05 60.8 0.55 61.9 0.0 62.3 0.0 62.75 0.0 62.75 0.2 62.8 0.35 62.75 0.4 58.4 5.55 52.7 8.75 47.05 11.95 40.95 13.6 34.8 15.2 29.1 15.75 23.35 16.3 18.85 16.2 14.35 16.1 11.9 15.75 8.9 15.45 6.7 16.0 4.45 16.55 3.0 17.45 1.5 18.35 0.75 19.1 0.0 19.85 0.0 19.9" fill="#000000" fill-rule="evenodd" stroke="none"/>
    </g>
    <g id="shape1" transform="matrix(1.0, 0.0, 0.0, 1.0, 0.0, 0.0)">
      <path d="M0.0 14.5 Q2.3 8.65 5.4 5.6 8.5 2.6 12.45 1.75 16.35 0.95 21.15 1.75 25.9 2.55 31.55 4.4 37.2 6.15 42.6 6.35 48.0 6.5 52.6 5.7 57.2 4.9 60.55 3.7 63.9 2.5 65.55 1.45 67.65 0.15 68.45 0.05 69.25 -0.1 69.35 0.25 69.4 0.55 69.35 0.6 63.3 6.55 57.25 9.6 51.2 12.7 45.45 13.7 39.65 14.7 34.4 14.4 29.1 14.15 24.55 13.4 20.05 12.6 16.5 12.15 10.65 11.6 7.0 12.2 3.35 12.8 1.7 13.6 0.0 14.4 0.0 14.5" fill="#000000" fill-rule="evenodd" stroke="none"/>
    </g>
    <g id="shape2" transform="matrix(1.0, 0.0, 0.0, 1.0, 0.0, 0.0)">
      <path d="M0.0 10.35 Q0.6 7.55 2.85 5.2 5.15 2.8 8.9 1.5 12.65 0.15 17.6 0.55 22.6 0.95 28.55 3.75 34.35 6.4 40.45 7.0 46.55 7.6 52.0 6.8 57.45 6.05 61.3 4.7 65.15 3.35 66.4 2.1 67.95 0.6 68.95 0.25 69.95 -0.1 70.4 0.05 70.85 0.25 70.85 0.3 69.15 2.25 65.45 4.85 61.75 7.4 56.75 9.85 51.75 12.3 46.25 13.95 40.7 15.6 35.35 15.8 30.0 15.95 25.6 14.0 20.1 11.5 15.45 10.55 10.8 9.6 7.35 9.65 3.9 9.65 1.95 9.95 0.05 10.3 0.0 10.35" fill="#000000" fill-rule="evenodd" stroke="none"/>
    </g>
    <g id="shape3" transform="matrix(1.0, 0.0, 0.0, 1.0, 0.0, 0.0)">
      <path d="M0.0 11.25 Q1.2 5.0 4.95 2.45 8.7 -0.1 14.05 0.15 19.35 0.35 25.2 2.45 31.1 4.55 36.5 7.6 40.8 9.95 45.25 10.25 49.7 10.6 53.85 9.65 58.05 8.65 61.55 7.1 65.05 5.5 67.4 4.05 69.8 2.55 70.7 1.85 72.8 0.3 73.85 0.1 74.95 -0.05 74.95 0.0 67.35 6.8 60.85 10.45 54.4 14.1 48.9 15.4 43.45 16.65 38.85 16.25 34.2 15.85 30.35 14.55 26.5 13.25 23.3 11.8 20.05 10.35 17.35 9.45 12.1 7.9 8.7 7.95 5.3 7.95 3.4 8.75 1.5 9.55 0.75 10.35 -0.05 11.2 0.0 11.25" fill="#000000" fill-rule="evenodd" stroke="none"/>
    </g>
    <g id="shape4" transform="matrix(1.0, 0.0, 0.0, 1.0, 0.0, 0.0)">
      <path d="M0.0 0.0 L9.6 0.0 Q12.15 2.1 14.9 2.45 17.65 2.8 20.0 2.15 22.35 1.55 23.85 0.8 25.3 0.05 25.35 0.0 L32.45 0.0 Q32.4 0.05 30.9 1.2 29.4 2.3 26.9 3.8 24.4 5.3 21.4 6.5 18.35 7.65 15.3 7.75 10.2 7.8 7.1 6.65 4.05 5.55 2.5 4.0 0.95 2.45 0.45 1.25 -0.05 0.05 0.0 0.0" fill="#000000" fill-rule="evenodd" stroke="none"/>
    </g>
    <g id="shape5" transform="matrix(1.0, 0.0, 0.0, 1.0, 0.0, 0.0)">
      <path d="M7.8 32.45 Q7.75 32.5 6.55 32.0 5.35 31.5 3.8 29.95 2.25 28.4 1.1 25.35 -0.05 22.3 0.0 17.2 0.1 14.1 1.3 11.1 2.45 8.05 3.95 5.55 5.45 3.05 6.6 1.55 7.7 0.05 7.8 0.0 L7.8 7.1 Q7.7 7.15 6.95 8.6 6.2 10.1 5.6 12.45 5.0 14.8 5.35 17.55 5.7 20.3 7.8 22.9 L7.8 32.45" fill="#000000" fill-rule="evenodd" stroke="none"/>
    </g>
    <g id="shape6" transform="matrix(1.0, 0.0, 0.0, 1.0, 0.0, 0.0)">
      <path d="M0.55 59.4 Q0.6 59.4 1.3 59.05 1.95 58.7 2.7 57.55 3.5 56.45 3.75 54.15 4.05 51.85 3.25 48.05 2.55 45.0 1.55 41.3 0.55 37.6 0.15 33.25 -0.3 28.85 0.6 23.75 1.55 18.65 4.7 12.7 7.85 6.8 14.0 0.0 14.05 -0.05 14.3 0.25 14.5 0.55 14.25 1.6 13.95 2.7 12.5 4.95 10.95 7.3 9.65 10.75 8.35 14.2 8.05 18.2 7.8 22.25 9.4 26.45 10.45 29.0 11.75 32.85 13.1 36.7 13.8 41.05 14.5 45.35 13.75 49.3 13.0 53.25 9.9 56.0 6.8 58.7 0.55 59.4" fill="#000000" fill-rule="evenodd" stroke="none"/>
    </g>
    <g id="shape7" transform="matrix(1.0, 0.0, 0.0, 1.0, 0.0, 0.0)">
      <path d="M6.7 57.75 Q8.15 55.4 7.85 52.4 7.55 49.4 6.3 46.0 5.0 42.65 3.5 39.1 1.95 35.55 0.9 32.15 -0.15 28.7 0.05 25.6 0.6 19.2 2.45 14.45 4.3 9.65 6.5 6.5 8.75 3.3 10.4 1.75 12.0 0.2 12.1 0.2 12.15 0.1 12.5 0.0 12.8 -0.1 12.65 0.75 12.45 1.6 10.95 4.3 9.3 7.15 8.35 11.55 7.45 15.95 8.1 21.15 8.8 26.4 11.9 31.7 14.25 35.7 14.85 40.0 15.4 44.3 14.5 48.15 13.6 52.0 11.55 54.6 9.55 57.2 6.7 57.75" fill="#000000" fill-rule="evenodd" stroke="none"/>
    </g>
    <g id="shape8" transform="matrix(1.0, 0.0, 0.0, 1.0, 0.0, 0.0)">
      <path d="M8.8 59.45 Q10.65 52.65 10.6 48.4 10.55 44.15 9.25 41.5 7.95 38.85 6.15 36.85 4.3 34.8 2.65 32.4 1.05 30.0 0.3 26.25 -0.35 22.4 0.45 18.65 1.3 14.85 2.9 11.5 4.5 8.15 6.25 5.6 8.0 3.0 9.25 1.5 10.45 0.05 10.55 0.0 10.6 -0.05 10.85 0.35 11.15 0.7 11.0 2.1 10.8 3.5 9.55 6.45 8.05 9.75 7.85 12.8 7.65 15.8 8.7 19.05 9.75 22.3 12.15 26.25 14.5 30.2 18.1 35.35 20.6 39.05 20.5 42.5 20.4 46.0 18.75 49.0 17.05 52.05 14.85 54.35 12.6 56.65 10.85 58.0 9.05 59.35 8.8 59.45" fill="#000000" fill-rule="evenodd" stroke="none"/>
    </g>
    <g id="shape9" transform="matrix(1.0, 0.0, 0.0, 1.0, 0.0, 0.0)">
      <path d="M21.65 0.0 Q21.85 2.1 21.8 3.15 21.75 4.2 21.7 4.2 21.65 4.25 20.35 5.55 19.05 6.9 17.15 9.15 15.2 11.45 13.3 14.3 11.35 17.2 10.05 20.3 8.75 23.45 8.7 26.5 8.75 30.2 10.05 32.4 11.35 34.65 13.3 36.25 15.2 37.85 17.15 39.7 19.05 41.6 20.35 44.6 21.65 47.6 21.7 52.6 21.65 58.85 20.05 62.8 18.5 66.8 16.45 68.95 14.4 71.1 12.85 71.95 11.3 72.8 11.2 72.75 11.25 72.7 12.0 71.35 12.75 69.95 13.55 67.65 14.4 65.35 14.7 62.5 15.0 59.65 14.2 56.65 13.4 53.65 10.85 50.95 6.1 45.95 3.65 42.05 1.2 38.15 0.5 35.05 -0.25 32.0 0.1 29.55 0.5 27.15 1.35 25.15 2.2 23.15 2.95 21.4 3.7 19.55 5.8 16.9 7.85 14.2 10.55 11.3 13.2 8.4 15.75 5.8 18.25 3.25 19.95 1.65 21.6 0.05 21.65 0.0" fill="#000000" fill-rule="evenodd" stroke="none"/>
    </g>
    <g id="shape10" transform="matrix(1.0, 0.0, 0.0, 1.0, 0.0, 0.0)">
      <path d="M0.0 0.0 Q0.0 0.05 0.75 0.8 1.5 1.5 3.0 2.45 4.45 3.35 6.7 3.9 8.9 4.45 11.9 4.15 14.35 3.8 18.85 3.7 23.35 3.55 29.1 4.1 34.8 4.65 40.95 6.3 47.05 7.95 52.7 11.15 58.4 14.3 62.75 19.5 62.8 19.5 62.75 19.7 62.75 19.9 62.3 19.9 61.9 19.85 60.8 19.3 59.9 18.8 57.3 17.6 54.75 16.35 50.5 15.15 46.25 13.95 40.45 13.5 34.7 13.1 27.4 14.2 13.0 16.6 6.4 13.1 -0.2 9.65 0.0 0.0" fill="#000000" fill-rule="evenodd" stroke="none"/>
    </g>
    <g id="shape11" transform="matrix(1.0, 0.0, 0.0, 1.0, 0.0, 0.0)">
      <path d="M0.0 0.0 Q0.0 0.1 1.7 0.9 3.35 1.7 7.0 2.3 10.65 2.9 16.5 2.3 20.05 1.85 24.55 1.1 29.1 0.3 34.4 0.05 39.65 -0.2 45.45 0.8 51.2 1.8 57.25 4.85 63.3 7.95 69.35 13.85 69.4 13.9 69.35 14.25 69.25 14.55 68.45 14.45 67.65 14.3 65.55 13.05 63.9 12.0 60.55 10.8 57.2 9.6 52.6 8.8 48.0 7.95 42.6 8.15 37.2 8.35 31.55 10.1 25.9 11.95 21.15 12.75 16.35 13.55 12.45 12.7 8.5 11.9 5.4 8.85 2.3 5.85 0.0 0.0" fill="#000000" fill-rule="evenodd" stroke="none"/>
    </g>
    <g id="shape12" transform="matrix(1.0, 0.0, 0.0, 1.0, 0.0, 0.0)">
      <path d="M0.0 5.45 Q0.05 5.5 1.95 5.85 3.9 6.15 7.35 6.15 10.8 6.15 15.45 5.25 20.1 4.3 25.6 1.8 30.0 -0.15 35.35 0.0 40.7 0.2 46.25 1.85 51.75 3.5 56.75 5.95 61.75 8.4 65.45 10.95 69.15 13.5 70.85 15.5 70.85 15.55 70.4 15.75 69.95 15.9 68.95 15.55 67.95 15.2 66.4 13.7 65.15 12.45 61.3 11.1 57.45 9.75 52.0 8.95 46.55 8.2 40.45 8.8 34.35 9.4 28.55 12.05 22.6 14.85 17.6 15.25 12.65 15.65 8.9 14.3 5.15 13.0 2.85 10.6 0.6 8.2 0.0 5.45" fill="#000000" fill-rule="evenodd" stroke="none"/>
    </g>
    <g id="shape13" transform="matrix(1.0, 0.0, 0.0, 1.0, 0.0, 0.0)">
      <path d="M0.0 5.05 Q-0.05 5.1 0.75 5.95 1.5 6.75 3.4 7.6 5.3 8.4 8.7 8.4 12.1 8.4 17.35 6.9 20.05 6.0 23.3 4.55 26.5 3.1 30.35 1.8 34.2 0.45 38.85 0.1 43.45 -0.3 48.9 0.95 54.4 2.2 60.85 5.85 67.35 9.5 74.95 16.3 74.95 16.4 73.85 16.2 72.8 16.0 70.7 14.5 69.8 13.8 67.4 12.3 65.05 10.8 61.55 9.25 58.05 7.65 53.85 6.7 49.7 5.75 45.25 6.05 40.8 6.4 36.5 8.7 31.1 11.75 25.2 13.85 19.35 15.95 14.05 16.2 8.7 16.4 4.95 13.85 1.2 11.3 0.0 5.05" fill="#000000" fill-rule="evenodd" stroke="none"/>
    </g>
    <g id="shape14" transform="matrix(1.0, 0.0, 0.0, 1.0, 0.0, 0.0)">
      <path d="M0.0 7.8 Q-0.05 7.75 0.45 6.55 0.95 5.35 2.5 3.8 4.05 2.25 7.1 1.1 10.2 -0.05 15.3 0.0 18.35 0.1 21.4 1.3 24.4 2.45 26.9 3.95 29.4 5.45 30.9 6.6 32.4 7.7 32.45 7.8 L25.35 7.8 Q25.3 7.7 23.85 6.95 22.35 6.2 20.0 5.6 17.65 5.0 14.9 5.35 12.15 5.7 9.6 7.8 L0.0 7.8" fill="#000000" fill-rule="evenodd" stroke="none"/>
    </g>
    <g id="shape15" transform="matrix(1.0, 0.0, 0.0, 1.0, 0.0, 0.0)">
      <path d="M7.8 0.0 L7.8 9.6 Q5.7 12.15 5.35 14.9 5.0 17.65 5.6 20.0 6.2 22.35 6.95 23.85 7.7 25.3 7.8 25.35 L7.8 32.45 Q7.7 32.4 6.6 30.9 5.45 29.4 3.95 26.9 2.45 24.4 1.3 21.4 0.1 18.35 0.0 15.3 -0.05 10.2 1.1 7.1 2.25 4.05 3.8 2.5 5.35 0.95 6.55 0.45 7.75 -0.05 7.8 0.0" fill="#000000" fill-rule="evenodd" stroke="none"/>
    </g>
    <g id="shape16" transform="matrix(1.0, 0.0, 0.0, 1.0, 0.0, 0.0)">
      <path d="M0.55 0.0 Q6.8 0.65 9.9 3.4 13.0 6.1 13.75 10.1 14.5 14.05 13.8 18.35 13.1 22.7 11.75 26.55 10.45 30.4 9.4 32.95 7.8 37.1 8.05 41.15 8.35 45.2 9.65 48.65 10.95 52.05 12.5 54.4 13.95 56.7 14.25 57.75 14.5 58.85 14.3 59.15 14.05 59.4 14.0 59.4 7.85 52.6 4.7 46.65 1.55 40.75 0.6 35.65 -0.3 30.5 0.15 26.15 0.55 21.75 1.55 18.05 2.55 14.35 3.25 11.3 4.05 7.5 3.75 5.25 3.5 2.95 2.7 1.8 1.95 0.7 1.3 0.35 0.6 -0.05 0.55 0.0" fill="#000000" fill-rule="evenodd" stroke="none"/>
    </g>
    <g id="shape17" transform="matrix(1.0, 0.0, 0.0, 1.0, 0.0, 0.0)">
      <path d="M6.7 0.0 Q9.55 0.55 11.55 3.15 13.6 5.75 14.5 9.6 15.4 13.4 14.85 17.7 14.25 22.0 11.9 26.0 8.8 31.35 8.1 36.55 7.45 41.8 8.35 46.2 9.3 50.55 10.95 53.45 12.45 56.15 12.65 57.0 12.8 57.85 12.5 57.75 12.15 57.65 12.1 57.55 12.0 57.55 10.4 56.0 8.75 54.4 6.5 51.25 4.3 48.1 2.45 43.3 0.6 38.5 0.05 32.1 -0.15 29.05 0.9 25.6 1.95 22.15 3.5 18.65 5.0 15.1 6.3 11.7 7.55 8.35 7.85 5.35 8.15 2.35 6.7 0.0" fill="#000000" fill-rule="evenodd" stroke="none"/>
    </g>
    <g id="shape18" transform="matrix(1.0, 0.0, 0.0, 1.0, 0.0, 0.0)">
      <path d="M8.8 0.0 Q9.05 0.1 10.85 1.45 12.6 2.8 14.85 5.1 17.05 7.4 18.75 10.45 20.4 13.45 20.5 16.95 20.6 20.4 18.1 24.1 14.5 29.25 12.15 33.2 9.75 37.15 8.7 40.4 7.65 43.65 7.85 46.65 8.05 49.7 9.55 53.0 10.8 56.0 11.0 57.35 11.15 58.75 10.85 59.15 10.55 59.5 10.5 59.45 10.45 59.45 9.25 57.95 8.0 56.45 6.25 53.9 4.5 51.3 2.9 47.95 1.3 44.6 0.45 40.8 -0.35 37.05 0.3 33.2 1.05 29.45 2.65 27.05 4.3 24.65 6.15 22.65 7.95 20.6 9.25 17.95 10.55 15.3 10.6 11.05 10.65 6.8 8.8 0.0" fill="#000000" fill-rule="evenodd" stroke="none"/>
    </g>
    <g id="shape19" transform="matrix(1.0, 0.0, 0.0, 1.0, 0.0, 0.0)">
      <path d="M21.85 73.0 Q21.8 72.95 20.1 71.3 18.45 69.7 15.85 67.1 13.3 64.5 10.6 61.55 7.9 58.6 5.8 55.9 3.7 53.2 2.95 51.35 2.2 49.6 1.35 47.6 0.5 45.6 0.1 43.2 -0.25 40.75 0.5 37.7 1.2 34.6 3.65 30.7 6.1 26.8 10.85 21.8 13.4 19.1 14.2 16.1 15.0 13.15 14.7 10.25 14.4 7.4 13.55 5.1 12.75 2.8 12.0 1.4 11.25 0.05 11.2 0.0 11.3 -0.05 12.85 0.8 14.4 1.65 16.45 3.8 18.5 5.95 20.05 9.95 21.65 13.9 21.7 20.15 21.65 25.15 20.35 28.15 19.05 31.15 17.15 33.05 15.2 34.9 13.3 36.5 11.35 38.1 10.05 40.35 8.75 42.55 8.7 46.25 8.75 49.3 10.05 52.45 11.4 55.6 13.3 58.5 15.25 61.35 17.2 63.65 19.15 65.95 20.45 67.3 21.75 68.6 21.8 68.65 21.85 68.65 21.95 69.75 22.1 70.9 21.85 73.0" fill="#000000" fill-rule="evenodd" stroke="none"/>
    </g>
    <g id="shape20" transform="matrix(1.0, 0.0, 0.0, 1.0, 0.0, 0.0)">
      <path d="M62.8 19.9 Q62.8 19.85 62.05 19.1 61.3 18.35 59.8 17.45 58.3 16.55 56.1 16.0 53.85 15.45 50.9 15.75 48.45 16.1 43.95 16.2 39.45 16.3 33.7 15.75 27.95 15.2 21.85 13.6 15.75 11.95 10.05 8.75 4.4 5.55 0.0 0.4 0.0 0.35 0.0 0.2 0.05 0.0 0.45 0.0 0.85 0.0 2.0 0.55 2.85 1.05 5.45 2.3 8.05 3.5 12.3 4.75 16.5 5.95 22.3 6.35 28.1 6.8 35.35 5.7 49.75 3.3 56.4 6.8 63.0 10.25 62.8 19.9" fill="#000000" fill-rule="evenodd" stroke="none"/>
    </g>
    <g id="shape21" transform="matrix(1.0, 0.0, 0.0, 1.0, 0.0, 0.0)">
      <path d="M69.4 14.5 Q69.4 14.4 67.7 13.6 66.0 12.8 62.35 12.2 58.7 11.6 52.85 12.15 49.3 12.6 44.8 13.4 40.25 14.15 35.0 14.4 29.75 14.7 23.95 13.7 18.15 12.7 12.15 9.6 6.1 6.55 0.0 0.6 -0.05 0.55 0.05 0.25 0.15 -0.1 0.9 0.05 1.7 0.15 3.8 1.45 5.45 2.5 8.8 3.7 12.2 4.9 16.8 5.7 21.4 6.5 26.8 6.35 32.15 6.15 37.85 4.4 43.5 2.55 48.25 1.75 53.05 0.95 56.95 1.75 60.9 2.6 64.0 5.6 67.1 8.65 69.4 14.5" fill="#000000" fill-rule="evenodd" stroke="none"/>
    </g>
    <g id="shape22" transform="matrix(1.0, 0.0, 0.0, 1.0, 0.0, 0.0)">
      <path d="M70.85 10.35 Q70.8 10.3 68.9 9.95 66.95 9.65 63.5 9.65 60.05 9.6 55.4 10.55 50.75 11.5 45.25 14.0 40.85 15.95 35.5 15.8 30.15 15.6 24.6 13.95 19.1 12.3 14.1 9.85 9.1 7.4 5.4 4.85 1.7 2.25 0.0 0.3 0.0 0.25 0.45 0.05 0.9 -0.1 1.9 0.25 2.9 0.6 4.45 2.1 5.7 3.35 9.55 4.7 13.4 6.05 18.85 6.8 24.3 7.6 30.4 7.0 36.5 6.4 42.3 3.75 48.25 0.95 53.25 0.55 58.2 0.15 61.95 1.5 65.7 2.8 68.0 5.2 70.3 7.55 70.85 10.35" fill="#000000" fill-rule="evenodd" stroke="none"/>
    </g>
    <g id="shape23" transform="matrix(1.0, 0.0, 0.0, 1.0, 0.0, 0.0)">
      <path d="M74.9 11.25 Q74.95 11.2 74.2 10.35 73.4 9.55 71.5 8.75 69.6 7.95 66.2 7.95 62.8 7.9 57.6 9.45 54.9 10.35 51.65 11.8 48.45 13.25 44.55 14.55 40.7 15.85 36.1 16.25 31.5 16.65 26.0 15.4 20.55 14.1 14.05 10.45 7.6 6.8 0.0 0.0 0.0 -0.05 1.05 0.1 2.15 0.3 4.25 1.85 5.1 2.55 7.5 4.05 9.9 5.5 13.4 7.1 16.9 8.65 21.05 9.65 25.25 10.6 29.7 10.25 34.15 9.95 38.4 7.6 43.8 4.55 49.7 2.45 55.55 0.35 60.9 0.15 66.2 -0.1 69.95 2.45 73.75 5.0 74.9 11.25" fill="#000000" fill-rule="evenodd" stroke="none"/>
    </g>
    <g id="shape24" transform="matrix(1.0, 0.0, 0.0, 1.0, 0.0, 0.0)">
      <path d="M32.45 0.0 Q32.5 0.05 32.0 1.25 31.5 2.45 29.95 4.0 28.4 5.55 25.35 6.65 22.3 7.8 17.2 7.75 14.1 7.65 11.1 6.5 8.05 5.3 5.55 3.8 3.05 2.3 1.55 1.2 0.05 0.05 0.0 0.0 L7.1 0.0 Q7.15 0.05 8.6 0.8 10.1 1.55 12.45 2.15 14.8 2.8 17.55 2.45 20.3 2.1 22.9 0.0 L32.45 0.0" fill="#000000" fill-rule="evenodd" stroke="none"/>
    </g>
    <g id="shape25" transform="matrix(1.0, 0.0, 0.0, 1.0, 0.0, 0.0)">
      <path d="M0.0 32.45 L0.0 22.9 Q2.1 20.3 2.45 17.55 2.8 14.8 2.15 12.45 1.55 10.1 0.8 8.6 0.05 7.15 0.0 7.1 L0.0 0.0 Q0.05 0.05 1.2 1.55 2.3 3.05 3.8 5.55 5.3 8.05 6.5 11.1 7.65 14.1 7.75 17.2 7.8 22.3 6.65 25.35 5.55 28.4 4.0 29.95 2.45 31.5 1.25 32.0 0.05 32.5 0.0 32.45" fill="#000000" fill-rule="evenodd" stroke="none"/>
    </g>
    <g id="shape26" transform="matrix(1.0, 0.0, 0.0, 1.0, 0.0, 0.0)">
      <path d="M13.85 59.4 Q7.55 58.7 4.5 56.0 1.4 53.25 0.65 49.3 -0.1 45.35 0.6 41.05 1.3 36.7 2.6 32.85 3.95 29.0 5.0 26.45 6.6 22.25 6.3 18.2 6.05 14.2 4.75 10.75 3.4 7.3 1.85 4.95 0.45 2.7 0.15 1.6 -0.15 0.55 0.1 0.25 0.3 -0.05 0.35 0.0 6.55 6.8 9.7 12.7 12.85 18.65 13.75 23.75 14.7 28.85 14.25 33.25 13.8 37.6 12.8 41.3 11.8 45.0 11.1 48.05 10.35 51.85 10.65 54.15 10.9 56.45 11.65 57.55 12.45 58.7 13.1 59.05 13.8 59.4 13.85 59.4" fill="#000000" fill-rule="evenodd" stroke="none"/>
    </g>
    <g id="shape27" transform="matrix(1.0, 0.0, 0.0, 1.0, 0.0, 0.0)">
      <path d="M8.35 57.75 Q5.5 57.2 3.5 54.6 1.45 52.0 0.55 48.15 -0.35 44.3 0.2 40.0 0.8 35.7 3.15 31.7 6.3 26.4 6.95 21.15 7.6 15.95 6.7 11.55 5.8 7.15 4.15 4.3 2.6 1.6 2.45 0.75 2.25 -0.1 2.55 0.0 2.9 0.1 2.95 0.2 3.05 0.2 4.7 1.75 6.3 3.3 8.55 6.5 10.75 9.65 12.65 14.45 14.5 19.2 15.05 25.6 15.2 28.7 14.15 32.15 13.1 35.55 11.55 39.1 10.05 42.65 8.75 46.0 7.5 49.4 7.2 52.4 6.9 55.4 8.35 57.75" fill="#000000" fill-rule="evenodd" stroke="none"/>
    </g>
    <g id="shape28" transform="matrix(1.0, 0.0, 0.0, 1.0, 0.0, 0.0)">
      <path d="M11.7 59.45 Q11.45 59.35 9.65 58.0 7.9 56.65 5.7 54.35 3.45 52.05 1.8 49.0 0.1 46.0 0.0 42.5 -0.1 39.05 2.4 35.35 6.05 30.2 8.4 26.25 10.75 22.3 11.8 19.05 12.9 15.8 12.7 12.8 12.5 9.75 11.0 6.45 9.7 3.5 9.55 2.1 9.35 0.7 9.65 0.35 9.95 -0.05 10.0 0.0 10.05 0.05 11.25 1.5 12.5 3.0 14.25 5.6 16.0 8.15 17.65 11.5 19.25 14.85 20.05 18.65 20.9 22.4 20.25 26.25 19.5 30.0 17.85 32.4 16.2 34.8 14.4 36.85 12.55 38.85 11.25 41.5 9.95 44.15 9.9 48.4 9.85 52.65 11.7 59.45" fill="#000000" fill-rule="evenodd" stroke="none"/>
    </g>
    <g id="shape29" transform="matrix(1.0, 0.0, 0.0, 1.0, 0.0, 0.0)">
      <path d="M0.15 0.0 Q0.2 0.05 1.9 1.7 3.55 3.3 6.1 5.9 8.65 8.5 11.3 11.45 14.0 14.4 16.1 17.1 18.15 19.8 18.9 21.65 19.65 23.4 20.5 25.4 21.35 27.4 21.75 29.8 22.1 32.25 21.4 35.3 20.65 38.4 18.2 42.3 15.75 46.2 11.0 51.2 8.45 53.9 7.65 56.9 6.85 59.9 7.15 62.75 7.5 65.6 8.3 67.9 9.15 70.2 9.85 71.6 10.6 72.95 10.65 73.0 10.55 73.05 9.0 72.2 7.45 71.35 5.4 69.2 3.35 67.05 1.8 63.05 0.25 59.1 0.15 52.85 0.2 47.85 1.5 44.85 2.8 41.85 4.7 39.95 6.65 38.1 8.55 36.5 10.5 34.9 11.8 32.65 13.1 30.45 13.15 26.75 13.1 23.7 11.8 20.55 10.5 17.45 8.55 14.55 6.65 11.7 4.7 9.4 2.8 7.15 1.5 5.8 0.2 4.5 0.15 4.45 0.1 4.45 0.0 3.3 -0.05 2.1 0.15 0.0" fill="#000000" fill-rule="evenodd" stroke="none"/>
    </g>
    <g id="shape30" transform="matrix(1.0, 0.0, 0.0, 1.0, 0.0, 0.0)">
      <path d="M62.8 0.0 Q63.0 9.65 56.4 13.1 49.75 16.6 35.35 14.2 28.1 13.1 22.3 13.5 16.5 13.95 12.3 15.15 8.05 16.35 5.45 17.6 2.85 18.8 2.0 19.3 0.85 19.85 0.45 19.9 0.05 19.9 0.0 19.7 0.0 19.5 0.0 19.5 4.4 14.3 10.05 11.15 15.75 7.95 21.85 6.3 27.95 4.65 33.7 4.1 39.45 3.55 43.95 3.7 48.45 3.8 50.9 4.15 53.85 4.45 56.1 3.9 58.3 3.35 59.8 2.45 61.3 1.5 62.05 0.8 62.8 0.05 62.8 0.0" fill="#000000" fill-rule="evenodd" stroke="none"/>
    </g>
    <g id="shape31" transform="matrix(1.0, 0.0, 0.0, 1.0, 0.0, 0.0)">
      <path d="M69.4 0.0 Q67.1 5.85 64.0 8.85 60.9 11.9 56.95 12.7 53.05 13.55 48.25 12.75 43.5 11.95 37.85 10.1 32.15 8.35 26.8 8.15 21.4 7.95 16.8 8.8 12.2 9.6 8.8 10.8 5.45 12.0 3.8 13.05 1.7 14.3 0.9 14.45 0.15 14.55 0.05 14.25 -0.05 13.9 0.0 13.85 6.1 7.95 12.15 4.85 18.15 1.8 23.95 0.8 29.75 -0.2 35.0 0.05 40.25 0.3 44.8 1.1 49.3 1.85 52.85 2.3 58.7 2.9 62.35 2.3 66.0 1.7 67.7 0.9 69.4 0.1 69.4 0.0" fill="#000000" fill-rule="evenodd" stroke="none"/>
    </g>
    <g id="shape32" transform="matrix(1.0, 0.0, 0.0, 1.0, 0.0, 0.0)">
      <path d="M70.85 5.45 Q70.3 8.2 68.0 10.6 65.7 13.0 61.95 14.3 58.2 15.65 53.25 15.25 48.25 14.85 42.3 12.05 36.5 9.4 30.4 8.8 24.3 8.2 18.85 8.95 13.4 9.75 9.55 11.1 5.7 12.45 4.45 13.7 2.9 15.2 1.9 15.55 0.9 15.9 0.45 15.75 0.0 15.55 0.0 15.5 1.7 13.5 5.4 10.95 9.1 8.4 14.1 5.95 19.1 3.5 24.6 1.85 30.15 0.2 35.5 0.0 40.85 -0.15 45.25 1.8 50.75 4.3 55.4 5.25 60.05 6.15 63.5 6.15 66.95 6.15 68.9 5.85 70.8 5.5 70.85 5.45" fill="#000000" fill-rule="evenodd" stroke="none"/>
    </g>
    <g id="shape33" transform="matrix(1.0, 0.0, 0.0, 1.0, 0.0, 0.0)">
      <path d="M74.95 5.05 Q73.75 11.3 69.95 13.85 66.2 16.4 60.9 16.2 55.55 15.95 49.7 13.85 43.8 11.75 38.4 8.7 34.15 6.4 29.7 6.05 25.25 5.75 21.05 6.7 16.9 7.65 13.4 9.25 9.9 10.8 7.5 12.3 5.1 13.8 4.25 14.5 2.15 16.0 1.05 16.2 0.0 16.4 0.0 16.3 7.6 9.5 14.05 5.85 20.55 2.2 26.0 0.95 31.5 -0.3 36.1 0.1 40.7 0.45 44.55 1.8 48.4 3.1 51.65 4.55 54.9 6.0 57.6 6.9 62.8 8.4 66.2 8.4 69.6 8.4 71.5 7.6 73.45 6.75 74.2 5.95 74.95 5.1 74.95 5.05" fill="#000000" fill-rule="evenodd" stroke="none"/>
    </g>
    <g id="shape34" transform="matrix(1.0, 0.0, 0.0, 1.0, 0.0, 0.0)">
      <path d="M32.45 7.8 L22.9 7.8 Q20.3 5.7 17.55 5.35 14.8 5.0 12.45 5.6 10.1 6.2 8.6 6.95 7.15 7.7 7.1 7.8 L0.0 7.8 Q0.05 7.7 1.55 6.6 3.05 5.45 5.55 3.95 8.05 2.45 11.1 1.3 14.1 0.1 17.2 0.0 22.3 -0.05 25.35 1.1 28.4 2.25 29.95 3.8 31.5 5.35 32.0 6.55 32.5 7.75 32.45 7.8" fill="#000000" fill-rule="evenodd" stroke="none"/>
    </g>
    <g id="shape35" transform="matrix(1.0, 0.0, 0.0, 1.0, 0.0, 0.0)">
      <path d="M0.0 0.0 Q0.05 -0.05 1.25 0.45 2.45 0.95 4.0 2.5 5.55 4.05 6.65 7.1 7.8 10.2 7.75 15.3 7.65 18.35 6.5 21.4 5.3 24.4 3.8 26.9 2.3 29.4 1.2 30.9 0.05 32.4 0.0 32.45 L0.0 25.35 Q0.05 25.3 0.8 23.85 1.55 22.35 2.15 20.0 2.8 17.65 2.45 14.9 2.1 12.15 0.0 9.6 L0.0 0.0" fill="#000000" fill-rule="evenodd" stroke="none"/>
    </g>
    <g id="shape36" transform="matrix(1.0, 0.0, 0.0, 1.0, 0.0, 0.0)">
      <path d="M13.85 0.0 Q13.8 -0.05 13.1 0.35 12.45 0.7 11.65 1.8 10.9 2.95 10.65 5.25 10.35 7.5 11.1 11.3 11.8 14.35 12.8 18.05 13.8 21.75 14.25 26.15 14.7 30.5 13.75 35.65 12.85 40.75 9.7 46.65 6.55 52.6 0.35 59.4 0.3 59.4 0.1 59.15 -0.15 58.85 0.15 57.75 0.45 56.7 1.85 54.4 3.4 52.05 4.7 48.65 6.05 45.2 6.3 41.15 6.6 37.1 5.0 32.95 3.95 30.4 2.6 26.55 1.3 22.7 0.6 18.35 -0.1 14.05 0.65 10.1 1.4 6.1 4.5 3.4 7.55 0.65 13.85 0.0" fill="#000000" fill-rule="evenodd" stroke="none"/>
    </g>
    <g id="shape37" transform="matrix(1.0, 0.0, 0.0, 1.0, 0.0, 0.0)">
      <path d="M8.35 0.0 Q6.9 2.35 7.2 5.35 7.5 8.35 8.75 11.7 10.05 15.1 11.55 18.65 13.1 22.15 14.15 25.6 15.2 29.05 15.0 32.1 14.45 38.5 12.6 43.3 10.75 48.1 8.55 51.25 6.3 54.4 4.7 56.0 3.05 57.55 2.95 57.55 2.9 57.65 2.55 57.75 2.25 57.85 2.45 57.0 2.6 56.15 4.1 53.45 5.75 50.55 6.7 46.2 7.6 41.8 6.95 36.55 6.3 31.35 3.15 26.0 0.8 22.0 0.2 17.7 -0.35 13.4 0.55 9.6 1.45 5.75 3.5 3.15 5.5 0.55 8.35 0.0" fill="#000000" fill-rule="evenodd" stroke="none"/>
    </g>
    <g id="shape38" transform="matrix(1.0, 0.0, 0.0, 1.0, 0.0, 0.0)">
      <path d="M11.7 0.0 Q9.85 6.8 9.9 11.05 9.95 15.3 11.25 17.95 12.55 20.6 14.4 22.65 16.2 24.65 17.85 27.05 19.5 29.45 20.25 33.2 20.9 37.05 20.05 40.8 19.25 44.6 17.65 47.95 16.0 51.3 14.25 53.9 12.5 56.45 11.3 57.95 10.05 59.45 10.0 59.45 9.95 59.5 9.65 59.15 9.35 58.75 9.55 57.35 9.7 56.0 11.0 53.0 12.5 49.7 12.7 46.65 12.9 43.65 11.8 40.4 10.75 37.15 8.4 33.2 6.05 29.25 2.4 24.1 -0.1 20.4 0.0 16.95 0.1 13.45 1.8 10.45 3.45 7.4 5.7 5.1 7.9 2.8 9.65 1.45 11.45 0.1 11.7 0.0" fill="#000000" fill-rule="evenodd" stroke="none"/>
    </g>
    <g id="shape39" transform="matrix(1.0, 0.0, 0.0, 1.0, 0.0, 0.0)">
      <path d="M0.15 73.0 Q-0.05 70.9 0.0 69.7 0.1 68.55 0.15 68.55 0.2 68.5 1.5 67.2 2.8 65.85 4.7 63.6 6.65 61.3 8.55 58.45 10.5 55.55 11.8 52.45 13.1 49.3 13.15 46.25 13.1 42.55 11.8 40.35 10.5 38.1 8.55 36.5 6.65 34.9 4.7 33.05 2.8 31.15 1.5 28.15 0.2 25.15 0.15 20.15 0.25 13.9 1.8 9.95 3.35 5.95 5.4 3.8 7.45 1.65 9.0 0.8 10.55 -0.05 10.65 0.0 10.6 0.05 9.85 1.4 9.15 2.8 8.3 5.1 7.5 7.4 7.15 10.25 6.85 13.15 7.65 16.1 8.45 19.1 11.0 21.8 15.75 26.8 18.2 30.7 20.65 34.6 21.35 37.7 22.1 40.75 21.75 43.2 21.35 45.6 20.5 47.6 19.65 49.6 18.9 51.35 18.15 53.2 16.1 55.9 14.0 58.6 11.3 61.55 8.65 64.5 6.1 67.1 3.55 69.7 1.9 71.3 0.2 72.95 0.15 73.0" fill="#000000" fill-rule="evenodd" stroke="none"/>
    </g>
  </defs>
</svg>
