<?xml version="1.0" encoding="UTF-8" standalone="no"?>
<svg xmlns:ffdec="https://www.free-decompiler.com/flash" xmlns:xlink="http://www.w3.org/1999/xlink" ffdec:objectType="frame" height="199.0px" width="200.0px" xmlns="http://www.w3.org/2000/svg">
  <g transform="matrix(1.0, 0.0, 0.0, 1.0, 0.0, 0.0)">
    <rect fill="#ffffff" height="199.0px" width="200.0px"/>
    <use ffdec:characterId="1" height="198.75" transform="matrix(1.0, 0.0, 0.0, 1.0, 0.0, 0.0)" width="200.0" xlink:href="#shape0"/>
  </g>
  <defs>
    <g id="shape0" transform="matrix(1.0, 0.0, 0.0, 1.0, 0.0, 0.0)">
      <path d="M100.0 109.6 Q100.15 109.6 101.75 109.35 103.35 109.15 105.45 108.2 107.55 107.25 109.15 105.15 110.75 103.05 110.85 99.35 110.75 95.7 109.15 93.6 107.55 91.5 105.45 90.55 103.35 89.6 101.75 89.35 100.15 89.1 100.0 89.15 99.85 89.1 98.25 89.35 96.65 89.6 94.55 90.55 92.45 91.5 90.85 93.6 89.25 95.65 89.15 99.35 89.25 103.05 90.85 105.15 92.45 107.25 94.55 108.2 96.65 109.15 98.25 109.4 99.85 109.65 100.0 109.6 M200.0 99.35 Q200.0 99.4 200.0 99.4 199.85 99.65 198.75 100.85 197.7 102.0 195.6 103.35 193.55 104.65 190.45 105.35 187.3 106.1 183.1 105.45 178.85 104.85 173.45 102.15 173.55 102.15 174.95 103.05 176.4 104.0 178.3 105.8 180.15 107.65 181.6 110.4 183.05 113.1 183.1 116.7 183.05 121.45 180.9 124.75 178.7 128.05 175.35 129.8 171.95 131.5 168.3 131.5 164.15 131.45 161.15 129.8 158.15 128.1 156.5 125.4 154.85 122.7 154.85 119.65 154.9 116.05 155.8 113.95 156.7 111.85 157.85 111.25 159.05 110.7 159.95 111.8 160.85 112.85 160.9 115.65 160.95 118.55 161.85 120.15 162.8 121.75 164.05 122.45 165.35 123.1 166.5 123.2 167.6 123.35 168.1 123.3 169.65 123.3 171.15 122.45 172.6 121.6 173.55 119.9 174.5 118.25 174.55 115.8 174.55 113.3 173.0 111.05 171.5 108.8 168.9 107.35 166.3 105.9 163.0 105.85 160.6 105.85 159.35 105.85 158.1 105.85 157.35 105.85 156.6 105.85 155.7 105.85 154.8 105.85 153.1 105.85 153.1 105.9 152.95 106.85 152.75 107.8 152.15 109.05 151.55 110.3 150.25 111.25 148.9 112.2 146.65 112.25 144.35 112.2 142.95 111.25 141.55 110.3 140.85 109.05 140.15 107.8 139.9 106.85 139.65 105.9 139.65 105.85 138.05 105.85 135.65 105.85 133.2 105.85 130.5 105.85 127.8 105.85 125.4 105.85 123.0 105.85 121.45 105.85 119.95 105.85 119.9 105.85 119.85 105.9 119.0 106.75 118.15 107.65 117.6 108.95 117.05 110.3 117.85 111.65 118.4 112.45 120.3 114.4 122.2 116.35 124.45 118.55 126.7 120.75 128.35 122.3 130.0 123.9 130.1 123.95 130.5 123.25 132.05 122.6 133.6 121.9 135.6 122.0 137.6 122.1 139.45 123.85 140.85 125.3 141.15 126.75 141.45 128.2 141.15 129.4 140.8 130.65 140.4 131.4 139.95 132.1 139.9 132.15 140.55 133.05 141.8 134.3 143.0 135.55 144.3 136.8 145.65 138.05 146.55 138.85 147.45 139.7 147.5 139.7 147.55 139.75 148.65 140.45 149.8 141.2 151.7 141.9 153.6 142.6 155.95 142.7 158.3 142.8 160.7 141.65 163.15 140.5 165.3 137.5 165.35 137.55 165.7 138.7 166.05 139.9 166.25 141.6 166.45 143.3 166.0 144.95 165.6 146.65 164.15 147.7 162.7 148.8 159.75 148.7 159.8 148.7 160.6 149.55 161.4 150.4 162.2 152.0 163.05 153.6 163.2 155.95 163.4 158.3 162.2 161.25 159.25 162.45 156.85 162.2 154.5 162.0 152.8 161.1 151.15 160.2 150.25 159.35 149.35 158.5 149.35 158.45 149.45 161.45 148.35 162.9 147.3 164.35 145.6 164.75 143.95 165.15 142.25 164.95 140.55 164.75 139.4 164.45 138.25 164.1 138.2 164.05 141.2 161.85 142.35 159.45 143.5 157.0 143.4 154.7 143.3 152.35 142.55 150.45 141.85 148.55 141.15 147.4 140.45 146.3 140.4 146.25 140.35 146.2 139.55 145.3 138.7 144.35 137.45 143.05 136.25 141.75 134.95 140.5 133.7 139.3 132.8 138.65 132.8 138.7 132.05 139.1 131.3 139.55 130.1 139.85 128.85 140.2 127.4 139.9 125.95 139.6 124.5 138.2 122.8 136.35 122.65 134.35 122.55 132.3 123.25 130.8 123.95 129.25 124.6 128.85 124.55 128.75 123.0 127.1 121.4 125.45 119.2 123.2 117.0 120.9 115.1 119.0 113.15 117.1 112.35 116.55 110.95 115.75 109.65 116.35 108.3 116.9 107.45 117.7 106.55 118.55 106.5 118.65 106.5 118.7 106.5 120.2 106.5 121.75 106.5 124.1 106.5 126.5 106.5 129.25 106.5 131.95 106.5 134.35 106.5 136.8 106.5 138.4 106.55 138.35 107.5 138.6 108.45 138.85 109.7 139.6 110.95 140.3 111.9 141.7 112.85 143.1 112.9 145.35 112.85 147.65 111.9 148.95 110.95 150.25 109.7 150.9 108.45 151.5 107.5 151.7 106.55 151.85 106.5 151.85 106.5 153.5 106.5 154.4 106.5 155.3 106.5 156.05 106.5 156.85 106.5 158.05 106.5 159.3 106.5 161.7 106.55 165.0 108.0 167.6 109.45 170.25 111.7 171.75 113.95 173.25 116.45 173.3 118.9 173.25 120.6 172.3 122.25 171.35 123.15 169.85 124.0 168.4 124.0 166.85 124.0 166.35 123.9 165.2 123.75 164.1 123.1 162.8 122.45 161.5 120.85 160.6 119.25 159.7 116.3 159.65 113.5 159.6 112.45 158.7 111.35 157.8 111.95 156.6 112.5 155.4 114.6 154.5 116.7 153.6 120.3 153.55 123.4 153.6 126.1 155.25 128.75 156.85 130.45 159.9 132.15 162.9 132.2 167.0 132.2 170.7 130.45 174.05 128.75 177.45 125.45 179.6 122.15 181.8 117.35 181.85 113.75 181.8 111.05 180.35 108.35 178.9 106.5 177.05 104.65 175.15 103.75 173.7 102.8 172.25 102.8 172.2 105.55 177.65 106.15 181.9 106.75 186.15 106.0 189.3 105.25 192.4 103.9 194.45 102.55 196.5 101.4 197.55 100.25 198.6 100.0 198.7 L100.0 198.75 Q100.0 198.75 100.0 198.75 100.0 198.75 100.0 198.75 L100.0 198.7 Q99.75 198.6 98.6 197.55 97.45 196.5 96.1 194.45 94.75 192.4 94.0 189.3 93.25 186.15 93.85 181.9 94.45 177.65 97.2 172.2 97.2 172.25 96.25 173.7 95.35 175.15 93.5 177.05 91.65 178.9 88.95 180.35 86.25 181.8 82.65 181.85 77.85 181.8 74.55 179.6 71.25 177.45 69.55 174.05 67.8 170.7 67.8 167.0 67.85 162.9 69.55 159.9 71.25 156.85 73.9 155.25 76.6 153.6 79.7 153.55 83.25 153.6 85.4 154.5 87.5 155.4 88.05 156.6 88.65 157.8 87.55 158.7 86.5 159.6 83.7 159.65 80.75 159.65 79.15 160.6 77.55 161.5 76.9 162.8 76.2 164.1 76.1 165.25 75.95 166.35 76.0 166.85 76.0 168.4 76.9 169.85 77.75 171.35 79.4 172.3 81.1 173.25 83.55 173.3 86.0 173.25 88.3 171.75 90.55 170.25 92.0 167.6 93.45 165.0 93.5 161.7 93.5 159.35 93.5 158.1 93.5 156.85 93.5 156.1 93.5 155.35 93.5 154.45 93.5 153.55 93.5 151.85 93.45 151.85 92.5 151.7 91.55 151.5 90.3 150.9 89.05 150.25 88.1 148.95 87.15 147.65 87.1 145.35 87.15 143.1 88.1 141.7 89.05 140.3 90.3 139.6 91.55 138.85 92.5 138.6 93.45 138.4 93.5 138.4 93.5 136.8 93.5 134.35 93.5 131.95 93.5 129.25 93.5 126.5 93.5 124.1 93.5 121.75 93.5 120.2 93.5 118.7 93.5 118.65 93.45 118.55 92.55 117.7 91.7 116.9 90.35 116.3 89.05 115.75 87.65 116.55 86.85 117.1 84.9 119.0 83.0 120.9 80.8 123.2 78.6 125.45 77.05 127.1 75.45 128.75 75.4 128.85 76.05 129.25 76.75 130.8 77.45 132.3 77.35 134.35 77.2 136.35 75.5 138.2 74.05 139.6 72.6 139.9 71.1 140.2 69.9 139.85 68.7 139.55 67.95 139.1 67.2 138.7 67.2 138.65 66.3 139.3 65.05 140.5 63.75 141.75 62.55 143.05 61.3 144.35 60.45 145.3 59.65 146.2 59.6 146.25 59.55 146.25 58.85 147.4 58.15 148.55 57.45 150.45 56.7 152.35 56.6 154.7 56.5 157.0 57.65 159.45 58.8 161.85 61.8 164.05 61.75 164.1 60.6 164.45 59.45 164.75 57.75 164.95 56.05 165.15 54.4 164.75 52.7 164.35 51.65 162.9 50.55 161.4 50.65 158.45 50.65 158.5 49.75 159.35 48.85 160.2 47.2 161.1 45.5 162.0 43.15 162.2 40.75 162.45 37.8 161.25 36.6 158.3 36.75 155.95 36.95 153.6 37.8 152.0 38.6 150.4 39.4 149.55 40.2 148.7 40.25 148.7 37.3 148.8 35.85 147.7 34.4 146.65 34.0 144.95 33.6 143.3 33.75 141.6 33.95 139.85 34.3 138.7 34.65 137.55 34.7 137.5 36.85 140.55 39.3 141.65 41.7 142.8 44.05 142.7 46.4 142.6 48.3 141.9 50.2 141.15 51.35 140.45 52.45 139.75 52.5 139.7 52.55 139.7 53.45 138.85 54.35 138.05 55.7 136.8 57.0 135.55 58.2 134.3 59.45 133.05 60.1 132.15 60.05 132.1 59.6 131.35 59.2 130.65 58.85 129.4 58.55 128.2 58.85 126.75 59.15 125.3 60.55 123.85 62.35 122.1 64.4 122.0 66.4 121.9 67.95 122.6 69.5 123.25 69.9 123.95 70.0 123.9 71.65 122.3 73.3 120.75 75.55 118.55 77.8 116.35 79.7 114.4 81.6 112.45 82.15 111.65 82.95 110.3 82.4 108.95 81.85 107.65 81.0 106.75 80.2 105.9 80.1 105.85 80.05 105.85 78.5 105.85 77.0 105.85 74.6 105.85 72.2 105.85 69.5 105.85 66.8 105.85 64.35 105.85 61.95 105.85 60.35 105.85 60.35 105.9 60.1 106.85 59.85 107.8 59.15 109.05 58.45 110.3 57.05 111.25 55.65 112.2 53.35 112.25 51.1 112.2 49.8 111.25 48.45 110.3 47.85 109.05 47.25 107.8 47.05 106.85 46.9 105.9 46.9 105.85 45.2 105.85 44.3 105.85 43.4 105.85 42.65 105.85 41.9 105.85 40.65 105.85 39.4 105.85 37.0 105.85 33.7 105.9 31.1 107.35 28.5 108.8 27.0 111.05 25.45 113.3 25.45 115.8 25.45 118.25 26.45 119.9 27.4 121.6 28.85 122.45 30.35 123.3 31.9 123.3 32.35 123.35 33.5 123.2 34.65 123.1 35.95 122.45 37.2 121.8 38.15 120.2 39.05 118.6 39.1 115.65 39.15 112.85 40.05 111.75 40.95 110.7 42.15 111.25 43.3 111.85 44.2 113.95 45.1 116.05 45.15 119.65 45.15 122.7 43.5 125.4 41.85 128.1 38.85 129.8 35.85 131.45 31.7 131.5 28.05 131.5 24.65 129.8 21.3 128.05 19.15 124.75 16.95 121.45 16.9 116.7 16.95 113.1 18.4 110.4 19.8 107.65 21.7 105.8 23.6 104.0 25.05 103.05 26.45 102.15 26.55 102.15 21.15 104.85 16.9 105.45 12.7 106.1 9.55 105.35 6.45 104.65 4.35 103.35 2.3 102.0 1.25 100.85 0.15 99.7 0.0 99.4 0.0 99.4 0.0 99.35 0.0 99.35 0.0 99.35 0.15 99.05 1.25 97.9 2.3 96.75 4.4 95.4 6.45 94.1 9.55 93.35 12.7 92.65 16.9 93.25 21.15 93.9 26.55 96.6 26.45 96.6 25.05 95.7 23.6 94.75 21.7 92.9 19.85 91.1 18.4 88.35 16.95 85.65 16.9 82.05 16.95 77.3 19.1 73.95 21.3 70.65 24.65 68.95 28.05 67.2 31.7 67.2 35.85 67.25 38.85 68.95 41.85 70.65 43.5 73.35 45.15 76.0 45.15 79.1 45.1 82.7 44.2 84.8 43.3 86.9 42.15 87.45 40.95 88.05 40.05 86.95 39.15 85.9 39.1 83.1 39.05 80.15 38.15 78.55 37.2 76.95 35.95 76.3 34.65 75.65 33.5 75.5 32.4 75.4 31.9 75.4 30.35 75.45 28.85 76.3 27.4 77.15 26.45 78.8 25.5 80.5 25.45 82.95 25.45 85.4 27.0 87.7 28.5 89.95 31.1 91.4 33.7 92.85 37.0 92.9 39.4 92.9 40.65 92.9 41.9 92.9 42.65 92.9 43.4 92.9 44.3 92.9 45.2 92.9 46.9 92.9 46.9 92.85 47.05 91.9 47.25 90.95 47.85 89.7 48.45 88.45 49.75 87.5 51.1 86.55 53.35 86.5 55.65 86.55 57.05 87.5 58.45 88.45 59.15 89.7 59.85 90.95 60.1 91.9 60.35 92.85 60.35 92.9 61.95 92.9 64.35 92.9 66.8 92.9 69.5 92.9 72.2 92.9 74.6 92.9 77.0 92.9 78.55 92.9 80.05 92.9 80.1 92.9 80.15 92.85 81.0 91.95 81.85 91.1 82.4 89.75 82.95 88.45 82.15 87.05 81.6 86.25 79.7 84.3 77.8 82.4 75.55 80.2 73.3 78.0 71.65 76.45 70.0 74.85 69.9 74.8 69.5 75.45 67.95 76.15 66.4 76.85 64.4 76.75 62.4 76.6 60.55 74.9 59.15 73.45 58.85 72.0 58.55 70.55 58.85 69.3 59.2 68.1 59.6 67.35 60.05 66.6 60.1 66.6 59.45 65.7 58.2 64.45 57.0 63.15 55.7 61.95 54.35 60.7 53.45 59.85 52.55 59.05 52.5 59.0 52.45 58.95 51.35 58.25 50.2 57.55 48.3 56.85 46.4 56.1 44.05 56.0 41.7 55.9 39.3 57.05 36.85 58.2 34.7 61.2 34.65 61.2 34.3 60.0 33.95 58.85 33.75 57.15 33.55 55.45 34.0 53.8 34.4 52.1 35.85 51.05 37.3 49.95 40.25 50.05 40.2 50.05 39.4 49.2 38.6 48.35 37.8 46.75 36.95 45.1 36.8 42.8 36.6 40.45 37.8 37.5 40.75 36.3 43.15 36.5 45.5 36.75 47.2 37.65 48.85 38.5 49.75 39.35 50.65 40.2 50.65 40.25 50.55 37.3 51.65 35.85 52.7 34.4 54.4 34.0 56.05 33.6 57.75 33.75 59.45 33.95 60.6 34.3 61.75 34.65 61.8 34.7 58.8 36.85 57.65 39.3 56.5 41.7 56.6 44.05 56.7 46.4 57.45 48.3 58.15 50.2 58.85 51.35 59.55 52.45 59.6 52.5 59.65 52.55 60.45 53.45 61.3 54.35 62.55 55.7 63.75 57.0 65.05 58.2 66.3 59.45 67.2 60.1 67.2 60.05 67.95 59.6 68.7 59.2 69.9 58.85 71.15 58.55 72.6 58.85 74.05 59.15 75.5 60.55 77.2 62.35 77.35 64.4 77.45 66.4 76.75 67.95 76.05 69.5 75.4 69.9 75.45 70.0 77.05 71.65 78.6 73.3 80.8 75.55 83.0 77.85 84.9 79.75 86.85 81.65 87.65 82.2 89.05 82.95 90.35 82.4 91.7 81.85 92.55 81.0 93.45 80.2 93.5 80.1 93.5 80.05 93.5 78.5 93.5 77.0 93.5 74.6 93.5 72.2 93.5 69.5 93.5 66.8 93.5 64.35 93.5 61.95 93.5 60.35 93.45 60.35 92.5 60.1 91.55 59.85 90.3 59.15 89.05 58.45 88.1 57.05 87.15 55.65 87.1 53.35 87.15 51.1 88.1 49.8 89.05 48.45 90.3 47.85 91.55 47.25 92.5 47.05 93.45 46.9 93.5 46.9 93.5 45.2 93.5 44.3 93.5 43.4 93.5 42.65 93.5 41.9 93.5 40.65 93.5 39.4 93.5 37.0 93.45 33.7 92.0 31.1 90.55 28.5 88.3 27.0 86.05 25.45 83.55 25.45 81.1 25.45 79.4 26.45 77.75 27.4 76.85 28.85 76.0 30.35 76.0 31.9 76.0 32.35 76.1 33.5 76.25 34.65 76.9 35.95 77.55 37.2 79.15 38.15 80.75 39.05 83.7 39.1 86.5 39.15 87.55 40.05 88.65 40.95 88.05 42.15 87.5 43.3 85.4 44.2 83.3 45.1 79.7 45.15 76.6 45.15 73.9 43.5 71.25 41.85 69.55 38.85 67.85 35.85 67.8 31.7 67.85 28.05 69.55 24.65 71.25 21.3 74.55 19.15 77.85 16.95 82.65 16.9 86.25 16.95 88.95 18.4 91.65 19.8 93.5 21.7 95.35 23.6 96.25 25.05 97.2 26.45 97.2 26.55 94.45 21.1 93.85 16.85 93.25 12.6 94.0 9.45 94.75 6.35 96.1 4.25 97.45 2.2 98.6 1.15 99.75 0.1 100.0 0.0 100.0 0.0 100.0 0.0 100.0 0.0 100.0 0.0 100.25 0.1 101.4 1.15 102.6 2.2 103.9 4.25 105.25 6.35 106.0 9.45 106.75 12.6 106.15 16.85 105.55 21.1 102.8 26.55 102.8 26.45 103.75 25.05 104.65 23.6 106.5 21.7 108.35 19.85 111.05 18.4 113.75 16.95 117.35 16.9 122.15 16.95 125.45 19.1 128.75 21.3 130.45 24.65 132.2 28.05 132.2 31.7 132.15 35.85 130.45 38.85 128.75 41.85 126.1 43.5 123.4 45.15 120.3 45.15 116.75 45.1 114.6 44.2 112.5 43.3 111.95 42.15 111.35 40.95 112.45 40.05 113.5 39.15 116.3 39.1 119.25 39.05 120.85 38.15 122.45 37.2 123.1 35.95 123.8 34.65 123.9 33.5 124.05 32.4 124.0 31.9 124.0 30.35 123.1 28.85 122.25 27.4 120.6 26.45 118.9 25.5 116.45 25.45 114.0 25.45 111.7 27.0 109.45 28.5 108.0 31.1 106.55 33.7 106.5 37.0 106.5 39.4 106.5 40.65 106.5 41.9 106.5 42.65 106.5 43.4 106.5 44.3 106.5 45.2 106.5 46.9 106.55 46.9 107.5 47.05 108.45 47.25 109.7 47.85 110.95 48.45 111.9 49.75 112.85 51.1 112.9 53.35 112.85 55.65 111.9 57.05 110.95 58.45 109.7 59.15 108.45 59.85 107.5 60.1 106.55 60.35 106.5 60.35 106.5 61.95 106.5 64.35 106.5 66.8 106.5 69.5 106.5 72.2 106.5 74.6 106.5 77.0 106.5 78.55 106.5 80.05 106.5 80.1 106.55 80.15 107.45 81.0 108.3 81.85 109.65 82.4 110.95 82.95 112.35 82.2 113.15 81.6 115.1 79.7 117.0 77.8 119.2 75.55 121.4 73.3 122.95 71.65 124.55 70.0 124.6 69.9 123.95 69.5 123.25 67.95 122.55 66.4 122.65 64.4 122.8 62.4 124.5 60.55 125.95 59.15 127.4 58.85 128.9 58.55 130.1 58.85 131.3 59.2 132.05 59.6 132.8 60.05 132.8 60.1 133.7 59.45 134.95 58.2 136.25 57.0 137.45 55.7 138.7 54.35 139.55 53.45 140.35 52.55 140.4 52.5 140.45 52.45 141.15 51.35 141.85 50.2 142.55 48.3 143.3 46.4 143.4 44.05 143.5 41.7 142.35 39.3 141.2 36.85 138.2 34.7 138.25 34.65 139.4 34.3 140.55 33.95 142.25 33.75 143.95 33.55 145.6 34.0 147.3 34.4 148.35 35.85 149.45 37.3 149.35 40.25 149.35 40.2 150.25 39.35 151.15 38.55 152.8 37.65 154.5 36.75 156.85 36.55 159.25 36.3 162.2 37.5 163.4 40.45 163.25 42.8 163.05 45.1 162.2 46.75 161.4 48.35 160.6 49.2 159.8 50.05 159.75 50.05 162.7 49.95 164.15 51.05 165.6 52.1 166.0 53.8 166.4 55.45 166.25 57.15 166.05 58.85 165.7 60.0 165.35 61.15 165.3 61.2 163.15 58.2 160.7 57.05 158.3 55.9 155.95 56.0 153.6 56.1 151.7 56.85 149.8 57.55 148.65 58.25 147.55 58.95 147.5 59.0 147.45 59.05 146.55 59.85 145.65 60.7 144.3 61.95 143.0 63.15 141.8 64.45 140.55 65.7 139.9 66.6 139.95 66.65 140.4 67.35 140.8 68.1 141.15 69.3 141.45 70.55 141.15 72.0 140.85 73.45 139.45 74.9 137.65 76.6 135.6 76.75 133.6 76.85 132.05 76.15 130.5 75.45 130.1 74.8 130.0 74.85 128.35 76.45 126.7 78.0 124.45 80.2 122.2 82.4 120.3 84.3 118.4 86.25 117.85 87.05 117.05 88.45 117.6 89.75 118.15 91.1 119.0 91.95 119.8 92.85 119.9 92.9 119.95 92.9 121.5 92.9 123.0 92.9 125.4 92.9 127.8 92.9 130.5 92.9 133.2 92.9 135.65 92.9 138.05 92.9 139.65 92.9 139.65 92.85 139.9 91.9 140.15 90.95 140.85 89.7 141.55 88.45 142.95 87.5 144.35 86.55 146.65 86.5 148.9 86.55 150.2 87.5 151.55 88.45 152.15 89.7 152.75 90.95 152.95 91.9 153.1 92.85 153.1 92.9 154.8 92.9 155.7 92.9 156.6 92.9 157.35 92.9 158.1 92.9 159.35 92.9 160.6 92.9 163.0 92.9 166.3 92.85 168.9 91.4 171.5 89.95 173.0 87.7 174.55 85.45 174.55 82.95 174.55 80.5 173.55 78.8 172.6 77.15 171.15 76.3 169.65 75.4 168.1 75.4 167.65 75.4 166.5 75.5 165.35 75.65 164.05 76.3 162.8 76.95 161.85 78.55 160.95 80.15 160.9 83.1 160.85 85.9 159.95 86.95 159.05 88.05 157.85 87.45 156.7 86.9 155.8 84.8 154.9 82.7 154.85 79.1 154.85 76.0 156.5 73.3 158.15 70.65 161.15 68.95 164.15 67.25 168.3 67.2 171.95 67.25 175.35 68.95 178.7 70.65 180.85 73.95 183.05 77.25 183.1 82.05 183.05 85.65 181.6 88.35 180.2 91.1 178.3 92.9 176.4 94.75 174.95 95.65 173.55 96.6 173.45 96.6 178.85 93.9 183.1 93.3 187.35 92.65 190.45 93.35 193.55 94.1 195.65 95.4 197.7 96.75 198.75 97.9 199.85 99.05 200.0 99.35 200.0 99.35 200.0 99.35" fill="#000000" fill-rule="evenodd" stroke="none"/>
    </g>
  </defs>
</svg>
