<?xml version="1.0" encoding="UTF-8" standalone="no"?>
<svg xmlns:ffdec="https://www.free-decompiler.com/flash" xmlns:xlink="http://www.w3.org/1999/xlink" ffdec:objectType="frame" height="205.0px" width="201.0px" xmlns="http://www.w3.org/2000/svg">
  <g transform="matrix(1.0, 0.0, 0.0, 1.0, 0.0, 0.0)">
    <rect fill="#ffffff" height="205.0px" width="201.0px"/>
    <use ffdec:characterId="1" height="204.75" transform="matrix(1.0, 0.0, 0.0, 1.0, 0.0, 0.0)" width="200.0" xlink:href="#shape0"/>
  </g>
  <defs>
    <g id="shape0" transform="matrix(1.0, 0.0, 0.0, 1.0, 0.0, 0.0)">
      <path d="M66.55 79.4 Q66.5 79.35 67.2 78.55 67.85 77.7 69.35 76.9 70.9 76.1 73.45 76.05 76.9 76.1 78.9 77.0 80.9 77.9 82.15 79.2 83.35 80.55 84.45 81.9 85.6 83.2 87.25 84.1 88.9 85.0 91.75 85.05 95.3 85.05 97.15 84.35 99.0 83.7 99.65 82.8 100.3 81.95 100.35 81.25 100.35 80.6 100.3 80.55 100.25 80.55 99.25 80.05 98.3 79.6 97.3 78.7 96.3 77.8 96.25 76.5 96.3 73.5 97.3 72.2 98.3 70.85 99.25 70.55 100.25 70.2 100.3 70.25 100.35 70.2 101.3 70.05 102.2 69.9 103.45 70.2 104.65 70.55 105.6 72.0 106.5 73.4 106.55 76.5 106.5 80.8 104.55 83.15 102.6 85.5 99.75 86.4 96.9 87.35 94.0 87.35 91.15 87.4 89.2 87.1 87.3 86.85 87.2 86.8 89.55 91.7 92.8 94.4 96.05 97.05 99.25 98.1 102.45 99.2 104.55 99.35 106.65 99.5 106.75 99.45 106.3 99.2 105.85 98.6 105.35 98.0 105.0 97.45 104.65 96.95 104.6 96.9 104.6 96.85 104.7 96.0 104.75 95.2 105.15 94.1 105.5 93.0 106.35 92.15 107.2 91.35 108.7 91.3 110.75 91.35 112.05 92.15 113.4 92.95 114.05 94.05 114.7 95.1 114.7 96.0 114.75 96.7 114.6 97.8 114.5 98.95 113.65 100.1 112.85 101.25 110.8 102.05 108.8 102.85 105.05 102.9 101.3 102.85 98.05 101.5 94.85 100.15 92.25 98.15 89.65 96.15 87.8 94.15 85.95 92.1 85.0 90.75 84.0 89.4 84.0 89.35 84.0 89.4 83.9 90.7 83.8 91.95 83.4 93.85 83.0 95.75 82.2 97.6 81.35 99.5 79.9 100.75 78.0 102.45 77.25 104.35 76.5 106.3 76.35 107.7 76.2 109.05 76.25 109.15 77.1 107.6 78.7 106.65 80.25 105.75 81.9 105.25 83.55 104.75 84.75 104.55 85.9 104.4 85.95 104.4 90.95 104.45 94.15 106.1 97.3 107.75 99.3 110.15 101.3 112.55 102.85 115.0 104.4 117.4 106.15 119.05 107.95 120.7 110.65 120.75 111.9 120.75 114.1 120.05 116.25 119.4 118.75 117.75 121.25 116.15 123.5 113.4 125.75 110.65 127.2 106.5 128.65 102.35 128.7 96.65 128.65 89.45 126.25 82.9 123.8 76.35 119.2 71.25 114.6 66.1 108.1 63.15 101.6 60.2 93.45 60.15 86.9 60.15 80.15 61.8 73.45 63.45 67.3 66.9 61.15 70.3 56.3 75.55 51.45 80.8 48.65 88.0 45.8 95.2 45.75 104.4 45.75 113.65 48.0 122.25 50.2 130.8 54.55 138.1 58.9 145.4 65.25 150.85 71.6 156.3 79.85 159.3 88.15 162.35 98.2 162.4 108.3 162.4 117.5 159.55 126.7 156.75 134.5 151.5 142.3 146.25 148.05 138.85 153.8 131.45 157.0 122.2 160.2 113.0 160.25 102.25 160.2 93.35 158.0 85.6 155.8 77.85 152.35 71.4 148.9 65.0 145.0 60.0 141.1 55.0 137.65 51.5 134.2 48.05 132.0 46.25 129.8 44.45 129.75 44.45 129.75 44.5 129.35 45.4 128.9 46.3 127.85 47.4 126.8 48.5 124.95 49.2 123.1 49.85 120.3 49.4 116.0 48.6 114.05 46.9 112.1 45.2 111.65 43.3 111.2 41.4 111.4 40.05 111.65 38.7 111.7 38.65 111.6 38.7 109.9 38.6 108.2 38.5 105.9 37.75 103.6 37.0 101.75 35.05 99.85 33.1 99.45 29.45 99.2 25.75 100.6 23.6 101.95 21.4 103.85 20.35 105.8 19.3 107.3 19.0 108.8 18.65 108.9 18.7 106.8 14.15 106.75 10.9 106.7 7.65 107.95 5.5 109.2 3.4 110.85 2.2 112.5 1.0 113.8 0.5 115.1 0.0 115.15 0.0 115.1 0.1 115.75 2.5 116.4 4.95 118.1 8.85 119.85 12.7 123.05 17.1 126.2 21.55 131.25 25.55 138.0 30.9 142.3 35.35 146.55 39.85 148.6 42.55 150.6 45.25 150.6 45.35 151.05 37.05 153.25 32.2 155.5 27.4 160.15 25.0 164.8 22.6 172.7 21.5 177.45 20.7 179.85 18.85 182.3 17.0 183.15 14.65 183.95 12.3 183.85 10.1 183.7 7.9 183.3 6.45 182.85 5.0 182.8 4.95 187.05 6.2 190.1 9.3 193.15 12.4 194.65 17.4 195.3 19.9 194.75 21.9 194.2 23.85 193.1 25.25 192.0 26.65 191.1 27.4 190.15 28.15 190.1 28.15 191.65 28.5 192.85 29.75 194.1 31.0 194.9 32.85 195.7 34.65 195.9 36.75 196.05 38.8 194.75 40.8 193.4 42.75 191.6 44.0 189.75 45.3 188.4 45.35 187.05 45.3 185.45 44.75 183.9 44.25 182.75 43.75 181.55 43.25 181.5 43.2 182.15 45.85 181.55 48.6 181.0 51.35 179.55 53.25 178.1 55.1 176.15 55.2 174.15 55.15 171.8 54.5 169.5 53.8 167.8 53.15 166.15 52.45 166.05 52.4 168.15 52.6 169.3 51.75 170.5 50.9 171.05 49.65 171.6 48.4 171.75 47.45 171.85 46.45 171.85 46.4 171.95 46.3 171.7 45.1 171.5 43.95 170.15 42.75 168.75 41.55 165.4 41.45 161.3 41.55 160.1 44.35 158.9 47.15 159.85 51.7 160.8 56.3 163.05 61.75 165.25 67.2 168.0 72.6 170.6 78.0 172.15 83.4 173.7 88.8 174.4 93.3 175.15 97.8 175.35 100.55 175.55 103.25 175.5 103.35 177.0 101.05 178.9 98.95 180.8 96.85 183.15 95.5 185.5 94.15 188.4 94.1 191.35 94.1 194.0 95.0 196.6 95.9 198.3 97.85 199.95 99.8 200.0 102.9 200.0 106.05 198.75 108.75 197.55 111.4 195.35 113.05 193.15 114.65 190.1 114.7 187.85 114.65 186.3 113.85 184.75 113.1 183.8 112.05 182.8 111.0 182.4 110.2 181.95 109.4 181.95 109.35 179.6 109.25 177.75 111.25 175.9 113.25 174.35 116.65 172.8 120.0 171.35 124.1 169.95 128.2 168.4 132.35 166.85 136.5 165.0 140.05 162.8 144.1 159.85 147.7 156.9 151.3 154.05 154.15 151.2 156.95 149.3 158.6 147.45 160.2 147.35 160.25 153.4 158.15 158.95 158.05 164.55 158.0 169.0 160.1 173.45 162.25 176.05 166.8 178.7 171.35 178.75 178.5 178.8 184.2 180.15 187.7 181.5 191.15 183.5 193.0 185.5 194.8 187.5 195.45 189.5 196.1 190.85 196.15 192.2 196.2 192.25 196.15 192.25 196.2 191.4 197.3 190.5 198.4 188.9 199.9 187.25 201.35 185.0 202.5 182.75 203.6 180.0 203.65 175.75 203.55 173.6 201.95 171.5 200.3 170.85 198.15 170.15 196.05 170.25 194.4 170.3 192.8 170.35 192.7 167.2 195.05 164.75 195.5 162.3 196.0 160.5 195.25 158.7 194.45 157.5 193.0 156.3 191.5 155.65 189.95 155.0 188.4 154.9 187.3 154.65 185.55 155.0 183.45 155.35 181.35 156.4 179.75 157.5 178.15 159.4 177.85 161.3 177.7 162.5 178.05 163.7 178.45 164.25 178.9 164.75 179.35 164.75 179.4 165.35 177.35 164.45 175.05 163.6 172.7 160.8 170.9 158.05 169.1 152.95 168.65 147.15 168.25 142.7 169.0 138.25 169.75 134.45 171.1 130.65 172.45 126.8 173.85 122.95 175.25 118.35 176.15 111.4 177.35 106.3 177.3 101.2 177.25 98.4 176.75 95.65 176.2 95.6 176.15 95.65 176.15 96.95 177.1 98.2 178.05 99.9 179.85 101.55 181.6 102.85 184.05 104.15 186.45 104.2 189.45 104.15 194.9 102.95 198.0 101.8 201.15 100.0 202.6 98.25 204.0 96.4 204.4 94.6 204.8 93.25 204.75 91.9 204.75 89.75 204.3 87.6 203.8 85.4 202.6 83.2 201.4 81.7 199.2 80.2 197.0 80.15 193.55 80.2 190.15 81.8 188.3 83.4 186.5 85.5 185.8 87.6 185.1 89.2 185.0 90.75 184.9 90.85 184.95 90.9 184.9 90.45 183.8 89.95 182.7 88.55 181.05 87.1 179.4 84.25 177.7 81.4 176.05 76.7 174.85 71.95 173.7 68.3 171.95 64.65 170.2 62.15 168.45 59.7 166.75 58.4 165.55 57.15 164.4 57.15 164.35 57.65 172.5 56.3 177.35 55.0 182.15 52.15 184.45 49.25 186.75 45.15 187.45 41.05 188.1 36.0 187.95 30.9 187.8 25.15 187.75 19.45 187.8 16.2 189.0 12.95 190.2 11.5 192.0 10.05 193.75 9.75 195.55 9.45 197.35 9.65 198.55 9.85 199.75 9.9 199.8 9.8 199.8 8.6 199.6 7.4 199.35 5.75 198.35 4.1 197.35 2.65 195.15 1.2 192.95 0.65 189.05 0.25 185.1 1.3 182.7 2.4 180.25 4.05 178.95 5.7 177.7 7.0 177.25 8.3 176.75 8.4 176.8 8.3 176.75 7.45 175.3 6.6 173.85 5.95 171.6 5.3 169.35 5.9 166.9 6.45 164.45 9.25 162.4 11.95 160.6 14.2 160.5 16.45 160.4 18.2 161.4 19.95 162.35 21.15 163.7 22.4 165.0 23.0 166.05 23.65 167.1 23.65 167.15 23.6 167.1 24.0 166.35 24.4 165.65 25.3 164.7 26.2 163.75 27.8 163.05 29.4 162.35 31.8 162.4 35.05 162.55 36.95 163.9 38.8 165.25 39.65 167.2 40.5 169.1 40.7 171.0 40.85 172.9 40.75 174.2 40.65 175.45 40.6 175.5 43.45 171.8 44.15 167.45 44.9 163.1 43.85 158.6 42.8 154.05 40.4 149.95 38.6 146.8 37.3 143.15 36.0 139.5 35.2 136.15 34.35 132.8 33.9 130.65 33.5 128.55 33.5 128.45 33.05 130.45 31.55 133.2 30.05 135.9 27.6 138.55 25.1 141.2 21.65 142.95 18.2 144.75 13.75 144.8 7.9 144.7 4.95 142.65 1.95 140.55 0.95 137.55 -0.05 134.55 0.0 131.7 0.0 128.8 1.3 125.85 2.6 122.9 5.15 120.9 7.75 118.9 11.6 118.8 14.45 118.85 16.1 120.15 17.75 121.5 18.45 123.2 19.2 124.9 19.4 126.25 19.6 127.55 19.55 127.6 23.5 126.35 25.7 122.05 27.9 117.7 28.8 111.25 29.7 104.8 29.65 97.1 29.7 92.5 31.05 87.85 32.45 83.25 34.45 79.1 36.45 74.95 38.5 71.7 40.5 68.45 41.9 66.55 43.25 64.7 43.3 64.65 33.05 66.2 27.1 64.45 21.15 62.7 18.45 57.35 15.75 52.0 15.25 42.75 14.85 37.25 13.4 33.65 11.95 30.1 10.0 28.05 8.05 26.0 6.15 25.1 4.25 24.15 3.0 23.95 1.75 23.7 1.7 23.75 3.0 21.05 4.6 18.85 6.25 16.7 8.5 15.4 10.75 14.1 13.95 14.05 16.35 14.1 17.9 15.2 19.4 16.25 20.25 17.6 21.1 19.0 21.4 20.05 21.7 21.1 21.7 21.15 21.7 21.1 22.15 19.9 22.6 18.75 23.6 17.2 24.65 15.65 26.4 14.5 28.1 13.3 30.7 13.25 34.15 13.35 36.2 14.9 38.3 16.45 39.2 18.55 40.1 20.7 40.05 22.45 40.0 24.2 39.15 25.85 38.3 27.55 37.45 28.7 36.6 29.8 36.5 29.85 36.6 29.8 37.95 29.95 39.25 30.05 41.05 30.8 42.8 31.55 44.15 33.35 45.5 35.1 45.55 38.4 45.5 41.7 44.45 43.75 43.45 45.8 41.9 46.9 40.35 47.95 38.8 48.35 37.25 48.75 36.2 48.7 34.8 48.65 33.45 48.15 32.1 47.65 31.2 47.15 30.3 46.65 30.25 46.6 30.2 46.7 30.55 47.9 30.9 49.1 32.1 50.75 33.3 52.35 35.8 53.55 38.35 54.8 42.65 54.85 47.05 54.8 51.75 53.7 56.4 52.6 60.45 51.2 64.5 49.8 67.0 48.7 69.5 47.65 69.55 47.6 64.9 44.0 62.0 39.25 59.15 34.5 59.1 27.95 59.15 24.6 60.5 22.15 61.85 19.75 63.95 18.15 66.0 16.6 68.2 15.8 70.35 15.05 71.95 15.05 73.6 15.05 75.5 15.7 77.45 16.4 79.25 17.75 81.05 19.1 82.2 21.15 83.35 23.2 83.4 26.0 83.35 28.75 82.2 30.35 81.05 31.9 79.55 32.65 78.0 33.35 76.85 33.55 75.7 33.75 75.65 33.75 75.75 37.15 78.55 39.2 81.4 41.25 86.15 42.6 90.95 43.95 96.95 45.3 102.9 46.65 109.25 48.65 115.65 50.65 121.6 54.0 127.55 57.35 132.35 62.7 137.15 68.05 139.95 76.1 142.8 84.2 142.85 95.6 142.8 104.3 140.55 110.95 138.3 117.65 134.6 122.55 130.9 127.5 126.55 130.9 122.2 134.3 117.9 136.4 113.6 138.5 110.2 139.55 106.75 140.55 104.9 140.8 101.3 141.25 98.05 141.3 94.8 141.35 92.75 141.25 90.65 141.1 90.6 141.1 90.55 141.15 89.8 142.55 89.05 143.9 88.45 145.65 87.85 147.35 88.15 148.5 88.45 149.4 88.15 149.8 87.8 150.2 87.4 150.25 86.95 150.35 86.9 150.35 86.9 150.3 86.3 149.95 85.7 149.65 84.25 149.4 82.85 149.15 80.4 149.35 78.1 149.55 76.85 149.3 75.6 149.1 75.1 148.8 74.65 148.55 74.65 148.5 74.7 148.5 74.7 148.1 74.75 147.7 74.2 147.0 73.6 146.35 72.75 146.15 71.9 145.95 71.85 145.95 L71.65 145.5 73.55 145.5 71.25 144.25 71.25 143.65 74.05 144.8 71.8 142.05 71.95 141.8 75.2 144.4 73.8 141.8 73.9 141.35 77.3 146.3 Q79.15 147.2 81.05 147.15 82.9 147.15 84.2 146.8 85.5 146.45 85.55 146.4 85.9 145.5 85.75 143.85 85.6 142.2 85.3 140.85 85.0 139.5 84.95 139.4 79.0 135.75 76.55 133.6 74.15 131.4 74.2 131.35 74.2 131.4 73.4 131.9 72.55 132.4 71.5 133.2 70.4 134.0 69.55 134.95 68.7 135.9 68.55 136.75 68.35 137.65 67.9 137.85 67.45 138.05 67.0 137.9 66.6 137.75 66.55 137.75 66.6 137.7 66.2 137.15 65.85 136.55 64.7 135.65 63.55 134.75 61.35 133.8 59.2 132.85 58.2 132.05 57.2 131.3 56.9 130.8 56.6 130.3 56.65 130.3 56.7 130.35 56.9 130.0 57.1 129.65 57.0 128.8 56.75 127.9 56.1 127.3 55.5 126.75 55.4 126.7 L55.45 126.25 57.1 127.15 55.7 124.9 56.0 124.45 57.9 126.75 57.2 123.25 57.45 123.1 59.1 126.95 59.1 124.0 59.4 123.65 60.05 129.65 Q61.25 131.3 62.9 132.15 64.6 133.0 65.9 133.3 67.15 133.65 67.25 133.6 68.0 133.0 68.65 131.45 69.25 129.95 69.65 128.6 70.05 127.25 70.05 127.15 70.0 127.15 68.95 125.95 67.95 124.75 66.6 122.6 65.25 120.45 64.25 117.6 63.2 114.7 63.15 111.3 63.25 106.6 64.75 103.3 66.3 99.95 68.3 97.35 70.3 94.7 71.85 92.1 73.4 89.5 73.45 86.35 73.4 83.35 72.25 81.85 71.05 80.35 69.5 79.85 67.9 79.35 66.55 79.4" fill="#000000" fill-rule="evenodd" stroke="none"/>
    </g>
  </defs>
</svg>
