<?xml version="1.0" encoding="UTF-8" standalone="no"?>
<svg xmlns:ffdec="https://www.free-decompiler.com/flash" xmlns:xlink="http://www.w3.org/1999/xlink" ffdec:objectType="frame" height="201.0px" width="200.0px" xmlns="http://www.w3.org/2000/svg">
  <g transform="matrix(1.0, 0.0, 0.0, 1.0, 0.0, 0.0)">
    <rect fill="#ffffff" height="201.0px" width="200.0px"/>
    <use ffdec:characterId="1" height="97.05" transform="matrix(1.0, 0.0, 0.0, 1.0, 51.55, 51.55)" width="96.8" xlink:href="#shape0"/>
    <use ffdec:characterId="2" height="48.5" transform="matrix(1.0, 0.0, 0.0, 1.0, 75.85, 75.85)" width="48.25" xlink:href="#shape1"/>
    <use ffdec:characterId="3" height="200.2" transform="matrix(1.0, 0.0, 0.0, 1.0, 0.0, 0.0)" width="200.0" xlink:href="#shape2"/>
  </g>
  <defs>
    <g id="shape0" transform="matrix(1.0, 0.0, 0.0, 1.0, 0.0, 0.0)">
      <path d="M48.4 79.75 Q53.45 79.7 58.85 77.8 64.25 75.9 68.9 72.0 73.6 68.15 76.5 62.3 79.4 56.4 79.5 48.5 79.45 40.6 76.5 34.75 73.6 28.9 68.95 25.0 64.25 21.15 58.85 19.25 53.45 17.3 48.4 17.3 43.35 17.3 37.95 19.25 32.55 21.15 27.9 25.0 23.2 28.9 20.3 34.75 17.4 40.6 17.3 48.5 17.4 56.45 20.3 62.3 23.2 68.15 27.9 72.0 32.55 75.9 37.95 77.8 43.35 79.75 48.4 79.75 M96.8 48.5 L96.8 48.55 96.75 48.55 81.85 63.45 81.85 82.1 63.25 82.1 48.5 96.8 48.5 97.05 48.4 96.95 48.3 97.05 48.3 96.8 33.55 82.1 14.95 82.1 14.95 63.45 0.05 48.55 0.0 48.55 0.05 48.5 0.0 48.5 0.05 48.5 14.95 33.6 14.95 14.95 33.55 14.95 48.3 0.25 48.3 0.0 48.4 0.1 48.5 0.0 48.5 0.25 63.25 14.95 81.85 14.95 81.85 33.6 96.75 48.5 96.8 48.5" fill="#000000" fill-rule="evenodd" stroke="none"/>
    </g>
    <g id="shape1" transform="matrix(1.0, 0.0, 0.0, 1.0, 0.0, 0.0)">
      <path d="M48.25 24.25 Q48.25 24.25 48.25 24.25 48.15 30.65 45.8 35.2 43.45 39.75 39.75 42.7 36.05 45.6 31.9 47.0 27.8 48.45 24.25 48.45 L24.25 48.5 Q24.2 48.45 24.15 48.5 24.05 48.45 24.0 48.5 L24.0 48.45 Q20.45 48.45 16.35 47.05 12.25 45.6 8.55 42.7 4.8 39.75 2.45 35.2 0.1 30.6 0.0 24.25 0.0 24.25 0.0 24.25 0.0 24.25 0.0 24.2 0.1 17.85 2.45 13.3 4.8 8.7 8.55 5.8 12.25 2.85 16.35 1.45 20.45 0.05 24.0 0.0 24.05 0.0 24.15 0.0 24.2 0.0 24.25 0.0 27.8 0.05 31.9 1.45 36.0 2.85 39.75 5.8 43.45 8.7 45.8 13.25 48.15 17.85 48.25 24.2 48.25 24.2 48.25 24.25" fill="#000000" fill-rule="evenodd" stroke="none"/>
    </g>
    <g id="shape2" transform="matrix(1.0, 0.0, 0.0, 1.0, 0.0, 0.0)">
      <path d="M176.6 107.15 L183.65 100.1 176.6 93.1 169.4 100.1 176.6 107.15 M137.65 115.9 L153.55 100.1 137.65 84.35 137.65 62.35 115.7 62.35 100.0 46.5 84.3 62.35 62.35 62.35 62.35 84.35 46.45 100.1 62.35 115.9 62.35 137.85 84.3 137.85 100.0 153.7 115.7 137.85 137.65 137.85 137.65 115.9 M100.0 183.75 L106.95 176.85 100.0 169.75 93.05 176.85 100.0 183.75 M16.35 100.1 L23.4 107.15 30.6 100.1 23.4 93.1 16.35 100.1 M100.0 16.45 L93.05 23.4 100.0 30.5 106.95 23.4 100.0 16.45 M199.95 100.1 L200.0 100.15 199.95 100.15 176.9 123.15 161.95 108.2 148.65 121.5 148.6 148.85 121.3 148.85 108.0 162.15 122.95 177.15 100.1 200.0 100.1 200.2 100.0 200.1 99.9 200.2 99.9 200.0 77.05 177.15 92.0 162.15 78.7 148.85 51.4 148.85 51.35 121.5 38.05 108.2 23.1 123.15 0.05 100.15 0.0 100.15 0.05 100.1 0.0 100.1 0.05 100.1 23.1 77.05 38.05 92.05 51.35 78.75 51.4 51.35 78.7 51.35 92.0 38.05 77.05 23.1 99.9 0.25 99.9 0.0 100.0 0.1 100.1 0.0 100.1 0.25 122.95 23.1 108.0 38.05 121.3 51.35 148.6 51.35 148.65 78.75 161.95 92.05 176.9 77.05 199.95 100.1 200.0 100.1 199.95 100.1" fill="#000000" fill-rule="evenodd" stroke="none"/>
    </g>
  </defs>
</svg>
