<?xml version="1.0" encoding="UTF-8" standalone="no"?>
<svg xmlns:ffdec="https://www.free-decompiler.com/flash" xmlns:xlink="http://www.w3.org/1999/xlink" ffdec:objectType="frame" height="200.0px" width="200.0px" xmlns="http://www.w3.org/2000/svg">
  <g transform="matrix(1.0, 0.0, 0.0, 1.0, 0.0, 0.0)">
    <rect fill="#ffffff" height="200.0px" width="200.0px"/>
    <use ffdec:characterId="1" height="70.2" transform="matrix(1.0, 0.0, 0.0, 1.0, 106.9, 14.2)" width="24.1" xlink:href="#shape0"/>
    <use ffdec:characterId="2" height="41.45" transform="matrix(1.0, 0.0, 0.0, 1.0, 111.8, 3.95)" width="53.2" xlink:href="#shape1"/>
    <use ffdec:characterId="3" height="5.55" transform="matrix(1.0, 0.0, 0.0, 1.0, 143.55, 22.45)" width="5.35" xlink:href="#shape2"/>
    <use ffdec:characterId="4" height="5.8" transform="matrix(1.0, 0.0, 0.0, 1.0, 140.25, 16.6)" width="5.8" xlink:href="#shape3"/>
    <use ffdec:characterId="5" height="5.65" transform="matrix(1.0, 0.0, 0.0, 1.0, 133.65, 18.1)" width="5.55" xlink:href="#shape4"/>
    <use ffdec:characterId="6" height="5.6" transform="matrix(1.0, 0.0, 0.0, 1.0, 132.8, 25.0)" width="5.6" xlink:href="#shape5"/>
    <use ffdec:characterId="7" height="5.45" transform="matrix(1.0, 0.0, 0.0, 1.0, 139.3, 27.85)" width="5.5" xlink:href="#shape6"/>
    <use ffdec:characterId="8" height="4.05" transform="matrix(1.0, 0.0, 0.0, 1.0, 138.7, 22.75)" width="4.05" xlink:href="#shape7"/>
    <use ffdec:characterId="9" height="4.05" transform="matrix(1.0, 0.0, 0.0, 1.0, 149.9, 38.2)" width="4.05" xlink:href="#shape8"/>
    <use ffdec:characterId="10" height="22.45" transform="matrix(1.0, 0.0, 0.0, 1.0, 125.95, 41.95)" width="15.15" xlink:href="#shape9"/>
    <use ffdec:characterId="11" height="25.15" transform="matrix(1.0, 0.0, 0.0, 1.0, 129.4, 87.25)" width="70.55" xlink:href="#shape10"/>
    <use ffdec:characterId="12" height="24.1" transform="matrix(1.0, 0.0, 0.0, 1.0, 115.55, 68.95)" width="70.2" xlink:href="#shape11"/>
    <use ffdec:characterId="13" height="53.2" transform="matrix(1.0, 0.0, 0.0, 1.0, 154.55, 35.0)" width="41.45" xlink:href="#shape12"/>
    <use ffdec:characterId="14" height="5.35" transform="matrix(1.0, 0.0, 0.0, 1.0, 171.95, 51.1)" width="5.55" xlink:href="#shape13"/>
    <use ffdec:characterId="15" height="5.8" transform="matrix(1.0, 0.0, 0.0, 1.0, 177.55, 53.95)" width="5.8" xlink:href="#shape14"/>
    <use ffdec:characterId="16" height="5.65" transform="matrix(1.0, 0.0, 0.0, 1.0, 175.95, 60.7)" width="5.85" xlink:href="#shape15"/>
    <use ffdec:characterId="17" height="5.85" transform="matrix(1.0, 0.0, 0.0, 1.0, 169.35, 61.35)" width="5.5" xlink:href="#shape16"/>
    <use ffdec:characterId="18" height="5.5" transform="matrix(1.0, 0.0, 0.0, 1.0, 166.6, 55.15)" width="5.45" xlink:href="#shape17"/>
    <use ffdec:characterId="19" height="4.05" transform="matrix(1.0, 0.0, 0.0, 1.0, 173.1, 57.2)" width="4.05" xlink:href="#shape18"/>
    <use ffdec:characterId="20" height="4.05" transform="matrix(1.0, 0.0, 0.0, 1.0, 157.7, 46.05)" width="4.05" xlink:href="#shape19"/>
    <use ffdec:characterId="21" height="15.15" transform="matrix(1.0, 0.0, 0.0, 1.0, 135.55, 58.9)" width="22.45" xlink:href="#shape20"/>
    <use ffdec:characterId="22" height="26.65" transform="matrix(1.0, 0.0, 0.0, 1.0, 134.1, 39.35)" width="26.5" xlink:href="#shape21"/>
    <use ffdec:characterId="23" height="8.75" transform="matrix(1.0, 0.0, 0.0, 1.0, 125.9, 65.35)" width="8.75" xlink:href="#shape22"/>
    <use ffdec:characterId="24" height="16.55" transform="matrix(1.0, 0.0, 0.0, 1.0, 110.6, 72.4)" width="16.9" xlink:href="#shape23"/>
    <use ffdec:characterId="25" height="8.3" transform="matrix(1.0, 0.0, 0.0, 1.0, 138.2, 95.65)" width="16.9" xlink:href="#shape24"/>
    <use ffdec:characterId="26" height="70.5" transform="matrix(1.0, 0.0, 0.0, 1.0, 87.2, 0.0)" width="25.55" xlink:href="#shape25"/>
    <use ffdec:characterId="27" height="70.2" transform="matrix(1.0, 0.0, 0.0, 1.0, 68.95, 14.2)" width="24.1" xlink:href="#shape26"/>
    <use ffdec:characterId="28" height="41.45" transform="matrix(1.0, 0.0, 0.0, 1.0, 34.95, 3.95)" width="53.2" xlink:href="#shape27"/>
    <use ffdec:characterId="29" height="5.55" transform="matrix(1.0, 0.0, 0.0, 1.0, 51.05, 22.45)" width="5.35" xlink:href="#shape28"/>
    <use ffdec:characterId="30" height="5.8" transform="matrix(1.0, 0.0, 0.0, 1.0, 53.9, 16.6)" width="5.8" xlink:href="#shape29"/>
    <use ffdec:characterId="31" height="5.65" transform="matrix(1.0, 0.0, 0.0, 1.0, 60.65, 18.1)" width="5.65" xlink:href="#shape30"/>
    <use ffdec:characterId="32" height="5.6" transform="matrix(1.0, 0.0, 0.0, 1.0, 61.35, 25.0)" width="5.85" xlink:href="#shape31"/>
    <use ffdec:characterId="33" height="5.45" transform="matrix(1.0, 0.0, 0.0, 1.0, 55.1, 27.85)" width="5.5" xlink:href="#shape32"/>
    <use ffdec:characterId="34" height="4.05" transform="matrix(1.0, 0.0, 0.0, 1.0, 57.2, 22.75)" width="4.05" xlink:href="#shape33"/>
    <use ffdec:characterId="35" height="4.05" transform="matrix(1.0, 0.0, 0.0, 1.0, 46.0, 38.2)" width="4.05" xlink:href="#shape34"/>
    <use ffdec:characterId="36" height="22.45" transform="matrix(1.0, 0.0, 0.0, 1.0, 58.85, 41.95)" width="15.15" xlink:href="#shape35"/>
    <use ffdec:characterId="37" height="16.9" transform="matrix(1.0, 0.0, 0.0, 1.0, 95.65, 44.85)" width="8.7" xlink:href="#shape36"/>
    <use ffdec:characterId="38" height="25.15" transform="matrix(1.0, 0.0, 0.0, 1.0, 0.0, 87.25)" width="70.5" xlink:href="#shape37"/>
    <use ffdec:characterId="39" height="24.1" transform="matrix(1.0, 0.0, 0.0, 1.0, 14.2, 68.95)" width="70.2" xlink:href="#shape38"/>
    <use ffdec:characterId="40" height="53.2" transform="matrix(1.0, 0.0, 0.0, 1.0, 3.95, 35.0)" width="41.45" xlink:href="#shape39"/>
    <use ffdec:characterId="41" height="5.35" transform="matrix(1.0, 0.0, 0.0, 1.0, 22.45, 51.1)" width="5.55" xlink:href="#shape40"/>
    <use ffdec:characterId="42" height="5.8" transform="matrix(1.0, 0.0, 0.0, 1.0, 16.6, 53.95)" width="5.8" xlink:href="#shape41"/>
    <use ffdec:characterId="43" height="5.65" transform="matrix(1.0, 0.0, 0.0, 1.0, 18.1, 60.7)" width="5.65" xlink:href="#shape42"/>
    <use ffdec:characterId="44" height="5.85" transform="matrix(1.0, 0.0, 0.0, 1.0, 25.0, 61.35)" width="5.6" xlink:href="#shape43"/>
    <use ffdec:characterId="45" height="5.5" transform="matrix(1.0, 0.0, 0.0, 1.0, 27.85, 55.15)" width="5.45" xlink:href="#shape44"/>
    <use ffdec:characterId="46" height="4.05" transform="matrix(1.0, 0.0, 0.0, 1.0, 22.75, 57.2)" width="4.05" xlink:href="#shape45"/>
    <use ffdec:characterId="47" height="4.05" transform="matrix(1.0, 0.0, 0.0, 1.0, 38.2, 46.05)" width="4.05" xlink:href="#shape46"/>
    <use ffdec:characterId="48" height="5.05" transform="matrix(1.0, 0.0, 0.0, 1.0, 75.35, 97.3)" width="5.1" xlink:href="#shape47"/>
    <use ffdec:characterId="49" height="5.1" transform="matrix(1.0, 0.0, 0.0, 1.0, 97.25, 75.35)" width="5.45" xlink:href="#shape48"/>
    <use ffdec:characterId="50" height="15.15" transform="matrix(1.0, 0.0, 0.0, 1.0, 41.95, 58.9)" width="22.45" xlink:href="#shape49"/>
    <use ffdec:characterId="51" height="26.65" transform="matrix(1.0, 0.0, 0.0, 1.0, 39.35, 39.35)" width="26.5" xlink:href="#shape50"/>
    <use ffdec:characterId="52" height="8.75" transform="matrix(1.0, 0.0, 0.0, 1.0, 65.3, 65.35)" width="8.75" xlink:href="#shape51"/>
    <use ffdec:characterId="53" height="16.55" transform="matrix(1.0, 0.0, 0.0, 1.0, 72.4, 72.4)" width="16.9" xlink:href="#shape52"/>
    <use ffdec:characterId="54" height="5.1" transform="matrix(1.0, 0.0, 0.0, 1.0, 97.25, 119.2)" width="5.45" xlink:href="#shape53"/>
    <use ffdec:characterId="55" height="5.35" transform="matrix(1.0, 0.0, 0.0, 1.0, 171.95, 143.2)" width="5.55" xlink:href="#shape54"/>
    <use ffdec:characterId="56" height="31.9" transform="matrix(1.0, 0.0, 0.0, 1.0, 83.8, 83.85)" width="32.3" xlink:href="#shape55"/>
    <use ffdec:characterId="57" height="5.5" transform="matrix(1.0, 0.0, 0.0, 1.0, 132.8, 169.05)" width="5.6" xlink:href="#shape56"/>
    <use ffdec:characterId="58" height="4.05" transform="matrix(1.0, 0.0, 0.0, 1.0, 173.1, 138.35)" width="4.05" xlink:href="#shape57"/>
    <use ffdec:characterId="59" height="5.05" transform="matrix(1.0, 0.0, 0.0, 1.0, 119.5, 97.3)" width="5.1" xlink:href="#shape58"/>
    <use ffdec:characterId="60" height="5.8" transform="matrix(1.0, 0.0, 0.0, 1.0, 177.55, 139.9)" width="5.8" xlink:href="#shape59"/>
    <use ffdec:characterId="61" height="4.05" transform="matrix(1.0, 0.0, 0.0, 1.0, 149.9, 157.4)" width="4.05" xlink:href="#shape60"/>
    <use ffdec:characterId="62" height="26.65" transform="matrix(1.0, 0.0, 0.0, 1.0, 134.1, 133.65)" width="26.5" xlink:href="#shape61"/>
    <use ffdec:characterId="63" height="15.15" transform="matrix(1.0, 0.0, 0.0, 1.0, 135.55, 125.6)" width="22.45" xlink:href="#shape62"/>
    <use ffdec:characterId="64" height="24.1" transform="matrix(1.0, 0.0, 0.0, 1.0, 115.55, 106.55)" width="70.2" xlink:href="#shape63"/>
    <use ffdec:characterId="65" height="5.5" transform="matrix(1.0, 0.0, 0.0, 1.0, 166.6, 138.95)" width="5.45" xlink:href="#shape64"/>
    <use ffdec:characterId="66" height="5.85" transform="matrix(1.0, 0.0, 0.0, 1.0, 133.65, 175.65)" width="5.55" xlink:href="#shape65"/>
    <use ffdec:characterId="67" height="5.8" transform="matrix(1.0, 0.0, 0.0, 1.0, 140.25, 177.25)" width="5.8" xlink:href="#shape66"/>
    <use ffdec:characterId="68" height="4.05" transform="matrix(1.0, 0.0, 0.0, 1.0, 138.7, 172.8)" width="4.05" xlink:href="#shape67"/>
    <use ffdec:characterId="69" height="22.45" transform="matrix(1.0, 0.0, 0.0, 1.0, 125.95, 135.25)" width="15.15" xlink:href="#shape68"/>
    <use ffdec:characterId="70" height="5.55" transform="matrix(1.0, 0.0, 0.0, 1.0, 143.55, 171.65)" width="5.35" xlink:href="#shape69"/>
    <use ffdec:characterId="71" height="5.45" transform="matrix(1.0, 0.0, 0.0, 1.0, 139.3, 166.3)" width="5.5" xlink:href="#shape70"/>
    <use ffdec:characterId="72" height="5.55" transform="matrix(1.0, 0.0, 0.0, 1.0, 175.95, 133.3)" width="5.85" xlink:href="#shape71"/>
    <use ffdec:characterId="73" height="70.55" transform="matrix(1.0, 0.0, 0.0, 1.0, 87.2, 129.1)" width="25.55" xlink:href="#shape72"/>
    <use ffdec:characterId="74" height="4.05" transform="matrix(1.0, 0.0, 0.0, 1.0, 157.7, 149.55)" width="4.05" xlink:href="#shape73"/>
    <use ffdec:characterId="75" height="53.2" transform="matrix(1.0, 0.0, 0.0, 1.0, 154.55, 111.45)" width="41.45" xlink:href="#shape74"/>
    <use ffdec:characterId="76" height="16.9" transform="matrix(1.0, 0.0, 0.0, 1.0, 95.65, 137.9)" width="8.7" xlink:href="#shape75"/>
    <use ffdec:characterId="77" height="70.2" transform="matrix(1.0, 0.0, 0.0, 1.0, 106.9, 115.2)" width="24.1" xlink:href="#shape76"/>
    <use ffdec:characterId="78" height="16.5" transform="matrix(1.0, 0.0, 0.0, 1.0, 110.6, 110.7)" width="16.9" xlink:href="#shape77"/>
    <use ffdec:characterId="79" height="8.75" transform="matrix(1.0, 0.0, 0.0, 1.0, 125.9, 125.55)" width="8.75" xlink:href="#shape78"/>
    <use ffdec:characterId="80" height="5.6" transform="matrix(1.0, 0.0, 0.0, 1.0, 169.35, 132.45)" width="5.5" xlink:href="#shape79"/>
    <use ffdec:characterId="81" height="41.45" transform="matrix(1.0, 0.0, 0.0, 1.0, 111.8, 154.2)" width="53.2" xlink:href="#shape80"/>
    <use ffdec:characterId="82" height="70.2" transform="matrix(1.0, 0.0, 0.0, 1.0, 68.95, 115.2)" width="24.1" xlink:href="#shape81"/>
    <use ffdec:characterId="83" height="41.45" transform="matrix(1.0, 0.0, 0.0, 1.0, 34.95, 154.2)" width="53.2" xlink:href="#shape82"/>
    <use ffdec:characterId="84" height="5.55" transform="matrix(1.0, 0.0, 0.0, 1.0, 51.05, 171.65)" width="5.35" xlink:href="#shape83"/>
    <use ffdec:characterId="85" height="5.8" transform="matrix(1.0, 0.0, 0.0, 1.0, 53.9, 177.25)" width="5.8" xlink:href="#shape84"/>
    <use ffdec:characterId="86" height="5.85" transform="matrix(1.0, 0.0, 0.0, 1.0, 60.65, 175.65)" width="5.65" xlink:href="#shape85"/>
    <use ffdec:characterId="87" height="5.5" transform="matrix(1.0, 0.0, 0.0, 1.0, 61.35, 169.05)" width="5.85" xlink:href="#shape86"/>
    <use ffdec:characterId="88" height="5.45" transform="matrix(1.0, 0.0, 0.0, 1.0, 55.1, 166.3)" width="5.5" xlink:href="#shape87"/>
    <use ffdec:characterId="89" height="4.05" transform="matrix(1.0, 0.0, 0.0, 1.0, 57.2, 172.8)" width="4.05" xlink:href="#shape88"/>
    <use ffdec:characterId="90" height="4.05" transform="matrix(1.0, 0.0, 0.0, 1.0, 46.0, 157.4)" width="4.05" xlink:href="#shape89"/>
    <use ffdec:characterId="91" height="22.45" transform="matrix(1.0, 0.0, 0.0, 1.0, 58.85, 135.25)" width="15.15" xlink:href="#shape90"/>
    <use ffdec:characterId="92" height="24.1" transform="matrix(1.0, 0.0, 0.0, 1.0, 14.2, 106.55)" width="70.2" xlink:href="#shape91"/>
    <use ffdec:characterId="93" height="53.2" transform="matrix(1.0, 0.0, 0.0, 1.0, 3.95, 111.45)" width="41.45" xlink:href="#shape92"/>
    <use ffdec:characterId="94" height="5.35" transform="matrix(1.0, 0.0, 0.0, 1.0, 22.45, 143.2)" width="5.55" xlink:href="#shape93"/>
    <use ffdec:characterId="95" height="5.8" transform="matrix(1.0, 0.0, 0.0, 1.0, 16.6, 139.9)" width="5.8" xlink:href="#shape94"/>
    <use ffdec:characterId="96" height="5.55" transform="matrix(1.0, 0.0, 0.0, 1.0, 18.1, 133.3)" width="5.65" xlink:href="#shape95"/>
    <use ffdec:characterId="97" height="5.6" transform="matrix(1.0, 0.0, 0.0, 1.0, 25.0, 132.45)" width="5.6" xlink:href="#shape96"/>
    <use ffdec:characterId="98" height="5.5" transform="matrix(1.0, 0.0, 0.0, 1.0, 27.85, 138.95)" width="5.45" xlink:href="#shape97"/>
    <use ffdec:characterId="99" height="4.05" transform="matrix(1.0, 0.0, 0.0, 1.0, 22.75, 138.35)" width="4.05" xlink:href="#shape98"/>
    <use ffdec:characterId="100" height="4.05" transform="matrix(1.0, 0.0, 0.0, 1.0, 38.2, 149.55)" width="4.05" xlink:href="#shape99"/>
    <use ffdec:characterId="101" height="15.15" transform="matrix(1.0, 0.0, 0.0, 1.0, 41.95, 125.6)" width="22.45" xlink:href="#shape100"/>
    <use ffdec:characterId="102" height="26.65" transform="matrix(1.0, 0.0, 0.0, 1.0, 39.35, 133.65)" width="26.5" xlink:href="#shape101"/>
    <use ffdec:characterId="103" height="8.75" transform="matrix(1.0, 0.0, 0.0, 1.0, 65.3, 125.55)" width="8.75" xlink:href="#shape102"/>
    <use ffdec:characterId="104" height="16.5" transform="matrix(1.0, 0.0, 0.0, 1.0, 72.4, 110.7)" width="16.9" xlink:href="#shape103"/>
    <use ffdec:characterId="105" height="8.3" transform="matrix(1.0, 0.0, 0.0, 1.0, 44.85, 95.65)" width="16.9" xlink:href="#shape104"/>
  </g>
  <defs>
    <g id="shape0" transform="matrix(1.0, 0.0, 0.0, 1.0, 0.0, 0.0)">
      <path d="M0.0 68.8 Q0.1 68.8 1.65 67.5 3.25 66.15 5.35 63.25 7.45 60.35 9.05 55.75 10.6 51.15 10.7 44.6 10.7 40.4 10.0 37.45 9.3 34.55 8.25 32.25 7.2 30.0 6.2 27.75 5.15 25.5 4.45 22.6 3.75 19.75 3.75 15.6 3.75 12.15 4.45 10.0 5.2 7.8 6.1 6.3 7.05 4.8 7.75 3.4 8.45 1.95 8.5 0.0 8.6 0.0 9.3 0.95 10.0 1.9 10.25 3.65 10.5 5.4 9.2 7.8 9.25 7.75 10.1 7.65 10.95 7.55 11.85 8.2 12.75 8.85 13.05 11.05 13.1 11.0 12.65 10.65 12.2 10.3 10.25 10.25 8.25 10.25 7.5 11.8 6.7 13.35 6.75 16.65 6.85 19.9 8.35 21.95 9.85 23.95 11.8 25.25 13.8 26.6 15.3 27.8 16.8 29.05 16.9 30.75 16.85 32.4 16.5 33.45 16.1 34.45 15.75 34.95 15.4 35.4 15.35 35.4 15.4 35.35 15.95 34.95 16.5 34.55 17.4 34.25 18.35 34.0 19.45 34.35 19.4 34.35 19.0 34.7 18.55 35.0 18.15 35.9 17.75 36.8 17.7 38.4 17.7 40.8 17.35 42.5 17.0 44.2 16.3 45.85 16.3 45.8 16.85 45.2 17.35 44.6 18.35 44.1 19.35 43.65 20.8 43.9 22.25 44.15 24.1 45.85 24.05 45.85 23.2 45.9 22.3 45.95 21.1 46.45 19.95 46.95 18.9 48.25 17.9 49.6 17.6 52.05 17.35 54.1 17.05 54.95 16.75 55.8 16.3 56.0 15.9 56.15 15.25 56.1 14.35 56.2 13.8 55.6 13.25 55.0 12.6 52.75 12.6 52.8 12.15 54.65 11.7 56.5 10.5 59.3 9.3 62.1 7.1 65.0 4.85 67.95 1.3 70.2 L0.0 68.8" fill="#000000" fill-rule="evenodd" stroke="none"/>
    </g>
    <g id="shape1" transform="matrix(1.0, 0.0, 0.0, 1.0, 0.0, 0.0)">
      <path d="M5.45 3.85 Q5.5 3.9 5.0 4.15 4.5 4.4 3.3 4.2 2.1 3.95 0.0 2.55 0.0 2.5 0.7 1.9 1.45 1.3 2.85 0.65 4.25 0.05 6.3 0.0 7.85 0.0 9.65 0.65 11.45 1.3 12.95 2.75 14.5 4.2 15.2 6.6 15.9 9.05 15.25 12.55 15.2 12.5 16.5 11.3 17.75 10.15 20.7 8.95 23.6 7.8 28.5 7.7 31.65 7.75 34.05 9.1 36.4 10.5 38.0 12.7 39.6 14.9 40.4 17.4 41.2 19.9 41.2 22.1 41.25 24.3 42.0 25.65 42.75 27.05 43.8 27.8 44.8 28.55 45.55 28.85 46.3 29.1 46.35 29.1 46.25 29.15 45.65 28.5 45.05 27.9 44.95 26.1 45.0 24.3 45.85 23.6 46.65 22.9 47.5 22.95 48.05 22.95 48.8 23.3 49.55 23.7 50.15 24.45 50.7 25.2 50.75 26.3 50.8 26.3 51.3 25.95 51.8 25.6 52.35 24.8 52.95 24.05 53.2 22.8 53.2 22.9 53.05 24.05 52.9 25.25 52.35 26.8 51.8 28.35 50.7 29.5 49.6 30.7 47.75 30.75 45.25 30.7 43.85 29.8 42.45 28.95 41.75 27.9 41.0 26.9 40.65 26.3 40.65 26.35 40.3 27.4 40.0 28.4 39.05 29.75 38.05 31.1 36.2 32.1 34.35 33.15 31.3 33.2 29.2 33.15 27.7 32.4 26.25 31.6 25.35 30.6 24.45 29.6 24.05 28.85 23.65 28.1 23.65 28.05 23.7 28.0 24.4 27.9 25.05 27.8 25.75 28.5 26.1 29.1 26.65 29.8 27.25 30.55 28.35 31.1 29.5 31.65 31.55 31.65 33.7 31.65 35.45 30.6 37.25 29.55 38.35 27.4 39.45 25.2 39.45 21.9 39.45 18.5 37.9 15.7 36.35 12.9 33.75 11.2 31.1 9.5 27.8 9.45 24.5 9.4 21.35 10.7 18.25 12.0 16.2 14.9 14.15 17.8 14.1 22.6 14.1 25.35 15.05 27.25 16.0 29.2 17.4 30.8 18.8 32.45 20.25 34.35 21.65 36.25 22.7 38.9 L22.0 41.45 20.5 39.7 Q20.4 37.85 19.15 36.25 17.9 34.7 16.25 32.85 14.6 31.05 13.3 28.6 12.05 26.1 12.0 22.45 12.0 20.2 12.25 18.7 12.5 17.2 12.8 16.05 13.1 14.9 13.35 13.55 13.6 12.2 13.6 10.25 13.55 7.6 12.7 6.1 11.9 4.65 11.05 4.05 10.2 3.45 10.15 3.5 10.2 3.6 10.45 4.75 10.75 5.95 10.35 7.1 10.0 8.3 8.15 8.4 6.25 8.35 5.55 7.6 4.85 6.85 4.95 5.8 5.0 4.75 5.45 3.85" fill="#000000" fill-rule="evenodd" stroke="none"/>
    </g>
    <g id="shape2" transform="matrix(1.0, 0.0, 0.0, 1.0, 0.0, 0.0)">
      <path d="M5.35 0.9 Q5.3 0.9 4.6 0.9 3.95 0.95 3.25 1.35 2.6 1.75 2.55 2.75 2.6 3.75 3.3 4.15 3.95 4.55 4.6 4.6 5.3 4.65 5.35 4.65 5.3 4.7 4.7 5.1 4.1 5.5 3.0 5.55 1.85 5.5 0.95 4.75 0.05 4.0 0.0 2.75 0.05 1.55 0.95 0.8 1.85 0.0 3.0 0.0 4.1 0.05 4.7 0.45 5.3 0.85 5.35 0.9" fill="#000000" fill-rule="evenodd" stroke="none"/>
    </g>
    <g id="shape3" transform="matrix(1.0, 0.0, 0.0, 1.0, 0.0, 0.0)">
      <path d="M3.2 0.0 Q3.15 0.0 2.7 0.5 2.25 1.05 2.05 1.75 1.85 2.5 2.55 3.25 3.3 3.95 4.05 3.75 4.8 3.55 5.3 3.15 5.8 2.7 5.8 2.65 5.85 2.7 5.7 3.4 5.55 4.1 4.8 4.9 4.0 5.7 2.8 5.8 1.65 5.9 0.75 5.1 -0.1 4.2 0.0 3.0 0.1 1.85 0.9 1.0 1.7 0.25 2.45 0.1 3.15 -0.05 3.2 0.0" fill="#000000" fill-rule="evenodd" stroke="none"/>
    </g>
    <g id="shape4" transform="matrix(1.0, 0.0, 0.0, 1.0, 0.0, 0.0)">
      <path d="M3.05 3.3 Q3.9 2.8 3.95 2.0 4.0 1.25 3.7 0.65 3.45 0.05 3.4 0.0 3.45 0.0 4.1 0.35 4.7 0.65 5.3 1.6 5.8 2.65 5.55 3.8 5.3 4.95 4.25 5.55 3.15 6.1 2.05 5.65 0.95 5.25 0.4 4.25 -0.05 3.25 0.0 2.5 0.05 1.8 0.1 1.75 0.1 1.8 0.45 2.4 0.8 2.95 1.5 3.35 2.15 3.75 3.05 3.3" fill="#000000" fill-rule="evenodd" stroke="none"/>
    </g>
    <g id="shape5" transform="matrix(1.0, 0.0, 0.0, 1.0, 0.0, 0.0)">
      <path d="M1.55 5.45 Q1.6 5.45 2.2 5.15 2.8 4.8 3.25 4.15 3.65 3.55 3.3 2.6 2.8 1.7 2.05 1.65 1.3 1.55 0.65 1.8 0.05 2.05 0.0 2.1 0.0 2.0 0.35 1.4 0.75 0.8 1.75 0.3 2.8 -0.2 3.9 0.1 5.05 0.45 5.6 1.5 6.1 2.65 5.6 3.7 5.1 4.8 4.05 5.3 3.05 5.7 2.3 5.6 1.6 5.5 1.55 5.45" fill="#000000" fill-rule="evenodd" stroke="none"/>
    </g>
    <g id="shape6" transform="matrix(1.0, 0.0, 0.0, 1.0, 0.0, 0.0)">
      <path d="M2.75 2.55 Q1.7 2.7 1.4 3.4 1.05 4.1 1.05 4.75 1.1 5.4 1.1 5.45 1.05 5.45 0.6 4.9 0.15 4.35 0.0 3.25 -0.05 2.1 0.6 1.15 1.3 0.15 2.5 0.0 3.75 -0.05 4.55 0.8 5.4 1.6 5.5 2.75 5.55 3.85 5.2 4.5 4.85 5.15 4.8 5.15 4.85 5.1 4.75 4.45 4.65 3.8 4.2 3.15 3.75 2.5 2.75 2.55" fill="#000000" fill-rule="evenodd" stroke="none"/>
    </g>
    <g id="shape7" transform="matrix(1.0, 0.0, 0.0, 1.0, 0.0, 0.0)">
      <path d="M0.0 2.05 Q0.0 1.15 0.6 0.6 1.15 0.0 2.05 0.0 2.95 0.0 3.5 0.55 4.05 1.1 4.05 2.05 4.05 2.95 3.45 3.5 2.9 4.05 2.05 4.05 1.2 4.05 0.6 3.5 0.05 2.9 0.0 2.05" fill="#000000" fill-rule="evenodd" stroke="none"/>
    </g>
    <g id="shape8" transform="matrix(1.0, 0.0, 0.0, 1.0, 0.0, 0.0)">
      <path d="M4.05 2.05 Q4.05 2.95 3.45 3.5 2.9 4.05 2.05 4.05 1.2 4.05 0.6 3.5 0.05 2.9 0.0 2.05 0.0 1.15 0.6 0.6 1.15 0.0 2.05 0.0 2.95 0.0 3.5 0.55 4.05 1.1 4.05 2.05" fill="#000000" fill-rule="evenodd" stroke="none"/>
    </g>
    <g id="shape9" transform="matrix(1.0, 0.0, 0.0, 1.0, 0.0, 0.0)">
      <path d="M9.0 10.8 Q9.85 10.8 10.05 9.75 10.2 8.75 10.05 7.3 9.95 5.8 9.9 4.3 9.95 2.4 10.7 1.5 11.5 0.55 12.5 0.25 13.55 0.0 14.3 0.0 15.1 0.0 15.15 0.05 13.85 0.9 13.65 1.85 13.4 2.85 13.6 4.45 13.8 6.05 13.75 8.85 13.55 11.6 12.65 12.8 11.75 14.0 10.9 14.3 10.0 14.55 9.95 14.5 L8.15 21.9 Q7.3 22.5 6.85 22.45 6.35 22.4 6.2 22.1 6.05 21.8 6.05 21.75 6.65 21.15 7.0 19.95 7.3 18.75 7.4 17.45 7.55 16.15 7.55 15.2 7.55 14.3 7.55 14.25 5.9 14.1 4.75 12.65 3.55 11.2 3.55 7.9 3.5 5.7 2.65 4.4 1.8 3.15 0.95 2.65 0.05 2.15 0.0 2.15 1.05 1.4 2.7 1.5 4.3 1.6 5.6 2.7 6.85 3.75 6.95 5.95 6.9 8.1 7.1 9.15 7.25 10.2 7.7 10.5 8.15 10.85 9.0 10.8" fill="#000000" fill-rule="evenodd" stroke="none"/>
    </g>
    <g id="shape10" transform="matrix(1.0, 0.0, 0.0, 1.0, 0.0, 0.0)">
      <path d="M6.85 12.65 Q6.75 13.1 7.2 14.55 7.6 15.95 9.3 17.25 11.0 18.55 14.75 18.65 17.75 18.6 20.0 17.75 22.25 16.95 24.1 15.8 25.95 14.7 27.7 13.75 29.45 12.8 31.45 12.55 29.45 12.3 27.7 11.4 25.95 10.45 24.1 9.35 22.25 8.2 20.0 7.4 17.75 6.55 14.75 6.5 11.0 6.6 9.3 7.9 7.6 9.2 7.2 10.6 6.75 12.05 6.85 12.5 6.85 12.55 6.85 12.55 6.85 12.6 6.85 12.65 M70.4 12.55 Q70.5 12.6 70.55 12.65 70.55 12.6 70.25 12.65 68.25 13.4 66.75 14.5 65.3 15.6 64.15 16.5 63.05 17.35 62.15 17.35 60.95 17.25 59.9 16.6 58.85 16.0 57.95 15.35 57.05 14.75 56.3 14.7 56.35 14.7 57.1 15.5 57.85 16.3 58.25 18.0 58.6 19.65 57.5 22.3 57.55 22.25 57.05 21.05 56.6 19.9 54.95 18.3 53.3 16.75 49.95 15.55 46.55 14.35 40.85 14.3 36.85 14.4 33.35 15.75 29.9 17.1 26.6 18.9 23.35 20.7 20.05 22.05 16.75 23.45 13.1 23.5 11.15 23.45 9.65 22.65 8.2 21.85 7.4 21.0 6.6 20.2 6.6 20.15 6.6 20.2 6.65 20.9 6.65 21.65 6.5 22.65 6.35 23.6 5.8 24.35 5.25 25.1 4.15 25.15 2.65 25.05 1.65 23.1 0.65 21.2 0.25 18.3 -0.15 15.45 0.1 12.55 -0.15 9.7 0.25 6.85 0.65 3.95 1.65 2.0 2.65 0.1 4.15 0.0 5.3 0.05 5.8 0.8 6.35 1.55 6.5 2.5 6.65 3.5 6.65 4.2 6.6 4.95 6.6 5.0 6.6 4.95 7.4 4.15 8.2 3.3 9.65 2.5 11.1 1.7 13.1 1.65 16.75 1.7 20.05 3.05 23.4 4.45 26.65 6.25 29.9 8.05 33.35 9.4 36.85 10.75 40.85 10.85 46.55 10.75 49.9 9.6 53.3 8.4 54.95 6.85 56.55 5.25 57.05 4.1 57.55 2.9 57.5 2.85 58.6 5.45 58.25 7.15 57.85 8.85 57.1 9.65 56.4 10.45 56.3 10.45 57.05 10.4 57.95 9.8 58.85 9.15 59.9 8.55 60.9 7.9 62.15 7.8 63.05 7.8 64.15 8.65 65.3 9.5 66.75 10.65 68.25 11.75 70.25 12.5 70.55 12.55 70.55 12.5 70.5 12.55 70.4 12.55" fill="#000000" fill-rule="evenodd" stroke="none"/>
    </g>
    <g id="shape11" transform="matrix(1.0, 0.0, 0.0, 1.0, 0.0, 0.0)">
      <path d="M54.6 20.4 Q50.45 20.35 47.6 19.65 44.7 18.95 42.45 17.9 40.2 16.9 37.95 15.85 35.65 14.8 32.75 14.1 29.8 13.4 25.6 13.4 19.1 13.45 14.45 15.05 9.85 16.65 6.95 18.75 4.05 20.85 2.75 22.45 1.4 24.0 1.4 24.1 L0.0 22.8 Q2.25 19.25 5.2 17.05 8.1 14.8 10.9 13.6 13.7 12.4 15.55 11.95 17.4 11.5 17.45 11.55 15.2 10.85 14.6 10.3 14.0 9.75 14.1 8.85 14.05 8.2 14.2 7.8 14.4 7.35 15.25 7.05 16.1 6.75 18.15 6.5 20.65 6.2 21.95 5.2 23.25 4.2 23.75 3.0 24.25 1.8 24.3 0.9 24.35 0.05 24.35 0.0 26.0 1.85 26.3 3.3 26.55 4.75 26.1 5.75 25.6 6.75 25.0 7.25 24.4 7.8 24.35 7.8 26.0 7.1 27.7 6.75 29.4 6.4 31.8 6.4 33.4 6.35 34.3 5.95 35.2 5.55 35.5 5.1 35.85 4.7 35.85 4.65 36.25 5.8 35.95 6.7 35.65 7.6 35.25 8.15 34.85 8.75 34.8 8.75 34.8 8.7 35.25 8.35 35.75 7.95 36.75 7.6 37.8 7.25 39.45 7.2 41.15 7.3 42.4 8.8 43.6 10.3 44.95 12.3 46.25 14.25 48.25 15.75 50.3 17.25 53.55 17.35 56.85 17.4 58.4 16.6 59.95 15.85 59.95 13.85 59.9 11.9 59.55 11.45 59.2 11.0 59.15 11.05 61.35 11.35 62.0 12.25 62.65 13.2 62.55 14.0 62.45 14.85 62.4 14.9 64.8 13.6 66.55 13.85 68.3 14.1 69.25 14.8 70.2 15.5 70.2 15.6 68.25 15.65 66.8 16.35 65.4 17.05 63.9 18.0 62.4 18.95 60.2 19.65 58.05 20.35 54.6 20.4" fill="#000000" fill-rule="evenodd" stroke="none"/>
    </g>
    <g id="shape12" transform="matrix(1.0, 0.0, 0.0, 1.0, 0.0, 0.0)">
      <path d="M15.15 12.55 Q14.55 12.2 13.5 11.5 12.5 10.75 11.6 9.35 10.75 7.95 10.7 5.45 10.75 3.6 11.95 2.5 13.1 1.4 14.65 0.85 16.2 0.3 17.4 0.15 18.6 0.0 18.65 0.0 17.4 0.25 16.65 0.85 15.85 1.4 15.5 1.9 15.15 2.4 15.15 2.45 16.25 2.5 17.0 3.05 17.75 3.65 18.1 4.4 18.5 5.15 18.5 5.7 18.55 6.55 17.85 7.4 17.15 8.2 15.35 8.25 13.55 8.2 12.95 7.55 12.3 6.95 12.35 6.85 12.35 6.9 12.6 7.65 12.9 8.45 13.65 9.45 14.4 10.45 15.8 11.2 17.15 11.95 19.35 12.0 21.55 12.0 24.05 12.8 26.5 13.6 28.75 15.2 30.95 16.8 32.3 19.15 33.7 21.55 33.75 24.7 33.65 29.6 32.5 32.5 31.3 35.45 30.15 36.7 28.95 38.0 28.85 37.95 32.4 37.35 34.8 38.05 37.25 38.75 38.7 40.25 40.15 41.75 40.8 43.55 41.45 45.35 41.45 46.9 41.4 48.95 40.8 50.35 40.15 51.75 39.55 52.5 38.95 53.2 38.9 53.2 37.5 51.1 37.25 49.9 37.05 48.7 37.3 48.25 37.55 47.75 37.6 47.75 36.7 48.2 35.65 48.25 34.6 48.35 33.85 47.65 33.1 46.95 33.05 45.05 33.15 43.2 34.35 42.85 35.5 42.45 36.7 42.75 37.85 43.0 37.95 43.1 38.0 43.0 37.4 42.15 36.8 41.35 35.35 40.5 33.85 39.65 31.2 39.6 29.25 39.6 27.9 39.85 26.55 40.1 25.4 40.4 24.25 40.7 22.75 40.95 21.25 41.2 19.0 41.2 15.35 41.15 12.85 39.9 10.4 38.6 8.55 36.95 6.75 35.3 5.2 34.05 3.6 32.75 1.75 32.7 L0.0 31.2 2.55 30.5 Q5.2 31.55 7.1 33.0 9.0 34.4 10.6 35.8 12.25 37.2 14.2 38.15 16.1 39.05 18.85 39.1 23.65 39.05 26.55 37.0 29.45 34.95 30.75 31.85 32.05 28.7 32.0 25.4 31.95 22.1 30.25 19.45 28.55 16.85 25.75 15.3 22.9 13.8 19.55 13.75 16.25 13.75 14.1 14.85 11.9 15.95 10.85 17.75 9.8 19.55 9.8 21.65 9.8 23.7 10.35 24.85 10.9 25.95 11.65 26.55 12.35 27.1 12.9 27.5 13.65 28.15 13.55 28.85 13.45 29.5 13.4 29.55 13.35 29.6 12.6 29.15 11.85 28.75 10.85 27.85 9.8 26.95 9.05 25.5 8.3 24.05 8.25 21.9 8.3 18.85 9.35 17.0 10.35 15.15 11.7 14.15 13.05 13.2 14.05 12.85 15.1 12.55 15.15 12.55" fill="#000000" fill-rule="evenodd" stroke="none"/>
    </g>
    <g id="shape13" transform="matrix(1.0, 0.0, 0.0, 1.0, 0.0, 0.0)">
      <path d="M0.0 2.35 Q0.05 1.25 0.45 0.6 0.85 0.0 0.9 0.0 0.9 0.05 0.9 0.7 0.95 1.4 1.35 2.05 1.75 2.7 2.75 2.75 3.75 2.7 4.15 2.05 4.55 1.4 4.6 0.7 4.65 0.05 4.65 0.0 4.7 0.0 5.1 0.6 5.5 1.25 5.55 2.35 5.5 3.45 4.75 4.4 4.0 5.3 2.75 5.35 1.55 5.3 0.8 4.4 0.0 3.5 0.0 2.35" fill="#000000" fill-rule="evenodd" stroke="none"/>
    </g>
    <g id="shape14" transform="matrix(1.0, 0.0, 0.0, 1.0, 0.0, 0.0)">
      <path d="M3.2 0.0 Q3.15 0.0 2.7 0.5 2.25 1.05 2.05 1.75 1.85 2.5 2.55 3.25 3.3 3.95 4.05 3.75 4.8 3.55 5.3 3.15 5.8 2.7 5.8 2.65 5.85 2.7 5.7 3.4 5.55 4.1 4.8 4.9 4.0 5.7 2.8 5.8 1.65 5.9 0.75 5.1 -0.1 4.2 0.0 3.0 0.1 1.85 0.9 1.0 1.7 0.25 2.45 0.1 3.15 -0.05 3.2 0.0" fill="#000000" fill-rule="evenodd" stroke="none"/>
    </g>
    <g id="shape15" transform="matrix(1.0, 0.0, 0.0, 1.0, 0.0, 0.0)">
      <path d="M0.3 1.35 Q0.9 0.3 2.05 0.1 3.25 -0.15 4.25 0.35 5.2 0.95 5.55 1.55 5.9 2.2 5.85 2.25 5.85 2.2 5.2 1.95 4.6 1.65 3.85 1.7 3.05 1.75 2.55 2.6 2.1 3.5 2.5 4.15 2.9 4.8 3.5 5.2 4.05 5.55 4.1 5.55 4.05 5.6 3.35 5.65 2.65 5.7 1.65 5.25 0.65 4.65 0.2 3.55 -0.25 2.45 0.3 1.35" fill="#000000" fill-rule="evenodd" stroke="none"/>
    </g>
    <g id="shape16" transform="matrix(1.0, 0.0, 0.0, 1.0, 0.0, 0.0)">
      <path d="M5.35 4.1 Q4.8 5.1 4.2 5.45 3.6 5.85 3.55 5.85 3.6 5.8 3.8 5.2 4.05 4.55 4.0 3.8 3.9 3.0 3.0 2.55 2.05 2.15 1.45 2.6 0.8 3.05 0.5 3.65 0.15 4.25 0.15 4.3 0.1 4.25 0.0 3.55 -0.1 2.8 0.3 1.8 0.8 0.75 1.9 0.25 2.95 -0.25 4.1 0.25 5.2 0.8 5.5 1.95 5.8 3.05 5.35 4.1" fill="#000000" fill-rule="evenodd" stroke="none"/>
    </g>
    <g id="shape17" transform="matrix(1.0, 0.0, 0.0, 1.0, 0.0, 0.0)">
      <path d="M0.0 4.45 Q0.05 4.45 0.7 4.45 1.4 4.45 2.1 4.15 2.75 3.8 2.9 2.8 2.95 1.8 2.3 1.35 1.7 0.9 1.0 0.8 0.35 0.7 0.3 0.7 0.35 0.65 0.95 0.3 1.6 -0.05 2.7 0.0 3.85 0.15 4.7 0.95 5.5 1.8 5.45 3.0 5.3 4.25 4.35 4.9 3.4 5.6 2.25 5.5 1.15 5.35 0.6 4.95 0.0 4.5 0.0 4.45" fill="#000000" fill-rule="evenodd" stroke="none"/>
    </g>
    <g id="shape18" transform="matrix(1.0, 0.0, 0.0, 1.0, 0.0, 0.0)">
      <path d="M4.05 2.05 Q4.05 2.9 3.5 3.45 2.9 4.05 2.05 4.05 1.15 4.05 0.6 3.45 0.0 2.9 0.0 2.05 0.0 1.2 0.55 0.6 1.1 0.05 2.05 0.0 2.95 0.0 3.5 0.55 4.05 1.15 4.05 2.05" fill="#000000" fill-rule="evenodd" stroke="none"/>
    </g>
    <g id="shape19" transform="matrix(1.0, 0.0, 0.0, 1.0, 0.0, 0.0)">
      <path d="M2.05 4.05 Q1.15 4.05 0.6 3.45 0.0 2.9 0.0 2.05 0.0 1.2 0.55 0.6 1.1 0.0 2.05 0.0 2.95 0.0 3.5 0.55 4.05 1.15 4.05 2.05 4.05 2.9 3.5 3.45 2.9 4.05 2.05 4.05" fill="#000000" fill-rule="evenodd" stroke="none"/>
    </g>
    <g id="shape20" transform="matrix(1.0, 0.0, 0.0, 1.0, 0.0, 0.0)">
      <path d="M18.15 5.25 Q16.65 5.2 15.15 5.1 13.7 4.95 12.7 5.1 11.7 5.25 11.65 6.1 11.6 7.0 11.9 7.45 12.25 7.9 13.3 8.05 14.35 8.2 16.5 8.2 18.7 8.3 19.75 9.55 20.85 10.85 20.95 12.45 21.05 14.1 20.3 15.15 20.3 15.05 19.8 14.2 19.3 13.35 18.05 12.5 16.75 11.65 14.55 11.6 11.25 11.55 9.8 10.4 8.35 9.25 8.2 7.55 8.15 7.55 7.2 7.55 6.3 7.6 5.0 7.7 3.65 7.85 2.5 8.15 1.3 8.5 0.7 9.1 0.65 9.1 0.35 8.95 0.05 8.75 0.0 8.3 -0.05 7.85 0.55 7.0 L7.95 5.2 Q7.9 5.1 8.15 4.25 8.45 3.4 9.65 2.5 10.85 1.6 13.6 1.4 16.4 1.35 18.0 1.55 19.6 1.7 20.55 1.5 21.55 1.3 22.4 0.0 22.4 0.05 22.45 0.8 22.45 1.6 22.15 2.6 21.85 3.65 20.95 4.45 20.0 5.2 18.15 5.25" fill="#000000" fill-rule="evenodd" stroke="none"/>
    </g>
    <g id="shape21" transform="matrix(1.0, 0.0, 0.0, 1.0, 0.0, 0.0)">
      <path d="M4.6 21.1 Q4.55 21.1 4.25 20.7 3.9 20.35 3.95 19.7 4.0 19.05 5.0 18.25 5.7 17.7 7.65 15.95 9.6 14.2 12.25 11.8 14.9 9.45 17.7 7.0 20.5 4.6 22.8 2.7 25.15 0.8 26.5 0.0 25.75 1.35 23.85 3.7 21.95 6.05 19.5 8.8 17.05 11.6 14.7 14.25 12.3 16.9 10.55 18.9 8.8 20.85 8.25 21.55 7.45 22.55 6.8 22.6 6.2 22.7 5.85 22.4 5.5 22.1 5.5 22.05 L0.9 26.65 0.0 25.7 4.6 21.1" fill="#000000" fill-rule="evenodd" stroke="none"/>
    </g>
    <g id="shape22" transform="matrix(1.0, 0.0, 0.0, 1.0, 0.0, 0.0)">
      <path d="M0.0 3.7 Q0.0 3.65 0.45 2.8 0.95 1.9 1.85 1.0 2.8 0.1 4.2 0.0 5.55 -0.1 7.4 1.35 8.85 3.2 8.75 4.55 8.6 5.95 7.7 6.9 6.8 7.8 5.95 8.3 5.05 8.75 5.0 8.75 5.05 8.7 5.5 7.9 5.9 7.1 5.95 5.95 6.0 4.8 4.9 3.85 3.9 2.75 2.8 2.8 1.65 2.8 0.85 3.25 0.05 3.65 0.0 3.7" fill="#000000" fill-rule="evenodd" stroke="none"/>
    </g>
    <g id="shape23" transform="matrix(1.0, 0.0, 0.0, 1.0, 0.0, 0.0)">
      <path d="M13.1 0.05 Q13.15 0.0 14.1 0.05 15.1 0.1 16.0 0.9 16.95 1.7 16.9 3.9 16.85 3.95 15.35 5.05 13.8 6.15 11.45 7.95 9.05 9.8 6.45 12.0 3.85 14.25 1.6 16.55 L0.0 14.9 Q2.3 12.65 4.6 10.1 6.9 7.55 8.8 5.3 10.75 3.0 11.9 1.55 13.05 0.1 13.1 0.05" fill="#000000" fill-rule="evenodd" stroke="none"/>
    </g>
    <g id="shape24" transform="matrix(1.0, 0.0, 0.0, 1.0, 0.0, 0.0)">
      <path d="M16.85 4.15 Q16.95 4.2 16.9 4.2 L16.8 4.2 Q16.3 4.55 14.75 5.55 13.15 6.5 10.95 7.4 8.75 8.25 6.35 8.3 3.3 8.25 1.95 7.35 0.6 6.45 0.25 5.45 -0.05 4.45 0.0 4.15 0.0 4.15 0.0 4.15 0.0 4.15 0.0 4.15 -0.05 3.8 0.25 2.85 0.6 1.85 1.95 0.95 3.3 0.05 6.35 0.0 8.75 0.05 10.95 0.9 13.15 1.8 14.75 2.75 16.35 3.75 16.8 4.1 L16.9 4.1 Q16.9 4.1 16.85 4.15" fill="#000000" fill-rule="evenodd" stroke="none"/>
    </g>
    <g id="shape25" transform="matrix(1.0, 0.0, 0.0, 1.0, 0.0, 0.0)">
      <path d="M19.0 55.8 Q18.95 52.75 18.1 50.5 17.2 48.2 16.05 46.35 14.85 44.45 13.9 42.65 12.95 40.85 12.75 38.8 12.6 40.85 11.65 42.65 10.7 44.45 9.5 46.35 8.3 48.2 7.45 50.5 6.55 52.75 6.5 55.8 6.55 58.75 7.45 60.4 8.3 62.05 9.45 62.75 10.65 63.45 11.6 63.6 12.55 63.75 12.75 63.7 12.75 63.75 12.75 63.7 12.8 63.75 12.8 63.7 13.0 63.75 13.95 63.6 14.9 63.45 16.05 62.75 17.25 62.05 18.1 60.4 18.95 58.75 19.0 55.8 M10.85 29.75 Q10.75 24.0 9.6 20.65 8.4 17.25 6.85 15.6 5.25 14.0 4.1 13.5 2.9 13.0 2.85 13.05 5.45 11.95 7.15 12.35 8.85 12.7 9.65 13.45 10.45 14.2 10.45 14.3 10.4 13.5 9.8 12.6 9.15 11.7 8.55 10.7 7.9 9.65 7.8 8.4 7.8 7.5 8.75 6.35 9.65 5.25 10.8 3.7 12.0 2.2 12.75 0.1 12.75 0.0 12.75 0.0 12.75 0.05 12.75 0.05 12.8 0.05 12.8 0.0 12.8 0.0 12.8 0.1 13.55 2.2 14.75 3.7 15.9 5.25 16.8 6.35 17.75 7.5 17.75 8.4 17.65 9.6 17.0 10.65 16.35 11.7 15.75 12.6 15.15 13.5 15.1 14.3 15.1 14.2 15.9 13.45 16.7 12.7 18.4 12.35 20.05 11.95 22.7 13.05 22.65 13.0 21.45 13.5 20.25 14.0 18.7 15.6 17.15 17.25 15.95 20.65 14.75 24.05 14.7 29.75 14.8 33.7 16.15 37.2 17.5 40.7 19.3 43.95 21.1 47.2 22.45 50.5 23.85 53.8 23.9 57.45 23.85 59.45 23.05 60.9 22.2 62.35 21.4 63.15 20.6 63.95 20.55 63.95 20.55 63.95 21.3 63.9 22.05 63.9 23.05 64.05 24.0 64.2 24.75 64.75 25.5 65.3 25.55 66.4 25.45 67.9 23.45 68.9 21.5 69.9 18.55 70.3 15.65 70.7 12.75 70.5 9.9 70.7 7.0 70.3 4.05 69.9 2.05 68.9 0.1 67.9 0.0 66.4 0.05 65.3 0.8 64.75 1.55 64.2 2.5 64.05 3.5 63.9 4.2 63.9 4.95 63.95 5.0 63.95 4.95 63.95 4.15 63.15 3.3 62.35 2.5 60.9 1.7 59.45 1.65 57.45 1.7 53.8 3.05 50.5 4.45 47.2 6.25 43.95 8.05 40.7 9.4 37.2 10.75 33.75 10.85 29.75" fill="#000000" fill-rule="evenodd" stroke="none"/>
    </g>
    <g id="shape26" transform="matrix(1.0, 0.0, 0.0, 1.0, 0.0, 0.0)">
      <path d="M14.9 7.8 Q13.6 5.4 13.85 3.65 14.1 1.9 14.8 0.95 15.5 0.0 15.6 0.0 15.65 1.95 16.35 3.4 17.05 4.8 18.0 6.3 18.9 7.8 19.6 10.0 20.3 12.15 20.35 15.6 20.35 19.75 19.65 22.6 18.95 25.5 17.9 27.75 16.9 30.0 15.85 32.3 14.8 34.55 14.1 37.45 13.4 40.4 13.4 44.6 13.45 51.1 15.05 55.75 16.65 60.35 18.75 63.25 20.85 66.15 22.45 67.5 24.0 68.8 24.1 68.8 L22.8 70.2 Q19.25 67.95 17.05 65.0 14.8 62.1 13.6 59.3 12.4 56.5 11.95 54.65 11.5 52.8 11.55 52.75 10.85 55.0 10.3 55.6 9.75 56.2 8.85 56.1 8.2 56.15 7.8 56.0 7.35 55.85 7.05 54.95 6.75 54.1 6.5 52.05 6.2 49.55 5.2 48.25 4.2 46.95 3.0 46.45 1.8 45.95 0.9 45.9 0.05 45.85 0.0 45.85 1.85 44.2 3.3 43.9 4.75 43.65 5.75 44.1 6.75 44.6 7.25 45.2 7.8 45.8 7.8 45.85 7.1 44.2 6.75 42.5 6.4 40.8 6.4 38.4 6.35 36.8 5.95 35.9 5.55 35.0 5.1 34.7 4.7 34.35 4.65 34.35 5.8 34.0 6.7 34.25 7.6 34.55 8.15 34.95 8.75 35.35 8.75 35.4 8.7 35.4 8.35 34.95 7.95 34.45 7.6 33.45 7.25 32.4 7.2 30.75 7.3 29.05 8.8 27.8 10.3 26.6 12.3 25.25 14.25 23.95 15.75 21.95 17.25 19.9 17.35 16.65 17.4 13.35 16.6 11.8 15.85 10.25 13.85 10.25 11.9 10.3 11.45 10.65 11.0 11.0 11.05 11.05 11.35 8.85 12.25 8.2 13.15 7.55 14.0 7.65 14.85 7.75 14.9 7.8" fill="#000000" fill-rule="evenodd" stroke="none"/>
    </g>
    <g id="shape27" transform="matrix(1.0, 0.0, 0.0, 1.0, 0.0, 0.0)">
      <path d="M5.45 30.75 Q3.6 30.65 2.5 29.5 1.4 28.3 0.85 26.75 0.3 25.25 0.15 24.05 0.0 22.85 0.0 22.8 0.25 24.05 0.85 24.8 1.4 25.6 1.9 25.95 2.4 26.3 2.45 26.3 2.5 25.2 3.05 24.45 3.65 23.7 4.4 23.3 5.15 22.95 5.7 22.95 6.55 22.9 7.4 23.6 8.2 24.3 8.25 26.1 8.2 27.85 7.55 28.5 6.95 29.15 6.85 29.1 6.9 29.1 7.65 28.85 8.45 28.55 9.45 27.8 10.45 27.05 11.2 25.65 11.95 24.3 12.0 22.1 12.0 19.9 12.8 17.4 13.6 14.95 15.2 12.7 16.8 10.5 19.15 9.15 21.55 7.75 24.7 7.7 29.6 7.75 32.5 8.95 35.45 10.15 36.7 11.3 38.0 12.45 37.95 12.55 37.35 9.05 38.05 6.65 38.75 4.2 40.25 2.75 41.75 1.3 43.55 0.65 45.35 0.0 46.9 0.0 48.95 0.05 50.35 0.65 51.75 1.3 52.5 1.9 53.2 2.5 53.2 2.55 51.1 3.95 49.9 4.2 48.7 4.4 48.25 4.15 47.75 3.9 47.75 3.85 48.2 4.75 48.25 5.8 48.35 6.85 47.65 7.6 46.95 8.35 45.05 8.4 43.2 8.3 42.85 7.1 42.45 5.95 42.75 4.75 43.0 3.6 43.1 3.5 43.0 3.45 42.15 4.05 41.35 4.65 40.5 6.1 39.65 7.6 39.6 10.25 39.6 12.2 39.85 13.55 40.1 14.9 40.4 16.05 40.7 17.2 40.95 18.7 41.2 20.2 41.2 22.45 41.15 26.1 39.9 28.6 38.6 31.05 36.95 32.9 35.3 34.7 34.05 36.25 32.75 37.85 32.7 39.7 L31.2 41.45 30.5 38.9 Q31.55 36.2 33.0 34.35 34.4 32.45 35.8 30.8 37.2 29.2 38.15 27.25 39.05 25.35 39.1 22.6 39.05 17.8 37.0 14.9 34.95 12.0 31.85 10.7 28.7 9.4 25.4 9.45 22.1 9.5 19.45 11.2 16.85 12.9 15.3 15.7 13.8 18.55 13.75 21.9 13.75 25.2 14.85 27.35 15.95 29.55 17.75 30.6 19.55 31.65 21.65 31.65 23.7 31.65 24.85 31.1 25.95 30.55 26.55 29.8 27.1 29.05 27.45 28.5 28.15 27.8 28.85 27.9 29.5 28.0 29.55 28.05 29.6 28.1 29.15 28.85 28.75 29.6 27.85 30.6 26.95 31.6 25.5 32.4 24.05 33.15 21.9 33.2 18.85 33.15 17.0 32.1 15.15 31.1 14.15 29.75 13.2 28.4 12.85 27.4 12.55 26.35 12.55 26.3 12.2 26.9 11.5 27.9 10.75 28.95 9.35 29.85 7.95 30.7 5.45 30.75" fill="#000000" fill-rule="evenodd" stroke="none"/>
    </g>
    <g id="shape28" transform="matrix(1.0, 0.0, 0.0, 1.0, 0.0, 0.0)">
      <path d="M0.0 4.65 Q0.05 4.65 0.7 4.6 1.4 4.55 2.05 4.15 2.7 3.75 2.75 2.75 2.7 1.75 2.05 1.35 1.4 0.95 0.7 0.9 0.05 0.9 0.0 0.9 0.0 0.85 0.6 0.45 1.25 0.05 2.35 0.0 3.45 0.0 4.4 0.8 5.3 1.55 5.35 2.75 5.25 4.0 4.4 4.75 3.5 5.5 2.35 5.55 1.25 5.45 0.6 5.1 0.0 4.7 0.0 4.65" fill="#000000" fill-rule="evenodd" stroke="none"/>
    </g>
    <g id="shape29" transform="matrix(1.0, 0.0, 0.0, 1.0, 0.0, 0.0)">
      <path d="M0.0 2.65 Q0.0 2.7 0.5 3.1 1.05 3.55 1.75 3.75 2.5 3.95 3.25 3.25 3.95 2.5 3.75 1.75 3.55 1.05 3.15 0.5 2.7 0.0 2.65 0.0 2.7 -0.05 3.4 0.1 4.1 0.25 4.9 1.0 5.7 1.85 5.8 3.0 5.9 4.2 5.1 5.1 4.2 5.9 3.0 5.8 1.85 5.7 1.0 4.9 0.25 4.1 0.1 3.4 -0.05 2.7 0.0 2.65" fill="#000000" fill-rule="evenodd" stroke="none"/>
    </g>
    <g id="shape30" transform="matrix(1.0, 0.0, 0.0, 1.0, 0.0, 0.0)">
      <path d="M1.35 5.55 Q0.3 4.95 0.1 3.8 -0.15 2.65 0.35 1.6 0.95 0.7 1.55 0.35 2.2 0.0 2.25 0.0 2.2 0.05 1.95 0.65 1.65 1.25 1.7 2.0 1.75 2.8 2.6 3.3 3.5 3.75 4.15 3.35 4.8 2.95 5.2 2.4 5.55 1.8 5.55 1.75 5.6 1.8 5.65 2.5 5.7 3.25 5.25 4.25 4.65 5.25 3.55 5.65 2.45 6.1 1.35 5.55" fill="#000000" fill-rule="evenodd" stroke="none"/>
    </g>
    <g id="shape31" transform="matrix(1.0, 0.0, 0.0, 1.0, 0.0, 0.0)">
      <path d="M1.8 5.3 Q0.75 4.8 0.25 3.7 -0.25 2.65 0.25 1.5 0.8 0.45 1.95 0.15 3.05 -0.2 4.1 0.3 5.1 0.8 5.45 1.4 5.85 2.05 5.85 2.1 5.8 2.05 5.2 1.8 4.55 1.55 3.8 1.65 3.0 1.7 2.55 2.6 2.15 3.55 2.6 4.15 3.05 4.8 3.65 5.15 4.2 5.45 4.25 5.45 4.25 5.5 3.55 5.6 2.8 5.7 1.8 5.3" fill="#000000" fill-rule="evenodd" stroke="none"/>
    </g>
    <g id="shape32" transform="matrix(1.0, 0.0, 0.0, 1.0, 0.0, 0.0)">
      <path d="M5.5 3.25 Q5.35 4.3 4.95 4.9 4.5 5.45 4.45 5.45 4.45 5.45 4.45 4.75 4.45 4.1 4.15 3.4 3.8 2.7 2.8 2.55 1.8 2.55 1.35 3.15 0.9 3.8 0.8 4.45 0.7 5.1 0.7 5.15 0.65 5.15 0.3 4.5 -0.05 3.85 0.0 2.75 0.15 1.65 0.95 0.8 1.8 -0.05 3.0 0.0 4.25 0.15 4.9 1.15 5.6 2.1 5.5 3.25" fill="#000000" fill-rule="evenodd" stroke="none"/>
    </g>
    <g id="shape33" transform="matrix(1.0, 0.0, 0.0, 1.0, 0.0, 0.0)">
      <path d="M4.05 2.05 Q4.05 2.9 3.45 3.5 2.9 4.05 2.05 4.05 1.2 4.05 0.6 3.5 0.05 2.95 0.0 2.05 0.0 1.1 0.55 0.55 1.15 0.0 2.05 0.0 2.9 0.0 3.45 0.6 4.05 1.15 4.05 2.05" fill="#000000" fill-rule="evenodd" stroke="none"/>
    </g>
    <g id="shape34" transform="matrix(1.0, 0.0, 0.0, 1.0, 0.0, 0.0)">
      <path d="M4.05 2.05 Q4.05 2.9 3.45 3.5 2.9 4.05 2.05 4.05 1.2 4.05 0.6 3.5 0.05 2.95 0.0 2.05 0.0 1.1 0.55 0.55 1.15 0.0 2.05 0.0 2.9 0.0 3.45 0.6 4.05 1.15 4.05 2.05" fill="#000000" fill-rule="evenodd" stroke="none"/>
    </g>
    <g id="shape35" transform="matrix(1.0, 0.0, 0.0, 1.0, 0.0, 0.0)">
      <path d="M0.0 0.05 Q0.05 0.0 0.8 0.0 1.6 0.0 2.6 0.25 3.65 0.55 4.45 1.5 5.2 2.45 5.25 4.3 5.2 5.8 5.1 7.3 4.95 8.75 5.1 9.75 5.25 10.75 6.1 10.8 7.0 10.85 7.45 10.5 7.9 10.2 8.05 9.15 8.2 8.1 8.2 5.95 8.3 3.75 9.55 2.65 10.85 1.6 12.45 1.5 14.1 1.4 15.15 2.15 15.05 2.15 14.2 2.65 13.35 3.15 12.5 4.4 11.65 5.7 11.6 7.9 11.55 11.2 10.4 12.65 9.25 14.1 7.55 14.25 7.55 14.3 7.55 15.2 7.6 16.15 7.7 17.45 7.85 18.75 8.15 19.95 8.5 21.15 9.1 21.75 9.1 21.8 8.9 22.1 8.75 22.4 8.3 22.45 7.85 22.5 7.0 21.9 L5.2 14.5 Q5.1 14.55 4.25 14.3 3.4 14.0 2.5 12.8 1.6 11.6 1.4 8.85 1.35 6.05 1.55 4.45 1.7 2.85 1.5 1.85 1.3 0.9 0.0 0.05" fill="#000000" fill-rule="evenodd" stroke="none"/>
    </g>
    <g id="shape36" transform="matrix(1.0, 0.0, 0.0, 1.0, 0.0, 0.0)">
      <path d="M4.35 0.0 L4.35 0.05 Q4.65 0.4 5.7 1.95 6.7 3.55 7.65 5.8 8.65 8.1 8.7 10.55 8.6 13.75 7.6 15.1 6.6 16.45 5.6 16.7 4.55 17.0 4.35 16.9 4.15 17.0 3.1 16.7 2.1 16.45 1.1 15.1 0.05 13.75 0.0 10.55 0.05 8.1 1.0 5.8 2.0 3.55 3.0 1.95 4.05 0.4 4.35 0.05 L4.35 0.0 Q4.35 0.0 4.35 0.05 4.35 0.0 4.35 0.0" fill="#000000" fill-rule="evenodd" stroke="none"/>
    </g>
    <g id="shape37" transform="matrix(1.0, 0.0, 0.0, 1.0, 0.0, 0.0)">
      <path d="M63.7 12.5 Q63.8 12.05 63.35 10.6 62.95 9.2 61.25 7.9 59.55 6.6 55.8 6.5 52.85 6.55 50.55 7.4 48.3 8.2 46.45 9.35 44.6 10.45 42.85 11.4 41.1 12.3 39.1 12.55 41.1 12.8 42.85 13.75 44.6 14.7 46.45 15.8 48.3 16.95 50.55 17.75 52.8 18.6 55.8 18.65 59.55 18.55 61.25 17.25 62.95 15.95 63.35 14.55 63.8 13.1 63.7 12.65 63.75 12.6 63.7 12.55 63.75 12.55 63.7 12.5 M0.3 12.65 Q0.0 12.6 0.0 12.65 0.05 12.6 0.15 12.55 0.05 12.55 0.0 12.5 0.0 12.5 0.3 12.5 2.3 11.75 3.8 10.65 5.3 9.5 6.4 8.65 7.5 7.8 8.4 7.8 9.6 7.9 10.65 8.55 11.7 9.15 12.6 9.8 13.5 10.4 14.3 10.45 14.2 10.45 13.45 9.65 12.7 8.85 12.35 7.15 11.95 5.5 13.05 2.85 13.0 2.9 13.5 4.1 14.0 5.25 15.6 6.85 17.25 8.4 20.65 9.6 24.05 10.8 29.75 10.85 33.7 10.75 37.2 9.4 40.7 8.05 43.95 6.25 47.2 4.45 50.5 3.1 53.8 1.7 57.45 1.65 59.45 1.7 60.9 2.5 62.35 3.3 63.15 4.15 63.95 4.95 63.95 5.0 63.95 4.95 63.9 4.2 63.9 3.5 64.05 2.5 64.2 1.55 64.75 0.8 65.3 0.05 66.4 0.0 67.9 0.1 68.9 2.0 69.9 3.95 70.3 6.85 70.7 9.7 70.5 12.55 70.7 15.45 70.3 18.3 69.9 21.2 68.9 23.15 67.9 25.05 66.4 25.15 65.3 25.1 64.75 24.35 64.2 23.6 64.05 22.65 63.9 21.65 63.9 20.95 63.95 20.2 63.95 20.15 63.95 20.2 63.15 21.0 62.35 21.85 60.9 22.65 59.45 23.45 57.45 23.5 53.8 23.45 50.5 22.1 47.2 20.7 43.95 18.9 40.7 17.1 37.2 15.75 33.75 14.4 29.75 14.3 24.0 14.4 20.65 15.55 17.25 16.75 15.6 18.3 14.0 19.85 13.5 21.05 13.0 22.25 13.05 22.3 11.95 19.7 12.35 18.0 12.7 16.3 13.45 15.5 14.2 14.7 14.3 14.7 13.5 14.75 12.6 15.35 11.7 16.0 10.65 16.6 9.65 17.25 8.4 17.35 7.5 17.35 6.4 16.5 5.3 15.65 3.8 14.5 2.3 13.4 0.3 12.65" fill="#000000" fill-rule="evenodd" stroke="none"/>
    </g>
    <g id="shape38" transform="matrix(1.0, 0.0, 0.0, 1.0, 0.0, 0.0)">
      <path d="M0.0 15.6 Q0.0 15.5 0.95 14.8 1.9 14.1 3.65 13.85 5.4 13.6 7.8 14.9 7.75 14.85 7.65 14.0 7.55 13.2 8.2 12.25 8.85 11.35 11.05 11.05 11.0 11.0 10.65 11.45 10.3 11.9 10.25 13.85 10.25 15.85 11.8 16.6 13.35 17.4 16.65 17.35 19.9 17.25 21.95 15.75 23.95 14.25 25.25 12.3 26.6 10.3 27.8 8.8 29.05 7.3 30.75 7.2 32.4 7.25 33.45 7.6 34.45 8.0 34.95 8.35 35.4 8.7 35.4 8.75 35.35 8.7 34.95 8.15 34.55 7.6 34.25 6.7 34.0 5.75 34.35 4.65 34.35 4.7 34.7 5.1 35.0 5.55 35.9 5.95 36.8 6.35 38.4 6.4 40.8 6.4 42.5 6.75 44.2 7.1 45.85 7.8 45.8 7.8 45.2 7.25 44.6 6.75 44.1 5.75 43.65 4.75 43.9 3.3 44.15 1.85 45.85 0.0 45.85 0.05 45.9 0.9 45.95 1.8 46.45 3.0 46.95 4.15 48.25 5.2 49.6 6.2 52.05 6.5 54.1 6.75 54.95 7.05 55.8 7.35 56.0 7.8 56.15 8.2 56.1 8.85 56.2 9.75 55.6 10.3 55.0 10.85 52.75 11.55 52.8 11.5 54.65 11.95 56.5 12.4 59.3 13.6 62.1 14.8 65.0 17.0 67.95 19.25 70.2 22.8 L68.8 24.1 Q68.8 24.0 67.5 22.45 66.15 20.85 63.25 18.75 60.35 16.65 55.75 15.05 51.15 13.5 44.6 13.4 40.4 13.4 37.45 14.1 34.55 14.8 32.25 15.85 30.0 16.9 27.75 17.9 25.5 18.95 22.6 19.65 19.75 20.35 15.6 20.4 12.15 20.35 10.0 19.65 7.8 18.9 6.3 18.0 4.8 17.05 3.4 16.35 1.95 15.65 0.0 15.6" fill="#000000" fill-rule="evenodd" stroke="none"/>
    </g>
    <g id="shape39" transform="matrix(1.0, 0.0, 0.0, 1.0, 0.0, 0.0)">
      <path d="M2.55 53.2 Q2.5 53.2 1.9 52.5 1.3 51.75 0.65 50.35 0.05 48.95 0.0 46.9 0.0 45.35 0.65 43.55 1.3 41.75 2.75 40.25 4.2 38.75 6.6 38.05 9.05 37.3 12.55 37.95 12.5 38.0 11.3 36.7 10.15 35.45 8.95 32.55 7.8 29.6 7.7 24.7 7.75 21.55 9.1 19.15 10.5 16.8 12.7 15.2 14.9 13.6 17.4 12.8 19.9 12.0 22.1 12.0 24.3 11.95 25.65 11.2 27.05 10.45 27.8 9.45 28.55 8.45 28.85 7.65 29.1 6.9 29.1 6.85 29.15 6.95 28.5 7.55 27.9 8.15 26.1 8.25 24.3 8.2 23.6 7.4 22.9 6.55 22.95 5.7 22.95 5.15 23.3 4.4 23.7 3.65 24.45 3.05 25.2 2.5 26.3 2.45 26.3 2.4 25.95 1.9 25.6 1.4 24.8 0.85 24.05 0.25 22.8 0.0 22.9 0.0 24.05 0.15 25.25 0.3 26.8 0.85 28.35 1.4 29.5 2.5 30.7 3.6 30.75 5.45 30.7 7.95 29.8 9.35 28.95 10.75 27.9 11.5 26.9 12.2 26.3 12.55 26.35 12.55 27.4 12.9 28.4 13.2 29.75 14.2 31.1 15.15 32.1 17.0 33.15 18.85 33.2 21.9 33.15 24.0 32.4 25.5 31.6 26.95 30.6 27.85 29.6 28.75 28.85 29.15 28.1 29.55 28.05 29.55 28.0 29.5 27.9 28.85 27.8 28.15 28.5 27.5 29.1 27.1 29.8 26.55 30.55 25.95 31.1 24.85 31.65 23.7 31.65 21.65 31.65 19.55 30.6 17.75 29.55 15.95 27.4 14.85 25.2 13.75 21.9 13.75 18.5 13.75 15.7 15.3 12.9 16.85 11.2 19.45 9.5 22.1 9.45 25.4 9.4 28.7 10.7 31.85 12.0 34.95 14.9 37.0 17.8 39.05 22.6 39.1 25.35 39.1 27.25 38.15 29.2 37.2 30.85 35.8 32.45 34.4 34.35 33.0 36.25 31.55 38.9 30.5 L41.45 31.2 39.7 32.7 Q37.85 32.8 36.25 34.05 34.7 35.3 32.85 36.95 31.05 38.6 28.6 39.9 26.1 41.15 22.45 41.2 20.2 41.2 18.7 40.95 17.2 40.7 16.05 40.4 14.9 40.1 13.55 39.85 12.2 39.6 10.25 39.6 7.6 39.65 6.1 40.5 4.65 41.35 4.05 42.2 3.45 43.0 3.5 43.1 3.6 43.0 4.75 42.75 5.95 42.45 7.1 42.85 8.3 43.2 8.4 45.05 8.35 46.95 7.6 47.65 6.85 48.35 5.8 48.25 4.75 48.2 3.85 47.75 3.9 47.7 4.15 48.2 4.4 48.7 4.2 49.9 3.95 51.1 2.55 53.2" fill="#000000" fill-rule="evenodd" stroke="none"/>
    </g>
    <g id="shape40" transform="matrix(1.0, 0.0, 0.0, 1.0, 0.0, 0.0)">
      <path d="M0.0 2.35 Q0.05 1.25 0.45 0.6 0.85 0.0 0.9 0.0 0.9 0.05 0.95 0.7 0.95 1.4 1.35 2.05 1.75 2.7 2.75 2.75 3.8 2.7 4.15 2.05 4.55 1.4 4.6 0.7 4.65 0.05 4.65 0.0 4.7 0.0 5.1 0.6 5.5 1.25 5.55 2.35 5.5 3.45 4.75 4.4 4.0 5.3 2.75 5.35 1.55 5.3 0.8 4.4 0.0 3.5 0.0 2.35" fill="#000000" fill-rule="evenodd" stroke="none"/>
    </g>
    <g id="shape41" transform="matrix(1.0, 0.0, 0.0, 1.0, 0.0, 0.0)">
      <path d="M0.0 2.65 Q0.0 2.7 0.5 3.1 1.05 3.55 1.75 3.75 2.5 3.95 3.25 3.25 3.95 2.5 3.75 1.8 3.55 1.05 3.15 0.5 2.7 0.0 2.65 0.0 2.7 -0.05 3.4 0.1 4.1 0.25 4.9 1.0 5.7 1.85 5.8 3.0 5.9 4.2 5.1 5.1 4.2 5.9 3.0 5.8 1.85 5.7 1.0 4.9 0.25 4.1 0.1 3.4 -0.05 2.7 0.0 2.65" fill="#000000" fill-rule="evenodd" stroke="none"/>
    </g>
    <g id="shape42" transform="matrix(1.0, 0.0, 0.0, 1.0, 0.0, 0.0)">
      <path d="M1.75 5.55 Q1.8 5.55 2.4 5.2 2.95 4.8 3.35 4.15 3.75 3.5 3.3 2.6 2.8 1.7 2.0 1.7 1.25 1.65 0.65 1.95 0.05 2.2 0.0 2.25 0.0 2.2 0.35 1.55 0.7 0.95 1.65 0.35 2.65 -0.15 3.8 0.05 4.95 0.3 5.55 1.35 6.1 2.45 5.65 3.55 5.25 4.65 4.25 5.25 3.25 5.7 2.5 5.65 1.8 5.6 1.75 5.55" fill="#000000" fill-rule="evenodd" stroke="none"/>
    </g>
    <g id="shape43" transform="matrix(1.0, 0.0, 0.0, 1.0, 0.0, 0.0)">
      <path d="M2.6 2.55 Q1.7 3.0 1.65 3.8 1.55 4.55 1.8 5.2 2.0 5.8 2.05 5.85 2.0 5.85 1.4 5.45 0.8 5.1 0.3 4.1 -0.2 3.05 0.1 1.95 0.45 0.8 1.5 0.25 2.65 -0.25 3.7 0.25 4.8 0.75 5.3 1.8 5.7 2.8 5.6 3.55 5.5 4.25 5.45 4.3 5.45 4.2 5.15 3.65 4.8 3.05 4.15 2.6 3.55 2.15 2.6 2.55" fill="#000000" fill-rule="evenodd" stroke="none"/>
    </g>
    <g id="shape44" transform="matrix(1.0, 0.0, 0.0, 1.0, 0.0, 0.0)">
      <path d="M5.45 4.45 Q5.45 4.5 4.9 4.9 4.35 5.35 3.25 5.5 2.1 5.6 1.15 4.9 0.15 4.25 0.0 3.0 -0.05 1.8 0.8 0.95 1.6 0.15 2.75 0.0 3.85 0.0 4.5 0.3 5.15 0.65 5.15 0.7 5.1 0.7 4.45 0.8 3.8 0.9 3.15 1.35 2.5 1.8 2.55 2.8 2.7 3.8 3.4 4.15 4.1 4.5 4.75 4.45 5.4 4.45 5.45 4.45" fill="#000000" fill-rule="evenodd" stroke="none"/>
    </g>
    <g id="shape45" transform="matrix(1.0, 0.0, 0.0, 1.0, 0.0, 0.0)">
      <path d="M4.05 2.05 Q4.05 2.85 3.5 3.45 2.9 4.05 2.05 4.05 1.15 4.05 0.6 3.45 0.0 2.9 0.0 2.05 0.0 1.15 0.55 0.55 1.1 0.0 2.05 0.0 2.95 0.0 3.5 0.6 4.05 1.2 4.05 2.05" fill="#000000" fill-rule="evenodd" stroke="none"/>
    </g>
    <g id="shape46" transform="matrix(1.0, 0.0, 0.0, 1.0, 0.0, 0.0)">
      <path d="M0.0 2.05 Q0.0 1.15 0.55 0.55 1.1 0.0 2.05 0.0 2.95 0.0 3.5 0.6 4.05 1.2 4.05 2.05 4.05 2.85 3.5 3.45 2.9 4.05 2.05 4.05 1.15 4.05 0.6 3.45 0.0 2.9 0.0 2.05" fill="#000000" fill-rule="evenodd" stroke="none"/>
    </g>
    <g id="shape47" transform="matrix(1.0, 0.0, 0.0, 1.0, 0.0, 0.0)">
      <path d="M0.0 2.55 Q0.0 2.55 0.0 2.5 0.0 2.5 0.0 2.45 0.05 1.4 0.8 0.7 1.5 0.05 2.55 0.0 3.6 0.05 4.3 0.75 5.0 1.45 5.05 2.45 L5.1 2.45 Q5.1 2.5 5.1 2.5 5.1 2.55 5.1 2.55 L5.05 2.55 Q5.0 3.6 4.3 4.3 3.6 5.0 2.55 5.05 1.5 5.0 0.75 4.3 0.05 3.6 0.0 2.55" fill="#000000" fill-rule="evenodd" stroke="none"/>
    </g>
    <g id="shape48" transform="matrix(1.0, 0.0, 0.0, 1.0, 0.0, 0.0)">
      <path d="M2.7 0.0 Q2.75 0.0 2.75 0.0 3.8 0.05 4.6 0.75 5.4 1.45 5.45 2.55 5.4 3.6 4.6 4.35 3.8 5.05 2.75 5.1 2.75 5.1 2.7 5.1 2.7 5.1 2.7 5.1 1.65 5.05 0.85 4.35 0.05 3.65 0.0 2.55 0.05 1.45 0.85 0.75 1.6 0.05 2.7 0.0 2.7 0.0 2.7 0.0" fill="#000000" fill-rule="evenodd" stroke="none"/>
    </g>
    <g id="shape49" transform="matrix(1.0, 0.0, 0.0, 1.0, 0.0, 0.0)">
      <path d="M5.95 8.2 Q8.1 8.2 9.15 8.05 10.2 7.9 10.5 7.45 10.85 6.95 10.8 6.1 10.8 5.25 9.75 5.1 8.75 4.95 7.3 5.1 5.8 5.2 4.3 5.25 2.45 5.2 1.5 4.4 0.55 3.65 0.25 2.6 0.0 1.6 0.0 0.8 0.0 0.05 0.05 0.0 0.9 1.3 1.9 1.5 2.85 1.7 4.45 1.55 6.05 1.35 8.85 1.4 11.6 1.6 12.8 2.5 14.0 3.4 14.3 4.25 14.55 5.15 14.5 5.2 L21.9 7.0 Q22.5 7.85 22.45 8.3 22.4 8.75 22.1 8.95 21.8 9.1 21.75 9.1 21.15 8.5 19.95 8.15 18.75 7.85 17.45 7.7 16.15 7.6 15.2 7.55 14.3 7.55 14.25 7.55 14.1 9.25 12.65 10.4 11.2 11.6 7.9 11.6 5.7 11.6 4.4 12.5 3.15 13.35 2.65 14.2 2.15 15.1 2.15 15.15 1.4 14.05 1.5 12.45 1.6 10.85 2.7 9.55 3.75 8.3 5.95 8.2" fill="#000000" fill-rule="evenodd" stroke="none"/>
    </g>
    <g id="shape50" transform="matrix(1.0, 0.0, 0.0, 1.0, 0.0, 0.0)">
      <path d="M18.25 21.55 Q17.7 20.85 15.95 18.85 14.2 16.9 11.85 14.25 9.45 11.6 7.0 8.8 4.6 6.05 2.7 3.7 0.8 1.35 0.0 0.0 1.35 0.8 3.7 2.7 6.05 4.6 8.8 7.0 11.6 9.45 14.25 11.8 16.9 14.2 18.85 15.95 20.8 17.7 21.5 18.25 22.55 19.05 22.55 19.7 22.6 20.35 22.3 20.7 21.95 21.1 21.9 21.1 L26.5 25.7 25.6 26.65 21.0 22.05 Q21.0 22.1 20.65 22.4 20.3 22.7 19.7 22.6 19.05 22.55 18.25 21.55" fill="#000000" fill-rule="evenodd" stroke="none"/>
    </g>
    <g id="shape51" transform="matrix(1.0, 0.0, 0.0, 1.0, 0.0, 0.0)">
      <path d="M1.35 1.35 Q3.2 -0.1 4.55 0.0 5.95 0.1 6.9 1.0 7.8 1.9 8.25 2.75 8.75 3.65 8.75 3.7 8.7 3.65 7.9 3.25 7.05 2.8 5.95 2.8 4.8 2.75 3.85 3.85 2.75 4.8 2.8 5.95 2.85 7.1 3.25 7.9 3.7 8.7 3.75 8.75 3.65 8.75 2.8 8.3 1.9 7.8 1.0 6.9 0.1 5.95 0.0 4.55 -0.1 3.2 1.35 1.35" fill="#000000" fill-rule="evenodd" stroke="none"/>
    </g>
    <g id="shape52" transform="matrix(1.0, 0.0, 0.0, 1.0, 0.0, 0.0)">
      <path d="M15.3 16.55 Q13.1 14.25 10.45 12.0 7.85 9.8 5.5 7.95 3.1 6.15 1.6 5.05 0.05 3.95 0.0 3.9 -0.05 1.7 0.9 0.9 1.85 0.1 2.8 0.05 3.75 0.0 3.85 0.05 3.85 0.1 5.05 1.55 6.2 3.0 8.1 5.3 10.0 7.55 12.3 10.1 14.6 12.65 16.9 14.9 L15.3 16.55" fill="#000000" fill-rule="evenodd" stroke="none"/>
    </g>
    <g id="shape53" transform="matrix(1.0, 0.0, 0.0, 1.0, 0.0, 0.0)">
      <path d="M2.7 5.1 Q2.7 5.1 2.7 5.1 1.6 5.05 0.85 4.35 0.05 3.65 0.0 2.55 0.05 1.45 0.85 0.75 1.65 0.05 2.7 0.0 2.7 0.0 2.7 0.0 2.75 0.0 2.75 0.0 3.8 0.05 4.6 0.75 5.4 1.45 5.45 2.55 5.4 3.6 4.6 4.35 3.8 5.05 2.75 5.1 2.75 5.1 2.7 5.1" fill="#000000" fill-rule="evenodd" stroke="none"/>
    </g>
    <g id="shape54" transform="matrix(1.0, 0.0, 0.0, 1.0, 0.0, 0.0)">
      <path d="M5.55 3.0 Q5.45 4.1 5.1 4.7 4.7 5.3 4.65 5.35 4.65 5.25 4.6 4.6 4.55 3.95 4.15 3.25 3.75 2.6 2.75 2.55 1.75 2.6 1.35 3.3 0.95 3.95 0.9 4.6 0.9 5.3 0.9 5.35 0.85 5.3 0.45 4.7 0.05 4.1 0.0 3.0 0.0 1.85 0.8 0.95 1.55 0.05 2.75 0.0 4.0 0.05 4.75 0.95 5.5 1.85 5.55 3.0" fill="#000000" fill-rule="evenodd" stroke="none"/>
    </g>
    <g id="shape55" transform="matrix(1.0, 0.0, 0.0, 1.0, 0.0, 0.0)">
      <path d="M23.6 21.3 Q22.85 19.9 21.95 19.85 21.05 19.8 20.65 20.3 20.15 20.7 20.25 21.55 20.3 22.45 21.7 23.2 22.75 23.7 23.6 24.9 24.5 26.1 24.5 27.6 24.5 29.15 22.95 30.6 21.5 31.8 20.3 31.9 19.1 32.0 18.2 31.5 17.3 31.0 16.8 30.4 16.25 29.8 16.15 29.65 16.05 29.8 15.55 30.4 15.0 31.0 14.1 31.5 13.2 32.0 12.0 31.9 10.8 31.8 9.4 30.6 7.85 29.15 7.85 27.6 7.85 26.1 8.7 24.9 9.55 23.7 10.6 23.2 12.05 22.45 12.1 21.55 12.15 20.7 11.65 20.3 11.25 19.8 10.35 19.85 9.5 19.9 8.75 21.3 8.25 22.35 7.05 23.2 5.85 24.1 4.3 24.1 2.8 24.1 1.35 22.55 -0.2 20.7 0.0 19.3 0.2 17.9 1.05 17.0 1.85 16.15 2.25 15.95 1.85 15.8 1.05 14.9 0.2 14.05 0.0 12.65 -0.2 11.25 1.35 9.4 2.8 7.85 4.3 7.85 5.85 7.85 7.05 8.75 8.25 9.6 8.75 10.65 9.5 12.05 10.35 12.1 11.25 12.15 11.65 11.65 12.15 11.25 12.1 10.4 12.05 9.5 10.6 8.75 9.55 8.25 8.7 7.05 7.85 5.85 7.85 4.3 7.85 2.8 9.4 1.35 10.8 0.1 12.0 0.0 13.2 -0.1 14.1 0.45 15.0 0.95 15.55 1.55 16.05 2.15 16.15 2.3 16.25 2.15 16.8 1.55 17.3 0.95 18.2 0.45 19.1 -0.05 20.3 0.05 21.5 0.15 22.95 1.35 24.5 2.8 24.5 4.3 24.5 5.85 23.6 7.05 22.75 8.25 21.7 8.75 20.3 9.5 20.25 10.35 20.15 11.25 20.65 11.65 21.05 12.15 21.95 12.1 22.85 12.05 23.6 10.65 24.1 9.6 25.3 8.7 26.5 7.85 28.0 7.85 29.55 7.85 31.0 9.4 32.5 11.25 32.3 12.65 32.1 14.05 31.3 14.9 30.45 15.75 30.1 15.95 30.45 16.15 31.3 17.05 32.1 17.9 32.3 19.3 32.5 20.7 31.0 22.55 29.55 24.1 28.0 24.1 26.5 24.1 25.3 23.2 24.1 22.35 23.6 21.3" fill="#000000" fill-rule="evenodd" stroke="none"/>
    </g>
    <g id="shape56" transform="matrix(1.0, 0.0, 0.0, 1.0, 0.0, 0.0)">
      <path d="M4.05 0.3 Q5.1 0.8 5.6 1.9 6.1 2.95 5.6 4.1 5.05 5.2 3.9 5.5 2.8 5.8 1.75 5.35 0.75 4.8 0.35 4.2 0.0 3.6 0.0 3.55 0.05 3.6 0.65 3.8 1.3 4.05 2.05 4.0 2.8 3.9 3.3 3.0 3.65 2.1 3.25 1.45 2.8 0.8 2.2 0.5 1.6 0.15 1.55 0.15 1.6 0.1 2.3 0.0 3.05 -0.1 4.05 0.3" fill="#000000" fill-rule="evenodd" stroke="none"/>
    </g>
    <g id="shape57" transform="matrix(1.0, 0.0, 0.0, 1.0, 0.0, 0.0)">
      <path d="M0.0 2.05 Q0.0 1.2 0.6 0.6 1.15 0.0 2.05 0.0 2.9 0.0 3.5 0.6 4.05 1.15 4.05 2.05 4.05 2.95 3.5 3.5 2.95 4.05 2.05 4.05 1.1 4.05 0.55 3.45 0.0 2.9 0.0 2.05" fill="#000000" fill-rule="evenodd" stroke="none"/>
    </g>
    <g id="shape58" transform="matrix(1.0, 0.0, 0.0, 1.0, 0.0, 0.0)">
      <path d="M5.05 2.45 L5.1 2.45 Q5.1 2.5 5.1 2.5 5.1 2.55 5.1 2.55 L5.05 2.55 Q5.0 3.6 4.3 4.3 3.6 5.0 2.55 5.05 1.5 5.0 0.8 4.3 0.05 3.6 0.0 2.55 0.0 2.55 0.0 2.5 0.0 2.5 0.0 2.45 0.1 1.45 0.8 0.75 1.5 0.05 2.55 0.0 3.6 0.05 4.3 0.7 5.0 1.4 5.05 2.45" fill="#000000" fill-rule="evenodd" stroke="none"/>
    </g>
    <g id="shape59" transform="matrix(1.0, 0.0, 0.0, 1.0, 0.0, 0.0)">
      <path d="M5.8 3.2 Q5.8 3.15 5.3 2.7 4.8 2.25 4.05 2.05 3.3 1.85 2.55 2.55 1.85 3.3 2.05 4.05 2.25 4.8 2.7 5.3 3.15 5.8 3.2 5.8 3.15 5.85 2.45 5.7 1.7 5.55 0.9 4.8 0.1 4.0 0.0 2.8 -0.1 1.65 0.75 0.75 1.65 -0.1 2.8 0.0 4.0 0.1 4.8 0.9 5.55 1.7 5.7 2.45 5.85 3.15 5.8 3.2" fill="#000000" fill-rule="evenodd" stroke="none"/>
    </g>
    <g id="shape60" transform="matrix(1.0, 0.0, 0.0, 1.0, 0.0, 0.0)">
      <path d="M0.0 2.05 Q0.0 1.15 0.6 0.6 1.2 0.0 2.05 0.0 2.85 0.0 3.45 0.55 4.05 1.1 4.05 2.05 4.05 2.95 3.5 3.5 2.95 4.05 2.05 4.05 1.15 4.05 0.6 3.5 0.0 2.9 0.0 2.05" fill="#000000" fill-rule="evenodd" stroke="none"/>
    </g>
    <g id="shape61" transform="matrix(1.0, 0.0, 0.0, 1.0, 0.0, 0.0)">
      <path d="M8.25 5.1 Q8.8 5.8 10.55 7.75 12.3 9.7 14.7 12.4 17.05 15.05 19.5 17.8 21.95 20.6 23.85 22.95 25.7 25.3 26.5 26.65 25.15 25.85 22.85 23.95 20.5 22.05 17.7 19.65 14.9 17.2 12.25 14.8 9.6 12.45 7.65 10.7 5.7 8.95 5.0 8.4 4.0 7.6 3.95 6.95 3.9 6.3 4.25 5.95 4.55 5.55 4.6 5.55 L0.0 0.95 0.9 0.0 5.5 4.6 Q5.5 4.55 5.85 4.25 6.2 3.95 6.8 4.0 7.45 4.1 8.25 5.1" fill="#000000" fill-rule="evenodd" stroke="none"/>
    </g>
    <g id="shape62" transform="matrix(1.0, 0.0, 0.0, 1.0, 0.0, 0.0)">
      <path d="M16.5 6.95 Q14.35 6.9 13.3 7.1 12.25 7.25 11.95 7.7 11.6 8.15 11.65 9.0 11.65 9.85 12.65 10.05 13.65 10.2 15.15 10.05 16.65 9.95 18.15 9.9 20.0 9.95 20.95 10.7 21.85 11.5 22.15 12.5 22.45 13.55 22.45 14.3 22.4 15.1 22.4 15.15 21.55 13.85 20.55 13.65 19.6 13.4 18.0 13.6 16.4 13.8 13.6 13.75 10.85 13.55 9.65 12.65 8.45 11.75 8.15 10.9 7.9 10.0 7.95 9.95 L0.55 8.15 Q-0.05 7.3 0.0 6.85 0.05 6.35 0.35 6.2 0.65 6.05 0.7 6.05 1.25 6.65 2.45 7.0 3.65 7.3 5.0 7.4 6.3 7.55 7.25 7.55 8.15 7.55 8.2 7.55 8.35 5.9 9.8 4.75 11.25 3.55 14.55 3.55 16.75 3.5 18.0 2.65 19.3 1.8 19.8 0.95 20.3 0.05 20.3 0.0 21.05 1.05 20.95 2.7 20.85 4.3 19.75 5.6 18.7 6.85 16.5 6.95" fill="#000000" fill-rule="evenodd" stroke="none"/>
    </g>
    <g id="shape63" transform="matrix(1.0, 0.0, 0.0, 1.0, 0.0, 0.0)">
      <path d="M70.2 8.5 Q70.2 8.6 69.25 9.3 68.3 10.0 66.55 10.25 64.8 10.5 62.4 9.2 62.45 9.25 62.55 10.1 62.65 10.95 62.0 11.85 61.35 12.75 59.15 13.05 59.2 13.1 59.55 12.65 59.9 12.2 59.95 10.25 59.95 8.25 58.4 7.5 56.85 6.7 53.55 6.75 50.3 6.85 48.3 8.35 46.25 9.85 44.95 11.8 43.6 13.8 42.4 15.3 41.15 16.8 39.45 16.9 37.8 16.85 36.75 16.5 35.75 16.1 35.25 15.75 34.8 15.4 34.8 15.35 34.85 15.4 35.25 15.95 35.65 16.5 35.95 17.4 36.2 18.35 35.85 19.45 35.85 19.4 35.55 19.0 35.2 18.55 34.3 18.15 33.4 17.75 31.8 17.7 29.4 17.7 27.7 17.35 26.05 17.0 24.35 16.3 24.4 16.3 25.0 16.85 25.6 17.35 26.1 18.35 26.55 19.35 26.3 20.8 26.05 22.25 24.35 24.1 24.35 24.05 24.3 23.2 24.25 22.3 23.75 21.1 23.25 19.95 21.95 18.9 20.6 17.9 18.15 17.6 16.1 17.35 15.25 17.05 14.4 16.75 14.2 16.3 14.05 15.9 14.1 15.25 14.0 14.35 14.6 13.8 15.2 13.25 17.45 12.55 17.4 12.6 15.55 12.15 13.7 11.7 10.9 10.5 8.1 9.3 5.2 7.1 2.25 4.85 0.0 1.3 L1.4 0.0 Q1.4 0.1 2.75 1.65 4.05 3.25 6.95 5.35 9.85 7.45 14.45 9.05 19.05 10.6 25.6 10.7 29.8 10.7 32.75 10.0 35.65 9.3 37.95 8.25 40.2 7.2 42.45 6.2 44.7 5.15 47.6 4.45 50.45 3.75 54.6 3.75 58.05 3.75 60.2 4.45 62.4 5.2 63.9 6.1 65.4 7.05 66.8 7.75 68.25 8.45 70.2 8.5" fill="#000000" fill-rule="evenodd" stroke="none"/>
    </g>
    <g id="shape64" transform="matrix(1.0, 0.0, 0.0, 1.0, 0.0, 0.0)">
      <path d="M0.0 1.1 Q0.0 1.05 0.6 0.6 1.15 0.15 2.25 0.0 3.4 -0.05 4.35 0.6 5.3 1.3 5.45 2.5 5.5 3.75 4.7 4.55 3.85 5.4 2.7 5.5 1.6 5.55 0.95 5.2 0.3 4.85 0.3 4.8 0.35 4.85 1.05 4.75 1.7 4.65 2.3 4.2 2.95 3.75 2.9 2.75 2.8 1.75 2.1 1.4 1.4 1.05 0.7 1.05 0.05 1.1 0.0 1.1" fill="#000000" fill-rule="evenodd" stroke="none"/>
    </g>
    <g id="shape65" transform="matrix(1.0, 0.0, 0.0, 1.0, 0.0, 0.0)">
      <path d="M4.25 0.3 Q5.3 0.9 5.55 2.05 5.8 3.25 5.3 4.25 4.7 5.2 4.1 5.55 3.45 5.9 3.4 5.85 3.45 5.85 3.7 5.2 4.0 4.6 3.95 3.85 3.9 3.05 3.05 2.55 2.15 2.1 1.5 2.5 0.8 2.9 0.45 3.5 0.1 4.05 0.1 4.1 0.05 4.05 0.0 3.35 -0.05 2.65 0.4 1.65 0.95 0.65 2.05 0.2 3.15 -0.25 4.25 0.3" fill="#000000" fill-rule="evenodd" stroke="none"/>
    </g>
    <g id="shape66" transform="matrix(1.0, 0.0, 0.0, 1.0, 0.0, 0.0)">
      <path d="M5.8 3.2 Q5.8 3.15 5.3 2.7 4.8 2.25 4.05 2.05 3.3 1.85 2.55 2.55 1.85 3.3 2.05 4.05 2.25 4.8 2.7 5.3 3.15 5.8 3.2 5.8 3.15 5.85 2.45 5.7 1.7 5.55 0.9 4.8 0.1 4.0 0.0 2.8 -0.1 1.65 0.75 0.75 1.65 -0.1 2.8 0.0 4.0 0.1 4.8 0.9 5.55 1.7 5.7 2.45 5.85 3.15 5.8 3.2" fill="#000000" fill-rule="evenodd" stroke="none"/>
    </g>
    <g id="shape67" transform="matrix(1.0, 0.0, 0.0, 1.0, 0.0, 0.0)">
      <path d="M0.0 2.05 Q0.0 1.15 0.6 0.6 1.2 0.0 2.05 0.0 2.85 0.0 3.45 0.55 4.05 1.1 4.05 2.05 4.05 2.95 3.5 3.5 2.95 4.05 2.05 4.05 1.15 4.05 0.6 3.5 0.0 2.9 0.0 2.05" fill="#000000" fill-rule="evenodd" stroke="none"/>
    </g>
    <g id="shape68" transform="matrix(1.0, 0.0, 0.0, 1.0, 0.0, 0.0)">
      <path d="M15.15 22.4 Q15.1 22.4 14.3 22.45 13.55 22.45 12.5 22.15 11.5 21.9 10.7 20.95 9.95 20.0 9.9 18.15 9.95 16.65 10.05 15.15 10.2 13.7 10.0 12.7 9.85 11.7 9.0 11.65 8.15 11.6 7.7 11.9 7.25 12.25 7.1 13.3 6.95 14.35 6.95 16.5 6.85 18.7 5.55 19.75 4.3 20.85 2.7 20.95 1.05 21.05 0.0 20.3 0.05 20.3 0.95 19.8 1.8 19.3 2.65 18.05 3.5 16.75 3.55 14.55 3.55 11.25 4.75 9.8 5.9 8.35 7.55 8.2 7.55 8.15 7.55 7.2 7.55 6.3 7.4 5.0 7.3 3.65 7.0 2.5 6.65 1.3 6.05 0.7 6.05 0.65 6.2 0.35 6.4 0.05 6.85 0.0 7.3 -0.05 8.15 0.55 L9.95 7.95 Q10.0 7.9 10.9 8.15 11.75 8.45 12.65 9.65 13.55 10.85 13.75 13.6 13.8 16.4 13.6 18.0 13.4 19.6 13.65 20.55 13.85 21.55 15.15 22.4" fill="#000000" fill-rule="evenodd" stroke="none"/>
    </g>
    <g id="shape69" transform="matrix(1.0, 0.0, 0.0, 1.0, 0.0, 0.0)">
      <path d="M5.35 0.9 Q5.3 0.9 4.6 0.95 3.95 0.95 3.25 1.35 2.6 1.75 2.55 2.75 2.6 3.8 3.3 4.15 3.95 4.55 4.6 4.6 5.3 4.65 5.35 4.65 5.3 4.7 4.7 5.1 4.1 5.5 3.0 5.55 1.85 5.5 0.95 4.75 0.05 4.0 0.0 2.75 0.05 1.55 0.95 0.8 1.85 0.0 3.0 0.0 4.1 0.05 4.7 0.45 5.3 0.85 5.35 0.9" fill="#000000" fill-rule="evenodd" stroke="none"/>
    </g>
    <g id="shape70" transform="matrix(1.0, 0.0, 0.0, 1.0, 0.0, 0.0)">
      <path d="M0.0 2.25 Q0.15 1.15 0.6 0.6 1.05 0.0 1.1 0.0 1.1 0.05 1.05 0.7 1.05 1.4 1.4 2.1 1.75 2.75 2.75 2.9 3.75 2.95 4.2 2.3 4.65 1.7 4.75 1.0 4.85 0.35 4.8 0.3 4.85 0.35 5.2 0.95 5.55 1.6 5.5 2.7 5.4 3.85 4.55 4.7 3.75 5.5 2.5 5.45 1.3 5.3 0.6 4.35 -0.05 3.4 0.0 2.25" fill="#000000" fill-rule="evenodd" stroke="none"/>
    </g>
    <g id="shape71" transform="matrix(1.0, 0.0, 0.0, 1.0, 0.0, 0.0)">
      <path d="M4.1 0.1 Q4.05 0.1 3.5 0.45 2.9 0.8 2.5 1.5 2.1 2.15 2.55 3.05 3.05 3.9 3.85 3.95 4.6 4.0 5.2 3.7 5.8 3.45 5.85 3.4 5.9 3.45 5.55 4.1 5.2 4.7 4.25 5.3 3.2 5.8 2.05 5.55 0.9 5.3 0.3 4.25 -0.25 3.15 0.2 2.05 0.65 0.95 1.65 0.4 2.6 -0.05 3.35 0.0 4.05 0.05 4.1 0.1" fill="#000000" fill-rule="evenodd" stroke="none"/>
    </g>
    <g id="shape72" transform="matrix(1.0, 0.0, 0.0, 1.0, 0.0, 0.0)">
      <path d="M6.5 14.75 Q6.55 17.8 7.45 20.05 8.3 22.35 9.5 24.25 10.7 26.1 11.65 27.9 12.55 29.7 12.75 31.75 12.95 29.7 13.9 27.9 14.85 26.1 16.05 24.25 17.2 22.35 18.1 20.05 18.95 17.8 19.0 14.75 19.0 11.8 18.1 10.15 17.25 8.5 16.1 7.8 14.9 7.1 13.95 6.95 13.0 6.8 12.8 6.85 12.8 6.85 12.75 6.85 12.75 6.85 12.75 6.85 12.55 6.8 11.6 6.95 10.65 7.1 9.45 7.8 8.3 8.5 7.4 10.15 6.55 11.8 6.5 14.75 M14.7 40.85 Q14.75 46.55 15.95 49.9 17.15 53.3 18.7 54.95 20.25 56.55 21.45 57.05 22.65 57.55 22.7 57.5 20.05 58.6 18.4 58.25 16.7 57.85 15.9 57.1 15.1 56.4 15.1 56.3 15.15 57.05 15.75 57.95 16.4 58.85 17.0 59.9 17.65 60.9 17.75 62.15 17.7 63.1 16.8 64.2 15.9 65.35 14.75 66.85 13.55 68.35 12.8 70.45 12.8 70.55 12.8 70.55 12.8 70.55 12.75 70.5 12.75 70.55 12.75 70.55 12.75 70.55 12.75 70.45 12.0 68.35 10.8 66.85 9.65 65.35 8.75 64.2 7.8 63.05 7.8 62.15 7.9 60.95 8.55 59.9 9.15 58.85 9.8 57.95 10.4 57.05 10.45 56.3 10.45 56.35 9.65 57.1 8.85 57.85 7.15 58.25 5.45 58.6 2.85 57.5 2.9 57.55 4.1 57.05 5.25 56.6 6.85 54.95 8.4 53.3 9.6 49.95 10.8 46.55 10.85 40.85 10.75 36.85 9.4 33.35 8.05 29.9 6.25 26.6 4.45 23.35 3.1 20.05 1.7 16.75 1.65 13.1 1.7 11.15 2.5 9.65 3.3 8.2 4.15 7.4 4.95 6.6 5.0 6.6 4.95 6.6 4.2 6.65 3.5 6.65 2.5 6.5 1.55 6.35 0.8 5.8 0.05 5.25 0.0 4.15 0.1 2.65 2.05 1.65 4.05 0.65 6.95 0.25 9.9 -0.15 12.75 0.1 15.65 -0.15 18.55 0.25 21.5 0.65 23.45 1.65 25.45 2.65 25.55 4.15 25.5 5.3 24.75 5.8 24.0 6.35 23.05 6.5 22.05 6.65 21.3 6.65 20.6 6.6 20.55 6.6 20.6 6.6 21.4 7.4 22.2 8.2 23.05 9.65 23.85 11.1 23.9 13.1 23.85 16.75 22.45 20.05 21.1 23.4 19.3 26.65 17.5 29.9 16.15 33.35 14.8 36.85 14.7 40.85" fill="#000000" fill-rule="evenodd" stroke="none"/>
    </g>
    <g id="shape73" transform="matrix(1.0, 0.0, 0.0, 1.0, 0.0, 0.0)">
      <path d="M4.05 2.05 Q4.05 2.95 3.5 3.5 2.95 4.05 2.05 4.05 1.1 4.05 0.55 3.45 0.0 2.9 0.0 2.05 0.0 1.2 0.6 0.6 1.15 0.05 2.05 0.0 2.9 0.0 3.5 0.6 4.05 1.15 4.05 2.05" fill="#000000" fill-rule="evenodd" stroke="none"/>
    </g>
    <g id="shape74" transform="matrix(1.0, 0.0, 0.0, 1.0, 0.0, 0.0)">
      <path d="M38.9 0.0 Q38.95 0.0 39.55 0.75 40.15 1.45 40.8 2.85 41.4 4.25 41.45 6.3 41.45 7.85 40.8 9.65 40.15 11.45 38.7 12.95 37.25 14.5 34.8 15.2 32.4 15.9 28.85 15.25 28.95 15.2 30.15 16.5 31.3 17.75 32.5 20.7 33.65 23.6 33.75 28.5 33.7 31.65 32.35 34.05 30.95 36.4 28.75 38.0 26.55 39.6 24.05 40.4 21.55 41.2 19.35 41.2 17.15 41.25 15.8 42.0 14.4 42.8 13.65 43.8 12.9 44.8 12.6 45.55 12.35 46.3 12.35 46.35 12.3 46.25 12.95 45.65 13.55 45.05 15.35 44.95 17.15 45.0 17.85 45.85 18.55 46.65 18.5 47.5 18.5 48.05 18.15 48.8 17.75 49.55 17.0 50.15 16.25 50.7 15.15 50.75 15.15 50.8 15.5 51.3 15.85 51.8 16.65 52.35 17.4 52.95 18.65 53.2 18.55 53.2 17.4 53.05 16.2 52.9 14.65 52.35 13.1 51.8 11.95 50.7 10.75 49.6 10.7 47.75 10.75 45.25 11.65 43.85 12.5 42.45 13.55 41.75 14.55 41.0 15.15 40.65 15.1 40.65 14.05 40.3 13.05 40.0 11.7 39.05 10.35 38.05 9.35 36.2 8.3 34.35 8.25 31.3 8.3 29.2 9.05 27.7 9.85 26.25 10.85 25.35 11.85 24.45 12.6 24.05 13.35 23.65 13.4 23.65 13.45 23.7 13.55 24.4 13.65 25.05 12.9 25.75 12.35 26.1 11.65 26.65 10.9 27.25 10.35 28.35 9.8 29.5 9.8 31.55 9.8 33.7 10.85 35.45 11.9 37.25 14.05 38.35 16.25 39.45 19.55 39.45 22.9 39.45 25.75 37.9 28.55 36.35 30.25 33.75 31.95 31.15 32.0 27.85 32.05 24.5 30.75 21.35 29.45 18.25 26.55 16.2 23.65 14.15 18.85 14.1 16.1 14.1 14.2 15.05 12.25 16.0 10.6 17.4 9.0 18.8 7.1 20.25 5.2 21.65 2.55 22.7 L0.0 22.0 1.75 20.5 Q3.6 20.4 5.2 19.15 6.75 17.9 8.55 16.25 10.4 14.6 12.85 13.3 15.35 12.05 19.0 12.0 21.25 12.0 22.75 12.25 24.2 12.5 25.4 12.8 26.55 13.1 27.9 13.35 29.25 13.6 31.2 13.6 33.85 13.55 35.35 12.7 36.8 11.9 37.4 11.05 38.0 10.2 37.95 10.15 37.85 10.2 36.7 10.45 35.5 10.75 34.35 10.35 33.15 10.0 33.05 8.15 33.1 6.25 33.85 5.55 34.6 4.85 35.65 4.95 36.7 5.0 37.6 5.45 37.55 5.5 37.3 5.0 37.05 4.5 37.25 3.3 37.5 2.1 38.9 0.0" fill="#000000" fill-rule="evenodd" stroke="none"/>
    </g>
    <g id="shape75" transform="matrix(1.0, 0.0, 0.0, 1.0, 0.0, 0.0)">
      <path d="M4.35 16.9 L4.35 16.85 Q4.05 16.55 3.0 14.95 2.0 13.4 1.0 11.1 0.05 8.8 0.0 6.35 0.05 3.2 1.1 1.85 2.1 0.5 3.1 0.2 4.15 -0.05 4.35 0.0 4.55 -0.05 5.6 0.2 6.6 0.5 7.6 1.85 8.6 3.2 8.7 6.35 8.65 8.85 7.65 11.1 6.7 13.4 5.7 14.95 4.65 16.55 4.35 16.85 L4.35 16.9 Q4.35 16.9 4.35 16.9 4.3 16.9 4.35 16.9" fill="#000000" fill-rule="evenodd" stroke="none"/>
    </g>
    <g id="shape76" transform="matrix(1.0, 0.0, 0.0, 1.0, 0.0, 0.0)">
      <path d="M9.2 62.4 Q10.5 64.8 10.25 66.55 10.0 68.3 9.3 69.25 8.6 70.2 8.5 70.2 8.45 68.25 7.75 66.8 7.05 65.4 6.1 63.9 5.2 62.4 4.5 60.2 3.8 58.05 3.75 54.6 3.75 50.45 4.45 47.6 5.15 44.7 6.2 42.45 7.2 40.2 8.25 37.95 9.3 35.65 10.0 32.75 10.7 29.8 10.7 25.6 10.65 19.1 9.05 14.45 7.45 9.85 5.35 6.95 3.25 4.05 1.65 2.75 0.1 1.4 0.0 1.4 L1.3 0.0 Q4.85 2.25 7.05 5.2 9.3 8.1 10.5 10.9 11.7 13.7 12.15 15.55 12.6 17.4 12.6 17.45 13.25 15.2 13.8 14.6 14.35 14.0 15.25 14.1 15.9 14.05 16.3 14.2 16.75 14.4 17.05 15.25 17.35 16.1 17.6 18.15 17.9 20.65 18.9 21.95 19.9 23.25 21.1 23.75 22.3 24.25 23.2 24.3 24.05 24.35 24.1 24.35 22.25 26.0 20.8 26.3 19.35 26.55 18.35 26.1 17.35 25.6 16.85 25.0 16.3 24.4 16.3 24.35 17.0 26.0 17.35 27.7 17.7 29.4 17.7 31.8 17.75 33.4 18.15 34.3 18.55 35.2 19.0 35.5 19.4 35.85 19.45 35.85 18.3 36.2 17.4 35.95 16.5 35.65 15.95 35.25 15.35 34.85 15.35 34.8 15.4 34.8 15.75 35.25 16.15 35.75 16.5 36.75 16.85 37.8 16.9 39.45 16.8 41.15 15.3 42.4 13.8 43.6 11.8 44.95 9.85 46.25 8.35 48.25 6.85 50.3 6.75 53.55 6.7 56.85 7.5 58.4 8.25 59.95 10.25 59.95 12.2 59.9 12.65 59.55 13.1 59.2 13.05 59.15 12.75 61.35 11.85 62.0 10.95 62.65 10.1 62.55 9.25 62.45 9.2 62.4" fill="#000000" fill-rule="evenodd" stroke="none"/>
    </g>
    <g id="shape77" transform="matrix(1.0, 0.0, 0.0, 1.0, 0.0, 0.0)">
      <path d="M13.1 16.5 Q13.05 16.45 11.9 15.0 10.75 13.55 8.8 11.25 6.9 9.0 4.6 6.45 2.3 3.9 0.0 1.65 L1.6 0.0 Q3.85 2.3 6.45 4.55 9.05 6.75 11.45 8.6 13.8 10.4 15.35 11.5 16.85 12.6 16.9 12.65 16.95 14.85 16.0 15.65 15.1 16.45 14.15 16.5 13.15 16.55 13.1 16.5" fill="#000000" fill-rule="evenodd" stroke="none"/>
    </g>
    <g id="shape78" transform="matrix(1.0, 0.0, 0.0, 1.0, 0.0, 0.0)">
      <path d="M7.4 7.4 Q5.55 8.85 4.15 8.75 2.8 8.65 1.85 7.75 0.95 6.85 0.45 6.0 0.0 5.1 0.0 5.05 0.05 5.1 0.85 5.5 1.65 5.95 2.8 5.95 3.9 6.0 4.9 4.9 6.0 3.95 5.95 2.8 5.9 1.7 5.5 0.85 5.05 0.05 5.0 0.0 5.05 0.0 5.95 0.45 6.8 0.95 7.7 1.85 8.6 2.8 8.75 4.2 8.85 5.55 7.4 7.4" fill="#000000" fill-rule="evenodd" stroke="none"/>
    </g>
    <g id="shape79" transform="matrix(1.0, 0.0, 0.0, 1.0, 0.0, 0.0)">
      <path d="M3.0 3.3 Q3.9 2.8 4.0 2.05 4.05 1.3 3.8 0.65 3.6 0.05 3.55 0.0 3.6 0.0 4.2 0.35 4.85 0.75 5.35 1.75 5.8 2.8 5.5 3.9 5.2 5.05 4.1 5.6 2.95 6.1 1.9 5.6 0.8 5.1 0.3 4.05 -0.1 3.05 0.0 2.3 0.1 1.6 0.15 1.55 0.15 1.65 0.5 2.2 0.8 2.8 1.45 3.25 2.05 3.7 3.0 3.3" fill="#000000" fill-rule="evenodd" stroke="none"/>
    </g>
    <g id="shape80" transform="matrix(1.0, 0.0, 0.0, 1.0, 0.0, 0.0)">
      <path d="M47.75 10.7 Q49.6 10.75 50.7 11.95 51.8 13.1 52.35 14.65 52.9 16.2 53.05 17.4 53.2 18.6 53.2 18.65 52.95 17.4 52.35 16.65 51.8 15.85 51.3 15.5 50.8 15.15 50.75 15.15 50.75 16.25 50.15 17.0 49.55 17.75 48.8 18.1 48.05 18.5 47.5 18.5 46.65 18.55 45.85 17.85 45.0 17.15 44.95 15.35 45.05 13.55 45.65 12.95 46.25 12.3 46.35 12.35 46.3 12.35 45.55 12.6 44.75 12.9 43.75 13.65 42.75 14.4 42.0 15.8 41.25 17.15 41.2 19.35 41.2 21.55 40.4 24.05 39.6 26.5 38.0 28.75 36.4 30.95 34.05 32.3 31.65 33.7 28.5 33.75 23.6 33.65 20.7 32.5 17.75 31.3 16.5 30.15 15.2 28.95 15.25 28.85 15.9 32.4 15.2 34.8 14.5 37.25 12.95 38.7 11.45 40.15 9.65 40.8 7.85 41.45 6.3 41.45 4.25 41.4 2.85 40.8 1.45 40.15 0.7 39.55 0.0 38.95 0.0 38.9 2.1 37.5 3.3 37.25 4.5 37.05 5.0 37.3 5.5 37.55 5.45 37.6 5.05 36.7 4.95 35.65 4.85 34.6 5.55 33.85 6.25 33.1 8.15 33.05 10.0 33.15 10.35 34.35 10.75 35.5 10.5 36.7 10.2 37.85 10.15 37.95 10.2 38.0 11.05 37.4 11.85 36.8 12.7 35.35 13.55 33.85 13.6 31.2 13.6 29.25 13.35 27.9 13.1 26.55 12.8 25.4 12.5 24.25 12.25 22.75 12.0 21.25 12.0 19.0 12.05 15.35 13.3 12.85 14.6 10.4 16.25 8.55 17.9 6.75 19.15 5.2 20.45 3.6 20.5 1.75 L22.0 0.0 22.7 2.55 Q21.65 5.2 20.25 7.1 18.8 9.0 17.4 10.6 16.0 12.25 15.05 14.2 14.15 16.1 14.1 18.85 14.15 23.65 16.2 26.55 18.25 29.45 21.35 30.75 24.5 32.05 27.8 32.0 31.1 31.95 33.75 30.25 36.35 28.55 37.9 25.75 39.4 22.9 39.45 19.55 39.45 16.25 38.35 14.1 37.25 11.9 35.45 10.85 33.7 9.8 31.55 9.8 29.5 9.8 28.35 10.35 27.25 10.9 26.7 11.65 26.1 12.35 25.75 12.9 25.05 13.65 24.4 13.55 23.7 13.45 23.65 13.4 23.65 13.35 24.05 12.6 24.45 11.85 25.35 10.85 26.25 9.8 27.7 9.05 29.15 8.3 31.3 8.25 34.35 8.3 36.2 9.35 38.05 10.35 39.05 11.7 40.0 13.05 40.35 14.05 40.65 15.1 40.65 15.15 41.0 14.55 41.7 13.5 42.45 12.5 43.85 11.6 45.25 10.75 47.75 10.7" fill="#000000" fill-rule="evenodd" stroke="none"/>
    </g>
    <g id="shape81" transform="matrix(1.0, 0.0, 0.0, 1.0, 0.0, 0.0)">
      <path d="M24.1 1.4 Q24.0 1.4 22.45 2.75 20.85 4.05 18.75 6.95 16.65 9.85 15.05 14.45 13.5 19.05 13.4 25.6 13.4 29.8 14.1 32.75 14.8 35.65 15.85 37.95 16.9 40.2 17.9 42.45 18.95 44.7 19.65 47.6 20.35 50.45 20.35 54.6 20.35 58.05 19.65 60.2 18.9 62.4 18.0 63.9 17.05 65.4 16.35 66.8 15.65 68.25 15.6 70.2 15.5 70.2 14.8 69.25 14.1 68.3 13.85 66.55 13.6 64.8 14.9 62.4 14.85 62.45 14.0 62.55 13.15 62.65 12.25 62.0 11.35 61.35 11.05 59.15 11.0 59.2 11.45 59.55 11.9 59.9 13.85 59.95 15.85 59.95 16.6 58.4 17.4 56.85 17.35 53.55 17.25 50.3 15.75 48.3 14.25 46.25 12.3 44.95 10.3 43.6 8.8 42.4 7.3 41.15 7.2 39.45 7.25 37.8 7.6 36.75 8.0 35.75 8.35 35.25 8.7 34.8 8.75 34.8 8.7 34.85 8.15 35.25 7.6 35.65 6.7 35.95 5.75 36.2 4.65 35.85 4.7 35.85 5.1 35.55 5.55 35.2 5.95 34.3 6.35 33.4 6.4 31.8 6.4 29.4 6.75 27.7 7.1 26.05 7.8 24.35 7.8 24.4 7.25 25.0 6.75 25.6 5.75 26.1 4.75 26.55 3.3 26.3 1.85 26.05 0.0 24.35 0.05 24.35 0.9 24.3 1.8 24.25 3.0 23.75 4.15 23.25 5.2 21.95 6.2 20.6 6.5 18.15 6.75 16.1 7.05 15.25 7.35 14.4 7.8 14.2 8.2 14.05 8.85 14.1 9.75 14.0 10.3 14.6 10.85 15.2 11.55 17.45 11.5 17.4 11.95 15.55 12.4 13.7 13.6 10.9 14.8 8.1 17.0 5.2 19.25 2.25 22.8 0.0 L24.1 1.4" fill="#000000" fill-rule="evenodd" stroke="none"/>
    </g>
    <g id="shape82" transform="matrix(1.0, 0.0, 0.0, 1.0, 0.0, 0.0)">
      <path d="M47.75 37.6 Q47.7 37.55 48.2 37.3 48.7 37.05 49.9 37.25 51.1 37.5 53.2 38.9 53.2 38.95 52.5 39.55 51.75 40.15 50.35 40.8 48.95 41.4 46.9 41.45 45.35 41.45 43.55 40.8 41.75 40.15 40.25 38.7 38.75 37.25 38.05 34.8 37.35 32.4 37.95 28.85 38.0 28.95 36.7 30.15 35.45 31.3 32.55 32.5 29.6 33.65 24.7 33.75 21.55 33.7 19.15 32.35 16.8 30.95 15.2 28.75 13.6 26.55 12.8 24.05 12.0 21.55 12.0 19.35 11.95 17.15 11.2 15.8 10.45 14.4 9.45 13.65 8.45 12.9 7.65 12.6 6.9 12.35 6.85 12.35 6.95 12.3 7.55 12.95 8.15 13.55 8.25 15.35 8.2 17.15 7.4 17.85 6.55 18.55 5.7 18.5 5.15 18.5 4.4 18.15 3.65 17.75 3.05 17.0 2.5 16.25 2.45 15.15 2.4 15.15 1.9 15.5 1.4 15.85 0.85 16.65 0.25 17.4 0.0 18.65 0.0 18.55 0.15 17.4 0.3 16.2 0.85 14.65 1.4 13.1 2.5 11.95 3.6 10.75 5.45 10.7 7.95 10.75 9.35 11.65 10.75 12.5 11.5 13.55 12.2 14.55 12.55 15.15 12.55 15.1 12.9 14.05 13.2 13.05 14.2 11.7 15.15 10.35 17.0 9.35 18.85 8.3 21.9 8.25 24.0 8.3 25.5 9.05 26.95 9.85 27.85 10.85 28.75 11.85 29.15 12.6 29.55 13.35 29.55 13.4 29.5 13.45 28.85 13.55 28.15 13.65 27.45 12.9 27.1 12.35 26.55 11.65 25.95 10.9 24.85 10.35 23.7 9.8 21.65 9.8 19.55 9.8 17.75 10.85 15.95 11.9 14.85 14.05 13.75 16.25 13.75 19.55 13.75 22.9 15.3 25.75 16.85 28.55 19.45 30.25 22.1 31.95 25.4 32.0 28.7 32.05 31.85 30.75 34.95 29.45 37.0 26.55 39.05 23.65 39.1 18.85 39.1 16.1 38.15 14.2 37.2 12.25 35.8 10.6 34.4 9.0 33.0 7.1 31.55 5.2 30.5 2.55 L31.2 0.0 32.7 1.75 Q32.8 3.6 34.05 5.2 35.3 6.75 36.95 8.55 38.6 10.4 39.9 12.85 41.15 15.35 41.2 19.0 41.2 21.25 40.95 22.75 40.7 24.2 40.4 25.4 40.1 26.55 39.85 27.9 39.6 29.25 39.6 31.2 39.65 33.85 40.5 35.35 41.35 36.8 42.2 37.4 43.0 38.0 43.1 37.95 43.0 37.85 42.75 36.7 42.45 35.5 42.85 34.35 43.2 33.15 45.05 33.05 46.95 33.1 47.65 33.85 48.35 34.6 48.25 35.65 48.2 36.7 47.75 37.6" fill="#000000" fill-rule="evenodd" stroke="none"/>
    </g>
    <g id="shape83" transform="matrix(1.0, 0.0, 0.0, 1.0, 0.0, 0.0)">
      <path d="M0.0 4.65 Q0.05 4.65 0.7 4.6 1.4 4.55 2.05 4.15 2.7 3.75 2.75 2.75 2.7 1.75 2.05 1.35 1.4 0.95 0.7 0.95 0.05 0.9 0.0 0.9 0.0 0.85 0.6 0.45 1.25 0.05 2.35 0.0 3.45 0.0 4.4 0.8 5.3 1.55 5.35 2.75 5.25 4.0 4.4 4.75 3.5 5.5 2.35 5.55 1.25 5.45 0.6 5.1 0.0 4.7 0.0 4.65" fill="#000000" fill-rule="evenodd" stroke="none"/>
    </g>
    <g id="shape84" transform="matrix(1.0, 0.0, 0.0, 1.0, 0.0, 0.0)">
      <path d="M2.65 5.8 Q2.7 5.8 3.1 5.3 3.55 4.8 3.75 4.05 3.95 3.3 3.25 2.55 2.5 1.85 1.75 2.05 1.05 2.25 0.5 2.7 0.0 3.15 0.0 3.2 -0.05 3.15 0.1 2.45 0.25 1.7 1.0 0.9 1.85 0.1 3.0 0.0 4.2 -0.1 5.1 0.75 5.9 1.65 5.8 2.8 5.7 4.0 4.9 4.8 4.1 5.55 3.4 5.7 2.7 5.85 2.65 5.8" fill="#000000" fill-rule="evenodd" stroke="none"/>
    </g>
    <g id="shape85" transform="matrix(1.0, 0.0, 0.0, 1.0, 0.0, 0.0)">
      <path d="M2.6 2.55 Q1.7 3.05 1.7 3.85 1.65 4.6 1.95 5.2 2.2 5.8 2.25 5.85 2.2 5.9 1.55 5.55 0.95 5.2 0.35 4.25 -0.15 3.2 0.05 2.05 0.3 0.9 1.35 0.3 2.45 -0.25 3.55 0.2 4.65 0.65 5.25 1.65 5.7 2.6 5.65 3.35 5.6 4.05 5.55 4.1 5.55 4.05 5.2 3.5 4.8 2.9 4.15 2.5 3.5 2.1 2.6 2.55" fill="#000000" fill-rule="evenodd" stroke="none"/>
    </g>
    <g id="shape86" transform="matrix(1.0, 0.0, 0.0, 1.0, 0.0, 0.0)">
      <path d="M4.25 0.15 Q4.2 0.15 3.65 0.5 3.05 0.8 2.6 1.45 2.15 2.05 2.55 3.0 3.0 3.9 3.8 4.0 4.55 4.05 5.2 3.8 5.8 3.6 5.85 3.55 5.85 3.6 5.45 4.2 5.1 4.85 4.1 5.35 3.05 5.8 1.95 5.5 0.8 5.2 0.25 4.1 -0.25 2.95 0.25 1.9 0.75 0.8 1.8 0.3 2.8 -0.1 3.5 0.0 4.25 0.1 4.25 0.15" fill="#000000" fill-rule="evenodd" stroke="none"/>
    </g>
    <g id="shape87" transform="matrix(1.0, 0.0, 0.0, 1.0, 0.0, 0.0)">
      <path d="M2.8 2.9 Q3.8 2.8 4.15 2.1 4.5 1.4 4.45 0.7 4.45 0.05 4.45 0.0 4.5 0.0 4.95 0.6 5.35 1.15 5.5 2.25 5.6 3.4 4.9 4.35 4.25 5.3 3.0 5.45 1.8 5.5 0.95 4.7 0.15 3.85 0.0 2.7 0.0 1.6 0.3 0.95 0.65 0.35 0.7 0.3 0.7 0.35 0.8 1.05 0.9 1.7 1.35 2.3 1.8 2.95 2.8 2.9" fill="#000000" fill-rule="evenodd" stroke="none"/>
    </g>
    <g id="shape88" transform="matrix(1.0, 0.0, 0.0, 1.0, 0.0, 0.0)">
      <path d="M4.05 2.05 Q4.05 2.9 3.45 3.5 2.9 4.05 2.05 4.05 1.15 4.05 0.55 3.5 0.0 2.95 0.0 2.05 0.0 1.1 0.6 0.55 1.2 0.0 2.05 0.0 2.85 0.0 3.45 0.6 4.05 1.15 4.05 2.05" fill="#000000" fill-rule="evenodd" stroke="none"/>
    </g>
    <g id="shape89" transform="matrix(1.0, 0.0, 0.0, 1.0, 0.0, 0.0)">
      <path d="M0.0 2.05 Q0.0 1.1 0.6 0.55 1.2 0.0 2.05 0.0 2.85 0.0 3.45 0.6 4.05 1.15 4.05 2.05 4.05 2.9 3.45 3.5 2.9 4.05 2.05 4.05 1.15 4.05 0.55 3.5 0.0 2.95 0.0 2.05" fill="#000000" fill-rule="evenodd" stroke="none"/>
    </g>
    <g id="shape90" transform="matrix(1.0, 0.0, 0.0, 1.0, 0.0, 0.0)">
      <path d="M6.1 11.65 Q5.25 11.65 5.1 12.65 4.95 13.65 5.1 15.15 5.2 16.65 5.25 18.15 5.2 20.0 4.4 20.95 3.65 21.9 2.6 22.15 1.6 22.45 0.8 22.45 0.05 22.4 0.0 22.4 1.3 21.55 1.5 20.55 1.7 19.6 1.55 18.0 1.35 16.4 1.4 13.6 1.6 10.85 2.5 9.65 3.4 8.45 4.25 8.15 5.15 7.9 5.2 7.95 L7.0 0.55 Q7.85 -0.05 8.3 0.0 8.75 0.05 8.95 0.35 9.1 0.65 9.1 0.7 8.5 1.25 8.15 2.45 7.85 3.65 7.7 5.0 7.6 6.3 7.55 7.25 7.55 8.15 7.55 8.2 9.25 8.35 10.4 9.8 11.6 11.25 11.6 14.55 11.6 16.75 12.5 18.0 13.35 19.3 14.2 19.8 15.1 20.3 15.15 20.3 14.05 21.05 12.45 20.95 10.85 20.85 9.55 19.75 8.3 18.7 8.2 16.5 8.2 14.35 8.05 13.3 7.9 12.25 7.45 11.95 6.95 11.6 6.1 11.65" fill="#000000" fill-rule="evenodd" stroke="none"/>
    </g>
    <g id="shape91" transform="matrix(1.0, 0.0, 0.0, 1.0, 0.0, 0.0)">
      <path d="M16.65 6.75 Q13.35 6.7 11.8 7.5 10.25 8.25 10.25 10.25 10.3 12.2 10.65 12.65 11.0 13.1 11.05 13.05 8.85 12.75 8.2 11.85 7.55 10.9 7.65 10.1 7.75 9.25 7.8 9.2 5.4 10.5 3.65 10.25 1.9 10.0 0.95 9.3 0.0 8.6 0.0 8.5 1.95 8.45 3.4 7.75 4.8 7.05 6.3 6.1 7.8 5.2 10.0 4.5 12.15 3.8 15.6 3.75 19.75 3.75 22.6 4.45 25.5 5.15 27.75 6.2 30.0 7.2 32.3 8.25 34.55 9.3 37.45 10.0 40.4 10.7 44.6 10.7 51.1 10.65 55.75 9.05 60.35 7.45 63.25 5.35 66.15 3.25 67.5 1.65 68.8 0.1 68.8 0.0 L70.2 1.3 Q67.95 4.85 65.0 7.05 62.1 9.3 59.3 10.5 56.5 11.7 54.65 12.15 52.8 12.6 52.75 12.55 55.0 13.25 55.6 13.8 56.2 14.35 56.1 15.25 56.15 15.9 56.0 16.3 55.85 16.75 54.95 17.05 54.1 17.35 52.05 17.6 49.55 17.9 48.25 18.9 46.95 19.9 46.45 21.1 45.95 22.3 45.9 23.2 45.85 24.05 45.85 24.1 44.2 22.25 43.9 20.8 43.65 19.35 44.1 18.35 44.6 17.35 45.2 16.85 45.8 16.3 45.85 16.3 44.2 17.0 42.5 17.35 40.8 17.7 38.4 17.7 36.8 17.75 35.9 18.15 35.0 18.55 34.7 19.0 34.35 19.4 34.35 19.45 34.0 18.3 34.25 17.4 34.55 16.5 34.95 15.95 35.35 15.35 35.4 15.35 35.4 15.4 34.95 15.75 34.45 16.15 33.45 16.5 32.4 16.85 30.75 16.9 29.05 16.8 27.8 15.3 26.6 13.8 25.25 11.8 23.95 9.85 21.95 8.35 19.9 6.85 16.65 6.75" fill="#000000" fill-rule="evenodd" stroke="none"/>
    </g>
    <g id="shape92" transform="matrix(1.0, 0.0, 0.0, 1.0, 0.0, 0.0)">
      <path d="M26.3 40.65 Q26.9 41.0 27.9 41.7 28.95 42.45 29.85 43.85 30.7 45.25 30.75 47.75 30.65 49.6 29.5 50.7 28.3 51.8 26.75 52.35 25.25 52.9 24.05 53.05 22.85 53.2 22.8 53.2 24.05 52.95 24.8 52.35 25.6 51.8 25.95 51.3 26.3 50.8 26.3 50.75 25.2 50.75 24.45 50.15 23.7 49.55 23.3 48.8 22.95 48.05 22.95 47.5 22.9 46.65 23.6 45.85 24.3 45.0 26.1 44.95 27.85 45.05 28.5 45.65 29.15 46.25 29.1 46.35 29.1 46.3 28.85 45.55 28.55 44.8 27.8 43.75 27.05 42.75 25.65 42.0 24.3 41.25 22.1 41.2 19.9 41.2 17.4 40.4 14.95 39.6 12.7 38.0 10.5 36.4 9.15 34.05 7.75 31.65 7.7 28.5 7.8 23.6 8.95 20.7 10.15 17.75 11.3 16.5 12.45 15.2 12.55 15.25 9.05 15.9 6.65 15.2 4.2 14.5 2.75 12.95 1.3 11.45 0.65 9.65 0.0 7.85 0.0 6.3 0.05 4.25 0.65 2.85 1.3 1.45 1.9 0.7 2.5 0.0 2.55 0.0 3.95 2.1 4.2 3.3 4.4 4.5 4.15 5.0 3.9 5.5 3.85 5.45 4.75 5.05 5.8 4.95 6.85 4.85 7.6 5.55 8.35 6.25 8.4 8.15 8.3 10.0 7.1 10.35 5.95 10.75 4.75 10.5 3.6 10.2 3.5 10.15 3.45 10.2 4.05 11.05 4.65 11.85 6.1 12.7 7.6 13.55 10.25 13.6 12.2 13.6 13.55 13.35 14.9 13.15 16.05 12.8 17.2 12.5 18.7 12.25 20.2 12.0 22.45 12.0 26.1 12.05 28.6 13.3 31.05 14.6 32.9 16.25 34.7 17.9 36.25 19.15 37.85 20.45 39.7 20.5 L41.45 22.0 38.9 22.7 Q36.2 21.65 34.35 20.25 32.45 18.8 30.85 17.4 29.2 16.0 27.25 15.05 25.35 14.15 22.6 14.1 17.8 14.15 14.9 16.2 12.0 18.25 10.7 21.35 9.4 24.5 9.45 27.85 9.5 31.1 11.2 33.75 12.9 36.35 15.7 37.9 18.55 39.4 21.9 39.45 25.2 39.45 27.35 38.35 29.55 37.25 30.6 35.45 31.65 33.7 31.65 31.55 31.65 29.5 31.1 28.35 30.55 27.25 29.8 26.7 29.05 26.1 28.5 25.75 27.8 25.05 27.9 24.4 28.0 23.7 28.05 23.65 28.1 23.65 28.85 24.05 29.6 24.45 30.6 25.35 31.6 26.25 32.4 27.7 33.15 29.15 33.2 31.3 33.15 34.35 32.1 36.2 31.1 38.05 29.75 39.05 28.4 40.0 27.4 40.35 26.35 40.65 26.3 40.65" fill="#000000" fill-rule="evenodd" stroke="none"/>
    </g>
    <g id="shape93" transform="matrix(1.0, 0.0, 0.0, 1.0, 0.0, 0.0)">
      <path d="M5.55 3.0 Q5.45 4.1 5.1 4.7 4.7 5.3 4.65 5.35 4.65 5.25 4.6 4.6 4.55 3.95 4.15 3.25 3.75 2.6 2.75 2.55 1.75 2.6 1.35 3.3 0.95 3.95 0.95 4.6 0.9 5.3 0.9 5.35 0.85 5.3 0.45 4.7 0.05 4.1 0.0 3.0 0.0 1.85 0.8 0.95 1.55 0.05 2.75 0.0 4.0 0.05 4.75 0.95 5.5 1.85 5.55 3.0" fill="#000000" fill-rule="evenodd" stroke="none"/>
    </g>
    <g id="shape94" transform="matrix(1.0, 0.0, 0.0, 1.0, 0.0, 0.0)">
      <path d="M2.65 5.8 Q2.7 5.8 3.1 5.3 3.55 4.8 3.75 4.05 3.95 3.3 3.25 2.55 2.5 1.85 1.75 2.05 1.05 2.25 0.5 2.7 0.0 3.15 0.0 3.2 -0.05 3.15 0.1 2.45 0.25 1.7 1.0 0.9 1.85 0.1 3.0 0.0 4.2 -0.1 5.1 0.75 5.9 1.65 5.8 2.8 5.7 4.0 4.9 4.8 4.1 5.55 3.4 5.7 2.7 5.85 2.65 5.8" fill="#000000" fill-rule="evenodd" stroke="none"/>
    </g>
    <g id="shape95" transform="matrix(1.0, 0.0, 0.0, 1.0, 0.0, 0.0)">
      <path d="M5.55 4.25 Q4.95 5.3 3.8 5.55 2.65 5.8 1.65 5.3 0.7 4.7 0.35 4.1 0.0 3.45 0.0 3.4 0.05 3.45 0.65 3.7 1.25 4.0 2.0 3.95 2.8 3.9 3.3 3.05 3.75 2.15 3.35 1.5 2.95 0.8 2.4 0.45 1.8 0.1 1.75 0.1 1.8 0.05 2.5 0.0 3.25 -0.05 4.25 0.4 5.25 0.95 5.65 2.05 6.1 3.15 5.55 4.25" fill="#000000" fill-rule="evenodd" stroke="none"/>
    </g>
    <g id="shape96" transform="matrix(1.0, 0.0, 0.0, 1.0, 0.0, 0.0)">
      <path d="M0.3 1.75 Q0.8 0.75 1.4 0.35 2.0 0.0 2.05 0.0 2.05 0.05 1.8 0.65 1.55 1.3 1.65 2.05 1.7 2.8 2.6 3.3 3.55 3.65 4.15 3.25 4.8 2.8 5.15 2.2 5.45 1.6 5.45 1.55 5.5 1.6 5.6 2.3 5.7 3.05 5.3 4.05 4.8 5.1 3.7 5.6 2.65 6.1 1.5 5.6 0.45 5.05 0.15 3.9 -0.2 2.8 0.3 1.75" fill="#000000" fill-rule="evenodd" stroke="none"/>
    </g>
    <g id="shape97" transform="matrix(1.0, 0.0, 0.0, 1.0, 0.0, 0.0)">
      <path d="M5.45 1.1 Q5.45 1.1 4.75 1.05 4.1 1.05 3.4 1.4 2.7 1.75 2.55 2.75 2.55 3.75 3.15 4.2 3.8 4.65 4.45 4.75 5.1 4.85 5.15 4.8 5.15 4.85 4.5 5.2 3.85 5.55 2.75 5.5 1.65 5.4 0.8 4.55 -0.05 3.75 0.0 2.5 0.15 1.3 1.15 0.6 2.1 -0.05 3.25 0.0 4.3 0.15 4.9 0.6 5.45 1.05 5.45 1.1" fill="#000000" fill-rule="evenodd" stroke="none"/>
    </g>
    <g id="shape98" transform="matrix(1.0, 0.0, 0.0, 1.0, 0.0, 0.0)">
      <path d="M0.0 2.05 Q0.0 1.15 0.6 0.6 1.15 0.0 2.05 0.0 2.9 0.0 3.5 0.6 4.05 1.2 4.05 2.05 4.05 2.85 3.5 3.45 2.95 4.05 2.05 4.05 1.1 4.05 0.55 3.5 0.0 2.95 0.0 2.05" fill="#000000" fill-rule="evenodd" stroke="none"/>
    </g>
    <g id="shape99" transform="matrix(1.0, 0.0, 0.0, 1.0, 0.0, 0.0)">
      <path d="M2.05 0.0 Q2.9 0.0 3.5 0.6 4.05 1.2 4.05 2.05 4.05 2.85 3.5 3.45 2.95 4.05 2.05 4.05 1.1 4.05 0.55 3.5 0.0 2.95 0.0 2.05 0.0 1.15 0.6 0.6 1.15 0.0 2.05 0.0" fill="#000000" fill-rule="evenodd" stroke="none"/>
    </g>
    <g id="shape100" transform="matrix(1.0, 0.0, 0.0, 1.0, 0.0, 0.0)">
      <path d="M4.3 9.9 Q5.8 9.95 7.3 10.05 8.75 10.2 9.75 10.0 10.75 9.85 10.8 9.0 10.85 8.15 10.5 7.7 10.2 7.25 9.15 7.1 8.1 6.95 5.95 6.95 3.75 6.85 2.65 5.55 1.6 4.3 1.5 2.65 1.4 1.05 2.15 0.0 2.15 0.05 2.65 0.95 3.15 1.8 4.4 2.65 5.7 3.5 7.9 3.55 11.2 3.55 12.65 4.75 14.1 5.9 14.25 7.55 14.3 7.55 15.2 7.55 16.15 7.55 17.45 7.4 18.75 7.3 19.95 7.0 21.15 6.65 21.75 6.05 21.8 6.05 22.1 6.2 22.4 6.35 22.45 6.85 22.5 7.3 21.9 8.15 L14.5 9.95 Q14.55 10.0 14.3 10.9 14.0 11.75 12.8 12.65 11.6 13.55 8.85 13.75 6.05 13.8 4.45 13.6 2.85 13.4 1.9 13.65 0.9 13.85 0.05 15.15 0.0 15.1 0.0 14.3 0.0 13.55 0.25 12.5 0.55 11.5 1.5 10.7 2.45 9.95 4.3 9.9" fill="#000000" fill-rule="evenodd" stroke="none"/>
    </g>
    <g id="shape101" transform="matrix(1.0, 0.0, 0.0, 1.0, 0.0, 0.0)">
      <path d="M21.9 5.55 Q21.95 5.55 22.3 5.95 22.6 6.3 22.55 6.95 22.55 7.6 21.5 8.4 20.8 8.95 18.85 10.7 16.9 12.45 14.25 14.8 11.6 17.2 8.8 19.65 6.05 22.05 3.7 23.95 1.35 25.85 0.0 26.65 0.8 25.3 2.7 22.95 4.6 20.6 7.0 17.8 9.45 15.05 11.85 12.4 14.2 9.7 15.95 7.75 17.7 5.8 18.25 5.1 19.1 4.1 19.7 4.0 20.3 3.95 20.65 4.25 21.0 4.55 21.0 4.6 L25.6 0.0 26.5 0.95 21.9 5.55" fill="#000000" fill-rule="evenodd" stroke="none"/>
    </g>
    <g id="shape102" transform="matrix(1.0, 0.0, 0.0, 1.0, 0.0, 0.0)">
      <path d="M8.75 5.05 Q8.75 5.1 8.25 6.0 7.8 6.85 6.85 7.75 5.95 8.65 4.55 8.75 3.2 8.85 1.35 7.4 -0.1 5.6 0.0 4.2 0.1 2.8 1.0 1.85 1.9 0.95 2.8 0.45 3.7 0.0 3.75 0.0 3.7 0.05 3.25 0.85 2.8 1.7 2.8 2.8 2.75 3.95 3.85 4.9 4.8 6.0 5.95 6.0 7.05 5.95 7.9 5.55 8.7 5.1 8.75 5.05" fill="#000000" fill-rule="evenodd" stroke="none"/>
    </g>
    <g id="shape103" transform="matrix(1.0, 0.0, 0.0, 1.0, 0.0, 0.0)">
      <path d="M3.85 16.5 Q3.75 16.55 2.8 16.5 1.85 16.45 0.9 15.65 -0.05 14.85 0.0 12.65 0.05 12.6 1.6 11.5 3.1 10.4 5.5 8.6 7.85 6.75 10.45 4.55 13.05 2.3 15.3 0.0 L16.9 1.65 Q14.6 3.9 12.3 6.45 10.05 9.0 8.1 11.25 6.2 13.55 5.05 15.0 3.9 16.45 3.85 16.5" fill="#000000" fill-rule="evenodd" stroke="none"/>
    </g>
    <g id="shape104" transform="matrix(1.0, 0.0, 0.0, 1.0, 0.0, 0.0)">
      <path d="M0.05 4.15 Q0.0 4.1 0.0 4.1 L0.15 4.1 Q0.6 3.75 2.2 2.75 3.75 1.8 5.95 0.9 8.2 0.05 10.55 0.0 13.6 0.05 14.95 0.95 16.35 1.85 16.65 2.85 16.95 3.85 16.9 4.15 16.95 4.15 16.9 4.15 16.95 4.15 16.9 4.15 17.0 4.5 16.65 5.45 16.35 6.45 14.95 7.35 13.6 8.25 10.55 8.3 8.2 8.25 5.95 7.4 3.75 6.5 2.2 5.55 0.6 4.55 0.15 4.2 L0.0 4.2 Q0.0 4.2 0.05 4.15" fill="#000000" fill-rule="evenodd" stroke="none"/>
    </g>
  </defs>
</svg>
