<?xml version="1.0" encoding="UTF-8" standalone="no"?>
<svg xmlns:ffdec="https://www.free-decompiler.com/flash" xmlns:xlink="http://www.w3.org/1999/xlink" ffdec:objectType="frame" height="200.0px" width="198.0px" xmlns="http://www.w3.org/2000/svg">
  <g transform="matrix(1.0, 0.0, 0.0, 1.0, 0.0, 0.0)">
    <rect fill="#ffffff" height="200.0px" width="198.0px"/>
    <use ffdec:characterId="1" height="27.25" transform="matrix(1.0, 0.0, 0.0, 1.0, 168.9, 86.35)" width="28.5" xlink:href="#shape0"/>
    <use ffdec:characterId="2" height="28.9" transform="matrix(1.0, 0.0, 0.0, 1.0, 114.9, 85.5)" width="44.75" xlink:href="#shape1"/>
    <use ffdec:characterId="3" height="36.25" transform="matrix(1.0, 0.0, 0.0, 1.0, 115.3, 32.2)" width="41.4" xlink:href="#shape2"/>
    <use ffdec:characterId="4" height="6.4" transform="matrix(1.0, 0.0, 0.0, 1.0, 88.95, 30.25)" width="19.45" xlink:href="#shape3"/>
    <use ffdec:characterId="5" height="45.9" transform="matrix(1.0, 0.0, 0.0, 1.0, 116.25, 42.85)" width="17.7" xlink:href="#shape4"/>
    <use ffdec:characterId="6" height="46.15" transform="matrix(1.0, 0.0, 0.0, 1.0, 131.2, 36.25)" width="31.15" xlink:href="#shape5"/>
    <use ffdec:characterId="7" height="27.25" transform="matrix(1.0, 0.0, 0.0, 1.0, 0.0, 86.35)" width="28.5" xlink:href="#shape6"/>
    <use ffdec:characterId="8" height="85.25" transform="matrix(1.0, 0.0, 0.0, 1.0, 79.8, 0.0)" width="37.8" xlink:href="#shape7"/>
    <use ffdec:characterId="9" height="60.2" transform="matrix(1.0, 0.0, 0.0, 1.0, 29.15, 69.85)" width="10.4" xlink:href="#shape8"/>
    <use ffdec:characterId="10" height="36.25" transform="matrix(1.0, 0.0, 0.0, 1.0, 40.7, 32.2)" width="41.4" xlink:href="#shape9"/>
    <use ffdec:characterId="11" height="11.0" transform="matrix(1.0, 0.0, 0.0, 1.0, 61.35, 94.5)" width="3.75" xlink:href="#shape10"/>
    <use ffdec:characterId="12" height="45.9" transform="matrix(1.0, 0.0, 0.0, 1.0, 63.4, 42.85)" width="17.7" xlink:href="#shape11"/>
    <use ffdec:characterId="13" height="46.15" transform="matrix(1.0, 0.0, 0.0, 1.0, 35.0, 36.25)" width="31.15" xlink:href="#shape12"/>
    <use ffdec:characterId="14" height="35.85" transform="matrix(1.0, 0.0, 0.0, 1.0, 81.2, 82.05)" width="15.3" xlink:href="#shape13"/>
    <use ffdec:characterId="15" height="60.2" transform="matrix(1.0, 0.0, 0.0, 1.0, 157.85, 69.85)" width="10.4" xlink:href="#shape14"/>
    <use ffdec:characterId="16" height="36.25" transform="matrix(1.0, 0.0, 0.0, 1.0, 115.3, 131.5)" width="41.4" xlink:href="#shape15"/>
    <use ffdec:characterId="17" height="85.25" transform="matrix(1.0, 0.0, 0.0, 1.0, 79.8, 114.75)" width="37.8" xlink:href="#shape16"/>
    <use ffdec:characterId="18" height="11.0" transform="matrix(1.0, 0.0, 0.0, 1.0, 132.25, 94.5)" width="3.75" xlink:href="#shape17"/>
    <use ffdec:characterId="19" height="45.9" transform="matrix(1.0, 0.0, 0.0, 1.0, 116.25, 111.2)" width="17.7" xlink:href="#shape18"/>
    <use ffdec:characterId="20" height="46.15" transform="matrix(1.0, 0.0, 0.0, 1.0, 131.2, 117.55)" width="31.15" xlink:href="#shape19"/>
    <use ffdec:characterId="21" height="35.85" transform="matrix(1.0, 0.0, 0.0, 1.0, 100.9, 82.05)" width="15.3" xlink:href="#shape20"/>
    <use ffdec:characterId="22" height="28.9" transform="matrix(1.0, 0.0, 0.0, 1.0, 37.7, 85.5)" width="44.75" xlink:href="#shape21"/>
    <use ffdec:characterId="23" height="36.25" transform="matrix(1.0, 0.0, 0.0, 1.0, 40.7, 131.5)" width="41.4" xlink:href="#shape22"/>
    <use ffdec:characterId="24" height="6.4" transform="matrix(1.0, 0.0, 0.0, 1.0, 88.95, 163.3)" width="19.45" xlink:href="#shape23"/>
    <use ffdec:characterId="25" height="45.9" transform="matrix(1.0, 0.0, 0.0, 1.0, 63.4, 111.2)" width="17.7" xlink:href="#shape24"/>
    <use ffdec:characterId="26" height="46.15" transform="matrix(1.0, 0.0, 0.0, 1.0, 35.0, 117.55)" width="31.15" xlink:href="#shape25"/>
  </g>
  <defs>
    <g id="shape0" transform="matrix(1.0, 0.0, 0.0, 1.0, 0.0, 0.0)">
      <path d="M28.5 13.6 L28.5 13.65 Q28.5 13.65 28.5 13.65 28.45 13.75 26.85 15.4 25.25 17.05 21.85 19.35 18.45 21.65 13.05 23.85 7.65 26.05 0.0 27.25 L0.4 23.45 Q6.55 22.5 10.9 20.9 15.2 19.3 17.9 17.65 20.55 16.0 21.75 14.85 23.0 13.7 23.0 13.65 23.0 13.55 21.75 12.4 20.55 11.25 17.9 9.6 15.2 7.95 10.9 6.35 6.6 4.75 0.4 3.8 L0.0 0.0 Q7.65 1.2 13.05 3.4 18.45 5.6 21.85 7.9 25.25 10.2 26.85 11.85 28.45 13.5 28.5 13.6" fill="#000000" fill-rule="evenodd" stroke="none"/>
    </g>
    <g id="shape1" transform="matrix(1.0, 0.0, 0.0, 1.0, 0.0, 0.0)">
      <path d="M44.75 3.85 Q43.6 3.8 42.4 3.8 33.05 3.9 26.35 5.45 19.65 7.05 15.3 9.1 10.9 11.15 8.5 12.75 6.1 14.35 5.3 14.45 6.1 14.55 8.5 16.15 10.9 17.75 15.25 19.8 19.65 21.9 26.35 23.45 33.05 25.0 42.4 25.1 43.6 25.1 44.75 25.1 L43.95 28.85 Q43.3 28.9 43.2 28.9 43.05 28.9 42.4 28.9 33.35 28.85 26.4 27.4 19.45 26.0 14.45 23.85 9.45 21.75 6.25 19.6 3.1 17.45 1.55 16.0 0.0 14.55 0.0 14.45 0.0 14.45 0.0 14.45 0.05 14.35 1.55 12.9 3.1 11.45 6.3 9.3 9.45 7.15 14.45 5.05 19.45 2.9 26.4 1.5 33.35 0.05 42.4 0.0 43.05 0.0 43.2 0.0 43.3 0.0 43.95 0.05 L44.75 3.85" fill="#000000" fill-rule="evenodd" stroke="none"/>
    </g>
    <g id="shape2" transform="matrix(1.0, 0.0, 0.0, 1.0, 0.0, 0.0)">
      <path d="M39.25 36.25 Q35.1 28.95 29.15 22.95 23.2 16.95 15.9 12.6 8.6 8.25 0.4 5.9 L0.0 0.0 Q13.05 3.2 23.6 10.75 34.2 18.25 41.4 29.1 41.4 29.15 41.3 30.15 41.2 31.15 40.75 32.75 40.25 34.4 39.25 36.25" fill="#000000" fill-rule="evenodd" stroke="none"/>
    </g>
    <g id="shape3" transform="matrix(1.0, 0.0, 0.0, 1.0, 0.0, 0.0)">
      <path d="M19.45 6.4 Q14.7 5.65 9.75 5.65 4.75 5.65 0.0 6.4 L0.3 0.65 Q2.5 0.35 4.95 0.2 7.4 0.0 9.7 0.0 9.7 0.0 9.75 0.0 9.75 0.0 9.75 0.0 12.05 0.0 14.5 0.2 16.95 0.35 19.2 0.65 L19.45 6.4" fill="#000000" fill-rule="evenodd" stroke="none"/>
    </g>
    <g id="shape4" transform="matrix(1.0, 0.0, 0.0, 1.0, 0.0, 0.0)">
      <path d="M10.55 1.75 Q8.1 4.0 6.65 6.65 5.2 9.35 4.55 11.9 3.95 14.5 3.95 16.5 3.9 18.4 4.75 21.45 5.55 24.55 7.65 27.8 L9.95 31.75 Q12.55 34.65 14.5 38.0 16.45 41.35 17.7 45.0 L14.4 45.9 Q13.25 42.85 11.5 40.05 9.75 37.2 7.35 34.3 7.35 34.25 6.7 33.25 6.05 32.3 5.25 31.1 4.5 29.9 4.05 29.2 2.05 26.0 1.05 22.7 0.0 19.4 0.0 16.5 0.0 13.95 0.75 11.1 1.5 8.2 3.05 5.35 4.65 2.45 7.0 0.0 L10.55 1.75" fill="#000000" fill-rule="evenodd" stroke="none"/>
    </g>
    <g id="shape5" transform="matrix(1.0, 0.0, 0.0, 1.0, 0.0, 0.0)">
      <path d="M8.1 3.95 Q6.9 3.95 5.8 4.05 L1.4 0.95 Q4.45 0.0 8.1 0.0 14.05 0.05 18.4 2.35 22.75 4.6 25.6 8.15 28.4 11.7 29.8 15.65 31.15 19.6 31.15 23.05 31.15 26.55 29.8 30.5 28.4 34.45 25.55 38.0 22.7 41.55 18.35 43.8 14.0 46.05 8.1 46.15 4.55 46.1 1.6 45.25 L0.0 40.6 Q3.35 42.15 8.1 42.2 13.85 42.1 17.6 39.95 21.35 37.8 23.45 34.6 25.55 31.4 26.45 28.25 27.3 25.1 27.25 23.05 27.25 20.15 26.15 16.85 25.05 13.55 22.7 10.65 20.4 7.7 16.75 5.85 13.15 4.0 8.1 3.95" fill="#000000" fill-rule="evenodd" stroke="none"/>
    </g>
    <g id="shape6" transform="matrix(1.0, 0.0, 0.0, 1.0, 0.0, 0.0)">
      <path d="M28.1 3.8 Q21.9 4.75 17.6 6.35 13.3 7.95 10.6 9.6 7.95 11.25 6.7 12.4 5.5 13.55 5.5 13.65 5.5 13.7 6.7 14.85 7.95 16.0 10.6 17.65 13.3 19.3 17.6 20.9 21.9 22.5 28.1 23.45 L28.5 27.25 Q20.85 26.05 15.45 23.85 10.05 21.65 6.65 19.35 3.25 17.05 1.65 15.4 0.0 13.75 0.0 13.65 0.0 13.6 0.0 13.65 L0.0 13.6 Q0.05 13.5 1.65 11.85 3.25 10.25 6.65 7.9 10.05 5.6 15.45 3.4 20.85 1.2 28.5 0.0 L28.1 3.8" fill="#000000" fill-rule="evenodd" stroke="none"/>
    </g>
    <g id="shape7" transform="matrix(1.0, 0.0, 0.0, 1.0, 0.0, 0.0)">
      <path d="M7.5 39.65 Q7.55 46.6 8.85 52.5 10.2 58.35 12.05 63.05 15.3 62.45 18.85 62.45 18.85 62.45 18.9 62.45 18.9 62.45 18.9 62.45 22.5 62.45 25.75 63.05 27.6 58.35 28.9 52.5 30.2 46.6 30.25 39.65 30.2 30.4 28.55 23.9 26.9 17.4 24.7 13.35 22.5 9.35 20.8 7.45 19.1 5.55 18.9 5.5 18.7 5.55 17.0 7.45 15.3 9.35 13.1 13.35 10.9 17.4 9.25 23.9 7.6 30.4 7.5 39.65 M18.9 78.15 Q19.1 76.95 20.65 74.05 22.15 71.2 24.2 66.75 21.5 66.3 18.9 66.3 16.25 66.3 13.6 66.75 15.6 71.2 17.15 74.05 18.7 76.95 18.9 78.15 M1.6 66.65 Q4.6 65.05 8.0 64.0 6.15 58.75 4.95 52.6 3.75 46.45 3.7 39.55 3.75 30.95 5.25 24.45 6.7 17.95 8.9 13.35 11.05 8.75 13.3 5.85 15.5 2.95 17.05 1.55 18.65 0.15 18.85 0.05 L18.85 0.0 Q18.85 0.0 18.9 0.0 18.9 0.0 18.9 0.0 L18.9 0.05 Q19.15 0.15 20.7 1.55 22.25 2.95 24.5 5.85 26.7 8.75 28.9 13.35 31.05 17.95 32.55 24.45 34.0 30.95 34.05 39.55 34.0 46.45 32.85 52.6 31.65 58.75 29.8 64.0 33.15 65.05 36.2 66.65 L37.8 72.1 Q33.3 69.2 28.4 67.75 26.3 72.85 24.25 76.65 22.15 80.45 20.7 82.6 19.2 84.8 18.9 85.15 L18.9 85.25 Q18.9 85.2 18.9 85.2 18.85 85.2 18.85 85.25 L18.85 85.15 Q18.55 84.8 17.1 82.6 15.6 80.45 13.55 76.65 11.5 72.85 9.4 67.75 4.5 69.2 0.0 72.1 L1.6 66.65" fill="#000000" fill-rule="evenodd" stroke="none"/>
    </g>
    <g id="shape8" transform="matrix(1.0, 0.0, 0.0, 1.0, 0.0, 0.0)">
      <path d="M10.4 54.25 L6.75 60.2 Q3.45 53.35 1.75 45.8 0.0 38.2 0.0 30.1 0.0 30.1 0.0 30.1 0.0 30.1 0.0 30.1 0.0 22.0 1.75 14.4 3.5 6.85 6.75 0.0 L10.4 5.95 Q5.75 17.2 5.65 30.1 5.75 43.0 10.4 54.25" fill="#000000" fill-rule="evenodd" stroke="none"/>
    </g>
    <g id="shape9" transform="matrix(1.0, 0.0, 0.0, 1.0, 0.0, 0.0)">
      <path d="M0.0 29.1 Q7.2 18.25 17.8 10.75 28.35 3.2 41.4 0.0 L41.05 5.9 Q32.85 8.25 25.5 12.6 18.2 16.95 12.25 22.95 6.3 28.95 2.15 36.25 1.15 34.4 0.65 32.75 0.2 31.15 0.1 30.15 0.0 29.15 0.0 29.1" fill="#000000" fill-rule="evenodd" stroke="none"/>
    </g>
    <g id="shape10" transform="matrix(1.0, 0.0, 0.0, 1.0, 0.0, 0.0)">
      <path d="M0.4 0.0 L3.75 1.05 Q3.5 3.15 3.5 5.5 3.5 7.85 3.75 9.95 L0.4 11.0 Q0.0 8.25 0.0 5.5 0.0 5.5 0.0 5.5 0.0 5.5 0.0 5.5 0.0 2.75 0.4 0.0" fill="#000000" fill-rule="evenodd" stroke="none"/>
    </g>
    <g id="shape11" transform="matrix(1.0, 0.0, 0.0, 1.0, 0.0, 0.0)">
      <path d="M7.75 31.75 L10.1 27.8 Q12.15 24.55 13.0 21.45 13.85 18.4 13.8 16.5 13.8 14.5 13.15 11.9 12.55 9.35 11.1 6.65 9.6 4.0 7.2 1.75 L10.7 0.0 Q13.1 2.45 14.65 5.35 16.2 8.2 16.95 11.1 17.7 13.95 17.7 16.5 17.7 19.4 16.7 22.7 15.65 26.0 13.65 29.2 13.25 29.9 12.45 31.1 11.7 32.3 11.05 33.25 10.4 34.25 10.35 34.3 8.0 37.2 6.2 40.05 4.45 42.85 3.3 45.9 L0.0 45.0 Q1.25 41.35 3.2 38.0 5.15 34.65 7.75 31.75" fill="#000000" fill-rule="evenodd" stroke="none"/>
    </g>
    <g id="shape12" transform="matrix(1.0, 0.0, 0.0, 1.0, 0.0, 0.0)">
      <path d="M23.05 46.15 Q17.15 46.05 12.8 43.8 8.45 41.55 5.6 38.0 2.75 34.45 1.4 30.5 0.0 26.55 0.0 23.05 0.0 19.6 1.35 15.65 2.75 11.7 5.55 8.15 8.4 4.6 12.75 2.35 17.1 0.05 23.05 0.0 26.7 0.0 29.8 0.95 L25.35 4.05 Q24.25 3.9 23.05 3.95 18.05 4.0 14.4 5.85 10.75 7.7 8.45 10.6 6.15 13.55 5.05 16.85 3.95 20.1 3.95 23.05 3.9 25.1 4.75 28.25 5.6 31.4 7.7 34.6 9.8 37.8 13.55 39.95 17.3 42.1 23.05 42.2 27.8 42.15 31.15 40.6 L29.55 45.25 Q26.6 46.1 23.05 46.15" fill="#000000" fill-rule="evenodd" stroke="none"/>
    </g>
    <g id="shape13" transform="matrix(1.0, 0.0, 0.0, 1.0, 0.0, 0.0)">
      <path d="M15.3 3.8 Q15.25 3.9 14.0 5.7 12.75 7.55 10.85 10.1 8.9 12.65 6.85 14.9 4.75 17.1 3.05 17.95 4.8 18.8 6.85 21.0 8.9 23.2 10.85 25.75 12.75 28.3 14.0 30.15 15.25 31.95 15.3 32.05 L13.2 35.85 Q9.75 30.65 6.75 27.3 3.8 23.95 1.9 22.35 0.05 20.75 0.0 20.75 L3.05 17.95 0.0 15.15 Q0.05 15.15 1.9 13.55 3.8 11.9 6.75 8.55 9.75 5.2 13.2 0.0 L15.3 3.8" fill="#000000" fill-rule="evenodd" stroke="none"/>
    </g>
    <g id="shape14" transform="matrix(1.0, 0.0, 0.0, 1.0, 0.0, 0.0)">
      <path d="M0.0 5.95 L3.65 0.0 Q6.9 6.85 8.65 14.4 10.35 22.0 10.4 30.1 10.4 30.1 10.4 30.1 10.4 30.1 10.4 30.1 10.35 38.25 8.65 45.8 6.9 53.35 3.65 60.2 L0.0 54.25 Q4.65 43.0 4.75 30.1 4.65 17.2 0.0 5.95" fill="#000000" fill-rule="evenodd" stroke="none"/>
    </g>
    <g id="shape15" transform="matrix(1.0, 0.0, 0.0, 1.0, 0.0, 0.0)">
      <path d="M41.4 7.1 Q34.2 17.95 23.6 25.5 13.05 33.0 0.0 36.25 L0.4 30.3 Q8.6 27.95 15.9 23.6 23.2 19.3 29.15 13.3 35.1 7.3 39.25 0.0 40.25 1.85 40.75 3.45 41.2 5.05 41.3 6.05 41.4 7.05 41.4 7.1" fill="#000000" fill-rule="evenodd" stroke="none"/>
    </g>
    <g id="shape16" transform="matrix(1.0, 0.0, 0.0, 1.0, 0.0, 0.0)">
      <path d="M30.25 45.55 Q30.2 38.6 28.9 32.75 27.6 26.9 25.75 22.2 22.5 22.8 18.9 22.8 18.9 22.8 18.9 22.8 18.9 22.8 18.85 22.8 15.3 22.8 12.05 22.2 10.15 26.85 8.85 32.75 7.55 38.6 7.5 45.55 7.6 54.8 9.25 61.3 10.9 67.8 13.1 71.85 15.3 75.9 17.0 77.8 18.7 79.7 18.9 79.75 19.1 79.65 20.8 77.8 22.5 75.9 24.7 71.85 26.85 67.8 28.5 61.3 30.15 54.8 30.25 45.55 M18.9 7.1 Q18.7 8.3 17.15 11.15 15.6 14.05 13.6 18.45 16.25 18.9 18.9 18.95 21.5 18.95 24.2 18.45 22.15 14.05 20.65 11.15 19.1 8.3 18.9 7.1 M36.2 18.6 Q33.15 20.2 29.8 21.2 31.65 26.45 32.8 32.6 34.0 38.8 34.05 45.7 34.0 54.3 32.55 60.75 31.05 67.25 28.9 71.85 26.7 76.5 24.5 79.4 22.25 82.3 20.7 83.7 19.15 85.1 18.9 85.2 L18.9 85.25 Q18.9 85.2 18.9 85.2 18.9 85.2 18.85 85.25 L18.85 85.2 Q18.65 85.1 17.1 83.7 15.5 82.3 13.3 79.4 11.05 76.5 8.9 71.9 6.7 67.25 5.25 60.8 3.75 54.3 3.7 45.7 3.75 38.8 4.95 32.6 6.15 26.45 8.0 21.2 4.6 20.2 1.6 18.6 L0.0 13.1 Q4.5 16.0 9.4 17.5 11.5 12.35 13.55 8.6 15.6 4.8 17.1 2.6 18.55 0.4 18.85 0.05 L18.85 0.0 Q18.85 0.0 18.9 0.05 18.9 0.0 18.9 0.0 L18.9 0.05 Q19.2 0.4 20.7 2.6 22.15 4.8 24.25 8.6 26.3 12.35 28.4 17.5 33.3 16.0 37.8 13.1 L36.2 18.6" fill="#000000" fill-rule="evenodd" stroke="none"/>
    </g>
    <g id="shape17" transform="matrix(1.0, 0.0, 0.0, 1.0, 0.0, 0.0)">
      <path d="M3.35 11.0 L0.0 9.95 Q0.25 7.85 0.25 5.5 0.25 3.15 0.0 1.05 L3.35 0.0 Q3.75 2.75 3.75 5.5 3.75 5.5 3.75 5.5 3.75 5.5 3.75 5.5 3.75 8.25 3.35 11.0" fill="#000000" fill-rule="evenodd" stroke="none"/>
    </g>
    <g id="shape18" transform="matrix(1.0, 0.0, 0.0, 1.0, 0.0, 0.0)">
      <path d="M9.95 14.15 L7.65 18.15 Q5.55 21.35 4.75 24.45 3.9 27.55 3.95 29.4 3.9 31.4 4.55 34.0 5.2 36.6 6.65 39.25 8.1 41.95 10.55 44.15 L7.0 45.9 Q4.65 43.45 3.1 40.6 1.5 37.7 0.75 34.85 0.0 31.95 0.0 29.4 0.0 26.55 1.05 23.25 2.05 19.9 4.05 16.7 4.5 16.0 5.25 14.8 6.05 13.6 6.7 12.65 7.3 11.65 7.35 11.6 9.75 8.7 11.5 5.9 13.25 3.05 14.4 0.0 L17.7 0.9 Q16.5 4.55 14.5 7.9 12.55 11.25 9.95 14.15" fill="#000000" fill-rule="evenodd" stroke="none"/>
    </g>
    <g id="shape19" transform="matrix(1.0, 0.0, 0.0, 1.0, 0.0, 0.0)">
      <path d="M8.1 0.0 Q14.0 0.05 18.35 2.3 22.7 4.55 25.55 8.1 28.4 11.65 29.8 15.6 31.15 19.55 31.15 23.05 31.2 26.55 29.8 30.5 28.4 34.45 25.6 38.0 22.75 41.55 18.4 43.8 14.05 46.05 8.1 46.15 4.45 46.1 1.4 45.2 L5.8 42.1 Q6.9 42.2 8.1 42.2 13.15 42.15 16.75 40.3 20.4 38.45 22.7 35.5 25.05 32.55 26.15 29.3 27.25 26.0 27.25 23.05 27.25 21.0 26.4 17.9 25.55 14.75 23.45 11.55 21.35 8.35 17.6 6.2 13.85 4.05 8.1 3.95 3.35 4.0 0.0 5.55 L1.6 0.9 Q4.55 0.0 8.1 0.0" fill="#000000" fill-rule="evenodd" stroke="none"/>
    </g>
    <g id="shape20" transform="matrix(1.0, 0.0, 0.0, 1.0, 0.0, 0.0)">
      <path d="M0.0 32.05 Q0.05 32.0 1.3 30.15 2.55 28.3 4.45 25.75 6.4 23.2 8.45 21.0 10.55 18.8 12.25 17.95 10.5 17.1 8.45 14.85 6.35 12.65 4.45 10.1 2.55 7.55 1.3 5.7 0.05 3.9 0.0 3.8 L2.1 0.0 Q5.55 5.2 8.55 8.55 11.5 11.9 13.4 13.55 15.25 15.15 15.3 15.15 L12.25 17.95 15.3 20.75 Q15.25 20.75 13.4 22.35 11.5 23.95 8.55 27.3 5.55 30.65 2.1 35.85 L0.0 32.05" fill="#000000" fill-rule="evenodd" stroke="none"/>
    </g>
    <g id="shape21" transform="matrix(1.0, 0.0, 0.0, 1.0, 0.0, 0.0)">
      <path d="M44.75 14.45 Q44.7 14.55 43.2 16.0 41.65 17.45 38.45 19.6 35.3 21.75 30.3 23.85 25.3 26.0 18.35 27.4 11.4 28.85 2.35 28.9 1.65 28.9 1.55 28.9 1.45 28.9 0.8 28.85 L0.0 25.1 Q1.15 25.1 2.35 25.1 11.7 25.05 18.4 23.45 25.1 21.9 29.45 19.8 33.85 17.75 36.25 16.15 38.65 14.55 39.45 14.45 38.65 14.35 36.25 12.75 33.85 11.2 29.45 9.1 25.1 7.05 18.4 5.45 11.7 3.9 2.35 3.8 1.15 3.8 0.0 3.85 L0.8 0.05 Q1.45 0.05 1.55 0.0 1.65 0.0 2.35 0.0 11.4 0.05 18.35 1.5 25.3 2.9 30.3 5.05 35.3 7.15 38.45 9.3 41.65 11.45 43.2 12.9 44.7 14.35 44.75 14.45 44.75 14.45 44.75 14.45" fill="#000000" fill-rule="evenodd" stroke="none"/>
    </g>
    <g id="shape22" transform="matrix(1.0, 0.0, 0.0, 1.0, 0.0, 0.0)">
      <path d="M2.15 0.0 Q6.3 7.3 12.25 13.3 18.2 19.3 25.5 23.6 32.85 27.95 41.05 30.3 L41.4 36.25 Q28.35 33.0 17.8 25.5 7.2 17.95 0.0 7.1 0.0 7.1 0.1 6.1 0.2 5.05 0.65 3.45 1.15 1.85 2.15 0.0" fill="#000000" fill-rule="evenodd" stroke="none"/>
    </g>
    <g id="shape23" transform="matrix(1.0, 0.0, 0.0, 1.0, 0.0, 0.0)">
      <path d="M0.0 0.0 Q4.75 0.75 9.75 0.7 14.7 0.7 19.45 0.0 L19.2 5.75 Q16.95 6.05 14.5 6.2 12.05 6.35 9.75 6.35 L9.75 6.4 Q9.75 6.35 9.75 6.4 9.7 6.35 9.7 6.4 L9.7 6.35 Q7.4 6.35 4.95 6.2 2.5 6.05 0.3 5.75 L0.0 0.0" fill="#000000" fill-rule="evenodd" stroke="none"/>
    </g>
    <g id="shape24" transform="matrix(1.0, 0.0, 0.0, 1.0, 0.0, 0.0)">
      <path d="M7.2 44.15 Q9.6 41.95 11.05 39.25 12.55 36.6 13.15 34.0 13.8 31.4 13.8 29.4 13.85 27.55 13.0 24.45 12.15 21.35 10.1 18.15 L7.75 14.15 Q5.15 11.25 3.2 7.9 1.25 4.55 0.0 0.9 L3.3 0.0 Q4.45 3.05 6.2 5.9 8.0 8.7 10.35 11.6 10.4 11.65 11.05 12.65 11.7 13.6 12.45 14.8 13.2 16.0 13.65 16.7 15.65 19.9 16.7 23.2 17.7 26.55 17.7 29.4 17.75 31.95 16.95 34.85 16.2 37.7 14.65 40.6 13.1 43.45 10.7 45.9 L7.2 44.15" fill="#000000" fill-rule="evenodd" stroke="none"/>
    </g>
    <g id="shape25" transform="matrix(1.0, 0.0, 0.0, 1.0, 0.0, 0.0)">
      <path d="M23.05 42.2 Q24.25 42.2 25.35 42.1 L29.8 45.2 Q26.75 46.1 23.05 46.15 17.1 46.05 12.75 43.8 8.4 41.55 5.55 38.0 2.75 34.45 1.35 30.45 0.0 26.5 0.0 23.05 0.0 19.6 1.4 15.6 2.75 11.65 5.6 8.1 8.45 4.55 12.8 2.3 17.15 0.05 23.05 0.0 26.6 0.0 29.55 0.9 L31.15 5.55 Q27.8 4.0 23.05 3.95 17.3 4.0 13.55 6.2 9.8 8.35 7.7 11.55 5.6 14.75 4.75 17.85 3.9 21.0 3.95 23.05 3.9 26.0 5.0 29.3 6.15 32.6 8.45 35.5 10.75 38.45 14.4 40.3 18.0 42.15 23.05 42.2" fill="#000000" fill-rule="evenodd" stroke="none"/>
    </g>
  </defs>
</svg>
