<?xml version="1.0" encoding="UTF-8" standalone="no"?>
<svg xmlns:ffdec="https://www.free-decompiler.com/flash" xmlns:xlink="http://www.w3.org/1999/xlink" ffdec:objectType="frame" height="200.0px" width="162.0px" xmlns="http://www.w3.org/2000/svg">
  <g transform="matrix(1.0, 0.0, 0.0, 1.0, 0.0, 0.0)">
    <rect fill="#ffffff" height="200.0px" width="162.0px"/>
    <use ffdec:characterId="1" height="200.0" transform="matrix(1.0, 0.0, 0.0, 1.0, 0.0, 0.0)" width="161.5" xlink:href="#shape0"/>
  </g>
  <defs>
    <g id="shape0" transform="matrix(1.0, 0.0, 0.0, 1.0, 0.0, 0.0)">
      <path d="M73.15 91.6 Q70.9 87.45 69.2 78.5 67.5 69.6 67.8 64.05 68.75 49.85 72.55 31.35 76.85 10.75 81.8 0.0 84.4 12.35 89.6 37.0 92.95 53.25 96.3 69.5 99.3 93.15 89.7 98.35 79.65 103.7 73.15 91.6 M127.0 87.3 Q126.95 84.5 126.7 83.55 125.4 85.1 125.9 89.1 126.15 92.5 124.25 93.5 121.95 94.75 118.0 90.9 113.1 85.75 112.15 85.5 111.85 86.45 112.5 87.7 116.1 94.35 126.1 98.45 136.1 102.5 136.75 103.75 137.2 104.6 136.6 106.5 136.05 108.45 136.5 109.25 136.95 110.1 140.15 110.55 142.15 110.8 144.1 111.1 146.0 111.45 150.25 115.6 154.5 119.8 155.75 122.05 158.8 127.7 157.65 139.65 156.75 152.5 151.5 155.3 L148.4 157.0 148.15 156.55 Q147.4 155.1 147.6 148.25 147.8 141.4 145.5 137.0 144.35 134.95 141.35 130.6 138.35 126.3 137.25 124.2 134.35 118.75 134.15 113.5 129.8 115.85 125.05 110.55 121.55 106.0 118.0 101.45 116.65 105.4 117.75 107.5 119.35 110.4 124.35 115.5 129.4 120.6 130.95 123.55 134.0 129.2 133.1 137.75 132.15 146.3 126.75 149.25 125.05 150.15 122.95 150.2 123.5 143.7 123.75 137.1 123.8 132.75 118.55 122.95 116.3 118.75 110.6 111.2 104.9 103.6 102.65 99.45 100.0 94.4 100.3 88.05 100.75 80.8 105.55 78.25 118.1 71.5 134.5 78.05 150.0 84.25 156.8 97.0 160.85 104.5 161.5 116.3 159.35 115.3 155.15 108.4 150.45 100.7 148.4 98.85 144.15 94.95 136.4 95.05 129.8 95.35 127.35 90.75 127.0 90.15 127.0 87.3 M108.4 117.1 Q115.45 130.25 116.4 148.6 117.3 168.3 110.15 179.95 108.75 179.35 107.15 176.45 104.15 170.8 102.0 163.85 101.75 162.4 101.75 157.8 101.85 154.5 100.2 151.95 98.95 153.15 98.0 156.85 L95.3 158.35 Q93.55 156.6 89.9 152.85 92.4 165.0 90.1 176.75 87.8 188.45 85.35 200.0 83.1 199.3 81.65 196.6 75.45 185.1 74.85 159.35 72.95 160.35 69.4 162.25 L67.75 163.15 65.95 159.85 Q62.1 152.7 66.45 145.3 71.15 139.0 75.75 132.5 80.25 124.4 76.55 116.45 L75.65 115.85 Q72.85 120.05 73.65 130.1 70.85 131.35 65.15 129.3 65.2 155.9 52.7 175.3 50.3 172.8 50.5 173.2 42.1 157.55 47.8 134.6 53.5 111.6 68.95 103.3 72.9 101.15 78.4 104.4 83.9 107.65 85.4 106.85 86.0 106.5 86.7 105.75 87.35 105.0 87.75 104.75 93.2 101.85 99.7 106.95 105.15 111.05 108.4 117.1 M62.4 96.6 Q54.2 103.4 46.35 110.3 35.15 120.1 33.0 133.1 33.0 139.55 32.85 145.85 32.5 155.7 30.95 156.8 26.55 148.7 24.6 135.45 22.25 120.55 26.4 114.85 32.15 106.9 40.65 101.25 40.4 99.25 39.95 97.2 39.55 95.15 42.45 93.55 43.7 92.9 46.5 92.6 49.3 92.3 50.35 91.75 52.45 90.65 53.75 88.55 45.2 89.15 40.4 91.7 39.55 92.15 36.3 96.6 33.0 101.05 32.2 101.5 29.45 102.95 28.25 101.2 25.95 98.4 25.5 98.1 27.1 102.1 19.8 109.5 14.3 114.35 8.95 119.4 5.8 123.5 4.25 130.25 1.9 140.35 1.3 141.8 -0.7 122.95 0.4 114.0 2.6 98.0 14.5 91.65 15.35 91.2 17.25 90.55 19.2 89.9 20.25 89.35 22.15 88.35 21.45 83.05 17.65 82.95 16.35 83.6 13.65 85.05 7.4 95.45 6.75 95.8 6.0 94.3 2.95 88.65 7.85 80.55 12.75 72.35 18.8 69.1 29.45 63.4 42.15 64.95 56.5 66.65 61.9 76.65 68.4 88.75 62.4 96.6 M96.35 40.8 Q95.15 39.4 94.75 38.55 93.85 36.9 93.9 35.0 97.7 35.05 100.55 38.4 101.35 39.3 104.35 44.95 106.85 49.55 109.9 49.8 110.3 51.45 109.4 57.35 L110.65 59.65 Q111.35 59.5 112.75 59.55 115.45 57.05 114.1 52.1 112.45 45.45 112.6 44.3 114.55 44.9 116.35 44.7 L118.45 43.6 Q118.4 42.55 117.85 41.5 116.25 38.55 115.8 37.75 112.85 37.7 111.85 35.85 110.05 32.5 113.6 30.6 118.4 28.0 122.0 34.7 125.7 41.6 125.55 48.35 125.4 56.55 119.15 59.9 118.3 60.35 118.85 61.85 119.1 61.55 122.1 59.95 126.5 57.55 134.75 60.95 143.0 64.3 145.5 68.9 L142.75 70.35 Q140.45 67.05 134.4 66.5 128.35 66.0 124.35 68.15 123.1 68.8 120.35 70.7 117.6 72.6 116.15 73.35 113.0 75.05 107.55 72.45 102.1 69.85 100.45 66.7 97.75 61.7 98.55 53.75 99.4 45.75 97.85 42.8 97.5 42.2 96.35 40.8 M26.55 57.45 Q24.8 59.15 24.05 59.85 L21.95 56.95 Q22.9 53.2 30.85 48.9 39.4 44.3 43.2 46.85 42.95 45.4 40.15 40.15 38.0 36.2 39.1 30.75 L42.45 28.95 Q43.15 31.25 44.6 34.0 45.4 35.45 47.1 38.05 48.55 40.75 49.2 42.0 51.6 36.95 55.6 34.85 56.65 34.25 59.25 34.2 62.75 34.2 63.1 34.3 59.15 45.0 59.2 46.1 58.85 48.95 63.15 57.95 62.55 59.85 61.9 61.6 61.2 63.3 59.5 64.2 54.7 66.8 44.0 59.9 33.3 53.0 29.55 55.0 28.3 55.7 26.55 57.45" fill="#000000" fill-rule="evenodd" stroke="none"/>
    </g>
  </defs>
</svg>
