<?xml version="1.0" encoding="UTF-8" standalone="no"?>
<svg xmlns:ffdec="https://www.free-decompiler.com/flash" xmlns:xlink="http://www.w3.org/1999/xlink" ffdec:objectType="frame" height="198.0px" width="201.0px" xmlns="http://www.w3.org/2000/svg">
  <g transform="matrix(1.0, 0.0, 0.0, 1.0, 0.0, 0.0)">
    <rect fill="#ffffff" height="198.0px" width="201.0px"/>
    <use ffdec:characterId="1" height="14.0" transform="matrix(1.0, 0.0, 0.0, 1.0, 53.2, 172.3)" width="27.8" xlink:href="#shape0"/>
    <use ffdec:characterId="2" height="27.5" transform="matrix(1.0, 0.0, 0.0, 1.0, 11.65, 118.3)" width="14.25" xlink:href="#shape1"/>
    <use ffdec:characterId="3" height="8.8" transform="matrix(1.0, 0.0, 0.0, 1.0, 95.05, 94.45)" width="9.9" xlink:href="#shape2"/>
    <use ffdec:characterId="4" height="22.75" transform="matrix(1.0, 0.0, 0.0, 1.0, 76.35, 99.95)" width="22.8" xlink:href="#shape3"/>
    <use ffdec:characterId="5" height="197.75" transform="matrix(1.0, 0.0, 0.0, 1.0, 0.0, 0.0)" width="200.0" xlink:href="#shape4"/>
    <use ffdec:characterId="6" height="14.0" transform="matrix(1.0, 0.0, 0.0, 1.0, 118.9, 172.3)" width="27.8" xlink:href="#shape5"/>
    <use ffdec:characterId="7" height="27.5" transform="matrix(1.0, 0.0, 0.0, 1.0, 174.05, 118.3)" width="14.25" xlink:href="#shape6"/>
    <use ffdec:characterId="8" height="107.95" transform="matrix(1.0, 0.0, 0.0, 1.0, 45.9, 44.9)" width="108.2" xlink:href="#shape7"/>
    <use ffdec:characterId="9" height="22.75" transform="matrix(1.0, 0.0, 0.0, 1.0, 100.85, 99.95)" width="22.75" xlink:href="#shape8"/>
    <use ffdec:characterId="10" height="14.0" transform="matrix(1.0, 0.0, 0.0, 1.0, 53.2, 11.45)" width="27.8" xlink:href="#shape9"/>
    <use ffdec:characterId="11" height="27.5" transform="matrix(1.0, 0.0, 0.0, 1.0, 11.65, 51.95)" width="14.25" xlink:href="#shape10"/>
    <use ffdec:characterId="12" height="22.75" transform="matrix(1.0, 0.0, 0.0, 1.0, 76.35, 75.0)" width="22.8" xlink:href="#shape11"/>
    <use ffdec:characterId="13" height="14.0" transform="matrix(1.0, 0.0, 0.0, 1.0, 118.9, 11.45)" width="27.8" xlink:href="#shape12"/>
    <use ffdec:characterId="14" height="27.5" transform="matrix(1.0, 0.0, 0.0, 1.0, 174.05, 51.95)" width="14.25" xlink:href="#shape13"/>
    <use ffdec:characterId="15" height="83.7" transform="matrix(1.0, 0.0, 0.0, 1.0, 57.55, 57.0)" width="84.85" xlink:href="#shape14"/>
    <use ffdec:characterId="16" height="22.75" transform="matrix(1.0, 0.0, 0.0, 1.0, 100.85, 75.0)" width="22.75" xlink:href="#shape15"/>
  </g>
  <defs>
    <g id="shape0" transform="matrix(1.0, 0.0, 0.0, 1.0, 0.0, 0.0)">
      <path d="M16.15 0.0 Q16.8 3.45 18.65 5.6 20.45 7.8 22.55 9.0 24.7 10.2 26.2 10.7 27.75 11.15 27.8 11.15 25.95 12.7 24.15 12.8 22.35 12.9 20.9 12.25 19.45 11.6 18.6 10.9 17.75 10.2 17.7 10.15 16.8 11.55 15.1 12.4 13.45 13.25 12.05 13.65 10.65 14.0 10.55 14.0 10.5 13.95 9.7 12.7 8.95 11.5 8.3 9.75 7.7 8.0 8.0 6.3 7.95 6.35 6.85 6.25 5.75 6.2 4.25 5.65 2.75 5.15 1.5 3.85 0.3 2.55 0.0 0.1 0.05 0.15 1.45 0.85 2.9 1.55 5.25 2.15 7.65 2.7 10.45 2.35 13.3 2.05 16.15 0.0" fill="#000000" fill-rule="evenodd" stroke="none"/>
    </g>
    <g id="shape1" transform="matrix(1.0, 0.0, 0.0, 1.0, 0.0, 0.0)">
      <path d="M13.85 11.35 Q11.9 14.25 11.6 17.1 11.35 19.95 12.0 22.3 12.65 24.65 13.4 26.05 14.2 27.45 14.25 27.5 11.8 27.25 10.45 26.05 9.1 24.85 8.55 23.4 8.0 21.9 7.85 20.8 7.75 19.7 7.8 19.65 6.15 20.0 4.35 19.4 2.55 18.85 1.3 18.1 0.05 17.35 0.0 17.3 0.0 17.2 0.3 15.8 0.6 14.4 1.4 12.7 2.2 11.0 3.6 10.05 3.55 10.05 2.85 9.2 2.1 8.4 1.4 6.95 0.7 5.5 0.8 3.7 0.85 1.95 2.35 0.0 2.35 0.05 2.85 1.6 3.4 3.1 4.65 5.2 5.9 7.25 8.15 9.0 10.4 10.8 13.85 11.35" fill="#000000" fill-rule="evenodd" stroke="none"/>
    </g>
    <g id="shape2" transform="matrix(1.0, 0.0, 0.0, 1.0, 0.0, 0.0)">
      <path d="M4.95 8.75 L4.95 8.8 Q4.95 8.75 4.95 8.8 4.95 8.75 4.95 8.8 L4.95 8.75 Q2.55 8.7 1.3 7.35 0.0 6.0 0.0 4.4 0.0 4.4 0.0 4.4 0.0 4.4 0.0 4.4 0.0 2.75 1.3 1.45 2.55 0.1 4.95 0.0 4.95 0.0 4.95 0.0 4.95 0.0 4.95 0.0 7.35 0.1 8.6 1.45 9.85 2.75 9.9 4.4 9.9 4.4 9.9 4.4 9.9 4.4 9.9 4.4 9.85 6.0 8.6 7.35 7.35 8.7 4.95 8.75" fill="#000000" fill-rule="evenodd" stroke="none"/>
    </g>
    <g id="shape3" transform="matrix(1.0, 0.0, 0.0, 1.0, 0.0, 0.0)">
      <path d="M15.2 7.55 Q17.25 7.55 18.4 8.05 19.6 8.55 20.25 9.25 20.95 9.95 21.45 10.7 22.7 12.25 22.8 14.8 22.85 17.4 20.9 20.2 19.8 21.65 18.15 22.25 16.5 22.85 14.8 22.75 13.15 22.6 11.9 21.8 10.7 21.0 10.45 19.65 10.25 17.85 10.95 17.35 11.6 16.9 12.4 17.05 13.2 17.2 13.25 17.25 13.25 17.3 13.55 17.9 13.9 18.55 14.7 19.1 15.5 19.6 16.8 19.35 18.1 18.95 18.55 17.75 19.0 16.55 18.75 15.3 18.5 14.0 17.7 13.35 16.95 12.7 16.2 12.35 15.45 11.95 14.05 12.05 12.6 12.15 9.9 12.9 10.65 10.15 10.75 8.75 10.8 7.35 10.4 6.55 10.05 5.8 9.4 5.1 8.75 4.3 7.45 4.05 6.2 3.8 5.0 4.25 3.85 4.7 3.45 6.0 3.15 7.3 3.7 8.1 4.2 8.85 4.85 9.2 5.5 9.55 5.55 9.55 5.6 9.6 5.75 10.4 5.9 11.15 5.4 11.85 4.9 12.55 3.1 12.3 1.75 12.05 0.95 10.85 0.15 9.65 0.05 7.95 -0.1 6.3 0.5 4.65 1.1 3.0 2.55 1.9 5.35 -0.1 7.95 0.0 10.5 0.1 12.1 1.35 12.8 1.85 13.5 2.5 14.25 3.2 14.7 4.35 15.2 5.55 15.2 7.55" fill="#000000" fill-rule="evenodd" stroke="none"/>
    </g>
    <g id="shape4" transform="matrix(1.0, 0.0, 0.0, 1.0, 0.0, 0.0)">
      <path d="M196.3 130.1 Q196.45 127.1 195.6 123.45 194.75 119.8 192.7 116.4 190.65 113.0 187.2 110.7 183.75 108.45 178.75 108.25 174.35 108.2 171.65 109.1 168.95 110.0 167.6 111.4 166.25 112.75 165.8 114.05 165.35 115.35 165.35 116.05 165.3 116.95 165.55 118.0 165.8 119.0 166.6 119.75 167.45 120.5 169.15 120.6 171.1 120.55 171.95 119.45 172.8 118.3 173.0 116.8 173.15 115.25 173.0 114.1 172.9 112.95 172.85 112.9 172.95 112.9 173.85 113.25 174.8 113.65 175.7 114.7 176.6 115.8 176.65 117.75 176.5 120.4 175.25 122.0 173.95 123.6 172.35 124.25 170.7 124.95 169.45 124.9 167.8 124.9 165.9 124.15 164.05 123.45 162.75 121.55 161.45 119.7 161.45 116.3 161.65 112.3 163.6 109.85 165.5 107.35 168.2 106.1 170.85 104.85 173.25 104.4 175.65 104.0 176.75 104.05 L176.85 98.9 176.75 93.7 Q175.65 93.75 173.25 93.35 170.85 92.9 168.2 91.65 165.5 90.4 163.6 87.95 161.65 85.5 161.45 81.5 161.45 78.05 162.75 76.2 164.05 74.35 165.9 73.6 167.8 72.85 169.45 72.85 170.7 72.8 172.35 73.5 173.95 74.2 175.25 75.75 176.5 77.35 176.65 80.0 176.6 82.0 175.7 83.05 174.8 84.1 173.85 84.5 172.95 84.9 172.85 84.85 172.9 84.8 173.05 83.65 173.15 82.5 173.0 81.0 172.85 79.45 171.95 78.35 171.1 77.2 169.15 77.2 167.45 77.25 166.6 78.0 165.8 78.75 165.55 79.75 165.3 80.8 165.35 81.7 165.35 82.4 165.8 83.7 166.25 85.0 167.6 86.4 168.95 87.75 171.65 88.65 174.35 89.55 178.75 89.5 183.75 89.3 187.2 87.05 190.65 84.8 192.7 81.35 194.75 77.95 195.6 74.3 196.45 70.65 196.3 67.65 196.3 66.7 195.8 64.15 195.3 61.55 193.9 58.45 192.5 55.3 189.8 52.6 187.65 50.5 184.35 48.65 181.1 46.75 177.25 45.85 173.4 44.95 169.45 45.85 165.45 46.75 161.85 50.25 158.75 53.4 157.55 55.95 156.35 58.5 156.4 60.45 156.45 62.35 157.1 63.6 157.7 64.85 158.25 65.3 158.85 65.95 159.75 66.5 160.7 67.05 161.8 66.95 162.9 66.85 164.1 65.7 165.45 64.25 165.25 62.85 165.0 61.45 164.05 60.3 163.05 59.1 162.15 58.4 161.2 57.7 161.15 57.7 161.15 57.6 162.1 57.25 163.0 56.85 164.4 56.9 165.8 56.95 167.25 58.3 169.1 60.25 169.35 62.25 169.65 64.25 169.0 65.9 168.35 67.6 167.5 68.45 166.35 69.65 164.5 70.5 162.7 71.35 160.4 71.0 158.15 70.65 155.7 68.3 152.95 65.4 152.5 62.3 152.05 59.2 153.0 56.4 153.95 53.6 155.3 51.55 156.6 49.55 157.4 48.8 L157.45 48.4 150.35 41.95 Q149.6 42.75 147.6 44.15 145.65 45.55 142.85 46.55 140.05 47.55 136.95 47.2 133.85 46.8 130.9 44.1 128.45 41.7 128.05 39.45 127.65 37.25 128.45 35.4 129.25 33.55 130.45 32.35 131.3 31.45 132.95 30.8 134.55 30.1 136.6 30.35 138.6 30.55 140.55 32.35 141.95 33.75 142.05 35.15 142.15 36.55 141.8 37.5 141.4 38.4 141.35 38.45 141.35 38.4 140.6 37.45 139.9 36.55 138.7 35.6 137.5 34.65 136.1 34.45 134.7 34.25 133.3 35.65 132.15 36.9 132.05 38.0 132.0 39.15 132.55 40.0 133.1 40.9 133.8 41.55 134.3 42.05 135.55 42.65 136.8 43.25 138.7 43.25 140.65 43.25 143.2 42.0 145.7 40.7 148.8 37.55 152.2 33.9 153.05 29.85 153.85 25.8 152.9 21.95 151.95 18.1 149.95 14.9 148.0 11.7 145.75 9.7 145.1 9.0 142.9 7.55 140.75 6.1 137.55 4.9 134.3 3.65 130.5 3.65 127.5 3.7 123.85 4.7 120.25 5.65 116.85 7.75 113.5 9.85 111.3 13.3 109.15 16.75 109.05 21.75 109.1 26.15 110.1 28.85 111.05 31.5 112.45 32.8 113.85 34.15 115.15 34.55 116.45 35.0 117.15 34.95 118.1 35.0 119.1 34.7 120.15 34.45 120.85 33.6 121.55 32.8 121.6 31.1 121.55 29.1 120.4 28.3 119.25 27.45 117.75 27.3 116.2 27.2 115.05 27.35 113.9 27.5 113.85 27.55 113.8 27.45 114.2 26.5 114.55 25.6 115.6 24.65 116.65 23.7 118.6 23.65 121.25 23.7 122.9 24.95 124.5 26.15 125.25 27.8 125.95 29.4 125.95 30.65 125.95 32.3 125.3 34.2 124.6 36.1 122.75 37.45 120.9 38.8 117.5 38.85 113.5 38.75 111.0 36.9 108.5 35.0 107.15 32.35 105.85 29.7 105.35 27.3 104.85 24.95 104.9 23.85 L100.0 23.85 95.1 23.85 Q95.1 24.95 94.65 27.35 94.15 29.7 92.85 32.35 91.5 35.0 89.0 36.9 86.5 38.75 82.5 38.85 79.1 38.8 77.25 37.45 75.4 36.1 74.7 34.2 74.0 32.3 74.05 30.65 74.05 29.4 74.8 27.8 75.5 26.15 77.1 24.95 78.75 23.7 81.4 23.65 83.35 23.7 84.4 24.65 85.45 25.6 85.8 26.55 86.2 27.45 86.15 27.55 86.1 27.5 84.95 27.35 83.8 27.15 82.3 27.3 80.75 27.45 79.6 28.3 78.45 29.15 78.4 31.1 78.45 32.75 79.15 33.6 79.85 34.45 80.9 34.7 81.9 35.0 82.85 34.95 83.55 35.0 84.85 34.55 86.15 34.15 87.55 32.8 88.95 31.5 89.9 28.85 90.9 26.15 90.95 21.75 90.85 16.75 88.7 13.3 86.5 9.85 83.15 7.75 79.75 5.65 76.15 4.7 72.5 3.7 69.5 3.65 65.7 3.65 62.45 4.9 59.25 6.1 57.1 7.55 54.95 9.05 54.25 9.7 52.0 11.7 50.05 14.9 48.05 18.1 47.1 21.95 46.15 25.8 46.95 29.85 47.8 33.85 51.2 37.55 54.3 40.75 56.85 42.0 59.35 43.25 61.3 43.25 63.2 43.25 64.45 42.65 65.7 42.05 66.2 41.55 66.9 40.9 67.45 40.0 68.0 39.1 67.95 38.0 67.9 36.9 66.75 35.65 65.35 34.3 63.9 34.45 62.5 34.65 61.3 35.6 60.1 36.55 59.4 37.45 58.65 38.4 58.65 38.45 58.6 38.4 58.2 37.5 57.85 36.55 57.95 35.15 58.05 33.75 59.45 32.35 61.4 30.55 63.4 30.35 65.45 30.1 67.05 30.8 68.7 31.45 69.55 32.35 70.75 33.55 71.55 35.4 72.35 37.25 71.95 39.45 71.55 41.7 69.1 44.1 66.15 46.8 63.05 47.2 59.95 47.55 57.15 46.55 54.35 45.55 52.4 44.15 50.4 42.75 49.65 41.95 L42.55 48.4 42.6 48.8 Q43.4 49.55 44.7 51.55 46.05 53.6 47.0 56.4 47.95 59.2 47.5 62.3 47.05 65.4 44.3 68.3 41.85 70.65 39.55 71.0 37.3 71.35 35.5 70.5 33.65 69.65 32.5 68.45 31.65 67.6 31.0 65.9 30.35 64.25 30.65 62.25 30.9 60.25 32.75 58.3 34.2 56.95 35.6 56.9 37.0 56.85 37.9 57.25 38.8 57.65 38.85 57.7 38.8 57.7 37.85 58.4 36.95 59.1 35.95 60.3 35.0 61.45 34.75 62.85 34.55 64.25 35.9 65.7 37.1 66.85 38.2 66.95 39.3 67.05 40.2 66.5 41.1 65.95 41.75 65.3 42.3 64.85 42.9 63.6 43.55 62.35 43.6 60.45 43.65 58.55 42.45 55.95 41.25 53.4 38.15 50.25 34.55 46.75 30.6 45.85 26.6 44.95 22.75 45.85 18.9 46.75 15.6 48.65 12.35 50.5 10.2 52.6 7.5 55.3 6.1 58.45 4.7 61.55 4.2 64.15 3.7 66.7 3.7 67.65 3.55 70.65 4.4 74.3 5.25 77.95 7.3 81.35 9.35 84.8 12.8 87.05 16.25 89.3 21.25 89.5 25.7 89.55 28.35 88.65 31.05 87.75 32.4 86.4 33.75 85.0 34.2 83.7 34.65 82.4 34.65 81.7 34.7 80.8 34.45 79.75 34.2 78.75 33.4 78.0 32.6 77.25 30.9 77.2 28.9 77.2 28.05 78.35 27.2 79.45 27.0 80.95 26.85 82.5 27.0 83.65 27.1 84.8 27.15 84.85 27.05 84.9 26.15 84.5 25.2 84.1 24.3 83.05 23.4 82.0 23.35 80.0 23.5 77.35 24.75 75.75 26.05 74.2 27.7 73.5 29.3 72.8 30.55 72.85 32.2 72.85 34.1 73.6 35.95 74.35 37.25 76.2 38.55 78.1 38.55 81.5 38.35 85.5 36.4 87.95 34.5 90.4 31.8 91.65 29.15 92.9 26.75 93.35 24.35 93.75 23.25 93.7 L23.15 98.9 23.25 104.05 Q24.35 104.0 26.75 104.45 29.15 104.85 31.8 106.1 34.5 107.35 36.45 109.85 38.35 112.3 38.55 116.3 38.55 119.7 37.25 121.55 35.95 123.45 34.1 124.15 32.2 124.9 30.55 124.9 29.3 124.95 27.65 124.25 26.05 123.6 24.75 122.0 23.5 120.4 23.35 117.75 23.4 115.8 24.3 114.7 25.2 113.65 26.15 113.25 27.05 112.9 27.15 112.9 27.1 112.95 27.0 114.1 26.85 115.25 27.0 116.8 27.2 118.3 28.05 119.45 28.95 120.6 30.9 120.6 32.55 120.5 33.4 119.75 34.2 119.0 34.45 118.0 34.7 116.95 34.65 116.05 34.65 115.35 34.2 114.05 33.75 112.75 32.4 111.4 31.05 110.0 28.35 109.1 25.65 108.2 21.25 108.25 16.25 108.45 12.8 110.7 9.35 113.0 7.3 116.4 5.25 119.8 4.4 123.45 3.55 127.1 3.7 130.1 3.7 131.05 4.2 133.65 4.7 136.2 6.1 139.35 7.5 142.45 10.2 145.15 12.4 147.25 15.65 149.15 18.9 151.0 22.75 151.9 26.6 152.8 30.6 151.95 34.55 151.05 38.15 147.55 41.25 144.35 42.45 141.8 43.65 139.25 43.6 137.3 43.55 135.4 42.9 134.15 42.3 132.95 41.75 132.45 41.15 131.8 40.25 131.25 39.3 130.75 38.2 130.8 37.1 130.9 35.9 132.05 34.55 133.5 34.75 134.9 35.0 136.3 35.95 137.5 36.95 138.65 37.85 139.35 38.8 140.05 38.85 140.05 38.85 140.15 37.9 140.55 37.0 140.95 35.6 140.85 34.2 140.8 32.75 139.45 30.9 137.5 30.65 135.5 30.35 133.5 31.0 131.85 31.65 130.15 32.5 129.3 33.65 128.1 35.5 127.25 37.3 126.45 39.6 126.8 41.85 127.15 44.3 129.5 47.05 132.35 47.5 135.45 47.95 138.55 47.0 141.4 46.05 144.2 44.7 146.2 43.4 148.25 42.6 149.0 L42.55 149.35 49.65 155.8 Q50.4 155.0 52.4 153.6 54.35 152.2 57.15 151.2 59.95 150.2 63.05 150.6 66.15 150.95 69.1 153.65 71.55 156.05 71.95 158.3 72.35 160.55 71.55 162.4 70.75 164.2 69.55 165.4 68.7 166.3 67.05 167.0 65.45 167.65 63.4 167.4 61.4 167.2 59.45 165.4 58.05 164.0 57.95 162.6 57.85 161.2 58.2 160.3 58.6 159.35 58.65 159.3 58.65 159.4 59.4 160.3 60.1 161.2 61.3 162.15 62.5 163.1 63.95 163.3 65.35 163.5 66.75 162.1 67.85 160.85 67.95 159.75 68.0 158.65 67.45 157.75 66.9 156.85 66.2 156.25 65.7 155.7 64.45 155.1 63.2 154.55 61.3 154.55 59.35 154.55 56.85 155.8 54.3 157.05 51.2 160.2 47.8 163.9 46.95 167.9 46.15 171.95 47.1 175.8 48.05 179.7 50.05 182.85 52.05 186.05 54.25 188.05 54.9 188.75 57.1 190.2 59.25 191.65 62.45 192.9 65.7 194.1 69.5 194.1 72.5 194.05 76.15 193.05 79.75 192.1 83.15 190.0 86.5 187.9 88.7 184.45 90.85 181.0 90.95 176.0 90.9 171.6 89.9 168.95 88.95 166.3 87.55 164.95 86.15 163.6 84.85 163.2 83.55 162.75 82.85 162.8 81.9 162.8 80.9 163.05 79.85 163.3 79.15 164.15 78.45 165.0 78.4 166.7 78.45 168.65 79.6 169.5 80.75 170.35 82.3 170.45 83.8 170.6 84.95 170.45 86.1 170.3 86.15 170.25 86.2 170.3 85.8 171.25 85.45 172.2 84.4 173.1 83.35 174.05 81.4 174.1 78.75 174.05 77.1 172.85 75.5 171.6 74.75 170.0 74.05 168.35 74.05 167.15 74.05 165.45 74.7 163.55 75.4 161.7 77.25 160.35 79.1 158.95 82.5 158.9 86.5 159.0 89.0 160.9 91.5 162.75 92.85 165.4 94.15 168.05 94.65 170.45 95.15 172.8 95.1 173.9 L100.0 173.9 104.9 173.9 Q104.9 172.8 105.35 170.45 105.85 168.05 107.15 165.4 108.5 162.75 111.0 160.9 113.5 159.0 117.5 158.9 120.9 159.0 122.75 160.35 124.6 161.7 125.3 163.6 126.0 165.45 125.95 167.15 125.95 168.35 125.2 170.0 124.5 171.6 122.9 172.8 121.25 174.05 118.6 174.1 116.65 174.05 115.6 173.1 114.55 172.2 114.2 171.25 113.8 170.3 113.85 170.25 113.9 170.25 115.05 170.45 116.2 170.6 117.75 170.45 119.25 170.35 120.4 169.5 121.55 168.65 121.6 166.7 121.6 165.0 120.85 164.15 120.15 163.3 119.1 163.05 118.1 162.8 117.15 162.8 116.45 162.75 115.15 163.2 113.85 163.6 112.45 164.95 111.05 166.3 110.1 168.95 109.1 171.6 109.05 176.0 109.15 181.0 111.3 184.45 113.5 187.9 116.85 190.0 120.25 192.1 123.85 193.1 127.5 194.05 130.5 194.1 134.3 194.1 137.55 192.9 140.75 191.65 142.9 190.2 145.05 188.75 145.75 188.05 148.0 186.05 149.95 182.9 151.95 179.7 152.9 175.8 153.85 171.95 153.05 167.9 152.2 163.9 148.8 160.2 145.7 157.05 143.15 155.8 140.65 154.55 138.7 154.55 136.8 154.55 135.55 155.15 134.3 155.75 133.8 156.25 133.1 156.85 132.55 157.75 132.0 158.65 132.1 159.75 132.15 160.85 133.3 162.1 134.65 163.5 136.1 163.3 137.5 163.1 138.7 162.15 139.9 161.2 140.6 160.3 141.35 159.35 141.35 159.3 141.4 159.35 141.8 160.3 142.15 161.2 142.05 162.6 141.95 164.0 140.55 165.4 138.6 167.2 136.6 167.4 134.6 167.65 132.95 167.0 131.3 166.3 130.45 165.4 129.25 164.2 128.45 162.4 127.65 160.55 128.05 158.3 128.45 156.05 130.9 153.65 133.85 150.95 136.95 150.6 140.05 150.2 142.85 151.2 145.65 152.2 147.65 153.6 149.6 155.0 150.35 155.8 L157.45 149.35 157.4 149.0 Q156.6 148.25 155.3 146.2 153.95 144.2 153.0 141.4 152.05 138.55 152.5 135.5 152.95 132.4 155.7 129.5 158.15 127.1 160.45 126.75 162.7 126.4 164.5 127.25 166.35 128.1 167.5 129.3 168.35 130.2 169.0 131.85 169.65 133.5 169.35 135.5 169.1 137.55 167.25 139.45 165.8 140.8 164.4 140.85 163.0 140.95 162.1 140.55 161.2 140.15 161.15 140.05 161.2 140.05 162.15 139.35 163.05 138.65 164.05 137.5 165.0 136.3 165.25 134.9 165.45 133.5 164.1 132.05 162.9 130.9 161.8 130.8 160.7 130.75 159.8 131.25 158.9 131.8 158.25 132.45 157.7 132.95 157.1 134.15 156.45 135.4 156.4 137.3 156.35 139.25 157.55 141.8 158.75 144.4 161.85 147.55 165.45 151.0 169.4 151.9 173.4 152.8 177.25 151.9 181.15 151.0 184.4 149.1 187.65 147.25 189.8 145.15 192.5 142.5 193.9 139.35 195.3 136.2 195.8 133.65 196.3 131.05 196.3 130.1 M180.6 104.15 Q183.75 104.2 187.2 105.85 190.6 107.5 193.6 110.75 196.55 113.95 198.35 118.75 200.15 123.6 200.0 130.0 200.0 131.6 199.4 134.6 198.85 137.55 197.15 141.05 195.5 144.6 192.2 147.9 187.6 152.35 182.85 154.35 178.15 156.4 173.75 156.45 169.4 156.55 165.9 155.25 162.35 153.95 160.15 151.7 L153.0 158.6 Q155.2 160.9 156.45 164.45 157.7 168.05 157.55 172.45 157.35 176.8 155.2 181.45 153.1 186.15 148.45 190.55 147.3 191.75 144.8 193.4 142.3 195.1 138.6 196.4 134.95 197.75 130.25 197.75 123.85 197.65 119.1 195.7 114.35 193.8 111.2 190.8 108.05 187.75 106.45 184.35 104.9 180.95 104.9 177.8 L100.0 177.8 95.1 177.8 Q95.1 180.9 93.55 184.35 91.95 187.75 88.8 190.75 85.7 193.8 80.9 195.7 76.15 197.6 69.75 197.75 65.05 197.75 61.4 196.45 57.7 195.1 55.2 193.4 52.7 191.7 51.55 190.55 46.9 186.15 44.8 181.45 42.65 176.8 42.45 172.45 42.3 168.05 43.55 164.45 44.8 160.9 47.0 158.6 L39.85 151.7 Q37.65 153.95 34.1 155.25 30.6 156.55 26.25 156.45 21.85 156.4 17.15 154.35 12.4 152.35 7.8 147.9 4.5 144.6 2.8 141.05 1.15 137.55 0.6 134.6 0.0 131.65 0.0 130.0 -0.1 123.55 1.65 118.75 3.45 113.95 6.4 110.75 9.4 107.5 12.85 105.85 16.25 104.2 19.4 104.15 L19.25 98.9 19.25 98.85 19.4 93.6 Q16.25 93.55 12.8 91.9 9.4 90.25 6.4 87.05 3.45 83.8 1.65 79.0 -0.15 74.2 0.0 67.8 0.0 66.15 0.6 63.2 1.15 60.2 2.85 56.7 4.5 53.2 7.8 49.85 12.4 45.4 17.15 43.4 21.85 41.4 26.25 41.3 30.6 41.2 34.1 42.5 37.65 43.85 39.85 46.05 L47.0 39.15 Q44.8 36.9 43.55 33.3 42.3 29.7 42.45 25.35 42.65 20.95 44.8 16.3 46.9 11.65 51.55 7.2 52.7 6.05 55.2 4.35 57.7 2.65 61.4 1.35 65.05 0.0 69.75 0.0 76.15 0.15 80.9 2.05 85.65 3.95 88.8 7.0 91.95 10.0 93.55 13.45 95.1 16.85 95.1 20.0 L100.0 20.0 104.9 20.0 Q104.9 16.85 106.45 13.4 108.05 10.0 111.2 7.0 114.35 3.95 119.1 2.05 123.85 0.15 130.25 0.0 134.95 0.0 138.6 1.35 142.3 2.65 144.8 4.35 147.3 6.05 148.45 7.2 153.1 11.65 155.2 16.3 157.35 20.95 157.55 25.35 157.7 29.7 156.45 33.3 155.2 36.9 153.0 39.15 L160.15 46.05 Q162.35 43.8 165.9 42.5 169.4 41.2 173.75 41.3 178.15 41.4 182.85 43.4 187.6 45.4 192.2 49.85 195.5 53.15 197.2 56.7 198.85 60.2 199.4 63.2 200.0 66.15 200.0 67.8 200.1 74.2 198.35 79.0 196.55 83.8 193.6 87.05 190.6 90.25 187.2 91.9 183.75 93.55 180.6 93.6 L180.75 98.85 180.75 98.9 180.6 104.15" fill="#000000" fill-rule="evenodd" stroke="none"/>
    </g>
    <g id="shape5" transform="matrix(1.0, 0.0, 0.0, 1.0, 0.0, 0.0)">
      <path d="M0.0 11.15 Q0.05 11.15 1.6 10.7 3.15 10.2 5.25 9.0 7.35 7.8 9.2 5.6 11.0 3.45 11.65 0.0 14.5 2.05 17.35 2.35 20.2 2.7 22.55 2.15 24.9 1.55 26.35 0.85 27.75 0.15 27.8 0.1 27.55 2.5 26.3 3.85 25.1 5.15 23.6 5.65 22.1 6.2 20.95 6.25 19.85 6.35 19.8 6.3 20.15 8.0 19.5 9.75 18.85 11.5 18.1 12.7 17.35 13.95 17.25 14.0 17.2 14.0 15.8 13.65 14.4 13.25 12.7 12.4 11.0 11.55 10.1 10.15 10.1 10.2 9.2 10.9 8.35 11.6 6.9 12.25 5.5 12.9 3.7 12.8 1.9 12.7 0.0 11.15" fill="#000000" fill-rule="evenodd" stroke="none"/>
    </g>
    <g id="shape6" transform="matrix(1.0, 0.0, 0.0, 1.0, 0.0, 0.0)">
      <path d="M10.6 10.05 Q12.05 11.05 12.8 12.7 13.6 14.4 13.95 15.8 14.25 17.2 14.25 17.3 14.15 17.35 12.9 18.1 11.65 18.85 9.9 19.4 8.1 20.0 6.45 19.65 6.45 19.7 6.35 20.8 6.25 21.9 5.7 23.4 5.15 24.85 3.8 26.05 2.45 27.25 0.0 27.5 0.05 27.45 0.8 26.05 1.6 24.65 2.2 22.3 2.85 19.95 2.6 17.1 2.35 14.25 0.4 11.35 3.85 10.8 6.1 9.05 8.3 7.25 9.6 5.2 10.85 3.1 11.35 1.6 11.85 0.05 11.85 0.0 13.4 1.95 13.45 3.7 13.5 5.5 12.8 6.95 12.15 8.35 11.4 9.2 10.65 10.05 10.6 10.05" fill="#000000" fill-rule="evenodd" stroke="none"/>
    </g>
    <g id="shape7" transform="matrix(1.0, 0.0, 0.0, 1.0, 0.0, 0.0)">
      <path d="M54.1 102.35 Q63.7 102.3 71.45 99.3 79.15 96.3 84.95 91.25 90.75 86.2 94.65 79.9 98.55 73.6 100.5 66.9 102.45 60.2 102.45 53.95 102.45 47.7 100.5 41.0 98.55 34.3 94.65 28.05 90.8 21.75 84.95 16.7 79.15 11.65 71.45 8.65 63.7 5.65 54.1 5.6 44.5 5.65 36.75 8.65 29.05 11.6 23.25 16.7 17.4 21.75 13.55 28.0 9.65 34.3 7.7 41.0 5.75 47.7 5.75 53.95 5.75 60.25 7.7 66.9 9.65 73.6 13.55 79.9 17.4 86.2 23.25 91.25 29.05 96.3 36.75 99.3 44.5 102.3 54.1 102.35 M108.2 53.95 Q108.2 53.95 108.2 53.95 108.2 53.95 108.2 54.0 108.2 60.9 105.95 68.35 103.75 75.8 99.35 82.85 95.0 89.85 88.45 95.5 81.95 101.2 73.35 104.5 64.75 107.85 54.1 107.95 54.1 107.95 54.1 107.95 54.1 107.95 54.1 107.95 43.45 107.85 34.85 104.5 26.25 101.2 19.7 95.5 13.2 89.85 8.8 82.85 4.45 75.85 2.2 68.4 0.0 60.95 0.0 54.0 0.0 54.0 0.0 53.95 0.0 53.95 0.0 53.95 0.0 47.0 2.2 39.55 4.45 32.1 8.8 25.1 13.2 18.05 19.7 12.4 26.25 6.75 34.85 3.4 43.45 0.1 54.1 0.0 54.1 0.0 54.1 0.0 54.1 0.0 54.1 0.0 64.75 0.1 73.35 3.4 81.95 6.75 88.5 12.4 95.0 18.05 99.35 25.1 103.75 32.1 106.0 39.55 108.2 47.0 108.2 53.95" fill="#000000" fill-rule="evenodd" stroke="none"/>
    </g>
    <g id="shape8" transform="matrix(1.0, 0.0, 0.0, 1.0, 0.0, 0.0)">
      <path d="M20.25 1.9 Q21.7 3.0 22.3 4.65 22.9 6.3 22.75 7.95 22.6 9.65 21.85 10.85 21.05 12.05 19.7 12.3 17.85 12.55 17.4 11.85 16.9 11.15 17.05 10.4 17.2 9.6 17.25 9.55 17.3 9.55 17.95 9.2 18.6 8.85 19.1 8.1 19.65 7.3 19.35 6.0 18.95 4.65 17.8 4.25 16.6 3.8 15.3 4.05 14.05 4.3 13.35 5.1 12.75 5.8 12.35 6.6 11.95 7.35 12.05 8.75 12.15 10.15 12.9 12.9 10.15 12.1 8.75 12.05 7.35 11.95 6.6 12.35 5.8 12.7 5.1 13.35 4.3 14.0 4.05 15.3 3.8 16.55 4.25 17.75 4.7 18.95 6.0 19.35 7.3 19.6 8.1 19.1 8.85 18.55 9.2 17.95 9.55 17.3 9.55 17.25 9.6 17.15 10.4 17.0 11.15 16.9 11.85 17.35 12.55 17.85 12.3 19.65 12.05 21.0 10.85 21.8 9.65 22.6 7.95 22.75 6.3 22.85 4.65 22.25 3.0 21.65 1.9 20.2 -0.1 17.4 0.0 14.85 0.1 12.25 1.3 10.7 1.85 9.95 2.5 9.25 3.2 8.55 4.35 8.05 5.55 7.55 7.55 7.55 7.6 5.55 8.05 4.35 8.55 3.2 9.25 2.5 10.0 1.85 10.7 1.35 12.25 0.1 14.85 0.0 17.45 -0.1 20.25 1.9" fill="#000000" fill-rule="evenodd" stroke="none"/>
    </g>
    <g id="shape9" transform="matrix(1.0, 0.0, 0.0, 1.0, 0.0, 0.0)">
      <path d="M27.8 2.85 Q27.75 2.85 26.2 3.3 24.7 3.75 22.55 4.95 20.45 6.15 18.65 8.35 16.8 10.55 16.15 14.0 13.3 11.95 10.45 11.6 7.65 11.25 5.25 11.85 2.9 12.4 1.45 13.15 0.05 13.85 0.0 13.9 0.3 11.45 1.5 10.15 2.75 8.85 4.25 8.3 5.75 7.8 6.85 7.7 7.95 7.65 8.0 7.65 7.7 6.0 8.3 4.25 8.95 2.5 9.7 1.25 10.5 0.05 10.55 0.0 10.65 0.0 12.05 0.35 13.45 0.75 15.1 1.55 16.8 2.4 17.7 3.85 17.75 3.8 18.6 3.1 19.45 2.4 20.9 1.75 22.35 1.1 24.15 1.2 25.9 1.3 27.8 2.85" fill="#000000" fill-rule="evenodd" stroke="none"/>
    </g>
    <g id="shape10" transform="matrix(1.0, 0.0, 0.0, 1.0, 0.0, 0.0)">
      <path d="M7.8 7.85 Q7.75 7.8 7.85 6.7 8.0 5.6 8.55 4.1 9.1 2.6 10.45 1.4 11.8 0.25 14.25 0.0 14.15 0.05 13.4 1.45 12.65 2.85 12.0 5.2 11.35 7.55 11.6 10.4 11.9 13.2 13.85 16.1 10.4 16.7 8.15 18.45 5.9 20.2 4.65 22.3 3.35 24.4 2.85 25.9 2.35 27.4 2.35 27.5 0.85 25.55 0.8 23.75 0.75 21.95 1.4 20.55 2.1 19.1 2.8 18.25 3.55 17.4 3.6 17.4 2.2 16.45 1.4 14.75 0.6 13.1 0.3 11.7 0.0 10.3 0.0 10.2 0.05 10.1 1.3 9.4 2.55 8.65 4.35 8.05 6.15 7.5 7.8 7.85" fill="#000000" fill-rule="evenodd" stroke="none"/>
    </g>
    <g id="shape11" transform="matrix(1.0, 0.0, 0.0, 1.0, 0.0, 0.0)">
      <path d="M2.55 20.9 Q1.1 19.75 0.5 18.1 -0.1 16.45 0.05 14.8 0.15 13.1 0.95 11.9 1.75 10.7 3.1 10.45 4.9 10.2 5.4 10.9 5.9 11.6 5.75 12.35 5.6 13.15 5.55 13.2 5.45 13.2 4.85 13.55 4.2 13.9 3.7 14.65 3.15 15.45 3.45 16.75 3.8 18.1 5.0 18.55 6.2 18.95 7.45 18.7 8.75 18.45 9.4 17.65 10.05 16.95 10.45 16.2 10.8 15.45 10.75 14.0 10.65 12.6 9.9 9.9 12.6 10.65 14.05 10.7 15.45 10.8 16.2 10.4 16.95 10.05 17.7 9.4 18.5 8.75 18.75 7.45 19.0 6.2 18.55 5.0 18.1 3.85 16.8 3.45 15.45 3.15 14.7 3.7 13.9 4.2 13.6 4.85 13.25 5.5 13.25 5.55 13.2 5.6 12.4 5.75 11.6 5.9 10.9 5.4 10.25 4.9 10.45 3.1 10.7 1.75 11.95 0.95 13.15 0.15 14.8 0.05 16.5 -0.1 18.15 0.5 19.8 1.1 20.9 2.55 22.85 5.35 22.8 7.95 22.7 10.5 21.45 12.1 20.95 12.8 20.25 13.5 19.6 14.25 18.4 14.7 17.25 15.2 15.2 15.2 15.2 17.25 14.7 18.4 14.25 19.55 13.55 20.25 12.8 20.9 12.1 21.45 10.5 22.65 7.95 22.75 5.35 22.85 2.55 20.9" fill="#000000" fill-rule="evenodd" stroke="none"/>
    </g>
    <g id="shape12" transform="matrix(1.0, 0.0, 0.0, 1.0, 0.0, 0.0)">
      <path d="M11.65 14.0 Q11.0 10.55 9.2 8.35 7.35 6.15 5.25 4.95 3.15 3.75 1.6 3.3 0.05 2.85 0.0 2.85 1.9 1.3 3.7 1.2 5.5 1.1 6.9 1.75 8.35 2.4 9.2 3.1 10.1 3.8 10.1 3.85 11.0 2.4 12.7 1.55 14.35 0.75 15.75 0.35 17.15 0.0 17.25 0.0 17.35 0.05 18.1 1.25 18.85 2.5 19.5 4.25 20.15 6.0 19.8 7.65 19.85 7.65 21.0 7.7 22.1 7.8 23.6 8.3 25.05 8.85 26.3 10.15 27.5 11.45 27.8 13.9 27.8 13.85 26.35 13.15 24.9 12.4 22.55 11.85 20.2 11.3 17.35 11.6 14.5 11.95 11.65 14.0" fill="#000000" fill-rule="evenodd" stroke="none"/>
    </g>
    <g id="shape13" transform="matrix(1.0, 0.0, 0.0, 1.0, 0.0, 0.0)">
      <path d="M0.4 16.1 Q2.35 13.2 2.6 10.4 2.85 7.55 2.2 5.2 1.6 2.85 0.8 1.45 0.05 0.05 0.0 0.0 2.45 0.25 3.8 1.4 5.15 2.6 5.7 4.1 6.25 5.6 6.35 6.7 6.45 7.8 6.45 7.85 8.1 7.5 9.9 8.05 11.7 8.65 12.95 9.4 14.2 10.1 14.25 10.2 14.25 10.25 13.9 11.65 13.6 13.05 12.8 14.75 12.0 16.45 10.6 17.4 10.7 17.45 11.4 18.25 12.15 19.1 12.8 20.55 13.5 21.95 13.45 23.75 13.35 25.55 11.85 27.5 11.9 27.4 11.35 25.9 10.85 24.4 9.6 22.3 8.35 20.2 6.1 18.45 3.85 16.7 0.4 16.1" fill="#000000" fill-rule="evenodd" stroke="none"/>
    </g>
    <g id="shape14" transform="matrix(1.0, 0.0, 0.0, 1.0, 0.0, 0.0)">
      <path d="M42.4 73.9 Q50.4 73.8 56.55 70.8 62.7 67.8 66.85 63.0 71.05 58.2 73.2 52.65 75.35 47.1 75.35 41.85 75.35 36.65 73.2 31.05 71.05 25.5 66.85 20.7 62.7 15.9 56.55 12.9 50.4 9.95 42.4 9.85 34.4 9.95 28.3 12.9 22.15 15.9 17.95 20.7 13.8 25.5 11.65 31.05 9.5 36.6 9.5 41.85 9.5 47.1 11.65 52.65 13.8 58.2 17.95 63.0 22.15 67.8 28.3 70.8 34.4 73.8 42.4 73.9 M84.85 41.85 Q84.8 41.85 84.85 41.85 84.8 42.95 84.25 44.1 83.7 45.25 82.6 46.05 81.5 46.9 79.9 46.9 78.95 46.9 78.15 46.6 77.4 46.3 76.8 45.85 76.4 48.55 75.4 51.3 76.05 51.15 76.75 51.2 78.45 51.2 79.55 52.0 80.65 52.8 81.15 53.95 81.7 55.1 81.7 56.15 81.65 57.2 81.1 58.3 80.55 59.45 79.45 60.2 78.35 61.0 76.75 61.0 75.05 61.0 73.95 60.2 72.8 59.4 72.3 58.25 70.9 60.6 69.2 62.8 70.9 62.8 71.95 63.6 73.05 64.4 73.6 65.55 74.1 66.7 74.1 67.75 74.1 68.8 73.55 69.95 72.95 71.05 71.85 71.85 70.75 72.6 69.15 72.65 67.45 72.6 66.35 71.85 65.25 71.1 64.75 70.0 64.2 68.9 64.2 67.85 62.0 69.7 59.45 71.25 60.85 71.95 61.5 73.25 62.15 74.5 62.15 75.7 62.15 76.8 61.6 77.9 61.0 79.0 59.9 79.8 58.8 80.55 57.2 80.6 55.55 80.55 54.45 79.8 53.35 79.0 52.8 77.85 52.3 76.75 52.3 75.7 52.3 75.05 52.5 74.35 49.55 75.2 46.25 75.6 46.85 76.35 47.15 77.2 47.4 78.05 47.4 78.85 47.4 79.9 46.8 81.0 46.25 82.15 45.15 82.9 44.05 83.65 42.45 83.7 42.4 83.75 42.4 83.7 42.4 83.75 42.4 83.7 40.8 83.7 39.7 82.9 38.6 82.15 38.05 81.0 37.45 79.9 37.45 78.85 37.45 78.05 37.7 77.2 37.95 76.35 38.55 75.6 35.25 75.2 32.35 74.35 32.5 75.05 32.55 75.7 32.55 76.75 32.0 77.85 31.5 79.0 30.4 79.8 29.3 80.55 27.6 80.6 26.0 80.55 24.9 79.8 23.8 79.0 23.25 77.9 22.65 76.75 22.65 75.7 22.65 74.5 23.3 73.25 23.95 72.0 25.35 71.25 22.8 69.7 20.65 67.85 20.65 68.9 20.1 70.0 19.55 71.1 18.45 71.85 17.35 72.6 15.65 72.65 14.05 72.6 12.95 71.85 11.85 71.05 11.3 69.95 10.75 68.8 10.75 67.75 10.7 66.7 11.25 65.55 11.75 64.4 12.85 63.6 13.95 62.8 15.65 62.8 13.9 60.6 12.55 58.25 12.0 59.4 10.9 60.2 9.8 61.0 8.1 61.0 6.5 61.0 5.4 60.2 4.3 59.45 3.7 58.3 3.15 57.2 3.15 56.15 3.15 55.1 3.7 53.95 4.2 52.8 5.3 52.0 6.4 51.25 8.1 51.2 8.8 51.2 9.4 51.3 8.45 48.55 8.0 45.85 7.45 46.3 6.65 46.6 5.9 46.9 4.95 46.9 3.35 46.9 2.25 46.05 1.15 45.25 0.6 44.1 0.0 42.95 0.0 41.85 0.0 41.85 0.0 41.85 0.0 41.85 0.0 41.85 0.0 40.8 0.6 39.6 1.15 38.45 2.25 37.65 3.35 36.85 4.95 36.8 6.85 36.9 8.0 37.9 8.45 35.2 9.4 32.4 8.8 32.55 8.1 32.55 6.4 32.5 5.3 31.7 4.2 30.9 3.7 29.8 3.15 28.65 3.15 27.6 3.15 26.5 3.7 25.4 4.3 24.3 5.4 23.5 6.5 22.75 8.1 22.7 9.8 22.75 10.9 23.55 12.0 24.35 12.55 25.45 13.9 23.1 15.65 20.95 13.95 20.9 12.85 20.1 11.75 19.3 11.25 18.15 10.75 17.0 10.75 15.95 10.75 14.9 11.3 13.8 11.85 12.65 12.95 11.9 14.05 11.15 15.65 11.1 17.35 11.1 18.45 11.9 19.55 12.65 20.1 13.75 20.65 14.85 20.65 15.9 22.8 14.0 25.35 12.5 23.95 11.75 23.3 10.5 22.65 9.2 22.65 8.0 22.7 6.95 23.25 5.8 23.8 4.7 24.9 3.9 26.0 3.15 27.6 3.1 29.3 3.15 30.4 3.95 31.5 4.75 32.0 5.85 32.55 7.0 32.55 8.05 32.5 8.7 32.35 9.4 35.3 8.5 38.55 8.15 37.95 7.4 37.7 6.55 37.45 5.65 37.45 4.9 37.45 3.8 38.05 2.7 38.6 1.6 39.7 0.8 40.8 0.05 42.4 0.0 42.4 0.0 42.4 0.0 42.4 0.0 42.45 0.0 44.0 0.05 45.15 0.8 46.25 1.6 46.8 2.7 47.4 3.85 47.4 4.9 47.4 5.65 47.15 6.55 46.85 7.4 46.25 8.15 49.55 8.5 52.5 9.4 52.3 8.7 52.3 8.05 52.3 7.0 52.8 5.85 53.35 4.75 54.45 3.95 55.5 3.15 57.2 3.1 58.8 3.15 59.9 3.95 61.0 4.7 61.6 5.8 62.15 6.95 62.15 8.0 62.15 9.2 61.5 10.5 60.85 11.75 59.45 12.5 62.0 14.0 64.2 15.9 64.2 14.85 64.75 13.75 65.25 12.65 66.35 11.9 67.45 11.1 69.15 11.1 70.75 11.1 71.85 11.9 72.95 12.65 73.55 13.8 74.1 14.9 74.1 15.95 74.1 17.05 73.6 18.15 73.05 19.3 71.95 20.1 70.9 20.9 69.2 20.95 70.95 23.15 72.3 25.45 72.8 24.35 73.95 23.55 75.05 22.75 76.75 22.7 78.35 22.75 79.45 23.5 80.55 24.3 81.1 25.4 81.7 26.55 81.7 27.6 81.7 28.65 81.15 29.8 80.6 30.9 79.55 31.7 78.45 32.5 76.75 32.55 76.05 32.55 75.4 32.4 76.4 35.15 76.8 37.9 77.95 36.9 79.9 36.8 81.5 36.85 82.6 37.65 83.7 38.45 84.25 39.6 84.85 40.8 84.85 41.85 84.8 41.85 84.85 41.85" fill="#000000" fill-rule="evenodd" stroke="none"/>
    </g>
    <g id="shape15" transform="matrix(1.0, 0.0, 0.0, 1.0, 0.0, 0.0)">
      <path d="M7.55 15.2 Q5.55 15.2 4.35 14.7 3.2 14.25 2.5 13.5 1.85 12.8 1.3 12.1 0.1 10.5 0.0 7.95 -0.1 5.35 1.9 2.55 3.0 1.1 4.65 0.5 6.3 -0.1 7.95 0.05 9.65 0.15 10.85 0.95 12.05 1.75 12.3 3.1 12.55 4.9 11.85 5.4 11.15 5.9 10.4 5.75 9.6 5.6 9.55 5.55 9.55 5.45 9.2 4.85 8.85 4.2 8.1 3.7 7.3 3.15 6.0 3.45 4.65 3.8 4.25 5.0 3.8 6.2 4.05 7.45 4.3 8.75 5.1 9.4 5.8 10.05 6.6 10.4 7.35 10.8 8.75 10.75 10.2 10.65 12.9 9.9 12.15 12.6 12.05 14.0 11.95 15.45 12.35 16.2 12.75 16.95 13.35 17.65 14.05 18.45 15.3 18.7 16.6 18.95 17.8 18.5 18.95 18.1 19.35 16.75 19.65 15.45 19.1 14.65 18.6 13.9 17.95 13.55 17.3 13.2 17.25 13.2 17.2 13.15 17.05 12.35 16.9 11.6 17.4 10.9 17.9 10.2 19.7 10.45 21.05 10.7 21.8 11.9 22.6 13.1 22.75 14.8 22.9 16.45 22.3 18.1 21.7 19.75 20.25 20.9 17.45 22.85 14.85 22.75 12.25 22.7 10.7 21.45 10.0 20.9 9.25 20.25 8.55 19.55 8.05 18.4 7.6 17.2 7.55 15.2" fill="#000000" fill-rule="evenodd" stroke="none"/>
    </g>
  </defs>
</svg>
