<?xml version="1.0" encoding="UTF-8" standalone="no"?>
<svg xmlns:ffdec="https://www.free-decompiler.com/flash" xmlns:xlink="http://www.w3.org/1999/xlink" ffdec:objectType="frame" height="200.0px" width="198.0px" xmlns="http://www.w3.org/2000/svg">
  <g transform="matrix(1.0, 0.0, 0.0, 1.0, 0.0, 0.0)">
    <rect fill="#ffffff" height="200.0px" width="198.0px"/>
    <use ffdec:characterId="1" height="200.0" transform="matrix(1.0, 0.0, 0.0, 1.0, 0.0, 0.0)" width="197.15" xlink:href="#shape0"/>
  </g>
  <defs>
    <g id="shape0" transform="matrix(1.0, 0.0, 0.0, 1.0, 0.0, 0.0)">
      <path d="M170.45 141.3 Q176.05 141.2 179.7 139.25 183.35 137.35 185.45 134.3 187.5 131.2 188.35 127.8 189.2 124.4 189.15 121.4 189.05 117.4 186.75 114.05 184.4 110.75 180.65 108.7 176.95 106.7 172.7 106.65 169.55 106.7 167.35 107.8 165.15 108.9 163.8 110.55 162.4 112.2 161.75 113.9 161.15 115.55 161.15 116.7 161.15 119.0 161.95 120.25 162.7 121.55 163.75 122.05 164.75 122.6 165.55 122.7 166.3 122.8 166.35 122.75 166.5 121.55 167.55 120.65 168.55 119.75 171.1 119.9 171.05 119.8 171.25 118.7 171.4 117.6 172.35 116.5 173.25 115.4 175.45 115.3 177.75 115.4 178.75 116.5 179.7 117.6 179.9 118.7 180.1 119.8 180.05 119.9 182.1 119.95 183.15 120.7 184.2 121.4 184.6 122.4 185.05 123.35 185.05 124.1 185.1 124.85 185.1 124.9 185.1 124.9 185.05 125.65 185.0 126.4 184.6 127.35 184.2 128.35 183.15 129.05 182.1 129.8 180.05 129.85 180.05 129.9 179.95 130.75 179.85 131.6 179.4 132.75 178.95 133.85 177.95 134.7 176.95 135.55 175.2 135.6 173.0 135.55 172.1 134.4 171.15 133.3 171.0 132.2 170.8 131.1 170.85 131.0 169.05 131.5 168.1 131.15 167.1 130.8 166.7 130.0 166.3 129.25 166.15 128.5 166.1 128.55 164.55 128.3 163.0 128.1 160.95 127.0 158.9 125.9 157.35 123.35 155.8 120.8 155.75 116.2 155.8 113.25 156.8 111.15 157.85 109.05 159.2 107.7 160.55 106.4 161.6 105.8 162.6 105.2 162.65 105.2 160.55 104.45 158.95 104.65 157.35 104.8 156.3 105.45 155.2 106.05 154.7 106.65 154.15 107.2 154.15 107.25 155.15 109.9 154.65 111.35 154.15 112.8 152.9 113.4 151.7 113.95 150.6 114.05 149.55 114.15 149.45 114.1 149.45 116.75 147.75 118.45 146.0 120.2 142.95 120.25 140.95 120.15 139.8 119.1 138.6 118.05 138.15 117.0 137.65 115.9 137.65 115.85 135.2 116.6 134.1 115.9 133.0 115.2 132.7 113.9 132.45 112.6 132.6 111.5 132.7 110.35 132.75 110.3 131.2 110.65 130.35 110.1 129.5 109.6 129.1 108.75 128.75 107.9 128.65 107.25 128.6 106.55 128.6 106.5 126.1 105.75 124.95 104.2 123.75 102.65 123.45 101.35 123.1 100.05 123.15 99.95 L123.25 99.95 Q123.25 99.6 123.65 98.3 124.0 97.0 125.15 95.6 126.35 94.2 128.65 93.5 128.65 93.45 128.7 92.75 128.8 92.1 129.2 91.25 129.55 90.4 130.4 89.9 131.3 89.35 132.85 89.7 132.8 89.65 132.65 88.5 132.55 87.4 132.8 86.1 133.05 84.8 134.2 84.1 135.3 83.4 137.75 84.15 137.75 84.1 138.2 83.0 138.7 81.95 139.85 80.9 141.0 79.85 143.0 79.75 146.1 79.8 147.8 81.55 149.5 83.25 149.55 85.9 149.6 85.85 150.7 85.95 151.75 86.05 153.0 86.6 154.2 87.2 154.7 88.65 155.25 90.05 154.2 92.75 154.2 92.8 154.75 93.4 155.3 93.95 156.35 94.55 157.45 95.2 159.05 95.35 160.65 95.55 162.75 94.8 162.7 94.8 161.65 94.2 160.65 93.6 159.25 92.3 157.9 90.95 156.9 88.85 155.85 86.8 155.8 83.8 155.9 79.2 157.45 76.65 159.0 74.1 161.0 73.0 163.05 71.9 164.6 71.7 166.15 71.45 166.25 71.5 166.4 70.75 166.8 70.0 167.2 69.2 168.15 68.85 169.1 68.5 170.95 69.0 170.9 68.9 171.05 67.8 171.25 66.7 172.15 65.6 173.05 64.5 175.25 64.4 177.0 64.45 178.0 65.3 179.0 66.15 179.45 67.25 179.9 68.4 180.05 69.25 180.15 70.1 180.15 70.15 182.15 70.2 183.2 70.95 184.3 71.65 184.7 72.65 185.1 73.6 185.15 74.35 185.15 75.05 185.15 75.1 185.15 75.15 185.15 75.9 185.1 76.65 184.7 77.6 184.3 78.6 183.25 79.3 182.15 80.05 180.15 80.1 180.15 80.2 180.0 81.3 179.8 82.4 178.8 83.5 177.8 84.6 175.5 84.7 173.35 84.6 172.4 83.5 171.5 82.4 171.3 81.3 171.15 80.2 171.2 80.1 168.65 80.25 167.6 79.35 166.55 78.45 166.4 77.25 166.4 77.2 165.6 77.3 164.85 77.4 163.8 77.95 162.8 78.45 162.0 79.75 161.25 81.0 161.2 83.3 161.2 84.45 161.85 86.1 162.45 87.8 163.85 89.45 165.2 91.1 167.4 92.2 169.65 93.3 172.75 93.35 177.0 93.3 180.75 91.3 184.45 89.25 186.8 85.95 189.15 82.6 189.2 78.65 189.25 75.6 188.4 72.2 187.55 68.8 185.5 65.7 183.45 62.65 179.8 60.7 176.15 58.75 170.55 58.7 160.9 58.8 153.25 61.2 145.6 63.6 139.75 67.6 133.95 71.55 129.8 76.25 125.65 80.95 123.0 85.65 120.4 90.3 119.15 94.1 117.95 97.9 117.95 100.05 L117.9 100.05 Q117.9 102.25 119.15 106.05 120.4 109.9 123.05 114.55 125.65 119.2 129.8 123.85 133.95 128.55 139.8 132.5 145.6 136.45 153.25 138.85 160.85 141.25 170.45 141.3 M119.7 192.1 Q122.75 192.1 126.15 191.25 129.55 190.45 132.6 188.35 135.65 186.3 137.6 182.65 139.55 179.0 139.6 173.4 139.55 163.8 137.15 156.15 134.75 148.5 130.85 142.65 126.9 136.8 122.25 132.65 117.55 128.5 112.9 125.9 108.3 123.3 104.5 122.05 100.7 120.8 98.55 120.8 96.35 120.8 92.6 122.05 88.8 123.3 84.15 125.9 79.5 128.5 74.85 132.65 70.15 136.8 66.25 142.65 62.3 148.5 59.9 156.15 57.5 163.8 57.45 173.4 57.5 179.0 59.45 182.65 61.4 186.3 64.45 188.35 67.5 190.45 70.9 191.3 74.35 192.1 77.35 192.1 81.35 192.0 84.65 189.65 88.0 187.35 90.0 183.6 92.05 179.85 92.1 175.6 92.05 172.5 90.95 170.3 89.8 168.1 88.15 166.7 86.5 165.35 84.85 164.7 83.15 164.05 82.0 164.05 79.7 164.1 78.45 164.9 77.2 165.65 76.65 166.65 76.15 167.7 76.05 168.45 75.95 169.25 75.95 169.3 77.2 169.4 78.05 170.45 78.95 171.5 78.8 174.05 78.9 174.0 80.0 174.2 81.15 174.35 82.25 175.3 83.35 176.2 83.45 178.4 83.35 180.7 82.25 181.65 81.15 182.65 80.0 182.85 78.9 183.05 78.8 183.0 78.8 185.0 78.05 186.1 77.3 187.15 76.35 187.55 75.35 187.95 74.65 188.0 73.9 188.05 73.85 188.0 73.8 188.05 73.05 188.0 72.35 187.95 71.35 187.55 70.4 187.15 69.65 186.1 68.9 185.05 68.85 183.0 68.85 183.0 67.95 182.9 67.1 182.8 66.0 182.3 64.85 181.85 64.0 180.9 63.15 179.9 63.1 178.15 63.2 175.95 64.3 175.0 65.4 174.1 66.5 173.95 67.6 173.75 67.7 173.8 67.25 171.95 67.6 171.0 67.95 170.05 68.7 169.65 69.5 169.25 70.25 169.1 70.2 169.0 70.4 167.45 70.65 165.9 71.75 163.9 72.85 161.85 75.4 160.3 77.9 158.75 82.5 158.65 85.5 158.7 87.6 159.75 89.7 160.8 91.0 162.15 92.3 163.5 92.9 164.5 93.5 165.55 93.5 165.6 94.25 163.5 94.1 161.9 93.9 160.3 93.3 159.2 92.65 158.15 92.1 157.6 91.55 157.05 91.5 157.05 88.8 158.1 87.35 157.6 85.9 157.05 85.35 155.85 84.75 154.6 84.65 153.55 84.55 152.45 84.6 152.4 81.95 152.35 80.25 150.65 78.55 148.95 78.45 145.9 78.55 143.85 79.6 142.7 80.7 141.55 81.75 141.05 82.8 140.6 82.9 140.6 82.15 138.15 82.85 137.05 83.5 135.9 84.85 135.65 86.15 135.4 87.25 135.55 88.35 135.65 88.4 135.7 88.1 134.15 88.6 133.25 89.1 132.4 89.95 132.05 90.8 131.65 91.5 131.55 92.2 131.5 92.25 131.5 92.95 129.1 94.35 127.95 95.8 126.8 97.05 126.45 98.3 126.1 98.5 126.1 98.5 126.1 98.55 126.1 98.55 126.1 98.55 126.1 98.8 126.1 100.05 126.45 101.3 126.8 102.7 127.95 104.1 129.1 104.85 131.5 104.9 131.5 105.55 131.55 106.25 131.65 107.1 132.05 107.95 132.4 108.45 133.3 109.0 134.15 108.65 135.7 108.7 135.65 109.8 135.5 110.9 135.4 112.25 135.65 113.55 135.9 114.25 137.05 114.9 138.15 114.15 140.6 114.25 140.6 115.3 141.05 116.4 141.55 117.45 142.7 118.5 143.9 118.6 145.9 118.55 148.95 116.8 150.65 115.1 152.35 112.45 152.4 112.5 152.45 112.4 153.55 112.3 154.6 111.75 155.85 111.15 157.05 109.7 157.55 108.25 158.1 105.55 157.05 105.55 157.05 104.95 157.6 104.4 158.15 103.8 159.2 103.15 160.3 103.0 161.9 102.8 163.5 103.55 165.6 103.55 165.55 104.15 164.5 104.75 163.5 106.05 162.15 107.35 160.75 109.45 159.75 111.55 158.7 114.55 158.65 119.15 158.75 121.7 160.3 124.25 161.85 125.35 163.9 126.45 165.9 126.65 167.45 126.9 169.0 126.85 169.1 127.6 169.25 128.35 169.65 129.1 170.05 129.5 171.0 129.85 171.95 129.35 173.8 129.45 173.75 130.55 173.95 131.65 174.1 132.75 175.05 133.85 175.95 133.95 178.15 133.9 179.9 133.05 180.85 132.2 181.85 131.1 182.3 129.95 182.8 129.1 182.9 128.25 183.0 128.2 183.0 128.15 185.0 127.4 186.1 126.7 187.15 125.7 187.55 124.75 187.95 124.0 188.0 123.25 188.05 123.2 188.0 123.2 188.05 122.45 188.0 121.7 187.95 120.75 187.55 119.75 187.15 119.0 186.1 118.3 185.05 118.25 183.0 118.15 183.05 117.05 182.85 115.95 182.65 114.85 181.65 113.75 180.7 113.65 178.4 113.7 176.2 114.85 175.25 115.95 174.35 117.05 174.2 118.15 174.0 118.25 174.05 118.1 171.5 119.0 170.45 119.9 169.4 121.1 169.3 121.1 169.25 121.0 168.45 120.9 167.7 120.4 166.65 119.85 165.65 118.6 164.85 117.35 164.1 115.05 164.05 113.9 164.05 112.25 164.7 110.55 165.35 108.9 166.7 107.25 168.1 106.1 170.3 105.0 172.5 104.95 175.6 105.05 179.85 107.05 183.6 109.05 187.35 112.4 189.65 115.7 192.0 119.7 192.1 M26.6 141.3 Q36.25 141.2 43.9 138.8 51.55 136.4 57.35 132.4 63.2 128.45 67.35 123.75 71.5 119.05 74.1 114.35 76.75 109.7 77.95 105.9 79.2 102.1 79.2 99.95 L79.25 99.95 Q79.25 97.75 78.0 93.95 76.75 90.1 74.1 85.45 71.45 80.8 67.3 76.15 63.15 71.45 57.35 67.5 51.5 63.55 43.9 61.15 36.25 58.75 26.65 58.7 21.1 58.8 17.45 60.75 13.8 62.65 11.7 65.75 9.65 68.8 8.8 72.2 7.95 75.65 8.0 78.65 8.05 82.6 10.4 85.95 12.75 89.25 16.5 91.3 20.2 93.3 24.45 93.35 27.6 93.3 29.8 92.2 32.0 91.1 33.35 89.45 34.75 87.8 35.35 86.1 36.0 84.45 36.0 83.3 35.95 81.0 35.2 79.75 34.4 78.45 33.4 77.95 32.4 77.4 31.6 77.3 30.85 77.2 30.8 77.25 30.65 78.45 29.6 79.35 28.55 80.25 26.05 80.1 26.05 80.2 25.9 81.3 25.7 82.4 24.8 83.5 23.9 84.6 21.7 84.7 19.4 84.6 18.4 83.5 17.45 82.4 17.25 81.3 17.05 80.2 17.1 80.1 15.05 80.05 14.0 79.3 12.9 78.6 12.5 77.6 12.1 76.65 12.05 75.9 12.05 75.15 12.05 75.1 12.05 75.1 12.1 74.35 12.1 73.6 12.5 72.65 12.95 71.65 14.0 70.95 15.05 70.2 17.1 70.15 17.05 70.1 17.2 69.25 17.3 68.4 17.75 67.25 18.2 66.15 19.2 65.3 20.2 64.45 21.95 64.4 24.15 64.45 25.05 65.6 25.95 66.7 26.15 67.8 26.3 68.9 26.25 69.0 28.1 68.5 29.05 68.85 30.0 69.2 30.4 70.0 30.8 70.75 30.95 71.5 31.05 71.45 32.6 71.7 34.15 71.9 36.2 73.0 38.25 74.1 39.8 76.65 41.3 79.2 41.4 83.8 41.35 86.75 40.35 88.85 39.3 90.95 37.95 92.3 36.6 93.6 35.55 94.2 34.5 94.8 34.45 94.8 36.6 95.55 38.2 95.35 39.8 95.2 40.85 94.55 41.95 93.95 42.45 93.35 43.0 92.8 43.0 92.75 42.0 90.1 42.5 88.65 43.0 87.2 44.25 86.6 45.45 86.05 46.55 85.95 47.6 85.85 47.7 85.9 47.7 83.25 49.4 81.55 51.1 79.8 54.2 79.75 56.2 79.85 57.35 80.9 58.5 81.95 59.0 83.0 59.5 84.1 59.45 84.15 61.9 83.4 63.05 84.1 64.15 84.8 64.4 86.1 64.7 87.4 64.55 88.5 64.45 89.65 64.4 89.7 65.95 89.35 66.8 89.9 67.65 90.4 68.05 91.25 68.4 92.1 68.5 92.75 68.55 93.45 68.55 93.5 71.05 94.25 72.2 95.8 73.35 97.35 73.7 98.65 74.0 99.95 73.95 100.05 L73.9 100.05 Q73.9 100.4 73.5 101.7 73.15 103.0 71.95 104.4 70.8 105.8 68.5 106.5 68.5 106.55 68.4 107.25 68.35 107.9 67.95 108.75 67.6 109.6 66.7 110.1 65.85 110.65 64.3 110.3 64.35 110.35 64.5 111.5 64.6 112.6 64.35 113.9 64.1 115.2 62.95 115.9 61.85 116.6 59.4 115.85 59.4 115.9 58.95 117.0 58.45 118.05 57.3 119.1 56.1 120.15 54.1 120.25 51.05 120.2 49.35 118.45 47.65 116.75 47.6 114.1 47.55 114.15 46.45 114.05 45.4 113.95 44.15 113.4 42.95 112.8 42.45 111.35 41.9 109.95 42.95 107.25 42.95 107.2 42.4 106.6 41.85 106.05 40.8 105.45 39.7 104.8 38.1 104.65 36.5 104.45 34.4 105.2 34.45 105.2 35.5 105.8 36.5 106.4 37.85 107.7 39.25 109.05 40.25 111.15 41.3 113.2 41.35 116.2 41.25 120.8 39.7 123.35 38.15 125.9 36.1 127.0 34.1 128.1 32.55 128.3 31.0 128.55 30.9 128.5 30.75 129.25 30.35 130.0 29.95 130.8 29.0 131.15 28.05 131.5 26.2 131.0 26.25 131.1 26.05 132.2 25.9 133.3 24.95 134.4 24.05 135.5 21.85 135.6 20.1 135.55 19.15 134.7 18.15 133.85 17.7 132.75 17.2 131.6 17.1 130.75 17.0 129.9 17.0 129.85 15.0 129.8 13.9 129.1 12.85 128.35 12.45 127.35 12.05 126.4 12.0 125.65 11.95 124.95 12.0 124.9 11.95 124.85 12.0 124.1 12.05 123.35 12.45 122.4 12.85 121.4 13.9 120.7 14.95 119.95 17.0 119.9 16.95 119.8 17.15 118.7 17.35 117.6 18.35 116.5 19.3 115.4 21.6 115.3 23.8 115.4 24.75 116.5 25.65 117.6 25.8 118.7 26.0 119.8 25.95 119.9 28.5 119.75 29.55 120.65 30.6 121.55 30.7 122.75 30.75 122.8 31.55 122.7 32.3 122.6 33.35 122.05 34.35 121.55 35.15 120.25 35.9 119.0 35.95 116.7 35.95 115.55 35.3 113.9 34.65 112.2 33.3 110.55 31.9 108.9 29.7 107.8 27.5 106.7 24.4 106.65 20.15 106.7 16.4 108.7 12.65 110.75 10.35 114.05 8.0 117.4 7.9 121.4 7.9 124.4 8.75 127.8 9.55 131.2 11.65 134.3 13.7 137.35 17.35 139.3 21.0 141.25 26.6 141.3 M98.55 113.3 Q98.75 113.25 101.05 113.15 103.3 113.05 106.9 113.8 110.45 114.5 114.6 116.9 112.15 112.65 111.3 108.8 110.4 104.95 110.4 102.5 110.35 100.05 110.4 99.95 L110.45 99.95 Q110.4 99.35 110.5 96.85 110.6 94.3 111.5 90.7 112.4 87.05 114.65 83.1 110.55 85.5 106.95 86.2 103.4 86.95 101.1 86.85 98.8 86.8 98.6 86.7 98.4 86.75 96.1 86.85 93.85 86.95 90.25 86.2 86.65 85.45 82.55 83.1 84.95 87.35 85.85 91.2 86.7 95.05 86.75 97.5 86.8 99.95 86.75 100.05 L86.7 100.05 Q86.75 100.65 86.65 103.15 86.55 105.7 85.65 109.3 84.75 112.95 82.45 116.9 86.6 114.5 90.2 113.8 93.75 113.05 96.05 113.15 98.35 113.2 98.55 113.3 M77.4 7.9 Q74.4 7.9 71.0 8.75 67.6 9.55 64.5 11.65 61.45 13.7 59.5 17.35 57.55 21.0 57.5 26.6 57.6 36.2 60.0 43.85 62.4 51.5 66.3 57.35 70.25 63.2 74.9 67.35 79.6 71.5 84.2 74.1 88.85 76.7 92.65 77.95 96.45 79.2 98.6 79.2 100.75 79.2 104.55 77.95 108.35 76.7 113.0 74.1 117.6 71.5 122.3 67.35 127.0 63.2 130.9 57.35 134.85 51.5 137.25 43.85 139.65 36.2 139.7 26.6 139.65 21.0 137.7 17.35 135.75 13.7 132.7 11.65 129.65 9.55 126.2 8.7 122.8 7.9 119.8 7.9 115.8 8.0 112.45 10.35 109.15 12.65 107.1 16.4 105.1 20.15 105.05 24.4 105.1 27.5 106.2 29.7 107.3 31.9 109.0 33.3 110.65 34.65 112.3 35.3 113.95 35.95 115.1 35.95 117.4 35.9 118.7 35.1 119.95 34.35 120.45 33.35 121.0 32.3 121.1 31.55 121.2 30.75 121.15 30.7 119.95 30.6 119.05 29.55 118.15 28.5 118.3 25.95 118.25 26.0 117.1 25.8 116.0 25.65 114.9 24.7 113.8 23.8 113.7 21.6 113.8 19.3 114.9 18.35 116.0 17.35 117.1 17.15 118.2 16.95 118.3 17.0 118.35 15.0 119.1 13.9 119.85 12.85 120.8 12.45 121.8 12.05 122.5 12.0 123.25 11.95 123.3 12.0 123.35 11.95 124.05 12.0 124.8 12.05 125.8 12.45 126.75 12.85 127.5 13.9 128.2 14.95 128.25 17.0 128.3 17.0 129.15 17.1 130.0 17.25 131.15 17.7 132.3 18.15 133.15 19.1 134.0 20.1 134.05 21.85 133.95 24.05 132.85 25.0 131.75 25.9 130.65 26.05 129.5 26.25 129.45 26.2 129.9 28.05 129.55 29.0 129.2 29.95 128.4 30.35 127.65 30.75 126.9 30.9 126.95 31.0 126.75 32.55 126.5 34.1 125.4 36.1 124.3 38.15 121.75 39.7 119.2 41.25 114.65 41.35 111.65 41.3 109.55 40.25 107.45 39.25 106.15 37.85 104.85 36.5 104.25 35.5 103.65 34.45 103.65 34.4 102.9 36.5 103.05 38.1 103.25 39.7 103.85 40.8 104.45 41.85 105.05 42.4 105.6 42.95 105.65 42.95 108.35 41.9 109.8 42.4 111.25 42.95 111.8 44.15 112.4 45.4 112.5 46.45 112.55 47.55 112.55 47.6 115.15 47.65 116.9 49.35 118.6 51.05 118.65 54.1 118.6 56.15 117.5 57.3 116.45 58.45 115.4 58.95 114.35 59.4 114.25 59.4 115.0 61.85 114.3 62.95 113.6 64.1 112.3 64.35 111.0 64.6 109.9 64.45 108.8 64.35 108.7 64.3 109.05 65.85 108.55 66.75 108.05 67.6 107.2 67.95 106.35 68.35 105.65 68.45 104.95 68.5 104.9 68.5 104.2 70.9 102.75 72.05 101.35 73.2 100.1 73.55 98.85 73.9 98.65 73.9 98.65 73.9 98.6 73.9 98.6 73.9 98.6 73.9 98.35 73.9 97.1 73.55 95.85 73.2 94.45 72.05 93.05 70.9 92.3 68.5 92.25 68.5 91.55 68.45 90.9 68.35 90.05 67.95 89.2 67.6 88.7 66.7 88.15 65.85 88.5 64.3 88.45 64.35 87.3 64.5 86.2 64.6 84.9 64.35 83.6 64.1 82.9 62.95 82.2 61.85 82.95 59.4 82.9 59.4 81.8 58.95 80.75 58.45 79.7 57.3 78.65 56.1 78.55 54.1 78.6 51.05 80.35 49.35 82.05 47.65 84.7 47.6 84.65 47.55 84.75 46.45 84.85 45.4 85.4 44.15 86.0 42.95 87.45 42.45 88.85 41.9 91.55 42.95 91.6 42.95 92.2 42.4 92.75 41.85 93.35 40.8 94.0 39.7 94.15 38.1 94.35 36.5 93.6 34.4 93.6 34.45 93.0 35.5 92.4 36.5 91.1 37.85 89.75 39.25 87.65 40.25 85.6 41.3 82.6 41.35 78.0 41.25 75.45 39.7 72.9 38.15 71.8 36.1 70.7 34.1 70.5 32.55 70.25 31.0 70.3 30.9 69.55 30.75 68.8 30.35 68.0 29.95 67.65 29.0 67.3 28.05 67.8 26.2 67.7 26.25 66.6 26.05 65.5 25.9 64.4 24.95 63.3 24.05 63.2 21.85 63.25 20.1 64.1 19.15 64.95 18.15 66.05 17.7 67.2 17.2 68.05 17.1 68.9 17.0 68.95 17.0 69.0 15.0 69.7 13.9 70.45 12.85 71.45 12.45 72.4 12.05 73.15 12.0 73.85 11.95 73.9 12.0 73.95 11.95 74.7 12.0 75.45 12.05 76.4 12.45 77.4 12.85 78.1 13.9 78.85 14.95 78.9 17.0 79.0 16.95 80.1 17.15 81.2 17.35 82.3 18.35 83.4 19.3 83.5 21.6 83.4 23.8 82.3 24.75 81.2 25.65 80.1 25.8 79.0 26.0 78.9 25.95 79.05 28.5 78.15 29.55 77.25 30.6 76.05 30.7 76.0 30.75 76.1 31.55 76.2 32.3 76.75 33.35 77.25 34.35 78.55 35.15 79.8 35.9 82.1 35.95 83.25 35.95 84.9 35.3 86.6 34.65 88.25 33.3 89.9 31.9 91.0 29.7 92.1 27.5 92.15 24.4 92.1 20.15 90.1 16.4 88.05 12.65 84.75 10.35 81.4 8.0 77.4 7.9 M177.0 100.0 Q179.75 100.25 183.15 102.0 186.55 103.7 189.75 106.85 192.9 110.0 194.95 114.55 197.0 119.05 197.05 124.8 197.0 127.95 195.85 131.05 194.65 134.2 192.9 137.05 191.15 139.9 189.4 142.1 187.65 144.3 186.45 145.6 185.25 146.9 185.2 146.9 185.3 147.0 185.95 148.75 186.65 150.5 187.05 153.2 187.45 155.9 186.7 158.75 186.0 161.65 183.25 163.85 183.3 163.85 183.4 162.7 183.55 161.6 183.2 159.8 182.8 158.05 181.35 156.05 179.95 154.1 176.85 152.4 173.8 150.65 168.5 149.65 160.95 148.15 156.6 146.45 152.3 144.8 150.5 143.55 148.7 142.35 148.75 142.3 149.65 146.15 151.5 149.5 153.35 152.8 155.4 155.25 157.45 157.7 158.9 159.1 160.4 160.45 160.45 160.5 161.3 158.8 162.4 158.35 163.5 157.95 164.55 158.25 165.65 158.55 166.35 159.0 167.05 159.45 167.05 159.5 170.3 159.5 171.6 160.65 172.9 161.8 172.95 163.35 173.05 164.9 172.65 166.1 172.25 167.3 172.2 167.35 173.4 169.35 173.35 171.15 173.35 172.9 172.95 174.05 172.5 175.15 172.45 175.2 172.4 175.25 171.3 175.65 170.15 176.1 168.4 176.1 166.6 176.1 164.6 174.9 164.5 175.0 163.35 175.35 162.15 175.75 160.55 175.65 159.0 175.6 157.85 174.3 156.7 173.0 156.75 169.75 156.7 169.75 156.2 169.05 155.75 168.35 155.45 167.3 155.15 166.2 155.6 165.1 156.0 164.0 157.7 163.15 157.7 163.05 156.4 161.65 155.1 160.2 152.75 158.15 150.4 156.15 147.15 154.3 143.95 152.45 140.05 151.55 140.15 151.5 141.5 153.35 142.85 155.15 144.65 159.5 146.5 163.9 147.95 171.45 149.0 176.7 150.7 179.8 152.45 182.85 154.4 184.3 156.4 185.75 158.15 186.1 159.9 186.5 161.05 186.35 162.15 186.25 162.2 186.2 160.0 188.9 157.1 189.65 154.25 190.4 151.55 189.95 148.85 189.55 147.1 188.9 145.3 188.2 145.25 188.15 145.25 188.2 143.95 189.4 142.65 190.55 140.45 192.3 138.25 194.05 135.4 195.85 132.55 197.6 129.4 198.75 126.25 199.95 123.15 200.0 117.25 199.9 112.75 197.8 108.2 195.65 105.1 192.4 101.95 189.15 100.3 185.7 98.65 182.25 98.55 179.5 98.4 182.25 96.75 185.7 95.1 189.15 92.0 192.4 88.85 195.65 84.35 197.8 79.8 199.9 73.9 200.0 70.8 199.95 67.65 198.75 64.5 197.6 61.65 195.85 58.85 194.05 56.6 192.3 54.4 190.55 53.1 189.4 51.85 188.2 51.8 188.15 51.75 188.2 50.0 188.9 48.2 189.55 45.5 190.0 42.8 190.4 39.95 189.65 37.1 188.95 34.85 186.2 34.9 186.25 36.0 186.35 37.15 186.5 38.9 186.1 40.7 185.75 42.65 184.3 44.65 182.85 46.35 179.8 48.05 176.75 49.1 171.45 50.6 163.9 52.4 159.5 54.25 155.15 55.6 153.3 56.95 151.5 57.0 151.55 53.1 152.45 49.9 154.3 46.65 156.15 44.3 158.2 41.95 160.2 40.65 161.65 39.35 163.1 39.35 163.15 41.05 164.0 41.5 165.1 41.9 166.2 41.6 167.25 41.3 168.35 40.85 169.05 40.4 169.75 40.35 169.75 40.35 173.0 39.2 174.3 38.05 175.6 36.5 175.65 34.95 175.75 33.75 175.35 32.55 174.95 32.5 174.9 30.5 176.1 28.7 176.1 26.9 176.1 25.75 175.65 24.65 175.25 24.6 175.2 24.55 175.15 24.1 174.05 23.7 172.9 23.7 171.15 23.7 169.35 24.85 167.35 24.8 167.3 24.4 166.1 24.05 164.9 24.1 163.35 24.2 161.8 25.45 160.65 26.75 159.45 30.0 159.5 30.05 159.45 30.75 159.0 31.45 158.55 32.5 158.25 33.55 157.95 34.65 158.35 35.8 158.8 36.65 160.5 36.7 160.45 38.15 159.1 39.6 157.7 41.65 155.25 43.7 152.8 45.6 149.5 47.45 146.2 48.35 142.3 48.4 142.35 46.6 143.55 44.8 144.8 40.45 146.5 36.1 148.15 28.55 149.65 23.3 150.65 20.2 152.4 17.15 154.1 15.7 156.05 14.25 158.05 13.9 159.8 13.5 161.55 13.65 162.7 13.75 163.8 13.8 163.85 11.1 161.65 10.35 158.8 9.6 155.95 10.05 153.2 10.45 150.5 11.1 148.75 11.8 146.95 11.85 146.9 11.8 146.9 10.6 145.6 9.45 144.3 7.7 142.1 5.95 139.9 4.15 137.05 2.4 134.2 1.25 131.05 0.05 127.95 0.0 124.8 0.05 119.0 2.15 114.5 4.2 110.0 7.4 106.85 10.55 103.65 13.95 101.95 17.4 100.2 20.15 100.0 17.4 99.75 13.95 98.0 10.55 96.3 7.4 93.15 4.25 90.0 2.2 85.45 0.15 80.95 0.05 75.2 0.1 72.05 1.3 68.95 2.5 65.8 4.25 62.95 6.0 60.1 7.75 57.9 9.5 55.7 10.7 54.4 11.9 53.1 11.95 53.1 11.85 53.0 11.2 51.25 10.5 49.5 10.1 46.8 9.7 44.1 10.45 41.25 11.15 38.35 13.9 36.15 13.85 36.15 13.7 37.3 13.6 38.45 13.95 40.2 14.35 41.95 15.75 43.95 17.2 45.9 20.3 47.6 23.35 49.35 28.65 50.35 36.2 51.85 40.55 53.55 44.85 55.2 46.65 56.45 48.45 57.65 48.4 57.7 47.5 53.85 45.65 50.5 43.8 47.2 41.75 44.75 39.7 42.3 38.2 40.9 36.75 39.55 36.7 39.5 35.85 41.2 34.75 41.65 33.65 42.05 32.55 41.75 31.5 41.45 30.8 41.0 30.1 40.55 30.1 40.5 26.85 40.5 25.55 39.35 24.25 38.2 24.2 36.65 24.1 35.1 24.45 33.9 24.85 32.7 24.9 32.65 23.75 30.65 23.75 28.85 23.8 27.1 24.2 25.95 24.65 24.85 24.7 24.8 24.7 24.75 25.85 24.35 27.0 23.9 28.75 23.9 30.55 23.9 32.55 25.1 32.6 25.0 33.8 24.65 35.0 24.25 36.55 24.35 38.15 24.4 39.3 25.7 40.45 27.0 40.4 30.25 40.45 30.25 40.9 30.95 41.35 31.65 41.7 32.7 42.0 33.8 41.55 34.9 41.15 36.0 39.45 36.85 39.45 36.95 40.75 38.35 42.05 39.8 44.4 41.85 46.75 43.85 50.0 45.7 53.2 47.55 57.1 48.45 57.0 48.5 55.65 46.65 54.3 44.85 52.45 40.5 50.65 36.1 49.15 28.55 48.15 23.3 46.4 20.2 44.7 17.15 42.75 15.7 40.75 14.25 39.0 13.9 37.25 13.5 36.1 13.65 35.0 13.75 34.95 13.8 37.15 11.1 40.0 10.35 42.85 9.6 45.6 10.05 48.3 10.45 50.05 11.1 51.85 11.8 51.9 11.85 51.9 11.8 53.2 10.6 54.5 9.45 56.7 7.7 58.9 5.95 61.75 4.15 64.6 2.4 67.75 1.25 70.85 0.05 74.0 0.0 79.85 0.1 84.4 2.2 88.95 4.3 92.05 7.6 95.2 10.85 96.85 14.3 98.5 17.75 98.6 20.5 98.75 17.75 100.4 14.3 102.05 10.8 105.15 7.55 108.3 4.3 112.8 2.2 117.35 0.1 123.25 0.0 126.35 0.05 129.5 1.25 132.65 2.4 135.45 4.15 138.3 5.95 140.55 7.7 142.75 9.45 144.05 10.6 145.3 11.8 145.35 11.85 145.4 11.8 147.15 11.1 148.95 10.45 151.65 10.0 154.35 9.6 157.2 10.35 160.05 11.05 162.3 13.8 162.25 13.75 161.1 13.65 160.0 13.5 158.2 13.9 156.45 14.25 154.5 15.7 152.5 17.15 150.8 20.2 149.1 23.25 148.05 28.55 146.55 36.1 144.75 40.5 142.9 44.85 141.55 46.7 140.2 48.5 140.15 48.45 144.05 47.55 147.25 45.7 150.45 43.85 152.85 41.8 155.2 39.8 156.5 38.35 157.8 36.9 157.8 36.85 156.1 36.0 155.65 34.9 155.25 33.8 155.55 32.75 155.85 31.65 156.3 30.95 156.75 30.25 156.8 30.25 156.75 27.0 157.9 25.7 159.1 24.4 160.65 24.35 162.2 24.25 163.4 24.65 164.6 25.05 164.65 25.1 166.65 23.9 168.45 23.9 170.25 23.9 171.35 24.35 172.5 24.75 172.55 24.8 172.6 24.85 173.0 25.95 173.45 27.1 173.45 28.85 173.45 30.65 172.3 32.65 172.35 32.7 172.75 33.9 173.1 35.1 173.05 36.65 172.95 38.2 171.7 39.35 170.4 40.55 167.15 40.5 167.1 40.55 166.4 41.0 165.7 41.45 164.65 41.75 163.6 42.05 162.45 41.65 161.35 41.2 160.5 39.5 160.45 39.55 159.0 40.9 157.55 42.3 155.5 44.75 153.45 47.2 151.55 50.5 149.7 53.8 148.8 57.7 148.75 57.65 150.55 56.45 152.35 55.2 156.7 53.5 161.05 51.85 168.6 50.35 173.85 49.35 176.95 47.6 180.0 45.9 181.45 43.95 182.9 41.95 183.25 40.2 183.6 38.45 183.5 37.3 183.35 36.2 183.3 36.15 186.05 38.35 186.8 41.2 187.5 44.05 187.1 46.8 186.7 49.5 186.05 51.25 185.35 53.05 185.3 53.1 185.35 53.1 186.5 54.4 187.7 55.7 189.45 57.9 191.2 60.1 192.95 62.95 194.75 65.8 195.9 68.95 197.1 72.05 197.15 75.2 197.05 81.0 195.0 85.5 192.95 90.0 189.75 93.15 186.6 96.35 183.2 98.05 179.75 99.8 177.0 100.0" fill="#000000" fill-rule="evenodd" stroke="none"/>
    </g>
  </defs>
</svg>
