<?xml version="1.0" encoding="UTF-8" standalone="no"?>
<svg xmlns:ffdec="https://www.free-decompiler.com/flash" xmlns:xlink="http://www.w3.org/1999/xlink" ffdec:objectType="frame" height="200.0px" width="191.0px" xmlns="http://www.w3.org/2000/svg">
  <g transform="matrix(1.0, 0.0, 0.0, 1.0, 0.0, 0.0)">
    <rect fill="#ffffff" height="200.0px" width="191.0px"/>
    <use ffdec:characterId="1" height="200.0" transform="matrix(1.0, 0.0, 0.0, 1.0, 0.0, 0.0)" width="190.65" xlink:href="#shape0"/>
  </g>
  <defs>
    <g id="shape0" transform="matrix(1.0, 0.0, 0.0, 1.0, 0.0, 0.0)">
      <path d="M105.85 137.15 Q105.85 134.45 106.35 130.05 106.85 125.6 108.1 120.35 109.3 115.1 111.4 109.85 113.5 104.65 116.65 100.3 120.65 94.8 124.85 90.45 129.05 86.05 134.1 82.95 139.15 79.9 145.8 78.25 152.45 76.6 161.4 76.6 167.6 76.65 172.9 79.25 178.2 81.8 182.15 86.25 186.15 90.7 188.4 96.35 190.6 102.0 190.65 108.2 190.6 114.4 188.8 120.5 187.05 126.65 183.95 132.15 180.9 137.65 176.95 141.95 173.05 146.25 168.7 148.85 168.75 139.15 165.85 132.15 163.0 125.15 156.55 121.35 150.1 117.6 139.45 117.55 132.7 117.65 127.5 120.4 122.3 123.2 119.35 127.65 116.45 132.1 116.4 137.15 119.5 137.15 122.35 138.4 125.2 139.65 127.05 142.2 128.9 144.75 128.95 148.55 125.7 146.55 122.65 145.35 119.65 144.2 116.4 144.15 116.4 147.7 117.2 151.45 118.0 155.15 119.75 158.7 121.5 162.25 124.25 165.2 124.85 162.25 125.85 159.9 126.9 157.5 128.5 156.1 130.15 154.7 132.45 154.7 135.3 154.75 137.75 156.55 140.2 158.3 141.7 161.2 143.25 164.15 143.3 167.55 143.3 171.1 141.95 173.95 140.65 176.75 138.15 178.4 135.7 180.1 132.15 180.1 127.7 180.05 123.45 177.45 119.2 174.85 115.65 170.05 112.1 165.2 109.8 158.65 107.5 152.1 107.0 144.15 L101.15 144.15 Q101.15 149.65 101.7 154.0 102.2 158.4 103.5 161.7 104.4 164.1 105.1 166.35 105.8 168.6 105.85 170.75 105.8 172.35 104.85 175.55 103.9 178.8 102.35 182.95 100.8 187.15 98.95 191.55 97.1 196.0 95.3 200.0 93.55 196.0 91.7 191.55 89.85 187.15 88.3 182.95 86.75 178.8 85.8 175.6 84.8 172.35 84.8 170.75 84.85 168.55 85.55 166.35 86.2 164.1 87.15 161.7 88.45 158.4 88.95 154.0 89.5 149.65 89.45 144.15 L83.6 144.15 Q83.15 152.1 80.85 158.65 78.55 165.2 75.0 170.05 71.45 174.85 67.2 177.45 62.9 180.1 58.5 180.1 54.95 180.05 52.5 178.4 50.0 176.75 48.7 173.9 47.4 171.1 47.35 167.55 47.4 164.15 48.95 161.2 50.45 158.3 52.9 156.5 55.35 154.75 58.2 154.7 60.5 154.7 62.15 156.1 63.75 157.5 64.75 159.9 65.8 162.25 66.35 165.2 69.15 162.25 70.9 158.7 72.65 155.15 73.45 151.45 74.3 147.7 74.25 144.15 71.0 144.2 68.0 145.35 64.95 146.55 61.7 148.55 61.75 144.75 63.6 142.2 65.4 139.65 68.3 138.4 71.15 137.15 74.25 137.15 74.2 132.1 71.25 127.65 68.3 123.2 63.15 120.4 57.95 117.65 51.15 117.55 40.55 117.6 34.1 121.35 27.65 125.15 24.75 132.15 21.9 139.15 21.95 148.85 17.65 146.25 13.7 141.95 9.75 137.65 6.7 132.15 3.6 126.65 1.8 120.5 0.05 114.4 0.0 108.2 0.05 102.0 2.25 96.35 4.5 90.7 8.5 86.25 12.45 81.8 17.75 79.25 23.05 76.65 29.25 76.6 38.2 76.6 44.85 78.25 51.5 79.9 56.55 82.95 61.6 86.05 65.8 90.4 70.0 94.8 73.95 100.3 77.1 104.65 79.25 109.85 81.35 115.1 82.55 120.35 83.8 125.6 84.3 130.0 84.8 134.45 84.8 137.15 L89.45 137.15 Q89.4 128.8 87.2 120.55 85.05 112.35 81.6 104.5 78.15 96.65 74.25 89.45 72.45 86.1 70.75 82.35 69.0 78.6 67.85 74.75 66.7 70.95 66.65 67.25 66.75 60.65 69.45 53.45 72.15 46.2 76.6 38.3 79.45 33.1 82.75 26.7 86.1 20.25 89.35 13.35 92.65 6.5 95.3 0.0 98.0 6.5 101.25 13.35 104.55 20.25 107.9 26.7 111.2 33.1 114.05 38.3 118.5 46.2 121.2 53.45 123.9 60.65 124.0 67.25 123.95 70.95 122.8 74.75 121.65 78.6 119.9 82.35 118.15 86.1 116.4 89.45 112.5 96.65 109.05 104.5 105.6 112.35 103.4 120.55 101.25 128.8 101.15 137.15 L105.85 137.15" fill="#000000" fill-rule="evenodd" stroke="none"/>
    </g>
  </defs>
</svg>
