<?xml version="1.0" encoding="UTF-8" standalone="no"?>
<svg xmlns:ffdec="https://www.free-decompiler.com/flash" xmlns:xlink="http://www.w3.org/1999/xlink" ffdec:objectType="frame" height="123.0px" width="200.0px" xmlns="http://www.w3.org/2000/svg">
  <g transform="matrix(1.0, 0.0, 0.0, 1.0, 0.0, 0.0)">
    <rect fill="#ffffff" height="123.0px" width="200.0px"/>
    <use ffdec:characterId="1" height="122.15" transform="matrix(1.0, 0.0, 0.0, 1.0, 0.0, 0.0)" width="200.0" xlink:href="#shape0"/>
  </g>
  <defs>
    <g id="shape0" transform="matrix(1.0, 0.0, 0.0, 1.0, 0.0, 0.0)">
      <path d="M70.65 28.8 Q69.25 28.75 68.35 27.85 67.45 26.95 67.4 25.6 67.45 24.2 68.35 23.3 69.25 22.4 70.65 22.35 71.7 22.4 72.5 22.95 73.3 23.55 73.65 24.45 77.55 23.95 79.85 21.95 82.1 20.0 82.3 17.1 82.5 14.25 80.2 11.1 79.85 11.2 79.45 11.2 78.05 11.15 77.15 10.25 76.25 9.35 76.2 8.0 76.25 6.6 77.15 5.7 78.05 4.8 79.45 4.8 80.8 4.8 81.7 5.7 82.6 6.65 82.65 8.0 82.65 8.85 82.2 9.6 84.15 11.3 86.6 12.2 89.0 13.15 91.45 12.95 93.85 12.75 95.75 11.1 97.6 9.45 98.4 6.0 97.65 5.6 97.2 4.85 96.75 4.15 96.75 3.2 96.75 1.85 97.65 0.95 98.6 0.05 99.95 0.0 101.3 0.05 102.2 0.95 103.1 1.85 103.15 3.2 103.1 5.05 101.55 6.0 102.35 9.45 104.3 11.1 106.25 12.75 108.75 13.0 111.25 13.2 113.75 12.3 116.3 11.4 118.25 9.7 117.85 9.0 117.8 8.1 117.85 6.75 118.75 5.85 119.65 4.95 121.05 4.9 122.4 4.95 123.3 5.85 124.2 6.75 124.25 8.1 124.2 9.5 123.3 10.4 122.4 11.3 121.05 11.35 120.5 11.3 119.95 11.15 117.8 14.3 118.0 17.15 118.2 20.0 120.45 21.95 122.65 23.95 126.55 24.45 126.95 23.65 127.7 23.15 128.45 22.65 129.45 22.65 130.8 22.65 131.7 23.55 132.6 24.5 132.65 25.85 132.6 27.2 131.7 28.1 130.8 29.0 129.45 29.05 128.3 29.05 127.5 28.4 126.65 27.75 126.35 26.75 123.8 26.8 121.75 27.1 119.7 27.4 118.5 27.7 117.25 27.95 117.25 28.0 117.25 27.95 116.75 26.75 116.25 25.55 115.1 23.8 113.95 22.05 112.0 20.3 110.0 18.55 107.1 17.4 104.15 16.2 100.1 16.15 96.25 16.2 93.35 17.35 90.5 18.55 88.5 20.3 86.5 22.05 85.25 23.8 84.05 25.55 83.5 26.75 82.95 27.95 82.95 28.0 82.9 27.95 81.65 27.7 80.4 27.4 78.3 27.1 76.2 26.8 73.65 26.75 73.25 27.65 72.5 28.2 71.7 28.8 70.65 28.8 M115.35 29.0 Q113.4 29.95 111.8 31.0 110.2 32.1 109.05 33.6 107.9 35.15 107.35 37.45 106.4 41.7 107.1 45.05 107.75 48.4 109.25 51.1 110.75 53.75 112.2 55.95 113.7 58.1 114.35 59.95 114.7 60.7 114.7 61.45 114.65 63.4 112.75 64.9 110.8 66.45 107.55 67.35 104.3 68.25 100.25 68.3 96.2 68.25 92.95 67.35 89.65 66.45 87.75 64.9 85.8 63.35 85.75 61.45 85.75 61.1 85.85 60.75 86.25 58.85 87.75 56.6 89.2 54.4 90.85 51.65 92.45 48.9 93.25 45.4 94.0 41.9 93.05 37.45 92.45 35.1 91.35 33.6 90.2 32.1 88.6 31.0 87.0 29.95 85.05 29.0 85.0 28.95 85.75 27.35 86.45 25.8 88.2 23.7 89.9 21.6 92.85 20.0 95.8 18.4 100.2 18.25 104.6 18.4 107.55 20.0 110.5 21.6 112.2 23.7 113.9 25.8 114.65 27.35 115.35 28.95 115.35 29.0 M100.15 18.25 L100.25 18.25 Q100.2 18.25 100.2 18.25 100.15 18.25 100.15 18.25 M199.95 37.55 Q200.0 37.6 200.0 38.5 199.95 39.45 199.25 40.8 198.6 42.15 196.7 43.45 194.8 44.75 191.15 45.5 187.45 46.25 181.45 46.0 182.05 46.25 183.4 46.6 184.7 46.95 186.25 47.15 187.75 47.35 188.95 47.3 185.4 50.2 181.55 51.3 177.65 52.35 174.0 52.15 170.4 51.9 167.65 50.8 164.85 49.7 163.55 48.25 164.35 49.7 166.2 50.9 168.1 52.1 170.6 52.9 173.1 53.7 175.7 54.0 178.3 54.25 180.45 53.8 180.95 53.8 179.65 55.15 178.35 56.5 175.0 58.25 171.6 60.0 165.8 61.05 159.95 62.1 151.35 61.45 146.75 61.2 143.35 62.75 139.95 64.35 137.55 66.7 135.2 69.1 133.75 71.3 132.35 73.45 131.75 74.35 131.2 75.25 131.35 73.85 131.55 72.45 132.4 67.7 133.25 62.4 132.1 58.5 130.9 54.6 128.55 51.75 126.2 48.95 123.5 46.9 120.8 44.85 118.6 43.25 116.45 41.65 115.6 40.15 116.0 41.7 117.65 43.45 119.35 45.15 121.65 47.15 123.95 49.1 126.2 51.4 128.4 53.7 129.9 56.4 131.4 59.1 131.45 62.3 131.35 67.4 129.1 70.6 126.8 73.85 123.45 75.75 120.1 77.65 116.75 78.8 113.4 79.95 111.1 80.85 108.85 81.75 108.75 83.0 108.8 84.55 110.05 85.2 111.25 85.9 112.85 86.25 114.5 86.6 115.7 87.2 116.95 87.8 117.0 89.25 116.95 90.7 116.05 91.4 115.15 92.15 114.0 92.65 112.85 93.15 111.95 93.9 111.05 94.7 111.0 96.25 111.05 96.25 112.1 96.5 113.1 96.8 114.45 97.45 115.8 98.05 116.85 99.2 117.85 100.3 117.9 102.0 117.85 104.05 116.1 104.9 114.3 105.8 112.0 106.2 109.65 106.6 107.85 107.25 106.05 107.85 105.85 109.35 105.65 110.9 108.2 113.95 L108.1 113.95 Q109.1 115.1 109.15 116.5 109.1 118.1 107.85 119.35 106.6 120.65 104.55 121.4 102.45 122.15 99.85 122.15 97.25 122.15 95.2 121.4 93.1 120.65 91.85 119.35 90.6 118.1 90.6 116.5 90.65 114.65 92.25 113.25 94.35 110.45 94.0 109.1 93.6 107.7 91.8 107.15 89.95 106.55 87.7 106.15 85.45 105.75 83.75 104.85 82.1 104.0 82.0 102.0 82.05 100.3 83.05 99.2 84.1 98.1 85.45 97.45 86.8 96.8 87.8 96.5 88.85 96.25 88.9 96.25 88.85 94.7 87.95 93.9 87.05 93.15 85.9 92.65 84.75 92.15 83.85 91.4 82.95 90.7 82.9 89.25 83.0 87.8 84.2 87.2 85.45 86.6 87.05 86.25 88.65 85.9 89.85 85.2 91.1 84.55 91.15 83.0 91.05 81.75 88.8 80.85 86.5 79.95 83.15 78.8 79.8 77.65 76.45 75.75 73.1 73.85 70.8 70.6 68.55 67.4 68.45 62.3 68.5 59.15 69.95 56.5 71.35 53.85 73.55 51.6 75.7 49.35 77.95 47.4 80.25 45.45 81.95 43.75 83.65 42.05 84.2 40.5 83.2 41.95 81.0 43.55 78.8 45.15 76.15 47.2 73.5 49.2 71.25 52.0 68.95 54.8 67.85 58.65 66.75 62.5 67.6 67.7 68.45 72.45 68.6 73.85 68.8 75.25 68.25 74.35 67.65 73.45 66.25 71.3 64.8 69.1 62.45 66.7 60.05 64.3 56.65 62.75 53.2 61.15 48.65 61.45 40.05 62.1 34.2 61.05 28.4 60.0 25.0 58.25 21.65 56.55 20.35 55.15 19.05 53.8 19.55 53.8 21.7 54.25 24.3 54.0 26.9 53.7 29.4 52.9 31.9 52.1 33.8 50.9 35.7 49.7 36.45 48.25 35.15 49.7 32.35 50.8 29.6 51.9 26.0 52.15 22.35 52.35 18.45 51.3 14.6 50.2 11.05 47.3 12.25 47.35 13.75 47.15 15.3 46.95 16.6 46.6 17.95 46.25 18.55 46.0 12.5 46.25 8.85 45.5 5.2 44.75 3.3 43.45 1.4 42.15 0.75 40.8 0.05 39.45 0.05 38.55 0.0 37.6 0.05 37.55 7.2 39.3 14.1 39.5 20.95 39.75 26.85 39.0 32.75 38.2 37.05 36.9 46.05 34.25 52.55 32.95 59.1 31.65 64.15 31.2 69.2 30.8 73.85 30.8 73.85 30.8 73.85 30.8 73.9 30.75 75.6 30.85 77.3 30.9 79.85 31.3 82.35 31.75 84.85 32.75 87.4 33.75 89.1 35.6 90.8 37.5 90.85 40.45 90.8 44.2 89.2 46.95 87.6 49.65 85.5 51.95 83.35 54.25 81.8 56.85 80.2 59.4 80.1 62.85 80.15 66.35 82.25 68.6 84.3 70.8 87.45 72.05 90.6 73.25 93.95 73.75 97.3 74.2 99.95 74.2 102.6 74.25 105.95 73.75 109.3 73.25 112.45 72.05 115.6 70.8 117.65 68.6 119.75 66.35 119.8 62.85 119.75 59.4 118.15 56.85 116.55 54.25 114.45 51.95 112.3 49.65 110.7 46.95 109.15 44.2 109.05 40.45 109.1 37.45 110.8 35.6 112.5 33.75 115.05 32.75 117.55 31.75 120.05 31.3 122.6 30.9 124.3 30.85 126.0 30.75 126.05 30.8 130.7 30.8 135.8 31.2 140.85 31.6 147.4 32.95 153.9 34.25 162.95 36.9 167.25 38.2 173.15 39.0 179.05 39.75 185.9 39.55 192.8 39.3 199.95 37.55" fill="#000000" fill-rule="evenodd" stroke="none"/>
    </g>
  </defs>
</svg>
