<?xml version="1.0" encoding="UTF-8" standalone="no"?>
<svg xmlns:ffdec="https://www.free-decompiler.com/flash" xmlns:xlink="http://www.w3.org/1999/xlink" ffdec:objectType="frame" height="200.0px" width="200.0px" xmlns="http://www.w3.org/2000/svg">
  <g transform="matrix(1.0, 0.0, 0.0, 1.0, 0.0, 0.0)">
    <rect fill="#ffffff" height="200.0px" width="200.0px"/>
    <use ffdec:characterId="1" height="200.0" transform="matrix(1.0, 0.0, 0.0, 1.0, 0.0, 0.0)" width="200.0" xlink:href="#shape0"/>
  </g>
  <defs>
    <g id="shape0" transform="matrix(1.0, 0.0, 0.0, 1.0, 0.0, 0.0)">
      <path d="M191.75 143.25 Q190.35 132.9 186.3 123.15 182.25 113.35 175.95 105.1 169.65 96.8 161.45 91.1 153.25 85.35 143.55 83.1 133.9 80.85 123.1 83.1 133.35 86.45 140.85 92.95 148.4 99.5 153.3 108.3 158.2 117.15 160.6 127.25 162.95 137.4 162.95 147.95 162.95 158.5 160.65 168.5 158.35 178.5 153.85 187.0 157.1 179.8 158.9 171.1 160.7 162.4 160.8 153.15 160.85 143.9 158.95 135.05 157.1 126.2 152.9 118.7 148.7 111.2 142.0 105.95 135.25 100.75 125.65 98.7 133.3 106.55 136.75 115.95 140.15 125.3 140.0 135.35 139.8 145.4 136.55 155.2 133.3 165.0 127.55 173.75 121.8 182.45 114.15 189.25 106.45 196.05 97.45 200.0 106.75 195.25 114.15 187.8 121.55 180.4 126.4 171.15 131.25 161.9 132.9 151.75 134.5 141.6 132.25 131.35 129.95 121.1 123.1 111.7 124.3 122.75 121.85 132.4 119.35 142.1 113.95 150.15 108.55 158.25 100.95 164.6 93.35 170.95 84.35 175.35 75.3 179.8 65.55 182.1 55.85 184.4 46.15 184.4 53.9 183.75 62.3 181.6 70.65 179.4 78.75 175.65 86.8 171.9 93.6 166.55 100.4 161.2 105.05 154.2 109.65 147.2 111.2 138.55 112.75 129.85 110.25 119.5 106.35 129.85 99.65 137.1 92.95 144.3 84.35 148.55 75.7 152.8 66.0 154.2 56.35 155.65 46.45 154.5 36.55 153.35 27.3 149.7 18.0 146.1 10.25 140.25 17.35 144.8 25.6 147.55 33.85 150.3 42.55 151.05 51.2 151.75 59.6 150.3 68.0 148.9 75.4 145.05 82.8 141.25 88.5 134.9 94.15 128.55 97.45 119.5 89.05 127.2 79.9 130.15 70.75 133.1 61.35 132.1 51.95 131.1 42.95 126.95 33.95 122.8 25.85 116.4 17.75 110.0 11.15 102.1 4.55 94.25 0.0 85.7 4.5 92.9 10.55 99.55 16.6 106.2 23.75 111.6 30.9 117.0 38.8 120.45 46.65 123.9 54.9 124.75 63.1 125.6 71.3 123.15 79.45 120.7 87.2 114.3 76.25 115.55 66.75 112.85 57.25 110.15 49.5 104.4 41.7 98.6 35.9 90.6 30.1 82.55 26.6 73.1 23.1 63.65 22.15 53.6 21.2 43.6 23.1 33.75 21.85 42.25 23.0 50.85 24.15 59.45 27.45 67.55 30.75 75.6 35.9 82.45 41.05 89.35 47.75 94.35 54.5 99.4 62.5 101.95 70.5 104.5 79.5 103.9 69.9 98.65 63.6 91.15 57.3 83.65 54.05 74.65 50.8 65.65 50.3 55.85 49.85 46.05 51.95 36.15 54.05 26.3 58.4 17.1 62.8 7.85 69.25 0.0 63.8 7.9 59.95 17.4 56.1 26.95 54.6 37.05 53.1 47.2 54.65 56.85 56.2 66.5 61.6 74.65 67.0 82.75 76.9 88.3 72.35 76.55 72.4 65.15 72.4 53.75 76.35 43.4 80.3 33.0 87.45 24.35 94.6 15.7 104.35 9.45 114.05 3.15 125.65 0.0 118.55 2.0 111.6 6.3 104.6 10.6 98.6 16.65 92.55 22.7 88.15 29.85 83.75 37.05 81.75 44.85 79.8 52.6 80.95 60.35 82.1 68.15 87.2 75.3 87.9 64.95 92.2 56.9 96.55 48.85 103.5 43.0 110.5 37.15 119.25 33.45 127.95 29.7 137.5 28.0 147.05 26.25 156.5 26.45 165.95 26.6 174.35 28.55 165.05 27.0 155.3 27.4 145.55 27.8 136.35 30.5 127.2 33.15 119.55 38.3 111.9 43.45 106.75 51.35 101.6 59.25 100.0 70.15 107.1 62.4 115.8 58.15 124.45 53.9 133.9 52.8 143.35 51.75 152.9 53.55 162.4 55.4 171.25 59.75 180.05 64.1 187.45 70.65 194.8 77.25 200.0 85.7 195.45 78.55 188.9 73.2 182.35 67.85 174.55 64.45 166.75 61.05 158.35 59.75 149.95 58.45 141.7 59.35 133.45 60.3 126.05 63.6 118.65 66.9 112.8 72.75 125.4 70.85 137.05 73.5 148.7 76.1 158.6 82.6 168.55 89.1 175.8 98.8 183.1 108.45 186.95 120.65 188.8 127.2 189.9 132.3 190.95 137.35 191.35 140.25 191.8 143.15 191.75 143.25" fill="#000000" fill-rule="evenodd" stroke="none"/>
    </g>
  </defs>
</svg>
