<?xml version="1.0" encoding="UTF-8" standalone="no"?>
<svg xmlns:ffdec="https://www.free-decompiler.com/flash" xmlns:xlink="http://www.w3.org/1999/xlink" ffdec:objectType="frame" height="200.0px" width="175.0px" xmlns="http://www.w3.org/2000/svg">
  <g transform="matrix(1.0, 0.0, 0.0, 1.0, 0.0, 0.0)">
    <rect fill="#ffffff" height="200.0px" width="175.0px"/>
    <use ffdec:characterId="1" height="200.0" transform="matrix(1.0, 0.0, 0.0, 1.0, 0.0, 0.0)" width="174.4" xlink:href="#shape0"/>
  </g>
  <defs>
    <g id="shape0" transform="matrix(1.0, 0.0, 0.0, 1.0, 0.0, 0.0)">
      <path d="M58.1 51.6 Q59.7 50.6 59.25 49.55 58.85 48.55 57.1 47.25 55.35 45.95 52.95 44.15 50.55 42.35 48.3 39.85 46.0 37.35 44.5 33.95 43.45 31.0 43.9 29.65 44.35 28.3 45.55 28.2 46.8 28.1 47.95 28.9 47.9 28.95 47.95 30.45 47.95 31.95 48.4 34.25 48.9 36.55 50.2 38.9 51.5 41.3 54.05 43.1 56.65 44.95 60.85 45.5 65.05 46.1 71.3 44.75 74.3 44.1 76.55 43.2 78.75 42.3 79.75 41.15 80.7 40.0 79.95 38.65 79.15 37.3 76.15 35.7 75.85 35.65 74.05 34.45 72.3 33.3 70.2 30.65 68.1 28.0 66.7 23.55 65.35 19.05 65.8 12.4 65.9 10.35 65.15 8.9 64.4 7.45 63.3 6.5 62.25 5.5 61.4 4.8 60.55 4.1 60.5 3.55 60.5 2.35 60.8 1.25 61.15 0.2 62.05 0.05 63.75 -0.15 65.95 0.35 68.15 0.85 70.2 2.0 72.3 3.2 73.7 5.1 75.1 7.0 75.25 9.75 75.25 11.95 74.25 14.45 73.3 17.0 72.4 19.7 71.55 22.45 71.8 25.2 72.05 27.95 74.55 30.55 77.0 33.15 82.75 35.5 83.95 35.9 85.0 34.85 86.1 33.8 86.55 32.05 87.0 30.25 86.25 28.45 85.35 26.45 84.2 25.25 83.05 24.1 81.95 23.05 80.9 22.05 80.25 20.4 79.6 18.8 79.65 15.9 79.8 13.2 80.85 11.65 81.9 10.15 83.35 9.0 84.75 7.9 85.95 6.4 87.2 4.95 87.6 2.35 87.7 1.8 87.85 2.35 88.25 4.9 89.5 6.4 90.7 7.85 92.1 9.0 93.55 10.15 94.6 11.65 95.7 13.2 95.8 15.9 95.9 18.8 95.2 20.4 94.55 22.05 93.5 23.05 92.45 24.1 91.3 25.25 90.15 26.45 89.2 28.45 88.5 30.25 88.95 32.05 89.4 33.8 90.45 34.85 91.55 35.9 92.75 35.5 98.45 33.15 100.95 30.55 103.4 27.95 103.7 25.2 103.95 22.45 103.05 19.75 102.2 17.0 101.2 14.45 100.25 11.95 100.2 9.75 100.35 7.0 101.75 5.1 103.15 3.15 105.25 2.0 107.35 0.85 109.55 0.35 111.75 -0.1 113.45 0.05 114.35 0.2 114.65 1.25 115.0 2.35 115.0 3.55 114.95 4.15 114.1 4.8 113.25 5.5 112.15 6.5 111.1 7.45 110.35 8.9 109.6 10.35 109.7 12.4 110.15 19.05 108.75 23.55 107.4 28.0 105.25 30.65 103.15 33.3 101.4 34.45 99.65 35.6 99.35 35.7 96.35 37.3 95.55 38.65 94.75 40.0 95.75 41.15 96.7 42.3 98.95 43.2 101.2 44.1 104.2 44.75 110.45 46.1 114.65 45.5 118.85 44.95 121.4 43.1 123.95 41.3 125.3 38.9 126.6 36.55 127.05 34.25 127.55 31.95 127.55 30.45 127.6 28.95 127.55 28.9 128.7 28.1 129.9 28.2 131.1 28.3 131.6 29.65 132.05 31.0 130.95 33.95 129.5 37.35 127.2 39.85 124.9 42.35 122.55 44.15 120.15 45.95 118.4 47.25 116.65 48.55 116.2 49.55 115.8 50.6 117.4 51.6 111.3 56.5 107.15 59.55 103.0 62.6 100.1 62.95 97.15 63.3 94.65 60.2 92.6 57.85 90.6 56.9 88.65 55.95 87.75 55.8 86.85 55.95 84.85 56.9 82.9 57.85 80.85 60.2 78.35 63.3 75.4 62.95 72.45 62.6 68.3 59.55 64.2 56.5 58.1 51.6 M64.9 138.4 Q64.9 139.35 64.25 140.0 63.6 140.6 62.65 140.65 61.75 140.6 61.1 140.0 60.45 139.35 60.45 138.4 60.45 137.45 61.1 136.8 61.7 136.2 62.65 136.15 63.6 136.2 64.25 136.8 64.9 137.45 64.9 138.4 M109.5 138.4 Q109.5 137.45 110.15 136.8 110.8 136.2 111.75 136.15 112.7 136.2 113.3 136.8 113.95 137.45 113.95 138.4 113.95 139.35 113.3 140.0 112.7 140.6 111.75 140.65 110.8 140.6 110.15 140.0 109.5 139.35 109.5 138.4 M133.25 110.85 Q137.05 109.1 139.95 108.6 142.85 108.15 145.25 108.35 147.7 108.5 150.1 108.65 152.5 108.8 155.3 108.35 158.1 107.85 161.75 106.05 157.4 106.7 154.15 106.65 150.85 106.65 149.05 106.35 147.25 106.1 147.2 106.05 147.25 106.15 149.45 104.4 151.6 102.7 154.9 98.3 158.2 93.85 161.75 85.85 165.3 77.8 168.2 65.25 168.2 65.3 167.5 67.65 166.75 69.95 165.15 73.9 163.55 77.85 160.9 82.7 158.2 87.55 154.35 92.7 150.5 97.8 145.25 102.5 140.0 107.25 133.25 110.85 M12.65 106.05 Q16.3 107.85 19.1 108.35 21.9 108.8 24.3 108.65 26.7 108.5 29.15 108.35 31.55 108.15 34.45 108.65 37.35 109.1 41.15 110.85 34.4 107.2 29.15 102.5 23.95 97.8 20.05 92.7 16.2 87.55 13.5 82.7 10.85 77.85 9.25 73.9 7.65 69.95 6.9 67.65 6.2 65.3 6.2 65.25 9.1 77.8 12.65 85.8 16.2 93.85 19.5 98.3 22.8 102.7 24.95 104.4 27.15 106.15 27.2 106.05 27.2 106.1 25.35 106.35 23.55 106.65 20.25 106.65 17.0 106.7 12.65 106.05 M156.05 102.7 Q159.25 103.4 162.15 103.2 165.1 102.95 167.45 102.3 169.8 101.65 171.2 101.05 172.55 100.45 172.6 100.4 172.6 100.45 171.85 101.8 171.15 103.15 169.7 105.2 168.25 107.2 166.05 109.3 163.85 111.35 160.85 112.85 157.8 114.35 154.0 114.6 150.85 114.7 147.75 114.4 144.65 114.15 141.45 114.0 138.2 113.85 134.75 114.45 131.25 115.0 127.4 116.85 123.6 118.75 119.25 122.45 117.8 123.7 116.55 124.8 122.95 120.9 129.4 119.5 135.8 118.1 141.35 119.6 146.95 121.1 150.9 126.05 152.8 128.5 154.35 132.85 155.85 137.25 156.2 142.45 156.5 147.65 154.85 152.65 153.15 157.7 148.65 161.45 144.15 165.25 136.05 166.75 131.7 167.2 129.3 166.0 126.85 164.75 125.8 162.9 124.75 161.0 124.55 159.4 124.35 157.8 124.4 157.5 124.55 155.5 125.7 153.35 126.85 151.2 128.45 149.6 130.05 148.05 131.6 147.85 133.1 147.65 134.05 149.55 135.7 153.3 135.4 155.0 135.15 156.75 133.75 157.3 132.4 157.9 130.85 158.15 129.3 158.45 128.4 159.2 127.5 160.0 128.15 162.2 128.15 162.3 129.3 163.05 130.4 163.8 132.3 164.45 134.2 165.05 136.55 164.75 138.9 164.45 141.4 162.4 144.95 159.35 146.0 157.15 147.0 154.95 146.2 153.3 145.45 151.65 143.5 150.25 141.55 148.8 139.15 147.3 136.8 145.8 134.65 143.85 133.9 143.05 133.6 141.0 133.3 139.0 133.05 136.5 132.8 133.95 132.1 131.55 131.45 129.2 129.95 127.65 128.45 126.1 125.7 126.05 122.9 126.05 118.45 128.2 116.6 129.1 114.9 130.2 113.15 131.3 111.1 132.8 109.05 134.3 106.25 136.5 107.5 137.55 107.55 139.25 107.55 139.85 107.35 140.4 109.1 141.05 110.2 142.5 111.3 144.0 111.35 145.95 111.3 147.55 110.55 148.85 109.8 150.15 108.5 150.95 112.25 152.7 115.55 155.75 118.85 158.8 121.0 163.35 123.1 167.85 123.4 174.1 123.5 180.15 121.6 184.55 119.65 188.95 116.65 191.95 113.7 194.95 110.65 196.7 107.6 198.5 105.55 199.25 103.5 200.0 103.4 200.0 103.45 200.0 104.85 198.8 106.2 197.6 108.1 195.3 110.0 193.05 111.7 189.8 113.35 186.55 114.05 182.45 114.75 178.35 113.7 173.5 112.4 168.45 110.15 165.95 107.85 163.45 105.6 162.95 103.3 162.45 102.1 163.3 100.85 164.2 101.65 165.8 102.0 166.45 101.95 166.65 103.45 168.7 104.3 171.15 105.15 173.6 105.15 176.3 105.1 181.05 102.7 184.85 100.3 188.7 96.25 190.95 92.15 193.2 87.1 193.25 82.1 193.2 78.0 190.95 73.95 188.7 71.55 184.85 69.1 181.05 69.05 176.3 69.1 173.55 70.0 171.05 70.85 168.55 72.5 166.45 72.55 166.2 72.75 165.8 73.6 164.2 72.35 163.3 71.1 162.45 68.8 162.95 66.55 163.45 64.25 165.95 61.95 168.45 60.7 173.5 59.65 178.35 60.35 182.45 61.05 186.55 62.7 189.8 64.4 193.05 66.3 195.3 68.2 197.6 69.55 198.8 70.95 200.0 71.0 200.0 70.9 200.0 68.85 199.25 66.8 198.5 63.75 196.7 60.7 194.95 57.75 191.95 54.75 188.95 52.8 184.55 50.85 180.15 51.0 174.1 51.3 167.85 53.4 163.35 55.55 158.8 58.85 155.75 62.1 152.7 65.9 150.95 64.6 150.15 63.85 148.85 63.1 147.55 63.1 145.95 63.1 144.0 64.2 142.5 65.3 141.05 67.05 140.4 66.85 139.85 66.85 139.25 66.9 137.55 68.15 136.5 65.35 134.3 63.3 132.8 61.25 131.3 59.5 130.2 57.8 129.1 55.95 128.2 51.5 126.05 48.75 126.05 45.95 126.1 44.45 127.65 42.95 129.2 42.3 131.55 41.6 133.95 41.35 136.5 41.1 139.0 40.8 141.05 40.5 143.05 39.75 143.85 37.6 145.75 35.25 147.3 32.85 148.8 30.9 150.25 28.95 151.65 28.2 153.3 27.4 154.95 28.4 157.15 29.45 159.35 33.0 162.4 35.5 164.45 37.9 164.75 40.25 165.05 42.1 164.45 44.0 163.8 45.1 163.05 46.25 162.3 46.25 162.2 46.9 160.05 46.0 159.25 45.1 158.45 43.55 158.15 42.0 157.9 40.65 157.3 39.25 156.75 39.0 155.0 38.7 153.3 40.35 149.55 41.25 147.65 42.8 147.85 44.35 148.05 45.95 149.6 47.55 151.2 48.7 153.35 49.85 155.5 50.05 157.5 50.1 157.8 49.85 159.4 49.65 161.0 48.6 162.85 47.55 164.75 45.1 166.0 42.7 167.2 38.35 166.75 30.25 165.25 25.75 161.5 21.25 157.7 19.55 152.65 17.9 147.65 18.2 142.45 18.55 137.25 20.1 132.9 21.6 128.5 23.55 126.05 27.45 121.1 33.05 119.6 38.6 118.1 45.0 119.5 51.45 120.9 57.85 124.8 56.6 123.7 55.15 122.45 50.85 118.75 47.0 116.85 43.15 115.0 39.65 114.45 36.2 113.85 32.95 114.0 29.75 114.15 26.65 114.45 23.5 114.7 20.4 114.6 16.6 114.3 13.6 112.85 10.55 111.35 8.35 109.3 6.15 107.2 4.7 105.2 3.25 103.15 2.55 101.8 1.85 100.45 1.85 100.4 1.85 100.45 3.25 101.05 4.6 101.65 6.95 102.3 9.3 102.95 12.25 103.2 15.2 103.4 18.35 102.7 17.35 102.85 15.05 102.55 12.75 102.25 9.85 101.2 7.0 100.2 4.35 98.15 1.7 96.1 0.0 92.7 2.15 93.35 3.75 93.3 5.35 93.25 6.2 92.95 7.05 92.65 6.9 92.5 6.85 92.5 5.8 91.1 4.7 89.7 3.35 87.05 2.0 84.4 1.15 80.6 0.25 76.75 0.6 71.9 0.9 67.0 3.2 61.2 5.45 55.4 10.4 48.75 8.75 53.6 9.3 57.45 9.9 61.25 12.0 64.35 14.05 67.5 16.85 70.2 19.7 72.95 22.45 75.65 25.25 78.35 27.25 81.3 29.2 84.25 29.65 87.8 30.3 86.3 31.15 85.15 32.0 84.0 32.65 83.4 33.25 82.75 33.3 82.75 33.35 82.75 34.3 84.0 35.2 85.3 36.1 87.7 36.95 90.15 36.95 93.65 36.9 95.35 37.05 97.7 37.25 100.1 37.9 102.3 38.5 104.55 39.75 105.75 44.9 111.0 50.3 115.8 55.7 120.55 62.25 125.85 68.8 131.2 77.2 138.0 79.6 139.95 81.15 140.1 82.65 140.25 83.5 139.45 84.3 138.65 84.6 137.8 84.9 136.95 84.9 136.9 84.85 135.65 82.7 133.9 80.55 132.2 77.2 129.95 73.8 127.65 70.0 124.7 66.2 121.75 62.8 117.95 59.45 114.2 57.3 109.45 55.15 104.75 55.1 98.95 55.15 93.2 56.35 89.0 57.55 84.75 59.15 81.55 60.8 78.35 62.1 75.65 63.45 73.0 63.75 70.35 64.05 67.7 62.65 64.55 61.2 61.45 57.3 57.35 59.3 59.05 62.0 61.0 64.75 62.9 67.25 66.0 69.75 69.1 71.05 74.35 72.4 79.55 71.65 87.9 70.75 97.45 71.75 104.5 72.75 111.6 75.0 116.4 77.25 121.25 80.15 124.0 77.6 119.65 76.15 112.9 74.65 106.1 74.65 97.85 74.7 92.6 75.95 87.85 77.2 83.1 79.05 79.15 80.9 75.2 82.75 72.3 84.6 69.4 85.85 67.8 87.1 66.2 87.15 66.2 87.2 66.2 88.45 67.8 89.7 69.4 91.55 72.3 93.45 75.2 95.3 79.15 97.15 83.1 98.4 87.85 99.65 92.6 99.7 97.85 99.65 106.2 98.15 113.0 96.65 119.85 94.1 124.2 97.05 121.45 99.35 116.6 101.6 111.75 102.65 104.65 103.65 97.5 102.75 87.9 102.0 79.55 103.35 74.35 104.65 69.1 107.15 66.0 109.65 62.9 112.4 61.0 115.1 59.05 117.1 57.35 113.2 61.45 111.8 64.55 110.35 67.7 110.65 70.35 110.95 73.0 112.3 75.65 113.6 78.35 115.2 81.55 116.85 84.75 118.05 88.95 119.25 93.2 119.3 98.95 119.25 104.75 117.1 109.5 114.95 114.2 111.6 117.95 108.2 121.75 104.4 124.7 100.6 127.65 97.25 129.95 93.85 132.2 91.7 133.9 89.55 135.6 89.5 136.9 89.45 137.0 89.8 137.8 90.1 138.65 90.9 139.45 91.75 140.25 93.25 140.1 94.8 139.95 97.2 138.0 105.65 131.2 112.15 125.85 118.7 120.55 124.1 115.8 129.55 111.0 134.65 105.75 135.9 104.55 136.5 102.3 137.15 100.1 137.3 97.7 137.5 95.3 137.45 93.65 137.45 90.15 138.3 87.7 139.2 85.3 140.1 84.0 141.05 82.75 141.1 82.75 141.15 82.75 141.75 83.4 142.4 84.0 143.25 85.15 144.1 86.3 144.75 87.8 145.2 84.25 147.2 81.3 149.15 78.35 151.95 75.65 154.7 72.95 157.55 70.2 160.35 67.5 162.4 64.35 164.5 61.25 165.1 57.4 165.65 53.6 164.0 48.75 168.95 55.4 171.2 61.2 173.5 67.05 173.8 71.9 174.15 76.75 173.25 80.6 172.4 84.4 171.05 87.05 169.7 89.7 168.65 91.1 167.55 92.5 167.5 92.5 167.35 92.65 168.2 92.95 169.05 93.25 170.65 93.3 172.25 93.35 174.4 92.7 172.7 96.1 170.05 98.15 167.4 100.2 164.55 101.2 161.65 102.25 159.35 102.55 157.05 102.8 156.05 102.7" fill="#000000" fill-rule="evenodd" stroke="none"/>
    </g>
  </defs>
</svg>
