<?xml version="1.0" encoding="UTF-8" standalone="no"?>
<svg xmlns:ffdec="https://www.free-decompiler.com/flash" xmlns:xlink="http://www.w3.org/1999/xlink" ffdec:objectType="frame" height="193.0px" width="193.0px" xmlns="http://www.w3.org/2000/svg">
  <g transform="matrix(1.0, 0.0, 0.0, 1.0, 0.0, 0.0)">
    <rect fill="#ffffff" height="193.0px" width="193.0px"/>
    <use ffdec:characterId="1" height="192.0" transform="matrix(1.0, 0.0, 0.0, 1.0, 0.0, 0.0)" width="192.0" xlink:href="#shape0"/>
  </g>
  <defs>
    <g id="shape0" transform="matrix(1.0, 0.0, 0.0, 1.0, 0.0, 0.0)">
      <path d="M185.5 93.95 Q183.05 93.85 180.2 91.65 177.35 89.4 174.2 85.9 171.05 82.4 167.7 78.45 164.3 74.5 160.85 71.05 157.35 67.55 153.85 65.4 150.3 63.25 146.85 63.3 144.0 63.4 142.0 64.35 140.0 65.3 138.5 67.05 136.95 68.75 135.4 71.05 132.8 67.1 129.45 63.7 129.4 63.6 129.3 63.5 129.25 63.5 129.2 63.45 125.8 60.05 121.75 57.45 124.1 55.9 125.8 54.35 127.5 52.8 128.45 50.8 129.45 48.85 129.55 46.0 129.6 42.55 127.45 39.0 125.25 35.5 121.8 32.0 118.3 28.5 114.4 25.15 110.45 21.8 106.95 18.65 103.4 15.5 101.2 12.65 98.95 9.8 98.9 7.35 98.8 2.45 97.75 0.8 96.65 -0.8 95.6 0.8 94.55 2.45 94.45 7.35 94.4 9.8 92.15 12.65 89.9 15.5 86.4 18.65 82.9 21.8 78.95 25.15 75.0 28.5 71.55 32.0 68.05 35.5 65.9 39.0 63.75 42.55 63.8 46.0 63.9 48.8 64.85 50.75 65.75 52.7 67.4 54.25 69.05 55.75 71.3 57.25 62.8 62.8 57.25 71.35 55.75 69.1 54.25 67.4 52.7 65.75 50.75 64.85 48.8 63.9 45.95 63.8 42.5 63.75 39.0 65.9 35.5 68.05 32.0 71.55 28.5 75.0 25.15 78.95 21.8 82.9 18.65 86.4 15.5 89.9 12.65 92.15 9.8 94.35 7.35 94.45 2.45 94.55 0.8 95.6 -0.8 96.65 0.8 97.75 2.45 98.8 7.35 98.9 9.8 98.95 12.65 101.2 15.5 103.4 18.65 106.95 21.8 110.45 25.15 114.4 28.5 118.3 32.0 121.8 35.5 125.25 39.0 127.4 42.5 129.55 45.95 129.55 48.8 129.45 50.8 128.45 52.8 127.5 54.35 125.8 55.9 124.1 57.45 121.75 60.05 125.75 63.35 129.1 63.45 129.2 63.5 129.3 L63.55 129.3 Q63.6 129.35 63.65 129.4 67.05 132.75 71.05 135.4 68.75 136.95 67.05 138.45 65.35 140.0 64.35 142.0 63.4 144.0 63.3 146.85 63.25 150.3 65.4 153.8 67.55 157.35 71.05 160.8 74.55 164.3 78.45 167.65 82.4 171.05 85.9 174.2 89.4 177.35 91.65 180.2 93.9 183.05 93.95 185.5 94.05 190.4 95.1 192.0 96.15 193.65 97.25 192.0 98.3 190.4 98.4 185.5 98.45 183.05 100.7 180.2 102.95 177.35 106.45 174.2 109.95 171.05 113.9 167.65 117.8 164.3 121.3 160.8 124.75 157.3 126.95 153.8 129.1 150.3 129.05 146.85 128.95 144.05 128.0 142.05 127.1 140.1 125.4 138.55 123.75 137.05 121.5 135.55 130.05 130.05 135.55 121.5 137.05 123.75 138.6 125.4 140.1 127.05 142.1 128.0 144.05 128.95 146.85 129.05 150.3 129.1 153.8 126.9 157.35 124.75 160.85 121.3 164.3 117.8 167.7 113.85 171.05 109.95 174.2 106.4 177.35 102.9 180.2 100.7 183.05 98.45 185.5 98.4 190.4 98.3 192.0 97.25 193.65 96.15 192.0 95.1 190.4 94.0 185.5 93.95 M95.4 51.25 Q95.45 48.75 96.0 47.95 96.55 47.1 97.1 47.95 97.65 48.75 97.65 51.25 97.7 52.75 99.3 54.5 100.85 56.3 103.2 58.25 105.55 60.25 107.85 62.35 110.15 64.45 111.7 66.6 113.2 68.75 113.2 70.85 113.1 73.0 112.1 74.25 111.05 75.5 109.25 76.65 109.75 77.0 110.25 77.35 110.15 77.4 110.05 77.45 109.5 77.8 109.05 78.2 108.9 78.2 108.65 78.2 107.7 78.2 106.3 78.05 104.85 77.95 103.25 77.9 101.8 77.9 100.2 78.25 98.5 78.5 96.85 80.1 96.6 80.3 96.4 80.55 96.2 80.3 95.95 80.05 95.2 79.25 94.3 78.85 93.45 78.4 92.65 78.25 91.05 77.9 89.6 77.9 88.0 77.95 86.55 78.05 85.1 78.2 84.2 78.2 83.95 78.2 83.75 78.15 83.3 77.8 82.8 77.45 82.7 77.4 82.6 77.35 83.15 76.95 83.7 76.55 81.95 75.45 80.95 74.2 79.95 72.95 79.9 70.85 79.9 68.75 81.4 66.6 82.95 64.45 85.25 62.35 87.55 60.25 89.9 58.25 92.2 56.3 93.8 54.5 95.35 52.75 95.4 51.25 M84.9 102.1 L84.95 102.15 89.75 103.05 90.6 107.85 Q90.2 107.9 89.6 107.9 87.65 107.8 85.1 107.65 84.9 105.1 84.85 103.15 84.85 102.55 84.9 102.1 M84.85 89.65 Q84.9 87.7 85.1 85.15 87.65 85.0 89.6 84.9 90.2 84.9 90.6 84.95 90.6 85.0 90.6 85.0 L89.7 89.8 85.0 90.7 Q84.95 90.7 84.9 90.7 84.85 90.3 84.85 89.65 M90.05 102.75 L89.05 98.0 Q88.9 97.2 88.9 96.45 L88.9 96.35 Q88.9 95.6 89.05 94.85 L90.05 90.1 94.8 89.05 Q95.6 88.85 96.4 88.85 97.25 88.9 98.05 89.05 L102.8 90.1 103.8 94.85 Q103.95 95.6 103.95 96.4 L103.95 96.45 Q103.95 97.2 103.8 98.0 L102.8 102.75 98.05 103.75 Q97.2 103.95 96.4 103.95 95.6 103.95 94.8 103.75 L90.05 102.75 M102.2 84.95 Q102.6 84.9 103.25 84.9 105.2 85.0 107.75 85.15 107.9 87.7 108.0 89.65 108.0 90.3 107.95 90.7 107.9 90.7 107.9 90.7 L103.15 89.8 102.2 84.95 M103.15 103.1 L107.9 102.15 Q107.9 102.1 107.95 102.1 108.0 102.55 108.0 103.15 107.9 105.1 107.75 107.65 105.2 107.85 103.25 107.9 102.65 107.9 102.2 107.85 L103.15 103.1 M78.1 108.55 Q78.1 108.8 78.1 109.0 77.7 109.4 77.35 109.95 77.35 110.05 77.3 110.1 76.95 109.7 76.65 109.25 75.5 111.05 74.25 112.1 73.0 113.1 70.85 113.2 68.75 113.2 66.6 111.65 64.45 110.15 62.35 107.85 60.25 105.5 58.25 103.2 56.3 100.9 54.5 99.3 52.75 97.75 51.25 97.65 48.75 97.6 47.95 97.1 47.1 96.55 47.95 96.0 48.75 95.45 51.25 95.4 52.75 95.35 54.5 93.75 56.3 92.2 58.25 89.85 60.25 87.55 62.35 85.25 64.45 82.95 66.6 81.4 68.75 79.85 70.85 79.85 72.95 79.95 74.2 80.95 75.45 81.95 76.55 83.7 76.9 83.2 77.3 82.7 77.3 82.8 77.35 82.85 77.7 83.4 78.1 83.85 78.1 84.0 78.1 84.25 78.1 85.2 78.0 86.6 77.85 88.05 77.85 89.65 77.8 91.1 78.15 92.7 78.35 93.5 78.75 94.4 79.2 95.25 80.0 96.05 80.2 96.25 80.4 96.4 80.15 96.6 80.0 96.75 79.2 97.55 78.75 98.4 78.35 99.3 78.15 100.1 77.8 101.7 77.85 103.15 77.85 104.75 78.0 106.2 78.1 107.6 78.1 108.55 M97.4 141.6 Q97.35 144.05 96.85 144.9 96.3 145.7 95.75 144.9 95.2 144.05 95.15 141.6 95.1 140.1 93.5 138.3 91.95 136.55 89.65 134.55 87.3 132.55 85.0 130.45 82.7 128.35 81.15 126.25 79.6 124.1 79.65 122.0 79.7 119.85 80.75 118.6 81.8 117.3 83.55 116.15 83.1 115.85 82.6 115.45 82.7 115.45 82.8 115.35 83.3 115.05 83.75 114.65 83.95 114.6 84.2 114.65 85.15 114.65 86.55 114.75 88.0 114.85 89.6 114.9 91.05 114.95 92.65 114.6 93.45 114.4 94.3 114.0 95.2 113.55 95.95 112.75 96.2 112.5 96.4 112.25 96.65 112.5 96.85 112.75 97.65 113.55 98.5 114.0 99.4 114.4 100.2 114.6 101.8 114.95 103.25 114.9 104.85 114.85 106.3 114.75 107.7 114.65 108.65 114.6 108.9 114.65 109.05 114.65 109.55 115.05 110.05 115.35 110.15 115.45 110.25 115.45 109.7 115.9 109.15 116.25 110.85 117.35 111.85 118.6 112.85 119.9 112.95 122.0 112.95 124.1 111.45 126.25 109.9 128.35 107.6 130.45 105.3 132.55 102.95 134.55 100.65 136.55 99.05 138.3 97.5 140.1 97.4 141.6 M141.6 97.4 Q140.1 97.45 138.35 99.05 136.55 100.6 134.55 102.95 132.6 105.25 130.5 107.6 128.4 109.9 126.25 111.4 124.1 112.95 122.0 112.95 119.9 112.85 118.65 111.85 117.4 110.85 116.25 109.15 115.95 109.65 115.55 110.1 115.5 110.05 115.45 109.95 115.15 109.45 114.75 108.95 114.7 108.8 114.7 108.55 114.7 107.6 114.85 106.2 114.95 104.75 115.0 103.15 115.0 101.7 114.7 100.1 114.5 99.3 114.1 98.45 113.65 97.55 112.85 96.75 112.65 96.6 112.45 96.4 112.65 96.25 112.85 96.05 113.65 95.25 114.1 94.4 114.5 93.5 114.7 92.7 115.0 91.1 115.0 89.65 114.95 88.05 114.85 86.6 114.7 85.2 114.7 84.25 114.7 84.0 114.75 83.85 115.15 83.4 115.45 82.85 115.5 82.8 115.55 82.7 115.9 83.1 116.2 83.55 117.3 81.75 118.6 80.75 119.85 79.7 122.0 79.6 124.1 79.6 126.25 81.15 128.4 82.65 130.5 85.0 132.6 87.3 134.55 89.6 136.55 91.95 138.3 93.5 140.1 95.1 141.6 95.15 144.05 95.2 144.9 95.75 145.7 96.3 144.9 96.8 144.05 97.35 141.6 97.4" fill="#000000" fill-rule="evenodd" stroke="none"/>
    </g>
  </defs>
</svg>
