<?xml version="1.0" encoding="UTF-8" standalone="no"?>
<svg xmlns:ffdec="https://www.free-decompiler.com/flash" xmlns:xlink="http://www.w3.org/1999/xlink" ffdec:objectType="frame" height="200.0px" width="200.0px" xmlns="http://www.w3.org/2000/svg">
  <g transform="matrix(1.0, 0.0, 0.0, 1.0, 0.0, 0.0)">
    <rect fill="#ffffff" height="200.0px" width="200.0px"/>
    <use ffdec:characterId="1" height="200.0" transform="matrix(1.0, 0.0, 0.0, 1.0, 0.0, 0.0)" width="199.1" xlink:href="#shape0"/>
  </g>
  <defs>
    <g id="shape0" transform="matrix(1.0, 0.0, 0.0, 1.0, 0.0, 0.0)">
      <path d="M121.8 77.9 Q122.9 81.05 122.6 83.7 122.3 86.3 121.15 88.35 120.05 90.4 118.75 91.8 117.4 93.2 116.4 93.9 115.45 94.65 115.4 94.65 L105.5 83.9 Q105.5 83.85 106.6 82.45 107.65 81.1 109.7 79.5 111.8 77.95 114.8 77.25 117.85 76.6 121.8 77.9 M154.95 70.4 Q155.05 70.45 156.35 72.1 157.65 73.8 159.35 76.7 161.05 79.6 162.35 83.35 163.7 87.1 163.75 91.25 167.85 91.35 171.55 92.6 175.25 93.85 178.1 95.55 181.0 97.2 182.7 98.5 184.4 99.85 184.55 100.0 L184.6 100.0 Q184.6 100.0 184.6 100.0 184.6 100.0 184.6 100.0 L184.55 100.0 Q184.4 100.2 182.7 101.5 181.0 102.8 178.1 104.45 175.25 106.15 171.55 107.4 167.85 108.7 163.75 108.75 163.65 112.9 162.35 116.65 161.05 120.4 159.35 123.3 157.65 126.2 156.35 127.9 155.0 129.55 154.95 129.6 154.9 129.55 153.6 127.9 152.3 126.2 150.55 123.3 148.85 120.4 147.55 116.65 146.25 112.9 146.2 108.75 142.05 108.7 138.4 107.4 134.7 106.15 131.8 104.45 128.9 102.8 127.2 101.5 125.5 100.15 125.35 100.0 L125.3 100.0 Q125.3 100.0 125.35 100.0 125.3 100.0 125.3 100.0 L125.35 100.0 Q125.5 99.8 127.2 98.5 128.9 97.2 131.8 95.55 134.7 93.85 138.4 92.6 142.1 91.3 146.2 91.25 146.25 87.1 147.55 83.35 148.85 79.6 150.55 76.7 152.3 73.8 153.6 72.1 154.9 70.45 154.95 70.4 M155.45 137.45 Q164.0 137.4 171.05 134.4 178.1 131.4 183.25 126.2 188.35 121.0 191.15 114.3 193.95 107.55 194.0 100.0 193.95 92.45 191.15 85.75 188.35 79.0 183.25 73.8 178.1 68.6 171.05 65.6 164.0 62.6 155.45 62.55 152.75 62.55 149.25 62.95 145.7 63.3 141.9 64.2 138.1 65.15 134.7 66.7 131.3 68.25 128.9 70.6 131.5 67.9 133.4 63.5 135.25 59.1 136.3 53.9 137.3 48.7 137.3 43.65 137.25 35.1 134.2 28.05 131.2 21.0 125.9 15.9 120.65 10.75 113.9 7.95 107.1 5.2 99.55 5.15 92.0 5.2 85.25 7.95 78.45 10.75 73.2 15.9 67.9 21.0 64.9 28.05 61.85 35.1 61.8 43.65 61.8 48.7 62.85 53.9 63.85 59.1 65.75 63.5 67.6 67.9 70.25 70.6 67.8 68.25 64.4 66.7 61.0 65.15 57.2 64.2 53.45 63.3 49.9 62.95 46.35 62.55 43.65 62.55 35.1 62.65 28.05 65.6 21.0 68.6 15.85 73.8 10.75 79.0 7.95 85.75 5.2 92.45 5.15 100.0 5.15 107.55 7.95 114.3 10.75 121.0 15.85 126.2 21.0 131.4 28.05 134.4 35.1 137.4 43.65 137.45 46.35 137.45 49.9 137.05 53.45 136.7 57.2 135.8 61.0 134.85 64.4 133.3 67.8 131.75 70.25 129.4 67.6 132.1 65.75 136.5 63.85 140.9 62.85 146.1 61.8 151.3 61.8 156.35 61.85 164.9 64.9 171.95 67.9 179.0 73.2 184.1 78.45 189.25 85.25 192.05 92.0 194.8 99.55 194.85 107.1 194.8 113.9 192.05 120.65 189.25 125.9 184.1 131.2 179.0 134.2 171.95 137.25 164.9 137.3 156.35 137.3 151.3 136.3 146.1 135.25 140.9 133.4 136.5 131.5 132.1 128.9 129.4 131.3 131.75 134.7 133.3 138.1 134.9 141.9 135.8 145.7 136.7 149.2 137.05 152.75 137.45 155.45 137.45 M199.1 100.0 Q199.1 100.0 199.1 100.0 199.1 100.0 199.1 100.0 199.05 108.85 195.8 116.55 192.55 124.25 186.75 130.1 180.9 136.0 173.15 139.3 165.35 142.65 156.25 142.7 151.45 142.65 147.0 141.65 142.5 140.6 138.45 138.75 142.5 147.1 142.55 157.1 142.5 166.2 139.15 174.0 135.75 181.75 129.85 187.6 123.9 193.4 116.15 196.65 108.4 199.95 99.6 200.0 99.6 200.0 99.55 200.0 99.55 200.0 99.5 200.0 90.7 199.95 82.95 196.65 75.2 193.4 69.3 187.6 63.35 181.75 60.0 174.0 56.6 166.2 56.55 157.1 56.6 147.1 60.65 138.75 56.6 140.6 52.15 141.65 47.65 142.65 42.9 142.7 33.75 142.65 26.0 139.3 18.2 136.0 12.4 130.1 6.55 124.25 3.3 116.55 0.05 108.85 0.0 100.0 0.0 100.0 0.0 100.0 0.0 100.0 0.0 100.0 0.05 91.15 3.3 83.45 6.55 75.75 12.4 69.9 18.2 64.0 26.0 60.7 33.8 57.35 42.9 57.3 47.65 57.35 52.15 58.35 56.6 59.4 60.65 61.25 56.6 52.9 56.55 42.9 56.6 33.8 60.0 26.0 63.35 18.25 69.3 12.4 75.2 6.6 82.95 3.35 90.7 0.05 99.5 0.0 99.55 0.0 99.55 0.0 99.6 0.0 99.6 0.0 108.4 0.05 116.15 3.35 123.9 6.6 129.85 12.4 135.75 18.25 139.15 26.0 142.5 33.8 142.55 42.9 142.5 52.9 138.45 61.25 142.5 59.4 147.0 58.35 151.45 57.35 156.25 57.3 165.35 57.35 173.1 60.7 180.9 64.0 186.7 69.9 192.55 75.75 195.8 83.45 199.05 91.15 199.1 100.0 M99.55 109.55 Q99.55 109.55 99.5 109.55 96.85 109.5 94.6 108.25 92.4 106.95 91.05 104.85 89.7 102.7 89.65 100.0 89.6 100.0 89.65 100.0 89.6 100.0 89.65 100.0 89.7 97.3 91.05 95.15 92.4 93.05 94.6 91.75 96.8 90.5 99.5 90.45 99.55 90.45 99.55 90.45 99.6 90.45 99.6 90.45 102.3 90.5 104.5 91.75 106.75 93.05 108.1 95.15 109.45 97.3 109.5 100.0 109.5 100.0 109.5 100.0 109.5 100.0 109.5 100.0 109.45 102.7 108.1 104.85 106.75 106.95 104.5 108.25 102.3 109.5 99.6 109.55 99.6 109.55 99.55 109.55 M121.8 122.1 Q117.85 123.4 114.85 122.7 111.8 122.05 109.7 120.5 107.65 118.9 106.6 117.55 105.5 116.15 105.5 116.05 L115.4 105.35 Q115.45 105.35 116.4 106.1 117.4 106.8 118.7 108.25 120.05 109.65 121.15 111.65 122.25 113.7 122.55 116.3 122.9 118.95 121.8 122.1 M99.6 126.3 Q99.85 126.5 101.2 128.25 102.55 130.0 104.3 132.85 106.0 135.7 107.25 139.35 108.55 143.0 108.6 147.05 112.8 147.15 116.5 148.45 120.25 149.75 123.15 151.45 126.1 153.15 127.75 154.45 129.4 155.8 129.45 155.85 129.45 155.9 127.75 157.2 126.1 158.5 123.15 160.25 120.25 161.95 116.5 163.25 112.8 164.55 108.6 164.6 108.55 168.7 107.25 172.3 106.0 175.95 104.3 178.85 102.55 181.7 101.2 183.45 99.85 185.2 99.6 185.4 L99.6 185.5 Q99.6 185.45 99.55 185.45 99.55 185.45 99.5 185.5 L99.5 185.4 Q99.25 185.2 97.9 183.45 96.55 181.7 94.85 178.85 93.1 175.95 91.85 172.3 90.55 168.65 90.5 164.6 86.35 164.55 82.6 163.25 78.85 161.95 75.95 160.25 73.05 158.5 71.35 157.2 69.7 155.9 69.65 155.85 69.7 155.75 71.35 154.45 73.05 153.15 75.95 151.45 78.85 149.75 82.6 148.45 86.35 147.1 90.5 147.05 90.55 143.0 91.85 139.35 93.1 135.7 94.85 132.85 96.55 130.0 97.9 128.25 99.25 126.5 99.5 126.3 L99.5 126.2 Q99.55 126.2 99.55 126.25 99.6 126.2 99.6 126.2 L99.6 126.3 M83.75 94.65 Q83.7 94.65 82.7 93.9 81.7 93.2 80.4 91.8 79.05 90.35 77.95 88.35 76.85 86.3 76.55 83.7 76.25 81.05 77.3 77.9 81.25 76.6 84.3 77.25 87.3 77.95 89.4 79.5 91.45 81.1 92.55 82.45 93.6 83.8 93.6 83.9 L83.75 94.65 M73.8 100.0 L73.75 100.0 Q73.6 100.2 71.9 101.5 70.2 102.8 67.3 104.45 64.45 106.15 60.75 107.4 57.05 108.7 52.95 108.75 52.85 112.9 51.55 116.65 50.25 120.4 48.55 123.3 46.85 126.2 45.5 127.9 44.2 129.55 44.15 129.6 44.1 129.55 42.8 127.9 41.5 126.2 39.75 123.3 38.05 120.4 36.75 116.65 35.45 112.9 35.35 108.75 31.25 108.7 27.55 107.4 23.9 106.15 21.0 104.45 18.1 102.8 16.4 101.5 14.7 100.15 14.55 100.0 L14.5 100.0 Q14.5 100.0 14.55 100.0 14.5 100.0 14.5 100.0 L14.55 100.0 Q14.7 99.8 16.4 98.5 18.1 97.2 21.0 95.55 23.85 93.85 27.55 92.6 31.25 91.3 35.35 91.25 35.45 87.1 36.75 83.35 38.05 79.6 39.75 76.7 41.5 73.8 42.8 72.1 44.1 70.45 44.15 70.4 44.2 70.45 45.55 72.1 46.85 73.8 48.55 76.7 50.25 79.6 51.55 83.35 52.9 87.1 52.95 91.25 57.05 91.35 60.75 92.6 64.45 93.85 67.3 95.55 70.2 97.2 71.9 98.5 73.6 99.85 73.75 100.0 L73.8 100.0 Q73.8 100.0 73.8 100.0 M99.5 73.7 Q99.25 73.5 97.9 71.75 96.55 70.0 94.85 67.15 93.1 64.3 91.85 60.65 90.55 57.0 90.5 52.95 86.35 52.85 82.6 51.55 78.85 50.25 75.95 48.55 73.05 46.85 71.35 45.5 69.7 44.2 69.65 44.15 69.7 44.1 71.35 42.8 73.05 41.5 75.95 39.75 78.85 38.05 82.6 36.75 86.35 35.45 90.5 35.35 90.55 31.3 91.85 27.7 93.1 24.05 94.85 21.15 96.55 18.3 97.9 16.55 99.25 14.8 99.5 14.6 L99.5 14.5 Q99.55 14.55 99.55 14.55 99.6 14.55 99.6 14.5 L99.6 14.6 Q99.85 14.8 101.2 16.55 102.55 18.3 104.3 21.15 106.0 24.0 107.25 27.65 108.55 31.3 108.6 35.35 112.8 35.45 116.5 36.75 120.25 38.05 123.15 39.75 126.1 41.5 127.75 42.8 129.4 44.1 129.45 44.15 129.45 44.2 127.75 45.55 126.1 46.85 123.15 48.55 120.25 50.25 116.5 51.55 112.8 52.9 108.6 52.95 108.55 57.0 107.25 60.65 106.0 64.3 104.3 67.15 102.55 70.0 101.2 71.75 99.85 73.5 99.6 73.7 L99.6 73.8 Q99.6 73.8 99.55 73.75 99.55 73.8 99.5 73.8 L99.5 73.7 M77.3 122.1 Q76.2 118.95 76.55 116.3 76.85 113.7 77.95 111.65 79.05 109.6 80.4 108.2 81.75 106.8 82.7 106.1 83.7 105.35 83.75 105.35 L93.6 116.05 Q93.6 116.15 92.55 117.55 91.45 118.9 89.4 120.5 87.3 122.05 84.3 122.75 81.25 123.4 77.3 122.1" fill="#000000" fill-rule="evenodd" stroke="none"/>
    </g>
  </defs>
</svg>
