<?xml version="1.0" encoding="UTF-8" standalone="no"?>
<svg xmlns:ffdec="https://www.free-decompiler.com/flash" xmlns:xlink="http://www.w3.org/1999/xlink" ffdec:objectType="frame" height="201.0px" width="200.0px" xmlns="http://www.w3.org/2000/svg">
  <g transform="matrix(1.0, 0.0, 0.0, 1.0, 0.0, 0.0)">
    <rect fill="#ffffff" height="201.0px" width="200.0px"/>
    <use ffdec:characterId="1" height="200.0" transform="matrix(1.0, 0.0, 0.0, 1.0, 0.0, 0.0)" width="199.85" xlink:href="#shape0"/>
  </g>
  <defs>
    <g id="shape0" transform="matrix(1.0, 0.0, 0.0, 1.0, 0.0, 0.0)">
      <path d="M104.4 100.0 Q104.4 99.95 104.35 99.95 L104.4 99.95 Q104.5 97.95 103.9 97.0 103.25 96.0 102.35 95.7 101.45 95.4 100.7 95.4 100.0 95.45 99.95 95.45 L99.95 95.5 99.9 95.5 99.9 95.45 Q99.85 95.45 99.15 95.4 98.4 95.4 97.5 95.7 96.6 96.0 95.95 97.0 95.35 97.95 95.45 99.95 95.5 99.95 95.45 100.0 95.5 100.05 95.45 100.05 95.35 102.05 95.95 103.0 96.6 104.0 97.5 104.3 98.4 104.6 99.15 104.6 99.85 104.55 99.9 104.55 L99.95 104.55 Q100.0 104.55 100.7 104.6 101.45 104.6 102.35 104.3 103.25 104.0 103.9 103.0 104.5 102.05 104.4 100.05 L104.35 100.05 Q104.35 100.05 104.4 100.0 M174.45 110.7 Q179.65 108.3 183.75 108.2 187.85 108.1 190.9 109.45 193.95 110.8 195.9 112.6 197.9 114.45 198.9 115.85 199.85 117.25 199.85 117.35 199.75 117.25 197.0 116.85 194.3 116.45 189.95 116.55 185.65 116.7 180.8 118.2 176.0 119.65 171.7 123.4 167.25 127.3 161.85 129.65 156.45 131.95 150.8 132.8 145.2 133.7 140.15 133.3 135.1 132.9 131.4 131.45 132.85 135.15 133.25 140.2 133.65 145.3 132.8 150.9 131.95 156.55 129.65 162.0 127.35 167.45 123.45 171.85 119.75 176.1 118.25 180.95 116.75 185.8 116.6 190.1 116.5 194.45 116.9 197.15 117.3 199.9 117.4 200.0 117.3 200.0 115.9 199.05 114.5 198.05 112.65 196.05 110.85 194.1 109.5 191.05 108.15 188.05 108.25 183.9 108.35 179.8 110.75 174.6 110.7 174.65 109.45 175.2 108.15 175.75 106.45 175.8 104.75 175.9 103.3 174.6 103.25 174.55 103.05 173.6 102.8 172.65 103.1 171.05 103.4 169.5 104.9 167.6 106.35 165.7 109.65 163.8 112.6 162.2 115.5 159.85 118.45 157.5 120.6 154.35 122.75 151.2 123.3 147.15 123.85 143.1 122.05 138.15 122.1 138.2 121.85 139.85 121.65 141.45 120.95 143.85 120.3 146.25 118.95 148.65 117.6 151.05 115.4 152.65 113.2 154.2 109.9 154.2 106.6 154.2 102.0 151.85 102.05 151.85 103.15 151.6 104.25 151.35 105.8 150.75 107.35 150.2 108.85 149.2 110.35 148.2 111.15 146.7 112.0 145.25 111.6 143.2 111.5 143.25 109.95 143.25 108.4 143.2 106.35 142.6 104.3 141.95 102.75 140.15 101.2 138.3 101.1 134.75 101.15 134.8 102.9 135.05 104.65 135.35 107.15 135.15 109.6 135.0 111.85 133.7 114.0 132.4 115.55 130.2 117.05 128.0 117.1 125.35 117.1 122.65 114.7 119.95 112.35 117.25 106.6 114.95 106.7 115.0 106.45 116.65 106.25 118.35 104.85 120.65 103.45 122.95 99.95 124.95 99.95 124.95 99.9 124.95 99.95 124.95 99.9 124.95 96.4 122.95 95.0 120.65 93.6 118.35 93.4 116.7 93.15 115.0 93.25 114.95 87.5 117.25 85.1 119.95 82.75 122.65 82.75 125.35 82.8 128.0 84.3 130.2 85.85 132.4 88.0 133.7 90.25 135.0 92.7 135.15 95.2 135.35 96.95 135.05 98.7 134.8 98.75 134.75 98.7 138.3 97.15 140.15 95.55 141.95 93.5 142.6 91.45 143.2 89.9 143.25 88.35 143.25 88.25 143.2 87.9 145.25 88.7 146.7 89.55 148.2 91.0 149.2 92.5 150.2 94.05 150.75 95.6 151.35 96.7 151.6 97.8 151.85 97.85 151.85 93.25 154.25 89.95 154.2 86.65 154.2 84.45 152.65 82.25 151.05 80.9 148.65 79.55 146.25 78.9 143.85 78.2 141.45 77.95 139.85 77.75 138.2 77.75 138.15 76.0 143.1 76.55 147.15 77.1 151.2 79.25 154.35 81.4 157.5 84.35 159.85 87.25 162.2 90.2 163.8 93.5 165.7 94.95 167.6 96.45 169.5 96.75 171.05 97.05 172.65 96.8 173.6 96.6 174.55 96.55 174.6 95.1 175.9 93.4 175.8 91.7 175.75 90.4 175.2 89.15 174.65 89.1 174.6 91.5 179.8 91.6 183.9 91.65 188.0 90.35 191.05 89.0 194.1 87.2 196.05 85.35 198.05 83.95 199.05 82.55 200.0 82.45 200.0 82.55 199.9 82.95 197.2 83.35 194.45 83.25 190.1 83.1 185.8 81.6 180.95 80.15 176.15 76.4 171.85 72.45 167.4 70.2 162.0 67.9 156.55 67.05 150.9 66.2 145.25 66.6 140.2 67.0 135.15 68.45 131.45 64.75 132.9 59.7 133.3 54.65 133.7 49.05 132.8 43.4 131.95 38.0 129.65 32.55 127.3 28.15 123.4 23.9 119.65 19.05 118.2 14.2 116.7 9.9 116.55 5.55 116.45 2.85 116.85 0.1 117.25 0.0 117.35 0.0 117.25 0.95 115.85 1.95 114.45 3.95 112.6 5.9 110.8 8.95 109.45 12.0 108.1 16.1 108.2 20.2 108.3 25.4 110.7 25.35 110.65 24.8 109.4 24.25 108.1 24.2 106.4 24.1 104.7 25.4 103.25 25.45 103.2 26.4 103.0 27.35 102.75 28.95 103.05 30.5 103.35 32.4 104.85 34.3 106.3 36.2 109.6 37.8 112.55 40.15 115.45 42.5 118.4 45.65 120.55 48.8 122.7 52.85 123.25 56.9 123.8 61.85 122.0 61.8 122.05 60.2 121.8 58.55 121.6 56.15 120.9 53.75 120.25 51.35 118.9 48.95 117.55 47.35 115.35 45.8 113.15 45.8 109.85 45.8 106.55 48.15 101.95 48.15 102.0 48.4 103.1 48.65 104.2 49.25 105.75 49.8 107.3 50.8 108.8 51.8 110.3 53.3 111.1 54.75 111.95 56.8 111.55 56.75 111.45 56.75 109.9 56.8 108.35 57.4 106.3 58.05 104.25 59.9 102.7 61.7 101.1 65.3 101.05 65.2 101.1 64.95 102.85 64.65 104.6 64.85 107.1 65.0 109.55 66.3 111.8 67.6 113.95 69.8 115.5 72.0 117.0 74.65 117.05 77.35 117.05 80.05 114.65 82.75 112.3 85.05 106.55 85.0 106.65 83.35 106.45 81.7 106.25 79.4 104.85 77.1 103.5 75.1 100.05 L75.05 100.05 Q75.05 100.05 75.1 100.0 75.05 99.95 75.05 99.95 L75.1 99.95 Q77.15 96.5 79.4 95.15 81.7 93.75 83.35 93.55 85.0 93.4 85.05 93.45 82.75 87.75 80.05 85.35 77.35 82.95 74.7 82.95 72.0 83.0 69.8 84.5 67.6 86.05 66.3 88.2 65.0 90.45 64.85 92.9 64.65 95.4 64.95 97.15 65.25 98.9 65.3 99.0 61.7 98.9 59.85 97.35 58.05 95.8 57.4 93.75 56.8 91.7 56.75 90.15 56.75 88.55 56.8 88.5 54.75 88.1 53.3 88.9 51.8 89.75 50.8 91.2 49.8 92.7 49.25 94.25 48.65 95.85 48.4 96.9 48.15 98.0 48.15 98.05 45.8 93.45 45.8 90.15 45.8 86.9 47.35 84.65 48.95 82.45 51.35 81.1 53.75 79.8 56.15 79.1 58.55 78.4 60.15 78.2 61.8 78.0 61.85 78.0 56.9 76.2 52.85 76.75 48.8 77.3 45.65 79.45 42.5 81.6 40.15 84.55 37.8 87.45 36.2 90.4 34.3 93.7 32.4 95.15 30.5 96.65 28.95 96.95 27.35 97.25 26.4 97.0 25.45 96.8 25.4 96.75 24.1 95.3 24.2 93.6 24.25 91.9 24.8 90.65 25.35 89.35 25.4 89.3 20.2 91.7 16.1 91.8 12.0 91.9 8.95 90.55 5.9 89.25 3.95 87.4 1.95 85.6 0.95 84.15 0.0 82.75 0.0 82.7 0.1 82.75 2.85 83.15 5.55 83.55 9.9 83.45 14.2 83.3 19.05 81.85 23.85 80.35 28.15 76.6 32.6 72.7 38.0 70.35 43.4 68.05 49.05 67.2 54.65 66.3 59.7 66.7 64.75 67.1 68.45 68.55 66.95 64.85 66.6 59.8 66.2 54.75 67.05 49.1 67.9 43.45 70.2 38.0 72.5 32.55 76.4 28.15 80.1 23.9 81.6 19.05 83.1 14.2 83.25 9.9 83.35 5.55 82.95 2.85 82.55 0.1 82.45 0.0 82.55 0.0 83.95 0.95 85.35 1.95 87.2 3.95 89.0 5.9 90.35 8.95 91.65 12.0 91.6 16.1 91.5 20.2 89.1 25.4 89.15 25.35 90.4 24.8 91.7 24.25 93.4 24.2 95.1 24.1 96.55 25.4 96.6 25.45 96.8 26.4 97.05 27.35 96.75 28.95 96.45 30.5 94.95 32.4 93.5 34.3 90.2 36.2 87.25 37.8 84.35 40.15 81.4 42.5 79.25 45.65 77.1 48.8 76.55 52.85 75.95 56.9 77.75 61.85 77.75 61.8 78.0 60.2 78.2 58.55 78.9 56.15 79.55 53.75 80.9 51.35 82.25 48.95 84.45 47.35 86.65 45.8 89.95 45.8 93.25 45.8 97.85 48.15 97.8 48.15 96.7 48.4 95.6 48.65 94.05 49.25 92.5 49.8 91.0 50.8 89.5 51.8 88.7 53.3 87.85 54.75 88.25 56.8 88.35 56.75 89.9 56.75 91.45 56.8 93.5 57.4 95.55 58.05 97.1 59.9 98.65 61.7 98.75 65.3 98.7 65.2 96.95 64.95 95.2 64.65 92.7 64.85 90.25 65.0 88.0 66.3 85.85 67.6 84.3 69.8 82.8 72.0 82.75 74.65 82.75 77.35 85.15 80.05 87.5 82.75 93.25 85.05 93.15 85.0 93.4 83.35 93.6 81.65 95.0 79.35 96.4 77.05 99.9 75.05 99.95 75.05 99.9 75.05 99.9 75.05 99.95 75.05 103.45 77.05 104.85 79.35 106.25 81.65 106.45 83.3 106.7 85.0 106.6 85.05 112.35 82.75 114.7 80.05 117.1 77.35 117.1 74.7 117.05 72.0 115.55 69.8 114.0 67.6 111.85 66.3 109.6 65.0 107.15 64.85 104.65 64.65 102.9 64.95 101.15 65.25 101.1 65.3 101.15 61.7 102.7 59.85 104.3 58.05 106.35 57.4 108.4 56.8 109.95 56.75 111.5 56.75 111.6 56.8 111.95 54.75 111.15 53.3 110.3 51.8 108.85 50.8 107.35 49.8 105.8 49.25 104.25 48.65 103.15 48.4 102.05 48.15 102.0 48.15 106.6 45.8 109.9 45.8 113.2 45.8 115.4 47.35 117.6 48.95 118.95 51.35 120.3 53.75 120.95 56.15 121.65 58.55 121.85 60.15 122.05 61.8 122.05 61.85 123.85 56.9 123.3 52.85 122.75 48.85 120.6 45.65 118.45 42.5 115.5 40.15 112.6 37.8 109.65 36.2 106.35 34.3 104.9 32.4 103.4 30.5 103.1 28.95 102.8 27.35 103.05 26.4 103.25 25.45 103.3 25.4 104.75 24.1 106.45 24.2 108.15 24.25 109.45 24.8 110.7 25.35 110.75 25.4 108.35 20.2 108.25 16.1 108.15 12.0 109.5 8.95 110.85 5.9 112.65 3.95 114.5 1.95 115.9 0.95 117.3 0.0 117.4 0.0 117.3 0.1 116.9 2.85 116.5 5.55 116.6 9.9 116.75 14.2 118.25 19.05 119.7 23.85 123.45 28.15 127.35 32.6 129.65 38.0 131.95 43.45 132.8 49.1 133.65 54.75 133.25 59.8 132.85 64.85 131.4 68.55 135.1 67.1 140.15 66.7 145.2 66.3 150.8 67.2 156.45 68.05 161.85 70.35 167.3 72.7 171.7 76.6 175.95 80.35 180.8 81.85 185.65 83.3 189.95 83.45 194.3 83.55 197.0 83.15 199.75 82.75 199.85 82.7 199.85 82.75 198.9 84.15 197.9 85.55 195.9 87.4 193.95 89.2 190.9 90.55 187.85 91.9 183.75 91.8 179.65 91.7 174.45 89.3 174.5 89.35 175.05 90.65 175.6 91.9 175.65 93.6 175.75 95.3 174.45 96.75 174.4 96.8 173.45 97.05 172.5 97.25 170.9 96.95 169.35 96.65 167.45 95.15 165.55 93.7 163.65 90.4 162.05 87.45 159.7 84.55 157.35 81.6 154.2 79.45 151.05 77.3 147.0 76.75 142.95 76.2 138.0 78.0 138.05 77.95 139.65 78.2 141.3 78.4 143.7 79.1 146.1 79.75 148.5 81.1 150.9 82.45 152.5 84.65 154.05 86.9 154.05 90.15 154.05 93.45 151.7 98.05 151.7 98.0 151.45 96.9 151.2 95.85 150.6 94.25 150.05 92.7 149.05 91.2 148.05 89.75 146.55 88.9 145.1 88.1 143.05 88.5 143.1 88.55 143.1 90.1 143.05 91.7 142.45 93.75 141.8 95.8 139.95 97.35 138.15 98.9 134.55 99.0 134.65 98.9 134.9 97.15 135.2 95.4 135.0 92.9 134.85 90.45 133.55 88.2 132.25 86.05 130.05 84.55 127.85 83.0 125.2 82.95 122.5 82.95 119.8 85.35 117.1 87.75 114.8 93.45 114.85 93.4 116.5 93.55 118.15 93.75 120.45 95.15 122.75 96.5 124.75 99.95 L124.8 99.95 Q124.8 99.95 124.75 100.0 124.8 100.05 124.8 100.05 L124.75 100.05 Q122.7 103.5 120.45 104.9 118.15 106.25 116.5 106.45 114.85 106.65 114.8 106.55 117.1 112.3 119.8 114.65 122.5 117.05 125.15 117.05 127.85 117.0 130.05 115.5 132.25 113.95 133.55 111.8 134.85 109.55 135.0 107.1 135.2 104.6 134.9 102.85 134.6 101.1 134.55 101.05 138.15 101.1 139.95 102.65 141.8 104.25 142.45 106.3 143.05 108.35 143.1 109.9 143.1 111.45 143.05 111.55 145.1 111.9 146.55 111.1 148.05 110.25 149.05 108.8 150.05 107.3 150.6 105.75 151.2 104.2 151.45 103.1 151.7 102.0 151.7 101.95 154.05 106.55 154.05 109.85 154.05 113.1 152.5 115.35 150.9 117.55 148.5 118.9 146.1 120.25 143.7 120.9 141.3 121.6 139.7 121.8 138.05 122.0 138.0 122.0 142.95 123.8 147.0 123.25 151.0 122.7 154.2 120.55 157.35 118.4 159.7 115.45 162.05 112.55 163.65 109.6 165.55 106.3 167.45 104.85 169.35 103.35 170.9 103.05 172.5 102.75 173.45 103.0 174.4 103.2 174.45 103.25 175.75 104.7 175.65 106.4 175.6 108.1 175.05 109.4 174.5 110.65 174.45 110.7" fill="#000000" fill-rule="evenodd" stroke="none"/>
    </g>
  </defs>
</svg>
