<?xml version="1.0" encoding="UTF-8" standalone="no"?>
<svg xmlns:ffdec="https://www.free-decompiler.com/flash" xmlns:xlink="http://www.w3.org/1999/xlink" ffdec:objectType="frame" height="163.0px" width="201.0px" xmlns="http://www.w3.org/2000/svg">
  <g transform="matrix(1.0, 0.0, 0.0, 1.0, 0.0, 0.0)">
    <rect fill="#ffffff" height="163.0px" width="201.0px"/>
    <use ffdec:characterId="1" height="162.1" transform="matrix(1.0, 0.0, 0.0, 1.0, 0.0, 0.0)" width="200.0" xlink:href="#shape0"/>
  </g>
  <defs>
    <g id="shape0" transform="matrix(1.0, 0.0, 0.0, 1.0, 0.0, 0.0)">
      <path d="M200.0 62.1 Q200.0 73.1 196.65 82.95 193.3 92.75 187.5 101.35 181.65 110.0 174.2 117.4 166.7 124.8 158.4 131.0 150.1 137.2 141.8 142.15 133.5 147.1 126.0 150.85 118.5 154.6 112.65 157.1 106.8 159.6 103.45 160.85 100.05 162.1 100.0 162.1 99.95 162.1 96.55 160.85 93.2 159.55 87.4 157.05 81.55 154.5 74.05 150.75 66.6 147.0 58.3 142.0 50.0 137.0 41.7 130.8 33.4 124.6 25.95 117.2 18.45 109.75 12.6 101.15 6.8 92.6 3.45 82.8 0.05 73.0 0.0 62.1 0.1 48.25 4.3 37.0 8.55 25.7 16.0 17.6 23.45 9.45 33.25 4.95 43.05 0.45 54.2 0.1 65.4 -0.25 77.1 4.15 88.75 8.5 100.0 18.1 112.9 8.05 125.25 3.75 137.6 -0.55 148.75 0.1 159.9 0.7 169.2 5.55 178.55 10.45 185.4 18.75 192.3 27.05 196.1 38.1 199.9 49.1 200.0 62.1" fill="#000000" fill-rule="evenodd" stroke="none"/>
    </g>
  </defs>
</svg>
