<?xml version="1.0" encoding="UTF-8" standalone="no"?>
<svg xmlns:ffdec="https://www.free-decompiler.com/flash" xmlns:xlink="http://www.w3.org/1999/xlink" ffdec:objectType="frame" height="163.0px" width="201.0px" xmlns="http://www.w3.org/2000/svg">
  <g transform="matrix(1.0, 0.0, 0.0, 1.0, 0.0, 0.0)">
    <rect fill="#ffffff" height="163.0px" width="201.0px"/>
    <use ffdec:characterId="1" height="162.1" transform="matrix(1.0, 0.0, 0.0, 1.0, 0.0, 0.0)" width="200.0" xlink:href="#shape0"/>
  </g>
  <defs>
    <g id="shape0" transform="matrix(1.0, 0.0, 0.0, 1.0, 0.0, 0.0)">
      <path d="M100.0 18.1 Q88.75 8.5 77.1 4.15 65.4 -0.2 54.2 0.1 43.05 0.45 33.25 4.95 23.45 9.45 16.0 17.55 8.55 25.7 4.3 37.0 0.1 48.25 0.0 62.1 0.05 73.05 3.45 82.8 6.8 92.6 12.6 101.2 18.45 109.8 25.95 117.2 33.4 124.6 41.7 130.8 50.0 137.0 58.3 142.0 66.6 147.0 74.05 150.75 81.55 154.5 87.4 157.05 93.2 159.55 96.55 160.8 99.95 162.1 100.0 162.1 100.05 162.1 103.45 160.85 106.8 159.6 112.65 157.1 118.5 154.6 126.0 150.85 133.5 147.1 141.8 142.15 150.1 137.2 158.4 131.0 166.7 124.8 174.2 117.4 181.65 110.0 187.5 101.35 193.3 92.75 196.65 82.9 200.0 73.1 200.0 62.1 199.9 49.1 196.1 38.1 192.3 27.05 185.4 18.75 178.55 10.45 169.2 5.55 159.9 0.7 148.75 0.05 137.6 -0.55 125.25 3.75 112.9 8.05 100.0 18.1 M100.0 161.1 Q99.9 161.1 96.35 159.75 92.8 158.35 86.75 155.65 80.7 152.95 73.15 148.95 65.65 144.9 57.6 139.55 49.55 134.2 42.0 127.55 34.5 120.95 28.45 113.0 22.4 105.1 18.85 95.9 15.25 86.7 15.2 76.25 15.25 64.5 18.85 54.95 22.45 45.4 28.75 38.5 35.1 31.6 43.4 27.8 51.7 24.0 61.15 23.7 70.65 23.4 80.55 27.1 90.45 30.85 100.0 38.95 113.15 28.8 125.55 25.5 137.95 22.2 148.65 24.7 159.35 27.15 167.45 34.35 175.55 41.5 180.1 52.25 184.7 63.05 184.8 76.25 184.75 86.75 181.25 96.0 177.7 105.2 171.65 113.15 165.6 121.1 158.1 127.75 150.55 134.35 142.5 139.7 134.45 145.0 126.9 149.05 119.35 153.05 113.3 155.7 107.2 158.4 103.65 159.75 100.1 161.1 100.0 161.1 M100.0 50.8 Q90.9 43.1 81.5 40.4 72.1 37.7 63.45 39.35 54.8 41.05 47.9 46.5 41.05 51.95 37.05 60.55 33.0 69.15 32.95 80.35 33.0 88.6 35.8 95.85 38.65 103.15 43.4 109.4 48.2 115.65 54.15 120.9 60.1 126.15 66.45 130.35 72.8 134.6 78.8 137.8 84.75 140.95 89.5 143.1 94.3 145.25 97.1 146.3 99.95 147.4 100.0 147.4 100.05 147.4 102.9 146.35 105.7 145.25 110.5 143.15 115.3 141.05 121.25 137.85 127.25 134.7 133.6 130.5 139.95 126.3 145.95 121.05 151.9 115.8 156.65 109.5 161.45 103.25 164.25 95.95 167.05 88.65 167.05 80.35 166.95 69.85 163.35 61.35 159.75 52.85 153.35 47.15 146.95 41.5 138.5 39.55 130.0 37.55 120.2 40.15 110.4 42.75 100.0 50.8 M100.0 146.75 Q99.9 146.75 96.85 145.55 93.8 144.35 88.7 142.0 83.65 139.6 77.6 136.1 71.55 132.55 65.5 127.9 59.45 123.25 54.4 117.45 49.35 111.65 46.25 104.75 43.2 97.85 43.1 89.85 43.2 80.4 46.6 73.1 50.0 65.75 55.8 61.15 61.65 56.55 69.0 55.1 76.35 53.7 84.3 56.0 92.3 58.3 100.0 64.8 108.85 58.0 117.15 55.75 125.45 53.55 132.65 55.25 139.8 56.9 145.25 61.7 150.65 66.55 153.75 73.75 156.8 80.95 156.9 89.85 156.85 97.9 153.8 104.85 150.75 111.75 145.7 117.55 140.65 123.35 134.55 128.0 128.5 132.65 122.45 136.2 116.35 139.7 111.3 142.05 106.25 144.35 103.15 145.55 100.1 146.75 100.0 146.75 M100.0 76.3 Q94.45 71.6 88.7 69.95 83.0 68.3 77.7 69.3 72.4 70.35 68.2 73.65 64.05 76.95 61.6 82.2 59.15 87.5 59.1 94.3 59.15 100.05 61.35 105.0 63.55 110.0 67.2 114.15 70.85 118.3 75.2 121.65 79.55 125.0 83.9 127.55 88.25 130.1 91.9 131.8 95.55 133.5 97.75 134.35 99.95 135.2 100.0 135.2 100.05 135.2 102.25 134.35 104.5 133.5 108.15 131.8 111.8 130.15 116.15 127.6 120.5 125.1 124.85 121.75 129.2 118.4 132.85 114.2 136.5 110.05 138.7 105.05 140.9 100.1 140.9 94.3 140.8 86.3 137.45 80.25 134.1 74.2 128.3 71.15 122.55 68.15 115.25 69.15 107.95 70.2 100.0 76.3 M100.0 134.8 Q99.9 134.8 97.45 133.8 94.95 132.8 91.0 130.85 87.05 128.9 82.65 126.0 78.25 123.05 74.3 119.2 70.35 115.35 67.85 110.55 65.4 105.8 65.3 100.1 65.4 92.85 68.55 87.75 71.7 82.65 76.85 80.25 82.0 77.9 88.05 78.85 94.1 79.85 100.0 84.8 106.75 79.65 112.95 78.75 119.15 77.9 124.0 80.5 128.9 83.05 131.75 88.15 134.6 93.3 134.7 100.1 134.65 105.85 132.15 110.65 129.7 115.45 125.75 119.3 121.8 123.15 117.4 126.05 112.95 128.95 109.0 130.9 105.05 132.85 102.6 133.8 100.1 134.8 100.0 134.8" fill="#000000" fill-rule="evenodd" stroke="none"/>
    </g>
  </defs>
</svg>
