<?xml version="1.0" encoding="UTF-8" standalone="no"?>
<svg xmlns:ffdec="https://www.free-decompiler.com/flash" xmlns:xlink="http://www.w3.org/1999/xlink" ffdec:objectType="frame" height="190.0px" width="201.0px" xmlns="http://www.w3.org/2000/svg">
  <g transform="matrix(1.0, 0.0, 0.0, 1.0, 0.0, 0.0)">
    <rect fill="#ffffff" height="190.0px" width="201.0px"/>
    <use ffdec:characterId="1" height="189.1" transform="matrix(1.0, 0.0, 0.0, 1.0, 0.0, 0.0)" width="200.6" xlink:href="#shape0"/>
  </g>
  <defs>
    <g id="shape0" transform="matrix(1.0, 0.0, 0.0, 1.0, 0.0, 0.0)">
      <path d="M136.1 102.1 Q140.05 101.35 143.35 99.45 146.7 97.5 149.3 95.15 151.95 92.75 153.75 90.5 155.6 88.25 156.55 86.75 157.55 85.3 157.55 85.25 157.5 85.15 155.3 83.65 153.15 82.1 149.45 80.3 145.7 78.45 141.1 77.4 136.45 76.35 131.5 77.15 127.55 77.9 124.25 79.8 120.9 81.7 118.3 84.1 115.65 86.5 113.85 88.75 112.0 91.0 111.05 92.5 110.05 93.95 110.05 94.0 110.1 94.1 112.3 95.6 114.45 97.1 118.15 98.95 121.85 100.8 126.5 101.85 131.15 102.9 136.1 102.1 M55.45 132.35 Q63.05 143.1 70.7 149.45 78.35 155.75 85.75 158.5 93.2 161.25 100.2 161.15 107.25 161.1 113.6 159.05 120.0 156.95 125.55 153.7 131.1 150.45 135.6 146.75 140.05 143.1 143.3 139.85 146.5 136.55 148.2 134.5 149.95 132.4 149.95 132.35 138.0 140.55 127.2 144.55 116.4 148.5 106.9 149.25 97.4 150.05 89.4 148.6 81.45 147.15 75.15 144.55 68.85 141.9 64.45 139.1 60.05 136.35 57.75 134.4 55.45 132.45 55.45 132.35 M41.65 85.25 Q41.65 85.3 42.6 86.75 43.6 88.25 45.4 90.5 47.25 92.75 49.9 95.1 52.5 97.5 55.85 99.4 59.15 101.3 63.1 102.1 68.05 102.95 72.65 101.85 77.3 100.8 81.0 98.95 84.7 97.1 86.9 95.6 89.05 94.1 89.1 94.0 89.1 93.95 88.15 92.5 87.2 91.0 85.35 88.75 83.5 86.5 80.9 84.1 78.25 81.7 74.95 79.8 71.65 77.9 67.7 77.15 62.7 76.3 58.1 77.4 53.45 78.45 49.75 80.3 46.05 82.1 43.85 83.65 41.7 85.15 41.65 85.25 M185.35 65.75 Q187.55 65.4 189.95 64.0 192.3 62.55 194.55 60.15 197.35 66.6 198.8 73.85 200.3 81.15 200.35 89.1 200.35 100.1 197.0 109.95 193.65 119.75 187.85 128.35 182.05 137.0 174.55 144.4 167.1 151.8 158.75 158.0 150.45 164.2 142.15 169.15 133.85 174.15 126.35 177.85 118.85 181.6 113.0 184.1 107.15 186.6 103.8 187.85 100.4 189.1 100.35 189.1 100.3 189.1 96.95 187.85 93.55 186.55 87.75 184.05 81.9 181.5 74.45 177.75 66.95 174.0 58.65 169.0 50.35 164.0 42.05 157.8 33.75 151.6 26.3 144.2 18.8 136.8 12.95 128.2 7.15 119.6 3.8 109.8 0.4 100.05 0.35 89.1 0.35 81.0 1.9 73.75 3.4 66.55 6.2 60.25 8.4 62.6 10.75 64.0 13.1 65.4 15.3 65.75 17.3 66.1 19.25 66.15 22.85 66.1 25.85 64.85 28.85 63.55 30.9 61.15 32.0 59.9 32.9 57.9 33.85 55.9 34.2 53.0 34.55 50.1 33.9 46.2 L33.75 45.4 33.1 44.95 Q28.0 41.15 26.05 36.2 33.65 31.1 42.6 28.8 51.55 26.5 61.25 27.35 70.95 28.2 80.85 32.55 90.8 36.95 100.35 45.1 114.55 34.1 128.0 29.95 141.45 25.8 153.35 27.5 165.3 29.15 174.8 35.7 173.8 38.3 172.05 40.65 170.25 43.0 167.55 44.95 L166.9 45.4 166.75 46.2 Q166.1 50.1 166.45 53.0 166.8 55.9 167.75 57.9 168.65 59.9 169.75 61.15 171.8 63.55 174.8 64.85 177.8 66.15 181.4 66.15 183.35 66.15 185.35 65.75 M168.7 46.55 Q173.9 42.8 176.1 37.95 178.3 33.1 178.4 27.85 178.45 22.65 177.25 17.7 176.05 12.75 174.4 8.75 172.75 4.75 171.45 2.4 170.15 0.05 170.1 0.0 182.1 6.2 188.95 13.15 195.75 20.1 198.4 27.1 201.05 34.1 200.6 40.45 200.15 46.8 197.7 51.9 195.25 57.0 191.8 60.15 188.35 63.25 185.0 63.8 183.2 64.1 181.4 64.15 177.25 64.15 174.0 62.2 170.8 60.25 169.25 56.35 167.75 52.45 168.7 46.55 M15.65 63.8 Q12.3 63.25 8.85 60.1 5.4 57.0 2.95 51.9 0.5 46.8 0.05 40.45 -0.4 34.1 2.25 27.1 4.9 20.1 11.75 13.15 18.55 6.2 30.55 0.0 30.45 0.05 29.2 2.4 27.9 4.75 26.25 8.75 24.6 12.75 23.4 17.7 22.2 22.65 22.25 27.85 22.35 33.1 24.55 37.95 26.8 42.75 31.95 46.55 32.9 52.45 31.4 56.35 29.85 60.25 26.65 62.2 23.4 64.15 19.25 64.15 17.45 64.1 15.65 63.8" fill="#000000" fill-rule="evenodd" stroke="none"/>
    </g>
  </defs>
</svg>
