<?xml version="1.0" encoding="UTF-8" standalone="no"?>
<svg xmlns:ffdec="https://www.free-decompiler.com/flash" xmlns:xlink="http://www.w3.org/1999/xlink" ffdec:objectType="frame" height="165.0px" width="200.0px" xmlns="http://www.w3.org/2000/svg">
  <g transform="matrix(1.0, 0.0, 0.0, 1.0, 0.0, 0.0)">
    <rect fill="#ffffff" height="165.0px" width="200.0px"/>
    <use ffdec:characterId="1" height="164.85" transform="matrix(1.0, 0.0, 0.0, 1.0, 0.0, 0.0)" width="200.0" xlink:href="#shape0"/>
  </g>
  <defs>
    <g id="shape0" transform="matrix(1.0, 0.0, 0.0, 1.0, 0.0, 0.0)">
      <path d="M61.65 118.0 Q62.75 117.05 62.6 115.3 62.45 113.55 61.1 111.75 59.65 110.05 58.0 109.5 56.3 108.9 55.1 109.8 54.15 110.6 54.15 112.1 54.25 111.15 54.9 110.65 55.9 109.9 57.4 110.45 58.85 111.0 60.15 112.55 61.35 114.15 61.55 115.7 61.75 117.25 60.8 118.1 60.2 118.5 59.4 118.5 60.7 118.75 61.65 118.0 M183.2 29.15 L180.25 18.55 170.7 26.3 Q175.8 33.55 178.6 42.65 181.4 51.75 181.5 62.3 181.45 73.45 177.7 83.25 173.95 93.05 167.5 101.45 161.1 109.9 153.1 116.95 145.1 124.0 136.55 129.65 128.0 135.3 119.95 139.55 111.95 143.8 105.5 146.65 99.1 149.5 95.3 150.9 91.5 152.35 91.4 152.35 91.3 152.35 87.45 150.9 83.55 149.4 77.0 146.45 70.45 143.5 62.3 139.1 54.15 134.7 45.5 128.9 L59.85 116.7 59.3 116.0 35.3 136.45 34.7 142.15 34.7 142.35 34.55 142.45 9.75 164.0 8.75 164.85 8.9 163.6 9.95 155.2 1.25 154.75 0.0 154.7 0.95 153.9 25.7 132.35 25.85 132.2 26.05 132.2 33.3 132.45 56.5 112.7 55.8 111.9 40.25 125.2 Q32.55 119.55 25.6 112.8 18.65 106.05 13.15 98.2 7.7 90.3 4.55 81.35 1.4 72.35 1.35 62.3 1.4 49.8 5.2 39.65 9.0 29.5 15.75 22.2 22.45 14.85 31.25 10.8 40.1 6.75 50.15 6.45 60.25 6.15 70.75 10.1 81.25 14.0 91.4 22.65 102.95 13.7 114.0 9.8 125.0 5.9 135.0 6.4 144.95 6.9 153.35 11.15 161.7 15.4 167.95 22.75 L177.25 15.15 168.0 10.4 200.0 0.0 183.2 29.15" fill="#000000" fill-rule="evenodd" stroke="none"/>
    </g>
  </defs>
</svg>
