<?xml version="1.0" encoding="UTF-8" standalone="no"?>
<svg xmlns:ffdec="https://www.free-decompiler.com/flash" xmlns:xlink="http://www.w3.org/1999/xlink" ffdec:objectType="frame" height="163.0px" width="201.0px" xmlns="http://www.w3.org/2000/svg">
  <g transform="matrix(1.0, 0.0, 0.0, 1.0, 0.0, 0.0)">
    <rect fill="#ffffff" height="163.0px" width="201.0px"/>
    <use ffdec:characterId="1" height="162.1" transform="matrix(1.0, 0.0, 0.0, 1.0, 0.0, 0.0)" width="200.0" xlink:href="#shape0"/>
  </g>
  <defs>
    <g id="shape0" transform="matrix(1.0, 0.0, 0.0, 1.0, 0.0, 0.0)">
      <path d="M103.5 15.45 Q116.1 6.45 128.05 2.8 140.0 -0.8 150.75 0.2 161.5 1.25 170.5 6.25 179.45 11.25 186.05 19.5 192.6 27.75 196.25 38.6 199.9 49.4 200.0 62.1 200.0 73.1 196.65 82.9 193.3 92.75 187.5 101.35 181.65 109.95 174.2 117.35 166.7 124.8 158.4 131.0 150.1 137.15 141.8 142.15 133.5 147.1 126.0 150.85 118.5 154.6 112.65 157.1 106.8 159.6 103.45 160.85 100.05 162.1 100.0 162.1 99.95 162.1 96.55 160.8 93.2 159.55 87.4 157.0 81.55 154.5 74.05 150.75 66.6 146.95 58.3 142.0 50.0 137.0 41.7 130.8 33.4 124.6 25.95 117.2 18.45 109.75 12.6 101.15 6.8 92.6 3.45 82.8 0.05 73.05 0.0 62.1 0.05 49.55 3.55 39.15 7.0 28.75 13.25 20.8 19.5 12.9 27.8 7.8 36.1 2.75 45.8 0.95 55.5 -0.85 65.95 1.0 76.4 2.85 86.85 8.75 L61.5 31.75 109.5 49.75 84.5 64.75 95.5 78.75 95.5 107.75 105.5 77.75 101.5 69.75 134.5 54.75 103.5 15.45" fill="#000000" fill-rule="evenodd" stroke="none"/>
    </g>
  </defs>
</svg>
