<?xml version="1.0" encoding="UTF-8" standalone="no"?>
<svg xmlns:ffdec="https://www.free-decompiler.com/flash" xmlns:xlink="http://www.w3.org/1999/xlink" ffdec:objectType="frame" height="200.0px" width="117.0px" xmlns="http://www.w3.org/2000/svg">
  <g transform="matrix(1.0, 0.0, 0.0, 1.0, 0.0, 0.0)">
    <rect fill="#ffffff" height="200.0px" width="117.0px"/>
    <use ffdec:characterId="1" height="200.0" transform="matrix(1.0, 0.0, 0.0, 1.0, 0.0, 0.0)" width="116.55" xlink:href="#shape0"/>
  </g>
  <defs>
    <g id="shape0" transform="matrix(1.0, 0.0, 0.0, 1.0, 0.0, 0.0)">
      <path d="M116.55 74.0 Q115.35 73.85 113.75 73.8 111.75 73.85 109.75 74.0 L109.15 74.65 Q111.55 75.4 116.35 77.65 115.95 77.85 115.35 78.25 114.75 77.45 111.75 76.45 107.5 75.0 106.9 74.85 L104.7 75.0 Q107.15 76.25 112.15 78.85 L112.15 80.25 Q110.55 79.05 107.5 77.45 L104.9 77.65 Q105.5 78.05 106.3 78.85 L104.9 78.85 Q104.5 78.85 98.5 77.05 99.5 78.85 101.5 79.25 101.5 79.65 101.5 80.05 101.5 81.05 101.9 81.85 102.1 81.85 103.1 79.85 103.3 80.05 103.3 80.45 103.3 80.85 103.1 81.75 102.9 82.65 102.9 83.25 104.7 82.05 105.1 80.25 105.3 80.45 105.3 80.65 105.3 81.45 101.9 86.65 L101.9 87.45 Q103.1 87.45 105.3 85.65 106.9 84.45 108.55 83.25 108.9 83.45 109.55 83.85 108.3 85.05 104.9 86.85 104.9 87.05 104.9 87.25 105.1 87.65 105.9 87.65 106.3 87.65 110.75 85.05 110.15 85.65 110.15 86.45 110.75 86.85 111.95 86.85 L112.15 86.85 Q111.55 87.05 110.15 87.65 108.7 88.25 108.15 88.65 108.5 89.1 110.55 89.85 111.55 90.3 111.75 91.65 L110.35 91.45 Q109.9 92.1 109.95 93.9 109.95 92.5 108.15 90.45 106.3 88.45 104.3 88.45 103.1 88.45 101.3 89.65 100.3 90.3 99.3 91.05 101.7 91.3 106.3 91.9 105.7 92.25 104.7 92.3 104.1 92.25 103.9 92.1 L103.3 92.7 Q104.7 93.7 106.7 94.5 105.5 94.3 104.0 93.6 102.5 92.85 101.5 92.9 101.1 92.9 100.5 93.1 101.1 94.3 102.1 96.9 100.9 95.3 99.8 93.7 98.7 92.05 97.1 92.1 97.3 92.05 90.65 95.5 91.3 96.5 92.7 96.5 94.9 96.5 98.3 93.9 L98.3 94.1 Q98.3 94.3 98.1 94.7 97.9 95.1 97.9 95.3 98.7 95.5 99.9 96.1 99.1 96.5 97.4 97.0 95.7 97.5 94.7 97.7 97.9 99.7 101.7 99.7 104.3 99.7 105.1 96.5 105.3 96.7 105.5 97.4 105.7 98.1 105.9 98.3 106.55 97.7 107.3 97.7 106.55 98.5 104.7 100.1 105.5 100.5 107.1 101.3 106.3 101.3 104.5 101.1 102.7 101.1 101.8 101.1 100.9 101.1 100.3 101.1 101.7 101.7 104.9 103.5 104.7 103.7 104.3 103.7 102.7 103.7 100.1 102.1 96.9 99.9 96.3 99.7 L94.7 99.9 Q95.7 100.7 97.6 102.0 99.5 103.3 100.1 104.1 99.1 103.3 97.9 103.3 97.5 103.3 97.1 103.5 98.7 104.3 101.9 106.1 L101.9 107.5 Q100.7 107.55 98.1 108.1 98.7 108.55 102.7 110.35 102.3 110.55 101.9 110.55 101.7 110.55 100.9 110.35 100.1 110.15 99.7 110.15 99.3 110.1 98.4 110.75 97.5 111.35 97.1 111.35 98.5 111.35 92.1 110.15 92.65 111.35 94.3 112.15 97.3 113.55 99.3 113.55 101.7 113.55 105.3 111.55 104.9 112.55 102.9 113.75 106.3 114.35 108.15 115.15 107.7 115.35 107.1 115.35 106.7 115.35 105.8 115.35 104.9 115.35 104.3 115.35 105.1 116.35 106.7 117.95 100.7 114.55 98.1 114.55 100.9 116.15 103.5 117.75 107.1 119.95 109.15 119.95 108.7 119.95 108.55 119.95 106.3 119.95 102.3 118.15 L96.1 114.95 Q95.9 115.15 95.7 115.15 95.9 115.35 95.9 115.75 95.9 116.95 98.1 118.45 100.3 119.95 104.7 122.35 104.1 122.35 103.0 121.55 101.9 120.75 101.1 120.75 100.7 120.75 100.3 120.95 101.5 121.95 103.5 123.95 L103.5 126.0 Q100.9 123.55 96.3 118.75 94.7 116.15 93.1 113.55 89.85 109.15 87.05 108.55 L86.85 108.75 86.85 109.35 Q86.85 111.35 89.45 112.85 92.1 114.35 92.7 115.95 L90.85 114.35 Q90.9 116.75 92.5 116.75 92.85 116.75 93.7 116.35 93.5 116.95 93.5 117.35 93.5 118.55 95.3 120.35 L98.5 123.35 Q96.1 121.75 94.7 121.75 94.3 121.75 94.3 122.15 94.3 122.35 94.5 122.75 L94.3 122.75 Q93.9 122.8 93.1 121.35 L90.25 121.75 Q93.7 125.2 97.3 125.2 97.7 125.15 98.7 124.7 99.7 124.15 100.1 124.15 100.9 124.2 101.5 125.6 101.1 125.35 100.7 125.4 99.1 125.35 97.9 126.2 99.7 126.6 103.7 128.2 97.7 127.6 96.5 127.6 99.9 130.0 100.5 130.0 101.7 130.0 101.5 130.0 103.5 130.0 105.7 129.4 105.5 129.6 105.0 130.0 104.5 130.4 104.3 130.6 104.9 130.8 106.9 130.8 L107.1 130.8 Q105.3 131.4 103.3 132.0 105.1 133.2 106.7 133.6 106.9 133.6 100.3 132.6 100.7 133.4 102.4 134.7 104.1 136.0 104.1 137.0 104.1 137.4 103.7 137.8 103.7 136.6 101.9 135.4 101.9 136.2 102.5 138.6 101.9 138.0 100.7 136.8 100.5 137.4 100.5 138.2 100.5 139.05 100.9 139.8 100.5 139.65 99.7 137.8 99.3 138.4 98.3 139.6 99.5 137.0 99.5 134.8 99.5 132.6 97.5 129.9 95.5 127.2 93.5 127.2 L93.5 127.8 Q93.5 128.4 95.5 130.0 96.5 131.0 97.7 131.8 L97.7 134.0 Q97.1 132.8 95.7 131.4 95.7 131.2 96.9 134.6 L96.3 138.2 Q96.3 136.2 94.3 132.0 93.85 133.0 93.7 135.2 93.25 131.8 93.1 128.6 92.05 124.35 88.25 122.75 88.05 123.2 88.05 123.35 88.05 123.6 88.45 125.2 L87.05 123.75 85.65 123.95 Q91.3 127.6 91.25 129.0 L91.25 129.2 91.25 131.0 Q91.1 130.0 89.05 127.6 88.65 128.0 88.65 128.6 88.65 128.8 88.85 129.4 88.85 129.8 88.85 130.0 87.85 128.6 87.05 127.2 85.25 124.75 83.85 124.75 83.65 124.8 83.45 124.75 85.45 128.8 90.25 136.2 90.7 136.6 93.7 137.8 96.1 138.8 96.5 140.6 L94.1 138.6 Q93.9 138.6 93.7 138.8 94.5 140.05 95.3 142.45 94.5 141.4 92.3 138.8 92.05 139.2 92.1 139.8 92.05 140.85 92.5 142.05 91.45 138.4 87.85 134.4 87.85 135.4 88.65 137.4 89.85 140.0 90.25 141.85 89.7 141.6 89.05 140.2 88.45 140.85 88.45 142.45 L88.45 142.65 Q88.25 140.8 87.45 137.2 87.25 137.6 86.85 138.6 86.45 139.6 86.45 140.2 87.05 137.8 87.05 136.0 87.05 132.4 84.65 129.4 84.45 130.2 84.45 131.6 84.45 132.8 84.75 135.0 85.05 137.2 85.05 138.0 84.65 136.2 83.25 132.8 83.05 133.2 81.85 134.4 83.45 131.2 83.45 129.6 83.45 127.8 79.65 119.75 79.05 118.35 77.25 118.35 L75.85 118.35 75.45 118.95 Q76.4 120.55 78.65 124.25 80.85 128.0 82.05 129.6 L80.05 127.6 Q79.85 128.0 79.85 128.6 79.85 129.0 79.85 129.6 80.05 130.4 80.05 130.6 78.85 126.8 76.85 122.75 76.4 124.8 76.45 127.4 76.4 128.2 76.65 129.0 76.2 127.8 75.85 126.0 75.0 127.4 74.4 130.2 75.45 124.35 75.45 122.75 75.4 119.15 72.8 119.15 69.4 119.15 68.0 122.95 67.4 126.6 66.2 134.0 L64.8 174.3 Q64.4 182.75 66.8 199.6 64.4 200.0 61.8 200.0 61.2 200.0 60.0 199.8 58.55 199.8 58.15 199.8 57.8 199.8 57.35 199.8 L62.0 126.8 Q62.2 124.95 59.6 119.75 56.75 113.55 53.95 113.55 52.75 113.55 52.55 116.15 52.55 116.55 53.35 119.35 54.15 122.15 54.15 122.75 53.75 122.15 52.75 120.35 52.35 121.75 51.55 124.6 L51.55 123.15 Q50.95 123.0 50.75 122.95 50.15 123.0 49.95 123.55 49.95 123.4 49.95 123.15 49.95 121.55 51.55 120.15 L51.55 116.55 50.95 115.95 Q47.75 118.15 47.75 122.55 47.75 125.6 49.75 131.0 L48.35 129.6 Q47.55 131.0 47.55 131.6 L47.55 131.8 Q47.55 128.6 47.15 126.6 44.95 128.8 44.95 130.6 44.95 131.0 46.15 135.3 47.35 139.6 47.35 140.2 L47.35 141.2 Q46.75 140.85 46.65 140.4 46.55 140.05 46.35 140.0 45.95 140.05 45.95 140.6 45.75 139.85 45.75 138.4 L45.75 136.0 45.15 135.4 Q44.35 137.0 43.75 140.2 43.75 139.85 43.75 139.4 43.75 137.8 43.35 136.4 40.7 139.4 39.9 143.05 40.75 136.0 40.7 129.6 39.3 130.8 39.3 133.2 39.3 133.6 39.3 134.2 39.3 134.8 39.3 135.2 39.3 137.2 38.7 138.6 38.7 138.2 38.7 137.1 38.7 136.0 38.7 135.4 38.7 133.8 38.3 133.0 36.9 134.6 36.9 137.4 36.9 138.4 37.1 140.4 37.3 142.45 37.3 143.45 37.3 145.05 36.9 146.05 36.9 145.85 36.9 145.65 36.9 143.85 36.5 143.25 L35.1 144.65 Q35.3 144.05 35.8 142.65 36.3 141.2 36.3 140.4 36.3 139.8 36.3 139.6 34.1 141.25 33.5 146.05 33.7 144.65 34.2 141.95 34.7 139.2 34.9 137.8 L33.5 139.2 Q33.9 138.4 36.5 134.8 36.5 134.2 35.9 133.8 34.9 134.4 32.1 136.0 34.7 133.6 39.1 128.4 38.9 128.4 39.1 128.2 38.9 128.4 38.5 128.4 37.5 128.4 35.3 130.8 34.1 132.4 32.7 134.0 34.9 130.8 34.9 130.0 34.9 129.6 34.7 129.4 32.9 129.8 29.3 132.8 29.5 131.6 32.3 129.2 31.1 128.8 28.7 128.2 29.7 127.8 35.1 127.8 34.5 127.0 31.1 125.4 31.9 125.55 34.7 126.3 37.5 127.0 37.9 127.0 40.95 127.0 43.35 122.95 47.55 116.75 47.75 116.55 L47.55 116.35 Q47.15 116.35 46.95 116.35 44.95 116.35 39.9 125.0 39.9 124.35 40.4 123.15 40.95 121.95 40.9 120.75 40.95 120.15 40.9 119.75 39.7 120.15 38.3 122.55 37.5 124.2 36.5 126.0 36.5 125.55 36.7 125.0 36.9 124.35 36.9 124.15 36.9 123.4 36.1 122.95 L39.9 119.15 Q39.7 118.15 38.5 118.15 38.1 118.15 37.3 118.15 36.5 118.35 35.9 118.35 35.9 115.15 41.75 110.95 41.5 110.95 41.1 110.95 33.5 110.95 32.1 121.15 32.5 116.35 33.3 113.15 33.1 113.15 32.9 113.15 31.9 113.15 30.7 113.95 33.1 111.55 36.7 110.85 40.3 110.15 41.55 108.75 41.1 108.1 40.1 108.1 39.9 108.15 34.9 110.15 35.5 108.9 35.5 108.55 35.1 108.95 32.3 110.35 30.5 111.15 30.5 112.35 L30.5 112.55 Q30.1 111.95 30.1 111.55 30.1 111.15 30.4 110.75 30.7 110.35 30.7 109.95 L30.7 108.55 30.1 107.9 Q29.5 109.35 26.7 111.55 29.1 107.9 29.1 107.1 28.9 106.95 28.7 106.7 26.7 108.95 24.9 110.15 26.45 107.7 28.7 105.5 30.1 104.1 30.1 103.3 30.1 102.9 29.9 102.3 27.1 103.3 26.9 103.5 25.05 104.3 24.25 106.1 22.85 108.95 22.85 113.95 22.85 114.55 23.45 116.15 24.1 117.75 24.05 118.55 24.1 118.75 24.05 119.15 23.9 119.75 23.85 120.15 23.9 120.75 24.05 121.15 23.9 119.35 22.25 115.95 21.25 116.95 21.25 119.55 21.25 121.95 22.05 124.6 21.45 122.75 20.25 119.35 18.85 120.15 18.85 122.15 18.85 122.55 18.85 123.05 18.85 123.6 18.85 123.75 18.85 124.0 18.85 124.15 18.85 123.2 18.25 121.75 17.85 122.75 16.85 124.15 L16.85 123.95 Q16.85 123.2 18.85 119.35 21.65 114.95 22.05 113.75 L21.85 111.15 Q21.65 112.15 20.65 113.55 20.45 113.55 20.45 113.35 20.45 112.75 21.45 110.55 22.45 108.3 22.45 106.9 L22.45 106.7 Q18.05 107.75 18.05 111.35 18.05 111.95 18.25 113.55 18.45 115.15 18.45 115.95 18.45 118.75 16.45 120.35 16.45 119.35 17.25 117.65 18.05 115.95 18.05 115.15 18.05 114.35 17.45 113.35 16.05 113.95 15.75 116.35 15.45 118.75 15.05 120.75 15.05 120.35 15.05 119.95 15.05 118.35 14.85 116.95 14.65 117.15 14.05 117.55 13.45 117.95 13.05 118.35 13.45 115.95 16.05 113.75 L15.85 112.55 Q15.05 113.55 12.85 113.85 10.65 114.15 9.65 114.55 10.45 114.15 12.25 112.55 11.05 112.55 8.85 111.75 9.8 111.55 11.45 111.55 12.25 111.55 13.25 111.55 14.25 111.55 14.45 111.55 17.05 111.55 17.25 110.35 17.85 108.3 19.05 107.3 L18.85 107.1 18.45 107.1 Q17.85 107.15 15.75 108.55 13.65 109.9 13.05 110.15 13.05 109.95 15.65 107.3 15.45 107.35 15.25 107.3 15.05 107.35 14.25 107.5 13.45 107.75 13.05 107.7 L9.85 107.7 Q9.8 107.55 10.65 106.5 L9.25 105.1 Q12.65 105.7 16.05 105.7 L16.85 105.7 Q22.65 105.7 24.45 102.7 24.1 102.7 23.05 102.9 22.05 103.1 21.65 103.1 21.45 103.1 17.05 100.9 17.85 100.3 18.25 100.3 L18.45 100.3 Q19.45 99.1 21.35 98.9 23.25 98.7 23.85 97.5 23.25 96.3 22.25 96.3 19.65 96.3 16.65 99.9 15.85 100.9 15.85 104.1 L15.85 104.7 Q15.85 105.1 15.85 105.5 15.65 104.9 15.45 103.7 15.25 102.5 15.05 102.1 14.45 103.3 13.65 104.1 13.65 103.5 13.95 102.3 14.25 101.1 14.25 100.5 13.25 100.3 11.25 100.3 12.65 99.7 15.25 98.5 14.85 97.7 14.25 97.7 13.65 97.7 12.05 98.5 11.65 98.5 11.25 98.5 11.45 98.3 11.75 97.8 12.05 97.3 12.25 97.1 10.25 97.7 6.2 98.5 L6.2 95.9 Q7.0 96.3 8.85 96.3 L9.25 96.3 Q11.65 96.3 17.45 94.3 17.05 93.9 16.25 93.9 15.45 93.9 13.85 94.4 12.25 94.9 11.65 94.9 10.65 94.9 9.65 93.1 8.4 93.3 4.8 93.7 5.6 93.3 7.4 92.3 7.2 91.85 5.8 91.3 6.6 91.45 8.25 91.45 L9.05 91.45 Q10.65 91.5 11.45 91.65 14.65 92.3 22.05 94.5 28.5 96.3 28.9 96.3 L29.7 96.3 Q29.5 94.5 27.1 94.1 25.45 93.9 23.85 93.7 21.85 92.05 17.45 89.25 L18.65 88.65 Q19.45 89.05 21.25 90.05 21.25 89.9 21.45 89.65 21.45 89.05 20.85 88.05 22.25 89.85 25.5 92.9 L28.3 92.5 Q26.7 87.05 22.45 87.05 22.05 87.05 21.25 87.05 20.45 87.25 20.05 87.25 20.05 86.65 21.05 86.05 20.65 85.65 20.05 85.65 19.65 85.65 19.25 85.85 18.85 85.85 18.65 85.85 20.05 84.65 21.25 84.65 21.65 84.65 22.85 84.85 24.1 85.05 24.9 85.05 24.05 83.25 20.05 83.25 18.25 83.25 16.65 86.05 15.45 88.05 14.45 90.05 14.45 89.7 14.75 88.35 15.05 87.05 15.05 86.25 13.85 88.05 10.65 90.05 13.85 86.85 17.45 82.25 17.25 82.25 16.95 82.05 16.65 81.85 16.25 81.85 14.85 81.85 12.45 84.65 9.45 87.85 7.6 88.65 8.65 86.05 8.65 86.25 L8.65 86.05 Q7.8 86.25 6.4 87.65 L4.8 87.65 Q6.8 86.45 10.85 83.85 10.65 83.65 10.25 83.65 9.6 83.65 6.2 84.65 L5.0 84.65 Q5.8 84.05 7.2 82.85 3.8 81.45 1.6 81.05 2.6 81.25 3.4 81.25 7.2 81.25 10.85 78.45 9.8 78.05 7.8 78.05 7.25 78.05 6.8 78.05 8.65 76.85 9.85 76.85 10.2 76.85 11.25 77.05 12.25 77.25 12.65 77.25 14.05 77.25 15.05 76.25 14.65 75.4 12.85 75.45 10.85 75.4 5.6 76.85 5.0 77.65 3.2 79.45 L2.0 79.45 Q2.2 79.25 3.0 77.65 2.2 77.65 0.4 77.05 0.4 77.25 1.4 76.25 L0.0 74.85 Q2.0 75.8 4.8 75.85 7.85 75.8 11.65 74.2 11.05 73.65 10.25 73.6 10.0 73.65 9.85 73.6 L9.45 73.8 Q9.0 73.85 7.0 73.8 5.0 74.05 4.0 74.0 4.6 73.65 6.0 72.8 5.6 72.2 3.2 71.6 4.2 71.0 8.45 71.0 8.0 71.0 6.8 69.8 7.65 70.0 9.05 70.2 10.0 71.6 13.65 73.5 17.25 75.45 19.05 75.45 19.25 75.4 19.45 75.25 14.85 70.4 7.8 69.0 8.25 69.2 8.65 69.2 10.0 69.2 11.65 68.8 11.25 68.4 9.65 66.0 10.0 66.2 11.15 67.1 12.25 68.0 12.65 68.2 12.85 68.0 12.85 67.5 12.85 67.0 13.05 67.0 16.05 71.2 17.25 71.2 17.45 71.2 17.65 71.0 17.25 69.8 15.85 67.6 13.25 66.2 10.05 62.2 10.2 62.4 11.25 63.2 L12.05 62.4 Q12.25 62.6 12.65 63.6 13.05 64.6 13.65 64.6 L14.05 64.4 Q13.05 62.6 12.45 59.8 13.25 61.8 16.85 66.6 17.05 66.4 17.05 66.0 17.05 67.0 15.05 62.0 L15.05 60.8 16.25 61.8 Q16.25 61.6 16.45 61.3 16.65 61.0 16.85 60.8 16.85 63.8 17.65 65.2 L19.25 60.8 Q19.25 62.4 18.85 65.2 18.45 68.0 18.45 68.8 18.45 69.6 19.15 71.2 19.85 72.85 20.65 72.8 20.85 72.8 21.05 72.6 21.05 72.0 20.45 70.0 22.05 72.0 23.65 74.85 23.9 74.6 23.85 74.4 L23.85 73.6 Q23.9 73.25 22.35 70.7 20.85 68.2 20.85 67.8 L20.85 65.8 Q21.45 67.0 22.85 69.2 23.05 68.6 23.05 67.6 23.05 67.0 22.85 65.6 22.85 64.2 22.85 63.4 22.85 62.6 23.05 61.8 23.45 65.0 24.65 69.2 25.7 68.6 25.7 66.8 25.65 64.8 24.45 63.8 26.5 65.2 27.9 65.2 28.1 65.2 28.3 65.0 27.7 64.6 26.9 63.6 29.5 64.6 33.1 68.4 36.1 71.4 38.9 71.4 40.3 71.4 41.55 70.4 38.3 69.0 31.7 65.0 29.7 63.2 27.9 61.2 25.05 58.75 23.45 58.8 23.05 58.75 22.15 59.0 21.25 59.15 20.85 59.2 21.45 59.15 22.05 58.6 21.65 58.15 20.85 57.15 21.25 57.2 22.15 57.35 23.05 57.6 23.65 57.55 23.85 57.6 24.25 57.55 23.5 57.0 22.85 55.55 26.9 58.4 27.5 58.4 L27.7 58.4 Q26.85 57.35 25.3 55.15 26.05 55.35 27.1 56.75 27.3 56.6 27.3 56.35 27.3 56.2 27.2 55.65 27.05 55.15 26.9 54.95 27.5 55.55 28.7 56.75 29.5 56.15 29.5 55.35 29.3 55.95 29.3 56.35 29.3 58.8 31.0 60.1 32.7 61.4 34.3 62.4 32.9 62.2 30.5 60.0 30.3 60.0 30.3 60.6 30.3 62.8 34.1 65.3 37.9 67.8 39.7 67.8 L39.9 67.6 Q38.1 65.6 34.7 64.4 34.7 64.2 35.1 63.6 L35.5 63.6 Q34.5 61.2 31.7 57.75 L34.9 59.8 Q35.1 59.4 35.1 59.0 35.1 58.75 32.3 56.75 32.7 56.8 32.9 56.75 33.9 56.8 34.5 56.55 33.7 55.95 32.3 54.35 31.3 53.35 30.1 53.35 29.7 53.35 29.3 53.55 30.1 53.15 31.3 52.75 30.9 52.35 28.9 51.15 28.1 50.35 28.1 49.55 29.5 50.75 31.1 52.05 32.7 53.35 34.7 53.35 33.1 51.75 32.5 50.15 35.3 53.95 36.7 53.95 37.3 53.95 39.1 52.75 36.5 51.35 31.3 46.75 32.3 47.15 33.9 47.75 L34.1 47.55 Q34.1 46.55 32.1 44.55 36.1 45.75 35.3 45.75 35.5 45.75 35.7 45.55 34.9 44.75 34.9 43.95 35.9 44.35 41.1 49.95 41.35 49.95 41.55 49.75 39.9 47.35 38.5 44.95 36.3 41.7 34.1 41.3 L34.1 39.9 Q34.7 40.55 35.9 41.3 36.1 40.95 37.1 39.7 L36.1 37.9 Q36.9 38.5 39.3 41.75 39.3 41.3 39.3 40.9 39.3 40.35 39.1 39.2 38.9 38.1 38.9 37.5 40.15 38.3 40.1 40.9 40.15 41.15 39.9 41.55 39.9 41.9 39.9 42.15 39.95 44.75 41.1 45.75 42.15 45.35 42.15 44.15 42.1 43.55 41.75 42.35 41.3 41.1 41.35 40.9 L41.35 39.7 Q42.9 40.15 43.55 40.1 43.95 40.15 44.35 40.1 42.9 38.7 40.9 37.3 41.15 37.3 41.35 37.3 42.5 37.3 43.55 37.1 42.7 36.1 39.9 34.7 40.1 34.1 40.1 33.7 40.15 31.9 38.9 31.3 39.1 31.3 39.5 31.3 39.9 31.5 40.3 31.5 40.75 31.3 40.9 31.3 39.75 30.7 38.5 28.7 38.9 28.9 41.4 30.7 43.95 32.5 44.35 32.5 44.55 32.5 44.75 32.3 41.1 28.5 41.1 28.7 41.35 28.1 41.95 28.1 42.1 28.1 42.35 28.1 42.3 27.7 41.75 27.1 41.1 26.45 40.9 26.3 41.15 26.25 41.75 26.6 42.3 26.9 42.75 27.1 42.9 26.7 42.95 26.5 42.9 26.1 42.35 25.1 42.7 25.25 44.75 27.4 46.75 29.5 47.75 29.5 L48.15 29.5 48.35 29.5 48.35 29.3 Q44.75 26.3 41.55 22.65 43.7 24.1 45.55 24.05 45.75 23.9 45.75 23.45 45.75 22.9 44.45 21.55 43.1 20.25 42.95 19.45 45.95 20.85 45.15 20.85 45.75 20.85 45.75 20.45 L45.75 20.25 Q47.35 24.1 49.95 24.05 50.15 23.9 50.15 23.45 50.15 22.25 47.25 19.35 44.35 16.45 44.35 14.85 44.35 14.45 44.55 14.25 45.15 15.45 45.95 16.45 46.35 16.05 46.35 15.65 46.35 15.45 46.15 15.05 46.15 14.65 46.15 14.45 46.75 15.85 47.95 18.45 L48.15 18.45 Q48.35 18.25 48.35 18.05 48.35 17.65 48.05 16.65 47.75 15.65 47.75 15.25 L47.75 12.65 Q48.15 14.05 49.35 16.85 49.75 16.45 50.15 14.05 49.95 15.45 49.95 16.85 49.95 22.85 54.75 30.5 54.75 30.3 54.95 30.1 54.95 28.1 54.35 26.9 54.15 26.3 52.85 24.35 51.55 22.5 51.55 22.05 51.55 21.65 51.75 21.35 51.95 21.05 51.95 20.85 52.15 22.45 53.75 23.85 L53.95 23.85 Q53.75 23.7 53.75 23.15 53.75 22.65 52.45 19.65 51.15 16.65 51.15 15.85 51.55 16.45 52.55 17.85 52.55 16.85 52.95 15.05 53.35 16.85 54.75 21.25 55.35 20.65 55.35 19.05 55.35 17.65 54.95 15.65 L55.15 15.65 Q55.55 15.65 55.95 16.05 56.6 15.25 56.55 14.45 56.55 13.85 56.35 13.05 56.55 13.45 56.75 13.45 57.2 13.45 57.15 13.25 56.35 12.05 54.95 9.65 L55.95 9.65 Q56.35 9.2 56.35 9.05 56.35 8.6 56.15 8.65 56.75 9.2 57.75 10.65 58.2 10.05 58.15 9.05 58.2 9.85 57.95 7.2 L59.2 7.2 Q60.15 8.65 62.2 9.25 L63.4 9.05 Q63.0 8.2 61.3 7.4 59.55 6.65 59.4 5.6 59.75 5.6 60.0 5.6 60.35 5.8 60.6 5.8 60.8 5.6 61.0 5.6 60.55 4.8 59.8 2.8 62.2 5.6 66.6 12.05 L66.8 11.85 Q66.8 11.65 66.8 11.25 66.8 7.4 60.0 1.0 60.4 1.4 61.8 2.2 61.8 0.8 61.4 0.0 61.8 0.4 62.5 1.2 63.2 2.0 63.6 2.4 64.2 1.2 64.2 0.4 64.4 1.8 65.2 4.4 65.6 3.6 65.6 2.0 65.6 1.4 65.6 1.0 66.0 2.6 66.8 7.6 L67.4 8.25 Q68.0 7.6 68.0 6.6 68.0 6.0 67.5 4.2 67.0 2.4 67.0 1.8 67.0 1.2 67.2 0.8 67.2 1.2 68.0 3.4 68.6 2.8 68.6 1.2 L68.6 1.0 Q68.8 1.8 69.4 3.8 69.8 3.6 70.8 0.4 70.0 5.2 68.8 8.45 68.2 10.2 68.2 13.85 68.2 17.85 69.0 21.85 70.4 19.65 70.4 16.85 L69.2 9.65 Q70.0 10.25 70.4 11.25 70.6 10.45 70.9 8.75 71.2 7.0 71.4 6.2 71.4 6.45 71.4 6.6 71.4 7.85 71.8 8.85 72.0 8.4 72.8 6.2 73.0 7.25 73.6 9.25 L74.85 8.0 Q74.0 10.85 74.0 11.45 74.05 11.65 74.85 16.05 75.8 14.85 75.95 12.25 76.0 9.65 76.25 7.4 76.4 8.25 76.85 10.25 77.65 9.4 78.65 7.6 78.65 8.25 78.65 8.45 78.65 8.85 78.05 10.85 78.05 11.05 78.65 11.05 78.85 11.05 81.05 9.05 80.85 9.2 80.55 10.15 80.25 11.05 80.05 11.45 81.05 12.45 81.05 12.25 80.05 12.65 78.05 13.45 79.25 14.05 80.85 14.05 80.65 14.25 79.45 16.15 78.25 18.05 78.25 19.25 78.25 19.65 78.25 20.25 79.25 19.65 79.55 18.05 79.85 16.45 80.25 16.05 81.05 16.85 81.05 18.65 81.05 18.85 80.25 20.65 79.45 22.45 79.45 23.05 L79.45 24.65 Q81.65 24.1 81.65 19.65 81.65 19.25 81.65 18.65 81.65 19.05 82.85 19.45 83.05 19.25 83.45 18.85 83.45 19.25 83.05 20.05 82.65 20.85 82.65 21.85 82.65 22.45 82.65 23.25 82.85 23.05 83.35 22.75 83.85 22.45 84.05 22.25 84.05 23.1 83.45 24.05 83.45 24.3 83.45 24.65 83.45 24.9 83.85 24.85 L84.25 24.85 Q85.25 24.9 85.25 25.3 85.05 25.25 84.85 25.3 82.45 25.25 82.45 27.9 L82.45 28.9 Q83.25 29.3 84.45 29.3 84.65 29.3 84.85 29.3 78.65 30.9 75.45 43.55 L75.65 45.15 Q76.6 44.35 77.85 38.5 77.85 38.9 77.85 39.5 77.85 40.95 78.25 42.35 78.45 41.7 78.65 40.3 78.85 38.95 78.85 38.3 78.85 38.9 79.65 39.9 80.05 36.1 81.25 33.1 81.25 33.7 81.05 34.8 80.85 35.9 80.85 36.5 80.85 37.1 81.05 37.5 81.25 36.5 83.25 34.9 82.05 36.5 81.45 38.1 L81.65 39.7 Q84.45 37.1 84.45 35.1 84.45 33.9 83.85 32.7 83.85 32.9 85.45 38.3 85.85 37.5 85.85 36.1 85.85 32.5 85.65 32.3 84.65 31.5 83.85 30.7 83.85 30.5 84.05 30.5 84.45 30.7 85.25 31.1 85.65 30.5 86.05 29.1 86.65 30.3 86.65 32.1 86.65 32.7 86.65 33.9 86.45 34.9 86.45 35.5 86.45 36.5 86.85 37.3 87.45 36.9 87.45 35.7 87.45 35.3 87.45 34.9 87.45 33.9 87.85 33.5 L87.85 33.7 Q87.85 35.9 88.45 37.5 89.65 35.9 89.65 34.5 L87.25 28.7 88.85 30.1 Q89.45 29.5 89.45 28.5 89.45 30.1 90.25 30.7 90.9 30.1 91.05 30.1 90.3 32.3 90.25 33.9 90.3 35.1 90.65 36.3 91.9 35.7 91.9 34.3 91.85 33.9 91.7 32.1 91.45 30.3 91.45 28.9 L91.45 28.7 Q92.1 29.1 92.3 29.1 92.25 29.7 92.3 30.3 92.25 31.5 92.7 32.5 93.65 30.9 94.1 28.3 94.7 29.9 94.7 29.5 94.7 30.1 93.7 32.4 92.65 34.7 92.7 35.1 92.65 35.3 92.9 35.5 95.5 33.1 96.3 31.5 96.3 34.1 95.1 35.0 93.9 35.9 92.3 37.3 89.85 40.75 89.85 42.95 90.05 43.15 90.25 43.35 91.5 42.55 93.3 40.3 94.3 38.75 96.7 35.3 95.7 38.7 95.7 38.1 95.7 38.3 95.7 38.7 97.3 37.9 97.7 36.9 97.1 38.9 95.5 40.5 L95.7 40.7 96.1 40.7 Q95.3 40.75 99.9 39.1 98.7 39.95 97.3 40.7 95.7 42.15 95.7 43.15 95.7 43.55 96.1 44.15 96.5 43.75 96.9 43.75 96.1 44.55 95.3 46.75 100.9 41.55 100.9 38.7 L100.9 38.5 100.9 39.7 Q101.3 40.15 102.7 40.1 101.7 40.95 101.3 41.75 L102.1 42.75 Q102.1 42.5 101.9 42.55 99.3 42.5 98.1 45.15 98.9 45.35 99.9 45.35 100.1 45.35 100.7 45.35 101.3 45.15 101.7 45.15 104.3 45.15 105.3 45.95 104.7 46.15 103.7 46.75 103.7 46.95 106.7 49.75 106.1 49.55 103.8 47.95 101.5 46.35 100.9 46.35 100.7 46.35 100.5 46.55 101.9 47.95 102.9 48.35 L99.1 47.15 Q98.5 47.15 95.8 49.45 93.1 51.75 92.1 53.15 L92.3 54.95 Q94.5 52.75 95.7 50.55 95.7 51.55 93.9 55.75 95.9 55.55 96.7 53.55 97.9 50.35 98.5 49.95 98.5 50.15 98.3 50.85 98.1 51.55 98.1 52.15 98.1 52.55 98.1 52.95 99.3 52.15 101.5 50.95 99.9 52.75 99.9 53.15 99.9 53.35 100.5 53.35 100.9 53.35 101.8 52.55 102.7 51.75 103.1 51.55 103.1 51.95 103.1 52.15 103.1 52.55 102.9 52.75 102.9 53.35 104.3 53.35 103.5 53.75 101.3 55.15 101.7 56.4 105.7 57.15 105.1 57.4 104.3 57.35 103.3 57.4 102.1 56.95 101.7 58.0 100.3 59.8 101.1 60.2 102.3 60.2 102.5 60.2 102.8 60.2 103.1 60.2 103.3 60.2 L103.3 61.6 103.3 61.8 Q103.3 62.4 102.7 63.6 102.1 64.8 102.1 65.6 102.1 66.2 102.3 66.8 101.3 67.0 98.5 69.2 98.7 69.4 99.1 69.4 L99.9 69.2 Q105.1 69.2 105.1 64.2 105.1 62.6 104.5 61.0 105.1 62.4 105.9 63.8 L106.9 61.8 Q106.95 62.0 106.9 62.2 106.95 65.2 104.9 67.8 L105.1 68.0 Q105.3 68.0 105.7 68.0 106.5 68.0 109.95 63.6 109.7 64.4 109.15 66.4 109.5 66.6 110.75 66.6 110.15 67.0 108.65 67.7 107.1 68.4 106.3 68.8 108.15 68.8 110.75 69.8 110.75 70.0 110.55 70.2 110.35 70.2 110.35 70.0 107.9 70.6 107.3 72.8 107.55 73.0 107.7 73.0 110.15 73.0 115.15 68.0 114.75 68.8 114.15 70.2 114.35 70.2 114.55 70.2 L115.75 69.6 Q116.15 70.2 116.15 70.6 115.15 70.8 112.55 72.4 113.95 72.8 116.55 74.0 M12.85 93.7 L12.85 93.1 10.25 92.7 10.25 93.3 12.85 93.7 M17.05 80.65 Q13.85 80.05 12.05 79.25 10.85 81.45 10.85 81.25 12.05 81.25 14.15 80.95 16.25 80.65 17.05 80.65 M18.05 96.3 L18.05 95.7 12.25 96.5 12.25 97.1 18.05 96.3 M22.85 82.25 Q19.05 76.85 17.65 76.85 17.25 76.85 16.05 77.25 18.45 79.65 22.85 82.25 M24.9 79.45 Q24.85 78.45 23.35 76.45 21.85 74.4 21.05 74.4 22.05 77.45 24.45 80.85 24.9 80.05 24.9 79.45 M23.65 100.3 L23.25 99.9 22.05 100.7 22.25 101.1 23.65 100.3 M33.1 99.9 Q29.3 100.5 24.45 100.9 24.9 99.5 25.7 97.3 27.7 97.5 33.1 99.9 M26.3 66.0 Q26.25 67.0 26.1 69.7 25.85 72.4 25.9 73.6 25.85 74.85 26.1 75.85 28.1 72.2 28.5 70.2 L31.7 70.2 Q30.1 69.8 27.9 68.2 28.5 68.0 28.9 68.0 29.9 68.0 30.9 68.4 31.9 68.8 32.1 68.8 L32.3 68.8 Q30.1 67.6 26.3 66.0 M28.3 82.05 Q28.3 80.85 27.5 77.45 26.45 80.85 26.5 81.65 26.45 84.05 27.9 86.65 27.9 85.85 28.1 84.15 28.3 82.45 28.3 82.05 M29.7 61.0 L27.9 58.6 27.5 59.0 29.3 61.4 29.7 61.0 M50.15 86.85 Q49.75 86.85 48.35 86.85 47.15 86.65 46.75 86.65 46.35 86.65 45.95 86.65 45.55 86.65 45.35 86.65 44.35 86.65 42.35 88.25 42.7 90.3 44.55 93.5 44.15 92.9 42.15 89.65 40.5 87.05 40.1 87.05 39.5 87.05 39.5 87.35 39.5 87.65 38.9 87.65 38.7 87.65 38.1 87.25 37.5 86.85 36.7 86.85 37.9 88.45 40.5 91.65 37.7 90.7 34.3 88.65 L33.7 89.25 Q34.7 90.1 36.7 91.65 35.5 91.7 33.7 93.1 34.7 93.7 36.7 93.7 36.5 93.7 36.2 94.0 35.9 94.3 35.5 94.3 31.3 94.3 31.3 91.9 31.3 91.25 31.6 89.65 31.9 88.05 31.9 87.25 31.9 86.65 31.9 86.05 30.7 87.65 30.1 89.05 29.9 88.65 29.9 88.05 29.9 87.05 32.3 84.95 34.7 82.85 34.7 81.25 L34.7 81.05 34.1 80.45 Q33.7 81.25 32.1 82.85 32.1 82.45 32.3 81.45 32.3 80.25 32.3 79.65 L30.5 77.45 Q30.3 77.65 30.1 77.95 29.9 78.25 29.9 78.45 27.7 76.25 27.7 76.05 27.7 75.4 29.5 71.6 29.9 72.0 31.1 72.0 31.3 72.0 31.9 72.0 32.5 72.0 32.9 72.0 35.7 72.0 36.5 74.0 34.3 74.45 33.1 75.25 33.3 76.2 34.7 76.85 34.7 77.45 34.1 78.05 34.5 78.45 35.1 78.45 35.7 78.45 36.7 77.45 L36.5 78.45 Q36.5 79.45 37.5 79.65 L36.7 80.45 Q36.9 81.45 38.5 82.65 L41.1 84.45 Q40.75 84.45 36.9 82.65 36.7 82.85 36.7 83.05 36.9 83.45 37.1 83.65 37.1 83.45 35.7 84.85 36.1 86.25 38.5 86.25 38.7 86.25 39.0 86.25 39.3 86.25 39.5 86.25 39.9 86.25 42.45 85.95 44.95 85.65 45.35 85.65 47.55 85.65 50.15 86.85 M29.7 75.85 L29.3 75.85 28.9 77.45 29.3 77.45 29.7 75.85 M30.1 83.85 L30.1 83.05 29.5 83.05 29.5 83.85 30.1 83.85 M43.95 105.5 Q41.5 104.7 41.1 104.7 40.55 104.7 37.9 105.6 35.3 106.55 35.1 106.5 34.7 106.55 33.8 105.7 32.9 104.9 32.1 104.7 31.7 106.15 31.7 108.1 31.7 108.75 31.7 109.15 33.9 106.9 37.7 106.9 37.9 106.95 38.5 106.9 38.9 107.15 39.3 107.1 42.35 107.15 43.95 105.5 M39.1 102.9 Q37.5 102.1 32.7 102.1 32.7 102.3 32.3 102.9 33.7 103.1 35.5 103.1 37.5 103.1 39.1 102.9 M37.9 56.35 L32.7 54.15 32.7 54.75 37.7 56.75 37.9 56.35 M51.15 61.6 Q46.95 58.35 44.95 58.4 44.55 58.35 43.05 59.3 41.5 60.2 41.1 60.2 40.55 60.2 40.4 60.0 40.3 59.8 40.1 59.8 40.15 59.35 40.7 58.8 41.15 58.75 41.65 58.5 42.1 58.15 42.35 58.2 L40.5 58.2 Q39.5 58.15 35.5 58.2 38.1 63.4 40.1 65.8 39.3 64.2 39.3 63.8 39.3 63.4 39.5 62.8 40.5 63.6 40.7 64.4 41.75 64.4 43.15 65.2 42.9 64.2 42.15 62.8 43.75 63.8 44.35 65.2 45.35 64.6 46.75 63.6 L42.55 61.6 43.15 61.2 Q43.55 61.2 44.15 61.2 L44.95 61.4 Q44.55 61.0 44.55 60.6 L44.75 60.2 Q48.15 62.2 49.75 62.2 50.55 62.2 51.15 61.6 M44.15 98.3 Q43.35 96.1 43.35 95.7 41.7 94.3 39.9 94.3 39.3 94.3 37.5 95.0 35.7 95.7 35.7 96.1 35.7 97.1 37.4 98.7 39.1 100.3 40.1 100.3 40.5 100.3 40.6 100.0 40.75 99.7 41.1 99.7 41.55 99.7 41.85 100.0 42.1 100.3 42.35 100.3 39.9 98.7 39.1 97.5 39.9 97.1 40.5 97.1 40.95 97.1 41.1 97.3 41.15 95.9 41.75 95.9 42.5 96.7 44.15 98.3 M45.95 57.15 Q44.75 56.2 43.75 54.35 43.3 53.55 41.95 53.55 41.5 53.55 39.6 53.95 37.7 54.35 36.7 54.35 38.1 55.35 40.3 55.95 44.75 56.8 45.95 57.15 M38.3 80.25 Q38.3 80.05 38.5 79.45 38.5 79.05 38.5 78.85 38.5 78.45 38.3 78.45 L37.5 79.45 38.3 80.25 M41.95 78.45 Q40.3 78.05 38.1 76.65 38.3 76.45 38.6 76.05 38.9 75.6 38.9 75.45 40.55 76.45 41.95 78.45 M54.55 74.65 Q47.35 71.6 43.55 71.6 L43.15 71.6 Q41.5 71.6 39.9 73.6 41.75 74.85 43.05 77.45 44.35 80.05 45.75 81.05 L44.75 81.85 Q43.35 81.05 40.3 79.45 42.35 83.85 44.15 83.85 L45.95 83.85 Q45.95 82.85 45.95 83.05 45.95 82.45 46.35 81.45 45.55 79.25 42.55 75.0 42.7 74.85 43.05 74.7 43.35 74.65 43.55 74.4 45.35 75.05 46.15 75.0 L46.35 75.0 Q45.95 74.05 45.95 73.2 L45.95 73.0 Q46.75 75.45 51.55 75.45 52.55 75.4 54.55 74.65 M42.15 132.4 L41.55 132.4 41.1 135.8 41.75 135.8 42.15 132.4 M43.75 133.4 L43.35 133.4 41.55 137.4 41.95 137.6 43.75 133.4 M47.95 70.6 Q47.75 70.0 41.75 65.6 41.7 67.0 43.65 68.8 45.55 70.6 46.95 70.6 L47.95 70.6 M52.55 111.75 Q50.95 110.35 50.15 109.95 47.95 111.35 45.15 114.75 L44.55 114.15 44.55 113.95 Q44.55 111.75 46.05 110.75 47.55 109.75 48.75 109.15 47.15 107.5 46.55 107.5 45.35 107.55 43.65 111.05 41.9 114.55 41.75 115.95 44.75 115.35 47.95 114.65 51.15 113.95 52.55 111.75 M44.35 35.5 Q43.95 35.1 43.95 34.5 L42.35 34.3 Q44.55 35.5 44.35 35.5 M46.55 55.35 L46.55 54.15 Q46.35 52.95 44.95 50.55 43.55 48.15 43.55 47.75 43.55 46.95 44.35 46.95 L44.55 46.95 Q44.15 46.55 44.15 45.95 44.15 45.55 44.35 44.85 44.55 44.15 44.55 43.75 44.35 43.75 43.75 43.95 43.1 44.15 42.95 44.15 L42.95 47.55 42.95 47.75 Q42.9 49.55 44.15 52.15 44.75 53.55 46.55 55.35 M48.75 104.3 Q47.35 103.9 47.35 102.7 46.95 102.7 43.35 101.7 44.55 104.3 48.35 104.3 48.55 104.3 48.75 104.3 M55.15 90.25 Q50.55 89.05 50.95 89.05 49.75 89.05 47.15 93.1 46.95 92.5 46.95 91.45 46.95 91.1 46.95 90.85 L45.95 91.05 Q45.35 90.7 45.35 90.05 46.55 89.05 48.35 88.45 47.15 88.25 45.95 88.25 44.75 88.25 43.95 88.45 44.35 90.7 47.25 94.7 50.15 98.7 52.15 98.9 48.75 95.5 48.75 94.5 L48.75 94.1 48.95 93.9 Q49.35 94.3 49.95 94.7 50.55 95.1 50.75 95.1 49.35 93.1 49.35 92.1 49.95 91.85 51.95 90.05 52.95 91.1 53.35 91.05 54.35 91.1 55.15 90.25 M47.95 31.7 Q47.55 31.5 46.95 30.7 L44.75 30.7 44.75 30.9 Q44.75 31.7 45.55 31.7 45.75 31.7 46.35 31.7 47.15 31.5 47.35 31.5 47.75 31.5 47.95 31.7 M49.35 40.1 Q47.15 38.9 46.95 38.9 L46.75 38.9 44.95 38.9 Q46.55 40.75 47.95 40.7 48.75 40.75 49.35 40.1 M58.15 54.35 Q56.8 50.95 55.15 45.15 54.35 44.15 53.55 44.15 53.15 44.15 52.05 44.45 50.95 44.75 50.35 44.75 49.15 44.75 47.95 44.15 L47.95 42.75 Q48.95 42.95 49.95 42.95 51.35 42.95 52.75 42.55 52.55 42.5 51.75 42.25 50.95 41.9 50.35 41.9 50.95 41.95 45.35 43.15 47.95 48.55 54.15 50.75 52.75 49.95 51.35 49.15 49.35 47.95 49.35 46.95 49.35 47.75 49.75 45.35 L50.55 45.35 Q51.15 45.75 51.95 46.35 51.95 45.15 52.95 45.15 54.75 48.35 58.15 54.35 M61.4 71.6 Q60.4 69.0 59.2 69.0 58.75 69.0 57.25 69.3 55.75 69.6 55.35 69.6 55.15 69.6 54.55 69.6 53.35 69.6 52.15 68.4 53.95 68.2 57.15 67.8 L56.95 67.8 Q54.35 67.8 50.75 65.8 51.95 65.0 52.55 65.0 52.15 64.8 51.35 63.2 48.75 64.2 45.75 66.0 46.15 66.4 46.65 67.1 47.15 67.8 47.15 68.0 47.55 67.2 48.15 66.2 50.35 71.8 53.15 72.0 L49.75 67.8 Q49.95 67.6 50.15 67.6 L50.35 67.6 Q51.15 67.8 52.35 69.3 53.55 70.8 53.55 71.6 53.95 71.6 54.65 71.8 55.35 72.0 55.55 72.0 55.15 71.6 55.15 71.2 55.15 70.8 55.35 70.6 56.55 70.6 57.15 70.8 L57.95 70.8 Q57.8 70.8 57.75 70.6 57.8 70.0 58.4 70.0 60.8 71.6 61.4 71.6 M47.75 24.25 L46.55 23.05 46.35 23.45 47.35 24.65 47.75 24.25 M49.15 37.5 L46.55 36.1 46.35 36.5 48.95 38.1 49.15 37.5 M51.35 77.65 L51.35 77.05 46.35 77.05 46.35 77.65 51.35 77.65 M50.35 53.95 Q48.35 52.35 48.35 51.75 L49.35 50.55 47.35 50.55 Q47.35 53.35 50.35 53.95 M51.55 81.05 L49.55 79.85 49.35 80.25 51.15 81.45 51.55 81.05 M52.55 51.75 Q52.15 51.75 51.25 51.55 50.35 51.35 50.15 51.35 51.15 51.95 51.95 52.95 51.95 52.15 52.55 51.75 M56.75 111.35 Q54.75 106.9 53.35 105.1 51.95 105.7 50.75 106.9 52.95 108.35 56.75 111.35 M52.55 95.7 L52.55 94.3 51.55 94.3 Q52.55 95.5 52.55 95.7 M64.0 92.1 Q64.0 90.45 63.4 89.55 62.8 88.65 60.4 86.75 57.95 84.85 57.95 84.45 58.0 83.85 58.15 83.85 L59.6 84.25 Q59.55 82.85 60.0 82.85 60.8 84.85 64.0 87.05 L64.0 84.85 64.0 84.65 Q64.0 84.05 62.5 82.35 61.0 80.65 60.6 80.65 60.0 80.65 58.3 81.25 56.55 81.85 55.95 81.85 55.75 81.85 55.35 81.85 54.75 81.85 54.55 81.45 55.95 80.25 56.35 80.25 L56.55 80.25 Q53.55 79.45 53.55 78.45 L53.55 78.05 Q53.75 77.85 54.05 77.85 54.35 77.85 55.15 77.55 55.95 77.25 56.35 77.25 56.75 77.25 58.4 78.05 59.95 78.85 60.6 79.05 57.35 76.45 55.75 76.45 L51.75 79.05 Q53.15 82.25 53.75 83.05 55.15 85.85 56.55 86.25 56.6 85.85 56.55 85.45 56.55 84.45 56.75 84.05 58.2 85.85 60.6 90.65 62.0 93.5 63.6 93.9 63.6 93.7 63.8 93.2 64.0 92.65 64.0 92.1 M54.35 33.9 L52.75 32.1 52.35 32.3 53.75 34.3 54.35 33.9 M57.15 39.7 Q54.35 35.5 53.55 35.5 L52.55 35.5 Q55.95 39.1 57.15 39.7 M53.55 58.4 L53.55 56.95 52.95 56.95 52.95 58.4 53.55 58.4 M60.0 93.7 Q57.75 91.45 56.35 91.45 53.75 91.5 53.75 93.5 53.75 93.9 54.05 94.5 54.35 95.1 54.35 95.3 54.35 95.1 54.75 94.6 55.15 94.1 55.35 93.9 55.95 95.1 55.95 95.5 58.6 94.3 60.0 93.7 M59.0 59.8 L54.35 57.15 54.15 57.75 58.8 60.2 59.0 59.8 M61.6 66.4 Q61.0 65.2 61.0 63.8 61.0 63.0 61.4 62.6 59.35 62.4 54.15 59.4 55.35 61.6 57.35 62.8 60.0 64.6 61.6 66.4 M57.95 66.2 L54.35 64.0 54.15 64.6 57.75 66.6 57.95 66.2 M55.75 43.55 L55.75 42.95 54.55 42.95 54.55 43.55 55.75 43.55 M57.15 103.3 Q56.15 101.7 54.95 101.7 55.35 102.9 55.95 103.3 L57.15 103.3 M55.95 26.9 L55.95 23.25 55.35 23.25 55.35 26.9 55.95 26.9 M56.95 97.3 L55.55 97.3 Q55.55 97.5 55.35 98.1 55.35 98.7 55.35 98.9 L56.95 97.3 M57.95 72.4 Q56.35 72.4 55.55 72.0 55.75 72.2 56.35 72.7 57.0 73.25 57.15 73.4 L57.95 72.4 M66.4 40.7 Q65.6 37.5 64.0 33.7 59.4 31.1 59.4 30.5 59.35 30.1 59.8 29.9 59.75 29.7 59.5 28.9 59.15 28.1 59.2 27.7 56.15 29.7 56.15 31.5 56.15 33.1 60.2 40.3 60.2 39.3 61.2 39.3 61.6 39.3 62.2 39.3 L63.0 39.5 Q61.4 38.7 58.4 36.7 58.55 36.5 59.6 36.5 59.95 36.5 60.4 36.5 58.55 33.9 58.6 32.1 58.55 31.9 58.8 31.7 60.15 33.3 60.8 34.9 61.0 34.7 61.2 34.2 61.4 33.7 61.6 33.5 62.2 34.1 62.4 34.1 62.4 34.9 62.8 35.9 63.2 36.9 63.2 37.1 63.2 36.9 63.8 36.3 64.8 37.9 66.4 40.7 M63.8 99.5 Q63.8 95.3 60.6 95.3 59.95 95.3 58.6 97.5 57.15 99.7 56.15 100.1 56.35 99.9 56.55 99.9 57.4 99.9 63.0 105.1 63.0 104.1 63.4 101.9 63.8 99.7 63.8 99.5 M63.0 110.95 Q63.0 105.1 59.4 105.1 L56.15 105.1 Q59.0 109.95 62.0 117.35 62.2 116.35 62.6 113.85 63.0 111.35 63.0 110.95 M57.55 22.25 Q57.4 21.85 57.15 21.05 57.0 20.25 56.75 19.85 56.35 20.65 56.35 21.85 56.55 21.65 56.75 21.65 57.0 21.65 57.55 22.25 M60.0 48.15 L60.0 46.95 Q60.0 46.15 58.5 44.85 56.95 43.55 56.35 43.35 56.4 45.35 60.0 48.15 M58.8 15.85 Q58.35 15.85 57.75 15.45 57.2 15.05 56.95 15.05 57.0 15.25 57.15 15.85 57.4 16.45 57.35 16.65 57.6 16.65 58.1 16.25 58.55 15.85 58.8 15.85 M59.4 20.45 L58.4 18.45 57.75 18.65 59.0 20.45 59.4 20.45 M64.2 79.65 Q64.4 79.65 64.4 79.45 64.4 78.05 63.2 75.75 62.0 73.4 60.6 73.4 60.0 73.45 58.4 74.2 60.35 76.25 64.2 79.65 M65.0 64.0 Q63.4 59.6 60.8 50.35 60.2 49.95 58.8 49.15 59.35 53.55 60.2 58.4 60.2 58.15 60.2 57.75 60.2 57.4 60.2 57.15 60.2 55.4 61.2 54.35 61.4 55.95 62.2 59.4 63.2 61.0 65.0 64.0 M63.0 30.1 Q62.2 27.9 61.2 26.3 60.0 27.5 59.4 27.5 L61.2 29.3 61.2 29.1 Q61.2 28.3 61.6 28.1 62.6 29.1 63.0 30.1 M60.4 11.45 L59.8 11.45 59.6 13.65 60.2 13.65 60.4 11.45 M60.4 23.85 L60.0 22.85 59.6 23.05 60.0 23.85 60.4 23.85 M66.8 47.55 Q66.8 44.15 64.6 41.1 64.4 41.15 64.1 41.1 63.8 41.15 63.0 41.1 62.2 41.15 62.0 41.1 61.2 41.15 60.8 41.1 61.0 41.75 61.9 43.25 62.8 44.75 63.0 45.35 63.0 44.75 63.6 43.35 64.2 43.95 64.8 43.95 64.8 43.75 65.0 43.35 L65.4 43.95 65.4 46.15 Q65.4 46.35 65.2 48.85 65.0 51.35 65.0 53.35 65.0 55.55 65.2 57.35 65.4 56.0 66.1 51.85 66.8 47.75 66.8 47.55 M62.4 11.85 L61.0 11.85 Q62.0 13.45 62.0 13.25 L61.8 13.45 Q61.8 12.25 62.4 11.85 M64.6 72.4 L64.6 67.8 64.6 67.6 Q64.6 66.2 61.8 63.2 62.8 65.0 63.6 68.0 64.6 71.8 64.6 72.4 M63.4 17.45 L62.8 14.85 62.2 14.85 63.0 17.45 63.4 17.45 M67.4 31.5 L67.4 27.5 Q67.4 25.9 65.4 23.05 63.4 20.25 62.2 19.85 62.6 24.3 62.6 24.45 62.6 22.65 63.0 21.85 L63.8 21.85 Q64.2 22.65 64.2 23.25 L64.2 23.45 65.0 22.85 Q65.6 23.7 65.6 24.45 65.6 25.1 65.2 26.1 64.8 27.1 64.8 27.5 65.8 29.1 67.4 31.5 M66.4 19.05 Q66.4 18.25 65.2 17.05 L65.2 18.45 65.4 18.45 Q65.2 18.45 66.4 19.05 M67.2 22.85 L67.0 19.25 66.4 19.25 66.6 22.85 67.2 22.85 M67.6 37.9 L67.6 36.5 67.0 36.5 67.0 37.9 67.6 37.9 M69.8 108.1 Q69.0 108.95 67.4 110.55 L68.8 110.55 Q69.8 109.55 69.8 108.1 M82.05 83.25 Q79.45 86.05 74.85 86.05 74.4 86.05 74.0 85.65 73.65 85.25 73.2 85.25 67.8 85.25 67.8 95.5 67.8 96.1 67.8 96.9 68.0 97.9 68.0 98.3 68.0 100.9 67.6 101.7 69.0 100.1 69.0 98.1 69.0 97.5 68.8 96.3 68.6 95.1 68.6 94.5 68.6 92.3 70.0 90.85 70.6 94.3 70.6 95.7 70.6 96.1 70.6 96.3 71.6 94.9 72.2 91.4 72.8 87.85 73.4 86.65 73.85 86.85 74.4 87.25 L74.4 89.45 Q75.05 88.05 75.85 87.45 76.0 87.45 76.15 87.75 76.2 88.05 76.45 88.25 75.8 90.3 74.85 92.1 78.45 88.65 82.05 83.25 M70.2 59.8 Q70.2 58.55 69.4 54.35 68.2 59.6 68.2 66.4 68.2 67.6 68.4 68.6 70.2 63.0 70.2 59.8 M74.0 113.75 Q72.8 113.55 71.0 112.95 69.2 115.55 69.2 116.55 L69.2 118.35 Q71.2 117.35 74.0 113.75 M72.2 48.15 L72.2 44.55 Q72.2 42.7 70.8 38.9 70.0 41.95 69.4 48.55 69.4 46.55 71.0 43.75 71.2 44.75 71.2 46.15 71.2 47.75 71.0 48.75 71.6 48.15 72.2 48.15 M83.45 59.4 Q79.25 61.6 79.25 63.2 79.85 62.6 80.45 62.6 80.65 62.6 81.25 62.8 78.85 67.8 73.6 68.8 71.4 72.6 70.0 76.45 L77.45 68.2 Q82.45 62.8 83.45 59.4 M73.6 81.25 Q73.65 80.85 72.4 78.45 71.6 80.25 70.2 83.85 L71.8 83.85 Q73.65 83.25 73.6 81.25 M80.45 95.9 L78.25 95.9 78.05 95.9 Q72.2 95.9 70.2 102.1 70.4 101.9 70.8 101.4 71.2 100.9 71.4 100.7 71.8 101.3 71.8 102.1 L71.6 101.9 Q71.8 101.7 72.2 101.7 73.0 101.7 73.0 102.9 L73.0 103.1 Q77.05 97.5 80.45 95.9 M71.0 54.55 L71.0 51.35 70.4 51.35 70.4 54.55 71.0 54.55 M72.0 37.9 L71.6 35.5 71.0 35.5 71.4 37.9 72.0 37.9 M72.6 63.8 Q71.8 65.2 71.0 69.2 72.6 67.8 72.6 67.2 L72.6 63.8 M72.4 13.25 L72.4 12.45 71.8 12.45 71.8 13.25 72.4 13.25 M72.8 16.65 L72.2 16.45 71.8 17.25 72.2 17.45 72.8 16.65 M79.65 114.35 Q78.05 107.75 73.8 107.5 72.2 109.75 72.0 110.55 76.45 113.15 79.65 114.35 M73.0 29.7 L72.4 29.7 72.2 32.5 72.6 32.5 73.0 29.7 M73.0 19.45 L73.0 17.45 72.4 17.45 72.4 19.45 73.0 19.45 M74.4 64.2 Q74.45 62.8 74.1 59.9 73.85 56.95 73.8 55.55 73.2 57.2 72.4 61.2 72.4 60.0 73.2 60.0 L73.4 60.0 Q73.6 61.6 74.4 64.2 M78.25 45.55 Q73.6 46.95 73.6 50.95 L73.6 51.15 73.6 52.95 Q75.05 52.55 75.25 51.35 75.6 49.15 77.25 46.75 77.45 46.95 77.55 47.25 77.65 47.55 77.65 47.75 77.45 48.55 77.45 49.35 77.45 49.95 77.65 50.15 77.85 48.55 78.25 45.55 M77.45 116.55 L75.45 114.75 Q74.8 115.95 73.6 116.15 74.85 116.55 77.45 116.55 M75.45 35.1 L75.45 34.9 Q75.4 33.1 73.8 30.7 74.45 33.3 74.4 35.3 74.45 36.3 74.1 38.1 73.85 39.9 73.8 40.9 L73.8 41.1 Q75.45 36.1 75.45 35.1 M85.45 52.35 L85.45 51.15 Q84.45 51.55 82.85 51.55 82.45 51.55 81.95 51.55 81.45 51.55 81.25 51.55 78.25 51.55 76.45 53.15 79.45 52.75 80.85 52.75 81.65 52.75 82.45 52.75 82.25 53.15 82.25 53.35 80.45 54.75 78.85 54.75 76.2 54.75 74.0 55.55 75.65 56.0 75.65 58.2 75.6 58.35 75.45 58.8 75.4 57.15 77.45 55.95 L77.45 57.75 Q77.45 57.0 76.65 61.8 77.85 60.8 78.45 58.7 79.05 56.55 79.85 55.55 L80.45 56.15 Q80.45 56.8 80.45 57.35 L80.25 57.95 Q81.05 56.4 82.65 53.55 L83.25 54.35 84.25 53.95 84.25 55.35 Q83.85 55.75 83.85 56.55 L83.85 56.95 Q85.45 54.35 85.45 52.55 L85.45 52.35 M78.05 25.3 Q77.45 25.45 76.35 25.9 75.2 26.3 74.6 26.5 74.65 27.3 75.45 28.1 L76.25 27.3 Q76.85 28.3 76.85 30.1 76.85 30.5 76.85 30.7 77.0 29.9 77.45 28.1 77.85 26.3 78.05 25.3 M78.45 80.25 Q76.4 80.45 75.05 83.85 L76.85 83.85 Q77.65 83.85 77.95 82.65 78.25 81.45 78.45 80.25 M78.05 75.85 L76.85 75.85 Q75.4 76.85 75.45 79.85 75.4 80.25 75.45 80.65 76.4 78.85 78.05 75.85 M77.45 63.2 L77.05 63.2 75.65 65.8 76.25 66.0 77.45 63.2 M81.45 89.85 Q78.45 91.3 75.65 94.1 L77.25 94.1 Q78.25 94.1 81.45 89.85 M78.05 14.85 L78.05 13.65 Q76.65 14.25 76.25 16.65 78.05 15.45 78.05 15.05 L78.05 14.85 M85.85 72.6 Q82.85 71.0 81.25 71.0 79.65 71.0 76.45 73.6 81.05 72.65 85.85 72.6 M78.25 22.25 L76.65 23.85 78.05 23.85 Q78.05 23.7 78.25 23.05 78.25 22.45 78.25 22.25 M81.65 103.5 Q80.45 103.1 79.85 103.1 79.25 103.5 77.65 104.3 82.05 103.5 81.65 103.5 M82.85 25.7 Q82.65 25.65 82.05 25.5 81.45 25.25 81.25 25.3 78.45 28.5 78.45 32.1 78.85 31.9 82.85 25.7 M83.25 76.65 Q81.45 75.8 80.45 75.85 80.25 75.8 78.85 77.45 81.65 76.65 83.25 76.65 M89.65 118.95 L89.65 117.55 Q89.65 117.15 87.95 113.85 86.25 110.55 85.65 109.15 85.65 109.55 85.85 110.55 85.85 111.55 85.85 112.15 85.85 112.95 85.65 113.75 84.45 112.75 84.25 110.55 84.05 108.3 83.05 107.3 L79.05 107.3 Q81.45 108.35 83.85 110.15 L83.25 110.55 Q81.05 109.95 80.85 109.95 84.45 113.75 85.25 115.55 86.25 115.35 88.25 116.55 87.65 117.55 86.85 117.55 86.65 117.55 86.45 117.55 86.05 117.35 85.85 117.35 85.45 117.55 85.25 117.55 85.05 118.15 84.45 118.15 86.45 119.35 87.85 119.35 89.25 119.35 89.65 118.95 M85.25 77.65 Q83.05 78.25 79.25 79.65 L79.25 80.85 Q81.25 79.85 80.85 79.85 81.05 80.05 81.15 80.35 81.25 80.65 81.45 80.85 81.25 81.45 80.45 82.45 L82.25 82.45 Q82.25 82.85 82.25 83.25 84.05 82.45 84.65 80.45 84.85 79.05 85.25 77.65 M82.85 43.55 Q81.85 43.75 79.85 45.75 80.85 45.75 80.85 46.55 80.85 45.95 79.85 49.15 80.45 48.35 81.35 46.35 82.25 44.35 82.85 43.55 M81.45 117.15 L80.25 116.55 80.05 117.15 81.25 117.75 81.45 117.15 M85.45 102.3 Q85.05 101.3 83.45 101.0 81.85 100.7 80.65 100.3 L80.25 101.7 Q81.85 101.7 82.25 103.3 83.45 102.9 85.45 102.3 M87.85 65.2 L87.85 64.0 Q87.25 63.4 86.45 62.4 81.45 66.6 80.45 68.8 80.85 68.8 81.15 68.8 81.45 68.8 81.85 68.8 82.45 69.0 82.65 69.0 84.65 69.0 85.05 67.1 85.45 65.2 86.45 64.2 86.65 64.8 87.05 65.8 L87.85 65.2 M90.25 81.45 L88.85 80.85 Q85.45 83.05 80.45 87.65 L81.85 87.65 82.05 87.65 Q82.45 87.65 85.55 84.95 88.65 82.25 90.25 81.45 M93.7 100.3 Q93.5 99.7 90.95 98.1 88.45 96.5 87.85 96.5 87.65 96.5 80.45 98.9 L84.65 98.9 Q85.45 98.9 88.45 96.9 88.65 97.1 88.65 97.3 L88.65 97.5 88.65 97.7 Q88.65 98.7 86.85 99.5 89.05 99.5 93.7 100.3 M86.85 43.95 Q86.45 42.55 84.05 38.5 83.05 40.15 81.25 42.15 L81.45 41.9 Q83.05 42.75 83.05 43.15 L83.05 43.35 Q83.65 41.9 84.25 41.9 L84.45 43.55 Q83.45 45.15 82.65 47.35 83.85 46.15 86.85 43.95 M87.25 91.45 Q87.25 91.1 87.05 89.25 86.85 87.45 86.85 86.65 85.05 87.65 81.85 89.25 82.25 89.9 82.25 90.45 82.25 91.7 81.25 92.5 83.65 91.25 85.65 89.65 85.65 90.1 85.65 90.25 85.65 92.1 82.25 94.1 82.45 94.1 83.15 94.7 83.85 95.3 84.45 95.3 87.25 95.3 87.25 91.45 M85.85 121.95 Q83.65 120.55 83.05 120.55 L81.85 120.55 Q82.25 121.35 83.05 122.55 L85.85 121.95 M89.85 107.5 L89.85 105.9 Q89.9 105.1 88.65 103.8 87.45 102.5 86.85 102.5 87.85 103.7 87.85 104.3 87.85 105.1 87.05 105.7 86.25 104.1 85.65 104.1 85.25 104.1 84.15 104.5 83.05 104.9 82.85 104.9 85.65 105.5 89.85 107.5 M86.85 48.15 L86.85 46.75 Q84.65 47.95 83.05 49.75 85.85 49.15 86.85 48.15 M92.3 80.45 Q91.85 78.05 90.45 75.85 84.65 75.2 86.25 75.25 L86.05 75.25 84.45 75.25 Q85.85 75.2 88.25 77.15 90.7 79.05 91.05 80.45 L92.3 80.45 M87.65 56.15 L87.25 55.95 86.25 57.15 86.45 57.35 87.65 56.15 M87.85 79.45 Q87.05 78.65 86.25 78.65 L86.25 80.25 Q87.05 80.25 87.85 79.45 M89.25 52.15 Q89.25 52.95 88.05 55.35 87.65 54.35 87.25 54.35 L86.65 54.35 86.85 54.55 Q87.05 52.95 88.45 49.55 88.45 49.75 88.85 50.75 89.25 51.75 89.25 52.15 M93.5 64.6 Q93.5 61.4 90.25 61.4 88.85 61.4 88.05 62.0 89.45 61.8 92.3 63.4 92.25 63.8 92.7 65.6 92.45 65.8 91.9 66.0 91.65 66.0 91.6 65.9 91.45 65.8 90.85 65.6 90.3 65.4 90.05 65.2 90.1 66.2 90.65 66.8 L90.05 67.2 Q89.05 66.6 88.65 66.6 87.65 66.6 86.65 69.0 L90.05 69.0 Q91.1 69.0 92.3 67.3 93.5 65.6 93.5 64.6 M93.1 43.15 Q91.05 43.75 90.35 45.95 89.65 48.15 89.05 48.75 89.25 48.75 89.85 49.15 90.3 47.75 91.45 45.35 91.5 46.75 91.45 47.55 91.5 49.35 91.05 51.95 92.7 50.55 92.7 47.15 92.65 46.75 92.7 46.15 92.65 45.55 92.7 45.15 92.65 43.75 93.1 43.15 M95.1 88.05 Q95.1 85.65 92.5 83.25 91.05 85.05 90.45 87.25 91.1 86.85 91.8 85.85 92.45 84.85 92.9 84.65 L93.1 86.05 Q92.65 87.05 91.7 87.85 93.05 87.85 93.1 89.05 91.25 90.1 89.05 93.1 91.1 92.25 93.1 91.4 95.1 90.45 95.1 88.05 M98.9 106.3 Q91.65 101.1 90.45 101.1 L89.05 101.1 Q94.7 106.5 97.9 106.5 98.5 106.55 98.9 106.3 M94.7 73.6 Q92.45 71.4 92.3 71.4 L92.1 71.4 89.25 71.4 Q91.3 72.4 94.7 73.6 M92.5 119.35 L92.1 118.95 90.85 120.15 91.25 120.55 92.5 119.35 M101.3 56.75 Q99.3 54.95 98.1 54.95 97.3 54.95 96.1 56.15 96.9 56.4 97.9 57.15 97.3 57.8 97.3 58.2 93.3 58.15 91.05 58.6 L94.9 59.0 Q97.3 58.75 101.3 56.75 M100.9 85.05 Q100.9 81.45 99.9 80.25 98.9 79.05 96.7 76.45 L96.7 76.65 Q96.7 77.45 95.9 77.45 95.3 77.45 94.3 76.75 93.3 76.05 92.7 75.85 94.1 77.05 96.9 79.45 L96.9 81.05 Q96.3 81.65 95.1 81.65 93.9 81.65 92.9 80.65 92.65 80.85 92.5 81.45 93.45 82.25 95.1 83.65 95.1 82.25 95.9 82.25 96.7 83.65 96.7 83.85 97.1 83.25 97.9 82.85 L97.9 85.05 Q97.9 85.65 97.6 86.25 97.3 86.85 97.3 87.05 97.7 86.65 98.4 85.75 99.1 84.85 99.3 84.65 L99.9 85.25 Q99.1 87.45 96.7 90.05 100.9 87.85 100.9 85.05 M95.7 61.2 Q95.5 61.2 94.5 61.0 93.3 61.0 92.7 61.0 94.1 61.6 94.7 62.2 94.7 62.0 95.2 61.7 95.7 61.4 95.7 61.2 M100.3 65.8 L100.3 64.6 Q98.7 63.6 95.9 61.8 95.9 62.4 96.9 64.4 95.7 65.0 95.1 65.0 95.3 65.0 96.5 67.6 L94.7 68.0 93.9 67.2 Q92.85 68.4 92.9 69.2 L95.5 69.2 95.7 69.2 Q97.1 69.2 98.1 67.0 97.5 66.4 96.9 65.0 97.1 64.8 97.3 64.8 98.1 66.6 99.1 67.0 L100.3 65.8 M94.3 44.95 L94.3 42.75 93.7 42.75 93.7 44.95 94.3 44.95 M95.3 46.95 L94.7 46.75 94.3 47.55 94.9 47.75 95.3 46.95 M99.9 72.4 Q97.1 70.6 96.3 70.6 L94.9 70.6 94.9 70.8 Q94.9 73.45 98.1 73.4 99.1 73.45 99.9 72.4 M96.7 76.45 L96.1 75.45 95.7 75.65 96.1 76.45 96.7 76.45 M101.9 61.8 Q101.7 61.8 100.7 61.8 99.7 61.6 98.9 61.6 99.7 62.2 101.1 63.6 101.9 62.8 101.9 61.8 M101.9 75.65 L101.9 75.0 99.3 75.0 99.3 75.65 101.9 75.65 M106.9 70.6 Q106.7 70.6 105.9 70.6 105.3 70.4 104.9 70.4 104.1 70.4 102.7 70.8 104.1 70.8 105.5 72.4 106.9 70.8 106.9 70.6" fill="#000000" fill-rule="evenodd" stroke="none"/>
    </g>
  </defs>
</svg>
