<?xml version="1.0" encoding="UTF-8" standalone="no"?>
<svg xmlns:ffdec="https://www.free-decompiler.com/flash" xmlns:xlink="http://www.w3.org/1999/xlink" ffdec:objectType="frame" height="200.0px" width="140.0px" xmlns="http://www.w3.org/2000/svg">
  <g transform="matrix(1.0, 0.0, 0.0, 1.0, 0.0, 0.0)">
    <rect fill="#ffffff" height="200.0px" width="140.0px"/>
    <use ffdec:characterId="1" height="200.0" transform="matrix(1.0, 0.0, 0.0, 1.0, 0.0, 0.0)" width="139.35" xlink:href="#shape0"/>
  </g>
  <defs>
    <g id="shape0" transform="matrix(1.0, 0.0, 0.0, 1.0, 0.0, 0.0)">
      <path d="M139.35 175.8 L109.3 176.2 Q105.9 176.0 99.9 174.9 89.9 171.75 90.3 171.75 90.1 171.8 89.9 171.95 L90.1 171.95 Q89.9 172.2 89.7 172.15 86.5 172.2 74.45 166.75 L73.25 166.75 73.25 200.0 Q72.5 199.4 71.25 199.4 70.65 199.4 68.65 199.7 66.65 200.0 64.85 200.0 64.85 199.4 64.85 198.2 64.85 194.0 64.85 191.0 L64.85 162.55 Q64.85 162.35 64.65 162.15 64.25 162.35 64.05 162.35 60.3 162.35 52.15 166.55 47.35 169.15 42.6 171.75 40.2 172.6 33.45 173.55 L33.25 173.75 Q33.45 174.0 33.45 174.15 32.45 173.8 32.05 173.75 30.25 174.4 30.05 174.8 29.8 174.75 29.45 174.8 28.8 174.55 28.45 174.6 26.8 174.55 26.25 175.6 25.0 175.15 24.65 175.2 23.2 175.15 22.0 176.2 21.85 176.15 21.4 176.2 21.05 176.15 20.8 176.2 18.0 177.15 16.4 177.2 16.0 177.15 15.2 177.2 14.2 176.95 13.8 177.0 12.2 176.95 7.2 177.6 2.2 178.15 0.0 178.2 7.8 175.15 21.6 168.75 27.05 165.35 34.65 158.55 46.45 147.75 47.05 147.15 L46.65 146.55 Q44.85 147.15 10.2 154.35 12.2 152.15 16.8 149.15 26.25 144.35 35.65 139.55 48.85 132.35 48.85 125.55 48.85 123.1 48.05 123.1 47.85 123.15 43.75 125.95 39.65 128.75 37.85 129.55 34.85 130.75 30.65 130.75 26.8 130.75 20.4 129.95 12.8 128.95 10.0 128.75 13.4 125.7 21.8 120.9 32.25 115.15 35.25 112.9 L55.05 99.3 Q56.05 99.3 56.05 98.5 56.05 98.1 55.05 96.3 50.85 97.7 51.85 97.7 51.45 97.7 49.55 98.3 47.65 98.9 47.25 98.9 46.85 98.9 46.45 99.3 46.05 99.7 45.65 99.7 45.25 99.7 45.25 99.9 45.05 99.9 44.65 99.9 44.25 99.9 38.55 102.7 32.85 105.5 32.45 105.5 32.05 105.5 32.05 105.3 L32.25 105.1 Q32.05 105.1 31.85 105.1 31.45 105.1 30.75 105.8 30.0 106.5 29.65 106.5 29.2 106.5 29.25 106.3 29.2 106.1 28.85 106.1 28.6 106.1 26.45 107.1 24.2 108.1 22.9 108.3 21.6 108.5 19.0 109.1 25.85 100.3 38.45 86.3 39.25 85.3 46.65 80.3 52.85 76.05 56.05 72.05 L55.85 72.05 Q57.45 72.1 51.65 73.25 47.25 74.5 43.05 74.45 35.05 74.5 30.45 70.85 35.45 65.65 50.05 54.45 50.45 54.25 55.05 52.05 57.25 50.85 57.25 48.45 L57.25 46.65 40.05 46.65 40.65 45.65 Q52.25 39.45 55.25 36.65 60.65 31.85 61.65 26.45 61.25 26.0 60.25 26.05 61.65 26.0 54.05 27.05 54.65 24.0 56.85 21.8 58.25 21.05 60.55 18.3 62.85 15.6 63.25 9.8 63.65 2.6 64.65 0.0 65.45 2.4 66.45 7.0 67.65 16.2 71.05 20.4 73.7 23.05 76.4 25.65 79.05 28.2 79.1 31.45 79.1 31.65 79.1 32.45 79.1 33.25 79.1 33.45 79.1 33.65 79.1 33.85 76.55 32.65 70.25 30.25 71.5 33.05 81.1 38.85 89.9 44.05 89.9 47.25 89.9 48.25 89.4 49.25 88.9 50.25 85.5 50.25 83.7 50.25 80.9 49.95 78.05 49.65 77.9 49.65 L77.7 49.65 77.5 49.85 Q84.3 55.25 91.1 60.85 99.9 68.25 102.5 73.9 L102.1 75.5 Q99.9 74.45 93.3 73.45 84.7 72.3 82.7 71.65 L81.7 71.65 81.7 72.05 Q82.9 75.3 89.3 80.3 95.1 84.9 100.2 87.6 105.3 90.3 118.3 98.9 117.7 98.9 117.1 98.9 113.1 98.9 105.2 97.2 97.3 95.5 94.1 95.5 91.7 95.5 88.9 96.1 97.1 105.5 106.5 109.1 110.9 110.9 122.7 112.7 117.9 117.7 110.3 119.2 102.7 120.75 95.1 121.9 98.9 127.55 102.7 132.95 107.9 140.15 112.5 142.75 115.5 144.15 115.1 144.15 116.3 144.15 122.1 146.95 127.35 149.55 127.75 149.95 126.5 149.95 125.75 150.75 L114.1 150.75 Q115.9 150.75 107.9 149.15 101.3 147.75 94.3 147.35 L89.9 147.55 Q98.5 156.65 114.5 164.7 126.95 170.25 139.35 175.8 M16.8 177.0 L16.8 176.2 15.8 176.2 15.8 177.0 16.8 177.0" fill="#000000" fill-rule="evenodd" stroke="none"/>
    </g>
  </defs>
</svg>
