<?xml version="1.0" encoding="UTF-8" standalone="no"?>
<svg xmlns:ffdec="https://www.free-decompiler.com/flash" xmlns:xlink="http://www.w3.org/1999/xlink" ffdec:objectType="frame" height="200.0px" width="117.0px" xmlns="http://www.w3.org/2000/svg">
  <g transform="matrix(1.0, 0.0, 0.0, 1.0, 0.0, 0.0)">
    <rect fill="#ffffff" height="200.0px" width="117.0px"/>
    <use ffdec:characterId="1" height="200.0" transform="matrix(1.0, 0.0, 0.0, 1.0, 0.0, 0.0)" width="116.7" xlink:href="#shape0"/>
  </g>
  <defs>
    <g id="shape0" transform="matrix(1.0, 0.0, 0.0, 1.0, 0.0, 0.0)">
      <path d="M116.7 85.7 Q116.5 89.7 114.5 89.7 113.1 89.7 110.7 89.5 110.3 89.5 108.9 90.7 109.5 91.1 109.9 91.1 110.3 91.1 111.0 90.8 111.7 90.5 111.9 90.5 112.3 90.5 112.9 91.0 113.5 91.5 115.1 91.5 L115.3 91.5 Q115.3 91.7 115.5 91.9 115.7 92.1 115.7 92.7 115.7 93.5 114.5 95.2 113.3 96.9 112.1 96.9 111.9 96.9 111.3 96.6 110.7 96.3 110.1 96.3 109.7 96.3 109.5 96.5 109.1 96.5 108.7 96.5 107.5 96.5 101.9 94.7 101.5 94.3 100.9 93.5 100.9 93.3 100.9 93.1 100.9 92.7 101.2 91.5 101.5 90.3 101.5 89.7 101.5 89.1 100.9 89.1 100.5 89.1 100.1 89.4 99.7 89.7 99.3 89.7 95.3 89.7 95.3 86.5 L95.3 86.3 Q94.9 86.3 94.6 86.9 94.3 87.5 93.7 87.8 93.1 88.1 90.9 88.1 L90.7 88.1 Q90.3 88.1 88.3 87.6 86.3 87.1 85.9 87.1 85.5 87.1 85.0 87.3 84.5 87.5 84.1 87.5 83.7 87.5 81.4 86.3 79.05 85.1 78.7 85.1 77.85 85.1 72.85 88.3 73.1 92.9 76.3 92.9 L78.7 91.9 Q78.25 92.5 77.3 94.1 77.85 95.3 78.7 95.3 79.65 95.3 81.0 92.5 82.3 89.7 83.5 89.7 84.5 89.7 85.2 90.9 85.9 92.1 87.5 92.1 87.9 92.1 89.6 91.8 91.3 91.5 91.7 91.5 93.5 91.5 95.3 93.3 95.1 93.7 94.5 95.7 94.3 96.5 92.9 96.5 92.7 96.5 92.1 96.5 91.7 96.3 91.5 96.3 91.1 96.3 90.9 96.5 91.7 97.1 92.9 98.5 92.1 98.9 90.5 98.9 90.1 98.9 87.3 98.4 84.5 97.9 84.1 97.9 82.9 97.9 81.5 98.7 80.45 96.5 76.7 96.5 76.45 96.5 76.3 96.7 77.25 97.7 77.3 98.3 L77.1 98.3 Q76.45 98.3 75.5 95.6 74.45 92.9 72.65 92.1 71.9 92.5 71.25 94.9 71.1 94.3 71.05 93.7 71.05 92.9 71.45 91.4 71.9 89.9 71.85 89.3 68.9 87.3 66.05 85.1 61.05 81.7 59.05 81.7 L57.05 81.7 Q56.85 82.1 56.85 82.7 56.85 83.9 56.85 83.7 56.85 83.5 56.85 84.5 56.65 85.3 56.65 85.9 56.65 88.1 57.25 89.3 57.85 90.5 62.65 93.0 67.45 95.5 67.45 98.3 67.45 98.7 66.55 101.4 65.65 104.1 65.65 104.5 65.65 105.7 68.35 108.1 71.1 110.5 71.05 112.3 71.05 113.3 70.65 114.3 70.45 111.9 67.35 109.3 64.25 106.7 64.25 104.7 64.25 104.3 64.95 101.8 65.65 99.3 65.65 98.9 65.65 96.5 62.45 94.9 59.85 93.9 57.45 92.9 57.05 94.9 57.05 97.7 57.05 99.1 58.05 111.1 L58.45 115.1 Q58.85 122.35 58.85 122.7 58.85 123.55 58.85 124.35 58.85 124.7 58.55 125.35 58.25 125.9 58.25 126.35 L58.25 127.35 58.65 127.95 Q61.65 124.9 63.45 123.5 64.05 123.95 64.05 124.55 64.05 124.7 61.75 127.25 59.45 129.75 59.05 130.95 58.25 132.95 58.25 136.75 L60.25 152.95 64.65 152.95 Q63.05 153.35 59.85 154.75 L61.25 200.0 Q59.85 199.8 57.85 199.8 55.85 199.8 54.45 200.0 L53.85 146.55 Q53.65 144.55 53.45 142.55 53.25 141.15 50.45 141.15 49.25 141.15 48.45 141.75 48.05 143.95 44.05 146.55 43.85 148.35 43.45 152.15 41.85 147.35 41.85 146.75 41.85 144.95 43.05 144.55 45.85 143.55 46.05 143.55 46.45 142.35 47.65 139.95 49.45 139.55 52.85 139.55 53.45 137.75 53.45 135.35 L53.45 135.15 53.05 114.7 Q53.05 114.5 52.35 113.6 51.65 112.7 51.65 112.1 51.65 111.5 52.45 111.1 50.25 109.3 49.45 107.5 49.65 107.7 52.25 108.5 53.05 107.3 53.05 104.1 53.05 103.7 53.05 102.9 53.05 102.1 53.05 101.9 53.05 101.5 52.85 98.8 52.65 96.1 52.65 94.9 51.85 94.5 50.45 93.5 51.45 93.3 52.85 91.9 52.85 91.1 52.65 89.5 52.65 87.9 52.65 86.9 52.65 85.7 52.85 84.7 L47.85 84.7 Q47.25 85.1 47.25 85.7 47.25 86.1 47.65 86.9 48.05 87.7 48.05 88.1 48.05 88.5 47.85 88.7 47.25 89.5 45.65 89.5 45.25 89.5 44.05 89.1 42.85 88.7 42.45 88.7 41.45 88.7 40.45 91.1 39.45 93.5 35.85 93.5 L35.05 93.5 Q34.45 93.7 33.85 93.7 32.05 93.7 31.05 93.1 28.0 91.3 24.85 91.3 24.2 91.3 23.2 91.5 22.45 91.5 21.8 91.5 20.6 91.5 19.6 91.1 19.4 91.3 19.4 91.7 19.4 92.3 19.8 93.7 19.4 94.3 17.8 94.3 16.8 94.3 16.4 94.1 16.0 93.1 14.8 92.9 13.6 92.7 11.1 91.9 8.6 91.1 9.6 91.1 9.0 91.1 8.5 91.3 8.0 91.5 7.4 91.5 6.4 91.5 1.8 90.3 1.6 89.9 0.8 88.0 0.0 86.1 0.0 85.7 0.0 84.7 1.1 84.1 2.2 83.5 2.5 82.7 2.8 81.9 3.8 79.9 5.2 80.7 7.6 81.9 8.6 81.7 9.2 79.9 9.8 78.05 10.4 77.5 13.0 80.3 14.2 80.3 14.8 80.3 15.8 79.8 16.8 79.3 17.2 79.3 17.6 79.25 18.5 80.0 19.4 80.7 19.8 80.7 19.6 80.7 24.0 78.5 24.65 79.45 26.45 81.3 26.6 81.3 27.15 80.6 27.6 79.9 28.05 79.9 28.4 79.9 28.65 80.1 28.8 80.3 29.25 80.3 L33.25 78.3 Q33.85 79.7 35.05 79.7 35.65 79.7 36.55 79.5 37.45 79.3 38.05 79.3 39.65 79.25 41.45 83.5 41.45 83.7 36.25 85.1 32.45 86.3 30.05 89.9 31.45 91.5 34.45 91.5 38.45 91.5 39.65 86.5 L44.05 86.5 Q44.65 86.5 45.45 87.1 45.25 85.7 46.05 83.3 47.45 81.7 50.65 81.7 51.25 81.7 51.65 81.9 52.05 81.9 52.25 81.9 52.85 81.5 52.85 81.1 52.85 80.1 51.85 79.3 49.85 79.9 48.25 79.9 46.45 79.85 45.05 78.7 43.65 77.45 42.65 77.5 42.25 77.45 40.35 78.0 38.45 78.45 38.05 78.5 36.05 78.5 36.05 73.25 36.05 72.1 39.85 69.65 41.25 69.65 42.45 71.45 44.25 70.9 45.05 67.45 45.25 67.9 46.25 68.65 46.85 68.7 47.65 67.05 47.85 67.05 48.25 67.55 48.65 68.05 49.15 68.05 49.65 68.05 50.75 68.35 51.85 68.65 52.45 68.65 52.65 68.7 52.85 68.25 L52.85 67.65 Q52.85 65.65 46.25 62.45 46.25 62.05 47.05 60.45 47.65 60.65 48.85 61.95 50.05 63.25 50.65 63.25 L52.25 63.25 52.45 63.05 Q52.45 62.85 52.45 62.45 52.45 60.45 48.25 58.05 47.85 58.05 47.75 58.55 47.65 59.05 47.05 59.05 46.65 59.05 45.65 58.75 44.65 58.45 44.25 58.45 43.05 58.45 39.75 62.35 36.45 66.25 36.25 66.25 35.25 66.45 32.65 67.45 31.65 68.5 29.45 69.65 27.2 70.9 24.6 71.25 L23.4 71.25 Q23.85 69.7 25.85 69.65 26.0 69.65 26.15 69.65 26.2 69.65 26.45 69.65 28.6 69.65 29.25 67.85 28.4 67.05 27.65 67.05 27.2 67.05 26.15 67.35 25.0 67.65 24.4 67.65 23.65 67.65 22.8 66.05 L28.65 65.05 Q26.2 64.25 24.6 64.25 24.25 64.25 22.4 65.05 20.65 65.85 20.2 65.85 18.6 65.85 15.8 64.35 13.0 62.85 13.0 60.85 13.0 58.85 14.6 58.85 15.2 58.85 15.4 59.05 15.8 58.65 16.2 56.05 16.6 54.05 18.2 54.05 19.8 54.05 21.6 57.05 23.65 56.05 23.8 56.05 24.25 56.05 24.2 56.25 24.25 56.45 24.6 56.45 25.05 56.45 26.05 55.95 27.0 55.45 27.45 55.45 27.0 55.45 29.05 56.05 29.0 55.25 29.05 54.25 28.8 53.05 28.85 52.45 28.8 51.45 29.35 50.75 29.8 50.05 31.05 50.05 31.25 50.05 31.55 50.05 31.85 50.05 32.05 50.05 33.25 50.05 33.85 48.85 36.45 50.25 36.25 50.25 36.65 50.25 39.05 49.05 41.45 47.85 41.85 47.85 42.65 47.85 43.85 48.85 44.85 48.25 45.45 46.15 46.05 44.05 46.85 43.25 48.45 42.25 51.45 40.65 50.65 38.65 49.85 38.65 48.05 38.65 43.95 41.45 39.85 44.25 37.05 44.25 36.65 44.25 35.75 44.05 34.85 43.85 34.45 43.85 34.05 43.85 31.75 44.55 29.4 45.25 29.05 45.25 28.4 45.25 26.05 44.85 23.6 44.45 23.2 44.45 22.85 44.45 21.1 44.65 19.4 44.85 19.0 44.85 17.6 44.85 15.8 44.05 13.2 43.05 13.2 41.65 13.2 41.25 14.4 39.65 15.6 38.05 15.8 37.45 16.6 37.85 18.4 38.65 18.6 38.25 19.0 37.25 19.4 36.25 19.6 35.65 19.65 35.85 19.6 36.05 19.65 38.25 22.6 38.45 27.25 38.65 28.25 39.05 28.2 39.65 28.25 39.85 28.2 41.45 27.85 42.65 28.4 43.25 29.05 43.25 29.4 43.25 32.45 42.55 35.45 41.85 35.85 41.85 36.25 41.85 37.05 42.05 37.85 42.05 38.05 42.05 39.05 42.05 43.05 39.35 47.05 36.65 48.45 35.05 49.65 34.25 50.85 33.65 52.85 32.45 52.85 30.65 52.85 29.45 51.85 28.45 50.65 28.6 48.25 29.65 46.65 31.65 41.05 35.65 39.25 35.85 36.25 38.25 35.05 38.65 35.25 38.65 33.25 38.65 27.65 35.65 27.2 33.85 27.25 34.25 27.2 34.05 27.95 33.15 28.6 32.25 28.65 31.85 29.0 32.25 29.65 32.25 L29.85 32.25 Q30.0 32.25 32.15 31.95 34.25 31.65 35.05 31.25 35.85 30.85 36.35 29.85 36.85 28.8 37.65 28.85 38.05 28.8 38.75 29.35 39.45 29.85 39.85 29.85 40.25 29.8 41.25 29.05 40.65 27.6 40.65 26.65 40.65 26.0 41.45 23.0 41.05 22.45 40.85 22.4 39.25 22.45 39.05 24.95 38.85 27.4 35.85 27.45 35.45 27.4 34.25 26.95 33.05 26.4 32.65 26.45 32.25 26.4 29.85 28.85 L27.45 28.85 Q27.0 28.8 27.05 28.25 27.0 27.6 26.15 27.15 25.2 26.6 23.2 25.85 L23.4 25.85 Q23.25 25.8 22.8 25.85 22.45 25.8 21.8 26.15 21.25 26.4 20.8 26.45 19.2 26.4 17.9 24.0 16.6 21.65 16.6 20.0 16.6 18.65 18.2 17.2 18.8 18.25 21.4 18.9 24.05 19.65 25.05 19.6 27.2 19.65 29.45 18.2 30.65 19.25 31.45 19.2 31.65 19.2 32.45 19.2 33.25 19.2 33.85 19.2 34.65 19.25 35.25 19.4 38.05 14.8 38.25 14.8 38.65 14.8 38.95 15.0 39.25 15.2 39.65 15.2 40.85 15.2 41.85 14.0 40.25 12.2 38.25 11.8 37.05 11.6 37.05 10.2 37.05 6.8 39.45 6.8 41.65 6.8 43.45 9.0 44.65 8.0 45.45 6.8 45.45 6.4 45.45 5.8 45.45 5.4 45.45 5.2 45.45 4.0 45.65 3.4 46.05 3.6 46.65 3.6 L46.85 3.6 Q47.25 3.6 48.65 2.1 50.05 0.6 50.45 0.6 50.85 0.6 52.05 1.3 53.25 2.0 53.85 2.0 54.25 2.0 55.85 1.1 57.45 0.2 58.05 0.0 58.05 0.6 58.25 0.8 60.25 2.4 62.85 4.2 63.45 4.4 64.25 4.4 L64.25 4.6 Q64.25 6.0 68.25 10.4 69.45 9.8 70.85 8.4 72.9 9.6 75.15 11.0 77.5 12.4 77.7 14.2 74.85 16.0 74.05 17.4 73.5 18.0 72.05 18.0 71.65 18.0 71.25 17.8 70.85 17.6 70.45 17.6 70.05 17.6 68.35 18.3 66.65 19.0 66.25 19.0 63.85 19.05 59.05 17.0 58.05 17.2 55.85 19.2 57.45 21.65 60.25 21.6 60.65 21.65 60.85 21.6 61.25 21.45 61.65 21.4 64.05 23.45 65.65 23.4 66.05 23.45 68.25 23.0 70.45 22.65 70.85 22.6 71.25 22.65 72.35 23.2 73.5 23.85 73.85 23.8 74.3 23.85 74.7 23.6 75.05 23.45 75.5 23.4 76.05 23.45 77.1 24.2 78.05 25.05 78.5 25.0 78.85 25.05 80.8 23.7 82.7 22.45 83.1 22.4 83.5 22.45 84.0 22.7 84.5 23.05 84.7 23.0 88.3 23.05 88.9 20.0 L90.1 20.0 Q90.5 20.25 91.3 21.9 92.1 23.65 92.9 23.6 93.1 23.65 93.3 23.4 92.7 24.05 92.5 26.25 92.3 28.45 91.3 29.05 84.7 30.65 85.5 30.65 85.1 30.65 83.6 30.15 82.1 29.65 81.7 29.65 81.25 29.65 80.7 29.95 80.1 30.25 79.7 30.25 79.25 30.25 77.6 29.25 75.85 28.25 75.5 28.25 75.05 28.2 74.15 28.75 73.3 29.2 72.65 29.25 71.7 29.25 70.45 28.25 L69.25 28.25 Q69.25 28.45 69.25 28.65 69.25 29.65 70.45 30.75 71.7 31.85 72.25 31.85 72.7 31.85 73.6 31.15 74.45 30.45 74.9 30.25 75.25 31.85 78.2 31.95 81.05 32.05 82.5 33.05 82.7 33.25 83.8 35.65 84.9 38.05 86.7 38.05 87.1 38.05 89.0 36.85 90.9 35.65 91.5 35.65 91.7 35.65 92.6 36.05 93.5 36.45 93.9 36.45 94.9 36.45 98.1 34.05 L100.1 34.05 Q100.1 36.05 101.1 38.25 99.5 39.45 93.9 41.25 93.3 42.65 92.1 45.85 91.9 45.85 91.6 45.85 91.3 45.85 90.8 45.85 90.3 45.85 90.1 45.85 88.9 45.85 88.1 46.85 86.9 45.85 86.3 45.85 85.9 45.85 85.0 46.25 84.1 46.65 83.7 46.65 82.9 46.65 82.3 45.85 81.9 46.05 81.9 46.45 81.9 47.45 81.9 47.25 L78.1 47.25 Q77.85 47.25 76.3 46.85 74.65 46.45 74.15 46.15 73.7 45.85 70.85 44.05 L70.85 42.45 Q72.5 41.85 74.9 40.85 74.25 39.05 71.85 37.05 70.85 37.05 69.15 35.95 67.45 34.85 65.85 33.55 64.25 32.25 62.05 32.25 61.85 32.25 61.65 32.45 62.65 33.85 63.25 36.65 63.05 36.65 61.65 37.85 60.25 39.05 59.65 39.05 57.65 39.05 54.05 39.65 54.85 44.25 57.85 44.25 58.25 44.25 58.85 44.25 58.85 44.65 59.45 45.85 59.85 45.65 60.95 44.45 62.05 43.25 62.65 43.25 63.05 43.25 67.25 44.25 66.85 46.05 66.05 49.05 68.05 50.05 70.25 51.15 72.5 52.25 74.05 55.05 L75.1 55.05 Q75.25 54.85 77.1 53.25 78.25 52.05 79.5 52.05 79.9 52.05 80.8 52.35 81.7 52.65 82.3 52.65 82.7 52.65 83.3 52.45 83.9 52.25 84.3 52.25 84.5 52.25 86.5 53.45 88.1 51.05 89.3 51.05 89.7 51.05 91.7 51.55 93.7 52.05 94.1 52.05 94.5 52.05 95.8 51.05 97.1 50.05 97.5 50.05 99.1 50.05 100.9 51.45 102.7 52.85 102.7 54.45 102.7 55.85 100.5 56.65 L96.7 58.05 Q96.7 58.65 95.9 59.65 91.9 61.25 87.9 61.25 88.1 61.25 84.9 60.05 84.9 60.25 84.6 60.35 84.3 60.45 84.1 60.65 84.3 63.05 87.8 63.15 91.3 63.25 91.9 65.45 L89.1 64.65 85.7 64.85 Q87.5 65.65 87.5 66.85 87.5 67.25 87.3 67.55 87.1 67.85 87.1 68.05 85.9 67.1 84.1 64.85 83.9 63.25 82.5 60.25 81.9 60.85 80.9 60.85 77.25 60.85 77.3 58.25 L77.3 56.45 Q78.05 56.45 81.1 54.85 80.85 54.65 80.7 54.65 L80.1 54.65 Q79.45 54.65 77.2 56.25 74.85 57.85 74.3 57.85 73.25 57.85 70.95 54.95 68.65 52.05 65.65 52.05 64.45 52.05 63.25 53.25 65.65 56.85 65.65 56.25 65.65 57.25 64.05 58.85 65.85 59.85 68.65 59.85 70.65 59.85 71.25 58.85 71.3 60.05 70.05 61.25 71.9 63.25 72.45 63.25 72.9 63.25 73.6 62.85 74.25 62.45 74.45 62.45 76.7 62.45 76.7 64.65 76.65 65.25 76.1 65.85 75.85 65.25 75.1 63.85 74.65 63.85 73.75 64.25 72.9 64.65 72.25 64.65 72.45 64.65 69.25 62.25 66.45 60.45 62.85 60.45 61.65 60.45 56.85 62.05 56.45 66.25 56.45 66.65 56.45 67.65 57.05 68.65 57.85 67.65 58.65 67.65 59.25 67.65 60.85 68.25 62.45 68.9 63.05 68.85 L63.05 70.05 Q65.65 71.5 65.25 71.45 65.65 71.5 67.05 70.05 68.45 68.7 68.85 68.65 70.05 68.7 70.75 70.25 71.5 71.9 72.05 73.05 72.5 72.9 73.05 72.85 73.9 72.9 74.3 73.05 74.85 72.3 75.7 70.45 77.25 70.5 79.0 69.75 80.65 69.05 80.9 69.05 81.5 69.1 83.1 70.45 83.1 70.9 83.1 71.45 83.1 72.9 82.9 73.85 82.7 74.9 80.8 76.6 78.85 78.25 77.7 78.3 L74.45 78.3 Q74.1 78.3 72.55 77.4 71.1 76.45 70.65 76.5 70.25 76.45 69.75 76.7 69.25 76.85 68.85 76.9 69.65 76.85 63.05 76.1 L60.05 73.05 Q56.85 74.7 56.85 77.3 56.85 78.45 58.05 79.5 60.05 79.7 63.85 80.7 64.25 80.9 67.25 83.3 70.3 85.7 71.45 85.7 71.9 85.7 75.1 84.2 78.25 82.7 78.7 82.7 79.05 82.7 79.9 83.0 80.65 83.3 81.1 83.3 81.65 83.3 84.6 80.6 87.5 77.85 89.3 77.9 89.7 77.85 89.9 78.4 90.1 78.9 90.9 78.9 91.3 78.85 93.6 77.7 95.9 76.45 96.3 76.5 98.3 76.45 99.7 78.3 98.7 79.5 97.1 82.5 97.5 83.3 98.7 83.3 99.5 83.3 100.7 82.3 100.7 83.1 101.3 84.3 103.9 83.1 106.3 80.7 106.9 81.5 107.7 82.9 108.1 82.5 108.9 80.9 109.5 79.9 111.1 79.9 113.3 79.9 113.3 82.9 113.3 83.5 113.3 83.7 114.5 84.5 116.7 85.7 M24.6 87.1 L24.2 88.3 Q25.65 89.1 26.25 89.1 25.4 87.5 24.6 87.1 M40.65 57.85 Q39.65 58.05 38.65 58.45 37.05 58.85 37.05 59.65 37.05 60.05 37.35 60.55 37.65 61.05 37.65 61.25 38.85 60.05 40.65 57.85 M51.25 46.85 L51.25 43.45 Q48.25 44.45 47.45 46.75 46.65 49.05 45.85 50.85 48.65 47.05 51.25 46.85 M52.05 76.5 Q51.85 76.65 51.65 76.7 L50.45 76.5 Q49.65 76.45 46.65 75.5 46.65 75.65 46.35 76.0 46.05 76.25 46.05 76.5 47.85 77.45 49.45 77.5 51.05 77.45 52.05 76.5 M52.45 18.2 L52.45 17.0 51.85 17.0 51.85 18.2 52.45 18.2 M67.65 31.05 Q65.65 28.6 64.05 27.45 63.45 28.2 62.25 28.25 L62.05 28.25 Q61.65 28.2 59.55 27.35 57.45 26.4 57.05 26.45 L55.45 26.45 55.45 27.45 Q55.25 28.4 55.25 29.45 L58.65 29.45 Q59.85 29.45 60.85 29.45 L61.65 29.65 Q62.85 29.65 67.65 31.05 M56.45 33.05 L56.45 32.45 55.25 32.45 55.25 33.05 56.45 33.05 M67.45 10.4 L64.05 7.0 Q63.65 8.4 62.45 11.0 59.65 11.2 58.25 12.0 L62.85 12.0 Q63.65 11.0 66.25 9.8 66.65 9.8 66.95 10.1 67.25 10.4 67.45 10.4 M60.25 3.0 L58.85 1.6 58.45 1.8 60.05 3.4 60.25 3.0" fill="#000000" fill-rule="evenodd" stroke="none"/>
    </g>
  </defs>
</svg>
