<?xml version="1.0" encoding="UTF-8" standalone="no"?>
<svg xmlns:ffdec="https://www.free-decompiler.com/flash" xmlns:xlink="http://www.w3.org/1999/xlink" ffdec:objectType="frame" height="200.0px" width="99.0px" xmlns="http://www.w3.org/2000/svg">
  <g transform="matrix(1.0, 0.0, 0.0, 1.0, 0.0, 0.0)">
    <rect fill="#ffffff" height="200.0px" width="99.0px"/>
    <use ffdec:characterId="1" height="200.0" transform="matrix(1.0, 0.0, 0.0, 1.0, 0.0, 0.0)" width="98.45" xlink:href="#shape0"/>
  </g>
  <defs>
    <g id="shape0" transform="matrix(1.0, 0.0, 0.0, 1.0, 0.0, 0.0)">
      <path d="M93.15 164.65 Q92.95 164.85 92.85 165.05 92.75 165.25 92.55 165.5 93.55 166.1 94.2 166.3 92.35 165.7 91.3 165.7 90.7 165.65 90.1 165.9 90.9 166.7 92.95 167.95 89.9 167.3 87.85 166.1 L87.65 166.1 87.25 166.3 Q88.05 167.5 89.9 168.35 87.25 167.1 84.8 165.7 L84.15 166.3 Q85.2 167.5 85.8 168.15 82.55 165.45 80.9 163.85 80.9 164.25 80.9 164.85 80.9 165.9 81.3 167.3 80.7 166.1 80.1 164.55 79.45 163.0 77.85 162.2 77.65 162.2 77.65 162.4 77.65 162.6 78.25 164.25 76.4 162.4 75.8 161.2 75.2 162.2 75.2 163.0 75.15 165.5 78.05 167.6 80.9 169.75 82.55 169.75 83.95 169.75 83.35 169.75 84.6 169.75 86.0 169.55 82.95 171.2 81.3 171.2 81.3 171.4 82.75 172.2 82.3 172.2 81.5 171.9 80.7 171.6 80.3 171.6 79.85 171.6 79.65 171.8 L81.1 173.25 Q80.1 173.25 78.05 172.0 L77.65 172.4 Q77.65 172.65 78.25 173.05 78.85 173.45 79.25 173.85 77.45 173.45 76.4 171.6 L75.2 171.8 76.8 173.65 Q74.15 171.2 72.95 169.75 72.95 170.2 72.95 170.8 72.95 172.0 73.35 173.05 71.1 168.35 70.9 168.15 70.7 168.35 70.7 168.75 70.7 168.95 70.9 169.35 70.9 169.95 70.9 170.15 69.85 169.35 69.05 167.7 68.85 167.95 68.85 169.15 L68.85 169.55 Q68.25 167.95 67.4 165.9 66.6 163.85 65.35 162.8 L65.15 162.8 65.15 163.45 Q65.15 163.85 67.0 169.75 66.2 168.15 65.6 167.1 64.95 167.7 64.95 169.15 64.95 169.35 64.95 169.55 64.75 162.4 63.35 162.2 62.9 162.6 62.9 163.25 62.95 164.05 63.75 165.9 62.3 165.65 61.1 163.0 60.65 161.8 60.05 159.15 L59.65 159.15 Q59.05 160.75 58.65 161.8 56.8 170.4 56.8 172.0 L56.8 172.2 Q56.8 175.1 58.2 175.1 58.45 175.05 58.45 174.85 58.4 174.65 58.85 174.65 59.25 174.65 59.75 175.8 60.25 176.9 60.45 177.1 62.1 177.35 62.9 177.55 63.75 177.7 64.35 178.75 65.8 178.75 68.85 179.25 71.9 179.8 73.55 179.8 72.3 179.75 69.95 179.45 67.6 179.15 67.4 179.15 66.8 179.15 66.8 179.55 66.8 179.8 67.0 180.2 L66.2 179.55 Q64.95 180.4 64.75 181.2 64.75 180.8 63.95 179.45 63.1 178.15 62.5 178.15 L60.05 178.15 59.85 178.35 Q59.85 178.55 59.85 178.95 59.85 181.8 61.5 183.85 59.85 182.85 59.55 180.8 59.25 178.75 59.25 176.7 58.0 176.3 57.0 176.3 57.2 177.3 57.2 178.95 57.2 180.2 57.2 182.65 57.0 185.3 57.0 186.5 57.0 191.65 57.8 193.35 58.65 195.1 65.15 199.0 63.55 198.95 60.55 199.2 57.6 199.4 56.8 199.4 56.4 199.4 53.65 199.0 50.85 198.55 50.25 198.55 46.6 198.55 40.85 200.0 45.15 197.95 47.4 195.9 48.4 192.85 48.4 190.4 49.05 188.75 49.25 187.45 49.45 186.1 49.45 182.45 49.45 181.8 49.45 181.2 49.45 180.6 49.45 180.4 L49.45 178.35 Q49.45 171.2 48.2 168.95 48.4 168.55 48.4 168.15 48.6 168.15 49.25 168.15 49.65 168.1 50.05 168.55 L50.65 167.95 50.85 167.5 50.65 166.3 49.65 167.3 Q51.25 163.25 51.3 161.2 51.25 160.75 51.3 160.55 L51.05 160.35 Q50.85 160.55 49.85 164.25 49.05 166.7 47.4 168.15 47.6 166.3 47.6 165.9 47.6 165.05 47.6 164.25 45.95 169.95 46.15 173.05 46.15 172.6 46.15 172.2 46.2 171.0 45.55 169.15 44.35 171.6 43.7 173.05 45.35 167.3 45.35 165.9 45.35 165.65 45.35 165.25 42.9 168.95 42.3 171.6 L42.3 171.2 Q42.3 170.4 42.1 170.15 41.65 171.2 40.45 172.2 40.65 172.2 40.65 172.0 40.65 171.2 40.25 170.6 38.6 173.05 38.4 174.85 38.4 174.65 38.4 174.45 38.4 173.25 38.2 172.6 35.75 175.9 34.55 176.7 34.7 176.7 35.15 176.0 35.55 175.3 35.95 174.85 L35.35 174.25 Q33.5 176.1 32.5 176.9 33.3 176.5 33.9 175.3 33.9 175.05 33.3 175.1 34.3 175.05 30.45 176.3 L32.05 174.65 Q32.3 174.65 28.8 175.7 28.8 175.3 29.6 174.85 29.85 174.65 29.85 174.45 29.8 174.05 29.0 174.05 28.6 174.05 28.2 174.25 28.0 174.25 27.6 174.25 L25.15 173.05 Q25.75 173.05 26.75 173.25 27.8 173.25 28.2 173.25 29.6 173.25 31.95 171.2 34.3 169.15 34.55 169.15 37.15 163.25 39.85 158.95 L39.45 156.7 Q35.95 162.4 35.35 165.25 35.35 165.05 35.35 164.85 35.35 163.65 35.15 163.25 34.5 163.85 33.8 164.95 33.1 166.1 32.5 166.7 32.9 165.9 32.9 164.85 32.9 164.05 32.5 163.65 31.05 164.25 30.85 166.1 30.45 168.75 29.4 170.15 29.85 169.15 29.85 167.1 29.8 166.7 29.85 166.3 28.4 168.15 27.8 169.35 26.15 170.8 24.9 171.6 25.95 170.6 26.15 168.75 L25.15 168.75 Q22.85 171.4 21.05 172.2 L23.5 169.75 23.5 169.55 22.9 169.55 Q22.45 169.55 20.95 170.4 19.4 171.2 18.6 171.4 20.0 169.95 21.05 168.75 22.05 168.75 16.55 170.15 16.75 170.0 17.25 169.65 17.75 169.35 17.9 169.25 17.95 169.15 18.0 168.95 17.95 168.15 16.75 168.15 16.35 168.1 15.95 168.35 15.5 168.55 15.1 168.55 14.9 168.55 12.25 167.1 12.65 167.3 13.3 167.3 21.65 167.3 22.9 162.2 23.3 162.2 23.5 162.6 26.95 158.55 27.4 154.65 27.55 154.85 28.2 154.85 28.4 154.85 28.6 154.65 28.6 154.05 28.0 154.05 27.8 154.05 27.6 154.05 29.6 151.8 30.65 150.35 L30.85 150.15 Q30.65 149.95 30.25 149.95 28.6 149.95 26.15 153.2 24.3 155.65 22.7 157.9 22.65 157.7 23.7 156.2 24.7 154.65 24.7 153.85 24.7 153.4 24.5 153.2 20.85 155.05 20.2 155.05 22.05 153.85 24.2 152.3 26.35 150.75 27.15 149.15 26.95 148.9 27.15 148.95 26.95 148.9 26.55 148.95 25.35 148.9 19.6 152.8 20.0 151.8 20.2 150.95 L20.0 150.95 Q19.8 151.0 19.1 151.4 18.4 151.8 18.0 151.8 L16.15 151.8 Q17.75 150.75 17.75 149.95 L17.55 149.75 16.95 149.75 Q16.55 149.75 15.75 150.75 14.9 151.8 14.3 152.0 12.65 152.4 11.65 152.6 12.85 152.2 14.3 149.95 14.1 149.55 13.7 149.55 13.05 149.55 11.55 150.15 10.0 150.75 9.2 150.75 8.15 150.75 7.35 150.15 9.2 150.15 10.6 149.55 10.4 148.1 5.1 148.1 L4.3 148.1 Q4.5 148.1 4.9 148.1 6.15 148.1 7.75 147.7 4.1 146.05 2.25 145.65 2.45 145.65 2.85 145.65 4.5 145.65 5.7 145.25 5.5 144.45 3.8 144.0 2.05 143.6 1.25 142.8 2.65 143.2 3.45 143.4 L3.9 143.0 Q0.0 138.5 0.0 137.3 3.45 141.35 4.7 141.35 5.3 141.35 5.5 141.35 6.35 141.35 7.05 141.9 7.75 142.4 8.15 142.4 8.6 142.4 9.8 142.1 11.05 141.75 11.25 141.8 11.85 142.4 12.25 142.4 12.65 142.4 15.3 140.65 18.0 138.9 19.8 138.9 20.65 138.9 20.85 138.9 21.05 138.9 21.45 138.9 22.25 138.5 22.25 138.3 22.25 138.1 21.85 138.1 22.25 137.9 24.1 137.1 25.95 136.25 26.95 135.05 L26.55 134.85 Q26.15 134.85 25.95 134.85 26.75 134.85 20.65 136.65 20.85 136.7 21.05 136.25 21.25 135.85 21.25 135.65 21.25 135.45 20.65 135.45 20.2 135.45 18.6 135.65 L19.6 134.65 19.4 134.4 Q19.0 134.45 18.8 134.4 18.2 134.45 16.75 135.15 15.3 135.85 14.7 136.05 14.1 136.05 16.75 134.65 16.35 134.0 15.75 134.0 15.3 134.0 14.8 134.4 14.3 134.85 13.9 134.85 13.5 134.85 12.85 134.55 12.25 134.2 12.05 134.2 L12.25 134.2 Q13.1 134.2 13.7 133.8 10.8 132.2 8.4 132.2 8.8 132.35 9.2 132.4 10.0 132.4 10.85 131.95 8.55 131.15 7.35 130.75 7.95 130.75 8.4 130.75 9.6 130.75 10.6 130.35 8.4 129.5 7.15 128.9 8.6 129.1 8.15 129.1 8.6 129.1 8.8 128.9 7.75 127.9 6.95 127.25 L6.35 125.65 Q7.75 128.9 12.65 128.9 13.1 128.9 13.6 128.7 14.1 128.5 14.3 128.5 14.9 128.5 15.1 128.8 15.3 129.1 15.75 129.1 16.15 129.1 16.95 128.7 17.75 128.3 18.0 128.3 27.8 126.65 28.8 126.65 29.6 125.45 30.05 124.6 29.6 124.6 26.15 126.45 27.6 124.4 28.0 123.8 L28.0 123.6 27.8 123.4 Q24.3 126.65 24.1 126.65 L23.9 126.65 Q22.9 126.65 23.3 126.65 L21.65 126.65 Q23.5 126.65 25.15 123.8 24.5 123.4 24.3 123.4 23.9 123.4 23.4 123.8 22.9 124.2 22.45 124.2 L20.2 124.2 Q21.25 123.8 22.05 123.4 L21.05 122.55 Q20.45 122.8 19.6 122.8 18.4 122.8 16.75 122.35 16.95 122.35 17.15 122.35 18.4 122.4 19.6 121.95 17.35 120.95 15.95 120.75 16.15 120.75 16.35 120.75 17.55 120.75 18.2 120.35 16.35 118.9 14.7 118.1 15.3 118.5 15.75 118.5 16.15 118.3 16.55 118.3 16.35 118.1 15.0 116.75 13.7 115.4 13.7 114.6 13.7 114.4 13.9 114.2 16.35 116.85 16.75 117.05 18.2 117.65 20.0 117.65 20.45 117.7 21.65 117.65 23.1 117.45 23.6 117.45 24.1 117.45 26.05 116.05 28.0 114.6 28.4 114.6 28.8 114.6 29.3 114.9 29.85 115.2 30.45 115.2 31.45 115.25 37.4 110.3 37.15 110.1 37.0 110.1 36.55 110.1 36.35 110.1 35.95 110.1 34.2 111.25 32.5 112.35 31.45 112.55 31.45 112.35 31.65 111.75 31.65 111.55 31.45 111.55 29.2 112.55 27.6 113.6 28.8 112.35 29.6 110.95 29.65 110.7 29.4 110.5 26.95 113.0 25.75 113.8 L23.1 113.8 Q25.55 113.6 26.95 110.95 26.35 110.5 25.95 110.5 23.3 111.35 22.05 111.35 23.1 110.95 23.7 110.5 23.7 109.5 18.6 109.5 18.8 109.7 19.0 109.7 20.0 109.7 21.25 109.1 19.0 107.65 17.55 107.65 L19.6 107.65 Q19.6 107.85 20.2 107.25 19.6 106.85 18.2 106.35 16.75 105.8 16.15 105.4 17.95 105.6 17.55 105.6 18.0 105.6 18.2 105.4 17.95 104.8 16.75 103.8 15.55 102.75 15.55 101.75 17.35 103.15 18.7 104.0 20.0 104.8 21.65 104.8 22.05 104.8 22.9 104.5 23.7 104.2 24.1 104.2 24.5 104.2 24.5 104.5 24.5 104.8 24.9 104.8 25.35 104.8 25.85 104.5 26.35 104.2 26.75 104.2 L31.25 105.2 Q39.0 105.2 41.25 97.85 38.6 100.1 37.4 101.35 L37.4 101.1 Q37.4 100.7 37.2 100.3 L34.55 102.75 Q35.55 100.9 35.55 101.1 35.55 100.7 35.35 100.3 34.5 101.55 33.7 102.65 32.9 103.8 31.45 104.0 33.3 104.0 33.3 101.35 33.3 100.9 33.3 100.7 31.85 101.55 31.25 102.15 L30.05 102.15 30.65 101.35 30.25 100.7 Q29.8 101.35 29.2 101.35 L29.0 101.35 Q29.2 101.3 29.4 101.35 L27.6 101.35 Q28.6 101.1 29.0 100.7 26.75 100.1 25.75 100.1 L26.95 100.1 27.6 99.3 Q25.35 98.65 24.1 98.45 24.5 98.7 24.9 98.65 25.35 98.7 25.95 98.45 23.7 96.65 22.7 96.0 25.3 97.25 26.15 97.25 L28.2 97.25 Q28.6 97.25 29.2 96.75 29.85 96.2 30.25 96.2 30.45 96.25 30.65 96.2 L30.45 96.4 Q30.45 96.65 30.85 96.65 31.25 96.6 34.1 93.55 L33.9 91.95 Q33.9 92.15 33.6 92.75 33.3 93.35 32.9 93.75 34.5 89.5 35.15 88.45 L35.35 88.25 Q35.35 88.05 35.15 87.85 34.1 89.5 33.5 90.3 33.3 90.3 32.7 89.7 32.25 89.9 31.65 89.9 31.45 89.9 31.45 89.7 31.45 89.5 31.45 89.25 31.45 89.1 31.25 88.85 29.85 90.9 29.2 92.15 L29.6 91.5 Q29.65 90.9 29.2 90.7 L29.2 90.5 Q29.2 90.3 30.45 89.05 L30.45 88.85 30.25 88.65 Q29.8 88.65 29.0 89.7 28.2 90.7 27.8 90.7 27.35 90.7 27.4 90.5 27.35 90.3 27.6 90.1 L27.4 89.9 26.75 90.7 Q26.55 90.3 26.35 89.9 24.9 91.5 23.7 91.5 24.9 91.1 25.55 89.9 L25.35 89.7 Q23.9 90.3 24.1 90.3 23.7 90.3 23.7 90.0 23.7 89.7 23.3 89.7 22.85 89.7 22.35 89.7 21.85 89.7 21.45 89.7 22.25 89.7 22.7 89.5 22.45 89.05 21.65 89.05 21.45 89.1 21.05 89.05 21.45 89.1 21.65 88.85 21.25 88.65 20.75 88.35 20.2 88.05 19.8 87.85 20.0 88.05 20.45 88.05 20.6 88.05 21.05 87.65 19.6 86.8 19.4 86.2 20.45 87.25 22.05 87.25 22.45 87.25 27.4 85.5 32.25 83.75 32.7 83.75 33.1 83.75 34.0 84.05 34.95 84.4 35.35 84.35 38.2 84.4 42.5 79.05 L42.5 78.85 Q42.5 78.65 42.3 78.45 38.0 80.9 38.6 80.9 L38.2 80.9 Q38.2 80.5 38.2 80.3 37.0 81.5 35.35 82.55 35.75 81.9 35.75 81.5 35.75 81.1 35.75 80.9 33.5 83.15 32.05 83.15 31.85 83.15 31.65 83.15 34.3 81.5 34.55 80.5 L34.55 80.3 Q34.5 80.1 34.3 79.9 31.25 81.1 30.05 81.1 29.6 81.1 29.4 81.1 L31.45 81.1 32.05 80.5 Q31.85 80.3 31.65 80.3 30.85 80.3 30.95 80.3 31.05 80.3 30.85 80.3 L29.6 80.3 Q28.2 78.45 26.75 78.65 26.95 78.65 27.15 78.65 28.0 78.65 28.6 78.25 26.75 77.2 26.15 77.2 L26.35 77.2 Q26.95 77.25 27.15 77.0 25.55 75.2 24.5 74.15 24.7 74.15 25.55 74.75 26.35 75.4 26.75 75.6 28.0 76.0 29.85 76.0 31.05 76.0 31.45 75.0 32.3 75.8 34.3 75.8 38.8 75.8 40.25 71.5 38.4 73.15 37.6 74.35 38.4 73.55 38.4 72.95 38.2 72.7 38.0 72.75 38.2 72.7 37.0 72.95 38.4 71.9 39.45 71.3 39.4 71.1 39.2 70.9 36.55 71.9 35.35 72.1 35.75 71.7 35.75 71.3 35.75 71.1 35.75 70.9 32.9 72.1 33.1 72.1 33.5 71.9 34.55 71.1 31.25 70.05 30.85 70.05 31.45 70.1 31.65 69.65 31.65 69.45 30.25 69.05 30.25 68.85 30.65 68.65 29.4 67.2 29.4 66.4 29.4 66.0 29.4 65.6 30.85 67.8 32.7 67.8 33.1 67.85 33.2 67.6 33.3 67.4 33.7 67.4 33.1 67.4 34.3 68.45 37.8 68.85 39.65 69.05 40.25 69.05 41.05 68.65 L40.65 68.05 Q40.05 68.25 39.2 68.25 39.0 68.25 38.5 68.25 38.0 68.25 37.8 68.25 38.8 68.25 39.45 67.8 38.6 67.2 36.75 67.2 37.6 67.2 38.4 66.6 37.6 66.2 36.35 66.2 37.0 66.2 37.4 65.8 36.15 64.35 35.35 63.55 36.95 65.35 39.85 65.35 41.65 65.4 42.9 63.15 42.7 62.9 42.5 62.9 42.3 62.95 41.8 63.25 41.25 63.55 40.85 63.55 40.65 63.55 39.45 62.8 38.2 62.1 37.0 62.1 37.15 61.9 37.5 61.7 37.8 61.5 38.0 61.3 36.55 60.65 35.95 60.45 36.15 60.5 36.15 60.7 36.75 60.45 37.0 60.25 34.7 59.25 34.75 58.0 35.95 59.65 39.0 59.65 39.45 59.65 39.85 59.15 40.25 58.65 40.65 58.65 40.85 58.65 40.85 58.85 L40.85 59.05 40.85 59.25 Q40.85 59.45 41.05 59.45 41.7 59.45 42.5 58.45 43.3 57.4 44.35 57.2 44.55 57.0 44.95 56.8 44.55 55.55 43.5 55.55 43.1 55.55 42.9 55.85 42.7 56.2 42.1 56.2 42.3 56.2 41.25 55.15 40.65 55.35 39.65 55.35 39.2 55.35 38.2 55.35 L38.4 55.35 Q39.45 55.35 40.45 54.95 39.85 54.95 38.8 54.75 37.8 54.55 37.4 54.35 37.6 54.35 37.8 54.35 38.8 54.35 39.45 53.95 38.8 53.3 37.2 53.3 37.6 53.35 38.0 52.9 35.95 51.1 35.55 50.45 37.6 52.5 40.25 52.5 39.65 52.5 46.35 51.05 48.65 49.85 50.25 48.85 49.45 48.6 48.4 48.6 47.4 48.65 46.35 48.85 48.0 47.6 48.85 46.8 L48.85 46.6 Q48.8 46.35 48.6 46.15 48.4 46.4 47.8 47.0 47.2 47.6 46.8 47.6 46.55 47.6 46.15 47.6 45.75 47.6 45.55 47.6 44.75 47.6 44.55 47.4 44.95 47.0 44.95 46.8 L44.75 46.6 Q43.7 47.4 42.9 47.8 43.9 46.8 43.9 46.35 43.5 46.4 43.1 46.35 42.7 46.4 42.2 46.35 41.65 46.4 41.45 46.35 41.9 46.4 42.1 45.95 L42.3 45.95 Q42.3 45.75 42.1 45.55 41.85 45.55 41.7 45.55 41.45 45.55 40.85 45.55 40.25 45.35 39.85 45.35 40.85 45.35 41.05 44.95 40.45 44.35 39.85 44.35 40.45 44.35 40.85 43.9 39.85 43.1 39.0 42.9 L39.65 42.7 39.65 42.5 Q39.65 42.1 39.2 41.05 40.05 42.7 41.7 42.7 42.1 42.7 43.2 42.4 44.35 42.1 44.75 42.1 L45.55 42.7 46.35 41.65 Q46.8 41.7 47.3 41.65 47.8 41.7 48.2 41.65 50.85 41.7 52.7 40.65 52.7 40.45 52.9 40.05 52.1 39.45 51.5 39.2 L50.65 40.05 Q50.05 39.45 50.05 39.2 50.05 39.05 50.25 38.8 49.85 38.8 49.15 38.8 48.4 38.8 47.8 38.8 48.4 38.8 45.35 37.0 L45.55 36.55 Q45.55 36.35 44.95 36.25 44.35 36.15 44.35 35.95 44.35 35.75 44.55 35.55 44.35 34.95 44.35 34.75 45.95 36.15 47.6 36.15 48.8 36.15 50.45 34.1 L50.25 34.1 Q50.65 34.1 49.25 34.3 49.45 34.1 49.85 33.9 L49.85 33.7 Q49.85 33.5 49.65 33.3 49.45 33.5 48.85 33.5 48.6 33.5 48.4 33.5 49.05 33.1 49.05 32.7 49.0 32.5 48.85 32.3 47.6 33.1 46.8 33.9 L47.0 33.7 Q47.0 33.3 46.35 33.3 47.6 31.85 47.8 31.45 47.6 31.65 46.6 32.4 45.55 33.1 45.15 33.1 L44.95 32.9 Q44.95 32.5 45.15 32.5 45.15 32.3 44.95 32.3 44.35 32.25 43.7 32.9 44.15 32.25 44.15 32.1 44.1 31.85 44.15 31.65 42.9 32.5 42.3 32.9 42.3 32.7 42.7 32.4 43.1 32.05 43.3 31.85 42.9 31.65 42.5 31.65 42.1 31.65 41.45 31.65 41.05 31.85 40.65 31.85 41.05 31.9 41.45 31.45 40.25 30.05 39.2 30.05 L39.45 30.05 Q39.85 30.05 40.05 29.6 38.8 29.2 38.4 27.4 39.65 28.4 41.9 28.4 42.1 28.4 43.3 28.1 44.55 27.8 44.95 27.8 51.25 27.8 51.3 24.5 51.25 24.95 50.05 22.45 49.25 23.7 49.05 24.3 49.25 23.9 49.25 23.5 49.25 22.9 48.85 22.25 L47.4 23.5 Q48.0 22.45 48.0 20.65 47.2 20.45 45.95 20.0 45.95 19.85 46.35 19.6 44.75 18.4 43.9 17.35 46.4 19.4 49.85 19.4 50.25 19.4 53.75 17.15 52.5 15.35 50.85 15.3 50.65 15.35 50.45 15.55 50.65 15.5 50.85 15.55 51.9 15.5 52.5 15.1 51.5 14.1 50.85 13.7 L51.05 13.7 Q51.7 13.7 51.9 13.5 51.25 13.05 50.15 12.45 49.05 11.85 48.4 11.65 50.25 11.85 49.85 11.85 50.25 11.85 50.45 11.65 49.45 9.0 49.05 7.95 50.05 10.4 52.9 10.4 54.35 10.45 54.35 8.8 53.5 6.55 52.7 5.9 52.5 6.35 52.5 6.55 51.5 3.9 51.05 2.05 51.9 4.9 53.95 4.9 54.75 4.9 55.35 4.3 L55.35 1.85 Q54.55 1.0 53.95 0.4 L56.6 0.4 57.0 0.0 Q55.75 2.65 55.75 2.85 55.8 3.7 57.0 4.9 59.05 3.5 59.85 2.45 59.85 3.7 59.05 6.55 59.05 6.15 58.65 5.9 58.65 6.15 57.9 6.65 57.2 7.15 57.2 7.55 57.2 10.0 58.85 10.0 59.85 10.0 61.9 8.8 61.9 10.0 61.3 11.25 61.5 11.45 61.7 11.45 L63.15 10.85 Q62.1 12.25 60.25 12.85 60.25 13.1 60.05 13.1 60.7 13.25 61.3 13.3 L61.3 13.1 Q60.05 13.9 59.45 14.5 59.85 15.1 61.3 15.1 60.65 15.1 60.45 15.1 59.05 15.1 58.45 16.15 60.85 18.8 63.95 18.8 65.8 18.8 67.6 16.95 67.2 17.35 66.5 18.6 65.8 19.8 64.75 19.8 L64.55 19.8 Q64.55 20.05 64.55 20.45 64.55 21.25 64.95 22.45 64.75 22.5 64.25 22.05 63.75 21.65 63.55 21.45 63.35 21.85 63.35 22.25 63.3 22.5 63.55 22.9 63.55 23.3 63.55 23.7 L63.55 23.5 Q63.55 23.3 62.5 22.25 61.7 23.1 61.7 23.7 61.7 25.55 63.95 26.15 62.9 27.6 61.9 28.2 64.35 28.8 65.35 29.0 66.4 29.2 68.15 30.45 69.85 31.65 70.3 31.65 71.9 31.65 73.15 30.85 71.5 32.05 70.7 32.9 70.9 33.1 71.5 33.1 L71.7 33.1 Q71.5 33.1 71.3 33.1 70.5 33.1 69.85 33.5 70.3 33.9 71.1 33.9 70.05 33.9 69.05 33.3 68.85 33.7 68.85 34.1 L68.85 34.3 Q68.25 33.9 67.6 33.9 67.4 33.9 67.2 33.9 67.2 34.35 68.45 35.75 65.15 33.9 63.35 33.7 63.3 33.9 64.35 34.95 64.15 34.95 63.15 34.1 63.1 34.55 63.15 34.95 63.1 35.35 63.15 35.75 L62.1 33.7 Q61.9 33.7 61.7 33.7 L61.9 33.9 Q61.9 34.1 61.5 34.1 61.9 34.1 58.85 31.85 59.45 33.3 60.9 34.75 L57.8 32.7 Q59.05 35.55 62.9 37.0 65.8 37.8 68.85 38.8 L67.8 38.8 Q67.85 39.45 68.05 39.45 L68.25 39.45 Q67.8 39.4 67.2 40.05 66.6 40.65 66.2 40.65 65.15 40.65 65.15 39.85 64.95 40.05 64.95 40.25 64.95 40.65 65.6 41.05 65.15 40.65 63.95 40.65 63.1 40.65 62.5 42.1 61.7 40.45 61.1 39.65 61.1 40.25 60.65 40.65 60.25 41.05 60.25 41.45 67.2 45.75 68.85 45.75 L70.7 45.75 Q71.9 45.95 71.7 45.95 72.95 45.95 73.55 44.75 72.3 46.35 72.3 46.15 72.3 46.4 72.75 46.8 71.9 47.2 71.5 47.3 71.1 47.4 71.1 47.6 71.1 48.0 71.5 48.0 70.7 48.0 70.3 48.4 70.7 48.85 71.3 48.85 L71.1 48.85 Q70.05 48.8 68.85 49.65 68.45 49.65 68.25 49.35 68.0 49.05 67.8 49.05 67.6 49.05 67.4 49.25 68.25 50.65 69.25 50.85 67.2 49.85 66.6 49.05 66.6 49.25 66.6 49.45 66.6 49.85 67.0 50.65 L65.6 49.25 Q65.35 49.65 65.35 49.85 L65.6 50.25 Q64.35 49.05 63.55 48.6 63.55 49.65 64.95 50.85 64.35 50.45 64.15 50.45 63.55 50.45 63.55 50.65 63.55 50.85 63.55 51.05 62.9 49.45 61.9 48.6 61.7 48.85 61.7 49.05 61.7 49.45 62.3 49.85 62.1 49.85 61.9 49.85 61.3 49.85 60.9 50.25 65.55 52.9 67.6 53.1 L68.45 52.5 Q69.45 54.55 71.7 54.55 74.55 54.55 75.6 53.1 73.55 55.55 72.75 55.75 73.15 56.2 74.55 56.2 73.15 56.2 72.1 56.9 71.1 57.6 70.9 57.6 69.65 57.6 69.65 57.0 L69.65 57.2 Q69.65 57.4 70.3 58.65 69.65 58.0 69.25 58.0 L68.85 58.0 Q69.05 58.25 69.25 58.45 69.05 58.2 68.45 57.9 67.8 57.6 67.4 57.4 67.0 57.6 67.0 57.8 L67.2 58.0 Q66.8 57.0 64.75 56.6 65.15 57.2 66.4 58.45 66.2 58.2 66.0 58.2 65.8 58.25 65.35 58.65 67.0 61.9 72.5 61.9 74.15 61.9 76.2 60.45 75.8 61.3 74.35 62.3 74.35 62.7 74.55 62.7 73.75 62.7 73.35 63.15 73.75 63.3 74.35 63.35 L74.55 63.35 Q74.35 63.3 74.15 63.35 73.15 63.35 72.75 63.75 73.15 64.15 74.15 64.15 L74.35 64.15 Q73.95 64.15 73.15 63.95 72.1 63.95 71.7 63.95 71.1 63.95 69.85 64.55 69.85 65.4 71.3 65.8 71.1 65.8 70.3 65.6 69.45 65.35 69.05 65.35 68.65 65.4 67.6 64.35 L67.4 64.55 Q67.6 64.75 67.8 64.95 L65.35 62.9 Q65.4 63.75 67.4 66.6 69.45 69.45 70.05 69.45 L70.5 69.45 70.5 69.25 Q70.45 69.05 70.9 69.05 71.1 69.05 71.6 69.75 72.1 70.5 72.5 70.5 72.75 70.45 73.15 70.5 73.55 70.45 73.75 70.5 76.0 70.5 77.85 69.25 76.0 70.9 74.75 71.7 75.2 72.1 75.8 72.1 75.6 72.1 75.4 72.1 74.35 72.1 73.15 72.5 73.55 73.55 74.55 73.55 73.75 73.55 73.55 73.55 72.7 73.55 71.9 73.35 71.7 73.55 71.7 73.75 71.7 73.95 72.1 74.15 71.3 74.15 70.05 73.55 L69.65 74.15 70.3 74.75 Q69.85 74.6 68.95 74.05 68.05 73.55 67.4 73.35 L67.4 73.15 Q67.2 73.35 67.2 73.75 67.2 74.55 68.25 75.4 69.25 76.2 69.25 76.4 69.05 76.8 68.65 77.0 70.9 78.45 72.1 78.45 L72.3 78.45 Q72.55 78.45 72.95 78.25 75.15 82.35 76.0 82.35 76.4 82.3 76.4 82.15 76.4 81.9 76.8 81.9 77.25 81.95 77.55 82.55 77.85 83.15 77.85 83.35 80.1 83.75 80.5 83.75 81.3 83.75 84.15 82.75 83.15 84.35 81.3 84.35 81.1 84.4 80.9 84.35 80.7 84.6 80.7 84.8 80.7 85.2 81.1 85.2 80.9 85.2 80.7 85.2 79.85 85.2 78.65 85.6 78.85 85.8 79.35 86.2 79.9 86.65 80.1 86.8 79.65 86.85 79.45 86.8 78.45 86.85 77.2 86.4 77.0 86.65 77.0 86.8 77.0 87.25 77.45 87.45 75.8 87.0 74.75 87.05 75.0 87.25 75.3 87.45 75.6 87.65 75.8 87.85 75.2 87.85 74.15 87.05 73.15 86.2 72.75 86.2 72.5 86.2 72.3 86.4 73.55 88.45 74.15 89.5 71.1 87.0 70.5 85.2 70.25 85.4 70.3 85.8 70.25 86.2 70.7 87.45 69.85 85.8 69.05 85.2 68.85 85.4 68.85 86.6 L68.85 86.8 Q66.8 83.95 65.6 82.35 65.35 82.35 65.15 82.55 68.45 90.7 70.3 90.7 70.7 90.7 70.7 90.5 70.7 90.3 71.1 90.3 71.3 90.3 71.8 91.0 72.3 91.75 72.85 91.75 73.35 91.7 74.15 91.95 74.95 92.15 75.4 92.15 75.8 92.15 78.65 91.1 77.65 92.35 76.0 92.35 75.8 92.35 75.4 92.35 75.4 92.55 74.75 93.15 75.2 93.55 76.4 93.55 74.55 93.55 73.15 93.75 73.55 94.8 74.75 95.0 73.35 95.0 72.3 94.4 L71.7 95.0 Q78.25 100.3 78.05 100.3 78.65 100.3 78.85 100.1 78.85 99.9 78.65 99.7 80.3 101.1 81.5 101.1 L83.95 101.1 Q85.8 101.15 88.25 99.1 87.85 99.7 86.2 100.9 84.6 102.15 84.6 102.55 85.0 102.95 86.0 102.95 85.0 102.95 82.15 103.8 83.55 104.6 85.4 104.8 L81.3 104.8 80.7 105.6 Q81.1 106.05 81.7 106.05 81.5 106.0 81.3 106.05 81.1 106.0 80.5 106.05 79.65 106.0 79.25 105.6 79.05 105.85 78.55 106.05 78.05 106.25 78.05 106.45 78.65 107.05 79.05 107.05 77.85 107.05 76.9 106.35 76.0 105.6 75.6 105.6 75.15 105.6 74.75 105.8 75.2 107.25 77.95 109.7 80.7 112.15 81.3 112.15 81.5 112.15 81.7 112.15 L81.5 111.95 Q81.5 111.75 81.9 111.75 82.35 111.75 83.05 112.35 83.75 113.0 84.15 112.95 L87.05 112.95 Q88.65 113.0 90.5 111.55 88.45 113.4 87.25 114.0 87.65 114.4 88.65 114.4 88.85 114.4 89.05 114.4 86.6 115.0 85.2 115.2 85.8 115.85 86.6 115.85 86.85 115.85 87.25 115.85 87.65 115.85 87.85 115.85 88.05 115.85 88.45 115.85 88.05 115.85 87.65 115.85 87.25 115.85 86.6 115.85 86.0 115.85 85.8 115.85 84.35 115.85 84.35 116.65 L84.35 117.05 Q84.15 117.05 83.95 117.05 82.95 117.05 82.55 116.45 81.7 117.05 81.3 117.45 81.3 117.7 81.5 117.65 L81.7 117.45 Q79.45 116.85 79.15 116.55 78.85 116.25 78.65 116.25 78.45 116.25 78.25 116.45 79.9 118.9 81.7 119.7 81.3 119.7 80.5 119.5 79.65 119.3 79.25 119.3 78.85 119.3 78.65 119.3 79.9 121.15 81.1 121.15 81.7 121.15 81.9 120.95 81.9 120.75 81.7 120.55 82.75 122.15 84.35 122.15 85.6 122.15 91.1 120.35 90.3 121.15 87.25 123.4 88.05 123.8 89.5 123.8 88.65 124.0 87.35 124.2 86.0 124.4 85.2 124.6 86.8 125.85 87.65 126.05 87.25 125.85 86.8 125.85 85.2 125.85 83.75 126.25 84.8 127.25 86.0 127.25 85.8 127.3 85.3 127.25 84.8 127.3 84.6 127.25 82.95 127.3 81.9 126.45 81.3 127.3 81.3 127.7 81.3 127.9 81.3 128.1 L79.9 128.1 Q79.05 127.25 78.85 126.85 L77.65 127.05 Q78.45 128.7 81.1 130.75 L80.9 130.75 Q79.05 130.75 77.85 129.2 76.6 127.7 75.4 126.05 75.15 126.05 75.2 126.65 75.15 128.3 78.05 130.35 80.9 132.4 81.9 132.4 84.4 132.35 87.25 131.75 85.2 133.0 84.15 133.4 84.6 133.8 85.0 133.8 L85.2 133.8 Q85.0 133.8 84.6 133.8 83.75 133.8 82.55 134.2 83.15 135.05 83.75 135.05 83.35 135.05 82.75 134.85 82.1 134.85 81.5 134.85 80.9 134.85 80.9 135.05 80.9 135.25 81.1 135.45 80.7 135.05 79.65 135.05 79.05 135.05 79.05 135.45 79.05 135.85 79.25 136.05 77.85 135.25 77.0 134.85 L77.0 134.65 Q76.8 134.85 76.6 135.05 78.05 137.3 79.05 137.7 76.4 136.05 74.95 134.4 74.8 134.65 74.75 134.85 74.8 135.45 75.4 136.45 L72.95 134.0 Q72.7 134.2 72.75 134.4 72.7 134.25 72.95 135.45 70.7 132.8 69.45 131.55 L69.25 131.55 Q69.05 131.55 68.85 131.75 70.7 134.65 71.9 136.45 70.5 135.25 69.85 134.4 69.65 134.65 69.65 135.05 69.65 135.45 69.85 136.05 69.05 135.65 68.65 133.9 68.25 132.2 67.2 131.55 67.2 132.2 67.2 132.6 67.2 133.6 67.8 134.0 67.2 133.8 64.75 132.6 64.75 133.4 66.2 134.2 65.55 134.2 64.55 133.4 64.35 133.4 64.35 133.8 64.35 137.5 71.1 137.5 71.3 137.5 72.5 137.3 73.75 137.3 74.15 137.3 76.4 137.3 81.3 139.55 86.2 141.75 87.05 141.8 89.25 141.75 92.15 140.35 90.5 141.8 89.3 142.8 L90.5 142.8 Q88.85 143.0 87.65 143.4 88.05 143.6 88.65 143.9 89.3 144.25 89.5 144.45 88.85 144.45 88.05 144.25 L87.25 144.25 86.6 144.65 Q87.65 145.05 89.5 145.05 89.25 145.05 88.85 144.85 88.65 144.85 88.25 145.05 87.65 145.05 87.45 145.05 86.0 145.05 85.4 144.45 84.8 145.05 84.8 145.25 85.4 145.65 86.0 145.65 86.6 145.65 81.7 144.85 82.75 145.65 82.75 146.25 81.3 145.05 80.5 144.25 78.25 143.4 77.0 143.0 L76.2 143.0 Q76.4 143.4 79.9 145.55 83.35 147.7 83.75 147.7 84.35 147.7 84.6 147.3 L84.15 146.9 Q85.8 147.9 87.25 147.9 92.15 147.9 93.15 144.85 91.5 147.5 90.5 148.7 90.7 148.75 90.9 148.95 91.1 148.9 91.5 148.7 92.15 148.75 92.35 148.7 92.55 148.55 92.55 148.3 90.9 149.55 88.65 149.95 89.9 150.55 91.75 150.55 89.45 151.2 88.45 151.4 89.3 152.2 90.7 152.2 89.7 152.4 89.05 152.4 87.45 152.4 86.4 152.2 L86.0 152.6 Q86.4 153.4 87.25 153.4 87.45 153.45 87.85 153.4 88.25 153.2 88.45 153.2 88.85 153.2 89.05 153.4 88.05 153.45 85.8 153.1 83.55 152.8 82.55 152.8 83.95 154.05 84.8 154.85 83.75 154.85 81.3 153.75 78.85 152.6 77.2 152.4 77.85 153.0 79.25 154.15 80.7 155.25 81.3 155.85 82.75 156.5 83.75 156.5 85.2 158.3 85.8 159.75 92.55 163.65 95.8 163.65 97.25 163.65 98.45 163.45 95.0 164.85 93.15 164.65 M24.9 88.65 Q24.1 87.65 23.1 87.65 23.5 87.65 23.9 87.65 24.5 87.65 24.9 87.85 25.15 87.65 25.55 87.15 25.95 86.6 26.15 86.4 26.15 87.45 24.9 88.65 M33.1 89.7 L32.7 89.5 33.1 88.45 33.5 88.65 33.1 89.7 M36.15 81.1 L35.75 80.7 36.55 79.45 37.2 79.65 36.15 81.1 M44.15 44.55 Q43.7 44.55 43.1 44.0 42.5 43.5 42.1 43.5 L42.3 43.5 42.5 43.5 Q43.3 43.5 43.7 44.15 L45.15 42.7 Q45.15 43.3 44.15 44.55 M44.15 79.05 Q43.5 79.25 43.3 79.25 43.3 79.45 43.3 80.3 43.3 80.9 43.5 80.9 44.55 79.65 44.95 78.85 44.75 78.85 44.15 79.05 M45.95 39.45 L45.95 38.8 47.4 38.8 47.4 39.45 45.95 39.45 M48.6 152.4 L47.8 152.4 47.8 153.0 48.6 153.0 48.6 152.4 M49.25 30.05 L49.25 29.4 50.05 29.4 50.05 30.05 49.25 30.05 M51.9 152.6 L51.9 152.0 54.95 152.0 54.95 152.6 51.9 152.6 M52.7 162.8 Q52.7 165.7 52.7 167.1 52.7 169.55 52.7 171.6 52.7 170.6 52.3 168.75 51.9 166.9 51.9 166.5 51.9 166.3 52.3 163.25 52.7 160.15 52.7 158.55 52.7 159.95 52.7 162.8 M53.95 40.05 L53.5 39.65 54.75 38.8 55.15 39.2 53.95 40.05 M53.75 29.6 L53.75 29.0 57.0 29.0 57.0 29.6 53.75 29.6 M53.95 169.15 L53.95 166.7 54.55 166.7 54.55 169.15 53.95 169.15 M54.75 31.65 L54.75 31.05 55.55 31.05 55.55 31.65 54.75 31.65 M55.75 152.2 L55.75 151.6 57.0 151.6 57.0 152.2 55.75 152.2 M56.4 165.9 L56.4 159.55 57.0 159.55 57.0 165.9 56.4 165.9 M57.4 32.3 L57.4 31.25 58.0 31.25 58.0 32.3 57.4 32.3 M57.8 29.2 L57.8 28.8 59.05 28.8 59.05 29.2 57.8 29.2 M59.25 41.25 L58.65 40.45 59.25 40.25 59.65 41.25 59.25 41.25 M59.45 48.85 L59.45 47.6 60.05 47.6 60.05 48.85 59.45 48.85 M59.85 152.0 L59.85 151.4 60.9 151.4 60.9 152.0 59.85 152.0 M63.15 41.05 L61.5 40.05 61.9 39.45 63.55 40.65 63.15 41.05 M62.3 7.35 L61.9 8.15 62.3 8.4 62.7 7.35 62.3 7.35 M62.3 58.45 Q62.9 59.05 63.35 59.05 63.55 59.05 63.75 58.85 63.1 58.2 62.9 58.2 63.75 58.25 64.15 57.8 63.75 57.6 63.75 57.0 63.75 56.8 63.95 56.6 64.15 57.2 64.75 58.35 65.35 59.45 65.8 60.05 62.9 59.25 62.3 58.45 M64.35 132.4 L62.9 130.15 63.35 129.7 64.95 132.2 64.35 132.4 M65.15 182.0 L64.55 182.0 64.55 183.05 65.15 183.05 65.15 182.0 M66.4 76.0 L64.95 72.3 65.35 72.1 67.0 76.0 66.4 76.0 M65.8 39.0 L65.8 38.4 66.8 38.4 66.8 39.0 65.8 39.0 M68.45 32.7 Q67.2 32.7 67.2 31.25 67.6 31.65 68.85 31.65 68.45 32.3 68.45 32.7 M71.5 54.75 L70.05 55.55 70.05 56.0 71.7 55.15 71.5 54.75 M77.65 118.5 L75.8 116.25 76.2 115.85 78.05 118.3 77.65 118.5 M82.95 128.7 L82.95 128.1 84.15 128.1 84.15 128.7 82.95 128.7" fill="#000000" fill-rule="evenodd" stroke="none"/>
    </g>
  </defs>
</svg>
