<?xml version="1.0" encoding="UTF-8" standalone="no"?>
<svg xmlns:ffdec="https://www.free-decompiler.com/flash" xmlns:xlink="http://www.w3.org/1999/xlink" ffdec:objectType="frame" height="200.0px" width="144.0px" xmlns="http://www.w3.org/2000/svg">
  <g transform="matrix(1.0, 0.0, 0.0, 1.0, 0.0, 0.0)">
    <rect fill="#ffffff" height="200.0px" width="144.0px"/>
    <use ffdec:characterId="1" height="200.0" transform="matrix(1.0, 0.0, 0.0, 1.0, 0.0, 0.0)" width="143.55" xlink:href="#shape0"/>
  </g>
  <defs>
    <g id="shape0" transform="matrix(1.0, 0.0, 0.0, 1.0, 0.0, 0.0)">
      <path d="M143.55 65.45 Q143.15 65.85 142.55 65.85 143.15 65.85 133.05 60.25 122.9 54.65 116.3 54.65 116.1 54.65 109.2 55.15 102.3 55.65 101.9 55.65 101.5 55.65 100.7 55.85 99.9 55.85 99.5 55.85 94.3 55.85 89.7 51.85 88.9 51.25 88.9 49.85 L90.9 36.85 90.3 36.25 Q87.1 38.65 86.3 44.05 85.9 47.05 84.1 51.85 L75.9 51.85 Q75.85 52.25 75.9 52.45 75.85 53.85 73.75 54.85 71.7 55.85 70.05 56.45 L73.25 67.25 Q72.9 68.1 72.75 68.35 72.65 68.7 72.25 68.85 71.85 69.1 71.45 69.05 71.05 69.05 70.35 68.45 69.65 67.85 69.25 67.85 L68.05 67.85 Q68.25 68.7 69.85 71.35 71.5 74.1 71.45 75.3 71.5 75.65 71.45 75.9 73.5 76.25 76.7 77.3 78.45 80.7 78.5 82.5 78.45 83.3 78.3 85.2 78.05 87.1 78.1 88.1 78.05 89.5 78.3 90.5 79.05 93.3 82.1 99.5 85.3 106.5 86.7 106.5 86.9 106.5 87.4 106.3 87.9 106.1 88.3 106.1 96.3 106.1 96.3 118.3 L96.3 118.5 Q96.3 122.95 95.5 124.7 95.3 125.15 93.9 126.65 92.5 128.1 92.5 128.75 92.5 136.15 95.7 146.15 96.9 146.75 98.9 147.75 101.7 149.35 101.7 153.15 101.7 161.95 96.1 168.35 94.9 169.6 94.9 172.15 L94.9 172.35 95.9 190.6 Q96.7 189.8 98.5 188.2 100.5 189.2 100.9 190.2 103.1 195.2 103.1 198.6 103.1 199.2 102.3 200.0 L100.1 200.0 Q98.9 195.8 97.7 193.6 96.5 193.6 95.8 196.3 95.1 199.0 93.9 199.0 92.7 199.0 91.9 196.4 91.5 194.8 90.9 193.2 89.7 193.4 89.4 195.3 89.1 197.2 88.3 197.6 L86.9 197.6 83.9 189.6 Q82.3 192.6 78.9 198.6 77.45 197.6 76.3 194.8 75.45 192.6 74.65 190.2 73.3 191.2 70.45 196.0 L68.85 196.0 Q67.85 193.2 66.25 189.2 L61.25 196.6 Q59.45 196.4 59.15 194.7 58.85 193.0 58.65 191.6 56.05 194.0 51.25 198.0 49.45 196.2 46.25 193.6 45.85 194.8 45.85 196.8 45.85 197.6 45.85 198.6 45.85 198.8 45.35 199.0 44.85 199.2 44.65 199.4 42.25 189.4 42.25 190.6 42.25 190.0 43.45 188.8 46.05 190.6 51.45 193.6 L55.45 172.55 Q55.45 170.8 54.15 168.95 52.85 167.15 52.85 166.15 52.85 163.15 55.25 156.55 56.65 155.35 58.45 152.55 59.25 149.35 59.25 142.35 59.25 141.15 59.25 139.85 59.25 138.55 59.25 138.45 59.25 138.35 59.25 137.95 59.25 137.55 59.25 137.35 59.25 136.75 57.85 134.95 56.45 133.15 56.25 132.15 55.45 128.5 55.45 127.95 55.45 125.3 56.85 123.5 58.65 120.95 59.25 119.3 L56.85 101.3 Q56.65 101.3 56.45 101.3 56.25 101.3 55.95 101.3 55.65 101.3 55.25 101.3 54.85 101.3 54.45 101.3 52.85 99.3 52.85 95.1 52.85 91.9 53.65 90.7 55.25 87.9 55.45 87.3 L53.25 73.05 49.85 77.3 Q48.65 76.65 47.85 75.9 44.65 79.05 37.75 89.0 30.85 98.9 26.65 103.3 14.8 116.1 9.2 128.15 8.6 130.55 7.8 132.95 7.0 136.15 5.2 136.75 5.2 135.15 5.4 131.95 5.4 128.55 5.4 128.35 5.4 125.5 3.8 115.9 1.8 104.1 1.8 103.9 1.8 102.9 2.0 99.7 L3.8 71.25 Q3.8 70.9 3.8 70.45 3.8 67.65 3.4 64.45 3.4 63.25 2.4 59.15 1.4 55.05 1.4 54.85 L6.2 48.05 6.2 47.25 Q6.0 47.25 5.8 47.05 5.6 46.85 5.2 46.85 4.8 46.85 1.6 49.85 L0.4 49.85 Q0.0 49.45 0.0 48.65 0.0 44.85 6.4 31.25 12.4 18.4 13.2 18.0 20.2 15.4 33.05 9.8 34.25 8.6 36.55 7.0 38.85 5.4 42.05 4.2 52.05 0.0 57.85 0.0 59.05 0.0 61.85 1.3 64.65 2.6 64.65 3.8 L64.65 12.8 Q64.65 15.0 61.45 24.45 71.65 12.4 78.8 8.0 85.9 3.6 95.7 3.6 96.1 3.6 99.3 4.6 102.5 5.6 102.9 5.6 103.3 5.6 103.9 5.6 104.3 5.4 104.9 5.4 111.9 5.4 122.1 16.2 129.95 24.85 136.15 42.05 139.95 53.85 143.55 65.45 M21.8 34.25 L21.8 33.05 Q16.0 35.65 10.2 38.05 3.6 41.25 3.2 44.45 4.4 44.25 5.4 44.25 8.8 44.25 8.8 46.65 8.8 47.05 6.5 51.15 4.2 55.25 4.2 55.65 L4.2 59.45 Q4.2 59.25 9.0 48.45 11.8 42.05 15.6 38.85 16.0 38.45 19.2 36.25 21.85 34.65 21.8 34.25 M17.2 83.3 Q11.6 86.7 5.8 89.9 4.0 90.9 4.0 96.1 L4.0 97.5 Q4.0 107.9 6.6 115.9 L17.2 83.3 M19.0 75.05 Q14.8 76.3 10.0 79.5 4.2 83.7 4.2 87.5 L4.2 87.7 5.4 87.7 Q9.4 84.9 13.6 82.3 19.0 78.65 19.0 75.7 19.0 75.25 19.0 75.05 M27.65 41.85 Q27.6 41.05 26.15 39.85 24.6 38.65 23.4 38.65 15.0 38.65 9.2 55.65 4.8 68.45 4.8 76.7 4.8 77.1 5.0 78.2 5.2 79.3 5.2 79.5 8.8 77.9 12.4 76.3 16.8 74.25 18.2 71.85 21.2 66.85 24.6 54.05 27.65 43.45 27.65 41.85 M23.4 29.05 Q21.85 26.4 20.6 25.65 16.4 22.6 14.0 22.6 12.0 22.65 11.4 24.25 9.2 28.25 5.4 37.25 L23.4 29.05 M28.65 97.1 L19.2 90.1 10.0 119.3 Q12.4 114.5 19.4 106.9 24.05 102.1 28.65 97.1 M46.05 25.65 Q46.05 11.0 41.45 10.2 L17.0 18.4 Q34.25 35.65 38.85 35.65 43.25 35.65 44.65 33.05 46.05 31.05 46.05 25.65 M54.45 44.25 Q54.45 41.45 51.45 39.95 48.45 38.45 45.25 38.45 43.05 38.45 38.15 39.75 33.25 41.05 32.25 42.05 28.8 44.85 27.45 49.05 26.6 52.25 25.85 55.45 23.6 61.65 22.2 71.65 L20.0 86.3 Q26.25 91.9 30.85 95.3 37.25 89.1 45.85 70.85 54.45 52.65 54.45 44.25 M33.65 37.25 Q31.25 35.05 26.45 31.25 24.4 33.25 23.8 35.25 29.05 38.65 29.85 38.65 28.6 38.65 33.65 37.25 M61.25 5.2 Q60.05 3.4 57.45 3.4 L57.05 3.4 Q55.45 3.4 51.45 4.8 46.65 6.8 46.65 8.8 46.65 9.2 48.45 12.8 L61.25 5.2 M60.45 15.2 Q55.05 17.0 49.65 19.0 L48.05 35.05 50.65 35.05 Q57.25 28.65 60.45 15.2 M61.85 7.4 Q55.85 11.2 48.65 16.4 53.05 15.0 61.25 12.4 61.45 10.6 61.85 7.4 M70.45 52.85 L58.65 47.65 51.65 69.25 Q53.05 65.25 54.65 65.25 54.45 65.25 58.05 69.25 58.05 68.1 59.25 64.95 60.45 61.85 61.85 61.85 60.85 61.85 67.65 64.45 L66.05 54.85 Q66.45 52.85 70.05 52.85 70.25 52.85 70.45 52.85 M92.3 168.75 Q88.1 166.35 83.1 166.35 82.7 166.35 82.2 166.35 81.65 166.35 81.5 166.35 73.05 166.35 60.05 168.95 58.05 171.8 57.25 177.4 55.65 186.6 54.85 189.6 56.05 188.2 58.05 185.4 L58.85 185.4 Q59.65 187.4 61.05 191.6 65.05 182.0 67.05 182.0 L67.45 182.0 67.65 182.2 Q68.25 185.2 69.45 190.6 L70.65 190.6 Q72.1 188.4 75.05 184.8 75.3 185.0 75.45 185.0 L75.65 185.0 Q76.7 188.0 78.5 193.2 79.65 190.2 81.2 186.9 82.7 183.6 84.1 183.4 85.3 186.8 87.7 192.2 88.3 191.6 89.9 189.0 90.9 187.0 92.1 187.0 L92.3 187.0 92.3 168.75 M108.9 51.65 Q108.3 49.85 101.3 25.05 L98.5 24.45 Q90.1 24.4 75.45 30.35 60.85 36.25 55.45 36.45 56.65 39.45 58.65 44.45 71.65 48.65 75.9 48.65 L81.7 48.65 Q82.7 44.65 85.5 37.65 88.3 32.65 91.1 32.65 94.3 32.65 94.3 37.65 94.3 38.05 93.3 42.95 92.3 47.85 92.3 48.25 92.3 52.25 96.1 52.25 96.3 52.25 101.5 51.95 106.7 51.65 108.9 51.65 M69.05 76.7 Q66.45 71.65 62.05 65.25 61.85 67.85 61.65 70.65 60.85 75.5 59.45 75.5 59.05 75.45 55.85 71.45 L58.65 83.9 69.05 76.7 M75.3 84.1 Q75.25 79.5 72.25 79.5 69.45 79.5 62.95 85.3 56.45 91.1 56.45 94.1 56.45 95.3 57.05 95.9 62.85 89.7 74.05 86.9 75.3 85.5 75.3 84.1 M97.7 151.55 Q93.7 148.95 89.7 148.95 81.1 148.95 68.85 152.15 60.85 154.35 58.85 157.05 56.85 159.75 56.85 164.95 L56.85 166.35 59.65 166.35 Q59.45 166.35 63.25 165.35 69.45 163.95 76.5 163.95 L94.9 163.95 97.7 151.55 M84.5 9.2 Q77.65 11.0 69.25 19.6 63.05 26.45 57.05 33.25 64.85 30.25 80.1 25.05 83.1 15.4 84.5 9.2 M92.5 119.1 Q92.5 113.7 90.5 110.7 86.5 110.1 86.9 110.1 82.7 110.1 78.1 112.3 66.25 117.9 62.05 122.7 59.65 125.55 59.65 128.35 59.65 129.75 60.25 131.55 L61.45 131.55 Q67.45 129.15 73.65 126.55 82.5 123.1 88.3 123.1 88.7 123.15 90.2 123.3 91.7 123.55 92.3 123.5 92.3 122.75 92.3 120.9 92.5 119.35 92.5 119.1 M82.3 107.7 Q79.85 102.1 75.05 91.7 73.9 91.1 72.25 91.1 70.05 91.1 60.65 96.3 L62.65 117.7 82.3 107.7 M92.3 145.95 Q91.5 139.75 89.1 127.95 88.5 126.5 84.9 126.55 80.85 126.5 73.85 129.55 68.45 132.15 63.05 134.55 61.65 137.55 61.65 140.15 61.65 141.35 61.95 143.95 62.25 146.55 62.25 147.75 62.25 149.75 61.65 150.95 L92.3 145.95 M90.3 8.2 Q90.1 7.8 89.3 7.0 88.5 7.4 87.3 8.6 85.9 14.2 83.5 24.0 83.9 24.05 85.3 23.6 L90.3 8.2 M123.5 25.05 L123.5 23.85 Q122.75 20.6 117.9 16.0 113.7 12.2 110.7 10.7 107.7 9.2 98.3 8.0 91.5 7.0 93.1 7.0 L92.9 7.0 Q91.3 12.0 88.5 22.6 L91.3 22.6 Q91.7 22.65 94.7 22.0 97.7 21.45 98.1 21.4 103.1 21.45 110.8 24.35 118.5 27.2 117.5 27.25 118.1 27.25 120.5 26.25 122.95 25.2 123.5 25.05 M139.55 60.45 Q133.95 51.25 128.35 42.05 120.5 31.05 111.1 27.45 106.1 25.4 105.9 25.45 L104.1 25.45 112.1 50.85 Q120.7 52.25 130.15 55.85 133.15 57.05 135.95 58.85 138.15 60.45 138.35 60.45 L139.55 60.45 M134.35 46.25 L124.5 26.85 Q123.75 27.25 122.3 27.95 120.9 28.65 120.1 29.05 127.75 35.65 134.35 46.25" fill="#000000" fill-rule="evenodd" stroke="none"/>
    </g>
  </defs>
</svg>
