<?xml version="1.0" encoding="UTF-8" standalone="no"?>
<svg xmlns:ffdec="https://www.free-decompiler.com/flash" xmlns:xlink="http://www.w3.org/1999/xlink" ffdec:objectType="frame" height="200.0px" width="131.0px" xmlns="http://www.w3.org/2000/svg">
  <g transform="matrix(1.0, 0.0, 0.0, 1.0, 0.0, 0.0)">
    <rect fill="#ffffff" height="200.0px" width="131.0px"/>
    <use ffdec:characterId="1" height="200.0" transform="matrix(1.0, 0.0, 0.0, 1.0, 0.0, 0.0)" width="130.6" xlink:href="#shape0"/>
  </g>
  <defs>
    <g id="shape0" transform="matrix(1.0, 0.0, 0.0, 1.0, 0.0, 0.0)">
      <path d="M130.6 76.85 Q130.0 79.3 127.15 81.1 125.35 82.3 123.35 83.5 123.55 83.7 123.95 83.7 126.15 83.7 128.95 82.5 128.4 82.9 128.35 83.5 128.4 83.9 128.55 83.9 126.95 84.7 126.35 84.7 L117.9 84.7 Q117.5 84.7 116.1 85.4 114.7 86.1 114.3 86.1 L102.4 86.1 Q102.0 86.1 100.2 87.1 101.4 88.95 103.6 88.95 104.25 88.95 106.65 88.35 103.6 89.35 103.6 90.15 103.65 90.35 103.8 90.55 108.05 88.95 109.65 88.95 110.85 88.95 111.45 88.95 110.85 89.35 109.65 90.15 111.45 91.15 113.1 91.75 112.65 91.95 112.05 91.95 110.05 91.95 106.85 90.55 106.65 90.75 106.45 90.85 106.25 90.95 106.05 91.15 106.85 92.55 109.75 93.05 112.7 93.55 113.1 93.95 L111.65 94.35 Q110.65 94.15 104.0 91.55 103.85 91.55 103.6 91.75 105.25 93.95 109.65 97.4 106.65 97.0 103.2 92.25 99.8 87.55 97.6 87.5 98.8 87.55 93.95 88.75 92.15 89.35 88.55 89.35 87.5 89.35 86.7 89.15 L73.05 88.55 Q74.05 89.95 76.05 89.95 77.25 89.95 76.85 89.95 77.85 89.95 79.7 89.75 79.05 90.15 77.85 90.75 78.5 91.35 79.7 91.35 79.85 91.35 80.2 91.35 80.5 91.35 80.7 91.35 81.3 94.55 82.5 101.2 83.3 99.4 83.3 94.95 L83.3 94.35 Q84.1 97.8 84.1 99.0 84.1 99.4 83.4 103.8 82.7 108.25 82.7 108.65 82.7 110.65 84.3 113.5 85.5 112.25 85.5 110.25 L85.5 100.4 Q85.5 100.0 85.1 97.2 84.7 94.35 84.7 93.95 84.7 92.55 85.3 91.95 85.3 93.55 85.7 96.8 86.5 94.75 89.55 91.75 88.55 93.55 88.55 94.75 88.55 95.8 89.15 96.8 89.35 96.15 89.95 95.15 90.55 94.15 90.75 93.75 90.75 94.35 90.35 96.2 89.95 98.0 89.95 98.2 89.95 101.8 91.35 101.8 91.75 101.8 91.85 101.3 91.95 100.8 91.95 100.0 91.95 99.2 91.75 97.6 91.75 96.2 91.75 95.75 91.75 93.55 92.55 92.95 L92.55 96.8 93.15 97.4 Q93.95 95.35 96.8 91.75 95.95 93.15 94.95 94.55 L94.95 95.35 Q95.15 95.6 95.35 95.55 96.4 95.6 98.0 92.95 97.8 94.75 95.8 96.8 97.0 97.2 98.4 97.2 96.15 97.4 94.65 98.3 93.15 99.2 92.95 101.6 92.35 105.25 92.35 105.45 L92.55 107.05 Q97.0 104.85 97.0 101.8 97.0 101.0 96.4 100.2 97.0 100.8 97.6 102.6 98.6 101.4 100.4 99.2 100.4 99.4 100.2 100.2 100.0 101.0 100.0 101.6 101.0 101.0 101.8 99.8 101.8 100.0 101.8 100.2 101.8 101.2 100.0 102.4 97.4 104.45 97.2 104.85 98.0 105.0 99.6 105.05 100.0 105.0 100.6 105.05 98.6 105.65 95.15 106.45 93.35 107.05 90.95 113.3 L91.15 114.5 Q95.55 112.25 96.2 109.05 96.35 109.45 96.6 110.05 103.0 107.45 104.0 101.6 103.45 104.65 103.4 105.45 L103.4 105.65 Q105.85 103.2 107.05 102.6 L103.6 106.85 103.8 106.85 Q105.45 106.85 107.05 106.05 105.65 108.05 105.65 109.25 L105.65 110.45 Q106.65 110.25 107.05 109.15 107.45 108.05 107.85 107.05 107.65 108.05 104.85 114.1 105.0 114.3 105.45 114.3 104.85 114.3 108.65 112.9 L107.05 114.7 Q107.05 114.9 107.35 115.3 107.65 115.7 107.65 115.9 106.65 115.3 105.25 115.3 104.4 115.3 102.3 116.8 100.2 118.3 99.8 119.3 100.8 118.5 102.8 116.9 103.0 117.5 103.4 117.5 103.2 117.5 102.2 118.5 102.4 118.7 102.9 118.8 103.4 118.9 103.6 119.1 101.2 119.7 98.6 120.3 95.95 120.95 94.75 124.55 94.75 124.75 94.95 124.75 97.4 124.75 102.0 123.15 106.65 121.55 107.65 119.9 107.25 120.55 106.65 121.95 106.85 122.15 107.35 122.15 107.85 122.15 108.05 122.35 104.85 122.95 99.4 125.35 101.0 125.75 106.45 125.75 105.65 125.75 103.7 126.15 101.8 126.55 101.4 126.55 101.0 126.55 99.8 126.15 98.6 125.75 98.2 125.75 97.4 125.75 88.55 128.75 89.55 130.6 91.75 130.6 92.15 130.6 96.7 128.85 101.2 127.15 101.6 127.15 102.0 127.15 103.2 127.75 99.8 128.15 97.4 129.4 100.2 129.75 105.65 129.8 103.8 130.2 99.8 130.8 101.0 131.0 102.6 132.6 L101.2 132.6 Q99.6 131.0 97.8 131.0 L97.4 131.0 Q96.55 131.0 90.95 131.8 91.35 132.8 94.95 133.0 94.75 133.2 94.35 133.6 94.95 133.8 96.4 134.6 95.55 134.6 93.85 134.3 92.15 134.0 91.35 134.0 91.75 135.0 92.95 136.8 91.95 136.0 88.75 131.4 86.5 128.55 83.5 128.55 80.5 128.6 72.85 132.8 73.05 133.4 74.05 134.8 76.05 132.6 78.25 131.0 78.05 131.4 77.75 132.1 77.45 132.8 77.25 133.2 77.65 133.2 77.95 133.2 78.25 133.2 78.65 133.2 79.1 133.2 79.3 133.2 76.85 134.0 72.85 137.65 74.45 137.8 77.25 138.25 73.85 138.2 67.6 139.25 66.8 140.25 65.2 142.45 62.55 145.45 59.15 151.7 58.75 153.75 58.75 157.15 L58.75 165.4 55.55 200.0 Q52.9 199.6 47.9 199.0 49.1 193.35 51.1 181.5 52.5 168.4 54.35 143.05 55.75 121.35 55.75 119.3 L52.7 116.1 52.7 114.9 Q53.95 116.1 55.55 116.5 56.35 115.9 56.35 113.3 56.35 108.45 54.55 106.25 53.3 105.25 50.9 102.6 51.3 102.6 52.1 103.2 52.9 103.85 53.5 104.0 53.55 103.85 53.7 103.6 53.75 101.2 51.7 96.2 49.7 91.15 47.7 90.95 46.9 90.95 46.6 92.15 46.25 93.35 45.25 96.4 43.65 99.8 39.85 102.2 L36.6 101.8 Q37.85 101.2 38.65 101.2 38.85 101.2 39.15 101.2 39.45 101.2 39.65 101.2 40.65 101.2 42.45 99.0 44.25 96.8 44.25 95.15 L44.05 94.95 Q41.85 96.6 37.2 99.0 36.6 99.4 35.0 99.4 L33.2 99.4 Q34.2 99.4 36.8 98.2 36.4 97.6 34.6 97.6 L34.2 97.6 Q36.2 97.2 38.65 95.95 37.0 95.8 34.2 95.15 37.65 95.15 44.25 93.95 45.05 93.75 45.9 91.15 40.25 90.35 40.05 90.35 38.45 90.35 32.6 91.95 L32.6 91.75 Q32.6 89.95 30.4 88.35 34.4 90.35 35.6 90.35 36.6 90.35 38.25 89.75 36.6 87.5 33.2 87.5 32.8 87.55 32.2 87.5 31.6 87.55 31.3 87.5 31.0 87.55 30.4 87.5 29.75 87.55 29.6 87.5 28.15 87.55 23.15 89.55 23.55 88.55 24.55 87.95 22.35 85.9 20.5 84.9 26.15 87.15 26.35 87.1 27.35 87.15 28.75 86.5 27.95 84.9 24.95 83.7 L19.7 81.5 Q23.55 82.5 29.6 85.3 34.2 87.55 37.2 87.5 L37.65 87.5 Q37.8 87.55 37.85 87.3 34.0 83.7 26.55 82.5 26.75 82.5 26.95 82.5 28.15 82.5 29.4 82.1 28.95 81.9 27.95 80.1 30.2 81.1 34.4 83.3 35.4 83.9 39.05 87.5 41.45 89.95 44.05 89.95 45.9 89.95 47.1 88.95 45.65 84.7 40.45 82.9 31.8 80.1 30.8 79.5 31.0 79.45 31.2 79.5 32.4 79.45 35.3 80.6 38.25 81.7 38.65 81.7 38.85 81.7 39.05 81.5 35.0 78.25 32.4 78.25 L32.4 78.05 Q32.4 77.45 32.8 77.05 31.4 75.45 30.4 75.45 30.0 75.45 29.4 75.85 28.75 76.25 28.35 76.25 27.75 76.25 26.75 76.05 25.75 76.05 25.35 76.05 22.35 76.05 18.9 78.25 19.1 77.65 19.7 76.65 19.3 76.05 17.3 76.05 17.9 75.85 19.1 75.65 20.3 75.45 20.75 75.25 19.7 74.85 17.3 73.45 17.5 73.45 21.35 74.65 24.55 75.45 26.95 75.45 28.55 75.45 29.4 75.05 27.35 71.85 22.15 70.8 17.7 70.05 13.1 69.2 13.45 69.2 14.3 68.8 14.3 68.2 12.7 66.8 14.9 67.8 19.7 70.0 L21.95 69.8 Q21.1 69.2 19.5 67.8 18.9 67.0 14.7 65.0 12.85 64.6 8.45 64.6 7.85 64.6 6.95 64.6 6.05 64.6 5.85 64.6 4.2 64.6 1.8 67.0 1.8 66.6 3.4 64.4 3.0 64.0 2.4 64.0 2.0 64.0 1.8 64.2 1.8 64.4 2.6 63.4 2.2 63.2 1.2 62.35 2.0 63.0 2.8 63.0 3.85 62.95 4.25 63.0 6.65 62.95 10.65 61.55 10.25 60.55 8.25 60.55 7.85 60.55 6.85 60.55 6.05 60.75 5.45 60.75 2.4 60.75 1.8 58.55 4.25 60.15 5.05 60.15 6.45 60.15 7.45 59.55 6.85 58.55 4.85 58.15 2.0 57.55 0.2 56.55 L0.4 56.55 Q1.0 56.55 2.5 57.05 4.05 57.55 4.85 57.55 5.65 57.55 6.05 57.15 3.8 55.55 0.0 51.9 3.6 53.7 3.2 53.7 3.4 53.75 3.6 53.3 3.2 51.9 3.2 51.5 5.05 54.15 6.85 56.55 9.85 60.15 12.25 61.15 12.3 60.95 12.25 60.75 12.3 58.75 11.25 56.15 12.3 57.15 13.3 60.75 13.9 63.4 16.5 64.0 L16.7 63.8 Q16.7 63.6 16.7 63.2 16.7 59.95 12.05 55.95 8.65 52.9 5.85 51.7 11.05 53.3 10.65 53.3 10.45 52.3 8.45 51.1 5.65 49.5 5.45 49.3 5.65 49.3 6.25 48.9 7.65 50.1 8.65 50.3 9.05 49.9 9.05 49.1 9.25 50.9 13.1 53.9 13.25 53.3 13.3 52.7 13.25 52.1 13.1 51.3 13.05 50.3 13.1 49.9 L23.35 60.15 Q23.55 59.95 23.55 59.55 25.15 64.2 31.4 67.2 31.0 63.6 23.15 56.55 24.15 57.35 25.45 58.35 26.75 59.35 27.55 59.35 27.75 59.35 27.95 59.15 L22.15 53.9 Q23.95 54.35 27.05 56.95 30.2 59.55 30.6 61.55 31.2 60.55 31.2 58.75 31.2 58.55 31.2 58.15 31.2 57.75 31.2 57.55 29.55 55.95 26.35 53.7 23.75 53.3 18.5 52.1 19.1 52.1 20.5 51.7 19.3 50.5 17.1 48.5 22.75 52.7 24.55 52.7 24.75 52.7 24.95 52.5 21.55 49.7 19.1 46.9 20.1 47.3 20.6 48.0 21.15 48.7 21.95 48.7 22.1 48.7 22.55 48.7 21.7 45.85 20.1 43.45 21.55 45.25 23.75 49.5 24.95 51.9 26.75 51.9 L26.75 51.7 Q26.75 50.3 25.55 47.5 25.95 48.1 26.75 49.3 27.15 47.9 27.75 45.45 28.15 47.9 28.35 50.3 29.0 53.5 30.6 55.75 L30.8 55.75 31.2 56.15 Q31.4 55.95 31.4 55.55 31.4 54.5 31.4 54.75 31.4 53.7 29.8 50.1 L29.8 48.9 31.6 51.5 Q31.8 51.3 32.6 48.9 32.8 49.5 32.8 50.3 32.8 51.3 32.6 53.0 32.4 54.75 32.4 54.95 32.4 57.15 35.0 57.95 37.0 58.55 39.25 59.15 L40.65 58.95 Q40.25 57.95 36.6 53.3 37.25 53.35 39.05 55.35 39.85 54.75 39.85 53.7 39.85 56.55 42.95 59.85 46.05 63.2 48.9 63.2 49.1 63.15 49.3 63.0 47.1 60.35 42.45 54.3 45.25 57.35 51.7 63.6 51.9 63.4 51.9 63.2 L51.9 62.15 Q51.9 60.95 51.1 60.15 50.3 59.35 49.9 58.35 L51.3 58.95 51.5 58.95 Q51.1 58.35 51.1 56.75 L58.35 64.6 Q58.55 64.0 58.55 63.2 58.55 60.95 56.75 58.55 54.95 56.15 52.7 56.15 52.3 56.15 50.5 56.45 48.7 56.75 48.3 56.75 47.1 56.75 45.05 55.55 45.7 55.55 47.1 55.55 48.7 55.75 49.1 55.75 50.1 55.75 51.5 54.75 49.9 52.1 48.1 52.1 47.9 52.1 47.3 52.3 46.85 52.3 46.7 52.3 46.05 52.3 44.35 52.5 42.65 52.7 42.25 52.7 40.65 52.7 38.65 51.5 38.85 51.5 39.45 51.1 39.85 51.1 41.15 51.3 42.45 51.5 42.85 51.5 44.05 51.5 46.5 50.9 46.45 50.5 43.85 49.5 35.8 49.5 35.2 48.9 L35.4 48.9 Q39.65 48.9 42.45 48.7 40.85 46.9 38.65 46.9 37.6 46.9 35.6 47.3 33.6 47.7 32.6 47.7 30.8 47.7 29.4 46.9 29.75 46.9 30.3 46.9 30.8 46.9 31.6 46.9 32.4 47.1 32.8 47.1 34.4 47.1 35.8 46.3 33.6 44.25 28.25 44.25 22.95 44.25 20.75 42.25 21.3 42.25 22.55 41.85 21.95 40.85 20.95 39.25 25.15 42.65 27.15 43.65 L28.75 43.45 Q27.75 42.05 24.85 40.05 21.95 38.05 20.5 38.05 20.75 38.0 21.15 38.05 22.15 38.0 24.35 39.15 26.55 40.25 27.95 40.45 26.35 38.45 25.35 36.2 32.6 44.65 35.8 44.65 36.2 44.65 36.4 44.85 L36.6 44.65 Q32.8 40.65 32.8 39.45 L32.8 39.25 Q35.4 42.45 41.45 46.9 L43.05 46.5 Q40.25 44.85 36.2 39.85 36.4 39.85 40.05 42.65 40.25 42.45 40.25 42.05 40.25 41.25 39.65 40.25 40.85 42.25 45.25 47.3 49.7 52.3 51.1 52.3 51.3 52.3 51.3 51.7 48.5 46.5 46.9 45.85 47.3 45.5 47.9 45.45 L48.7 45.45 Q49.5 45.7 50.5 45.65 51.5 45.7 52.7 45.45 50.1 43.25 47.1 42.85 44.05 42.45 42.65 41.45 43.25 41.45 45.45 41.75 47.7 42.05 49.3 42.05 43.45 40.25 32.2 35.0 32.6 34.8 33.2 34.8 33.4 34.8 34.0 34.8 34.6 35.0 35.0 35.0 L35.2 35.0 Q34.0 33.6 31.8 30.8 32.0 31.0 36.4 35.4 39.25 38.05 41.45 38.65 L42.65 38.45 Q41.85 36.4 38.75 34.7 35.6 33.0 35.6 31.2 L35.6 31.0 Q36.8 32.8 39.65 34.6 39.65 33.4 39.05 31.4 40.65 33.8 42.25 36.4 45.05 40.65 46.7 40.65 L48.3 40.65 Q48.9 40.05 48.9 39.45 48.9 38.45 45.25 35.2 41.65 32.0 40.25 31.2 42.85 31.2 44.65 32.8 44.65 32.6 44.65 32.2 44.85 31.6 44.85 31.4 45.7 32.8 46.7 33.8 46.85 33.0 46.9 31.4 47.1 32.8 48.3 35.0 49.9 38.25 51.5 38.25 L52.7 38.25 Q52.9 38.2 52.9 37.8 52.9 37.25 51.5 33.0 50.7 30.6 48.9 30.2 42.45 28.35 37.0 28.35 35.0 28.4 33.4 28.95 34.0 28.8 34.6 27.95 34.6 28.15 33.2 26.75 39.05 27.75 37.85 27.75 38.65 27.75 39.05 27.55 37.0 26.35 35.8 24.55 41.85 28.75 45.25 28.75 45.7 28.8 46.1 28.75 43.65 26.35 38.65 24.55 32.8 22.55 32.2 22.15 35.0 22.55 36.4 23.15 L37.85 22.95 Q35.0 18.9 30.4 18.5 31.6 18.5 33.2 18.1 32.4 17.7 31.4 16.5 32.8 16.7 36.3 20.2 39.85 23.75 41.65 23.95 41.25 23.35 39.65 18.9 40.45 19.7 41.45 21.55 41.65 22.75 42.45 24.55 42.85 25.35 45.95 27.25 49.1 29.2 49.7 29.15 49.9 29.0 49.9 28.55 49.9 26.15 46.1 20.7 43.45 17.1 38.65 14.1 37.4 13.3 34.4 13.3 33.6 13.3 28.95 14.1 29.6 13.9 30.8 13.1 30.6 13.05 27.55 11.05 28.15 11.05 29.7 11.45 31.2 11.9 32.2 11.85 32.8 11.9 33.4 11.65 32.4 10.45 30.4 9.85 27.55 9.05 27.35 9.05 27.55 8.85 27.95 8.85 29.8 8.85 33.0 10.75 36.2 12.7 37.85 12.65 38.0 12.7 38.25 12.65 36.8 10.05 31.5 7.05 26.15 4.0 24.55 1.8 25.15 1.8 26.65 3.2 28.15 4.65 28.95 4.65 29.2 4.6 29.4 4.4 29.15 4.45 27.95 2.0 29.0 3.4 31.0 5.65 32.8 7.05 38.25 10.65 35.6 7.05 30.4 0.0 31.2 0.6 32.6 2.2 34.0 3.85 35.0 4.65 35.2 4.2 35.4 3.6 35.8 7.05 39.45 10.45 41.05 9.25 41.05 7.85 41.05 6.65 39.25 5.85 40.05 5.85 41.05 6.45 41.85 4.2 41.85 0.2 41.85 0.4 42.15 1.1 42.45 1.8 42.45 2.2 42.45 2.8 42.25 4.65 42.05 6.45 42.05 6.85 42.05 9.25 43.85 14.9 46.1 10.65 46.1 10.45 46.05 10.25 45.25 7.95 44.45 5.65 44.45 5.25 44.45 5.05 45.05 3.8 45.7 2.6 45.7 2.0 45.65 2.4 45.7 2.8 45.65 3.2 45.7 4.25 45.45 5.25 45.45 5.65 45.5 8.05 46.3 9.45 46.25 8.25 47.3 7.25 47.5 7.25 47.9 7.45 48.7 5.45 50.5 1.6 49.5 3.6 49.5 4.85 L49.7 5.05 Q50.3 4.4 51.3 4.4 48.9 8.05 48.9 7.65 L48.9 9.25 49.3 9.85 50.5 8.85 Q50.5 9.05 48.9 12.25 47.9 14.5 47.9 15.7 47.9 17.1 48.3 18.1 50.7 16.3 52.9 14.3 53.1 12.05 54.95 8.85 54.95 9.85 54.35 10.45 L54.55 11.85 Q55.55 10.85 56.75 10.25 55.35 12.5 52.9 15.9 51.7 16.5 49.9 17.8 48.1 19.1 48.1 21.35 48.1 24.55 50.3 26.35 50.7 24.35 51.5 20.7 51.5 21.55 51.5 22.25 51.5 22.95 51.5 24.05 51.5 25.15 51.5 25.55 51.5 30.8 54.55 32.8 55.75 32.4 55.75 30.6 55.75 30.2 53.8 25.15 51.9 20.1 51.9 19.5 51.9 18.9 52.5 17.7 52.7 19.3 53.5 22.55 54.35 22.15 54.35 20.9 54.3 20.75 54.35 20.3 54.3 19.7 54.55 19.5 54.5 19.7 54.55 20.1 54.5 20.55 54.55 21.75 54.3 22.75 54.35 23.35 54.3 25.35 55.35 26.35 L55.75 26.55 55.75 24.75 Q55.75 19.3 55.55 16.3 55.75 18.3 56.35 22.35 L56.95 22.95 Q57.75 22.75 58.15 20.7 58.95 17.5 58.95 17.3 56.75 32.2 56.75 31.4 56.75 33.8 57.95 37.2 58.75 36.4 60.95 35.6 62.2 35.0 62.15 33.6 62.2 33.2 61.15 31.6 60.15 30.0 60.15 29.8 L60.15 29.6 60.15 28.35 Q60.35 29.4 61.35 30.0 61.55 29.55 61.55 29.15 61.55 28.6 61.15 28.15 61.75 28.15 62.4 29.35 62.95 28.4 63.0 26.75 62.95 26.35 61.25 21.25 59.55 16.1 59.55 15.7 L59.55 13.3 Q59.55 14.3 60.35 15.7 60.55 14.9 60.85 13.6 61.15 12.25 61.35 11.65 60.95 16.1 60.95 16.7 60.95 20.9 63.8 24.95 65.2 21.75 65.2 19.5 65.2 19.3 64.3 17.4 63.4 15.5 63.4 14.7 63.4 14.5 63.4 14.3 63.8 15.1 65.2 17.1 65.4 16.9 65.6 16.7 65.6 16.3 65.6 16.1 65.6 14.5 64.4 11.25 L65.2 11.85 Q65.8 11.45 65.8 10.45 65.8 13.1 66.2 16.1 L66.8 16.7 Q67.4 14.9 71.45 10.65 66.6 16.7 65.2 25.15 L65.6 27.35 Q67.4 25.95 67.4 23.15 67.8 18.9 67.8 18.5 67.8 18.9 67.8 19.5 67.8 21.15 68.2 22.55 68.4 22.15 71.05 18.5 70.6 19.1 69.8 20.6 69.0 22.15 68.6 22.75 L69.0 24.15 Q69.4 23.95 70.65 23.05 71.85 22.15 72.45 21.95 71.85 24.35 71.85 25.95 71.85 26.95 72.05 27.95 72.85 27.55 74.45 24.95 74.05 25.95 72.55 28.55 71.0 31.2 71.05 31.6 71.0 32.0 72.05 33.2 73.05 32.2 73.05 31.0 73.05 30.2 72.05 36.8 74.45 33.8 75.65 31.8 L75.85 32.0 Q75.85 34.2 72.25 37.95 68.6 41.65 68.6 43.25 L68.6 45.05 69.2 45.85 Q71.65 43.45 73.05 41.05 72.45 42.25 72.45 44.05 73.85 43.45 74.45 43.45 74.05 44.25 71.25 45.75 68.4 47.3 68.4 49.1 68.4 50.3 69.4 50.3 69.6 50.3 69.8 50.3 72.85 50.3 72.85 47.5 L74.05 48.5 Q74.45 48.1 75.45 47.3 74.25 51.1 74.25 50.5 74.25 52.1 76.05 52.9 76.65 50.9 76.65 49.5 76.65 49.3 76.45 47.3 76.45 45.25 76.45 43.25 76.45 42.05 76.45 41.05 76.45 42.25 77.05 44.65 77.85 43.65 79.05 41.05 79.1 42.05 78.15 44.65 77.25 47.3 77.25 47.7 77.25 47.1 77.85 49.3 81.3 47.5 81.3 43.85 81.3 42.85 75.85 35.6 76.85 36.4 78.65 37.8 79.1 36.85 79.05 34.2 79.3 36.6 81.3 40.65 81.9 39.25 81.9 37.2 81.9 35.8 81.4 32.5 80.9 29.15 80.9 27.55 81.3 29.2 82.3 31.8 82.7 30.6 82.7 28.95 82.7 28.8 82.7 28.25 82.7 27.75 82.7 27.55 82.1 26.95 81.1 25.95 82.5 25.95 84.5 29.8 84.7 29.15 84.7 28.55 84.7 28.15 84.5 27.35 84.5 26.55 84.5 26.15 84.5 25.75 84.7 25.35 84.7 26.55 85.9 30.8 86.5 30.0 86.5 28.75 86.5 27.15 85.1 25.15 83.7 23.15 81.9 23.15 80.9 23.15 79.05 25.95 79.1 25.75 79.5 23.55 80.5 22.75 82.3 21.35 81.5 20.1 80.1 17.5 80.9 17.5 82.9 20.3 85.7 24.75 86.1 25.35 86.3 25.15 86.5 24.95 86.55 24.55 86.5 24.35 86.5 24.75 84.3 15.7 84.9 17.7 86.5 21.55 86.7 21.3 86.9 21.1 L86.9 20.5 Q86.95 20.15 85.9 17.3 84.9 14.5 84.8 14.0 84.7 13.5 84.7 13.1 84.7 12.65 84.9 12.05 84.9 11.25 84.9 11.05 84.9 13.1 87.75 18.7 88.1 17.9 88.15 16.7 88.15 15.5 87.55 12.85 86.9 10.25 86.9 9.25 86.95 8.45 86.9 8.25 87.15 9.25 88.15 11.85 88.75 11.05 88.75 9.85 88.75 9.65 88.75 8.65 89.35 9.85 89.35 10.85 89.35 11.25 89.15 12.05 89.15 12.9 89.15 13.3 89.15 14.1 89.35 14.9 90.55 13.3 90.55 11.05 90.55 10.65 90.35 10.05 90.35 9.45 90.35 9.15 90.35 8.85 90.35 8.45 90.35 9.65 91.15 10.85 L91.95 10.25 Q90.55 14.1 89.25 17.9 87.9 21.75 87.95 26.15 87.9 27.55 88.35 28.35 90.55 27.15 90.55 24.15 90.55 23.95 90.55 23.35 90.55 21.35 91.15 20.5 91.15 20.95 91.15 21.1 91.15 22.15 91.35 22.55 91.95 21.75 92.55 20.3 L92.55 23.55 Q93.35 22.95 95.35 21.55 90.75 24.75 89.15 33.2 L89.55 34.8 Q91.15 33.6 92.35 30.2 93.55 25.95 93.95 25.55 92.95 28.55 92.95 28.75 L92.95 31.4 Q94.55 31.4 95.15 28.75 95.8 24.95 96.8 23.55 95.95 27.55 96.0 26.15 95.95 26.35 96.2 26.55 L97.4 25.55 Q97.2 27.15 95.8 28.55 L96.0 28.75 Q96.35 28.8 96.6 28.75 98.2 28.8 99.2 24.95 99.6 22.75 100.0 20.5 100.0 20.95 100.0 21.35 100.0 22.95 100.4 24.55 L104.25 19.7 Q103.0 21.75 101.2 25.35 L101.6 25.35 Q103.6 25.35 105.05 24.95 104.4 25.35 100.0 27.15 97.2 28.2 96.8 30.2 98.0 30.6 100.2 30.6 100.6 30.6 100.8 30.6 98.4 31.0 96.0 31.4 92.95 32.2 90.55 35.6 91.15 36.2 92.15 36.2 92.55 36.2 93.75 36.0 94.95 36.0 95.8 36.0 94.75 36.4 90.35 36.8 86.9 37.0 85.1 39.45 85.5 39.65 86.3 39.65 88.95 39.65 93.75 37.2 L94.95 37.2 Q94.55 37.65 93.75 38.45 94.35 38.65 95.8 39.05 92.95 39.85 86.7 40.25 84.3 40.25 83.1 42.85 L83.3 45.45 Q84.3 44.25 86.3 41.45 85.1 45.25 85.1 44.65 85.1 44.9 85.3 45.05 86.7 44.05 89.75 42.05 88.75 43.65 86.7 45.65 84.9 46.1 82.1 48.3 L82.1 49.3 81.9 49.3 Q82.1 49.5 82.5 49.5 84.3 49.5 87.75 46.7 91.15 43.85 91.75 42.45 91.95 42.65 91.95 42.85 L88.95 47.3 89.15 47.5 89.55 47.5 Q90.75 47.5 91.85 46.05 92.95 44.7 93.95 43.45 93.75 44.05 93.75 44.45 93.75 44.9 93.95 45.05 95.35 44.45 96.4 43.45 94.75 46.1 90.55 48.5 87.9 49.1 85.3 49.7 80.9 50.9 80.9 53.1 L80.9 54.75 Q82.9 54.1 84.4 52.7 85.9 51.3 86.5 50.9 86.3 51.3 85.7 52.5 85.9 52.5 86.1 52.7 86.75 52.7 86.9 52.7 87.55 52.7 91.55 50.7 90.55 52.1 88.55 53.5 88.95 53.55 89.15 53.5 90.15 53.55 91.75 52.7 L93.75 52.7 Q93.15 52.9 91.45 53.8 89.75 54.75 89.15 54.75 88.95 54.7 87.95 54.2 86.9 53.75 86.5 53.7 85.9 53.75 83.6 56.55 81.3 59.35 79.5 59.55 78.25 60.55 78.25 61.15 78.25 61.75 78.65 62.15 83.5 60.95 83.9 60.75 86.7 59.55 87.75 56.35 87.7 56.55 87.75 56.75 87.7 57.95 88.15 58.35 88.3 58.35 89.15 58.05 89.95 57.75 90.15 57.55 L85.5 62.35 Q86.3 63.2 87.3 63.2 87.55 63.15 88.15 63.2 89.35 63.2 90.15 61.55 90.95 59.95 91.75 58.55 94.15 55.75 97.6 49.1 97.4 50.5 97.4 51.5 97.4 51.7 97.4 51.9 99.2 50.7 102.8 48.5 100.0 50.9 97.0 53.3 93.95 55.75 93.55 58.75 96.4 57.35 99.6 55.85 102.8 54.3 105.25 51.3 104.6 53.3 101.7 55.25 98.8 57.15 96.0 58.95 L96.4 61.75 Q97.2 60.75 99.2 59.15 98.4 60.55 96.8 63.4 96.8 63.6 97.0 63.6 97.4 63.6 97.6 63.6 98.8 63.6 99.4 62.15 L100.8 59.55 Q100.8 60.55 100.2 62.35 L100.4 62.55 Q100.6 62.6 100.8 62.55 L105.25 58.15 Q104.2 59.95 103.2 60.95 L103.2 61.95 Q103.2 62.2 103.8 62.15 103.65 62.2 109.65 59.15 108.05 60.95 102.6 63.8 103.65 64.2 104.85 64.2 106.25 64.2 109.05 63.2 108.85 63.4 108.25 64.4 106.65 64.8 103.4 66.0 99.2 68.8 99.2 70.8 L99.2 72.25 99.0 72.25 Q99.2 72.45 99.6 72.45 100.4 72.45 101.5 71.25 102.6 70.0 102.6 69.4 102.8 69.4 102.9 69.6 103.0 69.8 103.6 69.8 105.45 69.8 105.45 67.2 105.45 67.0 105.45 66.6 105.65 66.8 106.25 66.8 105.45 66.8 108.05 66.6 108.05 66.8 107.65 67.4 107.25 68.0 107.25 68.4 108.65 67.6 110.25 63.6 110.25 65.2 109.65 66.0 110.05 66.4 110.65 66.4 111.25 66.4 111.65 66.0 110.25 67.2 107.85 69.6 106.85 71.05 106.05 75.05 L106.25 77.25 Q107.45 75.25 109.65 72.85 111.25 72.05 115.1 69.8 105.85 76.65 105.85 79.5 106.05 79.65 106.45 79.7 107.25 79.65 109.55 78.55 111.85 77.45 112.05 77.05 112.5 75.65 113.7 72.85 113.7 73.25 113.5 74.15 113.3 75.05 113.3 75.65 113.3 76.05 113.5 76.25 114.7 74.85 117.3 72.45 114.9 76.05 111.85 79.05 113.5 80.1 114.7 80.1 113.7 80.05 111.85 80.1 110.05 80.05 109.65 80.1 103.0 80.05 102.8 84.5 103.2 84.7 106.05 84.7 L111.45 84.7 Q113.7 82.3 115.7 79.9 118.9 76.05 118.9 73.65 118.9 71.85 117.7 70.6 118.5 71.25 119.9 73.25 120.75 71.45 120.7 71.25 120.75 70.0 117.3 67.4 118.7 68.0 121.15 69.8 121.3 69.6 121.35 69.4 121.3 66.0 118.9 64.0 L120.1 64.0 Q120.35 63.2 120.3 62.35 120.35 62.0 120.3 61.15 120.15 60.35 120.1 59.95 120.15 64.6 122.95 67.6 124.35 64.4 124.35 61.75 124.35 61.35 124.35 60.95 124.75 64.0 124.75 62.8 124.75 64.0 121.75 72.25 L121.75 73.25 121.95 73.25 Q122.95 73.25 123.75 71.65 125.15 69.2 125.35 69.0 125.35 69.4 125.15 70.0 125.15 70.85 125.15 71.45 125.95 70.8 127.75 69.4 126.95 70.65 124.75 72.85 127.55 73.65 129.2 73.65 128.95 73.65 128.45 73.65 127.95 73.65 127.15 73.65 126.35 73.65 125.95 73.65 118.3 73.65 118.3 79.25 118.3 79.5 118.5 79.7 120.1 78.85 123.35 77.25 121.1 79.1 117.3 80.9 115.1 81.9 113.9 84.5 L114.1 84.7 114.5 84.7 Q117.9 84.7 121.55 82.7 125.95 80.5 127.75 76.85 127.55 77.25 126.65 78.65 125.75 80.1 125.75 80.9 125.75 81.1 126.35 81.1 127.35 81.1 130.6 76.85 M4.65 54.95 Q4.6 54.7 4.25 53.9 4.0 54.35 3.4 54.55 4.25 54.5 4.65 54.95 M8.65 58.75 L7.05 57.35 6.65 57.75 8.25 59.15 8.65 58.75 M11.45 63.4 Q11.25 63.35 11.05 63.2 10.85 62.95 10.45 63.0 10.25 62.95 7.85 64.2 10.05 63.4 11.45 63.4 M9.45 50.9 L8.25 50.5 8.25 50.9 9.25 51.3 9.45 50.9 M14.9 57.75 Q14.7 56.55 11.65 53.7 11.7 53.95 11.25 54.55 12.7 55.55 14.9 57.75 M14.1 63.0 L12.5 61.75 12.25 62.15 13.7 63.4 14.1 63.0 M48.1 87.75 Q46.9 85.1 46.9 83.3 46.9 83.7 46.3 84.5 44.05 81.3 40.45 76.65 40.45 76.85 40.65 77.05 40.65 77.25 40.05 77.25 40.45 77.25 39.05 75.85 39.05 76.65 38.05 76.65 36.6 76.65 35.2 74.65 34.4 73.25 33.6 71.85 33.8 72.45 34.3 73.35 34.8 74.25 34.8 74.65 L33.4 74.85 Q28.75 72.85 27.75 70.8 27.95 71.05 27.95 71.25 27.95 71.4 27.55 71.45 24.35 71.4 18.7 65.0 17.9 63.2 16.5 60.15 17.1 63.8 17.1 62.8 17.1 63.8 16.5 64.4 L15.3 64.4 Q20.3 68.0 30.2 74.65 33.0 75.65 37.0 78.05 38.45 78.45 41.05 79.7 41.65 80.7 42.65 82.5 42.25 82.9 41.25 82.9 42.85 83.1 48.1 87.75 M23.55 59.55 Q23.35 59.15 23.35 58.75 23.35 58.55 23.35 58.35 23.35 58.75 23.35 58.95 23.55 59.35 23.55 59.55 M27.35 66.8 Q26.35 66.0 24.55 64.6 25.35 65.8 26.55 67.6 26.55 66.8 27.35 66.8 M53.7 78.45 Q53.75 75.85 51.6 71.75 49.5 67.6 49.5 67.2 49.5 66.6 49.7 66.6 50.5 67.4 50.7 67.4 51.3 67.4 52.1 66.2 52.1 70.85 53.3 72.45 L53.3 70.6 Q53.3 68.6 52.5 66.2 45.7 63.6 31.8 58.55 31.8 59.15 31.6 60.95 31.4 62.8 31.4 63.0 31.4 63.4 32.1 65.4 32.8 67.4 33.0 67.4 33.4 65.4 35.0 62.55 35.2 63.8 35.2 64.4 35.2 63.8 33.4 70.0 L37.0 73.45 Q37.05 72.45 37.0 72.65 37.05 72.25 37.2 72.05 38.25 73.45 39.85 75.85 L39.85 74.65 Q36.2 68.0 36.2 66.8 L36.4 66.6 Q37.05 67.8 37.85 69.2 37.8 68.4 37.65 67.0 37.4 65.6 37.45 65.0 37.4 64.0 37.85 63.2 38.4 63.8 38.25 63.8 38.6 65.8 39.05 68.6 39.65 67.4 40.85 65.2 41.05 65.8 41.05 66.4 41.05 67.2 40.55 69.1 40.05 71.05 40.05 72.05 40.05 73.85 41.25 74.85 42.05 73.65 43.45 71.45 43.25 72.45 42.65 74.55 42.05 76.65 42.05 77.05 42.05 78.45 45.7 81.5 44.65 79.25 44.65 79.05 44.65 78.7 44.85 78.25 45.7 78.9 46.3 80.7 46.25 80.3 46.9 79.7 47.05 83.5 52.3 87.75 50.1 83.9 48.5 80.9 L49.7 80.7 Q51.3 84.5 52.5 85.1 L52.5 83.1 Q52.5 82.7 49.8 77.95 47.1 73.25 47.1 72.85 47.1 72.45 47.1 72.25 L47.3 72.05 Q48.1 72.85 48.5 73.45 48.5 73.05 48.3 72.05 48.3 71.0 48.3 70.3 48.3 69.6 48.3 69.0 48.7 69.8 49.3 70.8 49.7 70.85 49.9 70.4 50.3 73.25 50.5 75.85 51.1 79.3 53.1 81.1 53.1 80.7 53.4 79.8 53.75 78.85 53.7 78.45 M41.85 15.3 Q42.05 14.3 42.05 13.3 42.05 11.65 41.45 10.05 L41.45 9.85 Q40.65 12.5 40.65 12.65 40.65 14.1 41.85 15.3 M46.7 19.1 L46.7 14.7 Q46.7 14.3 46.4 13.7 46.05 13.05 46.1 12.85 44.85 14.1 44.85 17.5 L44.85 17.7 Q45.9 18.1 46.7 19.1 M47.7 11.85 L47.7 10.85 47.1 10.85 47.1 11.85 47.7 11.85 M56.35 55.75 L56.35 54.55 Q56.15 52.1 55.75 49.9 55.15 46.5 52.3 46.5 51.9 46.45 50.6 46.7 49.3 46.9 48.9 46.9 51.1 50.5 56.35 55.75 M53.9 44.45 L53.9 43.25 Q53.55 41.25 51.9 39.05 L50.3 39.05 49.9 40.45 Q50.7 42.25 53.9 44.45 M52.3 91.55 L50.5 89.75 50.1 90.35 52.1 91.95 52.3 91.55 M55.95 64.2 Q54.3 61.95 52.3 61.15 52.9 62.2 53.7 64.2 L55.95 64.2 M54.35 92.55 L54.35 91.35 Q53.9 90.55 53.1 88.95 53.1 89.15 52.9 89.75 52.7 90.35 52.7 90.75 52.7 91.55 54.35 92.55 M60.55 76.85 L60.55 74.05 Q60.55 66.6 55.75 66.6 L54.55 66.6 54.55 68.4 Q54.5 68.0 55.55 67.0 55.75 67.2 55.85 67.5 55.95 67.8 56.15 67.8 56.15 68.2 55.95 69.0 55.75 69.8 55.75 70.0 56.95 69.0 57.15 69.0 56.95 70.45 55.85 74.15 54.7 77.85 54.75 79.5 54.7 79.85 54.95 80.3 55.95 75.85 57.15 73.45 L57.35 76.05 Q56.95 79.3 55.65 83.3 54.3 87.3 54.35 85.9 L54.35 87.5 Q54.5 87.35 54.75 87.3 56.15 87.35 57.15 90.55 57.95 88.95 58.95 88.15 59.15 89.75 59.75 91.95 59.55 89.35 58.65 84.2 57.75 79.1 57.75 78.85 57.75 79.5 57.75 77.85 57.75 77.05 58.15 76.65 59.35 77.25 59.35 77.85 L59.35 78.05 Q59.35 77.85 60.55 76.85 M58.35 99.0 Q58.35 93.55 56.55 90.75 55.15 88.55 54.55 88.55 54.3 88.55 54.35 88.75 54.3 96.15 57.55 105.65 58.35 100.6 58.35 99.0 M55.75 70.2 L55.35 70.0 54.95 70.8 55.35 71.0 55.75 70.2 M56.35 43.05 Q56.35 39.65 55.95 38.25 55.35 39.45 55.35 40.05 55.35 41.45 56.35 43.05 M81.7 103.6 Q81.7 100.8 79.5 96.6 78.05 96.55 75.65 96.2 79.3 100.4 79.3 101.4 79.25 101.6 79.3 102.0 L79.05 102.2 Q78.5 100.6 75.85 98.6 77.05 102.0 77.05 101.4 77.05 101.8 76.45 102.2 76.25 100.4 73.25 95.55 69.6 89.55 66.4 89.55 65.0 89.55 64.8 90.55 63.4 94.35 63.0 98.4 L64.6 100.0 Q62.35 99.2 62.6 99.2 L60.35 127.55 Q62.15 123.75 65.0 122.75 65.0 121.95 64.2 124.15 58.75 128.15 58.75 137.0 58.75 140.45 59.75 145.05 68.2 135.0 68.2 130.4 68.2 128.95 67.8 127.75 69.4 126.35 69.4 122.75 69.4 121.35 69.2 118.7 65.0 114.7 65.0 113.1 65.0 112.65 64.8 112.7 65.0 112.65 65.2 112.45 65.8 113.7 67.6 115.5 67.8 115.1 67.9 114.1 68.0 113.1 68.2 112.45 68.4 113.7 69.2 115.9 69.8 114.1 69.8 112.7 67.6 107.65 67.6 108.45 67.6 108.05 67.8 108.05 68.6 108.65 68.8 108.65 68.6 108.65 69.6 107.05 70.85 108.85 70.85 110.65 70.8 110.85 70.85 111.45 70.8 112.1 70.85 112.25 70.8 112.7 70.65 114.5 70.6 116.5 70.65 116.9 72.0 114.3 72.05 111.85 72.05 109.45 70.65 103.8 72.0 103.85 72.45 105.85 72.85 108.45 73.05 108.65 L73.05 108.45 Q73.05 104.85 73.45 103.2 74.25 104.45 74.25 106.25 74.25 106.45 74.25 107.05 75.85 103.8 75.85 104.45 75.85 104.6 73.45 102.2 75.65 103.0 78.25 104.85 77.85 104.4 77.85 103.8 77.85 103.25 78.05 102.8 79.3 104.05 79.9 106.85 80.5 109.65 81.3 110.45 81.3 110.25 81.3 110.05 81.3 108.85 81.5 106.35 81.7 103.8 81.7 103.6 M62.6 98.4 Q61.15 96.4 59.15 94.95 59.15 95.4 58.75 95.95 60.15 96.8 62.6 98.4 M62.4 47.1 Q59.55 50.1 59.55 53.9 59.55 55.55 60.35 57.75 60.35 57.15 61.05 56.15 61.75 55.15 61.75 54.3 61.8 53.95 61.55 53.5 62.6 52.1 62.6 49.9 62.55 48.9 62.4 47.1 M60.35 84.1 L60.35 82.7 59.75 82.7 59.75 84.1 60.35 84.1 M60.55 82.7 L60.55 81.5 59.95 81.5 59.95 82.7 60.55 82.7 M60.15 28.35 Q60.15 28.2 60.15 27.95 60.15 27.75 60.15 27.55 L60.15 28.35 M65.0 72.25 Q63.6 68.8 61.55 62.15 L61.55 65.4 Q61.55 66.0 62.9 69.6 64.2 73.25 64.4 74.45 L65.0 72.25 M65.0 57.75 Q64.2 57.75 64.2 57.15 63.0 58.35 63.0 59.75 62.95 60.75 63.8 64.0 64.2 61.75 65.0 57.75 M67.2 44.25 L67.2 41.05 63.2 45.05 Q67.0 44.25 67.2 44.25 M64.4 31.4 L63.8 31.4 63.4 33.8 64.0 33.8 64.4 31.4 M67.0 50.1 L67.0 48.3 Q65.8 48.3 63.6 47.5 63.8 49.3 64.4 52.5 L67.0 50.1 M66.6 38.05 Q66.6 36.8 65.8 35.2 65.4 36.8 64.4 40.65 66.6 39.05 66.6 38.05 M71.05 24.35 Q69.2 25.55 67.4 26.75 65.0 28.4 64.6 30.4 65.8 30.8 65.8 32.2 65.8 32.4 65.8 32.3 65.8 32.2 65.8 32.1 65.8 32.0 65.8 31.6 65.8 31.2 65.8 31.0 65.8 29.75 67.0 29.6 67.4 30.4 67.4 31.0 67.4 31.2 67.4 31.4 70.0 31.0 70.65 27.95 70.8 26.15 71.05 24.35 M92.95 76.85 L92.95 75.65 86.3 75.65 Q74.25 75.65 68.2 81.5 65.8 83.9 64.6 87.1 66.2 86.5 68.6 85.3 69.2 84.9 70.2 83.5 71.25 82.1 71.65 82.1 72.05 82.1 72.45 82.5 71.2 84.5 70.85 85.3 71.85 85.3 73.95 85.5 76.05 85.7 76.85 85.7 74.05 82.1 74.05 79.5 74.25 79.25 74.45 78.85 75.05 79.5 75.85 81.3 76.65 83.1 77.45 83.1 80.3 76.65 82.5 76.65 82.9 76.65 83.5 77.05 80.9 78.45 79.9 81.5 79.05 83.7 78.25 86.1 80.7 86.9 81.1 86.9 82.3 86.95 83.5 85.3 84.7 83.7 84.7 82.1 84.7 81.7 84.3 80.5 83.9 79.25 83.9 78.85 L83.9 78.65 Q84.9 79.7 85.1 79.7 85.7 79.65 88.75 76.65 L89.15 77.05 Q88.55 78.25 87.55 79.9 87.7 79.85 87.95 79.9 89.75 79.85 90.75 81.1 92.95 76.65 92.95 76.85 M84.7 67.6 Q84.7 65.2 81.5 65.2 78.25 65.2 77.05 66.2 75.25 67.2 73.85 69.6 71.85 72.65 71.65 72.85 69.4 75.05 67.1 77.35 64.8 79.7 64.8 81.7 67.4 79.7 70.5 77.25 73.65 74.85 73.65 72.85 73.65 72.25 73.45 71.65 73.65 71.85 73.85 71.85 75.45 71.8 78.05 70.0 81.7 67.8 82.3 67.6 80.7 71.25 77.35 72.65 74.05 74.05 73.85 75.45 76.45 74.65 79.5 73.45 84.7 69.8 84.7 67.6 M76.45 57.15 Q76.45 55.95 74.85 53.7 73.85 52.3 72.65 50.9 67.8 51.7 65.0 56.15 65.2 56.55 65.8 56.75 L66.6 55.95 Q66.8 55.95 67.0 55.95 L67.0 57.55 Q67.0 57.75 66.6 58.75 67.6 58.35 67.8 56.25 68.0 54.1 69.6 53.7 69.8 53.95 69.8 54.75 L69.8 54.95 70.65 54.3 70.85 54.55 Q70.8 54.95 70.85 55.15 70.8 55.75 68.0 60.35 L68.8 61.15 Q69.8 59.35 70.85 59.15 L70.85 59.95 Q70.0 62.2 68.8 66.2 69.4 64.8 71.25 62.15 L71.45 64.8 Q68.8 67.8 68.8 71.25 L68.8 71.45 Q70.2 70.0 71.75 68.4 73.25 66.8 73.25 64.2 73.25 63.8 72.55 61.85 71.85 59.95 71.85 59.55 L71.85 58.95 72.05 58.75 Q72.85 59.35 73.65 61.15 74.65 60.15 74.85 60.15 L74.85 60.95 Q74.85 63.0 74.65 63.6 76.25 61.15 76.25 60.55 76.25 59.95 74.55 57.35 72.85 54.75 72.85 54.3 72.85 54.15 73.25 53.7 75.45 56.55 76.45 57.15 M67.6 60.15 Q65.2 61.75 65.2 65.2 65.2 67.2 66.8 72.45 66.8 70.4 67.2 66.2 67.6 61.95 67.6 60.15 M67.2 45.05 Q66.6 45.5 65.6 46.5 L67.0 46.5 Q67.0 46.25 67.0 45.65 67.2 45.3 67.2 45.05 M71.05 34.4 Q71.0 34.0 70.85 33.2 70.6 32.4 70.65 32.2 L69.4 32.2 Q67.4 34.2 67.4 34.6 67.4 35.2 67.6 35.6 67.8 36.0 67.8 36.2 69.4 33.4 69.8 33.4 L70.0 33.4 70.0 34.2 Q69.2 36.0 68.2 39.25 71.05 37.4 71.05 34.4 M80.7 95.95 L80.7 91.95 Q77.85 91.95 76.55 91.55 75.25 91.15 72.45 89.75 69.6 88.35 69.2 88.35 L67.6 88.35 Q68.6 88.75 73.05 92.55 76.85 96.2 78.25 96.2 78.7 96.15 78.85 95.95 77.65 93.95 77.25 93.15 77.45 92.95 77.65 92.95 79.1 95.2 80.7 95.95 M72.65 133.0 Q71.0 135.0 68.6 138.05 L69.8 138.05 Q72.65 138.0 72.65 133.0 M84.1 117.7 Q84.1 114.5 77.65 108.25 77.05 108.05 76.05 107.45 73.85 111.65 73.65 113.9 74.25 113.1 74.85 113.1 75.05 113.05 75.45 113.7 70.4 120.5 70.4 120.9 L70.4 123.35 Q71.45 122.75 71.95 120.7 72.45 118.7 73.65 118.3 74.25 119.1 74.25 119.5 74.25 117.9 75.25 116.9 75.65 117.5 75.65 119.3 76.25 118.1 77.45 117.7 77.65 117.9 77.65 118.1 75.25 121.35 72.65 125.95 72.45 126.55 72.45 127.55 72.45 127.75 72.45 128.55 72.45 129.8 72.25 130.2 75.45 127.15 78.65 124.35 84.1 119.3 84.1 117.7 M74.25 120.9 L74.25 119.7 73.65 119.7 73.65 120.9 74.25 120.9 M79.3 52.1 L79.3 49.9 Q78.45 49.9 77.25 52.1 77.25 53.75 78.05 56.15 79.3 51.3 79.3 52.1 M78.85 33.8 L78.25 33.8 77.85 30.4 78.45 30.4 78.85 33.8 M82.7 64.2 L82.7 62.55 81.1 62.55 Q80.1 63.2 78.25 64.2 L82.7 64.2 M104.85 108.05 Q99.2 110.45 94.35 114.1 94.75 114.1 95.15 113.9 95.8 113.9 96.2 113.9 97.4 113.9 97.4 114.9 96.15 115.5 96.0 115.5 95.75 115.5 95.55 115.5 90.35 115.5 78.65 127.35 82.9 126.95 90.15 126.15 89.55 121.95 89.55 122.35 89.55 121.35 89.95 120.7 91.15 121.35 91.45 123.05 91.75 124.75 91.95 125.15 92.95 122.35 95.15 116.9 95.4 118.3 95.35 119.3 95.4 118.5 95.15 121.35 96.8 118.9 99.0 112.9 99.8 113.45 100.0 113.5 100.2 113.5 100.6 113.0 101.0 112.45 101.8 112.45 L101.8 113.3 Q100.6 115.1 100.2 116.5 102.0 115.5 104.85 108.05 M82.7 55.75 Q81.7 56.15 80.1 57.35 L81.1 57.35 82.7 55.75 M84.5 62.8 L82.9 62.15 82.7 62.55 84.3 63.4 84.5 62.8 M89.55 73.45 L89.55 71.85 Q89.55 72.05 88.55 69.8 85.5 70.25 82.7 73.45 83.1 73.45 84.8 73.75 86.5 74.05 87.55 74.05 88.95 74.05 89.55 73.45 M90.35 82.5 Q89.15 81.3 87.75 81.3 86.3 81.3 85.7 83.3 84.7 86.5 84.5 86.7 L87.3 86.7 Q88.75 85.5 90.35 82.5 M89.95 111.05 Q89.95 110.65 89.55 109.85 85.9 113.3 85.9 114.7 L85.9 116.9 Q89.95 114.5 89.95 111.05 M92.55 64.8 Q92.35 64.8 91.65 64.5 90.95 64.2 90.35 64.2 90.55 64.2 86.1 65.4 L86.1 68.0 87.55 68.0 Q87.5 67.8 87.55 67.6 87.5 66.4 88.75 65.6 88.95 65.8 88.95 66.4 88.95 66.6 88.95 67.0 L90.15 67.0 Q91.15 66.0 92.55 64.8 M89.35 100.8 Q86.5 104.85 86.5 104.45 86.5 106.45 87.3 109.05 87.35 108.85 87.3 108.55 87.35 108.25 87.3 107.85 87.35 107.45 87.3 107.25 87.35 106.45 87.75 105.65 L87.95 105.85 Q87.9 106.05 88.35 106.05 88.75 106.05 90.15 104.85 90.15 103.2 89.35 100.8 M104.65 76.85 L102.4 72.45 Q98.8 75.25 94.95 75.25 L94.75 75.25 Q92.15 82.5 89.55 87.1 L91.75 87.1 Q95.15 87.15 95.35 84.1 95.8 79.7 97.8 77.85 98.0 78.9 98.0 79.7 98.0 82.1 96.8 85.7 L99.2 85.7 Q100.6 85.7 102.6 82.0 104.65 78.25 104.65 76.85 M95.8 68.6 Q95.75 66.6 95.15 65.2 93.75 66.2 92.15 67.0 89.95 68.4 89.95 69.6 89.95 69.85 90.15 70.0 90.35 69.4 91.35 68.4 91.35 70.2 91.15 71.95 90.95 73.65 90.95 73.85 95.75 73.45 95.8 68.8 L95.8 68.6 M94.95 62.8 Q94.55 60.75 94.55 59.55 92.95 60.55 91.35 62.8 91.75 62.75 93.15 62.8 94.55 62.75 94.95 62.8 M94.95 133.0 Q95.4 132.8 96.0 132.8 96.35 132.8 97.1 133.0 97.8 133.2 98.0 133.2 97.0 133.2 94.95 133.0 M98.0 72.65 L98.0 70.8 Q97.2 70.85 95.8 73.45 97.4 73.45 98.0 72.65 M96.2 109.05 Q95.95 108.45 96.0 107.45 96.15 107.85 96.2 108.45 96.15 108.85 96.2 109.05 M98.0 65.0 Q97.0 64.6 96.8 64.6 96.75 65.0 97.6 68.6 98.0 67.2 98.0 65.0 M98.4 97.2 Q99.6 97.2 102.2 97.0 100.6 97.2 99.2 97.2 98.8 97.2 98.4 97.2 M102.2 65.4 Q100.6 65.0 99.8 65.0 L99.6 67.2 Q100.6 67.0 102.2 65.4 M106.05 71.25 L106.05 69.8 Q104.0 70.65 104.0 72.25 104.05 73.25 104.65 74.25 106.05 72.65 106.05 71.25 M127.75 76.85 Q128.35 75.65 128.75 74.45 128.4 75.65 127.75 76.85" fill="#000000" fill-rule="evenodd" stroke="none"/>
    </g>
  </defs>
</svg>
