<?xml version="1.0" encoding="UTF-8" standalone="no"?>
<svg xmlns:ffdec="https://www.free-decompiler.com/flash" xmlns:xlink="http://www.w3.org/1999/xlink" ffdec:objectType="frame" height="200.0px" width="200.0px" xmlns="http://www.w3.org/2000/svg">
  <g transform="matrix(1.0, 0.0, 0.0, 1.0, 0.0, 0.0)">
    <rect fill="#ffffff" height="200.0px" width="200.0px"/>
    <use ffdec:characterId="1" height="200.0" transform="matrix(1.0, 0.0, 0.0, 1.0, 0.0, 0.0)" width="199.4" xlink:href="#shape0"/>
  </g>
  <defs>
    <g id="shape0" transform="matrix(1.0, 0.0, 0.0, 1.0, 0.0, 0.0)">
      <path d="M199.4 111.7 Q197.6 111.7 193.35 111.7 189.3 111.5 189.1 111.5 L188.5 111.5 Q185.05 111.5 183.85 112.2 182.6 112.95 180.0 114.75 176.95 115.75 174.15 116.75 169.5 118.2 167.25 121.2 170.1 122.25 173.35 122.2 175.15 122.25 176.95 121.0 179.6 119.0 183.25 118.0 188.3 117.15 197.15 115.75 L198.0 115.95 Q194.35 116.75 192.1 117.6 193.35 118.8 194.55 118.8 189.5 117.8 188.1 117.8 183.25 117.75 178.4 122.4 183.85 123.45 193.55 124.05 192.7 124.45 190.9 125.05 191.9 125.85 193.35 127.7 188.3 124.45 181.2 124.05 175.55 123.65 169.9 123.45 157.35 121.4 149.1 119.4 148.7 119.8 139.2 133.15 L158.4 135.15 Q165.65 135.15 169.7 133.55 L168.9 134.35 Q170.9 134.75 174.75 135.75 170.1 135.35 167.45 135.35 163.05 135.35 159.8 136.35 165.05 138.8 178.8 140.2 191.3 141.6 196.95 145.25 188.7 142.2 178.6 140.4 L171.1 140.8 Q173.55 142.85 178.2 145.25 180.8 145.85 185.45 147.25 185.45 147.9 184.45 147.9 181.6 147.9 175.15 144.45 166.25 140.0 165.45 139.6 L164.45 139.6 Q166.25 144.05 170.7 146.45 L170.5 146.45 Q169.3 146.45 168.3 145.45 167.45 145.45 167.45 146.65 166.45 135.55 141.8 135.55 L141.0 135.55 Q140.2 135.35 139.8 135.35 134.75 135.35 133.35 138.2 138.8 142.85 142.2 150.1 144.25 153.75 150.1 153.75 150.5 153.75 155.35 153.15 160.2 152.5 160.6 152.55 161.2 152.5 162.95 152.85 164.65 153.15 165.25 153.15 163.05 153.15 159.0 153.55 160.2 154.75 161.8 155.35 161.8 155.55 161.2 156.35 161.4 157.2 162.0 158.6 160.6 154.95 154.95 154.95 152.1 154.95 147.9 155.75 149.5 159.2 155.35 161.8 161.2 164.45 164.05 168.5 161.0 166.25 158.1 164.05 155.15 161.8 152.1 161.8 151.9 161.8 151.5 161.8 153.95 164.65 156.75 171.1 L155.35 169.7 Q149.5 162.0 141.4 151.3 L141.0 151.3 Q140.8 151.7 140.8 152.55 140.8 159.4 144.45 164.85 150.3 173.75 151.1 175.35 149.5 172.95 145.35 168.3 141.2 163.65 140.6 163.65 140.0 163.65 139.9 163.85 139.8 164.05 139.6 164.05 139.8 162.2 139.8 160.4 139.8 141.2 130.3 141.2 129.1 141.2 124.55 146.35 120.0 151.5 119.0 153.55 120.8 155.35 126.25 158.8 125.45 158.4 124.65 158.4 124.25 158.4 123.85 158.6 129.9 165.25 136.75 169.3 136.55 169.3 136.35 169.3 134.15 169.3 129.9 166.05 L123.85 161.6 Q123.65 161.8 123.45 161.8 123.45 162.0 123.45 162.4 123.45 164.45 126.25 170.3 129.5 176.75 130.1 178.8 127.05 175.55 123.85 167.15 120.6 158.8 117.6 154.95 114.35 157.8 111.7 167.8 109.1 177.75 109.1 185.45 109.1 195.35 114.35 200.0 L85.45 200.0 Q87.25 197.35 89.5 189.9 90.5 181.2 90.5 171.1 90.5 170.9 90.5 170.1 90.5 169.3 90.5 168.7 90.5 159.0 86.05 154.95 76.35 155.35 70.3 164.85 68.7 167.9 66.85 170.9 64.45 175.15 62.0 176.95 64.05 175.55 67.05 167.9 L67.05 167.25 Q65.45 168.3 60.2 169.3 55.95 170.3 53.35 172.75 56.95 168.5 63.45 167.7 68.5 166.85 69.9 162.2 69.1 162.0 68.1 162.0 66.85 162.0 65.45 162.4 L65.45 162.2 Q65.45 160.8 67.05 160.0 71.3 158.4 75.35 156.55 80.6 154.35 84.25 151.3 80.8 145.05 74.55 136.75 73.55 136.55 72.75 136.55 67.05 136.55 62.2 144.45 58.0 151.3 58.0 157.15 58.0 157.6 58.0 157.5 58.0 157.35 58.0 156.95 58.0 156.55 58.0 154.55 58.0 152.55 58.0 150.3 53.95 154.55 51.5 165.85 50.3 166.25 46.55 169.8 42.85 173.35 41.0 173.35 L40.8 173.35 Q45.65 171.1 49.1 165.45 52.5 159.8 52.55 154.95 47.85 157.8 45.45 160.6 45.65 160.4 47.25 157.6 47.1 157.35 46.45 157.35 44.85 157.4 36.75 162.4 39.2 160.2 44.25 156.75 46.65 156.35 50.9 154.95 52.95 153.75 55.35 150.3 56.95 147.7 58.6 145.25 58.4 145.05 58.2 145.05 L57.15 145.05 Q50.9 145.05 47.7 148.3 42.2 153.95 40.6 154.95 44.25 150.3 44.25 150.1 44.25 149.7 44.05 149.5 37.35 152.35 27.7 162.4 29.7 160.0 33.95 155.15 34.15 155.15 26.25 156.35 30.1 154.95 33.95 153.55 38.6 151.5 41.2 148.7 40.8 148.5 39.8 148.5 38.2 148.5 35.15 148.7 32.1 148.9 30.5 148.9 34.95 148.5 43.65 147.45 44.45 146.45 46.45 145.25 50.3 144.45 58.4 142.85 61.4 142.2 64.05 138.6 64.05 137.35 56.55 135.15 49.9 133.15 48.3 133.15 46.25 133.15 42.0 136.35 39.2 138.6 36.25 140.5 33.35 142.45 27.7 146.25 28.5 145.25 33.15 141.6 32.3 141.6 31.7 141.6 27.7 141.6 23.25 143.25 25.05 141.8 31.1 140.6 36.35 139.6 38.4 136.95 34.35 136.55 26.45 135.75 26.85 135.75 27.25 135.75 29.1 135.75 32.3 135.75 35.55 135.95 35.75 135.95 35.95 135.95 36.35 135.95 36.75 135.95 36.95 135.95 38.8 135.95 44.25 131.9 41.8 129.7 34.85 127.9 27.9 126.05 22.4 126.05 22.05 126.05 19.2 126.45 16.35 126.85 15.95 126.85 15.35 126.85 13.35 126.35 11.3 125.85 10.1 125.85 12.75 125.65 17.8 124.85 L16.95 124.25 Q23.05 125.25 24.05 125.25 24.25 125.25 24.55 125.25 24.85 125.25 25.05 125.25 25.45 125.25 26.05 125.05 22.85 121.4 14.15 118.4 L14.35 118.4 Q16.55 118.4 25.35 122.5 34.15 126.7 38.8 126.85 36.15 123.25 30.1 117.8 31.9 118.4 38.4 124.85 44.05 130.5 47.9 130.5 49.5 130.5 58.0 129.4 66.45 128.3 68.1 127.9 65.25 123.65 63.25 122.4 56.35 117.8 41.8 110.9 39.8 109.9 36.75 109.9 32.75 109.9 28.6 111.2 24.45 112.55 20.8 112.75 15.95 112.7 15.35 112.85 14.75 112.95 13.25 113.55 11.7 114.15 10.9 114.15 9.7 114.15 7.9 113.15 8.3 113.35 8.7 113.35 L9.1 113.35 Q9.5 113.15 9.9 113.15 12.3 113.15 16.15 111.7 15.55 110.9 13.35 110.9 14.75 110.9 17.8 111.1 20.6 111.1 20.8 111.1 27.9 111.1 32.3 108.9 23.85 102.65 0.0 101.8 0.4 101.8 0.6 101.8 1.8 101.8 4.25 101.8 6.45 101.6 6.75 101.6 7.05 101.6 8.7 101.0 6.45 100.2 2.0 97.6 4.05 98.8 12.3 101.0 20.6 103.25 22.2 103.25 L23.25 103.25 Q22.4 98.0 16.55 96.75 9.7 95.15 7.9 92.75 8.9 93.15 17.6 96.75 L18.6 96.75 Q18.6 93.15 12.1 89.3 1.2 83.05 0.8 82.85 4.05 84.25 11.9 88.1 L12.95 88.1 Q12.7 86.65 10.5 84.25 8.3 81.8 7.9 80.2 8.9 80.8 10.5 82.2 10.9 81.85 10.9 81.2 L10.9 81.0 Q13.15 87.3 20.4 94.75 22.0 96.95 25.65 101.8 28.3 104.65 39.8 108.3 L41.4 107.9 Q39.8 104.45 35.35 101.9 30.9 99.4 28.1 99.4 27.85 99.4 28.0 99.4 28.05 99.4 28.3 99.4 29.3 99.4 34.75 100.2 30.3 96.35 22.85 89.3 25.25 91.1 30.7 94.75 29.9 93.75 28.1 91.1 31.3 94.15 37.6 101.8 42.0 107.5 46.25 110.3 48.5 110.9 53.15 112.95 54.55 113.55 59.4 117.35 63.05 120.2 65.05 120.2 65.45 120.2 65.65 120.2 63.65 111.7 55.95 108.9 53.15 108.1 50.3 105.65 46.25 102.45 45.05 101.8 43.05 100.8 41.0 100.0 38.2 98.6 36.75 96.35 40.6 99.8 42.85 99.8 L43.05 99.6 Q41.6 97.6 39.2 95.15 42.85 99.2 49.7 103.85 47.7 100.2 47.25 98.4 48.3 101.6 53.05 105.55 57.75 109.5 61.0 109.5 61.4 109.5 61.6 109.3 56.75 102.85 49.3 98.2 46.65 95.35 40.6 90.7 40.2 90.3 39.2 90.3 38.8 90.3 37.6 90.5 36.35 90.5 35.75 90.5 33.55 90.5 29.5 89.1 23.85 86.65 12.75 82.0 15.95 82.05 22.85 85.35 29.7 88.7 35.75 88.9 38.0 88.9 39.6 88.1 37.35 85.05 31.9 80.2 29.5 79.8 25.25 78.4 23.85 76.95 20.8 74.55 19.8 74.15 18.2 73.35 18.4 73.15 18.8 72.3 21.4 75.15 25.05 76.95 27.65 78.0 30.5 79.0 L31.5 79.0 Q31.1 76.35 27.25 73.95 24.45 72.3 21.6 70.2 18.8 68.1 13.35 63.85 18.4 67.45 28.9 73.15 24.65 68.3 16.15 58.4 25.65 67.25 37.35 82.65 37.4 82.4 37.35 82.2 37.4 80.4 34.75 74.75 31.5 67.25 31.1 65.65 33.75 70.3 34.95 72.95 36.55 77.15 40.2 85.25 42.65 89.3 48.4 94.55 54.15 99.8 56.55 100.4 54.35 95.15 49.5 85.85 47.25 84.05 43.45 79.6 41.2 75.95 36.35 68.7 41.4 73.35 42.85 76.55 45.05 81.4 48.1 81.8 46.85 75.15 40.4 68.9 33.95 62.65 27.25 56.75 29.7 58.6 30.9 58.6 31.3 58.6 31.5 58.6 30.1 55.95 27.45 50.9 33.55 62.0 34.75 62.0 34.95 62.05 35.15 61.8 32.95 57.8 32.75 53.55 34.95 60.4 35.55 61.8 38.4 67.1 43.45 68.9 41.6 65.45 39.4 62.4 41.4 64.05 43.35 67.5 45.25 70.9 46.25 71.9 46.45 71.95 46.65 71.7 46.65 71.5 46.65 71.1 46.65 69.1 44.45 64.25 42.85 60.4 41.0 56.55 45.65 63.45 46.45 67.05 46.45 69.1 48.1 73.15 50.9 75.95 57.8 82.0 61.4 85.65 65.05 89.3 71.1 95.15 72.75 95.15 72.9 94.95 73.15 94.75 70.9 89.9 65.25 82.2 63.65 80.2 58.4 76.35 53.15 72.55 51.3 69.5 L56.55 73.95 Q60.8 77.35 61.8 77.4 62.0 77.35 62.0 76.55 62.0 73.75 57.6 69.5 53.75 66.05 50.1 62.65 47.9 59.8 43.45 55.55 39.2 53.15 34.75 50.5 29.5 47.3 29.5 45.65 L29.5 45.45 Q31.5 47.25 33.75 48.9 36.95 51.3 39.4 51.3 L39.6 51.3 Q30.1 43.65 27.25 37.15 L36.15 47.05 36.35 47.05 Q36.55 47.05 36.75 46.85 36.35 45.65 34.95 43.45 44.85 58.6 57.15 65.65 L57.35 65.45 Q57.4 65.25 57.35 64.85 57.4 59.6 48.5 49.9 41.4 42.0 38.1 40.3 34.75 38.6 29.1 33.95 31.3 36.75 36.15 38.8 L37.6 38.6 Q35.35 36.55 31.5 32.3 33.15 33.75 34.75 34.95 36.95 36.95 38.4 36.95 35.75 33.15 30.7 25.65 30.9 25.85 32.55 27.35 34.15 28.9 34.55 28.9 34.95 28.9 35.15 28.9 34.95 28.9 34.95 28.5 L34.95 28.7 Q34.95 29.7 36.15 31.2 37.4 32.75 38.4 32.75 38.6 32.7 38.8 32.5 37.95 30.9 36.35 28.0 34.75 25.05 33.95 23.65 38.2 29.3 44.25 40.2 48.3 47.3 52.55 49.9 51.1 45.05 47.9 34.95 47.25 33.55 43.85 30.8 40.4 28.1 39.8 25.45 44.45 30.7 45.05 30.7 45.25 30.7 45.45 30.7 44.65 29.1 43.05 25.45 43.2 25.65 46.65 31.9 47.7 32.75 49.1 34.55 52.75 45.45 56.35 56.55 60.0 67.7 64.25 75.95 64.45 75.55 64.45 74.95 64.45 59.6 60.4 54.15 L61.2 54.95 Q61.4 54.55 61.4 53.95 61.4 52.95 60.8 50.6 60.2 48.3 60.2 47.5 60.2 47.25 60.2 47.05 61.2 51.1 64.05 59.2 64.45 60.0 69.7 65.45 71.7 67.9 73.95 70.5 76.95 74.15 79.4 74.75 75.95 67.9 69.7 59.4 58.0 43.45 54.75 35.35 53.75 32.3 51.1 25.85 50.5 24.85 47.45 24.05 44.45 23.25 43.85 21.8 44.65 22.25 47.05 22.85 46.85 22.2 45.05 20.4 46.25 21.4 47.6 22.75 48.9 24.05 50.3 24.05 L50.3 23.45 Q50.3 22.8 49.5 21.1 48.7 19.4 48.5 18.6 50.3 20.6 52.3 25.45 54.75 31.1 55.95 33.15 56.15 32.95 56.15 32.75 56.15 32.3 56.15 32.1 56.15 28.7 51.3 14.75 53.55 18.6 55.15 25.25 57.6 34.55 58.0 35.75 60.0 41.6 63.85 48.5 68.3 56.15 70.3 56.15 69.1 51.7 67.6 47.25 66.05 42.85 60.8 39.0 61.0 39.0 62.75 40.1 64.45 41.2 65.25 41.2 59.0 23.25 53.75 14.15 55.95 17.55 60.2 24.85 60.4 24.65 60.4 24.25 60.4 23.05 60.4 23.25 60.4 22.0 58.1 17.7 55.75 13.35 55.55 12.95 58.2 17.35 60.0 19.4 60.6 17.15 60.6 13.35 60.4 14.15 60.4 14.95 60.4 21.2 70.3 35.95 70.5 35.95 70.7 35.75 70.7 35.55 70.7 35.15 70.7 35.95 68.3 30.1 66.65 25.45 62.0 13.75 63.25 15.15 65.05 18.0 65.85 20.8 67.9 26.65 68.9 28.5 70.9 31.9 71.5 34.35 72.75 38.6 74.75 40.6 78.8 45.05 80.4 47.5 84.85 54.55 85.05 54.55 85.25 54.35 85.25 50.7 80.1 39.2 74.95 27.7 72.1 24.25 69.9 22.0 65.85 17.35 64.65 15.75 62.85 11.1 67.25 19.8 72.3 21.8 72.15 20.0 70.9 16.75 70.7 16.35 67.9 13.35 65.85 11.1 65.85 9.5 L65.85 9.3 Q66.25 9.7 67.25 11.7 68.3 13.75 69.3 13.75 69.5 13.75 69.5 13.15 69.5 11.1 67.05 7.05 69.5 10.3 71.5 16.55 73.95 24.05 74.95 26.05 75.75 25.45 75.75 24.05 75.75 23.05 75.25 20.7 74.75 18.4 74.75 17.8 74.95 16.55 74.95 16.15 75.75 21.0 76.65 26.25 77.6 31.5 80.0 35.15 80.2 34.95 80.2 34.75 80.2 34.15 80.2 33.95 80.2 24.85 77.8 18.0 74.75 9.5 74.75 6.05 74.75 4.65 75.75 0.4 75.95 1.2 75.95 2.0 75.95 2.65 75.75 3.85 75.75 5.05 75.75 5.65 75.75 12.55 79.0 17.35 79.2 16.95 79.2 16.35 79.2 15.75 78.7 14.45 78.2 13.15 78.2 12.75 79.2 12.3 79.2 11.1 79.8 19.2 80.6 27.05 81.4 36.8 83.85 43.05 84.85 42.6 84.85 41.6 84.85 41.4 84.85 41.0 84.65 40.4 84.65 40.2 L84.65 40.0 82.4 24.05 Q83.05 26.45 84.45 31.9 84.85 30.5 84.85 27.9 84.85 27.05 84.85 26.45 L86.25 39.2 Q88.9 34.75 88.9 31.7 88.9 31.1 84.85 19.8 84.25 16.35 83.65 12.95 82.4 8.5 78.2 6.85 79.0 6.85 78.8 6.85 79.8 6.85 79.8 6.05 79.8 5.25 79.2 4.65 78.4 5.25 77.8 5.25 77.75 4.25 78.6 4.25 78.8 4.05 78.8 3.65 78.8 3.45 78.8 2.85 78.6 2.4 78.6 2.0 79.8 4.25 82.2 8.7 82.85 8.1 82.85 7.05 82.8 6.45 82.4 5.05 82.05 3.65 82.0 2.65 83.25 8.3 86.25 19.0 L86.45 19.0 Q87.1 15.55 87.05 12.3 87.05 10.1 84.45 0.8 85.85 2.85 87.05 7.6 88.3 12.3 90.7 14.95 L90.9 14.55 90.9 13.75 Q90.9 13.15 89.7 8.3 88.5 3.45 88.5 2.65 L88.5 0.0 Q90.3 7.7 94.95 23.25 L95.15 23.25 Q95.55 22.6 95.55 22.0 95.55 21.85 95.35 21.4 95.35 21.0 95.35 20.6 95.35 15.55 94.35 12.1 92.95 7.7 91.3 3.25 L91.5 2.4 Q91.9 3.85 93.75 8.3 94.35 8.1 94.35 6.65 94.35 5.65 93.95 3.35 93.55 1.0 93.55 0.2 L93.55 0.0 Q97.15 19.8 97.6 32.95 L97.8 43.05 Q99.0 41.6 100.2 30.7 101.2 21.6 101.2 19.2 101.2 19.0 100.3 16.05 99.4 13.15 99.2 11.9 99.2 11.3 98.8 10.3 98.8 9.7 98.8 9.3 98.8 9.1 99.0 6.45 L99.0 6.85 99.0 8.9 99.0 4.05 Q99.0 4.25 99.0 4.45 99.0 8.7 100.4 14.55 100.2 14.55 101.0 15.35 101.0 14.75 102.2 4.25 L102.65 18.2 Q103.85 15.75 105.45 8.7 105.65 9.3 105.65 10.1 105.65 12.55 104.05 16.55 101.8 22.45 101.6 23.05 L101.8 26.05 Q104.05 24.45 106.35 22.75 108.7 21.0 108.7 18.8 L108.7 7.25 Q108.7 6.65 109.7 4.65 109.7 5.25 109.7 9.0 109.7 12.75 109.7 16.55 L111.5 14.95 Q109.3 19.6 108.3 27.7 107.65 34.35 106.85 41.2 106.65 41.8 105.95 43.95 105.25 46.05 105.25 46.45 L105.25 48.9 Q111.1 44.85 112.1 28.9 112.15 29.5 112.1 29.9 112.15 35.55 108.9 44.25 104.45 56.55 103.25 61.8 L103.45 116.55 Q108.5 106.45 109.9 88.3 111.3 82.2 113.55 70.1 114.95 58.4 114.75 51.1 L113.95 8.1 114.75 5.85 Q114.95 10.5 115.95 21.4 116.95 20.0 117.35 15.95 118.0 11.1 118.4 9.9 118.4 11.1 118.2 13.95 118.0 16.75 118.0 18.6 120.0 15.35 121.2 9.9 121.2 10.1 121.2 10.3 121.2 12.55 117.8 19.6 116.15 28.1 116.15 34.35 116.15 35.75 116.15 36.15 116.15 41.2 116.75 43.85 123.05 31.3 123.05 17.6 123.0 16.35 122.85 15.15 123.25 15.35 123.85 16.55 125.05 14.55 125.05 10.1 125.05 9.5 125.05 8.7 125.05 9.1 125.35 10.1 125.65 11.1 125.65 11.5 125.65 15.35 121.2 37.8 121.0 39.0 119.0 42.75 116.95 46.45 116.95 48.5 116.95 49.1 117.15 49.7 120.6 45.85 125.85 32.75 125.45 37.15 122.0 44.45 117.8 53.35 116.95 55.95 L117.15 58.0 Q119.8 56.95 120.6 53.95 121.4 50.9 122.0 47.9 122.05 48.3 122.0 48.5 122.0 49.9 122.4 50.9 125.25 46.45 127.9 42.0 131.3 35.35 131.3 30.9 131.3 26.85 130.5 24.45 129.5 21.2 129.5 20.2 129.7 20.4 130.1 20.8 130.5 21.2 130.7 21.4 131.9 15.75 131.9 14.15 131.9 15.75 131.7 18.8 131.5 21.8 131.5 23.45 131.5 27.25 132.5 30.5 133.75 28.7 134.55 23.85 135.55 17.35 135.75 16.55 135.35 19.0 135.35 22.0 135.35 23.25 135.35 24.45 136.15 23.65 136.55 23.65 133.75 31.9 127.9 44.45 126.05 47.9 124.25 51.1 121.6 55.95 121.4 59.0 L121.0 68.7 Q121.0 69.9 121.2 70.3 122.65 68.7 127.9 61.2 126.85 63.85 125.65 66.45 123.85 70.1 120.8 73.15 118.8 74.55 115.35 78.4 114.75 80.8 113.15 85.85 L113.55 91.3 Q115.15 86.85 120.6 78.2 117.15 86.45 117.15 87.25 117.2 87.7 117.15 88.1 127.7 74.15 134.55 53.15 135.15 51.1 137.15 37.6 139.2 25.45 142.0 19.0 141.8 21.0 140.6 25.45 139.4 29.9 139.4 33.75 139.4 34.15 139.4 34.35 142.2 28.5 142.65 27.5 144.25 23.45 144.85 18.6 144.85 19.2 144.85 19.8 144.85 22.45 143.05 27.6 141.2 32.7 141.2 32.95 141.2 33.35 141.4 33.55 145.65 29.7 147.25 26.05 144.45 30.1 139.2 37.6 139.0 38.0 138.2 42.0 136.75 50.7 136.75 51.9 136.75 52.35 136.95 52.55 138.8 50.3 142.55 45.55 146.25 40.8 148.3 38.4 145.65 43.25 142.85 46.45 139.0 51.3 133.15 60.6 131.7 64.05 129.1 70.5 127.05 75.55 122.4 83.25 117.2 92.5 116.15 94.55 L115.95 94.95 Q116.15 95.15 116.35 95.55 118.8 94.15 121.2 92.75 124.45 90.7 125.65 88.9 128.3 84.05 131.1 75.35 134.55 64.05 135.75 61.2 135.55 65.25 130.9 77.4 L130.9 77.6 Q130.9 78.0 131.1 78.2 136.95 67.25 143.05 56.35 149.9 43.45 149.9 34.95 149.9 33.15 149.5 31.3 L150.1 21.0 Q150.1 22.05 150.1 22.85 150.1 27.05 150.9 30.9 151.7 29.1 152.75 25.45 153.75 21.8 154.35 19.8 152.75 26.45 151.1 39.6 153.95 35.75 158.8 22.65 158.4 24.85 158.4 25.45 158.4 26.65 159.0 27.5 159.0 27.85 158.1 28.8 157.15 29.7 157.15 30.1 156.15 32.35 154.15 36.55 L154.15 37.8 Q155.95 37.75 158.2 34.15 161.6 28.9 163.05 27.25 161.2 30.7 157.6 36.75 155.35 38.4 151.3 42.4 149.9 46.05 146.05 53.95 143.45 58.0 138.4 66.05 135.55 72.95 128.5 86.65 128.5 86.85 128.5 87.05 128.5 87.3 128.7 87.7 131.9 87.25 136.15 80.8 140.0 75.15 143.85 69.5 147.25 65.85 151.9 58.4 152.35 56.95 157.6 41.8 157.75 42.25 157.8 42.65 157.8 44.45 155.95 48.2 154.15 51.9 154.15 53.95 154.15 54.35 154.15 54.75 L153.95 54.95 Q154.15 55.15 154.35 55.35 157.15 52.1 161.4 46.05 162.2 42.65 164.25 35.95 164.05 36.55 163.75 38.0 163.45 39.4 163.25 40.0 L163.45 43.85 Q164.65 42.0 167.7 38.6 165.05 42.0 165.05 43.05 165.05 43.45 165.05 43.85 167.65 42.4 171.7 37.6 L171.7 37.8 Q171.7 38.6 167.7 42.2 162.2 47.3 161.6 47.9 154.55 55.35 149.1 65.45 159.0 62.65 168.1 45.05 166.45 47.9 164.85 50.9 162.65 54.95 162.65 56.55 166.05 54.95 170.0 50.8 173.95 46.65 174.95 43.45 174.15 45.25 172.3 49.3 172.35 49.5 172.55 49.7 173.15 49.7 173.35 49.7 175.15 49.7 177.25 47.25 179.4 44.85 181.4 42.65 180.4 44.05 178.4 47.7 178.6 47.65 179.0 47.5 179.4 47.25 179.6 47.25 178.0 48.3 176.05 49.6 174.15 50.9 173.55 52.95 175.15 52.1 179.0 49.1 163.45 60.8 161.6 71.3 L161.8 73.15 Q165.05 69.9 168.5 67.5 161.2 75.15 159.0 79.6 L159.4 81.0 Q166.85 79.0 170.3 71.5 172.75 64.85 174.95 58.0 174.35 60.4 173.35 65.65 176.15 63.85 177.8 63.85 177.35 63.85 175.65 65.55 173.95 67.25 173.75 68.3 L173.75 68.1 Q173.75 67.25 173.35 66.85 L172.3 68.1 Q172.35 68.7 173.15 68.7 172.7 69.9 170.9 71.9 169.1 73.95 169.1 75.15 169.1 75.35 169.3 75.55 169.5 75.35 174.75 72.95 178.2 71.1 179.4 68.1 179.2 69.1 178.0 70.9 178.4 71.1 178.6 71.1 179.4 71.1 179.6 71.1 183.85 71.1 187.25 57.35 187.3 57.6 187.7 58.2 L188.7 57.55 Q188.5 58.4 185.05 68.3 185.25 68.5 185.45 68.5 185.85 68.5 188.3 67.5 186.85 68.5 183.85 71.3 183.65 71.7 181.4 77.6 L181.6 79.0 Q185.05 75.35 191.7 67.9 191.3 70.3 184.65 76.75 L185.25 76.75 Q187.05 76.75 193.15 72.75 193.15 72.95 193.15 73.35 192.9 73.95 192.95 74.15 193.55 74.35 194.95 74.95 192.95 75.15 189.5 75.75 183.65 78.2 177.4 85.85 173.95 90.3 167.25 95.95 168.1 96.35 169.9 96.35 170.3 96.35 171.0 96.35 171.7 96.35 172.0 96.35 172.35 96.35 173.15 96.35 173.95 96.35 174.15 96.35 176.35 96.35 179.6 93.75 181.8 91.7 184.25 89.7 182.65 91.3 179.8 94.35 179.8 94.55 180.2 94.75 180.8 94.55 181.0 94.55 188.5 94.55 194.95 88.3 192.55 90.3 192.55 92.1 192.5 92.35 192.75 92.55 194.35 91.9 197.35 91.1 194.35 93.55 189.5 94.15 182.85 94.95 181.0 95.75 182.45 97.15 186.85 97.15 187.05 97.2 187.4 97.15 187.65 97.2 187.9 97.15 189.1 97.2 190.5 96.75 L189.7 97.8 Q191.7 100.8 193.15 100.8 193.75 100.8 194.75 100.4 195.35 100.4 195.35 101.6 192.55 100.4 187.25 98.6 181.2 96.75 178.0 96.75 176.35 96.75 174.75 97.8 174.75 98.6 175.15 98.6 170.1 97.55 169.1 97.6 165.05 97.55 159.0 100.6 152.95 103.65 152.95 106.65 L152.95 109.3 Q153.55 109.9 154.75 109.9 L165.05 109.9 Q165.45 109.9 167.8 110.5 170.1 111.1 170.7 111.1 175.55 111.1 182.0 105.45 181.8 106.25 178.9 108.6 175.95 110.9 175.95 111.1 L176.55 111.1 Q176.95 111.1 178.6 110.6 180.2 110.1 181.0 110.1 180.8 110.1 178.4 111.3 181.0 111.3 186.15 111.0 191.3 110.7 191.5 110.7 194.35 110.7 199.4 111.7 M14.55 110.1 Q10.9 109.7 4.05 108.3 L9.7 108.3 Q10.1 108.3 11.8 109.2 13.55 110.1 14.55 110.1 M7.05 91.7 L6.85 92.3 4.85 91.3 5.25 90.7 7.05 91.7 M11.5 122.0 L9.1 121.6 9.1 120.8 11.5 121.4 11.5 122.0 M28.7 98.0 L28.3 98.6 25.05 96.15 25.45 95.75 28.7 98.0 M47.7 174.75 L46.65 175.75 46.25 175.35 47.25 174.35 47.7 174.75 M48.5 30.9 L47.9 30.9 46.45 26.45 47.05 26.45 48.5 30.9 M50.5 170.1 L48.7 171.9 48.3 171.5 50.1 169.7 50.5 170.1 M92.55 130.9 Q92.5 124.05 87.25 114.65 82.0 105.25 75.55 99.8 72.3 98.0 67.7 94.55 60.8 87.9 48.5 76.55 L48.5 76.75 Q48.5 78.8 48.9 79.6 52.3 87.7 55.95 95.55 61.0 106.25 65.65 110.5 67.25 111.1 70.1 111.9 69.1 109.7 63.85 102.85 59.2 96.75 58.6 94.15 60.2 94.75 63.45 99.4 68.3 106.25 68.7 106.85 69.7 108.7 71.7 111.5 74.95 113.95 84.45 124.65 87.25 127.9 91.9 134.35 91.9 133.95 92.2 132.75 92.55 131.5 92.55 130.9 M72.75 134.55 Q72.1 131.9 69.9 131.1 68.3 130.9 66.65 130.5 L53.35 132.3 Q63.25 135.55 67.05 135.55 69.1 135.55 72.75 134.55 M81.0 52.55 Q76.35 46.85 67.9 35.15 66.05 31.9 62.0 25.25 L62.0 28.3 Q62.0 30.3 65.45 37.7 68.9 45.05 70.1 45.85 69.9 45.45 68.5 42.65 67.45 40.6 67.45 39.4 67.5 38.8 67.45 38.4 69.7 41.2 73.75 48.7 76.35 49.9 81.0 52.55 M85.05 87.05 Q82.85 83.05 75.75 75.15 66.05 64.45 65.25 63.65 L65.25 68.3 65.25 68.5 Q65.25 77.35 68.3 82.2 69.9 84.85 75.95 85.25 83.05 86.05 85.05 87.05 M86.65 134.35 L86.65 132.3 Q78.4 118.8 66.45 113.75 L66.45 114.95 Q66.45 117.2 77.35 134.35 L86.65 134.35 M95.75 83.65 Q95.75 82.0 90.5 70.9 85.85 61.6 83.65 57.55 82.0 54.55 69.5 48.1 69.5 51.7 75.95 63.45 79.4 69.3 82.85 75.15 86.65 82.65 93.55 96.55 93.95 93.95 94.85 89.0 95.75 84.05 95.75 83.65 M75.95 14.75 Q72.55 12.95 70.7 2.4 71.5 3.85 73.35 10.3 73.55 9.1 73.55 7.7 73.55 5.85 73.35 3.25 73.35 7.05 75.95 14.75 M93.75 117.8 L93.75 115.35 Q93.75 114.95 93.25 112.75 92.7 110.5 92.75 109.7 92.5 92.1 80.8 88.7 77.6 87.9 71.5 86.45 L93.75 117.8 M89.1 148.3 Q88.7 144.45 87.9 137.15 87.05 137.2 85.15 136.85 83.25 136.55 82.2 136.55 80.4 136.55 79.4 137.35 L89.1 148.3 M85.65 55.75 L85.65 54.55 84.85 54.55 84.85 55.75 85.65 55.75 M101.6 82.2 Q101.6 66.25 98.6 57.55 96.35 51.1 92.95 44.65 90.5 40.0 89.5 34.75 86.25 41.8 86.25 46.85 86.25 51.3 87.25 53.95 90.7 64.05 94.35 72.3 94.35 71.1 94.35 68.6 94.35 66.05 94.35 64.85 94.35 62.85 94.55 61.2 96.55 64.45 97.35 70.3 97.6 74.75 98.0 79.2 98.4 81.0 99.4 84.75 100.4 88.5 100.4 88.9 100.4 88.7 100.2 92.55 100.0 96.35 100.0 98.8 100.0 101.2 100.2 102.45 101.6 79.4 101.6 82.2 M95.35 43.85 L95.35 31.1 Q95.35 26.65 91.5 17.15 90.1 15.55 88.1 12.95 88.1 13.95 87.9 16.45 87.65 19.0 87.7 19.2 87.65 24.65 89.5 27.9 89.5 26.05 89.7 25.65 89.9 25.25 90.5 25.25 L90.5 28.5 Q90.5 34.95 95.35 43.85 M103.65 38.2 Q103.65 32.1 103.05 26.85 101.4 29.3 101.0 33.95 100.8 37.6 100.6 41.0 100.4 42.45 99.6 44.75 98.8 47.05 98.8 48.7 98.8 52.55 101.6 59.6 103.65 49.1 103.65 40.4 L103.65 38.2 M107.45 25.85 L106.85 24.05 Q104.05 25.45 104.05 26.45 104.05 24.65 105.45 37.6 106.25 30.9 107.45 25.85 M111.9 151.3 Q111.9 150.7 110.3 148.9 108.7 147.05 107.45 147.05 L106.65 147.05 106.05 147.7 106.05 149.7 Q106.05 156.95 106.65 161.2 111.9 153.75 111.9 151.3 M146.25 89.7 L144.05 89.7 Q142.2 89.7 129.7 103.25 117.15 116.75 111.7 124.85 107.3 131.3 106.65 141.6 111.9 138.0 118.0 132.95 120.0 129.5 120.3 123.15 120.6 116.75 122.4 114.35 126.45 108.7 131.7 106.25 132.75 105.85 134.55 105.85 134.95 105.85 135.85 105.85 136.75 105.85 136.95 105.85 138.4 105.85 138.8 105.65 141.8 102.65 144.85 94.55 145.25 92.75 146.25 89.7 M124.65 92.95 Q122.4 95.15 121.2 95.75 114.35 99.4 112.55 107.7 111.1 114.55 109.5 121.4 114.55 114.55 119.6 107.9 124.65 100.0 124.65 93.95 124.65 93.55 124.65 92.95 M115.55 138.8 L109.5 144.45 112.95 146.65 Q113.95 146.65 113.95 146.25 114.55 143.65 115.55 138.8 M145.45 119.8 Q138.0 123.05 130.6 127.5 123.25 131.9 122.0 134.35 121.2 137.8 119.4 144.65 127.65 137.6 135.95 130.5 142.85 124.25 145.45 119.8 M149.1 110.7 Q147.05 110.7 143.35 110.1 139.6 109.5 139.4 109.5 138.6 109.5 132.5 114.55 126.45 119.6 123.25 123.25 122.4 124.25 122.4 126.65 122.45 126.85 122.4 127.6 122.45 128.3 122.4 128.5 122.45 129.3 122.4 129.7 124.05 128.9 135.75 121.4 142.45 117.2 147.25 116.75 L149.1 112.75 149.1 110.7 M135.55 109.3 Q135.35 109.3 134.65 109.0 133.95 108.7 133.15 108.7 131.1 110.1 128.9 112.95 125.65 117.15 125.25 117.8 L135.55 109.3 M156.55 62.85 Q152.1 65.25 146.05 69.5 141.2 76.95 133.75 87.7 131.3 88.7 127.9 91.5 127.05 92.55 126.05 102.0 132.55 96.8 138.8 91.5 145.85 85.65 148.1 78.8 149.3 77.35 151.5 74.35 153.15 70.5 156.55 62.85 M141.0 166.85 L140.2 166.85 140.2 165.25 141.0 165.25 141.0 166.85 M155.35 86.05 Q152.75 87.1 149.7 88.9 148.1 92.75 144.85 99.8 144.25 101.0 142.3 103.65 140.4 106.25 140.4 106.85 140.4 107.7 141.0 107.9 147.25 109.1 147.05 109.1 149.1 109.1 149.7 108.5 155.35 91.5 155.35 87.45 L155.35 86.05 M149.3 85.05 L148.9 84.65 146.45 86.85 146.85 87.25 149.3 85.05 M171.9 51.7 Q163.65 55.95 158.4 64.05 157.15 66.05 151.9 76.95 151.3 78.2 148.1 83.05 152.9 79.2 158.6 68.7 164.05 58.8 167.05 56.95 170.1 55.15 171.9 51.7 M180.8 112.1 Q171.3 112.15 166.65 111.9 164.05 111.75 159.3 111.2 154.55 110.7 154.35 110.7 153.15 110.7 151.7 112.2 150.3 113.75 150.3 115.15 L150.3 117.8 Q162.45 120.6 165.65 120.6 166.25 120.6 169.6 118.4 172.95 116.15 174.15 115.35 175.75 115.15 178.4 114.35 179.4 113.95 180.8 112.1 M181.6 71.9 Q181.4 72.15 176.55 73.55 173.35 74.35 167.9 78.0 163.65 79.8 158.4 83.65 156.75 87.7 154.75 100.4 157.35 99.8 160.4 96.35 164.65 91.1 165.05 90.9 L165.05 91.1 Q165.05 92.15 163.95 94.15 162.85 96.15 162.85 96.55 167.45 95.35 174.15 86.85 180.8 78.4 181.6 71.9 M161.6 24.25 L160.4 26.45 159.8 26.25 161.0 24.05 161.6 24.25 M195.15 109.7 Q192.55 109.3 186.85 109.3 185.45 109.3 184.25 109.3 188.7 107.9 188.3 107.9 189.9 107.9 195.15 109.7 M197.35 124.65 L195.15 124.65 195.15 123.65 197.35 123.65 197.35 124.65" fill="#000000" fill-rule="evenodd" stroke="none"/>
    </g>
  </defs>
</svg>
