<?xml version="1.0" encoding="UTF-8" standalone="no"?>
<svg xmlns:ffdec="https://www.free-decompiler.com/flash" xmlns:xlink="http://www.w3.org/1999/xlink" ffdec:objectType="frame" height="201.0px" width="151.0px" xmlns="http://www.w3.org/2000/svg">
  <g transform="matrix(1.0, 0.0, 0.0, 1.0, 0.0, 0.0)">
    <rect fill="#ffffff" height="201.0px" width="151.0px"/>
    <use ffdec:characterId="1" height="200.0" transform="matrix(1.0, 0.0, 0.0, 1.0, 0.0, 0.0)" width="150.75" xlink:href="#shape0"/>
  </g>
  <defs>
    <g id="shape0" transform="matrix(1.0, 0.0, 0.0, 1.0, 0.0, 0.0)">
      <path d="M150.75 64.95 Q150.75 94.6 132.35 113.65 114.9 131.85 85.7 135.9 L85.7 187.2 117.1 187.2 117.1 200.0 72.85 200.0 72.85 135.6 Q66.05 134.55 58.85 129.75 50.85 124.55 46.45 117.1 40.25 118.1 36.45 118.1 19.4 118.1 9.2 106.3 0.0 95.65 0.0 79.6 0.0 53.95 19.8 40.1 18.4 34.3 18.4 31.1 18.4 16.85 32.45 7.8 44.25 0.0 57.25 0.0 59.85 0.0 71.05 3.2 71.45 3.2 77.4 1.6 83.3 0.0 89.9 0.0 99.7 0.0 110.1 4.4 121.3 9.2 127.55 17.45 133.1 24.85 134.75 32.65 150.75 36.3 150.75 64.95 M139.95 64.65 Q139.95 62.05 137.75 49.05 136.95 47.05 135.55 42.85 135.55 43.05 135.55 43.25 135.55 48.65 133.95 55.85 131.5 65.65 127.75 65.65 124.9 65.65 124.9 62.05 124.95 60.85 125.4 58.15 125.95 55.45 125.95 54.05 125.9 51.45 124.3 40.85 123.55 35.25 119.2 28.15 114.9 21.0 109.5 18.0 99.9 12.8 89.3 12.8 89.5 12.8 80.3 14.0 82.1 15.2 85.8 20.5 89.5 25.85 89.5 27.45 89.5 32.25 84.7 32.25 81.7 32.25 78.1 27.35 73.05 20.5 70.45 18.45 64.45 13.6 55.85 13.6 33.65 13.6 33.65 29.6 33.65 32.2 34.05 33.85 36.65 33.45 40.25 33.25 40.65 33.25 41.25 33.25 46.25 33.25 46.25 36.05 46.25 38.0 41.25 40.8 37.45 42.8 35.85 43.0 28.8 44.4 21.8 50.6 13.8 57.8 12.6 66.0 12.0 71.75 12.0 74.55 12.0 105.3 36.85 105.3 42.05 105.3 52.65 103.15 55.65 102.6 62.45 100.15 69.25 97.7 69.45 97.7 72.1 97.7 72.05 100.9 72.1 104.3 67.25 107.5 63.25 109.9 59.25 112.3 66.45 122.15 83.1 122.1 104.7 122.15 122.3 104.1 139.95 86.1 139.95 64.65 M114.3 74.7 Q114.3 86.5 107.8 93.1 101.3 99.7 89.5 99.7 89.3 99.7 88.6 99.7 87.9 99.7 87.5 99.7 79.7 99.7 79.7 95.9 79.65 94.1 81.1 93.9 84.7 93.7 92.1 92.1 96.7 90.3 100.7 85.3 104.7 80.3 105.3 75.9 105.7 74.45 105.7 71.65 105.7 70.7 105.7 68.65 105.7 66.65 105.7 65.45 105.7 64.25 105.7 63.05 105.9 60.85 108.05 60.85 114.3 60.85 114.3 74.7" fill="#000000" fill-rule="evenodd" stroke="none"/>
    </g>
  </defs>
</svg>
