<?xml version="1.0" encoding="UTF-8" standalone="no"?>
<svg xmlns:ffdec="https://www.free-decompiler.com/flash" xmlns:xlink="http://www.w3.org/1999/xlink" ffdec:objectType="frame" height="200.0px" width="121.0px" xmlns="http://www.w3.org/2000/svg">
  <g transform="matrix(1.0, 0.0, 0.0, 1.0, 0.0, 0.0)">
    <rect fill="#ffffff" height="200.0px" width="121.0px"/>
    <use ffdec:characterId="1" height="200.0" transform="matrix(1.0, 0.0, 0.0, 1.0, 0.0, 0.0)" width="120.5" xlink:href="#shape0"/>
  </g>
  <defs>
    <g id="shape0" transform="matrix(1.0, 0.0, 0.0, 1.0, 0.0, 0.0)">
      <path d="M120.5 152.2 Q120.5 156.05 117.25 156.0 116.25 156.05 114.85 155.4 114.85 155.65 114.25 157.25 114.05 157.85 112.65 157.85 111.85 157.85 110.45 157.05 110.45 157.25 110.45 157.35 110.45 157.45 110.45 157.85 110.45 158.25 110.45 158.65 110.05 159.45 108.85 159.45 107.45 159.45 106.35 158.25 105.2 157.05 104.0 156.45 103.4 157.05 103.4 157.85 L101.2 157.85 Q99.8 156.2 98.8 155.8 96.8 158.45 95.6 158.45 94.75 158.45 92.75 156.45 89.75 159.25 89.75 160.05 89.75 162.85 94.2 162.85 L97.2 162.85 Q97.6 162.85 99.8 162.05 102.0 161.25 102.4 161.25 103.8 161.25 104.8 163.25 105.85 165.25 106.45 165.25 106.6 165.25 107.15 165.25 107.6 165.25 107.85 165.25 114.05 165.25 115.85 163.85 117.45 164.65 117.45 165.85 L117.45 168.05 Q115.65 167.9 113.05 169.1 113.25 169.45 113.65 169.5 L113.65 171.1 Q112.65 171.9 112.65 173.3 112.65 173.5 112.65 173.7 111.65 173.9 109.85 174.7 L110.85 175.7 110.85 176.9 Q110.05 177.3 107.85 177.3 107.4 177.3 107.05 177.3 107.0 177.7 107.05 178.3 107.2 178.9 107.25 179.3 L104.6 179.3 Q103.6 179.3 101.6 177.3 L99.0 177.5 Q100.2 178.1 102.4 180.1 L102.4 181.55 Q102.0 181.9 100.6 181.95 99.4 181.9 97.6 180.4 95.8 178.9 94.6 178.9 94.35 178.9 94.2 179.1 95.15 180.1 95.2 180.5 L95.2 182.75 93.15 182.75 Q92.55 182.75 89.95 179.3 89.15 179.95 89.15 180.7 89.15 181.15 89.35 181.75 L89.35 182.95 87.95 182.95 Q87.75 182.95 84.15 179.9 83.75 179.9 83.15 180.4 82.55 180.95 82.15 180.9 79.9 180.95 78.9 178.6 77.9 176.3 76.3 171.7 76.1 171.1 73.9 170.3 72.9 168.45 70.1 164.85 69.45 164.85 68.9 165.45 L68.9 178.1 71.7 200.0 55.0 200.0 55.0 198.6 Q57.85 196.2 59.05 177.3 59.05 177.1 58.75 176.2 58.45 175.3 58.45 174.7 58.45 173.5 58.95 170.8 59.45 168.05 59.45 167.85 59.45 165.45 58.45 162.85 54.4 166.45 52.4 170.7 52.2 170.9 51.2 172.1 50.2 173.3 50.2 174.1 50.2 173.9 51.2 176.7 50.8 177.5 48.6 178.9 47.2 178.7 47.0 177.0 46.8 175.3 46.6 173.9 46.2 174.3 45.9 175.4 45.6 176.5 45.2 176.9 43.15 178.9 41.15 178.9 40.35 178.9 40.15 178.5 39.95 178.9 39.95 179.3 39.95 180.1 39.95 179.9 L37.95 179.9 37.95 179.7 Q37.95 178.7 37.15 178.1 37.55 177.5 39.45 177.1 41.35 176.7 42.35 175.3 L42.35 175.1 Q42.35 174.5 41.55 174.5 42.55 174.5 34.95 176.1 33.95 177.1 31.35 178.5 28.9 178.7 26.3 179.0 23.7 179.3 22.3 181.55 21.9 184.15 19.1 188.15 L17.05 188.15 16.45 187.35 Q17.25 186.55 17.85 185.35 17.45 185.35 16.65 185.35 15.85 185.55 15.05 185.55 14.05 185.55 12.65 185.35 12.65 185.15 13.15 184.65 13.65 184.15 13.65 183.75 13.45 183.35 13.45 183.15 9.85 185.35 10.45 185.35 L8.25 185.35 Q6.8 181.1 6.85 181.95 6.8 180.3 10.65 179.3 11.05 179.3 11.35 179.5 11.65 179.7 12.05 179.7 12.45 179.7 13.25 178.7 12.25 177.5 9.65 174.5 8.85 175.7 7.25 177.9 6.6 177.9 4.8 178.9 3.0 179.9 2.6 179.9 0.4 179.95 0.0 178.1 0.0 177.5 0.4 176.3 2.4 177.5 3.8 177.5 6.05 177.5 8.25 174.1 5.4 173.3 1.4 170.9 L1.4 169.7 Q1.8 169.65 2.6 170.2 3.4 170.7 4.0 170.7 4.8 170.7 5.4 169.5 5.0 168.65 3.9 167.15 2.8 165.65 2.4 164.65 4.0 163.85 4.4 163.85 4.6 163.85 8.65 167.05 8.85 166.85 8.85 166.45 8.85 165.65 8.85 165.85 L8.85 162.65 Q9.05 162.65 9.35 162.45 9.65 162.25 10.05 162.25 10.45 162.25 11.85 164.15 13.25 166.05 15.65 166.05 16.45 166.05 19.8 164.25 23.1 162.45 23.5 162.05 L23.5 161.05 23.1 160.45 Q22.5 161.25 21.7 162.25 20.9 163.25 19.7 163.25 18.45 163.25 17.45 161.75 16.45 160.25 16.05 160.25 15.65 160.25 15.45 160.45 15.05 160.45 14.65 160.45 14.25 160.45 12.65 158.95 11.05 157.45 10.65 157.45 10.25 157.45 10.25 157.65 10.25 157.85 9.85 157.85 7.85 157.85 7.85 153.8 9.65 152.6 11.45 151.6 13.85 149.8 13.85 148.0 13.85 147.2 13.65 146.6 13.85 146.6 14.15 146.4 14.45 146.2 15.05 146.2 15.45 146.2 16.75 147.0 18.1 147.8 18.45 147.8 18.7 147.8 18.65 147.6 18.7 147.4 18.65 146.6 18.5 146.0 18.45 145.2 19.1 145.2 19.5 145.4 19.85 145.6 20.3 145.6 21.1 145.6 21.7 144.0 22.3 142.35 23.3 142.35 23.9 142.4 24.7 143.45 25.5 144.6 26.3 144.6 26.7 144.55 26.9 144.6 26.9 144.4 26.1 143.35 25.3 142.4 25.3 141.95 L25.3 139.75 28.1 139.75 Q28.7 137.95 28.7 136.75 28.7 135.55 27.1 135.55 26.9 135.55 26.7 135.55 24.1 135.75 18.65 140.95 L16.45 140.95 Q16.25 139.95 16.05 138.95 15.85 137.95 14.45 137.95 14.05 137.95 12.75 138.85 11.45 139.75 10.85 139.75 9.25 139.75 7.35 138.35 5.4 136.95 5.4 135.35 5.45 134.15 6.85 131.15 7.8 131.1 8.45 131.95 8.65 131.3 9.65 130.1 10.85 130.95 13.05 132.55 13.05 129.5 14.65 127.9 L14.65 126.9 Q14.45 126.9 13.95 126.9 13.45 126.9 12.45 126.9 11.45 127.1 11.25 127.1 6.2 127.1 5.2 123.9 5.25 122.7 5.6 120.9 6.85 122.3 9.65 124.7 10.05 124.5 10.05 123.9 10.05 123.7 10.05 123.3 10.45 122.9 10.85 122.9 11.25 122.9 12.15 123.5 13.05 124.1 13.45 124.1 13.45 123.9 13.65 123.7 13.65 123.9 13.25 120.5 12.45 119.9 10.65 118.9 10.65 117.85 10.25 115.95 9.85 114.05 9.85 113.65 9.85 112.65 10.65 111.05 L11.85 111.05 Q12.25 111.65 13.45 112.65 13.45 111.25 15.65 109.05 16.25 109.85 17.45 113.85 18.25 116.85 20.3 116.85 L22.3 116.85 Q22.5 116.05 23.7 114.05 23.5 114.05 26.1 115.85 L26.7 115.25 Q26.3 114.25 26.1 113.45 25.5 111.65 24.7 111.65 24.3 111.65 24.3 111.85 24.3 112.05 23.9 112.05 22.9 112.05 21.9 109.05 L21.9 107.65 Q23.9 107.65 23.9 106.85 23.9 105.0 23.1 103.2 22.3 103.8 18.55 105.5 14.85 107.25 13.05 107.25 L9.05 107.25 9.05 105.2 12.05 106.2 Q13.25 106.25 14.05 105.4 11.85 105.25 9.65 103.6 L9.65 102.2 Q10.05 102.0 10.65 101.4 12.05 102.2 13.45 103.8 14.25 104.4 17.65 104.6 20.5 104.6 22.3 101.4 L22.3 101.0 Q20.25 102.4 18.9 102.4 14.45 102.4 13.65 100.4 16.05 101.0 18.9 101.2 20.25 101.2 21.1 100.6 L21.1 100.2 19.7 100.0 Q19.45 99.4 18.45 98.4 17.05 98.4 13.85 98.0 11.45 97.6 8.85 93.35 9.05 93.2 9.65 92.75 10.25 92.4 10.45 92.15 12.05 94.0 13.25 96.8 13.45 96.6 13.65 96.6 14.85 96.6 16.45 97.0 L17.05 96.4 Q16.05 94.4 16.05 94.0 16.45 93.55 16.45 93.35 L17.65 93.35 18.25 94.0 Q18.7 93.55 20.0 92.65 21.3 91.75 21.7 91.35 22.1 90.95 22.1 90.35 22.1 89.95 21.9 89.55 21.9 88.75 22.7 88.75 23.5 88.75 24.1 89.75 25.1 91.35 25.5 91.95 26.3 90.95 27.1 90.95 27.5 90.95 28.1 91.25 28.7 91.55 29.1 91.55 30.5 91.55 31.35 90.55 L31.35 87.75 30.9 87.15 Q30.1 87.55 25.7 89.35 26.3 88.35 27.9 87.55 27.5 86.15 23.7 86.15 22.3 86.15 17.05 87.75 18.5 87.15 19.1 85.75 18.65 85.55 17.45 85.35 16.25 85.15 15.85 84.75 15.45 84.35 15.45 84.15 16.65 84.55 22.3 84.55 20.9 82.95 19.5 82.95 19.05 82.95 19.1 83.15 19.05 83.35 18.65 83.35 16.9 83.35 15.65 79.5 15.65 77.9 16.65 77.9 17.45 77.9 18.9 78.5 19.45 77.5 19.5 75.9 L20.7 75.9 Q21.7 76.9 21.9 76.9 22.9 76.5 22.9 75.1 22.9 74.5 21.1 72.5 19.25 70.5 19.1 70.3 L19.1 69.1 Q19.45 68.85 19.9 68.9 20.05 68.85 20.5 68.9 20.9 69.05 21.1 69.1 21.5 69.05 21.9 68.55 22.3 68.1 22.9 68.05 23.5 68.1 25.7 70.1 26.5 69.7 28.3 67.85 25.3 66.45 22.5 65.05 18.45 63.25 18.45 60.85 18.5 59.25 22.3 58.85 23.5 58.85 24.1 59.45 L25.5 58.05 Q26.7 58.65 26.7 60.25 26.7 60.45 26.7 60.85 26.7 61.25 26.7 61.45 26.7 61.65 26.7 61.85 27.7 62.85 31.35 62.85 31.5 62.85 33.25 62.55 34.95 62.25 35.95 62.25 36.15 62.05 36.15 61.85 L36.15 61.25 Q36.15 60.85 35.45 59.25 34.75 57.65 34.75 57.25 34.75 56.8 34.95 56.45 35.15 56.0 35.15 55.8 L37.55 55.8 Q37.95 56.65 39.15 58.45 41.95 55.6 41.95 55.2 41.95 53.4 38.15 53.4 37.75 53.4 32.35 54.7 26.9 56.05 26.5 56.0 24.9 56.05 24.9 54.2 24.9 54.0 24.9 53.4 25.1 52.8 25.1 52.4 25.1 50.6 24.3 49.8 24.7 49.2 24.7 49.0 25.7 49.4 28.7 51.2 31.15 52.6 31.55 52.6 L37.35 52.6 37.75 52.0 Q37.35 50.8 37.35 50.0 37.35 48.2 38.75 48.2 39.15 48.2 39.95 48.6 39.75 46.8 38.35 46.8 37.75 46.8 36.55 47.1 35.35 47.4 34.55 47.4 33.55 47.4 32.75 46.6 32.95 46.6 33.25 46.6 33.55 46.6 34.15 46.6 34.95 46.8 35.15 46.8 36.55 46.8 37.55 46.0 37.35 45.6 36.95 45.0 34.75 44.8 31.1 44.0 29.5 42.55 26.3 39.95 26.3 39.15 26.5 38.45 26.7 37.75 26.7 37.55 29.7 39.35 30.5 41.95 30.95 43.4 34.15 43.35 35.75 43.4 36.55 42.75 35.95 40.55 35.95 38.15 39.35 46.8 40.55 46.8 L43.15 46.8 Q43.2 46.6 43.15 46.4 43.2 45.8 42.75 44.6 43.4 43.95 44.4 42.35 47.6 43.4 47.4 43.35 47.8 43.4 48.0 43.15 L48.4 43.15 Q48.8 43.2 50.8 44.3 52.8 45.4 53.2 45.4 54.4 45.4 55.0 44.4 53.6 43.15 53.0 43.15 L52.4 43.15 Q52.4 43.4 51.8 43.35 51.4 43.4 50.8 42.75 50.2 42.15 50.0 42.15 48.0 41.55 46.0 40.75 43.95 39.95 44.0 37.15 43.95 35.55 45.2 33.95 46.0 33.95 47.2 35.15 47.8 33.75 49.4 31.55 50.0 32.55 51.8 34.95 L52.6 34.95 Q53.2 33.95 54.6 32.35 52.8 27.7 48.6 26.1 46.4 25.7 44.2 25.3 41.35 24.5 41.35 22.3 41.35 19.5 43.4 19.5 43.75 19.45 44.1 19.7 44.35 19.9 44.8 19.9 46.0 19.85 47.0 18.85 47.8 19.3 48.6 20.9 48.8 20.7 49.6 17.05 50.2 17.3 51.2 18.05 52.2 18.9 52.6 18.85 53.0 18.9 54.1 17.95 55.2 17.05 55.6 17.05 56.65 17.05 58.45 19.3 60.25 21.5 61.25 21.9 62.45 19.45 63.85 19.5 64.25 19.45 65.35 20.0 66.45 20.5 66.85 20.5 68.9 20.5 68.9 17.85 68.85 16.65 67.35 16.25 65.85 15.85 65.65 15.65 65.65 16.05 65.65 16.25 65.65 16.85 66.85 18.65 61.85 16.85 60.05 15.65 55.6 12.85 54.6 8.85 55.85 9.05 56.85 9.05 60.45 9.05 60.45 8.45 60.45 8.25 60.45 7.85 60.45 7.05 61.25 6.25 62.45 6.8 63.45 8.65 65.25 9.65 69.1 11.65 69.45 12.25 69.5 14.25 L69.5 14.65 Q70.7 13.65 70.7 11.65 70.7 10.45 69.5 9.65 68.25 8.85 67.25 8.05 67.9 8.05 68.25 7.65 L68.25 6.85 67.85 6.65 Q67.45 6.6 66.85 6.65 66.45 6.6 66.45 6.85 L66.45 7.25 Q64.45 5.8 63.25 4.4 L63.25 2.6 Q63.45 2.4 64.05 2.4 64.45 2.4 64.95 2.4 65.45 2.4 65.65 2.4 65.85 2.4 67.45 1.4 68.1 2.4 69.9 4.4 L70.7 4.4 Q70.9 4.2 70.9 4.0 70.9 3.8 70.6 3.0 70.3 2.2 70.3 1.8 L70.3 0.0 73.3 0.0 Q74.7 1.8 76.9 4.6 77.9 5.45 78.5 5.4 78.9 5.45 81.0 4.3 83.15 3.2 83.75 3.2 84.35 3.2 84.85 3.9 85.35 4.6 85.35 7.65 87.75 8.45 87.75 10.05 87.75 11.05 86.05 12.25 84.35 13.45 83.75 13.45 82.95 13.45 81.75 12.55 80.5 11.65 79.9 11.65 79.7 11.65 79.2 11.65 78.7 11.65 78.4 11.65 78.1 11.65 77.7 11.65 77.3 11.65 77.1 11.65 73.7 11.65 71.7 14.85 71.9 15.05 74.5 17.65 73.9 17.7 73.5 17.65 70.7 17.7 70.7 20.1 70.7 21.9 73.5 21.9 73.9 21.9 74.2 22.2 74.5 22.5 75.1 22.5 75.5 22.5 76.7 21.7 77.9 20.9 78.3 20.9 80.3 20.9 80.3 23.5 80.35 26.7 75.5 26.7 75.9 27.7 77.1 27.9 78.3 28.1 79.1 28.7 80.1 28.1 82.75 27.1 82.55 26.7 82.55 26.3 82.55 25.1 83.55 22.5 84.55 19.9 84.75 19.3 85.15 19.25 85.45 19.3 85.75 19.25 86.25 19.3 86.75 19.25 86.95 19.3 88.15 19.25 88.95 18.45 L90.35 18.45 Q91.15 20.1 91.15 20.5 91.15 21.7 88.35 24.5 88.55 24.5 89.35 26.1 90.15 26.1 90.85 25.7 91.55 25.3 91.95 25.3 94.0 25.3 94.0 27.5 93.95 28.9 92.65 29.4 91.35 29.9 90.15 30.5 L89.15 29.7 Q87.95 30.55 87.35 30.5 86.95 30.55 86.75 30.3 86.55 30.15 85.95 30.1 86.75 30.15 82.35 32.35 85.35 34.15 87.55 34.15 88.55 34.15 90.55 31.75 91.15 32.15 92.15 32.55 L92.15 33.75 Q90.95 34.15 89.65 34.75 88.35 35.35 88.35 36.35 88.35 35.95 89.75 38.55 87.15 35.75 85.55 34.95 L78.9 31.75 Q77.5 31.7 73.3 34.15 68.45 36.75 68.25 38.55 69.1 37.55 69.7 37.55 69.45 37.55 71.5 38.55 71.7 38.55 71.7 38.15 L71.5 37.55 Q71.5 37.15 71.5 36.95 71.7 37.15 72.1 37.25 72.5 37.35 72.5 37.55 76.1 35.15 75.7 35.15 76.1 35.15 77.9 35.55 79.7 35.95 80.5 35.95 81.95 40.15 81.95 39.35 81.9 40.35 80.8 41.05 79.7 41.75 79.7 42.55 79.7 43.0 79.9 43.35 L77.7 43.35 Q77.3 43.4 76.1 42.85 74.9 42.35 74.5 42.35 74.1 42.35 73.5 42.75 72.9 43.2 72.5 43.15 71.5 43.2 70.5 40.95 67.85 41.75 67.85 43.55 67.9 45.4 69.5 45.4 70.05 45.4 70.9 44.8 71.7 45.2 72.0 46.7 72.3 48.2 73.5 48.2 L73.7 48.2 Q74.1 48.2 74.3 47.8 72.5 50.8 69.5 56.2 68.25 56.25 66.85 57.65 L66.85 60.05 Q67.25 60.85 68.45 60.85 70.3 60.85 72.7 59.45 73.1 56.4 73.5 53.4 74.5 49.4 78.3 48.8 79.3 49.2 80.2 51.3 81.15 53.4 82.75 53.6 83.15 53.6 83.55 53.2 83.35 52.2 83.35 51.0 83.35 45.2 87.15 45.2 87.95 45.2 88.85 46.4 89.75 47.6 90.55 47.6 L90.75 47.6 Q91.15 48.2 91.15 48.8 91.15 49.2 89.75 51.4 89.95 51.6 90.05 51.9 90.15 52.2 90.35 52.2 91.95 52.2 93.25 50.0 94.6 47.8 96.4 47.8 96.8 47.8 97.8 48.0 98.8 48.2 99.4 48.2 99.4 48.4 99.4 49.0 99.6 49.6 99.6 50.0 99.6 51.2 98.2 52.8 96.8 54.4 95.2 55.8 96.2 57.05 98.8 59.25 99.0 60.05 99.6 61.45 101.0 61.25 101.1 59.15 101.2 57.05 103.0 55.6 104.8 57.65 104.8 60.85 104.8 61.25 104.8 61.65 105.65 61.85 107.05 61.85 107.4 61.85 107.85 61.85 L107.85 63.85 Q107.85 66.65 104.8 66.65 104.4 66.65 103.3 66.25 102.2 65.85 101.8 65.85 101.0 65.85 100.4 67.45 101.6 68.1 102.2 68.05 102.6 68.1 103.1 67.85 103.6 67.7 104.2 67.65 105.85 67.7 107.25 68.65 109.05 70.3 109.65 70.5 L109.65 72.1 Q108.25 72.9 106.25 73.1 103.6 73.5 103.0 73.7 103.8 73.9 105.2 74.5 L105.2 76.1 Q104.4 76.5 102.8 76.5 L102.4 76.5 Q100.6 76.5 99.2 75.1 97.4 75.9 97.4 77.1 97.4 78.5 98.8 78.5 99.4 78.5 101.2 78.0 103.0 77.5 103.2 77.5 104.2 77.5 105.4 78.7 106.65 79.9 106.65 81.1 106.6 81.55 106.45 81.75 107.4 81.7 107.25 81.75 109.45 81.7 109.85 84.55 108.85 86.15 106.45 86.15 106.0 86.15 103.2 85.25 100.4 84.35 99.8 84.35 99.6 84.35 99.0 84.55 98.2 84.55 97.6 84.55 96.8 84.55 96.0 84.35 L96.0 85.95 96.4 86.35 Q97.2 85.75 97.6 85.75 98.0 85.75 99.3 86.25 100.6 86.75 101.0 86.75 100.8 86.75 102.0 86.75 102.2 86.75 102.4 86.55 L102.4 87.95 Q100.6 89.15 97.8 92.15 95.8 94.4 94.2 94.4 93.75 94.35 93.35 94.0 93.0 93.55 92.75 93.55 92.35 93.6 91.95 94.0 91.55 94.35 91.15 94.4 89.75 94.35 88.55 92.55 L87.55 92.55 87.15 93.15 90.95 95.8 Q93.4 97.8 95.4 97.8 97.8 97.8 102.0 94.0 104.2 93.95 104.2 96.0 104.2 96.4 104.0 96.8 103.8 97.2 103.8 97.4 100.0 98.0 97.4 99.2 98.2 100.2 99.8 100.2 100.2 100.2 100.7 100.2 101.2 100.2 101.4 100.2 101.6 101.4 101.6 101.2 101.4 101.8 101.2 102.1 101.0 102.4 100.2 102.4 99.6 102.4 97.3 100.6 95.0 98.8 94.0 98.8 93.75 98.8 93.45 98.8 93.2 98.8 92.95 98.8 92.35 98.8 88.35 96.5 84.35 94.15 80.1 94.2 79.1 94.15 78.1 95.8 L78.1 96.8 Q81.55 98.0 81.75 98.0 82.95 99.0 82.95 101.4 82.95 103.4 82.35 104.6 81.7 105.85 81.55 107.65 81.9 107.45 82.85 106.65 83.75 105.8 84.15 105.8 84.55 105.85 84.75 106.0 84.95 106.25 85.35 106.2 85.55 106.25 88.15 104.6 L89.75 104.6 Q89.95 106.05 90.75 109.25 91.35 108.65 92.15 108.65 94.4 108.65 95.2 110.65 95.6 110.45 97.2 109.05 98.2 110.05 98.2 111.25 98.2 111.45 98.2 111.85 98.2 112.45 99.0 112.45 99.4 112.45 100.3 111.95 101.2 111.45 101.6 111.45 102.0 111.45 102.4 111.65 102.6 111.65 102.8 111.65 L102.8 114.65 Q101.2 116.25 100.8 117.65 100.8 117.9 101.1 118.25 101.4 118.7 101.6 118.9 102.2 118.25 103.0 118.25 103.2 118.3 103.8 118.6 104.4 118.85 105.0 118.9 105.45 118.85 105.8 118.65 106.25 118.5 106.45 118.45 107.6 119.7 107.65 120.9 107.65 120.3 107.05 122.9 106.6 123.1 104.5 123.5 102.4 123.9 102.4 125.1 102.4 126.7 104.2 126.7 104.6 126.7 106.95 125.4 109.25 124.1 110.45 123.7 L110.45 124.1 Q110.45 124.3 110.25 124.5 113.25 129.3 117.85 129.3 118.3 129.3 118.9 129.1 L118.9 131.15 Q118.85 132.9 116.25 133.55 115.25 133.75 113.45 133.75 L112.45 133.75 Q110.45 133.75 109.25 133.75 109.65 134.95 111.45 134.95 111.85 134.95 112.25 134.75 112.85 134.75 113.25 134.75 114.85 134.75 115.45 135.75 L115.45 138.35 Q114.85 138.55 112.25 139.75 112.05 140.55 111.65 141.35 111.25 142.15 110.05 142.15 109.65 142.15 108.55 141.55 107.4 140.95 107.05 140.95 L105.4 140.95 105.2 142.95 105.6 143.35 Q106.45 142.8 107.45 142.75 107.6 142.8 109.55 143.8 111.45 144.8 111.85 145.2 113.05 144.55 115.45 143.35 L116.65 143.35 Q116.85 143.8 117.65 146.2 117.85 146.0 118.05 146.0 117.65 146.0 119.1 146.2 119.25 147.2 119.9 149.5 120.5 151.8 120.5 152.2 M17.65 181.15 Q17.45 180.9 17.25 180.3 16.65 181.35 15.65 182.35 16.65 181.9 17.65 181.15 M21.5 181.15 L21.5 179.9 19.9 179.9 Q18.85 182.15 18.9 184.15 L18.9 184.35 Q21.5 183.55 21.5 181.15 M26.9 76.9 L26.9 74.5 24.9 74.5 Q25.5 75.3 26.9 76.9 M31.1 176.3 L29.1 177.5 30.3 177.5 Q31.15 177.1 31.35 176.3 L31.1 176.3 M38.95 73.5 L37.35 73.5 Q35.35 73.5 30.5 74.7 29.7 75.1 29.7 75.7 31.15 76.1 32.35 76.7 34.35 77.3 34.75 79.7 33.75 80.55 31.75 81.1 L34.95 81.75 Q36.95 80.9 38.15 80.1 37.35 79.95 36.45 78.7 35.55 77.5 35.55 77.1 35.55 76.3 38.95 73.5 M31.35 68.9 L31.35 68.25 30.1 68.25 30.1 68.9 31.35 68.9 M40.55 82.55 L40.55 81.35 38.95 81.35 Q36.35 83.35 33.95 83.35 32.1 83.35 30.1 82.75 L30.1 84.35 35.35 84.35 Q35.75 84.35 37.75 83.55 39.75 82.75 40.55 82.55 M41.35 89.95 Q39.35 89.35 38.95 87.75 39.95 86.55 40.95 84.75 37.95 85.95 35.55 86.55 35.95 87.95 36.65 89.75 37.35 91.55 38.75 91.55 39.95 91.55 41.35 89.95 M39.15 105.0 Q38.75 104.6 37.95 104.6 36.95 107.85 36.95 107.65 36.95 108.05 37.35 108.65 37.55 108.05 38.35 106.75 39.15 105.4 39.15 105.0 M41.55 112.25 Q40.15 111.45 39.35 110.65 39.35 111.45 38.15 112.45 38.55 112.85 38.55 113.45 L40.15 113.45 Q40.75 113.05 41.55 112.25 M49.2 118.45 Q49.2 116.05 46.8 116.05 46.0 116.05 41.95 122.1 43.2 123.3 44.4 123.3 45.0 123.3 47.1 121.2 49.2 119.1 49.2 118.45 M54.2 152.2 Q51.4 150.6 49.6 147.6 48.4 146.0 45.6 146.0 L42.95 146.0 Q45.0 146.2 47.8 147.4 49.6 148.6 49.6 151.0 49.6 152.8 48.8 154.0 51.2 153.4 54.2 152.2 M60.65 58.85 Q59.65 57.0 58.25 55.6 57.4 56.45 56.65 56.45 54.6 56.4 53.4 55.6 52.2 54.85 51.0 54.0 50.0 56.05 49.2 56.0 48.6 56.05 47.6 54.9 46.6 53.8 46.2 53.6 45.4 55.05 43.8 55.8 L43.8 57.65 Q44.55 58.45 45.0 58.45 46.4 57.0 48.0 57.05 48.8 57.0 50.2 57.45 51.0 58.85 51.4 58.85 52.0 57.45 52.3 57.25 52.6 57.0 53.8 57.05 55.65 57.0 56.85 57.45 L56.85 58.85 Q56.8 58.65 58.25 57.45 59.25 58.05 60.65 58.85 M59.05 153.8 L56.65 153.8 Q54.8 153.8 50.1 156.95 45.4 160.05 44.0 161.45 45.8 162.25 46.2 162.25 46.6 162.25 47.4 161.75 48.2 161.25 48.6 161.25 50.2 161.25 50.2 162.45 50.2 162.65 50.2 162.85 53.0 156.65 58.45 156.65 L58.65 156.65 Q59.05 154.8 59.05 153.8 M51.8 127.7 Q52.0 127.5 52.0 127.1 52.0 125.9 51.2 124.3 50.4 122.7 49.6 122.7 46.4 125.1 44.4 129.7 44.75 129.7 45.4 129.9 46.0 130.15 46.4 130.1 47.6 130.15 51.8 127.7 M46.8 112.65 L46.6 112.25 45.8 112.65 45.8 113.25 46.8 112.65 M51.6 77.7 Q51.0 76.9 49.8 75.5 L47.4 75.5 Q48.4 76.9 50.4 78.9 L51.6 77.7 M50.8 168.45 Q49.4 169.3 47.4 171.1 L49.0 171.1 Q49.8 170.25 50.8 168.45 M48.4 93.55 Q48.0 92.8 47.6 91.75 L47.6 94.0 Q47.8 93.95 48.4 93.55 M55.6 101.0 Q55.65 100.2 55.5 100.0 55.45 99.8 52.8 96.8 51.6 96.0 50.4 96.0 L48.6 96.0 Q48.6 96.2 48.4 96.5 48.2 96.8 48.2 97.2 48.2 97.6 50.6 100.0 53.0 102.4 53.0 102.8 L50.6 106.2 Q51.0 105.85 53.8 103.8 55.65 102.6 55.6 101.0 M58.05 139.35 Q56.2 134.75 54.2 130.5 52.4 131.15 49.8 132.35 51.4 132.75 53.2 135.75 55.0 138.75 58.05 139.35 M51.6 167.45 L51.2 167.25 50.8 168.25 51.2 168.45 51.6 167.45 M53.6 28.1 Q53.4 26.9 52.8 25.3 L51.6 25.3 Q51.6 26.3 53.6 28.1 M58.65 159.65 Q58.45 159.65 57.85 159.25 55.4 159.45 54.1 162.15 52.8 164.85 51.6 167.25 52.4 166.05 54.2 163.85 56.05 161.65 58.65 159.65 M57.05 107.45 Q55.8 106.2 55.2 106.2 54.8 106.25 53.6 107.35 52.4 108.45 52.2 108.85 58.05 107.45 57.05 107.45 M59.65 68.05 Q56.0 66.25 55.4 66.25 L52.6 66.25 Q52.8 66.65 58.65 71.5 59.05 70.3 59.65 68.05 M56.45 87.75 Q56.0 87.35 55.2 86.35 54.4 85.35 54.0 85.15 53.8 85.55 53.2 86.55 52.6 87.55 52.6 87.75 53.2 87.95 54.2 87.95 55.4 87.95 56.45 87.75 M63.05 115.05 Q63.05 114.65 60.75 112.65 58.45 110.65 57.85 110.65 L54.2 111.85 Q55.65 112.45 55.6 113.65 55.65 114.05 55.1 114.95 54.6 115.85 54.6 116.45 55.2 116.25 56.25 115.35 57.2 114.45 57.45 114.45 58.05 114.45 59.55 114.95 61.05 115.45 61.45 115.45 62.85 115.45 63.05 115.05 M57.45 31.95 Q57.4 30.7 56.0 30.1 56.05 31.15 56.85 32.75 56.8 32.55 57.45 31.95 M58.25 84.75 L57.65 84.75 57.25 85.95 57.65 86.15 58.25 84.75 M64.05 123.7 Q62.65 123.7 61.85 123.3 61.45 124.5 60.25 124.5 58.25 124.7 58.05 124.7 58.85 126.7 59.65 128.5 60.65 130.95 62.45 131.15 63.45 128.7 64.05 123.7 M60.65 32.15 Q60.45 32.35 60.05 32.95 59.65 33.55 59.45 33.75 59.65 33.95 60.25 34.15 60.65 33.55 60.65 32.15 M63.45 85.35 Q63.05 83.95 63.05 81.95 L63.05 81.35 61.85 81.35 Q60.85 82.35 60.85 83.95 61.85 84.55 63.45 85.35 M64.25 16.05 L62.65 14.85 62.45 15.45 63.85 16.65 64.25 16.05 M64.65 32.55 Q64.65 33.15 62.45 35.75 63.25 36.55 63.85 36.55 64.65 34.75 64.65 32.55 M66.45 111.65 Q66.25 111.05 66.15 109.55 66.05 108.05 65.85 107.25 65.65 107.25 64.65 107.65 L64.65 108.85 Q65.25 109.85 66.45 111.65 M71.1 33.35 Q70.7 33.35 69.9 33.15 69.05 32.95 68.7 32.95 L68.25 34.55 Q68.7 34.35 69.7 33.95 70.7 33.55 71.1 33.35 M70.5 83.75 L69.1 83.75 Q69.05 83.95 69.3 84.55 69.25 85.15 69.3 85.35 69.85 85.35 71.3 84.95 71.3 84.35 70.5 83.75 M71.3 152.6 Q71.3 151.4 70.5 150.0 70.05 150.4 69.3 151.0 L69.3 152.6 71.3 152.6 M73.7 95.4 Q73.7 95.8 73.7 94.6 73.7 93.15 71.9 91.55 L70.3 92.95 Q71.5 95.6 72.1 100.0 73.7 97.0 73.7 95.4 M75.1 139.55 Q72.5 136.95 71.5 134.95 70.7 137.55 70.7 137.75 71.7 139.55 74.7 141.75 74.7 141.35 74.7 140.95 74.7 140.35 75.1 139.55 M77.5 124.5 Q73.1 122.9 73.9 122.9 72.1 122.9 72.1 125.9 L72.1 128.1 Q75.1 126.9 77.5 124.5 M76.1 116.45 L74.9 114.05 Q73.1 116.65 73.1 118.9 73.1 120.7 74.7 120.7 74.9 120.7 75.1 120.7 75.1 119.9 75.6 118.35 76.1 116.85 76.1 116.45 M74.7 88.95 Q73.5 89.55 73.5 90.35 L74.3 91.15 Q74.3 89.75 74.7 88.95 M76.5 143.15 L74.9 142.35 74.7 142.75 76.3 143.55 76.5 143.15 M78.1 129.5 L76.5 129.5 75.1 131.15 Q77.5 130.3 78.1 129.5 M86.95 149.6 Q86.95 148.4 85.55 147.0 84.15 145.6 82.95 145.6 L82.75 145.6 82.75 150.0 Q82.9 149.8 83.35 149.8 83.55 149.8 84.05 149.8 84.55 149.8 84.95 149.8 86.95 149.8 86.95 149.6 M85.55 92.95 L85.55 91.55 82.95 91.95 Q83.95 92.4 85.55 92.95 M108.25 155.2 L107.05 154.0 106.85 154.2 108.05 155.4 108.25 155.2" fill="#000000" fill-rule="evenodd" stroke="none"/>
    </g>
  </defs>
</svg>
