<?xml version="1.0" encoding="UTF-8" standalone="no"?>
<svg xmlns:ffdec="https://www.free-decompiler.com/flash" xmlns:xlink="http://www.w3.org/1999/xlink" ffdec:objectType="frame" height="200.0px" width="179.0px" xmlns="http://www.w3.org/2000/svg">
  <g transform="matrix(1.0, 0.0, 0.0, 1.0, 0.0, 0.0)">
    <rect fill="#ffffff" height="200.0px" width="179.0px"/>
    <use ffdec:characterId="1" height="200.0" transform="matrix(1.0, 0.0, 0.0, 1.0, 0.0, 0.0)" width="178.8" xlink:href="#shape0"/>
  </g>
  <defs>
    <g id="shape0" transform="matrix(1.0, 0.0, 0.0, 1.0, 0.0, 0.0)">
      <path d="M178.8 13.0 Q177.6 13.4 176.2 13.4 175.35 13.4 173.8 13.4 172.35 13.4 171.55 13.4 167.55 13.4 165.35 16.2 165.35 17.0 166.95 17.6 169.4 18.4 169.55 18.6 L169.55 20.0 167.75 20.0 Q167.15 20.05 162.15 18.7 157.15 17.4 156.75 17.4 154.55 17.4 152.75 18.75 153.35 19.45 154.45 21.05 155.55 22.65 156.15 23.2 L139.75 20.4 Q139.55 20.45 139.35 20.4 138.75 20.45 138.55 20.6 139.15 21.85 140.35 24.4 139.35 24.05 137.35 24.0 131.95 24.05 126.95 28.25 119.1 34.65 117.3 35.65 117.7 36.25 118.1 36.25 118.5 36.25 121.6 34.85 124.75 33.45 126.15 33.05 127.5 32.65 140.55 29.65 141.55 32.65 146.15 32.65 146.35 32.65 147.15 32.65 147.95 32.65 148.35 32.65 152.55 32.65 155.35 34.05 155.35 34.25 155.15 34.45 154.95 34.65 154.95 35.25 154.95 36.45 155.75 37.25 156.95 38.65 160.85 40.05 164.75 41.45 165.95 43.45 L162.35 43.45 Q162.35 43.85 161.55 44.45 164.55 47.65 170.35 54.25 169.0 56.45 168.95 57.65 169.0 57.45 172.6 66.85 170.35 63.85 167.15 61.85 162.15 58.85 161.15 58.85 159.35 58.85 159.35 61.3 L159.35 61.45 Q155.95 58.35 153.95 55.65 148.35 47.85 147.75 47.85 146.75 47.85 145.75 49.65 144.55 49.65 141.55 45.65 138.55 41.65 136.55 41.65 136.15 41.65 135.05 42.55 133.95 43.45 132.15 43.45 131.75 43.45 128.35 42.55 124.9 41.65 124.35 41.65 123.9 41.65 120.9 42.65 122.35 44.45 125.75 45.45 129.15 46.45 130.35 48.05 130.75 49.65 132.55 52.65 134.75 54.05 138.35 55.25 141.35 56.25 142.95 58.05 140.95 57.85 141.75 57.85 141.15 57.85 141.15 58.45 141.15 60.25 148.75 65.25 153.75 68.7 153.95 70.65 L150.55 70.65 150.35 70.65 Q150.35 70.85 150.35 71.45 150.35 71.85 153.25 75.3 156.15 78.75 156.15 79.3 L156.15 81.3 Q155.75 81.3 154.85 80.7 153.95 80.1 153.55 80.1 153.15 80.1 152.95 80.3 152.75 80.5 152.35 80.5 L152.35 80.7 Q152.15 80.9 152.15 81.5 152.15 81.9 153.55 84.2 154.95 86.5 155.15 87.7 155.95 92.3 157.95 101.3 L157.75 101.3 Q156.75 101.3 154.55 100.7 153.15 105.9 151.95 114.7 151.35 111.1 148.75 101.7 147.15 101.5 144.55 100.3 143.75 99.7 143.55 93.9 143.15 88.9 141.15 88.9 140.75 88.9 139.45 89.7 138.15 90.5 137.55 90.7 137.15 87.3 136.75 83.9 136.15 79.5 134.75 77.3 134.15 77.45 130.95 80.5 130.15 79.5 129.55 73.65 128.95 69.3 125.55 67.65 123.5 69.7 122.5 71.65 122.75 71.25 122.75 70.65 122.7 68.0 120.4 64.45 118.1 60.9 114.9 59.85 113.5 62.0 111.9 63.65 110.9 60.85 107.5 56.25 L106.5 56.25 Q78.9 106.1 78.1 159.15 L78.1 180.8 78.7 198.4 Q72.05 200.0 68.25 200.0 64.85 200.0 57.85 198.4 61.25 188.8 62.05 179.0 63.85 159.95 64.25 157.35 64.65 156.35 65.85 154.35 67.45 151.35 67.55 146.75 67.65 142.15 67.85 137.95 68.05 135.95 69.75 132.45 71.5 128.95 71.45 128.15 71.5 127.35 71.15 126.05 70.9 124.7 70.85 123.95 70.9 121.5 73.3 115.2 75.65 108.9 75.7 105.7 75.65 104.5 75.3 103.3 79.1 99.7 81.2 90.6 83.3 81.5 87.5 77.1 87.3 76.45 87.3 75.9 87.3 72.65 92.3 63.05 L92.3 59.85 Q90.7 59.85 89.9 61.15 89.1 62.45 88.5 63.25 86.9 61.45 85.3 61.45 83.3 61.45 75.7 68.05 75.05 67.7 73.1 64.65 69.25 65.65 63.65 74.7 62.45 72.05 61.65 72.05 58.85 72.1 57.25 77.5 56.25 80.7 56.25 83.3 L56.25 83.5 Q55.65 82.9 52.65 80.9 50.45 85.1 50.45 87.3 L50.45 96.7 Q48.65 95.5 48.25 95.5 45.65 98.5 45.65 103.7 45.65 105.1 46.85 112.3 46.25 112.3 44.75 109.5 43.25 106.7 41.25 106.7 40.65 106.7 40.05 106.9 39.25 105.7 39.05 101.7 38.85 97.7 36.85 96.3 36.25 96.9 34.45 96.9 L34.45 95.5 Q34.45 94.1 41.05 80.3 L41.05 79.3 Q40.45 79.1 39.05 79.1 38.85 79.1 38.45 79.1 38.85 77.3 42.05 73.6 46.65 68.35 46.85 67.75 46.05 67.35 44.05 66.4 47.85 64.45 54.25 60.7 56.05 58.8 59.85 55.65 61.25 55.25 63.45 54.65 65.65 54.1 74.9 52.9 79.9 52.35 83.9 48.05 83.3 47.25 81.5 47.25 81.3 47.25 80.8 47.25 80.3 47.25 80.1 47.25 79.3 47.25 78.9 47.0 78.65 43.45 74.1 43.45 71.65 43.45 63.05 46.05 62.45 43.4 61.65 42.05 L60.65 42.05 Q58.85 42.05 50.65 46.05 49.45 43.45 47.65 43.45 46.25 43.45 38.85 47.25 38.65 45.9 37.85 43.45 L36.85 43.45 Q36.45 43.45 32.85 46.05 29.25 48.65 28.85 48.65 28.4 48.65 27.05 47.95 25.6 47.25 25.05 47.25 23.8 47.25 18.8 51.5 13.2 56.25 12.4 56.65 L12.4 51.25 3.6 56.65 Q4.0 55.85 5.3 53.05 6.6 50.25 6.6 49.65 6.6 48.25 4.8 48.25 4.2 48.25 2.8 48.85 0.8 49.45 0.0 49.65 0.8 48.65 5.4 44.85 9.0 42.05 9.0 39.85 9.0 38.85 8.4 37.85 9.8 37.45 12.6 36.45 19.0 33.85 27.85 33.85 28.4 33.85 29.05 33.85 29.45 32.85 30.05 30.65 33.25 30.05 34.65 30.05 36.85 30.0 42.25 31.25 50.05 33.25 50.45 33.25 L55.65 33.05 Q55.05 32.05 54.25 29.65 L57.25 29.65 Q56.25 29.65 68.05 33.45 72.1 34.05 79.7 35.65 81.1 36.05 84.9 38.05 87.7 39.85 90.9 39.85 91.7 39.85 93.5 38.25 92.7 36.85 90.0 35.85 87.3 34.85 87.3 34.45 87.3 33.05 88.3 32.05 87.1 30.65 79.3 27.65 78.25 22.8 73.3 22.0 69.05 21.45 64.85 20.6 65.45 19.45 66.25 16.6 65.05 16.6 62.25 17.0 59.45 17.4 59.25 17.4 55.85 17.4 51.95 16.1 48.05 14.8 45.85 14.8 43.05 14.8 41.05 16.0 41.65 15.2 43.25 13.2 41.85 12.4 40.05 12.4 39.65 12.4 35.15 14.2 30.65 16.0 30.25 16.0 L27.45 16.0 Q27.8 15.2 28.65 13.6 27.45 12.6 26.25 12.6 25.4 12.6 15.8 16.0 16.4 15.0 16.4 14.2 16.4 12.0 9.8 12.0 L9.4 12.0 Q6.2 12.0 0.8 12.6 3.8 10.15 6.0 9.95 13.6 8.7 13.6 4.4 13.6 4.0 13.6 3.8 15.0 3.6 17.8 3.6 19.2 3.6 21.2 3.6 L23.25 4.4 Q24.4 4.4 26.55 3.3 28.65 2.2 28.65 0.65 28.65 0.2 28.65 0.0 L33.45 0.0 50.45 3.6 54.05 3.6 Q54.05 3.4 54.05 3.2 54.05 3.0 53.45 1.8 54.85 1.8 58.45 3.1 62.05 4.4 62.25 4.4 62.65 4.4 63.85 4.0 65.05 3.6 65.65 3.6 68.7 3.6 74.0 6.7 79.25 9.8 81.1 9.8 82.1 9.8 82.7 8.5 83.3 7.2 83.5 7.2 84.9 7.2 87.6 10.3 90.3 13.4 91.9 13.4 92.5 13.4 93.2 13.0 93.9 12.6 94.1 12.6 95.5 12.6 98.7 17.4 101.5 21.45 101.8 22.4 102.1 23.45 104.1 28.25 104.9 29.85 106.9 32.45 108.5 31.45 110.1 26.45 112.5 19.6 113.3 18.0 114.9 14.8 116.5 14.8 116.3 14.8 119.5 16.0 124.75 8.0 133.35 4.4 130.15 9.8 130.15 10.0 L130.15 11.8 130.75 12.4 Q133.35 10.6 140.15 7.0 147.95 3.6 150.35 3.6 153.15 5.8 155.55 5.8 155.95 5.8 159.25 5.1 162.55 4.4 163.15 4.4 163.55 4.4 164.55 4.6 165.55 4.8 165.95 4.8 L165.95 5.0 Q165.95 7.8 170.55 9.6 178.4 12.8 178.8 13.0" fill="#000000" fill-rule="evenodd" stroke="none"/>
    </g>
  </defs>
</svg>
