<?xml version="1.0" encoding="UTF-8" standalone="no"?>
<svg xmlns:ffdec="https://www.free-decompiler.com/flash" xmlns:xlink="http://www.w3.org/1999/xlink" ffdec:objectType="frame" height="200.0px" width="104.0px" xmlns="http://www.w3.org/2000/svg">
  <g transform="matrix(1.0, 0.0, 0.0, 1.0, 0.0, 0.0)">
    <rect fill="#ffffff" height="200.0px" width="104.0px"/>
    <use ffdec:characterId="1" height="200.0" transform="matrix(1.0, 0.0, 0.0, 1.0, 0.0, 0.0)" width="103.5" xlink:href="#shape0"/>
  </g>
  <defs>
    <g id="shape0" transform="matrix(1.0, 0.0, 0.0, 1.0, 0.0, 0.0)">
      <path d="M103.5 39.65 Q101.5 38.85 91.0 37.75 80.5 36.65 77.3 36.65 73.25 36.65 69.45 37.65 L70.25 38.25 Q77.7 40.05 84.3 47.25 90.9 54.45 90.9 60.65 L90.9 62.85 Q79.3 54.45 67.25 52.05 L64.25 52.25 Q65.25 55.85 66.85 63.45 72.1 102.3 72.05 116.7 L72.05 125.75 72.9 140.75 72.9 177.0 84.3 171.15 80.9 185.4 Q82.7 185.2 87.0 184.0 91.3 182.8 91.5 182.8 L92.9 182.8 87.5 194.8 Q89.5 196.4 93.5 200.0 L36.05 200.0 Q39.65 197.6 46.45 193.4 46.45 192.0 45.65 186.6 L53.45 186.6 46.65 177.4 60.05 181.4 Q64.05 167.15 64.05 144.55 L64.05 143.75 64.05 93.3 Q63.05 82.7 62.0 72.05 60.55 60.45 57.5 54.65 49.45 60.45 49.45 72.45 49.45 73.9 49.45 76.7 49.65 79.5 49.65 80.7 49.65 81.1 49.65 81.5 39.05 73.05 39.05 57.25 39.05 55.85 39.05 52.65 34.25 54.05 28.3 59.85 22.35 65.65 18.6 72.05 16.4 63.85 16.4 61.85 16.4 47.25 34.45 38.65 30.65 37.45 27.25 37.45 20.6 37.45 13.4 41.9 9.0 44.85 0.0 52.65 L0.0 47.5 Q0.0 45.35 2.2 39.6 8.5 23.45 30.1 23.4 36.65 23.45 39.05 23.4 31.15 11.45 9.8 10.25 19.8 3.0 27.85 3.0 40.45 3.0 50.25 20.4 51.45 19.85 52.05 18.8 55.65 11.2 62.65 5.6 69.65 0.0 76.1 0.0 85.5 0.0 94.7 8.0 74.25 10.8 64.65 25.85 66.65 25.8 79.5 24.8 99.3 24.85 103.5 39.65" fill="#000000" fill-rule="evenodd" stroke="none"/>
    </g>
  </defs>
</svg>
