<?xml version="1.0" encoding="UTF-8" standalone="no"?>
<svg xmlns:ffdec="https://www.free-decompiler.com/flash" xmlns:xlink="http://www.w3.org/1999/xlink" ffdec:objectType="frame" height="203.0px" width="213.0px" xmlns="http://www.w3.org/2000/svg">
  <g transform="matrix(1.0, 0.0, 0.0, 1.0, 0.0, 0.0)">
    <rect fill="#ffffff" height="203.0px" width="213.0px"/>
    <use ffdec:characterId="1" height="201.7" transform="matrix(1.0, 0.0, 0.0, 1.0, 0.0, 0.0)" width="211.6" xlink:href="#shape0"/>
  </g>
  <defs>
    <g id="shape0" transform="matrix(1.0, 0.0, 0.0, 1.0, 0.0, 0.0)">
      <path d="M170.4 201.2 L105.7 164.6 40.65 200.55 55.45 127.7 1.15 76.95 75.0 68.55 106.5 1.2 137.3 68.85 211.1 78.0 156.3 128.2 170.4 201.2" fill="#000000" fill-rule="evenodd" stroke="none"/>
      <path d="M170.4 201.2 L105.7 164.6 40.65 200.55 55.45 127.7 1.15 76.95 75.0 68.55 106.5 1.2 137.3 68.85 211.1 78.0 156.3 128.2 170.4 201.2 Z" fill="none" stroke="#ffffff" stroke-linecap="round" stroke-linejoin="round" stroke-width="1.0"/>
    </g>
  </defs>
</svg>
