<?xml version="1.0" encoding="UTF-8" standalone="no"?>
<svg xmlns:ffdec="https://www.free-decompiler.com/flash" xmlns:xlink="http://www.w3.org/1999/xlink" ffdec:objectType="frame" height="200.0px" width="210.0px" xmlns="http://www.w3.org/2000/svg">
  <g transform="matrix(1.0, 0.0, 0.0, 1.0, 0.0, 0.0)">
    <rect fill="#ffffff" height="200.0px" width="210.0px"/>
    <use ffdec:characterId="1" height="200.0" transform="matrix(1.0, 0.0, 0.0, 1.0, 0.0, 0.0)" width="209.95" xlink:href="#shape0"/>
  </g>
  <defs>
    <g id="shape0" transform="matrix(1.0, 0.0, 0.0, 1.0, 0.0, 0.0)">
      <path d="M105.35 0.0 L136.2 67.65 209.95 76.8 155.15 127.0 169.25 200.0 104.55 163.4 39.5 199.35 54.3 126.5 0.0 75.75 73.85 67.35 105.35 0.0 M105.2 35.05 L87.15 73.55 83.7 81.0 75.55 81.95 33.3 86.75 64.35 115.8 70.35 121.4 68.7 129.45 60.25 171.1 97.45 150.55 104.65 146.55 111.8 150.6 148.8 171.55 140.7 129.8 139.15 121.75 145.2 116.2 176.55 87.45 134.4 82.25 126.2 81.2 122.8 73.75 105.2 35.05" fill="#000000" fill-rule="evenodd" stroke="none"/>
    </g>
  </defs>
</svg>
