<?xml version="1.0" encoding="UTF-8" standalone="no"?>
<svg xmlns:ffdec="https://www.free-decompiler.com/flash" xmlns:xlink="http://www.w3.org/1999/xlink" ffdec:objectType="frame" height="191.0px" width="200.0px" xmlns="http://www.w3.org/2000/svg">
  <g transform="matrix(1.0, 0.0, 0.0, 1.0, 0.0, 0.0)">
    <rect fill="#ffffff" height="191.0px" width="200.0px"/>
    <use ffdec:characterId="1" height="190.5" transform="matrix(1.0, 0.0, 0.0, 1.0, 0.0, 0.0)" width="200.0" xlink:href="#shape0"/>
  </g>
  <defs>
    <g id="shape0" transform="matrix(1.0, 0.0, 0.0, 1.0, 0.0, 0.0)">
      <path d="M99.75 129.95 L130.3 147.25 123.65 112.8 149.55 89.05 114.65 84.75 100.1 52.8 85.25 84.6 50.35 88.55 76.0 112.55 69.0 146.95 99.75 129.95 M169.05 82.8 L133.0 115.9 140.5 154.8 142.3 163.95 99.7 139.8 56.85 163.5 66.6 115.55 30.85 82.15 79.5 76.6 100.2 32.25 120.5 76.8 169.05 82.8 M99.65 145.8 L149.25 173.85 138.45 117.9 180.45 79.4 123.9 72.4 100.25 20.5 76.1 72.15 19.5 78.6 61.15 117.5 49.75 173.4 99.65 145.8 M147.8 121.0 L159.45 181.35 161.25 190.5 99.6 155.65 37.6 189.9 51.75 120.5 0.0 72.15 70.35 64.15 100.35 0.0 129.7 64.45 200.0 73.15 147.8 121.0 M99.8 115.55 L111.9 122.4 109.25 108.8 119.45 99.4 105.7 97.7 99.95 85.1 94.1 97.65 80.35 99.25 90.45 108.7 87.7 122.25 99.8 115.55 M118.6 111.85 L122.1 129.9 123.85 139.05 99.8 125.4 75.55 138.8 81.05 111.7 60.85 92.8 88.35 89.65 100.05 64.6 111.55 89.75 139.0 93.15 118.6 111.85 M109.4 102.5 L104.45 107.05 105.7 113.65 99.85 110.35 94.0 113.6 95.3 107.0 90.4 102.4 97.1 101.65 99.95 95.55 102.7 101.7 109.4 102.5" fill="#000000" fill-rule="evenodd" stroke="none"/>
    </g>
  </defs>
</svg>
