<?xml version="1.0" encoding="UTF-8" standalone="no"?>
<svg xmlns:ffdec="https://www.free-decompiler.com/flash" xmlns:xlink="http://www.w3.org/1999/xlink" ffdec:objectType="frame" height="191.0px" width="200.0px" xmlns="http://www.w3.org/2000/svg">
  <g transform="matrix(1.0, 0.0, 0.0, 1.0, 0.0, 0.0)">
    <rect fill="#ffffff" height="191.0px" width="200.0px"/>
    <use ffdec:characterId="1" height="190.5" transform="matrix(1.0, 0.0, 0.0, 1.0, 0.0, 0.0)" width="200.0" xlink:href="#shape0"/>
  </g>
  <defs>
    <g id="shape0" transform="matrix(1.0, 0.0, 0.0, 1.0, 0.0, 0.0)">
      <path d="M99.75 104.9 L100.0 105.3 99.75 105.4 99.75 104.9 M100.0 105.3 L100.05 105.3 100.0 105.35 100.0 105.3 M154.8 181.65 L154.95 181.75 142.9 119.65 100.75 105.1 189.7 76.45 189.75 76.4 126.95 68.65 100.3 104.9 99.75 104.7 99.65 12.2 73.45 68.25 99.55 104.65 10.45 75.5 10.25 75.55 56.7 118.95 99.75 105.4 99.75 105.7 44.6 180.9 99.6 150.45 99.8 150.55 99.75 105.7 100.0 105.35 154.8 181.65 M147.8 121.0 L160.3 185.7 161.25 190.5 99.6 155.65 37.6 189.9 51.75 120.5 0.0 72.15 70.35 64.15 100.35 0.0 129.7 64.45 200.0 73.15 147.8 121.0" fill="#000000" fill-rule="evenodd" stroke="none"/>
    </g>
  </defs>
</svg>
