<?xml version="1.0" encoding="UTF-8" standalone="no"?>
<svg xmlns:ffdec="https://www.free-decompiler.com/flash" xmlns:xlink="http://www.w3.org/1999/xlink" ffdec:objectType="frame" height="200.0px" width="208.0px" xmlns="http://www.w3.org/2000/svg">
  <g transform="matrix(1.0, 0.0, 0.0, 1.0, 0.0, 0.0)">
    <rect fill="#ffffff" height="200.0px" width="208.0px"/>
    <use ffdec:characterId="1" height="200.0" transform="matrix(1.0, 0.0, 0.0, 1.0, 0.0, 0.0)" width="207.9" xlink:href="#shape0"/>
  </g>
  <defs>
    <g id="shape0" transform="matrix(1.0, 0.0, 0.0, 1.0, 0.0, 0.0)">
      <path d="M46.55 164.6 Q51.35 170.2 57.1 174.8 62.8 179.4 69.25 182.9 L59.85 188.1 Q51.4 182.8 44.3 175.85 L46.55 164.6 M163.5 170.1 L165.45 180.25 Q162.75 182.6 159.9 184.75 156.0 187.65 151.85 190.15 L142.75 185.0 Q149.05 181.9 154.65 177.7 159.35 174.25 163.5 170.1 M56.4 69.35 Q51.4 75.9 48.15 83.45 44.85 90.95 43.35 99.05 41.9 107.15 42.4 115.35 L34.95 108.4 Q35.3 98.35 38.25 88.7 41.2 79.05 46.5 70.45 L56.4 69.35 M114.1 41.35 Q106.05 41.1 98.15 42.75 90.3 44.45 83.0 47.85 L87.8 37.6 Q94.15 35.4 100.8 34.35 107.5 33.3 114.25 33.45 117.5 33.5 120.75 33.85 L124.65 42.35 Q119.4 41.45 114.1 41.35 M105.35 0.0 L107.2 4.05 Q105.25 4.15 103.3 4.35 L105.35 0.0 M9.8 84.95 L0.0 75.75 13.15 74.25 Q11.2 79.5 9.8 84.95 M24.35 73.0 L35.9 71.65 Q32.3 78.5 30.05 85.85 27.8 93.2 27.0 101.0 L18.3 92.85 Q20.15 82.55 24.35 73.0 M172.3 72.1 L183.05 73.45 Q188.65 82.95 191.65 93.55 L184.6 100.0 Q183.0 92.5 179.9 85.45 176.8 78.4 172.3 72.1 M39.5 199.35 L42.0 187.05 Q45.9 190.5 50.15 193.45 L39.5 199.35 M116.55 24.55 Q113.25 24.4 109.9 24.6 101.2 24.75 92.8 26.8 L98.2 15.3 Q103.8 14.45 109.5 14.3 110.65 14.25 111.85 14.2 L116.55 24.55 M50.8 143.9 Q55.95 153.0 63.55 160.15 71.2 167.3 80.65 171.7 83.1 172.9 85.65 173.85 L77.95 178.1 Q77.8 178.05 77.7 178.0 69.0 174.0 61.65 167.9 54.35 161.75 48.75 153.95 L50.8 143.9 M161.2 195.45 Q164.45 193.3 167.5 190.9 L169.25 200.0 161.2 195.45 M206.95 76.4 Q207.45 77.55 207.9 78.65 L199.25 86.6 Q197.2 80.55 194.3 74.85 L206.95 76.4 M161.6 160.35 Q154.1 169.2 144.0 175.15 139.2 178.05 134.0 180.05 L126.15 175.6 Q133.75 173.45 140.65 169.4 146.35 166.05 151.25 161.65 156.1 157.2 159.95 151.85 L161.6 160.35 M153.6 123.3 Q152.05 131.9 147.25 139.05 142.45 146.2 135.4 151.25 128.35 156.25 120.05 158.4 111.7 160.6 103.0 159.25 94.3 158.2 86.75 154.05 79.25 149.9 73.5 143.45 67.8 136.95 64.65 128.95 61.45 120.9 61.5 112.15 61.35 103.4 64.25 95.3 67.2 87.2 72.6 80.45 78.0 73.7 85.25 69.05 92.55 64.4 101.1 62.6 110.0 60.6 118.95 61.9 127.9 63.15 136.0 67.25 L136.2 67.65 136.95 67.75 Q143.95 71.5 149.65 77.05 155.3 82.65 158.95 89.8 162.5 96.3 164.0 103.45 165.5 110.6 165.1 117.9 L159.85 122.7 Q161.15 114.8 159.95 106.9 158.75 99.0 154.9 91.9 151.3 84.8 145.55 79.35 139.8 73.9 132.65 70.5 125.5 67.1 117.65 66.05 109.8 65.05 102.0 66.75 94.15 68.4 87.45 72.6 80.75 76.85 75.75 83.05 70.75 89.2 68.05 96.65 65.3 104.05 65.4 112.1 65.35 120.15 68.25 127.55 71.15 134.95 76.35 140.95 81.6 146.95 88.55 150.8 95.5 154.65 103.5 155.65 111.45 156.95 119.2 154.95 126.9 153.0 133.4 148.4 139.95 143.8 144.4 137.2 148.85 130.6 150.35 122.65 152.2 114.7 150.55 106.9 148.95 99.1 144.55 92.45 140.15 85.75 133.6 81.2 127.05 76.65 119.0 75.25 111.0 73.5 103.25 75.4 95.5 77.3 89.1 82.1 82.65 86.95 78.6 93.8 74.55 100.7 73.95 108.9 73.0 117.1 75.9 124.55 78.8 132.0 84.55 137.65 90.25 143.3 97.75 146.15 105.25 148.95 113.45 147.9 120.05 147.35 125.6 144.25 131.2 141.15 135.35 136.2 139.5 131.3 141.7 125.25 143.95 119.25 143.8 112.9 143.65 106.5 140.7 100.5 138.45 95.65 134.75 91.8 131.05 87.9 126.3 85.4 121.6 82.9 116.25 82.05 110.95 81.2 105.7 82.25 100.4 83.25 95.75 85.95 91.15 88.65 87.7 92.8 84.25 96.95 82.4 102.0 80.6 107.05 80.55 112.45 80.55 117.8 82.5 122.85 84.4 127.9 88.05 131.9 91.65 135.9 96.4 138.4 101.15 140.95 106.55 141.5 111.95 142.15 117.15 140.7 122.35 139.2 126.65 135.95 130.95 132.7 133.7 128.0 136.55 123.35 137.3 118.0 138.05 112.65 136.75 107.4 135.5 102.15 132.1 97.85 128.8 93.5 124.05 90.85 119.3 88.25 113.9 87.65 108.5 87.0 103.3 88.75 98.1 90.45 94.15 94.2 90.2 97.95 88.0 102.9 85.85 107.9 86.05 113.4 86.25 118.95 88.85 123.75 91.45 128.55 95.8 131.8 100.15 135.1 105.6 136.1 111.05 137.2 116.3 135.6 121.55 133.95 125.55 130.25 129.6 126.5 131.4 121.25 132.85 117.35 132.7 113.25 132.5 109.2 130.9 105.4 129.3 101.65 126.45 98.7 123.65 95.75 119.8 94.1 116.05 92.3 111.95 92.2 107.85 92.15 104.0 93.55 100.1 94.95 97.05 97.7 94.05 100.45 92.35 104.3 90.55 108.1 90.55 112.2 90.5 116.35 92.05 120.15 93.65 124.0 96.55 126.9 99.5 129.8 103.55 131.1 107.5 132.65 111.6 132.2 115.7 131.75 119.3 129.65 122.9 127.6 125.35 124.25 127.8 120.9 128.45 116.7 127.8 120.9 125.35 124.3 122.95 127.65 119.35 129.75 115.75 131.85 111.6 132.3 107.5 132.8 103.5 131.25 99.4 129.95 96.4 127.05 93.45 124.1 91.85 120.25 90.25 116.4 90.25 112.2 90.25 108.05 92.1 104.2 93.75 100.25 96.85 97.45 99.95 94.65 103.85 93.2 107.75 91.75 111.95 91.8 116.15 91.85 120.0 93.65 123.9 95.3 126.8 98.35 129.7 101.35 131.4 105.2 133.05 109.05 133.25 113.25 133.45 117.45 131.95 121.45 130.15 126.85 126.0 130.7 121.9 134.55 116.5 136.25 111.1 137.95 105.45 136.85 99.85 135.85 95.35 132.45 90.8 129.1 88.1 124.15 85.35 119.15 85.15 113.45 84.9 107.75 87.15 102.55 89.35 97.35 93.45 93.45 97.55 89.55 102.95 87.75 108.4 85.9 114.0 86.5 119.65 87.15 124.6 89.85 129.6 92.6 133.05 97.1 136.6 101.55 138.0 107.05 139.4 112.55 138.6 118.2 137.85 123.8 134.9 128.7 132.05 133.65 127.5 137.05 123.0 140.5 117.55 142.1 112.1 143.65 106.4 143.0 100.75 142.45 95.7 139.8 90.65 137.2 86.8 133.0 83.0 128.8 80.95 123.45 78.85 118.1 78.85 112.45 78.85 106.75 80.75 101.4 82.65 96.05 86.3 91.65 89.9 87.2 94.8 84.35 99.75 81.45 105.3 80.35 110.9 79.25 116.55 80.1 122.2 80.95 127.25 83.6 132.3 86.25 136.25 90.35 140.2 94.45 142.65 99.6 145.8 106.0 146.0 112.8 146.15 119.6 143.8 126.0 141.5 132.45 137.1 137.7 132.7 142.95 126.75 146.3 120.8 149.65 113.75 150.3 106.75 151.3 100.15 149.5 93.55 147.75 87.95 143.8 82.35 139.9 78.3 134.35 74.25 128.8 72.35 122.25 70.45 115.7 71.25 108.65 71.7 101.65 74.6 95.45 77.5 89.25 82.25 84.35 87.05 79.4 93.1 76.15 99.15 72.95 105.9 71.85 112.65 70.8 119.55 72.3 128.2 73.8 135.3 78.65 142.4 83.5 147.2 90.7 152.0 97.9 153.75 106.3 155.55 114.7 153.6 123.3 M55.05 112.6 Q55.15 120.5 57.55 128.0 60.0 135.5 64.4 142.0 68.85 148.55 74.9 153.6 80.95 158.65 88.3 161.65 94.5 164.35 101.1 165.3 L94.2 169.1 Q90.15 168.1 86.35 166.4 78.65 163.3 72.2 158.15 65.8 153.0 60.95 146.3 56.15 139.6 53.25 131.9 L54.3 126.5 50.75 123.15 Q49.65 118.0 49.6 112.7 49.35 104.4 51.4 96.4 53.5 88.45 57.5 81.25 61.55 74.05 67.25 68.1 L73.85 67.35 77.55 59.5 Q80.1 57.8 82.85 56.35 89.85 52.5 97.5 50.65 105.15 48.8 113.05 48.9 120.9 49.0 128.55 50.95 L131.85 58.2 Q124.3 55.55 116.3 54.95 108.3 54.35 100.5 55.95 92.65 57.55 85.55 61.4 78.55 65.05 72.85 70.5 67.2 75.95 63.15 82.7 59.05 89.5 56.95 97.05 54.85 104.65 55.05 112.6 M149.7 153.45 Q143.15 160.4 134.65 164.7 126.15 168.95 116.75 170.3 L108.95 165.85 Q115.9 165.8 122.6 164.0 129.3 162.2 135.35 158.7 141.35 155.2 146.2 150.1 149.55 146.7 152.15 142.7 154.75 138.75 156.55 134.35 L158.1 142.15 Q154.65 148.35 149.7 153.45 M151.35 69.55 L161.3 70.75 Q167.95 78.2 172.15 87.3 176.4 96.35 177.8 106.25 L172.0 111.55 Q171.5 103.55 168.95 95.9 166.35 88.3 161.9 81.55 157.45 74.85 151.35 69.55" fill="#202020" fill-rule="evenodd" stroke="none"/>
    </g>
  </defs>
</svg>
