<?xml version="1.0" encoding="UTF-8" standalone="no"?>
<svg xmlns:ffdec="https://www.free-decompiler.com/flash" xmlns:xlink="http://www.w3.org/1999/xlink" ffdec:objectType="frame" height="205.0px" width="217.0px" xmlns="http://www.w3.org/2000/svg">
  <g transform="matrix(1.0, 0.0, 0.0, 1.0, 0.0, 0.0)">
    <rect fill="#ffffff" height="205.0px" width="217.0px"/>
    <use ffdec:characterId="1" height="204.6" transform="matrix(1.0, 0.0, 0.0, 1.0, 0.0, 0.0)" width="216.3" xlink:href="#shape0"/>
  </g>
  <defs>
    <g id="shape0" transform="matrix(1.0, 0.0, 0.0, 1.0, 0.0, 0.0)">
      <path d="M47.3 202.15 Q47.35 202.15 47.35 202.1 47.4 202.15 47.4 202.15 L47.4 202.2 Q47.7 202.4 47.3 202.15 47.2 202.2 47.1 202.3 48.45 203.25 48.3 203.15 48.15 203.05 47.1 202.3 46.1 202.95 45.15 203.55 L44.55 203.95 44.25 204.15 44.1 204.25 44.1 204.3 Q43.5 203.8 43.7 203.95 43.9 204.1 44.25 204.4 44.65 204.7 44.55 204.6 44.45 204.55 43.2 203.65 42.0 202.75 38.95 200.5 L38.95 200.45 38.95 200.4 39.0 200.35 39.05 199.05 39.7 197.5 Q39.75 197.05 39.8 196.65 40.1 196.85 40.45 197.1 L40.5 197.05 Q40.25 196.9 40.0 196.7 L39.95 196.75 Q39.9 196.7 39.8 196.65 40.4 192.15 41.55 186.75 42.65 181.4 43.7 175.75 L45.9 166.65 46.2 167.35 Q46.0 166.0 46.5 163.1 47.05 160.15 47.75 156.75 48.5 153.35 48.85 150.5 49.35 147.95 49.95 145.0 50.55 142.05 51.2 139.15 51.8 136.25 52.45 133.9 53.1 131.6 53.7 130.25 53.45 132.05 53.25 132.7 53.1 133.35 52.95 133.65 52.85 133.9 52.65 134.5 52.45 135.1 52.15 136.8 L52.7 137.3 Q52.7 135.9 53.15 134.9 53.6 133.95 53.9 132.95 53.9 131.6 54.3 129.45 L54.25 129.45 Q53.35 128.75 52.65 128.35 52.5 128.05 52.95 128.4 L51.25 127.1 51.1 126.7 Q49.8 125.55 48.75 124.8 47.7 124.0 46.7 123.25 45.7 122.55 44.5 121.5 L46.6 122.7 45.1 121.4 45.2 121.45 Q44.1 120.5 43.2 119.95 42.25 119.35 41.1 118.55 39.9 117.7 38.2 116.0 L38.35 115.8 36.35 114.1 Q36.5 114.1 37.1 114.65 37.75 115.2 38.35 115.65 38.9 116.15 38.9 115.9 37.95 115.25 36.55 114.05 35.1 112.8 33.85 111.65 32.65 110.55 32.15 110.25 32.3 110.05 31.5 109.25 30.7 108.45 29.5 107.4 28.35 106.35 27.35 105.4 26.4 104.45 26.25 103.95 27.4 104.9 27.45 104.85 27.5 104.85 27.0 104.35 26.55 103.85 26.1 103.35 25.7 102.85 25.85 102.85 24.7 101.85 23.65 100.9 22.65 99.95 21.8 99.4 20.85 98.8 21.1 99.2 21.4 99.6 22.15 100.35 22.9 101.15 23.45 101.6 21.55 100.25 19.25 98.3 16.95 96.3 14.2 93.9 12.65 92.25 10.85 90.55 9.1 88.8 7.2 87.05 L3.45 83.5 1.6 81.8 0.75 80.95 0.35 80.55 Q-0.05 81.7 0.0 81.6 0.05 81.45 0.35 80.55 L0.3 80.55 0.25 80.5 0.25 80.45 Q0.5 79.65 0.4 79.9 0.35 80.15 0.15 80.7 0.0 81.2 0.05 81.05 0.05 80.95 0.6 79.3 1.15 77.7 2.45 73.7 L2.5 73.7 2.55 73.7 2.65 73.65 2.95 73.65 Q2.85 73.7 2.5 73.8 2.35 74.25 2.3 74.35 2.05 75.1 1.6 76.55 1.1 78.0 0.3 80.35 L0.35 80.35 0.35 80.4 0.4 80.4 Q0.8 79.15 1.35 77.5 1.9 75.9 2.25 74.75 2.6 73.65 2.5 74.0 L2.55 74.0 2.6 74.0 2.7 74.0 2.95 73.95 3.8 73.85 Q4.6 73.7 5.25 73.55 5.85 73.45 6.55 73.3 6.9 72.15 6.95 72.05 7.0 71.9 6.55 73.3 7.35 73.15 8.5 73.0 8.8 73.2 10.2 73.15 11.65 73.1 13.5 72.95 15.4 72.75 17.15 72.55 18.9 72.3 19.8 72.15 20.55 72.0 20.45 71.95 20.35 71.9 20.3 71.8 20.2 71.75 20.95 71.6 L21.95 72.15 Q22.35 72.05 23.05 71.9 23.75 71.75 24.35 71.6 24.95 71.45 24.95 71.35 L25.2 71.4 Q25.8 71.15 26.9 71.0 28.0 70.85 28.8 70.75 29.6 70.6 29.25 70.4 32.0 70.2 35.5 69.7 38.95 69.25 42.15 68.75 40.8 68.95 40.2 69.1 39.65 69.3 39.2 69.4 38.8 69.55 37.95 69.65 37.1 69.8 35.25 70.0 35.5 69.95 35.5 69.9 35.5 69.9 35.7 69.85 34.6 69.85 34.25 69.95 33.95 70.1 33.75 70.2 33.6 70.35 32.95 70.4 35.35 70.35 38.0 69.95 40.65 69.6 43.4 69.4 L49.8 68.2 Q49.8 68.45 49.2 68.6 48.65 68.8 47.95 68.95 47.25 69.1 46.95 69.25 46.6 69.4 47.15 69.6 48.75 69.4 49.3 69.45 49.85 69.5 50.2 69.65 50.55 69.8 51.55 69.75 52.5 69.7 54.95 69.3 55.05 69.05 54.65 68.8 54.25 68.6 52.95 68.7 52.4 68.55 53.15 68.35 53.95 68.15 55.2 67.9 56.45 67.65 57.25 67.5 62.95 67.0 69.35 65.95 71.55 65.6 73.8 65.25 L74.1 64.6 75.5 61.5 Q75.4 61.8 75.3 62.15 75.15 62.5 75.15 62.65 78.05 56.3 80.7 50.5 83.3 44.75 85.85 39.15 88.35 33.55 90.9 27.75 91.35 26.9 91.5 26.8 91.7 26.7 91.75 26.95 91.8 27.2 91.85 27.25 92.6 25.55 92.85 24.45 93.15 23.35 93.55 22.1 93.95 20.85 95.05 18.7 96.25 17.1 97.3 14.65 98.3 12.25 99.25 9.9 100.2 7.6 101.25 6.35 101.4 5.4 102.0 4.1 102.6 2.8 103.4 1.25 L103.0 2.85 103.85 1.05 104.3 0.15 104.35 0.05 104.35 0.0 Q102.35 0.0 102.65 0.0 102.95 0.0 104.6 0.0 106.2 0.0 108.15 0.05 110.1 0.05 111.35 0.05 112.6 0.05 112.2 0.05 L112.2 0.1 112.3 0.3 112.5 0.7 Q113.25 2.35 113.95 3.75 115.35 6.55 116.65 8.95 117.95 11.35 119.3 13.95 120.6 16.6 122.1 20.1 122.1 20.4 122.05 20.55 122.0 20.75 122.1 21.1 122.2 21.5 122.65 22.45 125.65 27.95 128.0 33.4 128.3 34.1 128.25 34.05 128.15 34.0 127.95 33.65 127.75 33.35 127.65 33.3 127.55 33.25 127.8 33.9 129.4 36.2 130.5 39.0 131.55 41.75 133.1 44.2 133.35 45.25 134.0 46.8 134.65 48.35 135.55 50.1 135.05 49.45 134.3 48.3 133.55 47.15 132.95 46.25 132.3 45.4 132.2 45.6 132.05 45.8 132.8 47.85 132.4 46.75 131.8 46.05 131.25 45.3 130.55 44.25 129.9 43.25 129.25 41.3 L129.5 42.85 Q130.2 44.35 130.75 45.25 131.3 46.2 131.8 47.2 132.35 48.2 133.0 49.85 L132.3 48.6 Q132.6 49.2 132.9 50.25 133.25 51.25 133.65 52.2 134.05 53.15 134.65 53.65 134.95 53.9 135.0 53.65 135.05 53.4 135.1 53.25 135.1 53.05 135.4 53.45 135.7 53.85 136.5 55.4 L135.85 55.2 Q136.3 56.5 136.8 57.3 137.3 58.15 137.75 58.95 137.4 58.5 136.85 57.6 136.3 56.65 135.8 55.85 135.3 55.0 135.05 54.8 134.8 54.6 135.05 55.55 135.9 57.1 136.75 58.85 137.6 60.6 138.25 61.8 138.95 63.0 139.3 62.95 138.8 61.85 138.85 61.8 138.9 61.75 139.2 62.15 139.5 62.55 139.8 62.85 139.75 62.95 139.85 63.25 139.9 63.55 140.25 64.35 140.25 64.35 140.25 64.35 L140.35 64.35 Q140.6 64.35 140.9 64.35 140.25 62.15 139.15 59.95 138.0 57.8 136.9 55.65 135.8 53.55 135.3 51.4 L135.75 52.45 Q135.95 52.5 136.2 52.7 136.5 52.85 136.2 52.15 L138.5 56.15 138.25 56.4 Q138.9 57.75 139.65 59.4 140.4 61.05 141.1 62.35 141.8 63.7 142.35 64.15 142.35 64.3 142.25 64.4 143.1 64.45 144.0 64.6 146.4 65.05 148.8 65.2 151.15 65.35 152.9 65.85 151.9 65.75 150.15 65.6 148.4 65.5 147.0 65.5 145.6 65.5 145.55 65.75 149.3 66.2 152.65 66.35 155.95 66.55 159.15 66.75 162.4 66.95 165.9 67.5 L166.95 68.0 171.8 68.2 Q173.0 68.45 172.75 68.6 172.45 68.7 171.8 68.8 171.15 68.9 171.2 69.05 171.2 69.2 173.05 69.5 174.1 69.55 174.4 69.45 174.7 69.35 174.8 69.2 174.9 69.1 175.25 68.95 176.05 68.95 177.45 69.15 178.85 69.35 181.05 69.7 L179.95 69.65 Q179.95 69.8 180.7 69.95 181.5 70.1 182.5 70.25 183.5 70.45 184.15 70.65 184.4 70.55 184.05 70.4 183.7 70.2 183.1 70.05 182.45 69.85 181.95 69.8 183.65 69.5 185.5 69.8 187.3 70.1 189.45 70.5 191.6 70.95 194.2 71.1 L194.05 71.15 Q196.25 71.2 197.8 71.5 199.4 71.75 201.05 71.65 201.15 71.85 200.4 71.8 199.65 71.8 198.7 71.7 197.75 71.6 197.2 71.65 L197.35 71.6 194.85 71.55 Q196.6 71.8 198.65 72.3 200.7 72.75 203.25 73.05 L205.9 72.85 Q204.75 72.6 204.15 72.6 203.5 72.55 202.95 72.6 202.4 72.65 201.5 72.6 202.65 72.4 203.65 72.4 204.6 72.4 205.8 72.5 207.0 72.55 208.75 72.5 209.55 72.8 210.7 73.05 211.85 73.3 213.15 73.5 L213.35 73.55 213.4 73.55 213.45 73.55 213.5 73.55 Q213.8 74.5 213.75 74.35 213.7 74.2 213.55 73.7 213.35 73.15 213.25 72.85 213.15 72.55 213.35 73.15 213.55 73.75 214.25 75.85 214.9 78.0 216.3 82.35 L216.05 82.6 215.55 83.0 214.55 83.85 Q213.55 84.75 212.7 85.5 213.7 84.75 213.55 85.1 213.4 85.5 212.05 86.7 210.95 87.35 211.3 86.9 211.6 86.45 212.5 85.55 213.35 84.65 214.0 83.9 214.6 83.2 214.1 83.3 213.15 84.15 211.95 85.25 210.8 86.35 209.95 87.2 209.15 88.1 209.35 88.3 210.0 87.8 209.7 88.25 209.4 88.7 209.2 89.1 209.0 89.45 209.95 88.8 208.7 89.8 207.65 90.5 206.65 91.15 205.55 92.4 205.25 92.4 205.05 92.35 204.85 92.25 205.4 91.5 203.85 93.05 203.15 94.1 202.45 95.15 201.75 96.1 201.05 97.1 199.55 98.4 L199.8 98.0 Q198.0 99.9 196.05 101.6 194.15 103.25 192.5 104.65 190.85 106.05 189.85 107.1 L189.4 106.75 Q188.85 107.25 188.25 107.8 187.65 108.35 187.1 108.85 186.95 109.0 187.15 108.9 187.3 108.85 187.5 108.7 186.2 109.95 185.55 110.5 184.95 111.0 184.4 111.35 183.8 111.7 182.7 112.55 L185.6 110.0 Q185.75 109.7 185.4 109.9 185.1 110.05 184.65 110.45 186.1 109.05 187.8 107.6 189.5 106.2 191.15 104.5 190.75 104.45 189.55 105.4 188.3 106.35 186.75 107.75 185.2 109.1 183.9 110.25 184.4 110.25 183.75 110.8 183.1 111.3 182.1 112.1 181.15 112.9 180.65 113.65 180.15 113.75 181.1 112.5 182.1 111.2 183.7 109.65 182.3 110.75 180.55 112.4 178.8 114.05 177.3 115.65 175.95 117.3 174.9 118.75 173.8 120.2 173.6 120.9 172.3 122.1 171.75 122.55 171.2 123.0 170.85 123.3 170.45 123.55 169.6 124.35 169.6 124.05 170.45 123.35 171.35 122.6 172.6 121.35 173.2 120.65 172.95 120.7 172.75 120.7 172.25 120.95 171.75 121.25 171.55 121.25 170.7 122.35 169.7 123.05 168.75 123.75 167.5 124.6 166.3 125.4 164.75 126.8 164.25 127.45 163.95 128.05 163.7 128.65 163.3 129.25 162.95 129.9 162.3 130.75 161.95 131.15 161.45 131.7 L161.2 131.95 161.15 131.95 Q161.65 134.3 162.35 137.0 163.0 139.65 163.4 142.2 L164.9 146.85 164.8 146.75 Q165.0 148.15 165.15 148.35 165.3 148.6 165.45 148.5 165.55 148.4 165.7 148.85 165.6 149.2 165.7 150.0 165.75 150.85 165.75 151.2 165.8 151.6 165.45 150.6 165.15 149.15 165.05 148.7 164.9 148.2 164.8 148.15 164.7 148.1 164.6 147.85 164.45 147.6 164.15 146.65 164.7 148.5 164.85 149.6 164.95 150.7 164.9 151.65 164.9 152.65 165.1 154.15 165.25 154.55 165.55 155.5 165.85 156.45 166.15 157.45 166.45 158.45 166.65 158.85 166.9 159.3 166.9 158.6 166.6 157.05 166.35 156.35 166.1 155.65 165.85 154.85 165.6 154.05 165.35 152.2 165.85 154.45 166.1 155.15 166.3 155.8 166.4 155.85 166.55 155.9 166.75 156.2 167.0 156.55 167.5 158.1 167.4 157.85 167.35 157.8 167.3 157.8 167.35 158.3 L168.35 160.95 Q168.0 160.7 168.0 161.4 168.3 163.1 168.65 163.7 168.95 164.35 169.1 164.8 169.3 165.2 169.2 166.25 168.85 165.15 168.55 164.0 168.2 162.85 167.9 162.0 167.6 161.15 167.3 160.95 168.0 163.35 168.8 165.65 169.6 167.9 170.05 171.0 L170.1 169.3 171.35 174.95 Q171.2 174.55 171.1 173.95 171.0 173.35 170.85 172.95 170.75 172.55 170.65 172.8 170.85 173.65 171.2 174.95 171.55 176.3 171.95 177.65 172.3 179.05 172.55 180.05 172.2 179.3 172.2 180.05 172.2 180.85 172.4 182.2 172.6 183.55 172.8 184.45 172.75 183.45 172.9 183.7 173.05 183.9 173.25 184.3 173.4 184.7 173.3 184.2 173.65 186.15 173.45 186.3 173.25 186.4 172.9 185.75 172.55 185.1 172.4 184.75 172.45 185.1 172.55 185.65 172.65 186.2 172.65 186.55 172.7 186.9 172.55 186.65 172.4 184.6 171.9 182.65 171.35 180.65 170.8 179.55 171.1 181.05 171.05 181.2 170.95 181.35 170.8 181.0 170.6 180.7 170.6 180.85 L169.6 175.9 Q169.6 175.4 169.85 175.95 170.1 176.45 170.35 177.0 170.65 177.55 170.6 177.15 170.6 176.75 170.05 174.4 169.7 173.65 169.4 172.6 169.05 171.55 168.75 170.7 168.45 169.85 168.3 169.8 168.4 170.7 168.6 171.85 168.85 173.05 169.1 173.6 168.8 173.2 168.9 173.75 168.95 174.3 169.2 175.3 169.4 176.3 169.55 177.2 169.65 178.05 169.45 178.25 169.65 178.8 169.95 179.95 170.2 181.05 170.45 182.25 170.7 183.45 170.8 184.35 170.65 184.05 170.35 183.2 170.05 182.35 169.95 180.9 169.8 181.7 170.0 183.2 170.2 184.65 170.3 186.4 170.15 185.35 169.9 184.95 169.65 184.5 169.5 184.4 169.9 185.65 170.0 186.4 170.05 187.15 170.15 187.9 170.2 188.65 170.55 189.85 170.45 189.7 170.15 188.85 169.9 187.95 169.55 186.85 169.2 185.75 168.95 184.85 169.0 185.25 169.1 185.85 169.25 186.4 169.35 186.7 169.25 186.5 169.15 186.15 L172.15 201.85 157.65 193.6 Q159.15 194.8 159.65 195.5 160.15 196.2 160.25 196.65 160.35 197.1 160.7 197.6 159.8 197.2 158.7 196.6 157.6 196.0 156.9 195.7 156.25 195.4 156.65 195.85 L157.65 196.45 Q157.55 196.5 156.65 196.2 155.75 195.9 154.15 195.05 153.0 194.2 152.45 193.75 151.9 193.25 151.15 192.65 150.45 192.05 148.7 190.95 146.3 189.8 144.4 188.6 142.5 187.45 140.65 186.25 138.8 185.0 136.4 183.65 L137.05 183.95 Q135.7 182.8 134.7 182.35 133.65 181.9 132.5 181.4 131.3 180.9 129.5 179.55 L129.8 179.7 Q129.2 179.25 127.9 178.5 126.65 177.75 125.2 176.95 123.8 176.15 122.6 175.6 L125.55 176.9 Q119.95 173.6 114.15 170.25 L108.35 166.95 Q108.3 166.85 108.0 166.75 107.65 166.6 107.4 166.5 L106.5 167.0 103.55 168.65 Q97.75 171.95 92.1 175.25 86.45 178.5 81.15 181.65 81.55 181.35 81.5 181.35 80.9 181.7 80.2 182.1 79.5 182.5 79.05 182.8 78.6 183.1 78.85 183.15 79.0 183.1 79.1 183.05 79.25 183.0 79.6 182.8 78.2 183.65 76.8 184.6 75.4 185.55 74.6 186.2 73.85 186.85 74.3 186.85 73.3 187.2 72.65 187.6 72.05 188.05 71.5 188.45 70.9 188.85 70.0 189.15 69.35 189.45 69.8 189.15 70.25 188.9 70.9 188.45 71.6 188.0 71.6 187.9 70.35 188.25 68.9 189.15 67.45 190.05 66.05 191.0 64.6 192.0 63.45 192.6 63.55 192.45 64.1 192.05 64.65 191.6 65.15 191.25 65.65 190.85 65.55 190.8 65.45 190.75 64.3 191.25 63.1 192.45 60.4 194.2 57.7 195.95 54.35 197.9 51.05 199.85 47.95 201.75 47.8 201.85 47.6 201.95 L47.55 202.2 47.55 202.25 Q47.5 202.2 47.4 202.15 L47.45 202.1 47.45 202.05 Q47.4 202.1 47.35 202.1 47.0 201.85 46.9 201.75 47.05 201.85 47.35 202.1 47.15 201.95 46.9 201.75 L46.9 201.85 Q47.15 202.05 47.3 202.15 M212.05 80.15 Q212.0 79.95 211.9 79.7 212.05 79.7 212.3 79.7 212.3 79.75 212.3 79.85 L212.05 80.15 Q212.15 80.5 212.25 80.85 212.5 80.8 212.6 80.75 L212.6 80.7 Q212.45 80.25 212.3 79.85 L212.45 79.7 212.3 79.7 Q212.3 79.7 212.3 79.7 212.2 79.45 212.15 79.3 L212.55 79.35 212.65 79.35 Q212.65 79.4 212.65 79.45 L212.75 79.35 212.8 79.35 Q212.9 79.7 212.85 79.65 212.85 79.6 212.75 79.35 L213.1 78.95 Q212.95 79.2 213.25 79.1 212.95 78.05 212.9 77.95 212.85 77.8 212.9 77.95 212.9 78.1 212.85 77.9 L212.9 77.85 212.95 77.8 Q213.05 78.05 213.4 79.2 L213.4 79.25 213.4 79.3 213.4 79.25 213.4 79.2 213.45 79.2 Q213.0 77.85 212.95 77.75 212.9 77.6 212.95 77.8 213.05 78.05 212.95 77.8 L212.9 77.8 212.7 77.8 212.35 77.8 212.15 77.8 Q212.2 78.0 212.25 78.15 L212.15 78.25 211.9 78.45 Q211.85 78.3 211.8 78.15 L212.1 77.85 212.1 77.8 211.7 77.85 Q211.6 77.55 211.55 77.4 211.55 77.4 211.45 77.05 L211.4 77.1 211.4 77.2 211.4 77.35 Q211.35 77.5 211.25 77.7 211.3 77.75 211.3 77.85 L211.15 77.85 Q211.05 78.05 210.8 78.35 L211.5 78.45 Q211.4 78.15 211.3 77.85 L211.55 77.85 211.7 77.85 Q211.75 78.0 211.8 78.15 L211.7 78.25 Q211.6 78.35 211.5 78.45 L211.85 78.5 211.9 78.45 Q211.9 78.45 211.9 78.5 L212.35 78.55 Q212.3 78.35 212.25 78.15 L212.35 78.05 Q212.35 78.0 212.5 78.55 L212.85 78.6 212.6 78.85 Q212.7 79.1 212.75 79.35 L212.65 79.35 Q212.55 79.2 212.5 78.95 L212.15 79.3 Q212.15 79.25 212.15 79.3 L212.0 79.4 211.85 79.55 Q211.9 79.65 211.9 79.7 211.75 79.75 211.6 79.75 L210.85 80.45 210.6 80.7 Q211.05 80.75 211.45 80.8 L212.05 80.15 M162.25 128.25 Q162.3 128.2 162.35 128.15 162.05 129.1 161.7 130.15 161.35 131.2 161.15 131.8 161.15 131.75 161.1 131.7 161.3 131.1 161.65 130.1 161.95 129.1 162.25 128.25 162.05 128.45 161.8 128.65 162.05 128.4 162.3 128.15 162.3 128.2 162.25 128.25 M166.75 161.9 Q166.85 162.1 166.9 162.45 166.95 162.8 166.85 162.75 L166.75 161.9 Q166.65 161.75 166.65 162.05 L166.65 161.45 166.75 161.9 M47.35 202.1 Q47.4 202.15 47.4 202.15 47.4 202.15 47.35 202.1 M170.6 180.85 L170.95 182.65 Q170.6 181.05 170.6 180.85 M184.1 111.0 Q184.35 110.7 184.65 110.45 L184.1 111.0 M47.4 202.15 Q48.0 202.55 48.25 202.75 48.45 202.9 47.4 202.15 M39.8 196.65 Q38.5 195.65 38.3 195.55 38.1 195.4 39.8 196.65 M162.35 128.1 Q162.35 128.1 162.3 128.15 162.45 127.75 162.5 127.5 162.45 127.7 162.35 128.0 L162.35 128.05 162.35 128.1 Q162.35 128.1 162.35 128.05 162.5 127.7 162.6 127.4 162.55 127.45 162.5 127.5 162.6 127.2 162.65 127.15 162.6 127.2 162.5 127.5 162.15 127.85 161.75 128.2 L160.35 129.55 160.45 130.0 160.85 129.2 Q160.85 130.3 161.1 131.7 160.95 132.25 161.0 132.05 L161.05 132.0 Q161.05 132.0 161.1 131.95 161.1 131.9 161.15 131.8 161.15 131.85 161.15 131.9 161.55 131.4 162.0 130.85 162.5 130.2 162.95 129.6 163.35 129.05 163.6 128.65 L162.45 129.7 163.15 128.35 163.1 128.5 Q164.5 126.95 165.85 125.7 167.2 124.45 168.9 122.75 L167.45 123.6 Q169.15 122.4 170.85 120.5 172.6 118.6 174.65 117.1 177.05 114.85 177.85 113.75 178.6 112.6 177.75 112.85 176.75 114.05 175.4 115.4 174.05 116.75 173.2 117.85 172.7 118.0 172.7 117.85 172.7 117.7 172.8 117.4 172.9 117.15 172.7 116.95 171.3 118.45 170.3 119.15 169.25 119.8 168.4 120.45 167.55 121.05 166.65 122.4 167.55 121.7 168.15 121.3 168.7 120.85 169.3 120.45 169.9 120.0 170.9 119.35 169.35 121.25 167.2 123.5 165.05 125.7 162.4 128.1 L162.45 128.15 162.6 129.0 162.5 128.55 162.4 128.25 162.4 128.15 Q162.35 128.15 162.35 128.15 162.35 128.1 162.35 128.1 M32.0 110.3 Q31.95 110.1 32.15 110.25 L32.0 110.3 M209.25 83.35 L211.2 81.1 Q210.8 81.0 210.4 80.9 L196.8 93.35 195.0 96.15 Q196.15 95.05 197.85 93.9 199.55 92.8 200.8 91.8 202.05 90.85 201.95 90.1 202.0 89.7 202.7 89.05 203.35 88.4 204.2 87.7 205.05 87.0 205.55 86.45 206.05 85.95 205.8 85.85 L202.6 88.85 202.85 88.6 Q202.65 88.65 202.0 89.15 201.35 89.65 200.75 90.05 200.2 90.5 200.2 90.4 200.15 90.35 201.25 89.3 201.5 89.5 202.55 88.5 203.65 87.5 205.05 86.1 206.45 84.7 207.75 83.6 206.95 84.85 209.25 83.35 M195.1 94.9 Q195.0 95.1 194.85 95.3 L196.05 94.0 195.2 94.8 195.1 94.9 M209.55 77.85 Q208.2 77.85 207.2 77.9 L207.95 78.0 209.3 78.15 Q209.3 78.15 209.35 78.1 L209.55 77.85 M161.4 144.2 L161.05 144.35 161.45 146.3 161.5 146.75 Q161.65 146.45 161.7 146.15 162.05 148.4 162.3 149.95 162.55 151.5 162.7 152.75 L163.6 157.45 164.9 164.35 Q165.25 164.8 165.5 165.3 165.7 165.85 165.85 167.15 165.9 167.85 165.8 167.85 165.7 167.85 165.5 167.35 L166.15 170.7 167.25 176.25 Q167.4 176.6 167.6 176.65 167.75 176.65 167.85 175.9 167.55 174.45 167.25 173.4 166.95 172.3 166.7 171.2 166.4 170.05 166.15 168.4 166.7 169.6 167.0 169.15 167.3 168.7 167.45 167.45 167.6 166.2 167.75 165.05 167.2 163.4 167.15 162.75 167.1 162.15 167.2 161.95 167.3 161.75 167.25 161.3 167.2 160.9 166.7 159.6 L166.65 161.45 Q166.35 159.6 165.95 157.65 165.55 155.75 165.15 154.35 164.75 153.0 164.5 152.85 163.95 150.45 163.6 149.4 163.25 148.3 163.0 147.85 162.7 147.35 162.35 146.6 162.0 145.9 161.4 144.2 M167.8 179.1 L167.95 180.1 167.8 178.8 Q167.8 179.0 167.8 179.1 M164.7 125.35 Q163.85 126.2 162.6 127.4 162.5 127.65 162.4 128.0 L162.4 128.05 Q163.3 127.15 163.95 126.45 164.6 125.7 164.7 125.35 M143.25 67.1 Q143.25 67.05 143.3 67.05 143.2 66.95 143.1 66.9 143.15 67.0 143.25 67.1 M111.2 3.2 Q111.5 3.2 110.9 3.2 L110.85 3.35 Q111.0 3.35 111.15 3.35 L111.2 3.3 111.2 3.25 111.2 3.2 M105.35 3.35 Q105.5 3.35 105.65 3.35 L105.65 3.25 105.6 3.2 Q104.3 3.15 104.0 3.2 103.75 3.2 105.3 3.2 L105.35 3.25 Q105.35 3.3 105.35 3.35 105.75 3.35 105.35 3.35 M0.6 80.5 L0.85 80.6 0.45 80.25 Q0.4 80.3 0.4 80.4 L0.45 80.45 0.6 80.5" fill="#000000" fill-rule="evenodd" stroke="none"/>
    </g>
  </defs>
</svg>
