<?xml version="1.0" encoding="UTF-8" standalone="no"?>
<svg xmlns:ffdec="https://www.free-decompiler.com/flash" xmlns:xlink="http://www.w3.org/1999/xlink" ffdec:objectType="frame" height="201.0px" width="178.0px" xmlns="http://www.w3.org/2000/svg">
  <g transform="matrix(1.0, 0.0, 0.0, 1.0, 0.0, 0.0)">
    <rect fill="#ffffff" height="201.0px" width="178.0px"/>
    <use ffdec:characterId="1" height="200.7" transform="matrix(1.0, 0.0, 0.0, 1.0, 0.0, 0.0)" width="177.9" xlink:href="#shape0"/>
  </g>
  <defs>
    <g id="shape0" transform="matrix(1.0, 0.0, 0.0, 1.0, 0.0, 0.0)">
      <path d="M170.55 141.45 Q173.7 141.5 175.75 143.6 177.85 145.65 177.9 148.8 177.85 151.9 175.75 154.0 173.7 156.05 170.55 156.15 167.45 156.05 165.35 154.0 163.3 151.95 163.2 148.8 L115.1 148.9 93.25 187.0 Q94.9 187.95 95.9 189.6 96.9 191.3 96.9 193.35 96.85 196.45 94.75 198.55 92.7 200.6 89.55 200.7 86.45 200.6 84.35 198.55 82.3 196.45 82.2 193.35 82.25 191.4 83.1 189.8 84.0 188.2 85.55 187.2 L63.4 149.0 14.7 149.15 Q14.5 152.15 12.45 154.1 10.4 156.1 7.35 156.15 4.25 156.05 2.15 154.0 0.1 151.9 0.0 148.8 0.1 145.65 2.15 143.6 4.25 141.55 7.35 141.45 9.3 141.45 10.9 142.35 L35.1 100.25 10.85 58.45 Q9.3 59.35 7.35 59.35 4.25 59.3 2.15 57.2 0.1 55.15 0.0 52.0 0.1 48.9 2.15 46.8 4.25 44.75 7.35 44.65 10.5 44.75 12.55 46.8 14.65 48.9 14.7 52.0 14.7 52.15 14.7 52.25 L62.75 52.15 84.85 13.75 Q83.15 12.75 82.15 11.1 81.15 9.4 81.15 7.35 81.2 4.25 83.3 2.15 85.35 0.1 88.5 0.0 91.6 0.1 93.7 2.15 95.75 4.25 95.85 7.35 95.8 9.4 94.85 11.05 93.85 12.75 92.2 13.7 L114.45 52.05 162.95 51.95 Q163.15 48.95 165.2 47.0 167.25 45.0 170.3 44.95 173.4 45.05 175.5 47.1 177.55 49.2 177.65 52.3 177.55 55.45 175.5 57.5 173.4 59.6 170.3 59.65 168.4 59.65 166.85 58.8 L142.7 100.85 166.85 142.45 Q168.5 141.45 170.55 141.45" fill="#000000" fill-rule="evenodd" stroke="none"/>
    </g>
  </defs>
</svg>
