<?xml version="1.0" encoding="UTF-8" standalone="no"?>
<svg xmlns:ffdec="https://www.free-decompiler.com/flash" xmlns:xlink="http://www.w3.org/1999/xlink" ffdec:objectType="frame" height="200.0px" width="198.0px" xmlns="http://www.w3.org/2000/svg">
  <g transform="matrix(1.0, 0.0, 0.0, 1.0, 0.0, 0.0)">
    <rect fill="#ffffff" height="200.0px" width="198.0px"/>
    <use ffdec:characterId="1" height="200.0" transform="matrix(1.0, 0.0, 0.0, 1.0, 0.0, 0.0)" width="197.95" xlink:href="#shape0"/>
  </g>
  <defs>
    <g id="shape0" transform="matrix(1.0, 0.0, 0.0, 1.0, 0.0, 0.0)">
      <path d="M122.35 119.1 Q124.35 115.4 124.35 110.9 124.35 103.3 118.8 98.35 114.65 94.65 102.2 91.35 L102.2 79.5 Q104.35 80.65 105.25 81.8 106.15 82.9 107.35 85.8 L122.55 83.4 Q121.05 76.85 116.2 73.1 111.4 69.35 102.2 68.75 L102.2 64.7 96.25 64.7 96.25 68.75 Q86.2 69.3 81.1 74.2 76.0 79.1 76.0 86.35 76.0 91.7 78.55 95.4 81.05 99.1 84.55 100.75 88.0 102.45 96.25 104.75 L96.25 119.2 Q93.35 117.8 92.15 116.0 90.9 114.2 90.15 110.15 L73.65 112.1 Q74.35 116.15 75.85 119.05 77.3 121.95 80.05 124.45 82.75 126.9 86.5 128.35 90.25 129.75 96.25 130.25 L96.25 135.3 102.2 135.3 102.2 130.25 Q107.25 130.05 110.7 128.95 114.2 127.8 117.3 125.3 120.35 122.85 122.35 119.1 M174.3 100.0 L197.95 114.25 171.25 121.25 189.95 141.55 162.35 140.75 174.55 165.5 148.3 156.95 153.05 184.15 130.3 168.55 127.15 195.95 109.7 174.55 99.0 200.0 88.25 174.55 70.8 195.95 67.7 168.55 44.9 184.15 49.65 156.95 23.4 165.5 35.6 140.75 8.0 141.55 26.7 121.25 0.0 114.25 23.65 100.0 0.0 85.75 26.7 78.75 8.0 58.45 35.6 59.25 23.4 34.5 49.65 43.05 44.9 15.85 67.7 31.45 70.8 4.05 88.25 25.45 99.0 0.0 109.7 25.45 127.15 4.05 130.3 31.45 153.05 15.85 148.3 43.05 174.55 34.5 162.35 59.25 189.95 58.45 171.25 78.75 197.95 85.75 174.3 100.0 M102.2 106.5 Q106.2 107.85 107.55 109.5 108.9 111.1 108.9 113.05 108.9 115.25 107.3 117.05 105.7 118.8 102.2 119.6 L102.2 106.5 M92.6 81.45 Q93.6 80.2 96.25 79.3 L96.25 89.85 Q93.65 88.95 92.6 87.6 91.6 86.25 91.6 84.45 91.6 82.75 92.6 81.45" fill="#000000" fill-rule="evenodd" stroke="none"/>
    </g>
  </defs>
</svg>
