<?xml version="1.0" encoding="UTF-8" standalone="no"?>
<svg xmlns:ffdec="https://www.free-decompiler.com/flash" xmlns:xlink="http://www.w3.org/1999/xlink" ffdec:objectType="frame" height="200.0px" width="198.0px" xmlns="http://www.w3.org/2000/svg">
  <g transform="matrix(1.0, 0.0, 0.0, 1.0, 0.0, 0.0)">
    <rect fill="#ffffff" height="200.0px" width="198.0px"/>
    <use ffdec:characterId="1" height="200.0" transform="matrix(1.0, 0.0, 0.0, 1.0, 0.0, 0.0)" width="197.95" xlink:href="#shape0"/>
  </g>
  <defs>
    <g id="shape0" transform="matrix(1.0, 0.0, 0.0, 1.0, 0.0, 0.0)">
      <path d="M133.45 111.4 L138.5 88.6 131.85 88.6 129.4 101.35 125.9 88.6 119.2 88.6 115.7 101.35 113.3 88.6 106.6 88.6 111.65 111.4 118.55 111.4 122.55 97.05 126.55 111.4 133.45 111.4 M105.15 111.4 L105.15 106.25 93.0 106.25 93.0 101.75 103.95 101.75 103.95 97.1 93.0 97.1 93.0 93.45 104.8 93.45 104.8 88.6 85.95 88.6 85.95 111.4 105.15 111.4 M81.3 111.4 L81.3 88.6 74.65 88.6 74.65 101.2 66.05 88.6 59.5 88.6 59.5 111.4 66.1 111.4 66.1 98.9 74.65 111.4 81.3 111.4 M174.3 100.0 L197.95 114.25 171.25 121.25 189.95 141.55 162.35 140.75 174.55 165.5 148.3 156.95 153.05 184.15 130.3 168.55 127.15 195.95 109.7 174.55 99.0 200.0 88.25 174.55 70.8 195.95 67.7 168.55 44.9 184.15 49.65 156.95 23.4 165.5 35.6 140.75 8.0 141.55 26.7 121.25 0.0 114.25 23.65 100.0 0.0 85.75 26.7 78.8 8.0 58.45 35.6 59.25 23.4 34.5 49.65 43.05 44.9 15.85 67.7 31.45 70.8 4.05 88.25 25.45 99.0 0.0 109.7 25.45 127.15 4.05 130.3 31.45 153.05 15.85 148.3 43.05 174.55 34.5 162.35 59.25 189.95 58.45 171.25 78.8 197.95 85.75 174.3 100.0" fill="#000000" fill-rule="evenodd" stroke="none"/>
    </g>
  </defs>
</svg>
