<?xml version="1.0" encoding="UTF-8" standalone="no"?>
<svg xmlns:ffdec="https://www.free-decompiler.com/flash" xmlns:xlink="http://www.w3.org/1999/xlink" ffdec:objectType="frame" height="200.0px" width="201.0px" xmlns="http://www.w3.org/2000/svg">
  <g transform="matrix(1.0, 0.0, 0.0, 1.0, 0.0, 0.0)">
    <rect fill="#ffffff" height="200.0px" width="201.0px"/>
    <use ffdec:characterId="1" height="200.0" transform="matrix(1.0, 0.0, 0.0, 1.0, 0.0, 0.0)" width="200.0" xlink:href="#shape0"/>
  </g>
  <defs>
    <g id="shape0" transform="matrix(1.0, 0.0, 0.0, 1.0, 0.0, 0.0)">
      <path d="M165.2 165.2 Q173.6 156.8 179.6 146.55 185.65 136.25 188.9 124.5 192.15 112.75 192.2 100.0 192.15 87.2 188.9 75.5 185.65 63.75 179.6 53.45 173.6 43.2 165.2 34.8 156.8 26.4 146.55 20.4 136.25 14.35 124.5 11.1 112.75 7.85 100.0 7.8 87.25 7.85 75.5 11.1 63.75 14.35 53.45 20.4 43.2 26.4 34.8 34.8 26.4 43.2 20.4 53.45 14.35 63.75 11.1 75.5 7.85 87.25 7.8 100.0 7.85 112.75 11.1 124.5 14.35 136.25 20.4 146.55 26.4 156.8 34.8 165.2 43.2 173.6 53.45 179.6 63.75 185.65 75.5 188.9 87.25 192.15 100.0 192.2 112.75 192.15 124.5 188.9 136.25 185.65 146.55 179.6 156.8 173.6 165.2 165.2 M100.0 0.0 Q116.65 0.05 131.6 5.1 146.6 10.15 159.05 19.3 171.55 28.45 180.7 40.95 189.85 53.4 194.9 68.4 199.95 83.35 200.0 100.0 199.95 116.65 194.9 131.6 189.85 146.6 180.7 159.05 171.55 171.55 159.05 180.7 146.6 189.85 131.6 194.9 116.65 199.95 100.0 200.0 83.35 199.95 68.4 194.9 53.4 189.85 40.95 180.7 28.45 171.55 19.3 159.05 10.15 146.6 5.1 131.6 0.05 116.65 0.0 100.0 0.05 83.35 5.1 68.4 10.15 53.4 19.3 40.95 28.45 28.45 40.95 19.3 53.4 10.15 68.4 5.1 83.35 0.05 100.0 0.0 M99.7 83.45 Q104.55 83.5 108.45 85.8 112.35 88.1 114.65 92.0 116.95 95.9 117.0 100.75 116.95 105.6 114.65 109.5 112.35 113.4 108.45 115.75 104.55 118.05 99.7 118.1 94.85 118.05 90.95 115.75 87.05 113.4 84.7 109.5 82.4 105.6 82.35 100.75 82.4 95.9 84.75 92.0 87.05 88.1 90.95 85.8 94.85 83.5 99.7 83.45 M187.1 99.6 Q187.1 99.75 187.1 99.9 187.0 116.1 181.55 130.45 176.15 144.8 166.35 156.25 156.55 167.75 143.45 175.35 L113.4 123.3 Q119.2 119.75 122.6 113.9 126.05 108.0 126.1 100.75 126.1 100.2 126.05 99.6 L187.1 99.6 M99.7 74.35 Q92.7 74.4 87.0 77.6 L56.35 24.55 Q66.05 18.9 77.05 15.9 88.05 12.85 100.0 12.8 111.8 12.85 122.7 15.8 133.6 18.8 143.2 24.3 L112.4 77.6 Q106.65 74.4 99.7 74.35 M73.25 100.75 Q73.35 108.05 76.75 113.9 80.2 119.8 86.0 123.35 L56.1 175.1 Q43.1 167.5 33.45 156.05 23.75 144.6 18.35 130.3 13.0 116.05 12.9 99.9 12.9 99.75 12.9 99.6 L73.3 99.6 Q73.3 100.2 73.25 100.75" fill="#000000" fill-rule="evenodd" stroke="none"/>
    </g>
  </defs>
</svg>
